<?xml version="1.0" encoding="utf-8"?>
<!-- Generator: Adobe Illustrator 16.0.0, SVG Export Plug-In . SVG Version: 6.00 Build 0)  -->
<!DOCTYPE svg PUBLIC "-//W3C//DTD SVG 1.1//EN" "http://www.w3.org/Graphics/SVG/1.1/DTD/svg11.dtd">
<svg version="1.1" id="Layer_1" xmlns="http://www.w3.org/2000/svg" xmlns:xlink="http://www.w3.org/1999/xlink" x="0px" y="0px"
	 width="1999.466px" height="1287.505px" viewBox="0 0 1999.466 1287.505" enable-background="new 0 0 1999.466 1287.505"
	 xml:space="preserve">
<polygon points="1458.161,643.932 1555.097,547 1644.499,636.396 1547.325,733.094 "/>
<polygon points="1266.128,451.9 1363.065,354.968 1452.467,444.366 1355.293,541.063 "/>
<polygon points="1088.644,629.384 1185.582,532.451 1274.983,621.851 1177.81,718.547 "/>
<polygon points="1280.677,821.416 1377.613,724.484 1467.015,813.881 1369.842,910.577 "/>
<polygon points="1443.611,274.416 1540.549,177.484 1629.95,266.883 1532.777,363.579 "/>
<polygon points="1635.645,466.448 1732.58,369.517 1821.982,458.913 1724.81,555.61 "/>
<polygon points="1621.095,96.933 1718.033,0 1807.435,89.398 1710.261,186.096 "/>
<polygon points="1813.129,288.965 1910.064,192.033 1999.466,281.43 1902.293,378.126 "/>
<polygon points="290.862,0.873 0,291.067 997.7,1287.505 1285.017,995.601 "/>
</svg>
