<svg id="Layer_2" data-name="Layer 2" xmlns="http://www.w3.org/2000/svg" xmlns:xlink="http://www.w3.org/1999/xlink" viewBox="0 0 604.6 384.66"><defs><style>.cls-1,.cls-3{fill:none;}.cls-1{stroke:#000;stroke-miterlimit:10;}.cls-2{fill:url(#linear-gradient);}.Graphic-Style-41{fill:url(#linear-gradient-2);}.cls-4{fill:url(#linear-gradient-3);}.cls-5{fill:url(#linear-gradient-4);}.cls-6{fill:url(#linear-gradient-5);}.cls-7{fill:url(#linear-gradient-6);}.cls-8{fill:url(#radial-gradient);}.cls-9{fill:url(#radial-gradient-2);}.cls-10{fill:url(#linear-gradient-7);}.cls-11{fill:url(#linear-gradient-8);}.cls-12{fill:url(#linear-gradient-9);}.cls-13{fill:url(#linear-gradient-10);}.cls-14{fill:url(#linear-gradient-11);}.cls-15{fill:url(#linear-gradient-12);}.cls-16{fill:url(#linear-gradient-13);}.cls-17{fill:url(#linear-gradient-14);}.cls-18{fill:url(#linear-gradient-15);}.cls-19{fill:url(#linear-gradient-16);}.cls-20{fill:url(#linear-gradient-17);}.cls-21{fill:url(#linear-gradient-18);}.cls-22{fill:url(#linear-gradient-19);}.cls-23{fill:url(#linear-gradient-20);}.cls-24{fill:#561bd1;}.cls-25{fill:url(#linear-gradient-21);}.cls-26{fill:url(#linear-gradient-22);}.cls-27{fill:url(#linear-gradient-23);}.cls-28{fill:url(#linear-gradient-24);}.cls-29{fill:url(#linear-gradient-25);}.cls-30{fill:url(#linear-gradient-26);}.cls-31{fill:url(#linear-gradient-27);}.cls-32{fill:url(#linear-gradient-28);}.cls-33{fill:url(#linear-gradient-29);}.cls-34{fill:url(#linear-gradient-30);}.cls-35{fill:url(#linear-gradient-31);}.cls-36{fill:url(#linear-gradient-32);}.cls-37{fill:url(#linear-gradient-33);}.cls-38{fill:url(#linear-gradient-34);}.cls-39{fill:url(#linear-gradient-35);}.cls-40{fill:url(#linear-gradient-36);}.cls-41{fill:url(#linear-gradient-37);}.cls-42{fill:url(#linear-gradient-38);}.cls-43{fill:url(#linear-gradient-39);}.cls-44{fill:url(#linear-gradient-40);}.cls-45{fill:url(#linear-gradient-41);}.cls-46{fill:url(#linear-gradient-42);}.cls-47{fill:url(#linear-gradient-43);}.cls-48{fill:url(#linear-gradient-44);}.cls-49{fill:url(#linear-gradient-45);}.cls-50{fill:url(#linear-gradient-46);}.cls-51{fill:url(#linear-gradient-47);}.cls-52{fill:url(#linear-gradient-48);}.cls-53{fill:url(#linear-gradient-49);}.cls-54{fill:url(#linear-gradient-50);}.cls-55{fill:url(#radial-gradient-3);}.cls-56{fill:url(#radial-gradient-4);}.cls-57{fill:url(#linear-gradient-51);}.cls-58{fill:url(#linear-gradient-52);}.cls-59{fill:url(#linear-gradient-53);}.cls-60{fill:url(#linear-gradient-54);}.cls-61{fill:url(#linear-gradient-55);}.cls-62{fill:url(#linear-gradient-56);}.cls-63{fill:url(#linear-gradient-57);}.cls-64{fill:url(#linear-gradient-58);}.cls-65{fill:url(#linear-gradient-59);}.cls-66{fill:url(#linear-gradient-60);}.cls-67{fill:url(#linear-gradient-61);}.cls-68{fill:url(#linear-gradient-62);}</style><linearGradient id="linear-gradient" x1="636.34" y1="4342.7" x2="721.59" y2="4401.45" gradientUnits="userSpaceOnUse"><stop offset="0" stop-color="#040030"/><stop offset="1" stop-color="#fff"/></linearGradient><linearGradient id="linear-gradient-2" x1="649.19" y1="4364.09" x2="700.44" y2="4407.34" gradientUnits="userSpaceOnUse"><stop offset="0" stop-color="#ffbb1c"/><stop offset="1" stop-color="#fff"/></linearGradient><linearGradient id="linear-gradient-3" x1="623.74" y1="4364.98" x2="708.99" y2="4423.73" gradientUnits="userSpaceOnUse"><stop offset="0" stop-color="#bf6f5e" stop-opacity="0.74"/><stop offset="1" stop-color="#fff"/></linearGradient><linearGradient id="linear-gradient-4" x1="640.22" y1="4374.72" x2="691.47" y2="4417.97" gradientUnits="userSpaceOnUse"><stop offset="0" stop-color="#ffbb1c" stop-opacity="0.74"/><stop offset="1" stop-color="#fff"/></linearGradient><linearGradient id="linear-gradient-5" x1="637.11" y1="4345.58" x2="722.36" y2="4404.33" xlink:href="#linear-gradient-3"/><linearGradient id="linear-gradient-6" x1="656.43" y1="4355.51" x2="707.68" y2="4398.76" xlink:href="#linear-gradient-4"/><radialGradient id="radial-gradient" cx="337.22" cy="4585.65" r="758.51" gradientUnits="userSpaceOnUse"><stop offset="0" stop-color="#ffcce7" stop-opacity="0.74"/><stop offset="1" stop-color="#fff" stop-opacity="0"/></radialGradient><radialGradient id="radial-gradient-2" cx="350.82" cy="4636.14" r="747.38" gradientUnits="userSpaceOnUse"><stop offset="0" stop-color="#5c0dff" stop-opacity="0.4"/><stop offset="1" stop-color="#ca88ee" stop-opacity="0"/></radialGradient><linearGradient id="linear-gradient-7" x1="693.01" y1="4467.95" x2="732.01" y2="4427.62" gradientUnits="userSpaceOnUse"><stop offset="0" stop-color="#ff8af8"/><stop offset="1" stop-color="#fff"/></linearGradient><linearGradient id="linear-gradient-8" x1="697.67" y1="4472.46" x2="736.67" y2="4432.13" gradientUnits="userSpaceOnUse"><stop offset="0" stop-color="#72e670" stop-opacity="0.74"/><stop offset="1" stop-color="#fff"/></linearGradient><linearGradient id="linear-gradient-9" x1="723.98" y1="4443.82" x2="712.36" y2="4458.7" gradientUnits="userSpaceOnUse"><stop offset="0" stop-color="#f9aaf4" stop-opacity="0.74"/><stop offset="1" stop-color="#f9a7f4"/></linearGradient><linearGradient id="linear-gradient-10" x1="384.84" y1="95.28" x2="403.11" y2="108.24" gradientUnits="userSpaceOnUse"><stop offset="0" stop-color="#e6bb70" stop-opacity="0.74"/><stop offset="1" stop-color="#fff"/></linearGradient><linearGradient id="linear-gradient-11" x1="718.92" y1="4435.39" x2="734.42" y2="4446.39" xlink:href="#linear-gradient-10"/><linearGradient id="linear-gradient-12" x1="712.98" y1="4439.44" x2="734.8" y2="4454.93" xlink:href="#linear-gradient-10"/><linearGradient id="linear-gradient-13" x1="715.02" y1="4440.89" x2="730.52" y2="4451.89" xlink:href="#linear-gradient-4"/><linearGradient id="linear-gradient-14" x1="697.39" y1="4560.36" x2="662.89" y2="4552.11" gradientUnits="userSpaceOnUse"><stop offset="0.01" stop-color="#e64400"/><stop offset="1" stop-color="#fff"/></linearGradient><linearGradient id="linear-gradient-15" x1="677.84" y1="4450.72" x2="691.87" y2="4450.72" xlink:href="#linear-gradient-4"/><linearGradient id="linear-gradient-16" x1="683.17" y1="4429.31" x2="687.79" y2="4450.98" gradientUnits="userSpaceOnUse"><stop offset="0.01" stop-color="#e600e6" stop-opacity="0.74"/><stop offset="1" stop-color="#fff"/></linearGradient><linearGradient id="linear-gradient-17" x1="673.68" y1="4482.29" x2="654.18" y2="4314.79" gradientUnits="userSpaceOnUse"><stop offset="0" stop-color="#5c0dff"/><stop offset="1" stop-color="#fff"/></linearGradient><linearGradient id="linear-gradient-18" x1="665.68" y1="4463.17" x2="665.68" y2="4570.2" gradientUnits="userSpaceOnUse"><stop offset="0" stop-color="#05e681"/><stop offset="1" stop-color="#fff"/></linearGradient><linearGradient id="linear-gradient-19" x1="641.33" y1="4481.57" x2="690.5" y2="4481.57" gradientUnits="userSpaceOnUse"><stop offset="0" stop-color="#3cdb93"/><stop offset="1" stop-color="#7feebc"/></linearGradient><linearGradient id="linear-gradient-20" x1="677.34" y1="4499.04" x2="682.17" y2="4571.54" xlink:href="#linear-gradient-2"/><linearGradient id="linear-gradient-21" x1="673.48" y1="4567.51" x2="643.73" y2="4556.51" xlink:href="#linear-gradient-14"/><linearGradient id="linear-gradient-22" x1="653.98" y1="4500.6" x2="658.81" y2="4573.1" xlink:href="#linear-gradient-2"/><linearGradient id="linear-gradient-23" x1="684.42" y1="4405.91" x2="636.79" y2="4390.78" xlink:href="#linear-gradient-4"/><linearGradient id="linear-gradient-24" x1="634.91" y1="4429.74" x2="691.16" y2="4444.33" gradientUnits="userSpaceOnUse"><stop offset="0" stop-color="#6227db" stop-opacity="0.74"/><stop offset="1" stop-color="#722dff"/></linearGradient><linearGradient id="linear-gradient-25" x1="654.2" y1="4486.57" x2="618.2" y2="4362.24" gradientUnits="userSpaceOnUse"><stop offset="0" stop-color="#c970e6" stop-opacity="0.74"/><stop offset="1" stop-color="#fff"/></linearGradient><linearGradient id="linear-gradient-26" x1="653.27" y1="4486.84" x2="617.27" y2="4362.51" xlink:href="#linear-gradient-25"/><linearGradient id="linear-gradient-27" x1="654.98" y1="4486.35" x2="618.98" y2="4362.02" xlink:href="#linear-gradient-25"/><linearGradient id="linear-gradient-28" x1="685.88" y1="4477.4" x2="649.88" y2="4353.07" xlink:href="#linear-gradient-25"/><linearGradient id="linear-gradient-29" x1="656.05" y1="4438.67" x2="662.38" y2="4467.67" xlink:href="#linear-gradient-24"/><linearGradient id="linear-gradient-30" x1="653.49" y1="4486.78" x2="617.49" y2="4362.45" xlink:href="#linear-gradient-25"/><linearGradient id="linear-gradient-31" x1="683.79" y1="4478.01" x2="647.79" y2="4353.68" xlink:href="#linear-gradient-25"/><linearGradient id="linear-gradient-32" x1="670.05" y1="4487.63" x2="670.05" y2="4531.88" xlink:href="#linear-gradient-19"/><linearGradient id="linear-gradient-33" x1="650.23" y1="4501.01" x2="654.97" y2="4572.14" xlink:href="#linear-gradient-10"/><linearGradient id="linear-gradient-34" x1="328.61" y1="174.5" x2="328.61" y2="174.54" xlink:href="#linear-gradient-10"/><linearGradient id="linear-gradient-35" x1="654.51" y1="4498.67" x2="660" y2="4581.02" xlink:href="#linear-gradient-10"/><linearGradient id="linear-gradient-36" x1="655.39" y1="4510.08" x2="655.39" y2="4516.17" gradientUnits="userSpaceOnUse"><stop offset="0" stop-color="#ffd572"/><stop offset="1" stop-color="#deaf43"/></linearGradient><linearGradient id="linear-gradient-37" x1="650.14" y1="4500.86" x2="654.97" y2="4573.36" xlink:href="#linear-gradient-10"/><linearGradient id="linear-gradient-38" x1="651" y1="4513.78" x2="651.15" y2="4516.02" xlink:href="#linear-gradient-10"/><linearGradient id="linear-gradient-39" x1="352.54" y1="171.76" x2="352.54" y2="171.76" xlink:href="#linear-gradient-10"/><linearGradient id="linear-gradient-40" x1="342.38" y1="171.74" x2="342.38" y2="171.77" xlink:href="#linear-gradient-10"/><linearGradient id="linear-gradient-41" x1="678.77" y1="4504.92" x2="678.77" y2="4515.36" xlink:href="#linear-gradient-36"/><linearGradient id="linear-gradient-42" x1="684.12" y1="4436.41" x2="675.19" y2="4405.57" xlink:href="#linear-gradient-25"/><linearGradient id="linear-gradient-43" x1="681.93" y1="4447.84" x2="690.02" y2="4428.01" xlink:href="#linear-gradient-24"/><linearGradient id="linear-gradient-44" x1="633.46" y1="4382.73" x2="684.71" y2="4425.98" xlink:href="#linear-gradient-4"/><linearGradient id="linear-gradient-45" x1="734.28" y1="4526.26" x2="775.11" y2="4535.84" gradientUnits="userSpaceOnUse"><stop offset="0" stop-color="#fbaac7"/><stop offset="1" stop-color="#ff3d3d"/></linearGradient><linearGradient id="linear-gradient-46" x1="725.46" y1="4518.16" x2="783.21" y2="4538.41" gradientUnits="userSpaceOnUse"><stop offset="0" stop-color="#ff7ac2" stop-opacity="0.74"/><stop offset="1" stop-color="#ff2626"/></linearGradient><linearGradient id="linear-gradient-47" x1="738.03" y1="4520.63" x2="775.19" y2="4552.8" xlink:href="#linear-gradient-45"/><linearGradient id="linear-gradient-48" x1="747.4" y1="4540.35" x2="767.07" y2="4508.69" xlink:href="#linear-gradient-45"/><linearGradient id="linear-gradient-49" x1="734.22" y1="4516.21" x2="807.22" y2="4564.46" xlink:href="#linear-gradient-46"/><linearGradient id="linear-gradient-50" x1="747.84" y1="4546.79" x2="786.84" y2="4523.29" xlink:href="#linear-gradient-45"/><radialGradient id="radial-gradient-3" cx="503.27" cy="4641" r="185.37" gradientUnits="userSpaceOnUse"><stop offset="0" stop-color="#5c0dff" stop-opacity="0.4"/><stop offset="1" stop-color="#fff" stop-opacity="0"/></radialGradient><radialGradient id="radial-gradient-4" cx="808.5" cy="4707" r="247.18" gradientUnits="userSpaceOnUse"><stop offset="0" stop-color="#fff" stop-opacity="0.5"/><stop offset="1" stop-color="#fff" stop-opacity="0"/></radialGradient><linearGradient id="linear-gradient-51" x1="590.63" y1="4584.06" x2="610.29" y2="4552.39" xlink:href="#linear-gradient-45"/><linearGradient id="linear-gradient-52" x1="577.45" y1="4559.91" x2="650.45" y2="4608.16" xlink:href="#linear-gradient-46"/><linearGradient id="linear-gradient-53" x1="591.06" y1="4590.5" x2="630.06" y2="4567" xlink:href="#linear-gradient-45"/><linearGradient id="linear-gradient-54" x1="557.01" y1="4507.44" x2="576.67" y2="4475.77" xlink:href="#linear-gradient-45"/><linearGradient id="linear-gradient-55" x1="543.83" y1="4483.3" x2="616.83" y2="4531.55" xlink:href="#linear-gradient-46"/><linearGradient id="linear-gradient-56" x1="557.44" y1="4513.88" x2="596.44" y2="4490.38" xlink:href="#linear-gradient-45"/><linearGradient id="linear-gradient-57" x1="557.01" y1="4497.44" x2="576.67" y2="4465.77" xlink:href="#linear-gradient-45"/><linearGradient id="linear-gradient-58" x1="543.83" y1="4473.3" x2="616.83" y2="4521.55" xlink:href="#linear-gradient-46"/><linearGradient id="linear-gradient-59" x1="557.44" y1="4503.88" x2="596.44" y2="4480.38" xlink:href="#linear-gradient-45"/><linearGradient id="linear-gradient-60" x1="557.01" y1="4487.44" x2="576.67" y2="4455.77" xlink:href="#linear-gradient-45"/><linearGradient id="linear-gradient-61" x1="543.83" y1="4463.3" x2="616.83" y2="4511.55" xlink:href="#linear-gradient-46"/><linearGradient id="linear-gradient-62" x1="557.44" y1="4493.88" x2="596.44" y2="4470.38" xlink:href="#linear-gradient-45"/></defs><title>instagram</title><path class="cls-1" d="M414,4592" transform="translate(-331.4 -4339.57)"/><path class="cls-2" d="M702.2,4369.29c-10.71,2.38-21.77,0-33.35-8.14-16.89-11.8-14.41,19.39-14.41,19.39l-8,2-2.18.55s-14.22-16.8,8.08-35.87,42,2.29,48.63,11.14c6.44,8.58,15.13,4.94,15.65,4.71a47.31,47.31,0,0,1-11.75,5.48C704,4368.85,703.1,4369.08,702.2,4369.29Z" transform="translate(-331.4 -4339.57)"/><path class="Graphic-Style-41" d="M672.82,4400.15a30.54,30.54,0,0,0-2.21,4.64c-0.53,1.49-.78,2.91-0.15,3.54-7.76,3.56-18.57-2.44-18.57-2.44,4.16-12.73-5.18-11.65-5.42-23.32l8-2s-2.48-31.19,14.41-19.39c11.58,8.1,22.64,10.52,33.35,8.14C702.22,4370.07,703,4402.73,672.82,4400.15Z" transform="translate(-331.4 -4339.57)"/><path class="cls-3" d="M654.34,4378.6c0,0.7,0,1.36,0,2l0.13,0S654.38,4379.8,654.34,4378.6Z" transform="translate(-331.4 -4339.57)"/><path class="cls-4" d="M654.31,4380.57l-7.84,2a17.61,17.61,0,0,0,.48,3.88l7.49-1.91S654.31,4382.93,654.31,4380.57Z" transform="translate(-331.4 -4339.57)"/><path class="cls-5" d="M654.31,4380.57l-7.84,2a17.61,17.61,0,0,0,.48,3.88l7.49-1.91S654.31,4382.93,654.31,4380.57Z" transform="translate(-331.4 -4339.57)"/><path class="cls-6" d="M702.2,4369.29c-10.71,2.38-21.77,0-33.35-8.14-14.3-10-14.71,10.82-14.51,17.45,0.27-8.41,2.46-21.87,14.51-13.45,11.52,8.05,22.52,10.49,33.17,8.18A36.63,36.63,0,0,0,702.2,4369.29Z" transform="translate(-331.4 -4339.57)"/><path class="cls-7" d="M702.2,4369.29c-10.71,2.38-21.77,0-33.35-8.14-14.3-10-14.71,10.82-14.51,17.45,0.27-8.41,2.46-21.87,14.51-13.45,11.52,8.05,22.52,10.49,33.17,8.18A36.63,36.63,0,0,0,702.2,4369.29Z" transform="translate(-331.4 -4339.57)"/><path class="cls-8" d="M936,4573.55c0,75.45-136,150.11-274.38,136s-99.69-52.22-170.51-73.75-159.72-.4-159.72-62.27c0-75.45,135.35-136.61,302.3-136.61S936,4498.1,936,4573.55Z" transform="translate(-331.4 -4339.57)"/><path class="cls-9" d="M741.91,4458.89q9.46,1.63,18.58,3.55C860,4483.26,930.28,4527.81,935.66,4580h0a63.12,63.12,0,0,1,.34,6.46c0,75.45-136,150.12-274.38,136s-99.69-52.21-170.51-73.74-159.72-.4-159.72-62.27a62.06,62.06,0,0,1,.35-6.59c3.53-33.61,34-64,81.76-87,2.27-1.09,4.56-2.16,6.9-3.21,0.93-.43,1.88-0.84,2.82-1.26q6.72-3,13.84-5.71c1.76-.69,3.55-1.36,5.35-2q8.1-3,16.65-5.74c4-1.28,8-2.51,12.16-3.7a514,514,0,0,1,55-12.52c5.9-1,11.91-1.94,18-2.8,4-.54,8-1.06,12-1.55,18.41-2.19,37.51-3.63,57.11-4.22q10.08-.29,20.34-0.3c19.33,0,38.24.82,56.56,2.4q8.47,0.72,16.75,1.64" transform="translate(-331.4 -4339.57)"/><path class="cls-10" d="M723.38,4440h0c-3.94,0-6.29,4.69-6.24,8.72,0-4,2.36-8.42,6.24-8.38,0.3-.74.6-1.46,0.89-2.16,0-.1.08-0.18,0.1-0.23a92,92,0,0,1,4.81-9.68,19.76,19.76,0,0,0-22.93,4.17,32.14,32.14,0,0,0-4.33,5.51,55.24,55.24,0,0,0-4,7.59,106,106,0,0,0-6.57,21.73s21.74-8.63,26.8-3.57c0-1.29.08-2.58,0.2-3.88a5.86,5.86,0,0,1-.75-0.45C711.92,4455.28,715.11,4440,723.38,4440Z" transform="translate(-331.4 -4339.57)"/><path class="cls-11" d="M717.17,4448.72c-0.05-4,2.29-8.72,6.24-8.72h0c-8.26,0-11.46,15.28-5.75,19.38a5.86,5.86,0,0,0,.75.45,54.49,54.49,0,0,1,.87-6A6.13,6.13,0,0,1,717.17,4448.72Z" transform="translate(-331.4 -4339.57)"/><path class="cls-12" d="M717.17,4448.72c-0.05-4,2.29-8.72,6.24-8.72h0c-8.26,0-11.46,15.28-5.75,19.38a5.86,5.86,0,0,0,.75.45,57.58,57.58,0,0,1,.87-6.12A5.8,5.8,0,0,1,717.17,4448.72Z" transform="translate(-331.4 -4339.57)"/><polygon class="cls-13" points="392.1 100.42 392.09 100.43 392.09 100.43 392.1 100.42"/><path class="cls-14" d="M724.4,4437.95c0,0.05-.05,0-0.1.06-0.24.62-.78,1.91-0.81,2s0.61-1.16,1-2Z" transform="translate(-331.4 -4339.57)"/><path class="cls-15" d="M719.26,4453.7c1.88,1.34,5.11,1.17,10-2.44,5.57-7.59-3.8-12.88-4.73-13.29-0.37.85-1,2-1,2h-0.08C717.44,4440,715.13,4450.74,719.26,4453.7Z" transform="translate(-331.4 -4339.57)"/><path class="cls-16" d="M719.26,4453.7c1.88,1.34,5.11,1.17,10-2.44,5.57-7.59-3.8-12.88-4.73-13.29-0.37.85-1,2-1,2h-0.08C717.44,4440,715.13,4450.74,719.26,4453.7Z" transform="translate(-331.4 -4339.57)"/><path class="cls-17" d="M680.38,4552.71s18.9,1.74,16.58,8.29c-2.38,5.08-22.35-2.73-23-3.34a6,6,0,0,1,1.08-5.74A4.17,4.17,0,0,0,680.38,4552.71Z" transform="translate(-331.4 -4339.57)"/><path class="cls-18" d="M687.72,4444.75c6,1.9,5.61,11.75-1.92,12.23a13.63,13.63,0,0,1-6.3-1.34c-0.53-.23-1.08-0.49-1.65-0.79h0c0.07-3,.34-7,1.28-8.69l0.21,0.12a13.22,13.22,0,0,1,6.24-1.85A6.89,6.89,0,0,1,687.72,4444.75Z" transform="translate(-331.4 -4339.57)"/><path class="cls-19" d="M687.94,4444.82l-0.22-.07a6.89,6.89,0,0,0-2.15-.32v-0.23l-2.64-9.08,0.75-.3h0l1.91-.59Z" transform="translate(-331.4 -4339.57)"/><path class="cls-20" d="M684,4434.81l1.6-.59,1.52,7,10.88,4.34a55.14,55.14,0,0,1,4-7.59c-2.17-2.17-7.95-2.49-11.37-7.55-2.65-3.92-4.44-14.83-7.09-19.59s-8.31-5.81-12.89-6c-0.53,1.49-.78,2.91-0.15,3.54-7.76,3.56-18.57-2.44-18.57-2.44s-10.27,1.66-14.55,6.61c-2.24,6.06-5.12,18.44-.2,34,1,1.83,3.21,3.41,6.18,4.78,1.09,0.5,2.29,1,3.55,1.42-1.26-.44-2.46-0.92-3.55-1.42a210.74,210.74,0,0,1-.44,21.79c-0.2,2.38-.47,4.7-0.83,6.81a0.54,0.54,0,0,0,.4.88c4.83,1.49,36.55-6.4,43.55-9.53h0a3.34,3.34,0,0,0,1.57-.82,5,5,0,0,0,.12-0.59c-0.23-3.21-1.87-12.39-1.87-12.39l0-.47a13.63,13.63,0,0,1-6.3-1.34c0,0.9-1.63,3-1.63,3h0s-0.06-1.66,0-3.81c0.07-3,.34-7,1.28-8.69l0.21,0.12a13.22,13.22,0,0,1,6.24-1.85v-0.23l-2.64-9.08,1.06-.3h0Z" transform="translate(-331.4 -4339.57)"/><path class="cls-21" d="M686.79,4479.86c-0.54-4.41-.83-7.88-0.51-8.6-7.25,3.13-38.86,11-43.69,9.53l-0.08.23c0.08,0.61.14,1.31,0.17,2.1,0.35,8.24-1.8,25.14-.71,26.14,0.56,0.51,4.26,1.27,8.81,1.61a54.54,54.54,0,0,0,8.95,0,22.54,22.54,0,0,0,6.6-1.39c1.11-.62,1.17-3.6,1.78-4.6,0,0,0,0,0,0a38,38,0,0,0,4.64,1.15q0.46,0.09,1,.15a34,34,0,0,0,9.8-.3c3.49-.62,6.19-1.71,6.19-3C689.71,4500.55,687.81,4488.43,686.79,4479.86Z" transform="translate(-331.4 -4339.57)"/><path class="cls-22" d="M686.16,4473.06a10.91,10.91,0,0,1,.12-1.8c-7.25,3.13-38.86,11-43.69,9.53l-0.08.23c0.08,0.61.14,1.31,0.17,2.1,0.1,2.39-.19,8.75-0.19,8.75C645.81,4484.65,673.61,4474.75,686.16,4473.06Z" transform="translate(-331.4 -4339.57)"/><path class="cls-23" d="M683.52,4505.88l1.78,23.53-4.92,23.3a4.17,4.17,0,0,1-5.3-.79c-1.47-6.8,1.65-22.51,1.65-22.51s-3.6-16.53-3.07-22.85l0.06-.38A34,34,0,0,0,683.52,4505.88Z" transform="translate(-331.4 -4339.57)"/><path class="cls-24" d="M679.5,4455.64c0,0.9-1.63,3-1.63,3s-0.06-1.66,0-3.81h0C678.42,4455.15,679,4455.41,679.5,4455.64Z" transform="translate(-331.4 -4339.57)"/><path class="cls-25" d="M657.38,4558.71s18.9,1.74,16.58,8.29c-2.38,5.08-22.35-2.73-23-3.34a6,6,0,0,1,1.08-5.74l0.23-.43c1.82,2,3.49,1.58,4.31,1.17Z" transform="translate(-331.4 -4339.57)"/><path class="cls-26" d="M659.74,4511l1.76,20.54-4.35,26.78a2.61,2.61,0,0,1-.53.34c-0.82.41-2.49,0.82-4.31-1.17-0.73-11.13-.64-22.49,1.46-26.22-2-6.53-3-19.9-3-19.9l0-.5a54.54,54.54,0,0,0,9,0v0.1Z" transform="translate(-331.4 -4339.57)"/><path class="cls-3" d="M672.82,4400.15a30.54,30.54,0,0,0-2.21,4.64c-0.53,1.49-.78,2.91-0.15,3.54-7.76,3.56-18.57-2.44-18.57-2.44,4.16-12.73-5.18-11.65-5.42-23.32" transform="translate(-331.4 -4339.57)"/><path class="cls-27" d="M672.82,4400.15a59,59,0,0,1-14.23-3.22s13.7,4.58,12.43,6.79c0,0,1-2.3,1.8-3.57" transform="translate(-331.4 -4339.57)"/><path class="cls-3" d="M702.2,4369.28h0c0,0.77.76,32.77-28.45,30.93" transform="translate(-331.4 -4339.57)"/><path class="cls-3" d="M724.3,4438.18c-0.29.7-.59,1.42-0.89,2.16a79.42,79.42,0,0,0-4.15,13.53,49.55,49.55,0,0,0-1.07,9.83c-5.06-5.06-26.8,3.57-26.8,3.57a106,106,0,0,1,6.57-21.73,55.25,55.25,0,0,1,4-7.59,32.14,32.14,0,0,1,4.33-5.51,19.76,19.76,0,0,1,22.93-4.17,92,92,0,0,0-4.81,9.68" transform="translate(-331.4 -4339.57)"/><path class="cls-3" d="M726.22,4441.09a6.47,6.47,0,0,0-2.73-.75h-0.08c-6-.06-8.28,10.57-4.15,13.53,1.88,1.34,5.11,1.09,10-2.52,5.8-7.9-4.59-13.4-4.81-13.4,0,0.05,0,.13-0.1.23-0.25.64-.81,2.16-0.81,2.16" transform="translate(-331.4 -4339.57)"/><path class="cls-3" d="M670.61,4404.79c4.58,0.21,10.25,1.26,12.89,6s4.44,15.67,7.09,19.59c3.42,5.06,9.19,5.38,11.36,7.55" transform="translate(-331.4 -4339.57)"/><path class="cls-3" d="M651.89,4405.89s-10.27,1.66-14.55,6.61c-2.24,6.06-5.12,18.44-.2,34,1,1.83,3.21,3.41,6.18,4.78,11.68,5.36,34.55,7.35,34.55,7.35s-0.06-1.66,0-3.81c0.07-3,.34-7,1.28-8.69a2.41,2.41,0,0,1,.38-0.52c-9-.7-21.15-2-31.11-6.33-0.71-2.22-.08-11.83,1.92-14.53" transform="translate(-331.4 -4339.57)"/><path class="cls-28" d="M678.42,4448.33s-25.89-3.32-30.9-8.33a16.54,16.54,0,0,0-5,.67s3.5-1.7,4.38-1.7-1-5.49,3.44-14.19c-2.29,5.91-2.63,12.31-1.92,14.53,10,4.29,22.1,5.63,31.11,6.33a2.41,2.41,0,0,0-.38.52,8,8,0,0,0-.7,2.17" transform="translate(-331.4 -4339.57)"/><path class="cls-3" d="M679.33,4446.28a13.22,13.22,0,0,1,6.24-1.85,6.89,6.89,0,0,1,2.15.32c6,1.9,5.61,11.75-1.92,12.23a13.63,13.63,0,0,1-6.3-1.34c-0.53-.23-1.08-0.49-1.65-0.79" transform="translate(-331.4 -4339.57)"/><polyline class="cls-3" points="352.29 95.24 354.04 94.65 355.64 101.63 356.4 104.96"/><polyline class="cls-3" points="354.18 104.63 351.39 95.55 352.29 95.25"/><path class="cls-3" d="M686.28,4471.25a4.15,4.15,0,0,0,1.43-.82c0-.16,0-0.36,0-0.59-0.23-3.21-1.87-12.39-1.87-12.39" transform="translate(-331.4 -4339.57)"/><path class="cls-3" d="M643.3,4450.86s0,0.16,0,.45a210.73,210.73,0,0,1-.44,21.79c-0.2,2.38-.47,4.7-0.83,6.81-0.21.42,0,.71,0.54,0.88,4.83,1.49,36.44-6.4,43.69-9.53" transform="translate(-331.4 -4339.57)"/><line class="cls-3" x1="366.56" y1="105.97" x2="355.64" y2="101.63"/><path class="cls-3" d="M689.71,4502.91c0-2.36-1.9-14.48-2.92-23.05-0.54-4.41-.83-7.88-0.51-8.6h0" transform="translate(-331.4 -4339.57)"/><path class="cls-3" d="M668.12,4504.88a38,38,0,0,0,4.64,1.15q0.47,0.09,1,.15a34,34,0,0,0,9.8-.3c3.49-.62,6.19-1.71,6.19-3" transform="translate(-331.4 -4339.57)"/><path class="cls-3" d="M642.51,4481c0.08,0.61.14,1.31,0.17,2.1,0.35,8.24-1.8,25.14-.71,26.14,0.56,0.51,4.26,1.27,8.81,1.61a54.54,54.54,0,0,0,9,0,22.54,22.54,0,0,0,6.6-1.39c1.11-.62,1.17-3.6,1.78-4.6" transform="translate(-331.4 -4339.57)"/><path class="cls-3" d="M683.5,4505.66l0,0.22,1.78,23.53-4.92,23.3a4.17,4.17,0,0,1-5.3-.79c-1.47-6.8,1.65-22.51,1.65-22.51s-3.6-16.53-3.07-22.85" transform="translate(-331.4 -4339.57)"/><path class="cls-3" d="M680.38,4552.71s18.9,1.74,16.58,8.29c-2.38,5.08-22.35-2.73-23-3.34a6,6,0,0,1,1.08-5.74" transform="translate(-331.4 -4339.57)"/><path class="cls-3" d="M657.38,4558.71s18.9,1.74,16.58,8.29c-2.38,5.08-22.35-2.73-23-3.34a6,6,0,0,1,1.08-5.74" transform="translate(-331.4 -4339.57)"/><path class="cls-3" d="M644.85,4452h0c-0.52-.21-1-0.43-1.52-0.65h0C643.81,4451.54,644.32,4451.75,644.85,4452Z" transform="translate(-331.4 -4339.57)"/><path class="cls-3" d="M646.87,4452.73c-0.56-.2-1.1-0.4-1.63-0.61h0C645.77,4452.33,646.31,4452.53,646.87,4452.73Z" transform="translate(-331.4 -4339.57)"/><path class="cls-3" d="M645.24,4452.12h0l-0.4-.16h0Z" transform="translate(-331.4 -4339.57)"/><path class="cls-3" d="M677.83,4456.35c0-.23,0-0.47,0-0.72C677.83,4455.88,677.83,4456.12,677.83,4456.35Z" transform="translate(-331.4 -4339.57)"/><path class="cls-3" d="M678.8,4446.9a4.94,4.94,0,0,1,.32-0.74h0A4.93,4.93,0,0,0,678.8,4446.9Z" transform="translate(-331.4 -4339.57)"/><path class="cls-29" d="M644.85,4452c-0.52-.21-1-0.43-1.52-0.65C643.81,4451.54,644.32,4451.75,644.85,4452Z" transform="translate(-331.4 -4339.57)"/><path class="cls-30" d="M642.76,4451l0.32,0.16h0Z" transform="translate(-331.4 -4339.57)"/><path class="cls-31" d="M644.85,4452l0.39,0.16Z" transform="translate(-331.4 -4339.57)"/><path class="cls-32" d="M677.83,4455.63c0-.25,0-0.51,0-0.78a30.66,30.66,0,0,1,1-7.95,30.66,30.66,0,0,0-1,7.95C677.84,4455.12,677.83,4455.38,677.83,4455.63Z" transform="translate(-331.4 -4339.57)"/><path class="cls-33" d="M677.87,4458.66s-20.54-1.79-32.63-6.54l-0.4-.16c-0.52-.21-1-0.43-1.52-0.65h0c0,1.23.14,4.87,0.09,9.44h0A153.55,153.55,0,0,1,677.87,4458.66Z" transform="translate(-331.4 -4339.57)"/><path class="cls-34" d="M643.32,4451.31h0l-0.23-.11h0l0.23,0.11h0Z" transform="translate(-331.4 -4339.57)"/><path class="cls-35" d="M677.87,4458.66l0.25-.35-0.25.35s0-.93,0-2.31C677.84,4457.73,677.87,4458.66,677.87,4458.66Z" transform="translate(-331.4 -4339.57)"/><path class="cls-3" d="M680.26,4423.37a111,111,0,0,1,3.43,11.44h0" transform="translate(-331.4 -4339.57)"/><path class="cls-3" d="M575.61,4574a3.3,3.3,0,0,0,.25.63c0.85,1.65,3.3,3.3,6.44,4.47" transform="translate(-331.4 -4339.57)"/><path class="cls-3" d="M575.53,4567.14c0-.11,0-0.22,0-0.33h0s-0.29,5.74.09,7.13" transform="translate(-331.4 -4339.57)"/><path class="cls-3" d="M575.69,4568a1.14,1.14,0,0,1-.09-0.26,1,1,0,0,1,0-.24" transform="translate(-331.4 -4339.57)"/><path class="cls-3" d="M576.75,4569.55a3,3,0,0,1-.24-0.26,4.82,4.82,0,0,1-.57-0.78" transform="translate(-331.4 -4339.57)"/><path class="cls-3" d="M611.2,4575a1.74,1.74,0,0,1-1.4,1.34s0,0,0,0,0,0,0,0-0.32.1-.49,0.15" transform="translate(-331.4 -4339.57)"/><path class="cls-3" d="M582.3,4579.05a27.11,27.11,0,0,0,5.79,1.43l10.1,1.36,7.67,1c3.25,0.27,5.49-.8,5.49-1.58L611.2,4575" transform="translate(-331.4 -4339.57)"/><path class="cls-3" d="M611.2,4575V4575a1.26,1.26,0,0,0,0-.27l-2.13-8.09c-0.74-2.79-6.34-5.71-12.48-6.53a16.44,16.44,0,0,0-7.47.43c-1.77.64-2.68,1.73-2.3,3.13l0.17,0.71-1.57-.21a16.58,16.58,0,0,0-7.47.43c-1.36.5-2.2,1.26-2.35,2.22a1.76,1.76,0,0,0,0,.33,2.5,2.5,0,0,0,.08.58,2,2,0,0,0,.08.26,4.22,4.22,0,0,0,.25.53,4.82,4.82,0,0,0,.57.78,2.84,2.84,0,0,0,.24.26c2.07,2.14,6.54,4.06,11.34,4.7l17.77,2.4a9.65,9.65,0,0,0,3.45-.08,3.55,3.55,0,0,0,.52-0.15l0,0,0,0A1.57,1.57,0,0,0,611.2,4575Z" transform="translate(-331.4 -4339.57)"/><path class="cls-3" d="M567.55,4496.61a1.74,1.74,0,0,1-1.4,1.34s0,0,0,0,0,0,0,0a5.44,5.44,0,0,1-1,.25" transform="translate(-331.4 -4339.57)"/><path class="cls-3" d="M538.64,4500.61a26.76,26.76,0,0,0,5.8,1.44l10.31,1.39,7.46,1a8.61,8.61,0,0,0,4.8-.78,1.64,1.64,0,0,0,.52-0.42,0.61,0.61,0,0,0,.17-0.39l-0.09-3.85-0.06-2.4" transform="translate(-331.4 -4339.57)"/><path class="cls-3" d="M633.31,4479.79a1.74,1.74,0,0,1-1.4,1.34h0" transform="translate(-331.4 -4339.57)"/><path class="cls-3" d="M781.86,4570.29a4.15,4.15,0,0,1-1.15-1.83,1.6,1.6,0,0,1-.05-0.29" transform="translate(-331.4 -4339.57)"/><path class="cls-3" d="M567.19,4511.9a1,1,0,0,0,.51-0.69s-0.13-6-.13-6.42a1.11,1.11,0,0,0,0-.17,2.12,2.12,0,0,0-.26-0.55,3.43,3.43,0,0,0-.28-0.4" transform="translate(-331.4 -4339.57)"/><path class="cls-3" d="M567.29,4512.07a1.4,1.4,0,0,0-.1-0.16" transform="translate(-331.4 -4339.57)"/><path class="cls-3" d="M567.19,4511.91h0" transform="translate(-331.4 -4339.57)"/><path class="cls-3" d="M567,4511.67s0.08,0.09.18,0.23" transform="translate(-331.4 -4339.57)"/><path class="cls-36" d="M670.61,4484.65c-1,4.1,1.39,21.23,1.39,21.23a33.29,33.29,0,0,1-3.89-1S669.55,4485.71,670.61,4484.65Z" transform="translate(-331.4 -4339.57)"/><path class="cls-37" d="M651,4510.82v0l-0.14.47A26.16,26.16,0,0,0,651,4514h0.07A25.23,25.23,0,0,1,651,4510.82Z" transform="translate(-331.4 -4339.57)"/><polygon class="cls-38" points="328.61 174.52 328.61 174.52 328.61 174.52 328.61 174.52"/><path class="cls-39" d="M651.06,4514.06c1.68,1.5,7.42,1.94,8.94-.06h-8.95v0.06Z" transform="translate(-331.4 -4339.57)"/><path class="cls-40" d="M659.74,4511v-0.08a54.47,54.47,0,0,1-8.95-.06c0,0.58.14,2.19,0.27,3.19v0.06c1.68,1.5,7.42,1.94,8.94-.06Z" transform="translate(-331.4 -4339.57)"/><path class="cls-41" d="M651.06,4514.09H651l0.07,0.06v-0.06Z" transform="translate(-331.4 -4339.57)"/><path class="cls-42" d="M651.06,4514.09H651l0.07,0.06v-0.06Z" transform="translate(-331.4 -4339.57)"/><polygon class="cls-43" points="352.54 171.76 352.54 171.76 352.54 171.76 352.54 171.76"/><polygon class="cls-44" points="342.38 171.76 342.38 171.76 342.38 171.76 342.38 171.76"/><path class="cls-45" d="M683.52,4505.71a34.05,34.05,0,0,1-9.8.38l-0.06.26a28.77,28.77,0,0,0,.11,4.65,10.25,10.25,0,0,0,10.16,0Z" transform="translate(-331.4 -4339.57)"/><path class="cls-46" d="M683.69,4435.12l0-.22-0.05,0C683.69,4435,683.69,4435.06,683.69,4435.12Z" transform="translate(-331.4 -4339.57)"/><path class="cls-47" d="M687.46,4437.38c-1.42-2.1-8.34-19.75-8.34-19.75s4.39,13.7,4.56,17.29l0.05,0,0.26-.07h0l1.6-.59,1.52,7,10.88,4.34C691,4441.2,690.88,4442.44,687.46,4437.38Z" transform="translate(-331.4 -4339.57)"/><path class="cls-48" d="M649.39,4391.72c2.43,3.65,5.1,6.21,2.5,14.17,0,0,10.81,6,18.57,2.44a2.43,2.43,0,0,1-.24-2.19C656.19,4406.95,654.44,4394.92,649.39,4391.72Z" transform="translate(-331.4 -4339.57)"/><path class="cls-49" d="M769.25,4539.43l0.06-4.43h0a3.26,3.26,0,0,1-.19-0.44l-1.22-5-0.79-3.19c-0.75-2.78-6.32-5.72-12.46-6.54a16.55,16.55,0,0,0-7.46.42c-1.77.64-2.68,1.74-2.31,3.13l0.18,0.72-1.57-.21a16.6,16.6,0,0,0-7.47.42c-1.36.5-2.21,1.26-2.36,2.22h0s-0.29,5.75.09,7.14a3.68,3.68,0,0,0,1,1.86,17.9,17.9,0,0,0,5.3,3.23,54.12,54.12,0,0,0,6,1.45l9.42,1.25,8.5,1.14c3.24,0.26,5.43-.76,5.43-1.54Z" transform="translate(-331.4 -4339.57)"/><path class="cls-50" d="M769.31,4534.79v-0.05a1.45,1.45,0,0,0,0-.28l-1.3-4.93-0.83-3.16c-0.75-2.78-6.34-5.71-12.48-6.53a16.58,16.58,0,0,0-7.47.43c-1.77.64-2.68,1.74-2.31,3.13l0.18,0.72-1.57-.21a16.6,16.6,0,0,0-7.47.42c-1.36.5-2.21,1.26-2.36,2.22a2.15,2.15,0,0,0,0,.62,1.5,1.5,0,0,0,.06.29,4.33,4.33,0,0,0,1.14,1.83c1.76,1.81,5.24,3.47,9.2,4.33h0c0.7,0.15,1.41.27,2.13,0.37l17.77,2.4a9.61,9.61,0,0,0,3.44-.08,3.69,3.69,0,0,0,.53-0.15l0,0H768A1.57,1.57,0,0,0,769.31,4534.79Z" transform="translate(-331.4 -4339.57)"/><path class="cls-51" d="M769.26,4539.43l0.05-4.43s-1.38,8-23.31,5.24l1.31,0.17,8.11,1.07,8.5,1.14c3.24,0.26,5.43-.76,5.43-1.54Z" transform="translate(-331.4 -4339.57)"/><g id="New_Symbol_10" data-name="New Symbol 10"><path class="cls-52" d="M769.25,4539.43l0.06-4.43h0a3.26,3.26,0,0,1-.19-0.44l-1.22-5-0.79-3.19c-0.75-2.78-6.32-5.72-12.46-6.54a16.55,16.55,0,0,0-7.46.42c-1.77.64-2.68,1.74-2.31,3.13l0.18,0.72-1.57-.21a16.6,16.6,0,0,0-7.47.42c-1.36.5-2.21,1.26-2.36,2.22h0s-0.29,5.75.09,7.14a3.68,3.68,0,0,0,1,1.86,17.9,17.9,0,0,0,5.3,3.23,54.12,54.12,0,0,0,6,1.45l9.42,1.25,8.5,1.14c3.24,0.26,5.43-.76,5.43-1.54Z" transform="translate(-331.4 -4339.57)"/><path class="cls-53" d="M769.31,4534.79v-0.05a1.45,1.45,0,0,0,0-.28l-1.3-4.93-0.83-3.16c-0.75-2.78-6.34-5.71-12.48-6.53a16.58,16.58,0,0,0-7.47.43c-1.77.64-2.68,1.74-2.31,3.13l0.18,0.72-1.57-.21a16.6,16.6,0,0,0-7.47.42c-1.36.5-2.21,1.26-2.36,2.22a2.15,2.15,0,0,0,0,.62,1.5,1.5,0,0,0,.06.29,4.33,4.33,0,0,0,1.14,1.83c1.76,1.81,5.24,3.47,9.2,4.33h0c0.7,0.15,1.41.27,2.13,0.37l17.77,2.4a9.61,9.61,0,0,0,3.44-.08,3.69,3.69,0,0,0,.53-0.15l0,0H768A1.57,1.57,0,0,0,769.31,4534.79Z" transform="translate(-331.4 -4339.57)"/><path class="cls-54" d="M769.26,4539.43l0.05-4.43s-1.38,8-23.31,5.24l1.31,0.17,8.11,1.07,8.5,1.14c3.24,0.26,5.43-.76,5.43-1.54Z" transform="translate(-331.4 -4339.57)"/></g><path class="cls-55" d="M468.18,4655.83q2.19,0.38,4.31.82c23.08,4.83,39.37,15.16,40.62,27.26h0a14.64,14.64,0,0,1,.08,1.5c0,17.49-31.54,34.81-63.62,31.54s-23.11-12.11-39.53-17.1-37-.09-37-14.44a14.39,14.39,0,0,1,.08-1.53c0.82-7.79,7.87-14.85,19-20.17l1.6-.74,0.65-.29q1.56-.68,3.21-1.32l1.24-.47q1.88-.69,3.86-1.33c0.92-.3,1.86-0.58,2.82-0.86a119.18,119.18,0,0,1,12.76-2.9c1.37-.23,2.76-0.45,4.17-0.65l2.78-.36c4.27-.51,8.7-0.84,13.24-1q2.34-.07,4.72-0.07c4.48,0,8.87.19,13.11,0.56q2,0.17,3.88.38" transform="translate(-331.4 -4339.57)"/><path class="cls-56" d="M754.13,4596.05q2.17,0.37,4.26.81c22.81,4.77,38.91,15,40.14,26.94h0a14.47,14.47,0,0,1,.08,1.48c0,17.29-31.17,34.4-62.88,31.17s-22.84-12-39.07-16.9-36.6-.09-36.6-14.27a14.22,14.22,0,0,1,.08-1.51c0.81-7.7,7.78-14.68,18.74-19.94l1.58-.74,0.65-.29q1.54-.68,3.17-1.31l1.23-.46q1.86-.69,3.82-1.31c0.91-.29,1.84-0.58,2.79-0.85a117.79,117.79,0,0,1,12.61-2.87c1.35-.23,2.73-0.45,4.12-0.64l2.75-.36c4.22-.5,8.59-0.83,13.09-1q2.31-.07,4.66-0.07c4.43,0,8.76.19,13,.55q1.94,0.16,3.84.38" transform="translate(-331.4 -4339.57)"/><g id="New_Symbol_10-2" data-name="New Symbol 10"><path class="cls-57" d="M612.48,4583.13l0.06-4.43h0a3.26,3.26,0,0,1-.19-0.44l-1.22-5-0.79-3.19c-0.75-2.78-6.32-5.72-12.46-6.54a16.55,16.55,0,0,0-7.46.42c-1.77.64-2.68,1.74-2.31,3.13l0.18,0.72-1.57-.21a16.6,16.6,0,0,0-7.47.42c-1.36.5-2.21,1.26-2.36,2.22h0s-0.29,5.75.09,7.14a3.68,3.68,0,0,0,1,1.86,17.9,17.9,0,0,0,5.3,3.23,54.12,54.12,0,0,0,6,1.45l9.42,1.25,8.5,1.14c3.24,0.26,5.43-.76,5.43-1.54Z" transform="translate(-331.4 -4339.57)"/><path class="cls-58" d="M612.54,4578.5v0a1.45,1.45,0,0,0,0-.28l-1.3-4.93-0.83-3.16c-0.75-2.78-6.34-5.71-12.48-6.53a16.58,16.58,0,0,0-7.47.43c-1.77.64-2.68,1.74-2.31,3.13l0.18,0.72-1.57-.21a16.6,16.6,0,0,0-7.47.42c-1.36.5-2.21,1.26-2.36,2.22a2.15,2.15,0,0,0,0,.62,1.5,1.5,0,0,0,.06.29,4.33,4.33,0,0,0,1.14,1.83c1.76,1.81,5.24,3.47,9.2,4.33h0c0.7,0.15,1.41.27,2.13,0.37l17.77,2.4a9.61,9.61,0,0,0,3.44-.08,3.69,3.69,0,0,0,.53-0.15l0,0h0.06A1.57,1.57,0,0,0,612.54,4578.5Z" transform="translate(-331.4 -4339.57)"/><path class="cls-59" d="M612.48,4583.13l0.05-4.43s-1.38,8-23.31,5.24l1.31,0.17,8.11,1.07,8.5,1.14c3.24,0.26,5.43-.76,5.43-1.54Z" transform="translate(-331.4 -4339.57)"/></g><g id="New_Symbol_10-3" data-name="New Symbol 10"><path class="cls-60" d="M578.86,4506.51l0.06-4.43h0a3.26,3.26,0,0,1-.19-0.44l-1.22-5-0.79-3.19c-0.75-2.78-6.32-5.72-12.46-6.54a16.55,16.55,0,0,0-7.46.42c-1.77.64-2.68,1.74-2.31,3.13l0.18,0.72-1.57-.21a16.6,16.6,0,0,0-7.47.42c-1.36.5-2.21,1.26-2.36,2.22h0s-0.29,5.75.09,7.14a3.68,3.68,0,0,0,1,1.86,17.9,17.9,0,0,0,5.3,3.23,54.12,54.12,0,0,0,6,1.45l9.42,1.25,8.5,1.14c3.24,0.26,5.43-.76,5.43-1.54Z" transform="translate(-331.4 -4339.57)"/><path class="cls-61" d="M578.92,4501.88v-0.05a1.45,1.45,0,0,0,0-.28l-1.3-4.93-0.83-3.16c-0.75-2.78-6.34-5.71-12.48-6.53a16.58,16.58,0,0,0-7.47.43c-1.77.64-2.68,1.74-2.31,3.13l0.18,0.72-1.57-.21a16.6,16.6,0,0,0-7.47.42c-1.36.5-2.21,1.26-2.36,2.22a2.15,2.15,0,0,0,0,.62,1.5,1.5,0,0,0,.06.29,4.33,4.33,0,0,0,1.14,1.83c1.76,1.81,5.24,3.47,9.2,4.33h0c0.7,0.15,1.41.27,2.13,0.37l17.77,2.4a9.61,9.61,0,0,0,3.44-.08,3.69,3.69,0,0,0,.53-0.15l0,0h0.06A1.57,1.57,0,0,0,578.92,4501.88Z" transform="translate(-331.4 -4339.57)"/><path class="cls-62" d="M578.86,4506.51l0.05-4.43s-1.38,8-23.31,5.24l1.31,0.17,8.11,1.07,8.5,1.14c3.24,0.26,5.43-.76,5.43-1.54Z" transform="translate(-331.4 -4339.57)"/></g><g id="New_Symbol_10-4" data-name="New Symbol 10"><path class="cls-63" d="M578.86,4496.51l0.06-4.43h0a3.26,3.26,0,0,1-.19-0.44l-1.22-5-0.79-3.19c-0.75-2.78-6.32-5.72-12.46-6.54a16.55,16.55,0,0,0-7.46.42c-1.77.64-2.68,1.74-2.31,3.13l0.18,0.72-1.57-.21a16.6,16.6,0,0,0-7.47.42c-1.36.5-2.21,1.26-2.36,2.22h0s-0.29,5.75.09,7.14a3.68,3.68,0,0,0,1,1.86,17.9,17.9,0,0,0,5.3,3.23,54.12,54.12,0,0,0,6,1.45l9.42,1.25,8.5,1.14c3.24,0.26,5.43-.76,5.43-1.54Z" transform="translate(-331.4 -4339.57)"/><path class="cls-64" d="M578.92,4491.88v-0.05a1.45,1.45,0,0,0,0-.28l-1.3-4.93-0.83-3.16c-0.75-2.78-6.34-5.71-12.48-6.53a16.58,16.58,0,0,0-7.47.43c-1.77.64-2.68,1.74-2.31,3.13l0.18,0.72-1.57-.21a16.6,16.6,0,0,0-7.47.42c-1.36.5-2.21,1.26-2.36,2.22a2.15,2.15,0,0,0,0,.62,1.5,1.5,0,0,0,.06.29,4.33,4.33,0,0,0,1.14,1.83c1.76,1.81,5.24,3.47,9.2,4.33h0c0.7,0.15,1.41.27,2.13,0.37l17.77,2.4a9.61,9.61,0,0,0,3.44-.08,3.69,3.69,0,0,0,.53-0.15l0,0h0.06A1.57,1.57,0,0,0,578.92,4491.88Z" transform="translate(-331.4 -4339.57)"/><path class="cls-65" d="M578.86,4496.51l0.05-4.43s-1.38,8-23.31,5.24l1.31,0.17,8.11,1.07,8.5,1.14c3.24,0.26,5.43-.76,5.43-1.54Z" transform="translate(-331.4 -4339.57)"/></g><g id="New_Symbol_10-5" data-name="New Symbol 10"><path class="cls-66" d="M578.86,4486.51l0.06-4.43h0a3.26,3.26,0,0,1-.19-0.44l-1.22-5-0.79-3.19c-0.75-2.78-6.32-5.72-12.46-6.54a16.55,16.55,0,0,0-7.46.42c-1.77.64-2.68,1.74-2.31,3.13l0.18,0.72-1.57-.21a16.6,16.6,0,0,0-7.47.42c-1.36.5-2.21,1.26-2.36,2.22h0s-0.29,5.75.09,7.14a3.68,3.68,0,0,0,1,1.86,17.9,17.9,0,0,0,5.3,3.23,54.12,54.12,0,0,0,6,1.45l9.42,1.25,8.5,1.14c3.24,0.26,5.43-.76,5.43-1.54Z" transform="translate(-331.4 -4339.57)"/><path class="cls-67" d="M578.92,4481.88v-0.05a1.45,1.45,0,0,0,0-.28l-1.3-4.93-0.83-3.16c-0.75-2.78-6.34-5.71-12.48-6.53a16.58,16.58,0,0,0-7.47.43c-1.77.64-2.68,1.74-2.31,3.13l0.18,0.72-1.57-.21a16.6,16.6,0,0,0-7.47.42c-1.36.5-2.21,1.26-2.36,2.22a2.15,2.15,0,0,0,0,.62,1.5,1.5,0,0,0,.06.29,4.33,4.33,0,0,0,1.14,1.83c1.76,1.81,5.24,3.47,9.2,4.33h0c0.7,0.15,1.41.27,2.13,0.37l17.77,2.4a9.61,9.61,0,0,0,3.44-.08,3.69,3.69,0,0,0,.53-0.15l0,0h0.06A1.57,1.57,0,0,0,578.92,4481.88Z" transform="translate(-331.4 -4339.57)"/><path class="cls-68" d="M578.86,4486.51l0.05-4.43s-1.38,8-23.31,5.24l1.31,0.17,8.11,1.07,8.5,1.14c3.24,0.26,5.43-.76,5.43-1.54Z" transform="translate(-331.4 -4339.57)"/></g></svg>