<svg id="Layer_2" data-name="Layer 2" xmlns="http://www.w3.org/2000/svg" xmlns:xlink="http://www.w3.org/1999/xlink" viewBox="0 0 613 373.54"><defs><style>.cls-1{fill:url(#linear-gradient);}.cls-2{fill:url(#linear-gradient-2);}.cls-3{fill:url(#linear-gradient-3);}.cls-4{fill:url(#radial-gradient);}.cls-5{fill:url(#radial-gradient-2);}.cls-21,.cls-39,.cls-6,.cls-76,.cls-80,.cls-81,.cls-82,.cls-9{fill:none;}.cls-39,.cls-6,.cls-76{stroke:#000;}.cls-21,.cls-39,.cls-6,.cls-62,.cls-68,.cls-76,.cls-80,.cls-81,.cls-82{stroke-miterlimit:10;}.cls-7{fill:url(#linear-gradient-4);}.cls-8{fill:url(#linear-gradient-5);}.cls-10{fill:url(#linear-gradient-6);}.cls-11{fill:url(#linear-gradient-7);}.cls-12{fill:url(#linear-gradient-8);}.cls-13{fill:url(#radial-gradient-3);}.cls-14{fill:url(#linear-gradient-9);}.cls-15{fill:url(#linear-gradient-10);}.cls-16{fill:url(#linear-gradient-11);}.cls-17{fill:url(#linear-gradient-12);}.cls-18{fill:url(#linear-gradient-13);}.cls-19{fill:url(#linear-gradient-14);}.cls-20{fill:url(#linear-gradient-15);}.cls-21{stroke:#f5e9fc;}.cls-22{fill:url(#linear-gradient-16);}.cls-23{fill:url(#linear-gradient-17);}.cls-24{fill:url(#linear-gradient-18);}.cls-25{fill:url(#linear-gradient-19);}.cls-26{fill:url(#linear-gradient-20);}.cls-27{fill:url(#linear-gradient-21);}.cls-28{fill:url(#linear-gradient-22);}.cls-29{fill:url(#linear-gradient-23);}.cls-30{fill:url(#linear-gradient-24);}.cls-31{fill:url(#linear-gradient-25);}.cls-32{fill:url(#linear-gradient-26);}.cls-33{fill:url(#linear-gradient-27);}.cls-34{fill:url(#linear-gradient-28);}.cls-35{fill:url(#linear-gradient-29);}.cls-36{fill:url(#linear-gradient-30);}.cls-37{fill:url(#linear-gradient-31);}.cls-38{fill:url(#radial-gradient-4);}.cls-39{stroke-width:0.64px;}.cls-40{fill:url(#linear-gradient-32);}.cls-41{fill:url(#linear-gradient-33);}.cls-42{fill:url(#linear-gradient-34);}.cls-43{fill:url(#linear-gradient-35);}.cls-44{fill:url(#linear-gradient-36);}.cls-45{fill:url(#linear-gradient-37);}.cls-46{fill:url(#linear-gradient-38);}.cls-47{fill:url(#linear-gradient-39);}.cls-48{fill:url(#linear-gradient-40);}.cls-49{fill:url(#linear-gradient-41);}.cls-50{fill:url(#linear-gradient-42);}.cls-51{fill:url(#linear-gradient-43);}.cls-52{fill:url(#linear-gradient-44);}.cls-53{fill:url(#linear-gradient-45);}.cls-54{fill:url(#linear-gradient-46);}.cls-55{fill:url(#linear-gradient-47);}.cls-56{fill:url(#radial-gradient-5);}.cls-57{fill:url(#linear-gradient-48);}.cls-58{fill:url(#radial-gradient-6);}.cls-59{fill:url(#radial-gradient-7);}.cls-60{fill:url(#radial-gradient-8);}.cls-61{fill:url(#linear-gradient-49);}.cls-62{fill:url(#radial-gradient-9);stroke:url(#radial-gradient-10);}.cls-63{fill:url(#linear-gradient-50);}.cls-64{fill:url(#linear-gradient-51);}.cls-65{fill:url(#linear-gradient-52);}.cls-66{fill:url(#linear-gradient-53);}.cls-67{fill:url(#linear-gradient-54);}.cls-68{fill:url(#radial-gradient-11);stroke:url(#radial-gradient-12);}.cls-69{fill:#fff;}.cls-70{fill:url(#linear-gradient-56);}.cls-71{fill:url(#linear-gradient-57);}.cls-72{fill:url(#linear-gradient-58);}.cls-73{fill:url(#linear-gradient-59);}.cls-74{fill:url(#linear-gradient-60);}.cls-75{fill:url(#radial-gradient-13);}.cls-76{stroke-width:0.52px;}.cls-77{fill:url(#linear-gradient-61);}.cls-78{fill:url(#radial-gradient-14);}.cls-79{fill:url(#linear-gradient-62);}.cls-80,.cls-81,.cls-82{stroke:#a20eff;}.cls-80{stroke-width:0.48px;}.cls-82{stroke-width:0.91px;}.cls-83{fill:url(#linear-gradient-63);}.cls-84{fill:url(#linear-gradient-64);}.cls-85{fill:url(#linear-gradient-65);}.cls-86{fill:url(#linear-gradient-66);}.cls-87{fill:url(#radial-gradient-16);}.cls-88{fill:url(#linear-gradient-67);}.cls-89{fill:url(#linear-gradient-68);}.cls-90{fill:url(#linear-gradient-69);}.cls-91{fill:#c466ff;}.cls-92{fill:url(#radial-gradient-17);}.cls-93{fill:#ac26ff;}.cls-94{fill:url(#radial-gradient-19);}</style><linearGradient id="linear-gradient" x1="13.88" y1="20.73" x2="33.54" y2="-10.94" gradientUnits="userSpaceOnUse"><stop offset="0" stop-color="#fbaac7"/><stop offset="1" stop-color="#ff3d3d"/></linearGradient><linearGradient id="linear-gradient-2" x1="0.7" y1="-3.42" x2="73.7" y2="44.83" gradientUnits="userSpaceOnUse"><stop offset="0" stop-color="#ff7ac2" stop-opacity="0.74"/><stop offset="1" stop-color="#ff2626"/></linearGradient><linearGradient id="linear-gradient-3" x1="14.31" y1="27.17" x2="53.31" y2="3.67" xlink:href="#linear-gradient"/><radialGradient id="radial-gradient" cx="1499.37" cy="4913.34" r="712.07" gradientUnits="userSpaceOnUse"><stop offset="0" stop-color="#5c0dff" stop-opacity="0.2"/><stop offset="1" stop-color="#fff" stop-opacity="0"/></radialGradient><radialGradient id="radial-gradient-2" cx="1348.86" cy="4817.42" r="744.94" gradientUnits="userSpaceOnUse"><stop offset="0" stop-color="#ffcce7"/><stop offset="1" stop-color="#fdf3fa" stop-opacity="0"/></radialGradient><linearGradient id="linear-gradient-4" x1="1007.34" y1="4752.7" x2="1092.59" y2="4811.45" gradientTransform="matrix(-1, 0, 0, 1, 2252, 0)" gradientUnits="userSpaceOnUse"><stop offset="0" stop-color="#040030"/><stop offset="1" stop-color="#fff"/></linearGradient><linearGradient id="linear-gradient-5" x1="1020.19" y1="4774.09" x2="1071.44" y2="4817.34" gradientTransform="matrix(-1, 0, 0, 1, 2252, 0)" gradientUnits="userSpaceOnUse"><stop offset="0" stop-color="#ffbb1c"/><stop offset="1" stop-color="#fff"/></linearGradient><linearGradient id="linear-gradient-6" x1="994.74" y1="4774.98" x2="1079.99" y2="4833.73" gradientTransform="matrix(-1, 0, 0, 1, 2252, 0)" gradientUnits="userSpaceOnUse"><stop offset="0" stop-color="#bf6f5e" stop-opacity="0.74"/><stop offset="1" stop-color="#fff"/></linearGradient><linearGradient id="linear-gradient-7" x1="1011.22" y1="4784.72" x2="1062.47" y2="4827.97" gradientTransform="matrix(-1, 0, 0, 1, 2252, 0)" gradientUnits="userSpaceOnUse"><stop offset="0" stop-color="#ffbb1c" stop-opacity="0.74"/><stop offset="1" stop-color="#fff"/></linearGradient><linearGradient id="linear-gradient-8" x1="1027.43" y1="4765.51" x2="1078.68" y2="4808.76" gradientTransform="matrix(-1, 0, 0, 1, 2252, 0)" gradientUnits="userSpaceOnUse"><stop offset="0" stop-color="#e6a919"/><stop offset="1" stop-color="#fff"/></linearGradient><radialGradient id="radial-gradient-3" cx="1207.56" cy="4971.1" r="57.92" gradientTransform="translate(-896 -1440.5) scale(1 0.33)" gradientUnits="userSpaceOnUse"><stop offset="0" stop-color="#eda4e4"/><stop offset="1" stop-color="#fff" stop-opacity="0"/></radialGradient><linearGradient id="linear-gradient-9" x1="1068.39" y1="4970.36" x2="1033.89" y2="4962.11" gradientTransform="matrix(-1, 0, 0, 1, 2252, 0)" gradientUnits="userSpaceOnUse"><stop offset="0.01" stop-color="#e64400"/><stop offset="1" stop-color="#fff"/></linearGradient><linearGradient id="linear-gradient-10" x1="1036.68" y1="4873.17" x2="1036.68" y2="4980.2" gradientTransform="matrix(-1, 0, 0, 1, 2252, 0)" gradientUnits="userSpaceOnUse"><stop offset="0" stop-color="#05e681"/><stop offset="1" stop-color="#fff"/></linearGradient><linearGradient id="linear-gradient-11" x1="1012.33" y1="4891.57" x2="1061.5" y2="4891.57" gradientTransform="matrix(-1, 0, 0, 1, 2252, 0)" gradientUnits="userSpaceOnUse"><stop offset="0" stop-color="#3cdb93"/><stop offset="1" stop-color="#7feebc"/></linearGradient><linearGradient id="linear-gradient-12" x1="1048.34" y1="4909.04" x2="1053.17" y2="4981.54" xlink:href="#linear-gradient-5"/><linearGradient id="linear-gradient-13" x1="1044.48" y1="4977.51" x2="1014.73" y2="4966.51" xlink:href="#linear-gradient-9"/><linearGradient id="linear-gradient-14" x1="1024.98" y1="4910.6" x2="1029.81" y2="4983.1" xlink:href="#linear-gradient-5"/><linearGradient id="linear-gradient-15" x1="1055.42" y1="4815.91" x2="1007.79" y2="4800.78" xlink:href="#linear-gradient-7"/><linearGradient id="linear-gradient-16" x1="1025.2" y1="4896.57" x2="989.2" y2="4772.24" gradientTransform="matrix(-1, 0, 0, 1, 2252, 0)" gradientUnits="userSpaceOnUse"><stop offset="0" stop-color="#c970e6" stop-opacity="0.74"/><stop offset="1" stop-color="#fff"/></linearGradient><linearGradient id="linear-gradient-17" x1="1024.27" y1="4896.84" x2="988.27" y2="4772.51" xlink:href="#linear-gradient-16"/><linearGradient id="linear-gradient-18" x1="1025.98" y1="4896.35" x2="989.98" y2="4772.02" xlink:href="#linear-gradient-16"/><linearGradient id="linear-gradient-19" x1="1024.49" y1="4896.78" x2="988.49" y2="4772.45" xlink:href="#linear-gradient-16"/><linearGradient id="linear-gradient-20" x1="1210.95" y1="4893.13" x2="1210.95" y2="4944.14" gradientTransform="matrix(1, 0, 0, 1, 0, 0)" xlink:href="#linear-gradient-11"/><linearGradient id="linear-gradient-21" x1="1021.23" y1="4911.01" x2="1025.97" y2="4982.14" gradientTransform="matrix(-1, 0, 0, 1, 2252, 0)" gradientUnits="userSpaceOnUse"><stop offset="0" stop-color="#e6bb70" stop-opacity="0.74"/><stop offset="1" stop-color="#fff"/></linearGradient><linearGradient id="linear-gradient-22" x1="1031" y1="4924.08" x2="1031.01" y2="4924.11" gradientTransform="matrix(-1, 0, 0, 1, 1356, -4749.57)" xlink:href="#linear-gradient-21"/><linearGradient id="linear-gradient-23" x1="1025.51" y1="4908.67" x2="1031" y2="4991.02" xlink:href="#linear-gradient-21"/><linearGradient id="linear-gradient-24" x1="1026.39" y1="4920.08" x2="1026.39" y2="4926.17" gradientTransform="matrix(-1, 0, 0, 1, 2252, 0)" gradientUnits="userSpaceOnUse"><stop offset="0" stop-color="#ffd572"/><stop offset="1" stop-color="#deaf43"/></linearGradient><linearGradient id="linear-gradient-25" x1="1021.14" y1="4910.86" x2="1025.97" y2="4983.36" xlink:href="#linear-gradient-21"/><linearGradient id="linear-gradient-26" x1="1022" y1="4923.78" x2="1022.15" y2="4926.02" xlink:href="#linear-gradient-21"/><linearGradient id="linear-gradient-27" x1="1054.93" y1="4921.33" x2="1054.93" y2="4921.33" gradientTransform="matrix(-1, 0, 0, 1, 1356, -4749.57)" xlink:href="#linear-gradient-21"/><linearGradient id="linear-gradient-28" x1="1044.77" y1="4921.31" x2="1044.78" y2="4921.35" gradientTransform="matrix(-1, 0, 0, 1, 1356, -4749.57)" xlink:href="#linear-gradient-21"/><linearGradient id="linear-gradient-29" x1="1049.77" y1="4914.92" x2="1049.77" y2="4925.36" xlink:href="#linear-gradient-24"/><linearGradient id="linear-gradient-30" x1="1004.46" y1="4792.73" x2="1055.71" y2="4835.98" xlink:href="#linear-gradient-7"/><linearGradient id="linear-gradient-31" x1="963.59" y1="4888.01" x2="981.08" y2="4896.9" gradientTransform="matrix(-1, 0, 0, 1, 1356, -4749.57)" gradientUnits="userSpaceOnUse"><stop offset="0" stop-color="#e6c6d7" stop-opacity="0.74"/><stop offset="1" stop-color="#ff3d3d"/></linearGradient><radialGradient id="radial-gradient-4" cx="1342" cy="5069.56" r="257.05" gradientUnits="userSpaceOnUse"><stop offset="0" stop-color="#ffcce7"/><stop offset="1" stop-color="#fff" stop-opacity="0"/></radialGradient><linearGradient id="linear-gradient-32" x1="1222.74" y1="4898.82" x2="1197.24" y2="4638.32" gradientUnits="userSpaceOnUse"><stop offset="0" stop-color="#5c0dff"/><stop offset="1" stop-color="#fff"/></linearGradient><linearGradient id="linear-gradient-33" x1="1249.31" y1="4866.76" x2="1201.56" y2="4845.26" gradientUnits="userSpaceOnUse"><stop offset="0" stop-color="#6227db" stop-opacity="0.74"/><stop offset="1" stop-color="#722dff"/></linearGradient><linearGradient id="linear-gradient-34" x1="1243.22" y1="4852" x2="1207.22" y2="4845" xlink:href="#linear-gradient-33"/><linearGradient id="linear-gradient-35" x1="1186.86" y1="4855.45" x2="1216.42" y2="4856.01" xlink:href="#linear-gradient-33"/><linearGradient id="linear-gradient-36" x1="1233.41" y1="4852.52" x2="1240.24" y2="4852.52" gradientTransform="matrix(1, 0, 0, 1, 0, 0)" xlink:href="#linear-gradient-5"/><linearGradient id="linear-gradient-37" x1="1197.07" y1="4846.09" x2="1203.91" y2="4846.09" gradientUnits="userSpaceOnUse"><stop offset="0" stop-color="#5c0dff" stop-opacity="0.74"/><stop offset="1" stop-color="#9766ff"/></linearGradient><linearGradient id="linear-gradient-38" x1="1204.59" y1="4854.16" x2="1197.09" y2="4845.83" gradientTransform="matrix(1, 0, 0, 1, 0, 0)" xlink:href="#linear-gradient-5"/><linearGradient id="linear-gradient-39" x1="1213.93" y1="4851.52" x2="1213.93" y2="4851.52" gradientTransform="matrix(1, 0, 0, 1, 0, 0)" xlink:href="#linear-gradient-5"/><linearGradient id="linear-gradient-40" x1="1213.08" y1="4850" x2="1233.81" y2="4850" xlink:href="#linear-gradient-33"/><linearGradient id="linear-gradient-41" x1="1136.16" y1="4835.9" x2="1152.51" y2="4835.9" gradientUnits="userSpaceOnUse"><stop offset="0" stop-color="#5c0000"/><stop offset="1" stop-color="#871b1a"/></linearGradient><linearGradient id="linear-gradient-42" x1="1094.77" y1="4912.44" x2="1068.22" y2="4936.1" gradientUnits="userSpaceOnUse"><stop offset="0" stop-color="#ffb5f5"/><stop offset="1" stop-color="#fff"/></linearGradient><linearGradient id="linear-gradient-43" x1="1067.73" y1="4971.62" x2="1105.07" y2="4955.45" gradientUnits="userSpaceOnUse"><stop offset="0" stop-color="#0dff00"/><stop offset="1" stop-color="#f7f7f7" stop-opacity="0"/></linearGradient><linearGradient id="linear-gradient-44" x1="1061.46" y1="4966.5" x2="1105.71" y2="4967.94" gradientUnits="userSpaceOnUse"><stop offset="0" stop-color="#0bdb00"/><stop offset="1" stop-color="#f7f7f7"/></linearGradient><linearGradient id="linear-gradient-45" x1="1067.59" y1="4969.29" x2="1104.92" y2="4953.12" xlink:href="#linear-gradient-43"/><linearGradient id="linear-gradient-46" x1="1067.37" y1="4970.78" x2="1104.7" y2="4954.61" xlink:href="#linear-gradient-43"/><linearGradient id="linear-gradient-47" x1="1118.1" y1="4947.08" x2="1118.1" y2="4832.33" gradientUnits="userSpaceOnUse"><stop offset="0" stop-color="#f0f"/><stop offset="1" stop-color="#fff"/></linearGradient><radialGradient id="radial-gradient-5" cx="1128.67" cy="4948.67" r="47.93" gradientTransform="translate(-2088.18 5312.89) rotate(-76.06) scale(1 0.61)" gradientUnits="userSpaceOnUse"><stop offset="0" stop-color="#19ab09"/><stop offset="1" stop-color="#28ff1c"/></radialGradient><linearGradient id="linear-gradient-48" x1="1138.49" y1="4935.02" x2="1152.74" y2="4934.96" gradientTransform="matrix(1, 0, 0, 1, 0, 0)" xlink:href="#radial-gradient-5"/><radialGradient id="radial-gradient-6" cx="179.25" cy="134.93" r="92.57" gradientUnits="userSpaceOnUse"><stop offset="0" stop-color="#fbfbfb"/><stop offset="1" stop-color="#c4c4c4"/></radialGradient><radialGradient id="radial-gradient-7" cx="178" cy="137.55" r="62.4" xlink:href="#radial-gradient-6"/><radialGradient id="radial-gradient-8" cx="1026.42" cy="4913.08" r="39.2" xlink:href="#radial-gradient-6"/><linearGradient id="linear-gradient-49" x1="1003.4" y1="4974.05" x2="1091.23" y2="4912.72" gradientUnits="userSpaceOnUse"><stop offset="0" stop-color="#a20dff"/><stop offset="0.99" stop-color="#d799ff"/></linearGradient><radialGradient id="radial-gradient-9" cx="1101.67" cy="4865.83" r="12.39" gradientUnits="userSpaceOnUse"><stop offset="0" stop-color="#fbfbfb"/><stop offset="0.95" stop-color="#47ff50"/><stop offset="1" stop-color="#3dff47"/></radialGradient><radialGradient id="radial-gradient-10" cx="1102.4" cy="4869.95" r="6.38" xlink:href="#linear-gradient-42"/><linearGradient id="linear-gradient-50" x1="1137.31" y1="4854.4" x2="1068.58" y2="4913.51" xlink:href="#linear-gradient-42"/><linearGradient id="linear-gradient-51" x1="1145.5" y1="4852.76" x2="1023.99" y2="4852.76" gradientUnits="userSpaceOnUse"><stop offset="0" stop-color="#5c0000"/><stop offset="1" stop-color="#ff5e5e"/></linearGradient><linearGradient id="linear-gradient-52" x1="1139.62" y1="4867.54" x2="1072.03" y2="4867.54" gradientUnits="userSpaceOnUse"><stop offset="0" stop-color="#e68ad9"/><stop offset="1" stop-color="#ffccf8"/></linearGradient><linearGradient id="linear-gradient-53" x1="1139.63" y1="4864.03" x2="1072.03" y2="4864.03" xlink:href="#linear-gradient-52"/><linearGradient id="linear-gradient-54" x1="1139.62" y1="4869.17" x2="1072.03" y2="4869.17" xlink:href="#linear-gradient-52"/><radialGradient id="radial-gradient-11" cx="1089.25" cy="4862.25" r="11.83" gradientUnits="userSpaceOnUse"><stop offset="0" stop-color="#fbfbfb"/><stop offset="1" stop-color="#3dff47"/></radialGradient><radialGradient id="radial-gradient-12" cx="1090.4" cy="4866.27" r="5.85" xlink:href="#linear-gradient-42"/><linearGradient id="linear-gradient-56" x1="1162.89" y1="4840.66" x2="1192.46" y2="4841.22" xlink:href="#linear-gradient-33"/><linearGradient id="linear-gradient-57" x1="1168.8" y1="4888.75" x2="1143.3" y2="4628.25" xlink:href="#linear-gradient-32"/><linearGradient id="linear-gradient-58" x1="1075.96" y1="5000.74" x2="1075.96" y2="5060.24" xlink:href="#linear-gradient-43"/><linearGradient id="linear-gradient-59" x1="1151.96" y1="4976.74" x2="1151.96" y2="5036.24" xlink:href="#linear-gradient-43"/><linearGradient id="linear-gradient-60" x1="2038.89" y1="4936.74" x2="2038.89" y2="4996.24" gradientTransform="matrix(-1, 0, 0, 1, 2973.93, 0)" xlink:href="#linear-gradient-43"/><radialGradient id="radial-gradient-13" cx="1030.67" cy="4929.17" r="100.88" gradientUnits="userSpaceOnUse"><stop offset="0.01" stop-color="#fbfbfb"/><stop offset="1" stop-color="#c4c4c4"/></radialGradient><linearGradient id="linear-gradient-61" x1="1126.68" y1="4947.08" x2="1126.68" y2="4832.33" xlink:href="#linear-gradient-47"/><radialGradient id="radial-gradient-14" cx="1130.64" cy="4955.12" r="55.17" gradientUnits="userSpaceOnUse"><stop offset="0" stop-color="#d900d9"/><stop offset="0.99" stop-color="#f0f"/></radialGradient><linearGradient id="linear-gradient-62" x1="1138.39" y1="4950.58" x2="1179.73" y2="4899.13" xlink:href="#linear-gradient-43"/><linearGradient id="linear-gradient-63" x1="217.71" y1="239.37" x2="217.71" y2="244.71" gradientUnits="userSpaceOnUse"><stop offset="0" stop-color="#820acc"/><stop offset="0.99" stop-color="#920de6"/></linearGradient><linearGradient id="linear-gradient-64" x1="98.57" y1="218.04" x2="101.48" y2="212.21" xlink:href="#linear-gradient-63"/><linearGradient id="linear-gradient-65" x1="1131.71" y1="4931.27" x2="1068.88" y2="4968.16" xlink:href="#linear-gradient-42"/><linearGradient id="linear-gradient-66" x1="1130.53" y1="4937.07" x2="1133.24" y2="4934.36" gradientUnits="userSpaceOnUse"><stop offset="0" stop-color="#f3b0e9"/><stop offset="1" stop-color="#e68ad9"/></linearGradient><radialGradient id="radial-gradient-16" cx="1098.5" cy="4914.81" r="9.82" gradientUnits="userSpaceOnUse"><stop offset="0" stop-color="#d900d9"/><stop offset="1" stop-color="#f5f"/></radialGradient><linearGradient id="linear-gradient-67" x1="1094.2" y1="4911.8" x2="1067.64" y2="4935.46" xlink:href="#linear-gradient-66"/><linearGradient id="linear-gradient-68" x1="1118.33" y1="4890.92" x2="1115.58" y2="4900.09" gradientUnits="userSpaceOnUse"><stop offset="0" stop-color="#ffa6f2"/><stop offset="1" stop-color="#ffd8fa"/></linearGradient><linearGradient id="linear-gradient-69" x1="1065.97" y1="4969.77" x2="1104.41" y2="4953.13" xlink:href="#linear-gradient-43"/><radialGradient id="radial-gradient-17" cx="1023.56" cy="4915.25" r="26.72" xlink:href="#radial-gradient-6"/><radialGradient id="radial-gradient-19" cx="1032.81" cy="4901.38" r="156.64" gradientUnits="userSpaceOnUse"><stop offset="0" stop-color="#dbdbdb"/><stop offset="1" stop-color="#c4c4c4"/></radialGradient><symbol id="New_Symbol_10" data-name="New Symbol 10" viewBox="0 0 35.82 23.05"><path class="cls-1" d="M35.73,19.8l0.06-4.43h0a3.26,3.26,0,0,1-.19-0.44l-1.22-5L33.58,6.77C32.83,4,27.26,1,21.12.23a16.55,16.55,0,0,0-7.46.42c-1.77.64-2.68,1.74-2.31,3.13L11.53,4.5,10,4.28A16.6,16.6,0,0,0,2.5,4.7C1.14,5.2.29,6,.14,6.92h0s-0.29,5.75.09,7.14a3.68,3.68,0,0,0,1,1.86,17.9,17.9,0,0,0,5.3,3.23,54.12,54.12,0,0,0,6,1.45l9.42,1.25L30.4,23c3.24,0.26,5.43-.76,5.43-1.54Z"/><path class="cls-2" d="M35.79,15.16v0a1.45,1.45,0,0,0,0-.28L34.45,9.9,33.62,6.74C32.87,4,27.28,1,21.14.21a16.58,16.58,0,0,0-7.47.43C11.9,1.28,11,2.38,11.36,3.77l0.18,0.72L10,4.28A16.6,16.6,0,0,0,2.5,4.7C1.14,5.2.29,6,.14,6.92a2.15,2.15,0,0,0,0,.62,1.5,1.5,0,0,0,.06.29A4.33,4.33,0,0,0,1.34,9.66c1.76,1.81,5.24,3.47,9.2,4.33h0c0.7,0.15,1.41.27,2.13,0.37l17.77,2.4a9.61,9.61,0,0,0,3.44-.08,3.69,3.69,0,0,0,.53-0.15l0,0h0.06A1.57,1.57,0,0,0,35.79,15.16Z"/><path class="cls-3" d="M35.73,19.8l0.05-4.43s-1.38,8-23.31,5.24l1.31,0.17,8.11,1.07L30.4,23c3.24,0.26,5.43-.76,5.43-1.54Z"/></symbol></defs><title>2</title><g id="FEATHER"><path class="cls-4" d="M1092.79,4867.2q-9.59,1.65-18.84,3.6C973,4891.91,901.8,4937.07,896.34,4990h0a64,64,0,0,0-.34,6.55c0,76.5,137.92,122.2,278.19,107.91s101.07-22.94,172.87-44.77,161.94-.41,161.94-63.14a62.92,62.92,0,0,0-.35-6.68c-3.58-34.08-34.43-64.94-82.89-88.21-2.3-1.1-4.62-2.19-7-3.26-0.95-.43-1.9-0.85-2.86-1.27q-6.81-3-14-5.79c-1.79-.7-3.6-1.38-5.42-2q-8.21-3-16.88-5.81c-4-1.3-8.15-2.55-12.33-3.75a521.16,521.16,0,0,0-55.81-12.69c-6-1-12.08-2-18.23-2.84-4-.55-8.09-1.08-12.17-1.58-18.67-2.22-38-3.68-57.9-4.28q-10.22-.3-20.62-0.3c-19.6,0-38.78.83-57.35,2.43q-8.58.73-17,1.67" transform="translate(-896 -4749.57)"/><path class="cls-5" d="M896,4983.45c0,76.49,137.92,152.19,278.19,137.91s101.08-52.94,172.88-74.78,161.93-.4,161.93-63.13c0-76.49-137.22-138.5-306.5-138.5S896,4907,896,4983.45Z" transform="translate(-896 -4749.57)"/></g><path class="cls-6" d="M1467,5002" transform="translate(-896 -4749.57)"/><path class="cls-7" d="M1178.8,4779.29c10.71,2.38,21.77,0,33.35-8.14,16.89-11.8,14.41,19.39,14.41,19.39l8,2,2.18,0.55s14.22-16.8-8.08-35.87-42,2.29-48.63,11.14c-6.44,8.58-15.13,4.94-15.65,4.71a47.31,47.31,0,0,0,11.75,5.48C1177,4778.85,1177.9,4779.08,1178.8,4779.29Z" transform="translate(-896 -4749.57)"/><path class="cls-8" d="M1208.18,4810.15a30.54,30.54,0,0,1,2.21,4.64c0.53,1.49.78,2.91,0.15,3.54,7.76,3.56,18.57-2.44,18.57-2.44-4.16-12.73,5.18-11.65,5.42-23.32l-8-2s2.48-31.19-14.41-19.39c-11.58,8.1-22.64,10.52-33.35,8.14C1178.78,4780.07,1178,4812.73,1208.18,4810.15Z" transform="translate(-896 -4749.57)"/><path class="cls-9" d="M1226.66,4788.6c0,0.7,0,1.36,0,2l-0.13,0S1226.62,4789.8,1226.66,4788.6Z" transform="translate(-896 -4749.57)"/><path class="cls-10" d="M1226.69,4790.57l7.84,2a17.61,17.61,0,0,1-.48,3.88l-7.49-1.91S1226.69,4792.93,1226.69,4790.57Z" transform="translate(-896 -4749.57)"/><path class="cls-11" d="M1226.69,4790.57l7.84,2a17.61,17.61,0,0,1-.48,3.88l-7.49-1.91S1226.69,4792.93,1226.69,4790.57Z" transform="translate(-896 -4749.57)"/><path class="cls-12" d="M1178.8,4779.29c10.71,2.38,21.77,0,33.35-8.14,14.3-10,14.71,10.82,14.51,17.45-0.27-8.41-2.46-21.87-14.51-13.45-11.52,8.05-22.52,10.49-33.17,8.18A36.63,36.63,0,0,1,1178.8,4779.29Z" transform="translate(-896 -4749.57)"/><ellipse class="cls-13" cx="312.89" cy="220.53" rx="51.67" ry="15.73"/><path class="cls-14" d="M1200.62,4962.71s-18.9,1.74-16.58,8.29c2.38,5.08,22.35-2.73,23-3.34a6,6,0,0,0-1.08-5.74A4.17,4.17,0,0,1,1200.62,4962.71Z" transform="translate(-896 -4749.57)"/><path class="cls-15" d="M1194.21,4889.86c0.54-4.41.83-7.88,0.51-8.6,7.25,3.13,38.86,11,43.69,9.53l0.08,0.23c-0.08.61-.14,1.31-0.17,2.1-0.35,8.24,1.8,25.14.71,26.14-0.56.51-4.26,1.27-8.81,1.61a54.54,54.54,0,0,1-8.95,0,22.54,22.54,0,0,1-6.6-1.39c-1.11-.62-1.17-3.6-1.78-4.6,0,0,0,0,0,0a38,38,0,0,1-4.64,1.15q-0.46.09-1,.15a34,34,0,0,1-9.8-.3c-3.49-.62-6.19-1.71-6.19-3C1191.29,4910.55,1193.19,4898.43,1194.21,4889.86Z" transform="translate(-896 -4749.57)"/><path class="cls-16" d="M1194.84,4883.06a10.91,10.91,0,0,0-.12-1.8c7.25,3.13,38.86,11,43.69,9.53l0.08,0.23c-0.08.61-.14,1.31-0.17,2.1-0.1,2.39.19,8.75,0.19,8.75C1235.19,4894.65,1207.39,4884.75,1194.84,4883.06Z" transform="translate(-896 -4749.57)"/><path class="cls-17" d="M1197.48,4915.88l-1.78,23.53,4.92,23.3a4.17,4.17,0,0,0,5.3-.79c1.47-6.8-1.65-22.51-1.65-22.51s3.6-16.53,3.07-22.85l-0.06-.38A34,34,0,0,1,1197.48,4915.88Z" transform="translate(-896 -4749.57)"/><path class="cls-18" d="M1223.62,4968.71s-18.9,1.74-16.58,8.29c2.38,5.08,22.35-2.73,23-3.34a6,6,0,0,0-1.08-5.74l-0.23-.43c-1.82,2-3.49,1.58-4.31,1.17Z" transform="translate(-896 -4749.57)"/><path class="cls-19" d="M1221.26,4921l-1.76,20.54,4.35,26.78a2.61,2.61,0,0,0,.53.34c0.82,0.41,2.49.82,4.31-1.17,0.73-11.13.64-22.49-1.46-26.22,2-6.53,3-19.9,3-19.9l0-.5a54.54,54.54,0,0,1-9,0v0.1Z" transform="translate(-896 -4749.57)"/><path class="cls-9" d="M1272.93,4888.62q-11.62-2.34-23.9-4.09-5.4-.78-10.91-1.43" transform="translate(-896 -4749.57)"/><path class="cls-9" d="M1208.18,4810.15a30.54,30.54,0,0,1,2.21,4.64c0.53,1.49.78,2.91,0.15,3.54,7.76,3.56,18.57-2.44,18.57-2.44-4.16-12.73,5.18-11.65,5.42-23.32" transform="translate(-896 -4749.57)"/><path class="cls-20" d="M1208.18,4810.15a59,59,0,0,0,14.23-3.22s-13.7,4.58-12.43,6.79c0,0-1-2.3-1.8-3.57" transform="translate(-896 -4749.57)"/><path class="cls-9" d="M1178.8,4779.28h0c0,0.77-.76,32.77,28.45,30.93" transform="translate(-896 -4749.57)"/><path class="cls-9" d="M1229.11,4815.89s10.27,1.66,14.55,6.61c2.24,6.06,5.12,18.44.2,34-1,1.83-3.21,3.41-6.18,4.78" transform="translate(-896 -4749.57)"/><line class="cls-9" x1="297.96" y1="101.63" x2="297.2" y2="104.96"/><path class="cls-9" d="M1194.72,4881.25a4.15,4.15,0,0,1-1.43-.82c0-.16,0-0.36,0-0.59,0.23-3.21,1.87-12.39,1.87-12.39" transform="translate(-896 -4749.57)"/><path class="cls-9" d="M1237.7,4860.86s0,0.16,0,.45a210.73,210.73,0,0,0,.44,21.79c0.2,2.38.47,4.7,0.83,6.81,0.21,0.42,0,.71-0.54.88-4.83,1.49-36.44-6.4-43.69-9.53" transform="translate(-896 -4749.57)"/><line class="cls-9" x1="287.04" y1="105.97" x2="297.96" y2="101.63"/><path class="cls-9" d="M1191.29,4912.91c0-2.36,1.9-14.48,2.92-23.05,0.54-4.41.83-7.88,0.51-8.6h0" transform="translate(-896 -4749.57)"/><path class="cls-9" d="M1212.88,4914.88a38,38,0,0,1-4.64,1.15q-0.46.09-1,.15a34,34,0,0,1-9.8-.3c-3.49-.62-6.19-1.71-6.19-3" transform="translate(-896 -4749.57)"/><path class="cls-9" d="M1238.49,4891c-0.08.61-.14,1.31-0.17,2.1-0.35,8.24,1.8,25.14.71,26.14-0.56.51-4.26,1.27-8.81,1.61a54.54,54.54,0,0,1-9,0,22.54,22.54,0,0,1-6.6-1.39c-1.11-.62-1.17-3.6-1.78-4.6" transform="translate(-896 -4749.57)"/><path class="cls-9" d="M1197.5,4915.66l0,0.22-1.78,23.53,4.92,23.3a4.17,4.17,0,0,0,5.3-.79c1.47-6.8-1.65-22.51-1.65-22.51s3.6-16.53,3.07-22.85" transform="translate(-896 -4749.57)"/><path class="cls-9" d="M1200.62,4962.71s-18.9,1.74-16.58,8.29c2.38,5.08,22.35-2.73,23-3.34a6,6,0,0,0-1.08-5.74" transform="translate(-896 -4749.57)"/><path class="cls-9" d="M1223.62,4968.71s-18.9,1.74-16.58,8.29c2.38,5.08,22.35-2.73,23-3.34a6,6,0,0,0-1.08-5.74" transform="translate(-896 -4749.57)"/><path class="cls-21" d="M1191.37,4910.77" transform="translate(-896 -4749.57)"/><line class="cls-9" x1="427.2" y1="229.14" x2="409.14" y2="235.01"/><path class="cls-9" d="M1236.15,4862h0c0.52-.21,1-0.43,1.52-0.65h0C1237.19,4861.54,1236.68,4861.75,1236.15,4862Z" transform="translate(-896 -4749.57)"/><path class="cls-9" d="M1234.13,4862.73c0.56-.2,1.1-0.4,1.63-0.61h0C1235.23,4862.33,1234.69,4862.53,1234.13,4862.73Z" transform="translate(-896 -4749.57)"/><path class="cls-9" d="M1235.76,4862.12h0l0.4-.16h0Z" transform="translate(-896 -4749.57)"/><path class="cls-22" d="M1236.15,4862c0.52-.21,1-0.43,1.52-0.65C1237.19,4861.54,1236.68,4861.75,1236.15,4862Z" transform="translate(-896 -4749.57)"/><path class="cls-23" d="M1238.24,4861l-0.32.16h0Z" transform="translate(-896 -4749.57)"/><path class="cls-24" d="M1236.15,4862l-0.39.16Z" transform="translate(-896 -4749.57)"/><path class="cls-25" d="M1237.68,4861.31h0l0.23-.11h0l-0.23.11h0Z" transform="translate(-896 -4749.57)"/><path class="cls-9" d="M1305.39,4984a3.3,3.3,0,0,1-.25.63c-0.85,1.65-3.3,3.3-6.44,4.47" transform="translate(-896 -4749.57)"/><path class="cls-9" d="M1305.47,4977.14c0-.11,0-0.22,0-0.33h0s0.29,5.74-.09,7.13" transform="translate(-896 -4749.57)"/><path class="cls-9" d="M1305.31,4978a1.14,1.14,0,0,0,.09-0.26,1,1,0,0,0,0-.24" transform="translate(-896 -4749.57)"/><path class="cls-9" d="M1304.25,4979.55a3,3,0,0,0,.24-0.26,4.82,4.82,0,0,0,.57-0.78" transform="translate(-896 -4749.57)"/><path class="cls-9" d="M1269.8,4985a1.74,1.74,0,0,0,1.4,1.34s0,0,0,0,0,0,0,0,0.32,0.1.49,0.15" transform="translate(-896 -4749.57)"/><path class="cls-9" d="M1298.7,4989.05a27.11,27.11,0,0,1-5.79,1.43l-10.1,1.36-7.67,1c-3.25.27-5.49-.8-5.49-1.58l0.15-6.26" transform="translate(-896 -4749.57)"/><path class="cls-9" d="M1349.1,4898.38h0s0.29,5.75-.09,7.14a3.19,3.19,0,0,1-.37.86c-0.88,1.44-2.93,2.86-5.56,3.94l-0.75.29" transform="translate(-896 -4749.57)"/><path class="cls-9" d="M1347.65,4901.37a4.67,4.67,0,0,0,1.4-2.08,1.57,1.57,0,0,0,0-.3" transform="translate(-896 -4749.57)"/><path class="cls-9" d="M1313.45,4906.61a1.74,1.74,0,0,0,1.4,1.34s0,0,0,0,0,0,0,0a5.44,5.44,0,0,0,1,.25" transform="translate(-896 -4749.57)"/><path class="cls-9" d="M1342.36,4910.61a26.76,26.76,0,0,1-5.8,1.44l-10.31,1.39-7.46,1a8.61,8.61,0,0,1-4.8-.78,1.64,1.64,0,0,1-.52-0.42,0.61,0.61,0,0,1-.17-0.39l0.09-3.85,0.06-2.4" transform="translate(-896 -4749.57)"/><path class="cls-9" d="M1282.14,4884.29a4.15,4.15,0,0,0,1.15-1.83,1.6,1.6,0,0,0,0-.29" transform="translate(-896 -4749.57)"/><path class="cls-9" d="M1249.07,4891.14h0s0,0,0,0,0.32,0.1.49,0.15" transform="translate(-896 -4749.57)"/><path class="cls-9" d="M1247.69,4889.79a1.74,1.74,0,0,0,1.4,1.34h0" transform="translate(-896 -4749.57)"/><path class="cls-9" d="M1313.81,4921.9a1,1,0,0,1-.51-0.69s0.13-6,.13-6.42a1.11,1.11,0,0,1,0-.17,2.12,2.12,0,0,1,.26-0.55,3.43,3.43,0,0,1,.28-0.4" transform="translate(-896 -4749.57)"/><path class="cls-9" d="M1348.72,4914.63c-1,1.84-4,3.63-7.65,4.78a27.71,27.71,0,0,1-4.51,1l-17.77,2.4a8.24,8.24,0,0,1-5-.89" transform="translate(-896 -4749.57)"/><path class="cls-9" d="M1313.71,4922.07a1.53,1.53,0,0,0-.26.55,0.35,0.35,0,0,0,0,.17,2.26,2.26,0,0,0,1.42,1.51,8.5,8.5,0,0,0,4,.27l17.76-2.41a26.18,26.18,0,0,0,6.68-1.78c3.09-1.29,5.34-3,5.8-4.74a2.38,2.38,0,0,0-.33-1h0a0.46,0.46,0,0,1,0-.24s0.09,0,.16.05a2.6,2.6,0,0,1,.3.3s0.29,5.75-.09,7.14a3.39,3.39,0,0,1-.46,1c-1.61,2.46-6.6,4.82-12,5.54l-17.77,2.4c-3.25.26-5.49-.8-5.49-1.59,0,0,.13-6,0.13-6.42a1.11,1.11,0,0,1,0-.17,2.12,2.12,0,0,1,.26-0.55" transform="translate(-896 -4749.57)"/><path class="cls-9" d="M1313.71,4922.07a1.4,1.4,0,0,1,.1-0.16" transform="translate(-896 -4749.57)"/><path class="cls-9" d="M1313.81,4921.91h0" transform="translate(-896 -4749.57)"/><path class="cls-9" d="M1314,4921.67s-0.08.09-.18,0.23" transform="translate(-896 -4749.57)"/><path class="cls-26" d="M1210.39,4894.65c1,4.1-1.39,21.23-1.39,21.23a33.29,33.29,0,0,0,3.89-1S1211.45,4895.71,1210.39,4894.65Z" transform="translate(-896 -4749.57)"/><path class="cls-27" d="M1230,4920.82v0l0.14,0.47a26.16,26.16,0,0,1-.13,2.69h-0.07A25.23,25.23,0,0,0,1230,4920.82Z" transform="translate(-896 -4749.57)"/><polygon class="cls-28" points="325 174.52 325 174.52 325 174.52 325 174.52"/><path class="cls-29" d="M1229.94,4924.06c-1.68,1.5-7.42,1.94-8.94-.06h8.95v0.06Z" transform="translate(-896 -4749.57)"/><path class="cls-30" d="M1221.26,4921v-0.08a54.47,54.47,0,0,0,8.95-.06c0,0.58-.14,2.19-0.27,3.19v0.06c-1.68,1.5-7.42,1.94-8.94-.06Z" transform="translate(-896 -4749.57)"/><path class="cls-31" d="M1229.94,4924.09H1230l-0.07.06v-0.06Z" transform="translate(-896 -4749.57)"/><path class="cls-32" d="M1229.94,4924.09H1230l-0.07.06v-0.06Z" transform="translate(-896 -4749.57)"/><polygon class="cls-33" points="301.07 171.76 301.07 171.76 301.07 171.76 301.07 171.76"/><polygon class="cls-34" points="311.23 171.76 311.23 171.76 311.23 171.76 311.23 171.76"/><path class="cls-35" d="M1197.48,4915.71a34.05,34.05,0,0,0,9.8.38l0.06,0.26a28.77,28.77,0,0,1-.11,4.65,10.25,10.25,0,0,1-10.16,0Z" transform="translate(-896 -4749.57)"/><path class="cls-36" d="M1231.61,4801.72c-2.43,3.65-5.1,6.21-2.5,14.17,0,0-10.81,6-18.57,2.44a2.43,2.43,0,0,0,.24-2.19C1224.81,4816.95,1226.56,4804.92,1231.61,4801.72Z" transform="translate(-896 -4749.57)"/><polygon class="cls-37" points="383.87 142.78 383.86 142.78 383.86 142.78 383.87 142.78"/><path class="cls-38" d="M1394.59,5071.83q-2.19.38-4.31,0.82c-23.08,4.83-39.37,15.16-40.62,27.26h0a14.64,14.64,0,0,0-.08,1.5c0,17.49,31.54,4.81,63.62,1.54s23.11,17.89,39.53,12.9,37-.09,37-14.44a14.39,14.39,0,0,0-.08-1.53c-0.82-7.79-7.87-14.85-19-20.17l-1.6-.74-0.65-.29q-1.56-.68-3.21-1.32l-1.24-.47q-1.88-.69-3.86-1.33c-0.92-.3-1.86-0.58-2.82-0.86a119.18,119.18,0,0,0-12.76-2.9c-1.37-.23-2.76-0.45-4.17-0.65l-2.78-.36c-4.27-.51-8.7-0.84-13.24-1q-2.34-.07-4.72-0.07c-4.48,0-8.87.19-13.11,0.56q-2,.17-3.88.38" transform="translate(-896 -4749.57)"/><path class="cls-6" d="M1193.88,4851.2" transform="translate(-896 -4749.57)"/><path class="cls-39" d="M1203.86,4840.5" transform="translate(-896 -4749.57)"/><path class="cls-40" d="M1195.7,4861.84a9.17,9.17,0,0,1-6.86-1.34c-3.15-3.15,4.68-31.92,7.33-36.69a21.86,21.86,0,0,1,1.33-3c2.64-4.76,8.31-5.81,12.89-6,0.53,1.49.78,2.91,0.15,3.54,7.76,3.56,18.57-2.44,18.57-2.44s10.27,1.66,14.55,6.61a47.72,47.72,0,0,1,2.62,11.54c2,7.92,3.76,22.79-.41,36-1.18,2.25-4.29,2.47-8.3,1.49,0,3.58.16,7.65,0.49,11.56,0.2,2.38.41,4.7,0.77,6.81,0.21,0.42-.23.71-0.77,0.88-4.83,1.49-37.05-6.4-44.05-9.53h0a1.32,1.32,0,0,1-1.07-.82c0-.16.24-0.36,0.26-0.59,0.23-3.21,2.52-18,2.52-18" transform="translate(-896 -4749.57)"/><path class="cls-41" d="M1237.62,4871.54c-12-2.92-32.22-16.54-33.76-18.08l0.09-1.16s41.66,31,44.39,3.23C1246.56,4869.81,1247.69,4873.56,1237.62,4871.54Z" transform="translate(-896 -4749.57)"/><path class="cls-42" d="M1203.95,4850.31l0.2-1.67c4.4,0.54,22.41,4.39,30,7.67,0.71-2.22.08-11.83-1.92-14.52,0,0,6.15,8.09,3.52,16.84C1218.26,4852.81,1209.77,4851.3,1203.95,4850.31Z" transform="translate(-896 -4749.57)"/><path class="cls-43" d="M1214.92,4860.86s-22.44,3.28-26.08-.36c-1.14-1.14-.81-6.24.21-11.58,0,0-1.06,16,23.11,10.24Z" transform="translate(-896 -4749.57)"/><path class="cls-44" d="M1233.81,4849.09c7.17-3.33,10,10.07-.4,6.91" transform="translate(-896 -4749.57)"/><path class="cls-45" d="M1203.91,4854.5s-4.25-2.35-5-1.56c0.75-4.44.67-7.84,3.29-15.25,0,0-5.08,14.81-5.08,16.81C1198.86,4852.94,1203,4854.5,1203.91,4854.5Z" transform="translate(-896 -4749.57)"/><path class="cls-39" d="M1186.33,4977.71" transform="translate(-896 -4749.57)"/><path class="cls-46" d="M1202.76,4853.92a0.76,0.76,0,0,0,1.1-.45l0.28-4.83a5.56,5.56,0,0,0-4.28-2.54c-0.44,2.48-.61,4.52-1,6.85C1199.39,4852.42,1201.44,4853.28,1202.76,4853.92Z" transform="translate(-896 -4749.57)"/><path class="cls-47" d="M1213.93,4851.52" transform="translate(-896 -4749.57)"/><path class="cls-48" d="M1213.08,4850.29s13.73-1.81,20.73-1.2l-0.18,1.42-17.46.51Z" transform="translate(-896 -4749.57)"/><path class="cls-49" d="M1151.3,4831.78c0,3.35-.92,5.85-3.21,6.93,0,0,1.42,1.17,4.42.1-2.19,3.14-8.19,7.34-13.2,7.35h0a29.34,29.34,0,0,0-3.14-5.6h0s9.63-10.94,9.63-14.91c2.58,3.15,1,8,.14,8.86C1145.94,4834.5,1148.88,4835.19,1151.3,4831.78Z" transform="translate(-896 -4749.57)"/><path class="cls-50" d="M1092.37,4908.79c-4.37,6.18-7.82,14-14,16.36l-1.38-.57,0.86,4.85h0a10.88,10.88,0,0,0,5.76-1.74c7.33-4.33,12.06-14.75,12.06-14.75C1094.92,4912.15,1093,4909.67,1092.37,4908.79Z" transform="translate(-896 -4749.57)"/><path class="cls-51" d="M1090.48,4959.65c-5.14,5.22-9.81,5-12.43,2.75a6.27,6.27,0,0,1-1.62-2.08c-4.83,1.43-8.45,4-8,7.4,0.35,1.83,3.67,2.76,7.95,3,8,0.38,19.42-1.8,20.73-5.31C1096.92,4962.33,1094.18,4960.49,1090.48,4959.65Z" transform="translate(-896 -4749.57)"/><path class="cls-52" d="M1076.42,4968.68c-4-.19-7.17-1-7.85-2.62a4.09,4.09,0,0,0-.1,1.66c0.35,1.83,3.67,2.76,7.95,3,8,0.38,19.42-1.8,20.73-5.31a4.93,4.93,0,0,0-.32-1.42C1094.55,4967.12,1084,4969,1076.42,4968.68Z" transform="translate(-896 -4749.57)"/><path class="cls-53" d="M1076.43,4960.32a6.27,6.27,0,0,0,1.62,2.08c2.62,2.2,7.29,2.47,12.43-2.75,3.08,0.7,5.5,2.1,6.35,4.3a2.53,2.53,0,0,0,.32-0.58c-0.23-3-3-4.88-6.67-5.72-5.14,5.22-9.81,5-12.43,2.75a6.27,6.27,0,0,1-1.62-2.08c-4.83,1.43-8.45,4-8,7.4a1.7,1.7,0,0,0,.1.34C1069.26,4963.49,1072.43,4961.51,1076.43,4960.32Z" transform="translate(-896 -4749.57)"/><path class="cls-54" d="M1076.42,4968.68c7.57,0.36,18.13-1.56,20.41-4.73-0.85-2.21-3.26-3.6-6.35-4.3-5.14,5.22-9.81,5-12.43,2.75a6.27,6.27,0,0,1-1.62-2.08c-4,1.19-7.17,3.17-7.86,5.74C1069.25,4967.67,1072.41,4968.49,1076.42,4968.68Z" transform="translate(-896 -4749.57)"/><path class="cls-55" d="M1144.38,4912.52c-1.27-7.46-4.52-13.65-11.13-14.63,0,0-10.82,6-18.58,2.44,0.75-.75.25-2.65-0.48-4.42,0,0-5.72-4.16-13.22-.2-3.22,1.69-6.35,6.21-9.8,11.1a34.88,34.88,0,0,0,1.88,3,21.41,21.41,0,0,0,2.09,2.6,5.25,5.25,0,0,0,3.28,2c-1.75,6.38-4.25,15.91-4.25,18.68l20.94,10.65h0l0,0,0.62,0.32h0l21.83,11.09c2.52-3.3,2-19.14,2-19.14,2.08,0.22,3.55.32,3.55,0.32A62.51,62.51,0,0,0,1144.38,4912.52Zm-9.27,23.07c-1,2.75-8.75,3.9-15.37,6.16a53,53,0,0,0,9.39-7.37v0a52.65,52.65,0,0,0,6,1.12v0.14Z" transform="translate(-896 -4749.57)"/><path class="cls-56" d="M1156.47,4917.65l-4,45.07-14.91-7.59c2.52-3.3,2-19.14,2-19.14,2.08,0.22,3.55.32,3.55,0.32a62.51,62.51,0,0,0,1.19-23.79l-0.05-.29Z" transform="translate(-896 -4749.57)"/><path class="cls-57" d="M1143.54,4937.65c2.08,0.22,2.58.22,2.58,0.22,2.38-10.81-.11-24.89-0.11-24.89l-1.68-.75,0.05,0.29a62.51,62.51,0,0,1-1.19,23.79s-1.47-.1-3.55-0.32c0,0,.48,15.84-2,19.14l5.18,2.64C1145.26,4954.36,1143.54,4937.65,1143.54,4937.65Z" transform="translate(-896 -4749.57)"/><polygon class="cls-58" points="102.56 95.14 181.53 135.05 178 136.53 171.63 133.08 99.5 96.43 102.56 95.14"/><polygon class="cls-59" points="178 136.53 178.5 201.43 182 199.43 181.53 135.05 178 136.53"/><path class="cls-60" d="M1028,4943.23c-3.88-7.68-4.88-13.59-4.45-18.09a15.93,15.93,0,0,1,4.28-9.73,18.91,18.91,0,0,1-1-4.34c-3,2.61-6.87,6.23-10.72,10.31-7.57,8-14.92,17.78-14.41,25.06a4.3,4.3,0,0,1,1.69-3.18,4.3,4.3,0,0,0-1.69,3.18c0,3.69,6.26,6.68,14,6.68s14-3,14-6.68C1029.1,4945.34,1028.52,4944.26,1028,4943.23Zm-3.53-2a13.57,13.57,0,0,1,2.54,1.26A13.57,13.57,0,0,0,1024.48,4941.23Z" transform="translate(-896 -4749.57)"/><path class="cls-61" d="M1001.76,4946.44c0,3.69,6.26,6.68,14,6.68s14-3,14-6.68a30.89,30.89,0,0,1-1.72-3.21c-3.88-7.68-4.88-13.59-4.45-18.09l50.89,25.89,0,0,3.5-2.33-0.14-19.24h-0.23a11.68,11.68,0,0,0,6-1.74l10.55,5.36,21.6,11c-11.16,5.93-22.49,8-25.5,8-12.85-2.25-15.9,4.06-13.84,8.32-4.83,1.43-8.45,4-8,7.4,0.35,1.83,3.67,2.76,8,3,8,0.38,19.42-1.8,20.73-5.31-0.23-3-3-4.88-6.67-5.72,0.49-.5,1-1,1.49-1.65,3.88,0,18.21-5.11,29.35-11.14l16.28,8.27,14.91,7.59L1161,4967l-94.58,31.13L924.72,4926l70.78-23.72V4911l0.59,0.16,20.08,10.22C1008.6,4929.4,1001.25,4939.16,1001.76,4946.44Z" transform="translate(-896 -4749.57)"/><path class="cls-62" d="M1105.82,4869.7a13.08,13.08,0,0,0-.09-1.56c-0.36-3.34-1.71-5.81-3.33-5.81s-3.07,2.66-3.37,6.18q-0.06.7-.06,1.44c0,4.21,1.53,7.62,3.43,7.62s3.43-3.41,3.43-7.62A2.09,2.09,0,0,0,1105.82,4869.7Z" transform="translate(-896 -4749.57)"/><path class="cls-63" d="M1138.48,4876.79c-5.29,0-6.2-10.41-6.25-16.79,0-2.83.11-4.87,0.11-4.87a20.47,20.47,0,0,1-2.7,5.66c-5.06,7.45-14.38,9.81-23.82,8.91a2.09,2.09,0,0,1,0,.25c0,4.21-1.53,7.62-3.43,7.62s-3.43-3.41-3.43-7.62q0-.73.06-1.44a44.28,44.28,0,0,1-5.51-1.78c-0.1,3.62-1.46,6.48-3.12,6.48s-3.13-3.11-3.13-6.94a13.68,13.68,0,0,1,.21-2.46,33.46,33.46,0,0,1-4.22-2.93l-0.33.4s-1.13,33.48,29.38,30.87a32.38,32.38,0,0,1,1.88,3.76c0.73,1.77,1.23,3.67.48,4.42,7.76,3.56,18.58-2.44,18.58-2.44C1129.36,4886,1137.21,4886.16,1138.48,4876.79Z" transform="translate(-896 -4749.57)"/><path class="cls-64" d="M1140.8,4850.38a25.28,25.28,0,0,0-1.49-4.38h0a32,32,0,0,0-3.14-5.52c-11.56-16.15-34.58-11.27-34.58-11.27-29.71,9.24-29.12,22.78-18.32,31.65a33.51,33.51,0,0,0,4.22,2.94c0.44-2.62,1.58-4.47,2.92-4.47,1.73,0,3.13,3.11,3.13,6.94,0,0.15,0,.31,0,0.46a44.28,44.28,0,0,0,5.51,1.78c0.3-3.52,1.69-6.18,3.37-6.18s3,2.47,3.33,5.81a13.08,13.08,0,0,1,.09,1.56c9.44,0.9,18.76-1.46,23.82-8.91a20.47,20.47,0,0,0,2.7-5.66s-0.14,2.15-.11,5c0.05,6.38,1,16.9,6.25,16.9h0C1142.61,4867,1140.8,4850.38,1140.8,4850.38Z" transform="translate(-896 -4749.57)"/><path class="cls-65" d="M1132.23,4860c0-2.83.11-4.87,0.11-4.87a20.47,20.47,0,0,1-2.7,5.66c-5.06,7.45-14.38,9.81-23.82,8.91a2.09,2.09,0,0,1,0,.25,16.11,16.11,0,0,1-.23,2.73h0c1.36,0.13,2.63.2,3.95,0.2,8.28,0,15.21-2.54,19.92-7.23,1,10.88,4.77,13.93,8.22,14.3a15.14,15.14,0,0,0,.77-3.17C1133.19,4876.78,1132.28,4866.38,1132.23,4860Z" transform="translate(-896 -4749.57)"/><path class="cls-66" d="M1083.26,4860.88l-0.33.4s0,1.22.1,3.17c0.95,0.69,1.92,1.35,2.93,1.94l1.34,0.79c0-.3,0-0.6,0-0.9a13.68,13.68,0,0,1,.21-2.46A33.46,33.46,0,0,1,1083.26,4860.88Z" transform="translate(-896 -4749.57)"/><path class="cls-67" d="M1099,4868.51a44.28,44.28,0,0,1-5.51-1.78,13.52,13.52,0,0,1-.42,3,47.83,47.83,0,0,0,5.19,1.65l0.76,0.19c-0.05-.53-0.08-1.09-0.08-1.66S1099,4869,1099,4868.51Z" transform="translate(-896 -4749.57)"/><path class="cls-64" d="M1140.8,4850.38a25.28,25.28,0,0,0-1.49-4.38h0a32,32,0,0,0-3.14-5.52c-11.56-16.15-34.58-11.27-34.58-11.27-29.71,9.24-29.12,22.78-18.32,31.65a33.51,33.51,0,0,0,4.22,2.94c0.44-2.62,1.58-4.47,2.92-4.47,1.73,0,3.13,3.11,3.13,6.94,0,0.15,0,.31,0,0.46a44.28,44.28,0,0,0,5.51,1.78c0.3-3.52,1.69-6.18,3.37-6.18s3,2.47,3.33,5.81a13.08,13.08,0,0,1,.09,1.56c9.44,0.9,18.76-1.46,23.82-8.91a20.47,20.47,0,0,0,2.7-5.66s-0.14,2.15-.11,5c0.05,6.38,1,16.9,6.25,16.9h0C1142.61,4867,1140.8,4850.38,1140.8,4850.38Z" transform="translate(-896 -4749.57)"/><path class="cls-68" d="M1090.4,4859.33c-1.34,0-2.48,1.86-2.92,4.48a13.68,13.68,0,0,0-.21,2.46c0,3.83,1.4,6.94,3.13,6.94s3-2.86,3.12-6.48c0-.15,0-0.31,0-0.46C1093.53,4862.44,1092.13,4859.33,1090.4,4859.33Z" transform="translate(-896 -4749.57)"/><path class="cls-69" d="M1070.21,4877.35l-0.23-.08h0Z" transform="translate(-896 -4749.57)"/><path class="cls-70" d="M1164.37,4840.42l-0.06.53c0-.17,0-0.35,0-0.53" transform="translate(-896 -4749.57)"/><path class="cls-71" d="M1164.25,4841.57l-0.06.7C1164.2,4842,1164.22,4841.81,1164.25,4841.57Z" transform="translate(-896 -4749.57)"/><path class="cls-72" d="M1071.93,5002.79L1072,5003v58s0.62,1.39,4,1.39,4-1.39,4-1.39v-60.83Z" transform="translate(-896 -4749.57)"/><path class="cls-73" d="M1147.93,4978.79L1148,4979v58s0.62,1.39,4,1.39,4-1.39,4-1.39v-60.83Z" transform="translate(-896 -4749.57)"/><path class="cls-74" d="M939.07,4938.79L939,4939v58s-0.62,1.39-4,1.39-4-1.39-4-1.39v-60.83Z" transform="translate(-896 -4749.57)"/><path class="cls-75" d="M1027.9,4915.41a15.93,15.93,0,0,0-4.31,9.73l50.93,25.86-0.51-63.05v-1.86l-6.74-3.6L995.5,4846l-0.5,65,21.17,10.38c3.85-4.08,7.57-7.7,10.53-10.31-0.11-.87.08-0.86,0.19,0a18.78,18.78,0,0,0,1,4.33Q1029.31,4919.41,1027.9,4915.41Z" transform="translate(-896 -4749.57)"/><path class="cls-76" d="M1036.61,4903.78" transform="translate(-896 -4749.57)"/><path class="cls-9" d="M1135.38,4923.47a4.26,4.26,0,0,1,.53-0.14C1135.84,4923.24,1135.68,4923.28,1135.38,4923.47Z" transform="translate(-896 -4749.57)"/><path class="cls-77" d="M1126.8,4933.41l-0.25-.16A2.93,2.93,0,0,0,1126.8,4933.41Z" transform="translate(-896 -4749.57)"/><path class="cls-78" d="M1139.64,4936c-1.33-.13-2.92-0.31-4.52-0.54a52.65,52.65,0,0,1-6-1.12,10.93,10.93,0,0,1-2.05-.76c2.52-3.9,1.86-19.92,1.46-20.1,0.45,17.13-2.15,20.27-2.08,20.18,3.64,2.74,13.53,11,11.13,21.48C1140.12,4951.83,1139.64,4936,1139.64,4936Z" transform="translate(-896 -4749.57)"/><path class="cls-79" d="M1160.39,4916.45l-16.78-7.42-0.07-.24a30.14,30.14,0,0,1,.79,3.44l12.14,5.42-4,45.07,3.23,1.64Z" transform="translate(-896 -4749.57)"/><path class="cls-80" d="M1093.52,4866.73a44.28,44.28,0,0,0,5.51,1.78" transform="translate(-896 -4749.57)"/><path class="cls-81" d="M1099,4868.51q-0.06.7-.06,1.44c0,4.21,1.53,7.62,3.43,7.62s3.43-3.41,3.43-7.62a2.09,2.09,0,0,0,0-.25,13.09,13.09,0,0,0-.09-1.56c-0.36-3.34-1.71-5.81-3.33-5.81S1099.33,4865,1099,4868.51Z" transform="translate(-896 -4749.57)"/><path class="cls-82" d="M1087.48,4863.81a13.67,13.67,0,0,0-.21,2.46c0,3.83,1.4,6.94,3.13,6.94s3-2.86,3.12-6.48c0-.15,0-0.31,0-0.46,0-3.83-1.4-6.94-3.13-6.94C1089.06,4859.33,1087.92,4861.19,1087.48,4863.81Z" transform="translate(-896 -4749.57)"/><polyline class="cls-81" points="209.73 118.57 233.64 111.22 236.22 110.43"/><polyline class="cls-83" points="170.42 248.64 170.47 255.56 170.47 255.56 174.45 254.27 182.5 251.65 248.43 230.22 256.25 227.6 265 224.67 265 217.43 170.42 247.64"/><polygon class="cls-84" points="170.42 247.64 28.8 176.43 28.72 176.43 28.82 183.23 35.5 186.53 43.5 190.54 170.47 255.56 170.42 247.64"/><path class="cls-85" d="M1128.34,4935.13a56.6,56.6,0,0,1-12.57,8.91l1.58,0.8-1.58-.8c-11.16,5.93-22.49,8-25.5,8-13.16-4-16.16,6.15-13.8,9.67s9.1,5.37,14-2c0.49-.5,1-1,1.49-1.65,3.88,0,18.21-5.11,29.35-11.14h0a52.24,52.24,0,0,0,11.19-7.64A37.53,37.53,0,0,0,1128.34,4935.13Z" transform="translate(-896 -4749.57)"/><path class="cls-78" d="M1135.11,4935.59v-0.14a52.65,52.65,0,0,1-6-1.12v0c-0.26.26-.53,0.5-0.79,0.75a37.53,37.53,0,0,1,4.18,4.09A10.19,10.19,0,0,0,1135.11,4935.59Z" transform="translate(-896 -4749.57)"/><path class="cls-86" d="M1135.11,4935.59v-0.14a52.65,52.65,0,0,1-6-1.12v0c-0.26.26-.53,0.5-0.79,0.75a37.53,37.53,0,0,1,4.18,4.09A10.19,10.19,0,0,0,1135.11,4935.59Z" transform="translate(-896 -4749.57)"/><path class="cls-87" d="M1100,4908.66c-2.41,5.56-6.15,2-8-.25,0.28,0.45.62,0.91,1,1.46a21.12,21.12,0,0,0,2.09,2.57c1.07,1.12,2.22,2.18,3.28,2.19Z" transform="translate(-896 -4749.57)"/><path class="cls-88" d="M1095.68,4912.94c-0.76-.79-2.7-3.26-3.31-4.14-0.59.83-1.16,1.69-1.72,2.57a28,28,0,0,1,2.73,5.81A43.1,43.1,0,0,0,1095.68,4912.94Z" transform="translate(-896 -4749.57)"/><path class="cls-89" d="M1115,4899.74c2.73-5.07,13-15.41,9.41-11.86s-12.06,4.27-12.06,4.27a32.38,32.38,0,0,1,1.88,3.76A7.28,7.28,0,0,1,1115,4899.74Z" transform="translate(-896 -4749.57)"/><path class="cls-90" d="M1068.47,4967.72a2.3,2.3,0,0,0,1.13,1.45A5.13,5.13,0,0,1,1068.47,4967.72Z" transform="translate(-896 -4749.57)"/><path class="cls-91" d="M1121.32,4946.86c-11.14,6-25.47,11.14-29.35,11.14-0.5.6-1,1.15-1.49,1.65,3.08,0.7,5.5,2.1,6.35,4.3a4.93,4.93,0,0,1,.32,1.42c-1.31,3.51-12.7,5.69-20.73,5.31-2.95-.14-5.44-0.62-6.82-1.51,2.95,1.84,13.4,4.14,29.74-2.52,26-10.59,25.77-17.87,25.77-17.87Z" transform="translate(-896 -4749.57)"/><path class="cls-92" d="M1033,4919v-18C1028.08,4901,1021.67,4919,1033,4919Z" transform="translate(-896 -4749.57)"/><path class="cls-75" d="M1027.9,4915.41h0Q1029.31,4919.41,1027.9,4915.41Z" transform="translate(-896 -4749.57)"/><path class="cls-93" d="M1024.69,4935a48.11,48.11,0,0,0,3.32,8.23c0.51,1,1.09,2.11,1.72,3.21,0,3.69-6.26,6.68-14,6.68s-14-3-14-6.68c0,0-1.43,15.31,38.24,2.44C1048.25,4946.2,1031.06,4935.63,1024.69,4935Z" transform="translate(-896 -4749.57)"/><path class="cls-94" d="M1033,4901v18c-3,0-4.73-1.25-5.6-3.09a15.24,15.24,0,0,0-2.47,3.9c-0.24,2.75,9.91,2.92,11.68,1.88S1033,4901,1033,4901Z" transform="translate(-896 -4749.57)"/><use width="35.82" height="23.05" transform="matrix(-1, 0, 0, 1, 419.69, 223.48)" xlink:href="#New_Symbol_10"/><use width="35.82" height="23.05" transform="matrix(-1, 0, 0, 1, 391.91, 157.64)" xlink:href="#New_Symbol_10"/><use width="35.82" height="23.05" transform="matrix(-1, 0, 0, 1, 464.27, 144.95)" xlink:href="#New_Symbol_10"/><use width="35.82" height="23.05" transform="matrix(-1, 0, 0, 1, 464.27, 134.95)" xlink:href="#New_Symbol_10"/><use width="35.82" height="23.05" transform="matrix(-1, 0, 0, 1, 464.27, 124.95)" xlink:href="#New_Symbol_10"/></svg>