<svg id="Layer_2" data-name="Layer 2" xmlns="http://www.w3.org/2000/svg" xmlns:xlink="http://www.w3.org/1999/xlink" viewBox="0 0 604.6 384.66"><defs><style>.cls-1{fill:url(#linear-gradient);}.cls-2{fill:url(#linear-gradient-2);}.cls-3{fill:url(#linear-gradient-3);}.cls-4{fill:url(#radial-gradient);}.cls-5{fill:url(#radial-gradient-2);}.cls-6{fill:url(#radial-gradient-3);}.cls-7{fill:url(#linear-gradient-4);}.cls-8{fill:url(#linear-gradient-5);}.cls-9{fill:#7a35e6;}.cls-10{fill:#2982e2;}.cls-11{fill:url(#linear-gradient-6);}.cls-12{fill:url(#linear-gradient-7);}.cls-13{fill:url(#linear-gradient-8);}.cls-14{fill:url(#linear-gradient-9);}.cls-15{fill:url(#linear-gradient-10);}.cls-16{fill:url(#linear-gradient-11);}.cls-17{fill:url(#linear-gradient-12);}.cls-18{fill:url(#linear-gradient-13);}.cls-19{fill:url(#linear-gradient-14);}.cls-20{fill:url(#linear-gradient-15);}.cls-21{fill:#fff;}.cls-22{fill:url(#linear-gradient-16);}.cls-23{fill:url(#linear-gradient-17);}.cls-24{fill:url(#linear-gradient-18);}.Graphic-Style-42{fill:url(#linear-gradient-19);}.cls-25{fill:none;}.cls-26{fill:url(#linear-gradient-20);}.cls-27{fill:url(#linear-gradient-21);}.cls-28{fill:url(#linear-gradient-22);}.cls-29{fill:url(#linear-gradient-23);}.cls-30{fill:url(#linear-gradient-24);}.cls-31{fill:url(#linear-gradient-25);}.cls-32{fill:url(#linear-gradient-26);}.cls-33{fill:url(#linear-gradient-27);}.cls-34{fill:url(#linear-gradient-28);}.cls-35{fill:url(#linear-gradient-29);}.cls-36{fill:url(#linear-gradient-30);}.cls-37{fill:url(#linear-gradient-31);}.cls-38{fill:url(#linear-gradient-32);}.cls-39{fill:url(#linear-gradient-33);}.cls-40{fill:url(#linear-gradient-34);}.cls-41{fill:url(#linear-gradient-35);}.cls-42{fill:url(#linear-gradient-36);}.cls-43{fill:url(#linear-gradient-37);}.cls-44{fill:url(#linear-gradient-38);}.cls-45{fill:url(#linear-gradient-39);}.cls-46{fill:url(#linear-gradient-40);}.cls-47{fill:url(#linear-gradient-41);}.cls-48{fill:url(#linear-gradient-42);}.cls-49{fill:url(#linear-gradient-43);}.cls-50{fill:url(#linear-gradient-44);}.cls-51{fill:url(#linear-gradient-45);}.cls-52{fill:url(#linear-gradient-46);}.cls-53{fill:url(#radial-gradient-4);}.cls-54{fill:url(#linear-gradient-47);}.cls-55{fill:url(#linear-gradient-48);}.cls-56{fill:url(#linear-gradient-49);}.cls-57{fill:url(#linear-gradient-50);}.cls-58{fill:url(#linear-gradient-51);}.cls-59{fill:url(#linear-gradient-52);}.cls-60{fill:url(#linear-gradient-53);}.cls-61{fill:url(#linear-gradient-54);}.cls-62{fill:url(#linear-gradient-55);}.cls-63{fill:url(#linear-gradient-56);}.cls-64{fill:url(#linear-gradient-57);}.cls-65{fill:url(#linear-gradient-58);}.cls-66{fill:url(#linear-gradient-59);}.cls-67{fill:url(#linear-gradient-60);}.cls-68,.cls-86{opacity:0.1;}.cls-68{fill:url(#linear-gradient-61);}.cls-69{fill:url(#linear-gradient-62);}.cls-70{fill:url(#linear-gradient-63);}.cls-71{fill:url(#linear-gradient-64);}.cls-72{fill:url(#linear-gradient-65);}.cls-73{fill:url(#linear-gradient-66);}.cls-74{fill:url(#linear-gradient-67);}.cls-75{fill:url(#linear-gradient-68);}.cls-76{fill:url(#linear-gradient-69);}.cls-77,.cls-78,.cls-79,.cls-80,.cls-81,.cls-82,.cls-83,.cls-84,.cls-97{opacity:0.5;}.cls-77{fill:url(#linear-gradient-70);}.cls-78{fill:url(#linear-gradient-71);}.cls-79{fill:url(#linear-gradient-72);}.cls-80{fill:url(#linear-gradient-73);}.cls-81{fill:url(#linear-gradient-74);}.cls-82{fill:url(#linear-gradient-75);}.cls-83{fill:url(#linear-gradient-76);}.cls-84{fill:url(#linear-gradient-77);}.cls-85{fill:url(#linear-gradient-78);}.cls-86{fill:url(#linear-gradient-79);}.cls-87{fill:url(#linear-gradient-80);}.cls-88{fill:url(#linear-gradient-81);}.cls-89{fill:url(#linear-gradient-82);}.cls-90{fill:url(#linear-gradient-83);}.cls-91{fill:url(#linear-gradient-84);}.cls-92{fill:url(#linear-gradient-85);}.cls-93{fill:url(#linear-gradient-86);}.cls-94{fill:url(#linear-gradient-87);}.cls-95{fill:url(#radial-gradient-5);}.cls-96{fill:url(#linear-gradient-88);}.cls-97{fill:url(#linear-gradient-89);}.cls-98{fill:url(#linear-gradient-90);}.cls-99{fill:url(#linear-gradient-91);}.cls-100{fill:url(#linear-gradient-92);}.cls-101{fill:url(#radial-gradient-6);}.cls-102{fill:url(#radial-gradient-7);}.cls-103{fill:url(#linear-gradient-93);}.cls-104{fill:url(#radial-gradient-8);}.cls-105{fill:url(#linear-gradient-94);}.cls-106{fill:url(#linear-gradient-95);}.cls-107{fill:url(#linear-gradient-96);}.cls-108{fill:url(#linear-gradient-97);}.cls-109{fill:url(#linear-gradient-98);}.cls-110{fill:url(#linear-gradient-99);}.cls-111{fill:url(#linear-gradient-100);}.cls-112{fill:url(#linear-gradient-101);}</style><linearGradient id="linear-gradient" x1="13.88" y1="20.73" x2="33.54" y2="-10.94" gradientUnits="userSpaceOnUse"><stop offset="0" stop-color="#fbaac7"/><stop offset="1" stop-color="#ff3d3d"/></linearGradient><linearGradient id="linear-gradient-2" x1="0.7" y1="-3.42" x2="73.7" y2="44.83" gradientUnits="userSpaceOnUse"><stop offset="0" stop-color="#ff7ac2" stop-opacity="0.74"/><stop offset="1" stop-color="#ff2626"/></linearGradient><linearGradient id="linear-gradient-3" x1="14.31" y1="27.17" x2="53.31" y2="3.67" xlink:href="#linear-gradient"/><radialGradient id="radial-gradient" cx="377.67" cy="5314" r="660.73" gradientUnits="userSpaceOnUse"><stop offset="0" stop-color="#ffcce7"/><stop offset="1" stop-color="#fdf3fa" stop-opacity="0"/></radialGradient><radialGradient id="radial-gradient-2" cx="350.82" cy="5501.14" r="747.38" gradientUnits="userSpaceOnUse"><stop offset="0" stop-color="#5c0dff" stop-opacity="0.4"/><stop offset="1" stop-color="#ca88ee" stop-opacity="0"/></radialGradient><radialGradient id="radial-gradient-3" cx="808.5" cy="5572" r="247.18" gradientUnits="userSpaceOnUse"><stop offset="0" stop-color="#fff" stop-opacity="0.5"/><stop offset="1" stop-color="#fff" stop-opacity="0"/></radialGradient><linearGradient id="linear-gradient-4" x1="666.98" y1="5345.5" x2="666.98" y2="5140.59" gradientUnits="userSpaceOnUse"><stop offset="0" stop-color="#5c0dff"/><stop offset="1" stop-color="#fff"/></linearGradient><linearGradient id="linear-gradient-5" x1="787.76" y1="5508.25" x2="798.97" y2="5508.25" gradientUnits="userSpaceOnUse"><stop offset="0" stop-color="#a76eff"/><stop offset="1" stop-color="#893bff"/></linearGradient><linearGradient id="linear-gradient-6" x1="779.64" y1="5508.45" x2="790.32" y2="5508.45" gradientUnits="userSpaceOnUse"><stop offset="0" stop-color="#2472c7"/><stop offset="1" stop-color="#2982e2"/></linearGradient><linearGradient id="linear-gradient-7" x1="771.12" y1="5525" x2="771.12" y2="5502.34" xlink:href="#linear-gradient-5"/><linearGradient id="linear-gradient-8" x1="773.71" y1="5427.42" x2="736.15" y2="5403.59" gradientUnits="userSpaceOnUse"><stop offset="0" stop-color="#1cffce"/><stop offset="1" stop-color="#fff"/></linearGradient><linearGradient id="linear-gradient-9" x1="748.62" y1="5493.33" x2="748.62" y2="5481.58" xlink:href="#linear-gradient-6"/><linearGradient id="linear-gradient-10" x1="768.22" y1="5509.88" x2="768.22" y2="5381" gradientUnits="userSpaceOnUse"><stop offset="0" stop-color="#ffe70d"/><stop offset="1" stop-color="#fff"/></linearGradient><linearGradient id="linear-gradient-11" x1="735.64" y1="5460.85" x2="725.39" y2="5454.35" xlink:href="#linear-gradient-8"/><linearGradient id="linear-gradient-12" x1="735.63" y1="5460.86" x2="725.38" y2="5454.36" gradientUnits="userSpaceOnUse"><stop offset="0" stop-color="#1bf0c2"/><stop offset="1" stop-color="#fff"/></linearGradient><linearGradient id="linear-gradient-13" x1="735.72" y1="5460.72" x2="725.47" y2="5454.22" xlink:href="#linear-gradient-8"/><linearGradient id="linear-gradient-14" x1="778.9" y1="5419.24" x2="741.34" y2="5395.41" gradientUnits="userSpaceOnUse"><stop offset="0" stop-color="#00e6b4"/><stop offset="1" stop-color="#fff"/></linearGradient><linearGradient id="linear-gradient-15" x1="817.95" y1="5426.87" x2="724.45" y2="5405.71" gradientUnits="userSpaceOnUse"><stop offset="0" stop-color="#282580"/><stop offset="1" stop-color="#5e66ff"/></linearGradient><linearGradient id="linear-gradient-16" x1="384.84" y1="95.28" x2="403.11" y2="108.24" gradientUnits="userSpaceOnUse"><stop offset="0" stop-color="#e6bb70" stop-opacity="0.74"/><stop offset="1" stop-color="#fff"/></linearGradient><linearGradient id="linear-gradient-17" x1="718.92" y1="5300.39" x2="734.42" y2="5311.39" xlink:href="#linear-gradient-16"/><linearGradient id="linear-gradient-18" x1="636.34" y1="5207.7" x2="721.59" y2="5266.45" gradientUnits="userSpaceOnUse"><stop offset="0" stop-color="#040030"/><stop offset="1" stop-color="#fff"/></linearGradient><linearGradient id="linear-gradient-19" x1="649.19" y1="5229.09" x2="700.44" y2="5272.34" gradientUnits="userSpaceOnUse"><stop offset="0" stop-color="#ffbb1c"/><stop offset="1" stop-color="#fff"/></linearGradient><linearGradient id="linear-gradient-20" x1="623.74" y1="5229.98" x2="708.99" y2="5288.73" gradientUnits="userSpaceOnUse"><stop offset="0" stop-color="#bf6f5e" stop-opacity="0.74"/><stop offset="1" stop-color="#fff"/></linearGradient><linearGradient id="linear-gradient-21" x1="640.22" y1="5239.72" x2="691.47" y2="5282.97" gradientUnits="userSpaceOnUse"><stop offset="0" stop-color="#ffbb1c" stop-opacity="0.74"/><stop offset="1" stop-color="#fff"/></linearGradient><linearGradient id="linear-gradient-22" x1="637.11" y1="5210.58" x2="722.36" y2="5269.33" xlink:href="#linear-gradient-20"/><linearGradient id="linear-gradient-23" x1="656.43" y1="5220.51" x2="707.68" y2="5263.76" xlink:href="#linear-gradient-21"/><linearGradient id="linear-gradient-24" x1="697.39" y1="5425.36" x2="662.89" y2="5417.11" gradientUnits="userSpaceOnUse"><stop offset="0.01" stop-color="#e64400"/><stop offset="1" stop-color="#fff"/></linearGradient><linearGradient id="linear-gradient-25" x1="665.68" y1="5328.17" x2="665.68" y2="5435.2" gradientUnits="userSpaceOnUse"><stop offset="0" stop-color="#05e681"/><stop offset="1" stop-color="#fff"/></linearGradient><linearGradient id="linear-gradient-26" x1="641.33" y1="5346.57" x2="690.5" y2="5346.57" gradientUnits="userSpaceOnUse"><stop offset="0" stop-color="#3cdb93"/><stop offset="1" stop-color="#7feebc"/></linearGradient><linearGradient id="linear-gradient-27" x1="677.34" y1="5364.04" x2="682.17" y2="5436.54" xlink:href="#linear-gradient-19"/><linearGradient id="linear-gradient-28" x1="673.48" y1="5432.51" x2="643.73" y2="5421.51" xlink:href="#linear-gradient-24"/><linearGradient id="linear-gradient-29" x1="653.98" y1="5365.6" x2="658.81" y2="5438.1" xlink:href="#linear-gradient-19"/><linearGradient id="linear-gradient-30" x1="684.42" y1="5270.91" x2="636.79" y2="5255.78" xlink:href="#linear-gradient-21"/><linearGradient id="linear-gradient-31" x1="654.2" y1="5351.57" x2="618.2" y2="5227.24" gradientUnits="userSpaceOnUse"><stop offset="0" stop-color="#c970e6" stop-opacity="0.74"/><stop offset="1" stop-color="#fff"/></linearGradient><linearGradient id="linear-gradient-32" x1="653.27" y1="5351.84" x2="617.27" y2="5227.51" xlink:href="#linear-gradient-31"/><linearGradient id="linear-gradient-33" x1="654.98" y1="5351.35" x2="618.98" y2="5227.02" xlink:href="#linear-gradient-31"/><linearGradient id="linear-gradient-34" x1="653.49" y1="5351.78" x2="617.49" y2="5227.45" xlink:href="#linear-gradient-31"/><linearGradient id="linear-gradient-35" x1="670.05" y1="5352.63" x2="670.05" y2="5396.88" xlink:href="#linear-gradient-26"/><linearGradient id="linear-gradient-36" x1="650.23" y1="5366.01" x2="654.97" y2="5437.14" xlink:href="#linear-gradient-16"/><linearGradient id="linear-gradient-37" x1="328.61" y1="174.5" x2="328.61" y2="174.54" xlink:href="#linear-gradient-16"/><linearGradient id="linear-gradient-38" x1="654.51" y1="5363.67" x2="660" y2="5446.02" xlink:href="#linear-gradient-16"/><linearGradient id="linear-gradient-39" x1="655.39" y1="5375.08" x2="655.39" y2="5381.17" gradientUnits="userSpaceOnUse"><stop offset="0" stop-color="#ffd572"/><stop offset="1" stop-color="#deaf43"/></linearGradient><linearGradient id="linear-gradient-40" x1="650.14" y1="5365.86" x2="654.97" y2="5438.36" xlink:href="#linear-gradient-16"/><linearGradient id="linear-gradient-41" x1="651" y1="5378.78" x2="651.15" y2="5381.02" xlink:href="#linear-gradient-16"/><linearGradient id="linear-gradient-42" x1="352.54" y1="171.76" x2="352.54" y2="171.76" xlink:href="#linear-gradient-16"/><linearGradient id="linear-gradient-43" x1="342.38" y1="171.74" x2="342.38" y2="171.77" xlink:href="#linear-gradient-16"/><linearGradient id="linear-gradient-44" x1="678.77" y1="5369.92" x2="678.77" y2="5380.36" xlink:href="#linear-gradient-39"/><linearGradient id="linear-gradient-45" x1="684.12" y1="5301.41" x2="675.19" y2="5270.57" xlink:href="#linear-gradient-31"/><linearGradient id="linear-gradient-46" x1="633.46" y1="5247.73" x2="684.71" y2="5290.98" xlink:href="#linear-gradient-21"/><radialGradient id="radial-gradient-4" cx="503.27" cy="5506" r="185.37" gradientUnits="userSpaceOnUse"><stop offset="0" stop-color="#5c0dff" stop-opacity="0.4"/><stop offset="1" stop-color="#fff" stop-opacity="0"/></radialGradient><linearGradient id="linear-gradient-47" x1="624.81" y1="5220.88" x2="624.81" y2="5201.94" xlink:href="#linear-gradient-21"/><linearGradient id="linear-gradient-48" x1="710.95" y1="5220.88" x2="710.95" y2="5201.71" xlink:href="#linear-gradient-21"/><linearGradient id="linear-gradient-49" x1="797.36" y1="5347.25" x2="805.86" y2="5337.5" gradientUnits="userSpaceOnUse"><stop offset="0" stop-color="#00c3ff"/><stop offset="1" stop-color="#fff"/></linearGradient><linearGradient id="linear-gradient-50" x1="776.12" y1="5333.94" x2="771.62" y2="5390.94" gradientUnits="userSpaceOnUse"><stop offset="0" stop-color="#00eaff"/><stop offset="1" stop-color="#fff"/></linearGradient><linearGradient id="linear-gradient-51" x1="832.51" y1="5286.41" x2="857.13" y2="5275.04" gradientUnits="userSpaceOnUse"><stop offset="0" stop-color="#d1ffb5"/><stop offset="1" stop-color="#fff"/></linearGradient><linearGradient id="linear-gradient-52" x1="833" y1="5286.48" x2="851.85" y2="5277.77" gradientUnits="userSpaceOnUse"><stop offset="0" stop-color="#bce6a3"/><stop offset="1" stop-color="#fff"/></linearGradient><linearGradient id="linear-gradient-53" x1="791.13" y1="5349.67" x2="791.13" y2="5214.17" gradientUnits="userSpaceOnUse"><stop offset="0" stop-color="#ff1500"/><stop offset="1" stop-color="#fff"/></linearGradient><linearGradient id="linear-gradient-54" x1="783.63" y1="5289.63" x2="806.88" y2="5277.5" xlink:href="#linear-gradient-51"/><linearGradient id="linear-gradient-55" x1="783.65" y1="5289.77" x2="801.38" y2="5280.52" xlink:href="#linear-gradient-52"/><linearGradient id="linear-gradient-56" x1="763.07" y1="5308.33" x2="763.07" y2="5242" xlink:href="#linear-gradient-53"/><linearGradient id="linear-gradient-57" x1="775.99" y1="5270.99" x2="742.49" y2="5299.99" xlink:href="#linear-gradient-51"/><linearGradient id="linear-gradient-58" x1="796.5" y1="5261.01" x2="735.22" y2="5261.01" gradientUnits="userSpaceOnUse"><stop offset="0" stop-color="#00455c"/><stop offset="1" stop-color="#297496"/></linearGradient><linearGradient id="linear-gradient-59" x1="796.5" y1="5277.62" x2="735.22" y2="5277.62" xlink:href="#linear-gradient-58"/><linearGradient id="linear-gradient-60" x1="796.5" y1="5281.35" x2="735.22" y2="5281.35" xlink:href="#linear-gradient-58"/><linearGradient id="linear-gradient-61" x1="796.5" y1="5274.6" x2="735.22" y2="5274.6" xlink:href="#linear-gradient-58"/><linearGradient id="linear-gradient-62" x1="767.6" y1="5261.3" x2="734.1" y2="5290.3" xlink:href="#linear-gradient-51"/><linearGradient id="linear-gradient-63" x1="771.93" y1="5266.3" x2="738.43" y2="5295.3" xlink:href="#linear-gradient-51"/><linearGradient id="linear-gradient-64" x1="769.51" y1="5263.51" x2="736.01" y2="5292.51" xlink:href="#linear-gradient-51"/><linearGradient id="linear-gradient-65" x1="768.58" y1="5262.43" x2="735.08" y2="5291.43" xlink:href="#linear-gradient-51"/><linearGradient id="linear-gradient-66" x1="770.39" y1="5264.52" x2="736.89" y2="5293.52" xlink:href="#linear-gradient-51"/><linearGradient id="linear-gradient-67" x1="771.2" y1="5265.46" x2="737.7" y2="5294.46" xlink:href="#linear-gradient-51"/><linearGradient id="linear-gradient-68" x1="765.99" y1="5259.45" x2="742.64" y2="5279.66" xlink:href="#linear-gradient-51"/><linearGradient id="linear-gradient-69" x1="766.49" y1="5260.02" x2="732.99" y2="5289.02" xlink:href="#linear-gradient-51"/><linearGradient id="linear-gradient-70" x1="796.5" y1="5278.61" x2="735.22" y2="5278.61" xlink:href="#linear-gradient-58"/><linearGradient id="linear-gradient-71" x1="796.5" y1="5278.98" x2="735.22" y2="5278.98" xlink:href="#linear-gradient-58"/><linearGradient id="linear-gradient-72" x1="796.5" y1="5278.11" x2="735.22" y2="5278.11" xlink:href="#linear-gradient-58"/><linearGradient id="linear-gradient-73" x1="796.5" y1="5279.37" x2="735.22" y2="5279.37" xlink:href="#linear-gradient-58"/><linearGradient id="linear-gradient-74" x1="796.5" y1="5277.39" x2="735.22" y2="5277.39" xlink:href="#linear-gradient-58"/><linearGradient id="linear-gradient-75" x1="796.5" y1="5279.21" x2="735.22" y2="5279.21" xlink:href="#linear-gradient-58"/><linearGradient id="linear-gradient-76" x1="796.5" y1="5279.34" x2="735.22" y2="5279.34" xlink:href="#linear-gradient-58"/><linearGradient id="linear-gradient-77" x1="796.5" y1="5279.31" x2="735.22" y2="5279.31" xlink:href="#linear-gradient-58"/><linearGradient id="linear-gradient-78" x1="770.14" y1="5264.24" x2="736.64" y2="5293.24" xlink:href="#linear-gradient-51"/><linearGradient id="linear-gradient-79" x1="796.5" y1="5279.88" x2="735.22" y2="5279.88" xlink:href="#linear-gradient-58"/><linearGradient id="linear-gradient-80" x1="796.5" y1="5262.5" x2="735.22" y2="5262.5" xlink:href="#linear-gradient-58"/><linearGradient id="linear-gradient-81" x1="787.88" y1="5334.87" x2="783.38" y2="5391.87" xlink:href="#linear-gradient-50"/><linearGradient id="linear-gradient-82" x1="777.99" y1="5359.56" x2="810.62" y2="5338.5" gradientUnits="userSpaceOnUse"><stop offset="0" stop-color="#00eaff"/><stop offset="1" stop-color="#21edff"/></linearGradient><linearGradient id="linear-gradient-83" x1="758.88" y1="5350.9" x2="756.94" y2="5375.5" gradientUnits="userSpaceOnUse"><stop offset="0" stop-color="#00eaff"/><stop offset="1" stop-color="#acf8ff"/></linearGradient><linearGradient id="linear-gradient-84" x1="774.04" y1="5333.78" x2="769.54" y2="5390.78" xlink:href="#linear-gradient-50"/><linearGradient id="linear-gradient-85" x1="773.21" y1="5339.13" x2="773.21" y2="5352" gradientUnits="userSpaceOnUse"><stop offset="0" stop-color="#00b6c7"/><stop offset="1" stop-color="#48f0ff"/></linearGradient><linearGradient id="linear-gradient-86" x1="771.74" y1="5348" x2="771.74" y2="5323.5" gradientUnits="userSpaceOnUse"><stop offset="0" stop-color="#e31300"/><stop offset="1" stop-color="#ff3927"/></linearGradient><linearGradient id="linear-gradient-87" x1="813.23" y1="5349.67" x2="813.23" y2="5214.17" xlink:href="#linear-gradient-53"/><radialGradient id="radial-gradient-5" cx="787.25" cy="5305.17" r="55.08" gradientUnits="userSpaceOnUse"><stop offset="0" stop-color="#e31300"/><stop offset="1" stop-color="#ff7e72"/></radialGradient><linearGradient id="linear-gradient-88" x1="765.33" y1="5349.67" x2="765.33" y2="5214.17" xlink:href="#linear-gradient-53"/><linearGradient id="linear-gradient-89" x1="769.33" y1="5311.85" x2="763.08" y2="5291.35" gradientUnits="userSpaceOnUse"><stop offset="0" stop-color="#ff5c4e"/><stop offset="1" stop-color="#ff2816"/></linearGradient><linearGradient id="linear-gradient-90" x1="786" y1="5365.03" x2="789.21" y2="5369.11" gradientUnits="userSpaceOnUse"><stop offset="0" stop-color="#4df4ff"/><stop offset="1" stop-color="#89f5ff"/></linearGradient><linearGradient id="linear-gradient-91" x1="809.06" y1="5355.65" x2="806.76" y2="5384.7" xlink:href="#linear-gradient-50"/><linearGradient id="linear-gradient-92" x1="750.17" y1="5501.12" x2="750.17" y2="5511.88" xlink:href="#linear-gradient-6"/><radialGradient id="radial-gradient-6" cx="793.5" cy="5455.25" r="67.22" xlink:href="#linear-gradient-10"/><radialGradient id="radial-gradient-7" cx="747.24" cy="5463.04" r="116.47" xlink:href="#linear-gradient-10"/><linearGradient id="linear-gradient-93" x1="765.18" y1="5432.35" x2="761.39" y2="5440.89" gradientUnits="userSpaceOnUse"><stop offset="0" stop-color="#2be6bb"/><stop offset="1" stop-color="#45ffd7"/></linearGradient><radialGradient id="radial-gradient-8" cx="779" cy="5468.17" r="65.44" xlink:href="#linear-gradient-10"/><linearGradient id="linear-gradient-94" x1="787.43" y1="5512.47" x2="787.43" y2="5501.5" gradientUnits="userSpaceOnUse"><stop offset="0" stop-color="#226dbd" stop-opacity="0.4"/><stop offset="1" stop-color="#267cd7" stop-opacity="0.2"/></linearGradient><linearGradient id="linear-gradient-95" x1="747.91" y1="5519.96" x2="747.91" y2="5508.09" xlink:href="#linear-gradient-94"/><linearGradient id="linear-gradient-96" x1="763.19" y1="5518.5" x2="763.19" y2="5505.16" xlink:href="#linear-gradient-94"/><linearGradient id="linear-gradient-97" x1="775.68" y1="5487.35" x2="775.43" y2="5504.97" xlink:href="#linear-gradient-94"/><linearGradient id="linear-gradient-98" x1="764.04" y1="5316.06" x2="764.04" y2="5321.38" gradientUnits="userSpaceOnUse"><stop offset="0" stop-color="#ff2816"/><stop offset="1" stop-color="#ff3724"/></linearGradient><linearGradient id="linear-gradient-99" x1="806.18" y1="5359.16" x2="822.55" y2="5352.28" xlink:href="#linear-gradient-49"/><linearGradient id="linear-gradient-100" x1="805.66" y1="5357.92" x2="822.03" y2="5351.05" xlink:href="#linear-gradient-49"/><linearGradient id="linear-gradient-101" x1="806.67" y1="5357.73" x2="810.5" y2="5355.7" gradientUnits="userSpaceOnUse"><stop offset="0" stop-color="#00b9f2"/><stop offset="1" stop-color="#2eceff"/></linearGradient><symbol id="New_Symbol_10" data-name="New Symbol 10" viewBox="0 0 35.82 23.05"><path class="cls-1" d="M35.73,19.8l0.06-4.43h0a3.26,3.26,0,0,1-.19-0.44l-1.22-5L33.58,6.77C32.83,4,27.26,1,21.12.23a16.55,16.55,0,0,0-7.46.42c-1.77.64-2.68,1.74-2.31,3.13L11.53,4.5,10,4.28A16.6,16.6,0,0,0,2.5,4.7C1.14,5.2.29,6,.14,6.92h0s-0.29,5.75.09,7.14a3.68,3.68,0,0,0,1,1.86,17.9,17.9,0,0,0,5.3,3.23,54.12,54.12,0,0,0,6,1.45l9.42,1.25L30.4,23c3.24,0.26,5.43-.76,5.43-1.54Z"/><path class="cls-2" d="M35.79,15.16v0a1.45,1.45,0,0,0,0-.28L34.45,9.9,33.62,6.74C32.87,4,27.28,1,21.14.21a16.58,16.58,0,0,0-7.47.43C11.9,1.28,11,2.38,11.36,3.77l0.18,0.72L10,4.28A16.6,16.6,0,0,0,2.5,4.7C1.14,5.2.29,6,.14,6.92a2.15,2.15,0,0,0,0,.62,1.5,1.5,0,0,0,.06.29A4.33,4.33,0,0,0,1.34,9.66c1.76,1.81,5.24,3.47,9.2,4.33h0c0.7,0.15,1.41.27,2.13,0.37l17.77,2.4a9.61,9.61,0,0,0,3.44-.08,3.69,3.69,0,0,0,.53-0.15l0,0h0.06A1.57,1.57,0,0,0,35.79,15.16Z"/><path class="cls-3" d="M35.73,19.8l0.05-4.43s-1.38,8-23.31,5.24l1.31,0.17,8.11,1.07L30.4,23c3.24,0.26,5.43-.76,5.43-1.54Z"/></symbol></defs><title>3</title><path class="cls-4" d="M936,5438.55c0,75.45-136,150.11-274.38,136s-99.69-52.22-170.51-73.75-159.72-.4-159.72-62.27c0-75.45,135.35-136.61,302.3-136.61S936,5363.1,936,5438.55Z" transform="translate(-331.4 -5204.57)"/><path class="cls-5" d="M741.91,5323.89q9.46,1.63,18.58,3.55C860,5348.26,930.28,5392.81,935.66,5445h0a63.12,63.12,0,0,1,.34,6.46c0,75.45-136,150.12-274.38,136s-99.69-52.21-170.51-73.74-159.72-.4-159.72-62.27a62.06,62.06,0,0,1,.35-6.59c3.53-33.61,34-64,81.76-87,2.27-1.09,4.56-2.16,6.9-3.21,0.93-.43,1.88-0.84,2.82-1.26q6.72-3,13.84-5.71c1.76-.69,3.55-1.36,5.35-2q8.1-3,16.65-5.74c4-1.28,8-2.51,12.16-3.7a514,514,0,0,1,55-12.52c5.9-1,11.91-1.94,18-2.8,4-.54,8-1.06,12-1.55,18.41-2.19,37.51-3.63,57.11-4.22q10.08-.29,20.34-0.3c19.33,0,38.24.82,56.56,2.4q8.47,0.72,16.75,1.64" transform="translate(-331.4 -5204.57)"/><use width="35.82" height="23.05" transform="translate(391.31 232.28)" xlink:href="#New_Symbol_10"/><path class="cls-6" d="M754.13,5461.05q2.17,0.37,4.26.81c22.81,4.77,38.91,15,40.14,26.94h0a14.47,14.47,0,0,1,.08,1.48c0,17.29-31.17,34.4-62.88,31.17s-22.84-12-39.07-16.9-36.6-.09-36.6-14.27a14.22,14.22,0,0,1,.08-1.51c0.81-7.7,7.78-14.68,18.74-19.94l1.58-.74,0.65-.29q1.54-.68,3.17-1.31l1.23-.46q1.86-.69,3.82-1.31c0.91-.29,1.84-0.58,2.79-0.85a117.79,117.79,0,0,1,12.61-2.87c1.35-.23,2.73-0.45,4.12-0.64l2.75-.36c4.22-.5,8.59-0.83,13.09-1q2.31-.07,4.66-0.07c4.43,0,8.76.19,13,.55q1.94,0.16,3.84.38" transform="translate(-331.4 -5204.57)"/><path class="cls-7" d="M670.61,5269.79c4.23-.62,11.37,1.12,11.37,1.12,1.4,0,10.52-8.25,10.52-8.25s11.9-40.51,13.48-44.26l7,3.08c0,5.58-8.31,39.73-11.44,47.24s-13.28,21.06-13.28,21.06,0.58,43.33-1.18,45.71-47.23,14-45,9.42c2.2-19.66,2.62-37.91.78-49.78-8.07-11.13-16-25-17.64-33.13-2.06-13.31-4.88-35.89-4-40.77l9.12-1.88s3.43,34.47,5.18,37.53l9.15,16a14.46,14.46,0,0,1,7.24-2" transform="translate(-331.4 -5204.57)"/><g id="_Group_" data-name="&lt;Group&gt;"><path class="cls-8" d="M790.32,5513.49a31.94,31.94,0,0,1-2.43-10.07c-0.12-1.29-.13-2.1-0.13-2.1s4.32-5.15,7.77-4.32h0a5.54,5.54,0,0,0-4.87,3.15s-1,19.42,8.31,19.42C794.61,5519.84,792,5517,790.32,5513.49Z" transform="translate(-331.4 -5204.57)"/><path class="cls-9" d="M802.92,5502.37c5.34,7.65,5.34,17.21-3.95,17.21s-8.84-17.89-8.31-19.42a5.5,5.5,0,0,1,4.87-3.15C797.68,5497.05,800.24,5498.53,802.92,5502.37Z" transform="translate(-331.4 -5204.57)"/><path class="cls-10" d="M765.79,5509.5a22.3,22.3,0,0,0,2.08,9.69c-5.37,0-33.87-6.82-39.91-11.29-3.84-5.5-6.58-17.28,9.73-18.77,0,0,1-.08,2.5-0.17,4.09-.24,12.19-0.5,16.56.72a25.1,25.1,0,0,1,.06,4.07c4.41,4.41,33.42-1,37.72-5.32,0,0,2.41,7.17,1,8.57-3.45-.83-7.77,4.32-7.77,4.32s0,0.81.13,2.1c-2.61,2.29-8.25,3.08-8.25,3.08-2.88-3.69-5.59-4.69-7.75-4.21a0,0,0,0,0,0,0,11.75,11.75,0,0,0-5,1.71C766.25,5504.44,765.78,5506.67,765.79,5509.5Z" transform="translate(-331.4 -5204.57)"/><path class="cls-11" d="M787.89,5503.42a31.94,31.94,0,0,0,2.43,10.07c-2.81-.2-7.8-2.22-7.8-2.22a22.14,22.14,0,0,0-2.11-3.73c-0.26-.37-0.51-0.71-0.77-1C779.64,5506.5,785.28,5505.71,787.89,5503.42Z" transform="translate(-331.4 -5204.57)"/><path class="cls-12" d="M765.79,5509.5c0-2.83.46-5.06,1-5.5a11.75,11.75,0,0,1,5-1.71,5.92,5.92,0,0,0-3.71,3.05s-1,19.41,8.32,19.41c-4.3,0-7-2.39-8.59-5.56A22.3,22.3,0,0,1,765.79,5509.5Z" transform="translate(-331.4 -5204.57)"/><path class="cls-9" d="M771.89,5502.29c2.16-.48,4.87.52,7.75,4.21,0.26,0.33.51,0.67,0.77,1a22.14,22.14,0,0,1,2.11,3.73c3,6.71,1.75,13.48-6.06,13.48-9.29,0-9.06-17.88-8.32-19.41a5.61,5.61,0,0,1,3.71-3.05A0,0,0,0,1,771.89,5502.29Z" transform="translate(-331.4 -5204.57)"/><path class="cls-13" d="M761.6,5399.08a15.8,15.8,0,0,0-7.8-2.88c-3.6,3.6-11.3,31.3,9.82,36,0,0,.56,5.39-1,6.94l-1.82.76,4.31,2.25a42.33,42.33,0,0,0,1.31-4.37C769.6,5424.92,769.57,5404.47,761.6,5399.08Z" transform="translate(-331.4 -5204.57)"/><path class="cls-14" d="M756.94,5484.47c0.35,1.71-.34,3.45-0.19,5.21-4.37-1.22-12.47-1-16.56-.72C740.94,5483,756.94,5484.47,756.94,5484.47Z" transform="translate(-331.4 -5204.57)"/><path class="cls-15" d="M796.69,5474c0.08,6.53-.38,12.63-2.16,14.41-4.3,4.3-34.54,9.73-38.95,5.32,1.46-2.38.82-24,1.17-28-1.13,1.7-5,7.71-5.71,8.43-7.28,3.86-18-8.46-18.64-10.36,0-1.68.53-5.52,4.21-6.09l4.42,2.12,0.59,0.28h0c2,1,3.58,1.69,3.58,1.69s0.17-.42.49-1.14c0-.09.09-0.19,0.13-0.3a1.17,1.17,0,0,0,0-.11c0.08-.17.16-0.37,0.26-0.57l0.19-.43,0.17-.36c0.48-1,1.09-2.32,1.78-3.71l0.39-.75a0.3,0.3,0,0,1,.06-0.11c0.18-.36.38-0.73,0.57-1.1l0-.07c0.27-.51.55-1,0.84-1.54a0.08,0.08,0,0,1,0,0l0.78-1.38c0.58-1,1.18-2,1.81-2.93,0.14-.23.29-0.45,0.44-0.67l0.54-.79c0.18-.26.36-0.52,0.55-0.77a29.06,29.06,0,0,1,2.84-3.38q0.65-.36,1.35-0.72c0.72-.36,1.48-0.71,2.28-1.07l4.31,2.25c-0.14.36-.27,0.7-0.41,1,3.88,3.88,13.3,12.79,13.3,12.79s6.08-8.36,6.52-17.83c1.23,8.44-4.14,17.72-3.74,17.67,2.52-.3,7.55-4.86,7.55-4.86,3.13-6.33,2.88-5.48,5.65-14.81l0.61,0.28a16.85,16.85,0,0,1-.84,5.05c0.72-1.43,1.41-2.89,2-4.38,8.69,5.7,10.21,27.84,6,32C798.5,5472.43,797.14,5473.65,796.69,5474Z" transform="translate(-331.4 -5204.57)"/><path class="cls-16" d="M733.83,5453.8a10.52,10.52,0,0,1,2.78,3.94c-3.68.57-4.19,4.41-4.21,6.09-5-1.1-6.63-3.81-6.45-6.29a5.38,5.38,0,0,1,.48-1.85c0.07-.14.14-0.29,0.22-0.43s0.16-.27.25-0.4a5.3,5.3,0,0,1,.6-0.73c0.11-.12.23-0.22,0.35-0.33s0.22-.19.34-0.27a0.18,0.18,0,0,1,.07-0.05c0.11-.08.23-0.15,0.35-0.22a4.18,4.18,0,0,1,.56-0.28l0.28-.11a4.32,4.32,0,0,1,.88-0.2,3.93,3.93,0,0,1,1.23,0l0.38,0.08A5.22,5.22,0,0,1,733.83,5453.8Z" transform="translate(-331.4 -5204.57)"/><path class="cls-17" d="M733.83,5453.8l0,0a12.16,12.16,0,0,1,1.82,3c-3.68.57-4.19,4.41-4.21,6.09a10.64,10.64,0,0,1-4.4-1.93,9.1,9.1,0,0,0,5.4,2.93c0-1.68.53-5.52,4.21-6.09A10.52,10.52,0,0,0,733.83,5453.8Z" transform="translate(-331.4 -5204.57)"/><path class="cls-18" d="M735.61,5456.74a12.16,12.16,0,0,0-1.82-3,5.21,5.21,0,0,0-1.85-1l-0.38-.08a3.93,3.93,0,0,0-1.23,0,4.32,4.32,0,0,0-.88.2l-0.28.11a4.21,4.21,0,0,0-.56.28c-0.12.07-.24,0.14-0.35,0.22a0.18,0.18,0,0,0-.07,0c-0.12.08-.23,0.18-0.34,0.27s-0.24.21-.35,0.33a5.33,5.33,0,0,0-.6.73c-0.09.13-.17,0.27-0.25,0.4s-0.15.29-.22,0.43a5.38,5.38,0,0,0-.48,1.85,4.81,4.81,0,0,0,1.05,3.36,10.64,10.64,0,0,0,4.4,1.93C731.42,5461.15,731.93,5457.31,735.61,5456.74Z" transform="translate(-331.4 -5204.57)"/><path class="cls-19" d="M761.6,5399.08a15.8,15.8,0,0,0-7.8-2.88,8.09,8.09,0,0,0-1.31,2,8.69,8.69,0,0,1,1.31,0,15.8,15.8,0,0,1,7.8,2.88c4.71,3.19,6.65,11.64,6.79,20.67C768.52,5412,766.66,5402.5,761.6,5399.08Z" transform="translate(-331.4 -5204.57)"/><path class="cls-20" d="M766.33,5378.83a24.39,24.39,0,0,1,7,1.66c-8.12-1.7-16.47.77-20.89,7.95a4.91,4.91,0,0,1,2.69-1.25,30.76,30.76,0,0,0-6.46,10.73,6.57,6.57,0,0,1,5.13-1.72,15.8,15.8,0,0,1,7.8,2.88c8,5.39,8,25.84,4.82,38.69a42.33,42.33,0,0,1-1.31,4.37c-0.14.36-.27,0.7-0.41,1,3.88,3.88,13.3,12.79,13.3,12.79s6.08-8.36,6.52-17.83c1.23,8.44-4.14,17.72-3.74,17.67,2.52-.3,7.55-4.86,7.55-4.86,3.13-6.33,2.88-5.48,5.65-14.81,0.14-.49.3-1,0.46-1.56a9.16,9.16,0,0,1,.15,1.84,16.85,16.85,0,0,1-.84,5c0.72-1.43,1.41-2.89,2-4.38C806.84,5411.3,804.47,5377.57,766.33,5378.83Z" transform="translate(-331.4 -5204.57)"/></g><path class="cls-21" d="M787,5345.26s0,0,0,0a1.75,1.75,0,0,0,1.4-1.35,1.58,1.58,0,0,1-1.28,1.35l0,0H787a3.55,3.55,0,0,1-.52.15,3.51,3.51,0,0,0,.49-0.15S787,5345.27,787,5345.26Z" transform="translate(-331.4 -5204.57)"/><path class="cls-21" d="M765.63,5344l0.49,0.51C765.94,5344.38,765.78,5344.21,765.63,5344Z" transform="translate(-331.4 -5204.57)"/><path class="cls-21" d="M765.06,5343.25a4.48,4.48,0,0,0,.57.79A4.48,4.48,0,0,1,765.06,5343.25Z" transform="translate(-331.4 -5204.57)"/><path class="cls-21" d="M765,5343.05c-0.12,0-.25,0-0.37-0.06,0-.84.06-1.42,0.06-1.42h0c0,0.11,0,.22,0,0.33a2,2,0,0,0,0,.34,1,1,0,0,0,0,.24,1.34,1.34,0,0,0,.09.26A3.09,3.09,0,0,0,765,5343.05Z" transform="translate(-331.4 -5204.57)"/><path class="cls-21" d="M753,5337.11c-0.11,0-.22,0-0.34,0,0-.83.06-1.41,0.06-1.41h0a2,2,0,0,0,.05.91A2.86,2.86,0,0,0,753,5337.11Z" transform="translate(-331.4 -5204.57)"/><polygon class="cls-22" points="392.1 100.42 392.09 100.43 392.09 100.43 392.1 100.42"/><path class="cls-23" d="M724.4,5302.95c0,0.05-.05,0-0.1.06-0.24.62-.78,1.91-0.81,2s0.61-1.16,1-2Z" transform="translate(-331.4 -5204.57)"/><path class="cls-24" d="M702.2,5234.29c-10.71,2.38-21.77,0-33.35-8.14-16.89-11.8-14.41,19.39-14.41,19.39l-8,2-2.18.55s-14.22-16.8,8.08-35.87,42,2.29,48.63,11.14c6.44,8.58,15.13,4.94,15.65,4.71a47.31,47.31,0,0,1-11.75,5.48C704,5233.85,703.1,5234.08,702.2,5234.29Z" transform="translate(-331.4 -5204.57)"/><path class="Graphic-Style-42" d="M672.82,5265.15a30.54,30.54,0,0,0-2.21,4.64c-0.53,1.49-.78,2.91-0.15,3.54-7.76,3.56-18.57-2.44-18.57-2.44,4.16-12.73-5.18-11.65-5.42-23.32l8-2s-2.48-31.19,14.41-19.39c11.58,8.1,22.64,10.52,33.35,8.14C702.22,5235.07,703,5267.73,672.82,5265.15Z" transform="translate(-331.4 -5204.57)"/><path class="cls-25" d="M654.34,5243.6c0,0.7,0,1.36,0,2l0.13,0S654.38,5244.8,654.34,5243.6Z" transform="translate(-331.4 -5204.57)"/><path class="cls-26" d="M654.31,5245.57l-7.84,2a17.61,17.61,0,0,0,.48,3.88l7.49-1.91S654.31,5247.93,654.31,5245.57Z" transform="translate(-331.4 -5204.57)"/><path class="cls-27" d="M654.31,5245.57l-7.84,2a17.61,17.61,0,0,0,.48,3.88l7.49-1.91S654.31,5247.93,654.31,5245.57Z" transform="translate(-331.4 -5204.57)"/><path class="cls-28" d="M702.2,5234.29c-10.71,2.38-21.77,0-33.35-8.14-14.3-10-14.71,10.82-14.51,17.45,0.27-8.41,2.46-21.87,14.51-13.45,11.52,8.05,22.52,10.49,33.17,8.18A36.63,36.63,0,0,0,702.2,5234.29Z" transform="translate(-331.4 -5204.57)"/><path class="cls-29" d="M702.2,5234.29c-10.71,2.38-21.77,0-33.35-8.14-14.3-10-14.71,10.82-14.51,17.45,0.27-8.41,2.46-21.87,14.51-13.45,11.52,8.05,22.52,10.49,33.17,8.18A36.63,36.63,0,0,0,702.2,5234.29Z" transform="translate(-331.4 -5204.57)"/><path class="cls-30" d="M680.38,5417.71s18.9,1.74,16.58,8.29c-2.38,5.08-22.35-2.73-23-3.34a6,6,0,0,1,1.08-5.74A4.17,4.17,0,0,0,680.38,5417.71Z" transform="translate(-331.4 -5204.57)"/><path class="cls-31" d="M686.79,5344.86c-0.54-4.41-.83-7.88-0.51-8.6-7.25,3.13-38.86,11-43.69,9.53l-0.08.23c0.08,0.61.14,1.31,0.17,2.1,0.35,8.24-1.8,25.14-.71,26.14,0.56,0.51,4.26,1.27,8.81,1.61a54.54,54.54,0,0,0,8.95,0,22.54,22.54,0,0,0,6.6-1.39c1.11-.62,1.17-3.6,1.78-4.6,0,0,0,0,0,0a38,38,0,0,0,4.64,1.15q0.46,0.09,1,.15a34,34,0,0,0,9.8-.3c3.49-.62,6.19-1.71,6.19-3C689.71,5365.55,687.81,5353.43,686.79,5344.86Z" transform="translate(-331.4 -5204.57)"/><path class="cls-32" d="M686.16,5338.06a10.91,10.91,0,0,1,.12-1.8c-7.25,3.13-38.86,11-43.69,9.53l-0.08.23c0.08,0.61.14,1.31,0.17,2.1,0.1,2.39-.19,8.75-0.19,8.75C645.81,5349.65,673.61,5339.75,686.16,5338.06Z" transform="translate(-331.4 -5204.57)"/><path class="cls-33" d="M683.52,5370.88l1.78,23.53-4.92,23.3a4.17,4.17,0,0,1-5.3-.79c-1.47-6.8,1.65-22.51,1.65-22.51s-3.6-16.53-3.07-22.85l0.06-.38A34,34,0,0,0,683.52,5370.88Z" transform="translate(-331.4 -5204.57)"/><path class="cls-34" d="M657.38,5423.71s18.9,1.74,16.58,8.29c-2.38,5.08-22.35-2.73-23-3.34a6,6,0,0,1,1.08-5.74l0.23-.43c1.82,2,3.49,1.58,4.31,1.17Z" transform="translate(-331.4 -5204.57)"/><path class="cls-35" d="M659.74,5376l1.76,20.54-4.35,26.78a2.61,2.61,0,0,1-.53.34c-0.82.41-2.49,0.82-4.31-1.17-0.73-11.13-.64-22.49,1.46-26.22-2-6.53-3-19.9-3-19.9l0-.5a54.54,54.54,0,0,0,9,0v0.1Z" transform="translate(-331.4 -5204.57)"/><path class="cls-25" d="M672.82,5265.15a30.54,30.54,0,0,0-2.21,4.64c-0.53,1.49-.78,2.91-0.15,3.54-7.76,3.56-18.57-2.44-18.57-2.44,4.16-12.73-5.18-11.65-5.42-23.32" transform="translate(-331.4 -5204.57)"/><path class="cls-36" d="M672.82,5265.15a59,59,0,0,1-14.23-3.22s13.7,4.58,12.43,6.79c0,0,1-2.3,1.8-3.57" transform="translate(-331.4 -5204.57)"/><path class="cls-25" d="M702.2,5234.28h0c0,0.77.76,32.77-28.45,30.93" transform="translate(-331.4 -5204.57)"/><path class="cls-25" d="M670.61,5269.79c4.58,0.21,10.25,1.26,12.89,6s4.44,15.67,7.09,19.59c3.42,5.06,9.19,5.38,11.36,7.55" transform="translate(-331.4 -5204.57)"/><polyline class="cls-25" points="352.29 95.24 354.04 94.65 355.64 101.63 356.4 104.96"/><polyline class="cls-25" points="354.18 104.63 351.39 95.55 352.29 95.25"/><path class="cls-25" d="M643.3,5315.86s0,0.16,0,.45a210.73,210.73,0,0,1-.44,21.79c-0.2,2.38-.47,4.7-0.83,6.81-0.21.42,0,.71,0.54,0.88,4.83,1.49,36.44-6.4,43.69-9.53" transform="translate(-331.4 -5204.57)"/><line class="cls-25" x1="366.56" y1="105.97" x2="355.64" y2="101.63"/><path class="cls-25" d="M689.71,5367.91c0-2.36-1.9-14.48-2.92-23.05-0.54-4.41-.83-7.88-0.51-8.6h0" transform="translate(-331.4 -5204.57)"/><path class="cls-25" d="M668.12,5369.88a38,38,0,0,0,4.64,1.15q0.47,0.09,1,.15a34,34,0,0,0,9.8-.3c3.49-.62,6.19-1.71,6.19-3" transform="translate(-331.4 -5204.57)"/><path class="cls-25" d="M642.51,5346c0.08,0.61.14,1.31,0.17,2.1,0.35,8.24-1.8,25.14-.71,26.14,0.56,0.51,4.26,1.27,8.81,1.61a54.54,54.54,0,0,0,9,0,22.54,22.54,0,0,0,6.6-1.39c1.11-.62,1.17-3.6,1.78-4.6" transform="translate(-331.4 -5204.57)"/><path class="cls-25" d="M683.5,5370.66l0,0.22,1.78,23.53-4.92,23.3a4.17,4.17,0,0,1-5.3-.79c-1.47-6.8,1.65-22.51,1.65-22.51s-3.6-16.53-3.07-22.85" transform="translate(-331.4 -5204.57)"/><path class="cls-25" d="M680.38,5417.71s18.9,1.74,16.58,8.29c-2.38,5.08-22.35-2.73-23-3.34a6,6,0,0,1,1.08-5.74" transform="translate(-331.4 -5204.57)"/><path class="cls-25" d="M657.38,5423.71s18.9,1.74,16.58,8.29c-2.38,5.08-22.35-2.73-23-3.34a6,6,0,0,1,1.08-5.74" transform="translate(-331.4 -5204.57)"/><path class="cls-25" d="M589.2,5395.23" transform="translate(-331.4 -5204.57)"/><path class="cls-25" d="M644.85,5317h0c-0.52-.21-1-0.43-1.52-0.65h0C643.81,5316.54,644.32,5316.75,644.85,5317Z" transform="translate(-331.4 -5204.57)"/><path class="cls-25" d="M646.87,5317.73c-0.56-.2-1.1-0.4-1.63-0.61h0C645.77,5317.33,646.31,5317.53,646.87,5317.73Z" transform="translate(-331.4 -5204.57)"/><path class="cls-25" d="M645.24,5317.12h0l-0.4-.16h0Z" transform="translate(-331.4 -5204.57)"/><path class="cls-25" d="M677.83,5321.35c0-.23,0-0.47,0-0.72C677.83,5320.88,677.83,5321.12,677.83,5321.35Z" transform="translate(-331.4 -5204.57)"/><path class="cls-25" d="M678.8,5311.9a4.94,4.94,0,0,1,.32-0.74h0A4.93,4.93,0,0,0,678.8,5311.9Z" transform="translate(-331.4 -5204.57)"/><path class="cls-37" d="M644.85,5317c-0.52-.21-1-0.43-1.52-0.65C643.81,5316.54,644.32,5316.75,644.85,5317Z" transform="translate(-331.4 -5204.57)"/><path class="cls-38" d="M642.76,5316l0.32,0.16h0Z" transform="translate(-331.4 -5204.57)"/><path class="cls-39" d="M644.85,5317l0.39,0.16Z" transform="translate(-331.4 -5204.57)"/><path class="cls-40" d="M643.32,5316.31h0l-0.23-.11h0l0.23,0.11h0Z" transform="translate(-331.4 -5204.57)"/><path class="cls-25" d="M680.26,5288.37a111,111,0,0,1,3.43,11.44h0" transform="translate(-331.4 -5204.57)"/><line class="cls-25" x1="463.56" y1="146.83" x2="457.01" y2="145.95"/><path class="cls-25" d="M800.32,5349.79a1.73,1.73,0,0,1-1.4,1.34,0,0,0,0,0,0,0,0,0,0,0,0,0,0l-0.49.15" transform="translate(-331.4 -5204.57)"/><path class="cls-25" d="M788.41,5350.51l6.55,0.89h0a9.65,9.65,0,0,0,3.45-.08,3.55,3.55,0,0,0,.52-0.15l0,0,0,0a1.56,1.56,0,0,0,1.27-1.34v-0.05a0.88,0.88,0,0,0,0-.27l-1.44-5.47-0.69-2.62c-0.73-2.73-6.12-5.59-12.12-6.47" transform="translate(-331.4 -5204.57)"/><path class="cls-25" d="M745,5348.13h0s-0.29,5.74.09,7.14c0.49,1.85,3.15,3.77,6.69,5.09" transform="translate(-331.4 -5204.57)"/><path class="cls-25" d="M745.11,5349.3A1.14,1.14,0,0,1,745,5349c0-.1,0-0.19,0-0.28" transform="translate(-331.4 -5204.57)"/><path class="cls-25" d="M746.17,5350.87a3,3,0,0,1-.24-0.26,4.82,4.82,0,0,1-.57-0.78" transform="translate(-331.4 -5204.57)"/><path class="cls-25" d="M780.62,5356.36a1.73,1.73,0,0,1-1.39,1.34s0,0,0,0a0,0,0,0,0,0,0c-0.15.06-.32,0.1-0.49,0.15" transform="translate(-331.4 -5204.57)"/><path class="cls-25" d="M751.72,5360.37a26.67,26.67,0,0,0,5.79,1.43l17.77,2.4c3.25,0.27,5.49-.8,5.49-1.58l-0.15-6.26" transform="translate(-331.4 -5204.57)"/><line class="cls-25" x1="423.54" y1="140.93" x2="423.4" y2="140.91"/><path class="cls-25" d="M631.93,5376.14h0s0,0,0,0-0.32.1-.49,0.15" transform="translate(-331.4 -5204.57)"/><path class="cls-25" d="M633.31,5344.79a1.74,1.74,0,0,1-1.4,1.34h0" transform="translate(-331.4 -5204.57)"/><path class="cls-25" d="M780.66,5432.55h0s-0.29,5.75.09,7.14c0.49,1.86,3.15,3.78,6.68,5.09" transform="translate(-331.4 -5204.57)"/><path class="cls-25" d="M781.86,5435.29a4.15,4.15,0,0,1-1.15-1.83,1.6,1.6,0,0,1-.05-0.29" transform="translate(-331.4 -5204.57)"/><path class="cls-25" d="M814.93,5442.14h0s0,0,0,0-0.32.1-.49,0.15" transform="translate(-331.4 -5204.57)"/><path class="cls-25" d="M816.31,5440.79a1.74,1.74,0,0,1-1.4,1.34h0" transform="translate(-331.4 -5204.57)"/><path class="cls-25" d="M787.4,5444.79a26.76,26.76,0,0,0,5.8,1.43l17.77,2.41c3.24,0.26,5.48-.81,5.48-1.59l-0.14-6.25" transform="translate(-331.4 -5204.57)"/><path class="cls-41" d="M670.61,5349.65c-1,4.1,1.39,21.23,1.39,21.23a33.29,33.29,0,0,1-3.89-1S669.55,5350.71,670.61,5349.65Z" transform="translate(-331.4 -5204.57)"/><path class="cls-42" d="M651,5375.82v0l-0.14.47A26.16,26.16,0,0,0,651,5379h0.07A25.23,25.23,0,0,1,651,5375.82Z" transform="translate(-331.4 -5204.57)"/><polygon class="cls-43" points="328.61 174.52 328.61 174.52 328.61 174.52 328.61 174.52"/><path class="cls-44" d="M651.06,5379.06c1.68,1.5,7.42,1.94,8.94-.06h-8.95v0.06Z" transform="translate(-331.4 -5204.57)"/><path class="cls-45" d="M659.74,5376v-0.08a54.47,54.47,0,0,1-8.95-.06c0,0.58.14,2.19,0.27,3.19v0.06c1.68,1.5,7.42,1.94,8.94-.06Z" transform="translate(-331.4 -5204.57)"/><path class="cls-46" d="M651.06,5379.09H651l0.07,0.06v-0.06Z" transform="translate(-331.4 -5204.57)"/><path class="cls-47" d="M651.06,5379.09H651l0.07,0.06v-0.06Z" transform="translate(-331.4 -5204.57)"/><polygon class="cls-48" points="352.54 171.76 352.54 171.76 352.54 171.76 352.54 171.76"/><polygon class="cls-49" points="342.38 171.76 342.38 171.76 342.38 171.76 342.38 171.76"/><path class="cls-50" d="M683.52,5370.71a34.05,34.05,0,0,1-9.8.38l-0.06.26a28.77,28.77,0,0,0,.11,4.65,10.25,10.25,0,0,0,10.16,0Z" transform="translate(-331.4 -5204.57)"/><path class="cls-51" d="M683.69,5300.12l0-.22-0.05,0C683.69,5300,683.69,5300.06,683.69,5300.12Z" transform="translate(-331.4 -5204.57)"/><path class="cls-52" d="M649.39,5256.72c2.43,3.65,5.1,6.21,2.5,14.17,0,0,10.81,6,18.57,2.44a2.43,2.43,0,0,1-.24-2.19C656.19,5271.95,654.44,5259.92,649.39,5256.72Z" transform="translate(-331.4 -5204.57)"/><path class="cls-25" d="M561.86,5330.29a4.15,4.15,0,0,1-1.15-1.83,1.6,1.6,0,0,1-.05-0.29" transform="translate(-331.4 -5204.57)"/><path class="cls-25" d="M561.86,5330.29a4.15,4.15,0,0,1-1.15-1.83,1.6,1.6,0,0,1-.05-0.29" transform="translate(-331.4 -5204.57)"/><path class="cls-53" d="M468.18,5520.83q2.19,0.38,4.31.82c23.08,4.83,39.37,15.16,40.62,27.26h0a14.64,14.64,0,0,1,.08,1.5c0,17.49-31.54,34.81-63.62,31.54s-23.11-12.11-39.53-17.1-37-.09-37-14.44a14.39,14.39,0,0,1,.08-1.53c0.82-7.79,7.87-14.85,19-20.17l1.6-.74,0.65-.29q1.56-.68,3.21-1.32l1.24-.47q1.88-.69,3.86-1.33c0.92-.3,1.86-0.58,2.82-0.86a119.18,119.18,0,0,1,12.76-2.9c1.37-.23,2.76-0.45,4.17-0.65l2.78-.36c4.27-.51,8.7-0.84,13.24-1q2.34-.07,4.72-0.07c4.48,0,8.87.19,13.11,0.56q2,0.17,3.88.38" transform="translate(-331.4 -5204.57)"/><path class="cls-54" d="M629,5219.62c4.71-16.12-16.32-12-6.32,1.3" transform="translate(-331.4 -5204.57)"/><path class="cls-55" d="M711.68,5220.93c12.31-10.43-9.47-19.68-4.53-2" transform="translate(-331.4 -5204.57)"/><g id="_Group_2" data-name="&lt;Group&gt;"><path class="cls-56" d="M801.87,5345c0.73,0.74-1.82,1.37-2.61,1.55a39.57,39.57,0,0,0-.69-4.18C801.56,5344.56,801.28,5344.42,801.87,5345Z" transform="translate(-331.4 -5204.57)"/><path class="cls-57" d="M799.26,5346.56a13.83,13.83,0,0,1-.2,4.92,3.62,3.62,0,0,1-.87,1.33,22.44,22.44,0,0,1,4.93-1l7.33,9c-8.45,5.21-37.11,13.36-37.11,13.36s-6.23.48-10.88-2.44a10.6,10.6,0,0,1-2.64-2.31c-4,2.36-6.87,3-10.45,2.56-6.33-.79-11.75-2.44-11.75-12,1.54-10.07,16.66-15.77,16.66-15.77,15.58,8.89,43.79-3.86,43.79-3.86s0.23,0.83.5,2.07A39.57,39.57,0,0,1,799.26,5346.56Z" transform="translate(-331.4 -5204.57)"/><path class="cls-58" d="M833.16,5279.21c12.54-17.3,29.4,12.62,4.2,11.34C837.36,5290.55,833.16,5287.36,833.16,5279.21Z" transform="translate(-331.4 -5204.57)"/><path class="cls-59" d="M838.36,5289.55s-4.2-3.19-4.2-11.34a19.06,19.06,0,0,1,1.41-1.73,17.49,17.49,0,0,0-2.41,2.73c0,8.15,4.2,11.34,4.2,11.34,6.09,0.31,9.72-1.21,11.55-3.44C846.88,5288.78,843.49,5289.81,838.36,5289.55Z" transform="translate(-331.4 -5204.57)"/><path class="cls-60" d="M747.21,5302.15c9.89,0.5,28.37-2.54,36.55-7.62l22.78-6.8s24.08-6,26.62-8.52c0,8.15,4.2,11.34,4.2,11.34l-26.91,11.86s-12.49,5.87-15.64,5.87c7.19,12.36,3.26,32,3.26,32s-28.21,12.75-43.79,3.86a17.63,17.63,0,0,1-5-4.15c-6.57-7.94-5.17-16.29,0-22.54-1.7-8.08,1.83-12.55,1.83-12.55a12.22,12.22,0,0,1-4-2.77h0Z" transform="translate(-331.4 -5204.57)"/><path class="cls-61" d="M789.11,5281c7.18-.68,10.48,11.65-2.94,11.65a6.6,6.6,0,0,1-2.67-8.61,11.14,11.14,0,0,1,3.66-2.55A9.73,9.73,0,0,1,789.11,5281Z" transform="translate(-331.4 -5204.57)"/><path class="cls-62" d="M787.17,5291.68a6.6,6.6,0,0,1-2.71-8.49c-0.32.27-.64,0.56-1,0.88a6.6,6.6,0,0,0,2.67,8.61c4.26,0,6.83-1.24,8.13-2.92C792.83,5290.91,790.52,5291.68,787.17,5291.68Z" transform="translate(-331.4 -5204.57)"/><path class="cls-63" d="M783.76,5294.53c-8.18,5.08-26.66,8.12-36.55,7.62a16.81,16.81,0,0,1-5-.85c-4.17-4.52-2.46-13.88,5.41-18.37l0,0.06c0.26,0.6,2.42,5.46,3.89,6.52,0,0,26.16-4.57,32-5.44a6.6,6.6,0,0,0,2.67,8.61A13.47,13.47,0,0,1,783.76,5294.53Z" transform="translate(-331.4 -5204.57)"/><path class="cls-64" d="M751.5,5289.51c-1.47-1.06-3.63-5.92-3.89-6.52h0c-0.37-.8-0.78-1.72-1.24-2.8-0.37-.88-0.74-1.82-1.11-2.81h0c3.81,1.91,9.56,2.3,13.78,1.83,0,0-1.73-5.6.06-8.29,0,4.22,2.24,7.77,3.1,7.52a41.4,41.4,0,0,0,17.29-10.63c0.68-.68,2.37,5.11,2.94,4.54,4.86-4.87,4.82,5.82,4.69,9.17a11.14,11.14,0,0,0-3.66,2.55C777.66,5284.94,751.5,5289.51,751.5,5289.51Z" transform="translate(-331.4 -5204.57)"/><path class="cls-65" d="M745.28,5277.37c-2.91-1.46-7.06-4.22-8.55-12.08-0.69-25.93,37.36-28.17,44.34-21.78,6.55,6,16.94,29.12,8,37.52a7.15,7.15,0,0,0-2,.49c0.13-3.35.17-14-4.69-9.17-0.57.57-2.26-5.22-2.94-4.54a41.4,41.4,0,0,1-17.29,10.63c-0.86.25-3.1-3.3-3.1-7.52-1.79,2.69-.06,8.29-0.06,8.29-4.22.47-10,.08-13.78-1.83h0Z" transform="translate(-331.4 -5204.57)"/><path class="cls-66" d="M758.46,5279.26l0.62-.05a20.05,20.05,0,0,1-.65-3.24A12.27,12.27,0,0,0,758.46,5279.26Z" transform="translate(-331.4 -5204.57)"/><path class="cls-67" d="M787.16,5281.52h0c0-.11,0-0.22,0-0.33C787.17,5281.3,787.16,5281.42,787.16,5281.52Z" transform="translate(-331.4 -5204.57)"/><path class="cls-68" d="M782.47,5272.35c-0.57.57-2.26-5.22-2.94-4.54a41.4,41.4,0,0,1-17.29,10.63c-0.86.25-3.1-3.3-3.1-7.52-0.88,1.32-.91,3.34-0.71,5.05a5,5,0,0,1,.71-2.05c0,4.22,2.24,7.77,3.1,7.52a41.4,41.4,0,0,0,17.29-10.63c0.68-.68,2.37,5.11,2.94,4.54,3.7-3.71,4.56,1.61,4.7,5.84C787.29,5277.52,787.18,5267.63,782.47,5272.35Z" transform="translate(-331.4 -5204.57)"/><path class="cls-69" d="M747.41,5278.21c0.32,0.1.64,0.21,1,.3C748,5278.42,747.73,5278.31,747.41,5278.21Z" transform="translate(-331.4 -5204.57)"/><path class="cls-70" d="M756.82,5279.36h0Z" transform="translate(-331.4 -5204.57)"/><path class="cls-71" d="M751.18,5279.06l0.61,0.09Z" transform="translate(-331.4 -5204.57)"/><path class="cls-72" d="M749.27,5278.71l0.8,0.18Z" transform="translate(-331.4 -5204.57)"/><path class="cls-73" d="M753.12,5279.28l0.39,0Z" transform="translate(-331.4 -5204.57)"/><path class="cls-74" d="M755.22,5279.38h0Z" transform="translate(-331.4 -5204.57)"/><path class="cls-75" d="M745.28,5277.37h0Z" transform="translate(-331.4 -5204.57)"/><path class="cls-76" d="M745.35,5277.4a14,14,0,0,0,1.43.61A14.11,14.11,0,0,1,745.35,5277.4Z" transform="translate(-331.4 -5204.57)"/><path class="cls-77" d="M748.38,5278.51c0.29,0.08.59,0.14,0.88,0.2C749,5278.65,748.67,5278.59,748.38,5278.51Z" transform="translate(-331.4 -5204.57)"/><path class="cls-78" d="M750.07,5278.89c0.37,0.07.74,0.12,1.12,0.17C750.81,5279,750.43,5279,750.07,5278.89Z" transform="translate(-331.4 -5204.57)"/><path class="cls-79" d="M746.78,5278c0.2,0.07.42,0.13,0.63,0.2C747.2,5278.14,747,5278.08,746.78,5278Z" transform="translate(-331.4 -5204.57)"/><path class="cls-80" d="M756.82,5279.36c-0.52,0-1.06,0-1.6,0C755.76,5279.39,756.29,5279.38,756.82,5279.36Z" transform="translate(-331.4 -5204.57)"/><path class="cls-81" d="M745.35,5277.4l0,0h0Z" transform="translate(-331.4 -5204.57)"/><path class="cls-82" d="M751.79,5279.15c0.44,0.05.89,0.09,1.33,0.13C752.68,5279.24,752.23,5279.21,751.79,5279.15Z" transform="translate(-331.4 -5204.57)"/><path class="cls-83" d="M753.52,5279.31c0.51,0,1,.05,1.51.06C754.52,5279.36,754,5279.34,753.52,5279.31Z" transform="translate(-331.4 -5204.57)"/><path class="cls-84" d="M758.46,5279.26c-0.51,0-1,.08-1.59.1,0.55,0,1.08-.05,1.59-0.1h0Z" transform="translate(-331.4 -5204.57)"/><path class="cls-85" d="M759.08,5282.21a20.15,20.15,0,0,1-.62-2.95c-0.52,0-1,.08-1.59.1h0c-0.53,0-1.06,0-1.6,0H755c-0.5,0-1,0-1.51-.06l-0.39,0c-0.45,0-.89-0.07-1.33-0.13l-0.61-.09c-0.37-.05-0.75-0.11-1.12-0.17l-0.8-.18c-0.3-.07-0.6-0.12-0.88-0.2s-0.65-.2-1-0.3-0.43-.13-0.63-0.2a14,14,0,0,1-1.43-.61l0,0h0c0.37,1,.74,1.93,1.11,2.81l0.35,0.82A29.16,29.16,0,0,0,759.08,5282.21Z" transform="translate(-331.4 -5204.57)"/><path class="cls-86" d="M759.08,5282.21a20.15,20.15,0,0,1-.62-2.95c-0.52,0-1,.08-1.59.1h0c-0.53,0-1.06,0-1.6,0H755c-0.5,0-1,0-1.51-.06l-0.39,0c-0.45,0-.89-0.07-1.33-0.13l-0.61-.09c-0.37-.05-0.75-0.11-1.12-0.17l-0.8-.18c-0.3-.07-0.6-0.12-0.88-0.2s-0.65-.2-1-0.3-0.43-.13-0.63-0.2a14,14,0,0,1-1.43-.61l0,0h0c0.37,1,.74,1.93,1.11,2.81l0.35,0.82A29.16,29.16,0,0,0,759.08,5282.21Z" transform="translate(-331.4 -5204.57)"/><path class="cls-87" d="M792.5,5272.77c-0.63-10-6.94-22.15-11.43-26.26-6.73-6.17-42.38-4.29-44.26,19.14,1.55,7.58,5.61,10.28,8.47,11.72h0c3.63,1.82,9,2.25,13.16,1.88a12.27,12.27,0,0,1,0-3.29c-0.2-1.72-.17-3.73.71-5.05,0,4.22,2.24,7.77,3.1,7.52a41.4,41.4,0,0,0,17.29-10.63c0.68-.68,2.37,5.11,2.94,4.54,4.71-4.72,4.82,5.17,4.7,8.84,0,0.11,0,.22,0,0.33a7.15,7.15,0,0,1,1.93-.48C791.27,5279,792.29,5276.08,792.5,5272.77Z" transform="translate(-331.4 -5204.57)"/></g><path class="cls-88" d="M774,5361.63c8.41,0,24.16-8.81,24.16-8.81l-0.12-12.5C798.07,5353.81,774,5361.63,774,5361.63Z" transform="translate(-331.4 -5204.57)"/><path class="cls-89" d="M799.26,5346.56a39.57,39.57,0,0,0-.69-4.18c-0.27-1.24-.5-2.07-0.5-2.07,0,13.5-24,21.31-24,21.31,8.41,0,24.16-8.81,24.16-8.81a3.62,3.62,0,0,0,.87-1.33A13.83,13.83,0,0,0,799.26,5346.56Z" transform="translate(-331.4 -5204.57)"/><path class="cls-90" d="M759.82,5369.42s-7.32-11.71,3.25-18.55c0,0-12.73,2.5-8.56,20.86" transform="translate(-331.4 -5204.57)"/><path class="cls-91" d="M798.31,5341.24c-0.14-.58-0.24-0.93-0.24-0.93s-28.21,12.75-43.79,3.86a41.54,41.54,0,0,0-6.17,3.09C753.88,5348,774,5354.09,798.31,5341.24Z" transform="translate(-331.4 -5204.57)"/><path class="cls-92" d="M798.31,5341.24c-0.14-.58-0.24-0.93-0.24-0.93s-28.21,12.75-43.79,3.86a41.54,41.54,0,0,0-6.17,3.09C753.88,5348,774,5354.09,798.31,5341.24Z" transform="translate(-331.4 -5204.57)"/><path class="cls-93" d="M745,5327c-0.52,4.2.68,8.68,4.29,13a17.62,17.62,0,0,0,5,4.15c15.58,8.89,43.79-3.86,43.79-3.86s0.24-1.19.49-3.17C765.62,5345.66,749.61,5332.92,745,5327Z" transform="translate(-331.4 -5204.57)"/><path class="cls-94" d="M794.81,5308.28c3.15,0,15.64-5.87,15.64-5.87l26.91-11.86a7.6,7.6,0,0,1-1.15-1.21c-7.79,3.34-40.46,16.7-47.11,16.7,0,0,10.34,18.14,10,25.38C799.39,5324.63,798.88,5315.28,794.81,5308.28Z" transform="translate(-331.4 -5204.57)"/><path class="cls-95" d="M794.81,5308.28c3.15,0,15.64-5.87,15.64-5.87l26.91-11.86a7.6,7.6,0,0,1-1.15-1.21c-7.79,3.34-40.46,16.7-47.11,16.7,0,0,10.34,18.14,10,25.38C799.39,5324.63,798.88,5315.28,794.81,5308.28Z" transform="translate(-331.4 -5204.57)"/><path class="cls-96" d="M783.66,5294.53c-8.18,5.08-26.66,8.12-36.66,7.62h0a11.06,11.06,0,0,0,4.09,2.77,12.33,12.33,0,0,0-2,4.92C769.51,5309.19,783.66,5294.53,783.66,5294.53Z" transform="translate(-331.4 -5204.57)"/><path class="cls-97" d="M783.66,5294.53c-8.18,5.08-26.66,8.12-36.66,7.62h0a11.06,11.06,0,0,0,4.09,2.77,12.33,12.33,0,0,0-2,4.92C769.51,5309.19,783.66,5294.53,783.66,5294.53Z" transform="translate(-331.4 -5204.57)"/><path class="cls-98" d="M808.58,5358.51c-16.87,11.2-36.47,14-44.33,14.16a21.69,21.69,0,0,0,9.1,1.5s28.66-8.15,37.11-13.36Z" transform="translate(-331.4 -5204.57)"/><path class="cls-99" d="M809.31,5358l-0.9.27,0.17,0.21Z" transform="translate(-331.4 -5204.57)"/><path class="cls-100" d="M734.5,5502.13s19.29,6.32,31.29,6.32l0.06,2.67S741.53,5506.46,734.5,5502.13Z" transform="translate(-331.4 -5204.57)"/><path class="cls-101" d="M796.69,5451.92c1.61,2.83,0,22.1,0,22.1C797.14,5473.65,801.54,5458.67,796.69,5451.92Z" transform="translate(-331.4 -5204.57)"/><path class="cls-102" d="M756.75,5465.76l4.75-8.18s-1.75,33.67-5.92,36.17Z" transform="translate(-331.4 -5204.57)"/><path class="cls-103" d="M766.38,5432.63c-0.46,0-2.76-.44-2.76-0.44s0.56,5.39-1,6.94C764.44,5438.37,766.83,5432.63,766.38,5432.63Z" transform="translate(-331.4 -5204.57)"/><path class="cls-104" d="M795.79,5437.09c-0.63,1.49-1.32,3-2,4.38a16.85,16.85,0,0,0,.84-5l-0.61-.28c-2.77,9.33-2.52,8.48-5.65,14.81,0,0-5,4.56-7.55,4.86-0.4,0,5-9.23,3.74-17.67C784.08,5447.61,778,5456,778,5456s-9.42-8.91-13.3-12.79c0.14-.34.27-0.68,0.41-1l-0.58-.31h0l-0.78,1.79s14.19,17.94,14.19,22.63a30.75,30.75,0,0,0,2.38-8.67c0-1.21.15,9.15-.44,9.74s8.31-5.66,9.13-8.52,3.56-11.61,3.56-13.55a12.2,12.2,0,0,1-.37,5.71c1.06-.62,4.77-7.69,5.52-12.23A10.69,10.69,0,0,0,795.79,5437.09Z" transform="translate(-331.4 -5204.57)"/><path class="cls-25" d="M784,5512.53a0.12,0.12,0,0,0,.11,0C783.95,5512.46,783.88,5512.45,784,5512.53Z" transform="translate(-331.4 -5204.57)"/><path class="cls-25" d="M787.89,5503.42a31.94,31.94,0,0,0,2.43,10.07,26.22,26.22,0,0,1-5.78-1.47,1.08,1.08,0,0,1-.41.52c1,0.42,6.19,2.93,6.19,2.93l4.59-2.87-7.15-11.27S787.77,5502.13,787.89,5503.42Z" transform="translate(-331.4 -5204.57)"/><path class="cls-105" d="M787.89,5503.42c-0.12-1.29-.13-2.1-0.13-2.1h0s-2.06,8.48-3.22,10.7a26.22,26.22,0,0,0,5.78,1.47A31.94,31.94,0,0,1,787.89,5503.42Z" transform="translate(-331.4 -5204.57)"/><path class="cls-10" d="M728,5507.9c6,4.47,34.54,11.29,39.91,11.29a18.45,18.45,0,0,1-1.57-4.68C759.94,5520.85,728,5507.9,728,5507.9Z" transform="translate(-331.4 -5204.57)"/><path class="cls-106" d="M728,5507.9c6,4.47,34.54,11.29,39.91,11.29a18.45,18.45,0,0,1-1.57-4.68C759.94,5520.85,728,5507.9,728,5507.9Z" transform="translate(-331.4 -5204.57)"/><path class="cls-107" d="M767.52,5518.43a23.05,23.05,0,0,1-1.73-8.93,18,18,0,0,1,.38-4l0-.4s-4.07,11.21-7.36,12.67a63.71,63.71,0,0,0,8.83,1.43Z" transform="translate(-331.4 -5204.57)"/><path class="cls-25" d="M795.58,5492.29l3.37-2.6-4.24-.69c0.22,0.7.58,2,.87,3.29h0Z" transform="translate(-331.4 -5204.57)"/><path class="cls-108" d="M755.58,5493.75L756,5494s4,7.49,39.61-1.55c-0.29-1.34-.87-3.33-1.08-4l-1.16.87C787.64,5493.51,759.58,5497.75,755.58,5493.75Z" transform="translate(-331.4 -5204.57)"/><path class="cls-25" d="M615.5,5353.95" transform="translate(-331.4 -5204.57)"/><use width="35.82" height="23.05" transform="translate(223.51 155.63)" xlink:href="#New_Symbol_10"/><use width="35.82" height="23.05" transform="translate(223.51 145.63)" xlink:href="#New_Symbol_10"/><use width="35.82" height="23.05" transform="translate(223.51 135.63)" xlink:href="#New_Symbol_10"/><use width="35.82" height="23.05" transform="translate(223.51 125.63)" xlink:href="#New_Symbol_10"/><use width="35.82" height="23.05" transform="translate(223.51 115.63)" xlink:href="#New_Symbol_10"/><use width="35.82" height="23.05" transform="translate(223.51 105.63)" xlink:href="#New_Symbol_10"/><use width="35.82" height="23.05" transform="translate(223.51 95.63)" xlink:href="#New_Symbol_10"/><use width="35.82" height="23.05" transform="translate(223.51 85.63)" xlink:href="#New_Symbol_10"/><use width="35.82" height="23.05" transform="translate(223.51 75.63)" xlink:href="#New_Symbol_10"/><use width="35.82" height="23.05" transform="translate(223.51 65.63)" xlink:href="#New_Symbol_10"/><use width="35.82" height="23.05" transform="translate(223.51 55.63)" xlink:href="#New_Symbol_10"/><use width="35.82" height="23.05" transform="translate(223.51 55.63)" xlink:href="#New_Symbol_10"/><use width="35.82" height="23.05" transform="translate(264.15 193.91)" xlink:href="#New_Symbol_10"/><use width="35.82" height="23.05" transform="translate(264.15 183.91)" xlink:href="#New_Symbol_10"/><use width="35.82" height="23.05" transform="translate(264.15 173.91)" xlink:href="#New_Symbol_10"/><use width="35.82" height="23.05" transform="translate(264.15 162.91)" xlink:href="#New_Symbol_10"/><use width="35.82" height="23.05" transform="translate(264.15 152.91)" xlink:href="#New_Symbol_10"/><use width="35.82" height="23.05" transform="translate(264.15 142.91)" xlink:href="#New_Symbol_10"/><use width="35.82" height="23.05" transform="translate(158.21 212.93)" xlink:href="#New_Symbol_10"/><use width="35.82" height="23.05" transform="translate(158.21 202.93)" xlink:href="#New_Symbol_10"/><use width="35.82" height="23.05" transform="translate(158.21 192.93)" xlink:href="#New_Symbol_10"/><use width="35.82" height="23.05" transform="translate(158.21 182.93)" xlink:href="#New_Symbol_10"/><use width="35.82" height="23.05" transform="translate(240.42 233.64)" xlink:href="#New_Symbol_10"/><use width="35.82" height="23.05" transform="translate(240.42 223.64)" xlink:href="#New_Symbol_10"/><use width="35.82" height="23.05" transform="translate(199.66 245.28)" xlink:href="#New_Symbol_10"/><use width="35.82" height="23.05" transform="translate(199.66 235.28)" xlink:href="#New_Symbol_10"/><use width="35.82" height="23.05" transform="translate(199.66 225.28)" xlink:href="#New_Symbol_10"/><use width="35.82" height="23.05" transform="translate(199.66 215.28)" xlink:href="#New_Symbol_10"/><use width="35.82" height="23.05" transform="translate(199.66 235.28)" xlink:href="#New_Symbol_10"/><use width="35.82" height="23.05" transform="translate(199.66 225.28)" xlink:href="#New_Symbol_10"/><use width="35.82" height="23.05" transform="translate(199.66 215.28)" xlink:href="#New_Symbol_10"/><use width="35.82" height="23.05" transform="translate(199.66 205.28)" xlink:href="#New_Symbol_10"/><use width="35.82" height="23.05" transform="translate(199.66 225.28)" xlink:href="#New_Symbol_10"/><use width="35.82" height="23.05" transform="translate(199.66 215.28)" xlink:href="#New_Symbol_10"/><use width="35.82" height="23.05" transform="translate(199.66 205.28)" xlink:href="#New_Symbol_10"/><use width="35.82" height="23.05" transform="translate(199.66 195.28)" xlink:href="#New_Symbol_10"/><use width="35.82" height="23.05" transform="translate(199.66 215.28)" xlink:href="#New_Symbol_10"/><use width="35.82" height="23.05" transform="translate(199.66 205.28)" xlink:href="#New_Symbol_10"/><use width="35.82" height="23.05" transform="translate(199.66 195.28)" xlink:href="#New_Symbol_10"/><use width="35.82" height="23.05" transform="translate(199.66 185.28)" xlink:href="#New_Symbol_10"/><path class="cls-25" d="M548,5358.35" transform="translate(-331.4 -5204.57)"/><path class="cls-25" d="M528.64,5342.8a1.74,1.74,0,0,1-1.4,1.34s0,0,0,0,0,0,0,0a5.44,5.44,0,0,1-1,.25" transform="translate(-331.4 -5204.57)"/><path class="cls-25" d="M528.28,5358.09a1,1,0,0,0,.51-0.69s-0.13-6-.13-6.42a1.11,1.11,0,0,0,0-.17,2.12,2.12,0,0,0-.26-0.55,3.43,3.43,0,0,0-.28-0.4" transform="translate(-331.4 -5204.57)"/><path class="cls-25" d="M528.38,5358.26a1.4,1.4,0,0,0-.1-0.16" transform="translate(-331.4 -5204.57)"/><path class="cls-25" d="M528.28,5358.1h0" transform="translate(-331.4 -5204.57)"/><path class="cls-25" d="M528.1,5357.86s0.08,0.09.18,0.23" transform="translate(-331.4 -5204.57)"/><path class="cls-25" d="M516.28,5350.09a1,1,0,0,0,.51-0.69s-0.13-6-.13-6.42a1.11,1.11,0,0,0,0-.17,2.12,2.12,0,0,0-.26-0.55,3.43,3.43,0,0,0-.28-0.4" transform="translate(-331.4 -5204.57)"/><path class="cls-25" d="M516.38,5350.26a1.4,1.4,0,0,0-.1-0.16" transform="translate(-331.4 -5204.57)"/><path class="cls-25" d="M516.28,5350.1h0" transform="translate(-331.4 -5204.57)"/><path class="cls-25" d="M516.1,5349.86s0.08,0.09.18,0.23" transform="translate(-331.4 -5204.57)"/><use width="35.82" height="23.05" transform="translate(182.79 155.59)" xlink:href="#New_Symbol_10"/><use width="35.82" height="23.05" transform="translate(182.79 145.59)" xlink:href="#New_Symbol_10"/><use width="35.82" height="23.05" transform="translate(182.79 135.59)" xlink:href="#New_Symbol_10"/><path class="cls-109" d="M749.37,5317.48l-0.29.35a18.21,18.21,0,0,0,16,.84c9.14,3.29,13.2-.46,13.91-1-3.12,2-13.36,0-13.93-.44C764,5317.52,752.95,5319.67,749.37,5317.48Z" transform="translate(-331.4 -5204.57)"/><path class="cls-110" d="M809,5346.7a15.66,15.66,0,0,0-4.51,2.57c2.07,2.7,7.89,10.61,8.47,14.7,3.07,1.52,7.85,1.5,7.85-.52C820.83,5360.45,809,5346.7,809,5346.7Z" transform="translate(-331.4 -5204.57)"/><path class="cls-111" d="M804.39,5349.4l8.16,14.35L813,5364c-0.58-4.09-6.4-12-8.47-14.7Z" transform="translate(-331.4 -5204.57)"/><path class="cls-112" d="M804.52,5349.27l-0.12.12a3.48,3.48,0,0,0-1.27,2.42l7.33,9a3.56,3.56,0,0,0,2.11,2.93L813,5364C812.41,5359.88,806.58,5352,804.52,5349.27Z" transform="translate(-331.4 -5204.57)"/></svg>