<svg id="Layer_2" data-name="Layer 2" xmlns="http://www.w3.org/2000/svg" xmlns:xlink="http://www.w3.org/1999/xlink" viewBox="0 0 461 272"><defs><style>.cls-1{fill:url(#linear-gradient);}.cls-2{fill:url(#radial-gradient);}</style><linearGradient id="linear-gradient" x1="8.64" y1="135.85" x2="460.75" y2="135.85" gradientUnits="userSpaceOnUse"><stop offset="0" stop-color="#fff"/><stop offset="1" stop-color="#2a21cf" stop-opacity="0"/></linearGradient><radialGradient id="radial-gradient" cx="1107.41" cy="6040.17" r="33.65" gradientUnits="userSpaceOnUse"><stop offset="0" stop-color="#ffe70d"/><stop offset="1" stop-color="#ffed4b"/></radialGradient></defs><title>heart-flying</title><polyline class="cls-1" points="9 204 436 0 461 67 33 272"/><path class="cls-2" d="M1124,6012a13,13,0,0,0-12,4l-5,5-5-7a19,19,0,0,0-12-8,13,13,0,0,0-12,4c-6,6-6,18,0,27l29,38,28-28c6-6,6-18,0-27a19,19,0,0,0-12-8" transform="translate(-1074 -5803)"/></svg>