<svg id="Layer_2" data-name="Layer 2" xmlns="http://www.w3.org/2000/svg" xmlns:xlink="http://www.w3.org/1999/xlink" viewBox="0 0 1019 139"><defs><style>.cls-1{fill:url(#linear-gradient);}.cls-2{fill:url(#radial-gradient);}</style><linearGradient id="linear-gradient" x1="1425.67" y1="4145.74" x2="426.16" y2="4145.74" gradientUnits="userSpaceOnUse"><stop offset="0" stop-color="#fff" stop-opacity="0.5"/><stop offset="0.49" stop-color="#c970e6" stop-opacity="0.74"/><stop offset="1" stop-color="#fff"/></linearGradient><radialGradient id="radial-gradient" cx="920" cy="4108" r="858.05" gradientUnits="userSpaceOnUse"><stop offset="0" stop-color="#c16de5" stop-opacity="0.74"/><stop offset="1" stop-color="#fff" stop-opacity="0.7"/></radialGradient></defs><title>mast-bottom</title><path class="cls-1" d="M929,4141c-240-122-268,88-509-30v70c241,118,269-142,509-20s288-92,510,30v-80c-222-122-269,152-510,30h0Z" transform="translate(-420 -4074)"/><path class="cls-2" d="M1329,4074c-53,0-96,24-138,47s-87,48-143,48c-36,0-73-10-114-30h-3c-53-27-101-40-145-40s-79,12-114,24-70,23-112,23-88-12-138-37h-2v6c241,118,269-92,509,30h0c241,122,288-152,510-30v-6C1400,4084,1364,4074,1329,4074Z" transform="translate(-420 -4074)"/></svg>