<svg id="Layer_1" data-name="Layer 1" xmlns="http://www.w3.org/2000/svg" xmlns:xlink="http://www.w3.org/1999/xlink" viewBox="0 0 565.7 658.25"><defs><style>.cls-1{fill:url(#linear-gradient);}.cls-2{fill:#b3c0ff;}.cls-3{fill:#6b6b6b;}.cls-4{fill:url(#linear-gradient-2);}.cls-5{fill:url(#New_Gradient_Swatch_copy_7);}.cls-6{fill:url(#linear-gradient-3);}.cls-7{fill:#dcf0fe;opacity:0.1;}.cls-8{fill:none;stroke:#fff;stroke-miterlimit:10;stroke-width:0.25px;}.cls-9{fill:url(#radial-gradient);}.cls-10{fill:#ff00e1;}.cls-11{fill:#ffb0f6;}.cls-12{fill:#cf00b7;}.cls-13{fill:url(#radial-gradient-2);}.cls-14{fill:#e600ca;}.cls-15{fill:#e69edd;}.cls-16{fill:#b3009e;}</style><linearGradient id="linear-gradient" x1="373.56" y1="1337.76" x2="955.26" y2="330.24" gradientUnits="userSpaceOnUse"><stop offset="0" stop-color="#99a9ff"/><stop offset="1" stop-color="#fff" stop-opacity="0"/></linearGradient><linearGradient id="linear-gradient-2" x1="919.88" y1="1222.81" x2="629.83" y2="695.22" gradientTransform="matrix(-1, 0, 0, 1, 927.59, -532.29)" gradientUnits="userSpaceOnUse"><stop offset="0" stop-color="#002aff"/><stop offset="1" stop-color="#e6fbff"/></linearGradient><linearGradient id="New_Gradient_Swatch_copy_7" x1="646.55" y1="725.84" x2="356.52" y2="1253.84" gradientTransform="matrix(-1, 0, 0, 1, 927.59, -532.29)" gradientUnits="userSpaceOnUse"><stop offset="0" stop-color="#e6fbff"/><stop offset="1" stop-color="#002aff"/></linearGradient><linearGradient id="linear-gradient-3" x1="417.45" y1="-47.5" x2="-926.65" y2="2399.46" gradientTransform="matrix(1, 0, 0, 1, 0, 0)" xlink:href="#New_Gradient_Swatch_copy_7"/><radialGradient id="radial-gradient" cx="1609.46" cy="936.43" r="136.74" gradientTransform="matrix(1, -0.02, 0, 1, -1209.88, -509.5)" gradientUnits="userSpaceOnUse"><stop offset="0" stop-color="#ff00e1" stop-opacity="0.8"/><stop offset="1" stop-color="#ff00e1" stop-opacity="0"/></radialGradient><radialGradient id="radial-gradient-2" cx="1242.01" cy="930.02" r="136.74" gradientTransform="matrix(-1, -0.02, 0, 1, 1401.59, -509.5)" gradientUnits="userSpaceOnUse"><stop offset="0" stop-color="#e600ca" stop-opacity="0.8"/><stop offset="1" stop-color="#e600ca" stop-opacity="0"/></radialGradient></defs><title>cube</title><path class="cls-1" d="M926.27,1023.77l1-319.64L648.57,542.84v1L367.63,703.55l1.14,321.22,2.43-1.38L648,1184.5l278.78-160.44-.67-.39Z" transform="translate(-365.72 -532.29)"/><path class="cls-2" d="M648.57,543.84,773.63,616l41.69,24.07,83.37,48.14,22.73,13.12v320.1L648.57,1179,375.72,1021.47V701.37l22.72-13.12,41.69-24.07,41.69-24.07L523.5,616,565.2,592l41.69-24.07,41.68-24.07m0-11.55-5,2.89-41.68,24.07L560.2,583.32l-41.7,24.06-41.68,24.07-41.69,24.07-41.69,24.07-22.72,13.12-5,2.88v331.66l5,2.88,272.85,157.53,5,2.89,5-2.89,272.85-157.53,5-2.88V695.59l-5-2.89-22.73-13.11-83.37-48.14-41.69-24.07-125.06-72.2-5-2.89Z" transform="translate(-365.72 -532.29)"/><polygon class="cls-3" points="55.13 466.41 55.13 201.26 73.95 190.4 108.47 170.46 143 150.53 177.53 130.59 212.07 110.66 246.6 90.72 281.13 70.78 384.71 130.59 419.24 150.53 488.3 190.4 507.13 201.26 507.13 466.41 281.13 596.88 55.13 466.41"/><polygon class="cls-4" points="54.94 200.76 281.18 331.38 281.18 596.91 54.94 466.3 54.94 200.76"/><polygon class="cls-5" points="506.93 200.76 280.69 331.38 280.69 596.91 506.93 466.3 506.93 200.76"/><polygon id="roof" class="cls-6" points="280.69 331.27 506.71 201.05 281.18 70.78 281.18 70.61 280.93 70.7 280.69 70.61 280.69 70.78 55.14 201.05 281.18 331.27 281.18 331.54 281.42 331.4 280.69 331.54 280.69 331.27"/><polygon id="roof-2" data-name="roof" class="cls-6" points="280.69 331.27 506.71 201.05 281.18 70.78 281.18 70.61 280.93 70.7 280.69 70.61 280.69 70.78 55.14 201.05 281.18 331.27 281.18 331.54 281.42 331.4 280.69 331.54 280.69 331.27"/><polygon id="roof-3" data-name="roof" class="cls-7" points="280.69 596.76 506.71 466.54 281.18 336.09 55.14 466.54 281.18 596.76 281.18 597.03 281.42 596.88 280.69 597.03 280.69 596.76"/><polyline class="cls-8" points="281.12 596.74 281.12 331.74 54.39 200.84"/><line class="cls-8" x1="281.12" y1="367.74" x2="507.85" y2="236.83"/><line class="cls-8" x1="281.12" y1="407.74" x2="507.85" y2="276.83"/><line class="cls-8" x1="281.12" y1="447.74" x2="507.85" y2="316.83"/><line class="cls-8" x1="281.12" y1="487.74" x2="507.85" y2="356.83"/><line class="cls-8" x1="281.12" y1="527.74" x2="507.85" y2="396.83"/><line class="cls-8" x1="281.12" y1="567.74" x2="507.85" y2="436.83"/><line class="cls-8" x1="281.12" y1="367.74" x2="54.39" y2="236.83"/><line class="cls-8" x1="281.12" y1="407.74" x2="54.39" y2="276.83"/><line class="cls-8" x1="275.23" y1="444.33" x2="54.39" y2="316.83"/><line class="cls-8" x1="281.12" y1="447.74" x2="269.33" y2="440.93"/><line class="cls-8" x1="281.12" y1="487.74" x2="54.39" y2="356.83"/><line class="cls-8" x1="281.12" y1="527.74" x2="54.39" y2="396.83"/><line class="cls-8" x1="54.39" y1="436.83" x2="281.12" y2="567.74"/><line class="cls-8" x1="473.21" y1="220.83" x2="246.48" y2="89.93"/><line class="cls-8" x1="438.57" y1="240.83" x2="211.84" y2="109.93"/><line class="cls-8" x1="177.2" y1="129.93" x2="403.93" y2="260.83"/><line class="cls-8" x1="369.29" y1="280.83" x2="142.56" y2="149.93"/><line class="cls-8" x1="107.92" y1="169.93" x2="334.65" y2="300.83"/><line class="cls-8" x1="300.01" y1="320.83" x2="73.28" y2="189.93"/><line class="cls-8" x1="89.03" y1="220.83" x2="315.77" y2="89.93"/><line class="cls-8" x1="123.68" y1="240.83" x2="350.41" y2="109.93"/><line class="cls-8" x1="158.32" y1="260.83" x2="385.05" y2="129.93"/><line class="cls-8" x1="192.96" y1="280.83" x2="419.69" y2="149.93"/><line class="cls-8" x1="227.6" y1="300.83" x2="454.33" y2="169.93"/><polyline class="cls-8" points="281.13 331.74 300.01 320.83 334.65 300.83 369.29 280.83 403.93 260.83 438.58 240.84 473.22 220.84 507.86 200.84"/><polyline class="cls-8" points="281.13 331.74 262.25 320.83 262.24 320.83 227.6 300.83 192.96 280.83 158.32 260.83 123.68 240.84 89.04 220.84 54.4 200.84"/><line class="cls-8" x1="262.24" y1="320.83" x2="488.97" y2="189.93"/><polygon class="cls-9" points="341.03 334.22 341.03 533.1 458.12 463.45 458.12 264.57 341.03 334.22"/><polygon class="cls-10" points="349.56 343.43 349.56 513.74 449.59 454.24 449.59 283.93 349.56 343.43"/><polygon class="cls-11" points="357.7 356.01 357.7 366.3 441.45 316.48 441.45 306.19 357.7 356.01"/><polygon class="cls-11" points="357.7 376.19 357.7 386.48 441.45 336.67 441.45 326.38 357.7 376.19"/><polygon class="cls-11" points="357.7 396.38 357.7 406.67 386.76 389.38 386.76 379.09 357.7 396.38"/><path class="cls-12" d="M740,1031.34l75.33-44.81V879.3C774.74,903.43,740,995.73,740,1031.34Z" transform="translate(-365.72 -532.29)"/><polygon class="cls-13" points="218.12 334.22 218.12 533.1 101.03 463.45 101.03 264.57 218.12 334.22"/><polygon class="cls-14" points="209.59 343.43 209.59 513.74 109.56 454.24 109.56 283.93 209.59 343.43"/><polygon class="cls-15" points="201.45 356.01 201.45 366.3 117.7 316.48 117.7 306.19 201.45 356.01"/><polygon class="cls-15" points="201.45 376.19 201.45 386.48 117.7 336.67 117.7 326.38 201.45 376.19"/><polygon class="cls-15" points="201.45 396.38 201.45 406.67 172.39 389.38 172.39 379.09 201.45 396.38"/><path class="cls-16" d="M550.61,1031.34l-75.33-44.81V879.3C515.85,903.43,550.61,995.73,550.61,1031.34Z" transform="translate(-365.72 -532.29)"/><line class="cls-8" x1="282.85" y1="190.03" x2="294.64" y2="183.22"/></svg>