<svg xmlns="http://www.w3.org/2000/svg" xmlns:xlink="http://www.w3.org/1999/xlink" viewBox="0 0 10399.9 4027.19"><defs><style>.cls-1{fill:url(#linear-gradient);}.cls-2{fill:url(#linear-gradient-2);}.cls-3{fill:url(#linear-gradient-3);}.cls-4{fill:url(#linear-gradient-4);}.cls-5{fill:url(#linear-gradient-5);}.cls-6{fill:url(#linear-gradient-6);}.cls-7{fill:url(#linear-gradient-7);}.cls-8{fill:url(#linear-gradient-8);}.cls-9{fill:url(#linear-gradient-9);}.cls-10{fill:url(#linear-gradient-10);}.cls-11{fill:url(#linear-gradient-11);}.cls-12{fill:url(#linear-gradient-12);}.cls-13{fill:url(#linear-gradient-13);}.cls-14{fill:url(#linear-gradient-14);}.cls-15{fill:url(#linear-gradient-15);}.cls-16{fill:#5200ff;}.cls-16,.cls-26,.cls-27,.cls-28{opacity:0.1;}.cls-17{fill:#cce2fd;}.cls-18{fill:url(#New_Gradient_Swatch_copy_7);}.cls-19{fill:url(#linear-gradient-16);}.cls-20{fill:url(#New_Gradient_Swatch_copy_7-2);}.cls-21{fill:url(#linear-gradient-17);}.cls-22{fill:url(#New_Gradient_Swatch_copy_7-3);}.cls-23{fill:url(#linear-gradient-18);}.cls-24{fill:url(#linear-gradient-19);}.cls-25{fill:url(#linear-gradient-20);}.cls-26{fill:url(#linear-gradient-21);}.cls-27{fill:url(#linear-gradient-22);}.cls-28{fill:url(#linear-gradient-23);}.cls-29{fill:url(#linear-gradient-24);}.cls-30{fill:url(#linear-gradient-25);}.cls-31{fill:url(#New_Gradient_Swatch_copy_7-4);}.left-dark{opacity:0.02;}.cls-32{fill:url(#linear-gradient-26);}.cls-33{fill:url(#linear-gradient-27);}.cls-34{fill:url(#New_Gradient_Swatch_copy_7-5);}.cls-35{fill:url(#linear-gradient-28);}.cls-36{fill:url(#linear-gradient-29);}.cls-37{fill:url(#linear-gradient-30);}.cls-38{fill:url(#linear-gradient-31);}.cls-39{fill:url(#New_Gradient_Swatch_copy_7-6);}.cls-40{fill:url(#New_Gradient_Swatch_copy_7-7);}.cls-41{fill:url(#linear-gradient-32);}.cls-42{fill:url(#linear-gradient-33);}.cls-43{fill:url(#linear-gradient-34);}.cls-44{fill:url(#linear-gradient-35);}.cls-45{fill:url(#linear-gradient-36);}.cls-46{fill:url(#linear-gradient-37);}.cls-47{fill:url(#linear-gradient-38);}.cls-48{fill:url(#linear-gradient-39);}.cls-49,.cls-50,.cls-52,.cls-55{fill-rule:evenodd;}.cls-49{fill:url(#linear-gradient-43);}.cls-50{fill:url(#linear-gradient-44);}.cls-51{fill:url(#linear-gradient-45);}.cls-52{fill:url(#linear-gradient-46);}.cls-53{fill:url(#linear-gradient-47);}.cls-54{opacity:0.03;}.cls-55{fill:url(#linear-gradient-48);}.cls-56{fill:url(#linear-gradient-49);}.cls-57{fill:url(#linear-gradient-50);}.cls-58{fill:url(#linear-gradient-51);}.cls-59{fill:#ff40e8;}.cls-60{fill:url(#linear-gradient-52);}.cls-61{fill:url(#linear-gradient-53);}.cls-62{fill:url(#linear-gradient-54);}.cls-63{fill:url(#linear-gradient-55);}.cls-64{fill:url(#linear-gradient-56);}.cls-65{fill:url(#linear-gradient-57);}.cls-66{fill:url(#linear-gradient-58);}.cls-67{fill:url(#linear-gradient-59);}.cls-68{fill:url(#linear-gradient-60);}.cls-69{fill:url(#linear-gradient-61);}.cls-70{fill:url(#linear-gradient-62);}.cls-71{fill:url(#linear-gradient-63);}.cls-72{fill:url(#linear-gradient-64);}.cls-73{fill:url(#linear-gradient-65);}.cls-74{fill:url(#linear-gradient-66);}.cls-75{fill:url(#linear-gradient-67);}</style><linearGradient id="linear-gradient" y1="411.4" x2="701.08" y2="411.4" gradientUnits="userSpaceOnUse"><stop offset="0" stop-color="#e6fbff"/><stop offset="1" stop-color="#e6fbff" stop-opacity="0"/></linearGradient><linearGradient id="linear-gradient-2" x1="350.54" y1="604.21" x2="350.54" y2="16.08" xlink:href="#linear-gradient"/><linearGradient id="linear-gradient-3" x1="516.44" y1="464.55" x2="564.3" y2="547.45" gradientUnits="userSpaceOnUse"><stop offset="0" stop-color="#8bbdc7" stop-opacity="0.1"/><stop offset="1" stop-opacity="0"/></linearGradient><linearGradient id="linear-gradient-4" x1="355.34" y1="731.35" x2="-512.37" y2="2311.01" gradientUnits="userSpaceOnUse"><stop offset="0" stop-color="#3218bd"/><stop offset="1" stop-color="#131888"/></linearGradient><linearGradient id="linear-gradient-5" x1="390.7" y1="464.2" x2="1450.23" y2="2213.68" gradientUnits="userSpaceOnUse"><stop offset="0" stop-color="#131888"/><stop offset="1" stop-color="#3218bd"/></linearGradient><linearGradient id="linear-gradient-6" x1="17558.29" y1="539.51" x2="17024.86" y2="-314.16" gradientTransform="matrix(-1, 0, 0, 1, 17847.59, 0)" xlink:href="#linear-gradient-4"/><linearGradient id="linear-gradient-7" x1="8179.03" y1="-247.44" x2="6100.34" y2="3536.84" xlink:href="#linear-gradient-4"/><linearGradient id="linear-gradient-8" x1="-740.67" y1="-10170.15" x2="-1048.01" y2="-10729.22" gradientTransform="matrix(0.5, -0.87, -0.87, -0.5, -759.35, -2916.8)" gradientUnits="userSpaceOnUse"><stop offset="0" stop-color="#02020d"/><stop offset="1" stop-color="#131888" stop-opacity="0"/></linearGradient><linearGradient id="linear-gradient-9" x1="1223.42" y1="-9529.32" x2="717.89" y2="-10448.88" xlink:href="#linear-gradient-8"/><linearGradient id="linear-gradient-10" x1="-848.82" y1="-8987.78" x2="-1159.41" y2="-9552.74" xlink:href="#linear-gradient-8"/><linearGradient id="linear-gradient-11" x1="-1180.49" y1="-8265.55" x2="-1376.33" y2="-8621.79" gradientTransform="matrix(0.5, -0.87, -0.87, -0.5, -759.35, -2916.8)" gradientUnits="userSpaceOnUse"><stop offset="0" stop-color="#131888"/><stop offset="1" stop-color="#131888" stop-opacity="0"/></linearGradient><linearGradient id="linear-gradient-12" x1="555.12" y1="-9020" x2="248.14" y2="-9578.4" xlink:href="#linear-gradient-8"/><linearGradient id="linear-gradient-13" x1="6089.79" y1="1808.62" x2="4917.81" y2="-221.31" xlink:href="#linear-gradient-4"/><linearGradient id="linear-gradient-14" x1="4137.05" y1="5793.55" x2="5436.75" y2="3542.41" gradientTransform="translate(13702.41 4522.09) rotate(180)" xlink:href="#linear-gradient-5"/><linearGradient id="linear-gradient-15" x1="6942.25" y1="829.23" x2="8020.75" y2="-1038.79" gradientUnits="userSpaceOnUse"><stop offset="0" stop-color="#3218bd"/><stop offset="1" stop-color="#131888" stop-opacity="0"/></linearGradient><linearGradient id="New_Gradient_Swatch_copy_7" x1="7595.77" y1="242.42" x2="6564.39" y2="2120.07" gradientUnits="userSpaceOnUse"><stop offset="0" stop-color="#e6fbff"/><stop offset="1" stop-color="#002aff"/></linearGradient><linearGradient id="linear-gradient-16" x1="8023.86" y1="2267.61" x2="6585.1" y2="-224.39" gradientUnits="userSpaceOnUse"><stop offset="0" stop-color="#002aff"/><stop offset="1" stop-color="#e6fbff"/></linearGradient><linearGradient id="New_Gradient_Swatch_copy_7-2" x1="7364.96" y1="415.31" x2="6403.65" y2="2165.38" xlink:href="#New_Gradient_Swatch_copy_7"/><linearGradient id="linear-gradient-17" x1="8026.93" y1="2041" x2="6988.72" y2="242.77" xlink:href="#linear-gradient-16"/><linearGradient id="New_Gradient_Swatch_copy_7-3" x1="7527.12" y1="375.14" x2="6539.3" y2="2173.48" xlink:href="#New_Gradient_Swatch_copy_7"/><linearGradient id="linear-gradient-18" x1="6881.92" y1="524.51" x2="7582.43" y2="524.51" xlink:href="#linear-gradient"/><linearGradient id="linear-gradient-19" x1="7232.17" y1="717.15" x2="7232.17" y2="129.52" gradientUnits="userSpaceOnUse"><stop offset="0" stop-color="#e6fbff" stop-opacity="0.5"/><stop offset="1" stop-color="#e6fbff" stop-opacity="0"/></linearGradient><linearGradient id="linear-gradient-20" x1="7397.93" y1="577.6" x2="7445.76" y2="660.43" xlink:href="#linear-gradient-3"/><linearGradient id="linear-gradient-21" x1="7091.18" y1="869.03" x2="7237.24" y2="1122.02" gradientUnits="userSpaceOnUse"><stop offset="0"/><stop offset="1" stop-opacity="0"/></linearGradient><linearGradient id="linear-gradient-22" x1="7070.72" y1="1186.6" x2="7216.78" y2="1439.59" xlink:href="#linear-gradient-21"/><linearGradient id="linear-gradient-23" x1="7569.18" y1="869.03" x2="7715.24" y2="1122.02" gradientUnits="userSpaceOnUse"><stop offset="0"/><stop offset="0.97" stop-opacity="0"/><stop offset="1" stop-opacity="0.1"/></linearGradient><linearGradient id="linear-gradient-24" x1="7423.67" y1="266.49" x2="-1717.86" y2="16908.77" xlink:href="#New_Gradient_Swatch_copy_7"/><linearGradient id="linear-gradient-25" x1="7378.51" y1="3236.48" x2="6168.25" y2="1035.03" xlink:href="#linear-gradient-16"/><linearGradient id="New_Gradient_Swatch_copy_7-4" x1="6719.84" y1="1162.98" x2="5509.9" y2="3365.7" xlink:href="#New_Gradient_Swatch_copy_7"/><linearGradient id="linear-gradient-26" x1="5632.85" y1="3390.14" x2="6955.92" y2="1098.52" xlink:href="#linear-gradient-16"/><linearGradient id="linear-gradient-27" x1="7336.96" y1="3410.03" x2="5824.94" y2="791.12" xlink:href="#linear-gradient-16"/><linearGradient id="New_Gradient_Swatch_copy_7-5" x1="6973.99" y1="1258.13" x2="5906.37" y2="3201.75" xlink:href="#New_Gradient_Swatch_copy_7"/><linearGradient id="linear-gradient-28" x1="7489.77" y1="3611.6" x2="5962.35" y2="966.03" xlink:href="#linear-gradient-16"/><linearGradient id="linear-gradient-29" x1="5553.88" y1="3530.88" x2="6824.55" y2="1330.02" xlink:href="#linear-gradient-16"/><linearGradient id="linear-gradient-30" x1="6593.48" y1="1220.53" x2="5555.95" y2="3109.37" xlink:href="#New_Gradient_Swatch_copy_7"/><linearGradient id="linear-gradient-31" x1="6455.48" y1="1563.9" x2="6116.93" y2="2180.24" xlink:href="#linear-gradient-16"/><linearGradient id="New_Gradient_Swatch_copy_7-6" x1="6099.69" y1="2086.02" x2="6526.79" y2="1346.27" xlink:href="#New_Gradient_Swatch_copy_7"/><linearGradient id="New_Gradient_Swatch_copy_7-7" x1="5779.86" y1="975.7" x2="6361.51" y2="1983.14" xlink:href="#New_Gradient_Swatch_copy_7"/><linearGradient id="linear-gradient-32" x1="6071.31" y1="1838.82" x2="6248.59" y2="1531.76" gradientUnits="userSpaceOnUse"><stop offset="0" stop-color="#fff" stop-opacity="0"/><stop offset="1" stop-color="#fff" stop-opacity="0.1"/></linearGradient><linearGradient id="linear-gradient-33" x1="6194.01" y1="2455.39" x2="6308.91" y2="2256.38" gradientUnits="userSpaceOnUse"><stop offset="0" stop-color="#b3ccff" stop-opacity="0"/><stop offset="1" stop-color="#b3ccff"/></linearGradient><linearGradient id="linear-gradient-34" x1="5833.97" y1="2455.39" x2="5948.87" y2="2256.38" gradientTransform="matrix(-1, 0, 0, 1, 12598.79, 0)" xlink:href="#linear-gradient-33"/><linearGradient id="linear-gradient-35" x1="5814.5" y1="1867.26" x2="5972.86" y2="1592.97" gradientTransform="matrix(-1, 0, 0, 1, 12598.79, 0)" xlink:href="#linear-gradient-33"/><linearGradient id="linear-gradient-36" x1="6757.6" y1="819.79" x2="4018.74" y2="5805.91" xlink:href="#New_Gradient_Swatch_copy_7"/><linearGradient id="linear-gradient-37" x1="6128.92" y1="1327.51" x2="6830.36" y2="1327.51" xlink:href="#linear-gradient"/><linearGradient id="linear-gradient-38" x1="6479.64" y1="1520.15" x2="6479.64" y2="932.52" xlink:href="#linear-gradient-19"/><linearGradient id="linear-gradient-39" x1="6645.54" y1="1380.39" x2="6693.49" y2="1463.43" xlink:href="#linear-gradient-3"/><linearGradient id="linear-gradient-43" x1="8004.38" y1="1428.07" x2="6526.85" y2="3987.23" xlink:href="#New_Gradient_Swatch_copy_7"/><linearGradient id="linear-gradient-44" x1="7697.54" y1="1671.17" x2="7639.78" y2="1771.21" gradientUnits="userSpaceOnUse"><stop offset="0" stop-color="#fff" stop-opacity="0.1"/><stop offset="1" stop-color="#fff" stop-opacity="0"/></linearGradient><linearGradient id="linear-gradient-45" x1="7854.78" y1="1351.13" x2="5996.42" y2="4734.31" xlink:href="#New_Gradient_Swatch_copy_7"/><linearGradient id="linear-gradient-46" x1="8539.22" y1="3753.48" x2="7129.58" y2="1311.92" xlink:href="#linear-gradient-16"/><linearGradient id="linear-gradient-47" x1="7556.79" y1="1858.36" x2="9420.66" y2="-1369.97" xlink:href="#New_Gradient_Swatch_copy_7"/><linearGradient id="linear-gradient-48" x1="6324.39" y1="4081.74" x2="8056.19" y2="1082.18" xlink:href="#linear-gradient-16"/><linearGradient id="linear-gradient-49" x1="7176.75" y1="2792.4" x2="7461.57" y2="2299.09" xlink:href="#linear-gradient-33"/><linearGradient id="linear-gradient-50" x1="-2093.61" y1="-7248.74" x2="-1808.8" y2="-7742.06" gradientTransform="matrix(-1, 0, 0, 1, 5875.47, 10042.78)" xlink:href="#linear-gradient-33"/><linearGradient id="linear-gradient-51" x1="7762.09" y1="1420.83" x2="7227.44" y2="2346.87" xlink:href="#New_Gradient_Swatch_copy_7"/><linearGradient id="linear-gradient-52" x1="-1666.07" y1="-7052.88" x2="-1878.14" y2="-7438.63" gradientTransform="matrix(-1, 0, 0, 1, 3814.17, 9378.05)" xlink:href="#linear-gradient-5"/><linearGradient id="linear-gradient-53" x1="-1866.57" y1="-7162.21" x2="-2009.69" y2="-6914.32" gradientTransform="matrix(-1, 0, 0, 1, 3814.17, 9378.05)" xlink:href="#linear-gradient-5"/><linearGradient id="linear-gradient-54" x1="-1747.28" y1="-7247.03" x2="-1888.59" y2="-7491.79" gradientTransform="matrix(-1, 0, 0, 1, 3814.17, 9378.05)" xlink:href="#linear-gradient-4"/><linearGradient id="linear-gradient-55" x1="-1836.9" y1="-7009.35" x2="-1952.41" y2="-7219.46" gradientTransform="matrix(-1, 0, 0, 1, 3814.17, 9378.05)" xlink:href="#linear-gradient-5"/><linearGradient id="linear-gradient-56" x1="-1992.15" y1="-7048.51" x2="-2069.29" y2="-6914.91" gradientTransform="matrix(-1, 0, 0, 1, 3814.17, 9378.05)" xlink:href="#linear-gradient-5"/><linearGradient id="linear-gradient-57" x1="-1875.83" y1="-7082.11" x2="-2017.14" y2="-7326.86" gradientTransform="matrix(-1, 0, 0, 1, 3814.17, 9378.05)" xlink:href="#linear-gradient-4"/><linearGradient id="linear-gradient-58" x1="-440.65" y1="-6223.39" x2="-652.72" y2="-6609.14" gradientTransform="translate(6339.09 9378.05)" xlink:href="#linear-gradient-4"/><linearGradient id="linear-gradient-59" x1="-706.35" y1="-6784.71" x2="-836.77" y2="-6558.81" gradientTransform="translate(6339.09 9378.05)" xlink:href="#linear-gradient-4"/><linearGradient id="linear-gradient-60" x1="-781.19" y1="-6701.22" x2="-639.88" y2="-6945.97" gradientTransform="translate(6339.09 9378.05)" xlink:href="#linear-gradient-4"/><linearGradient id="linear-gradient-61" x1="-691.39" y1="-6325.22" x2="-822.12" y2="-6563.02" gradientTransform="translate(6339.09 9378.05)" xlink:href="#linear-gradient-4"/><linearGradient id="linear-gradient-62" x1="-1682.59" y1="-8449.29" x2="-1841.63" y2="-8738.59" xlink:href="#linear-gradient-11"/><linearGradient id="linear-gradient-63" x1="-1865.92" y1="-8378.05" x2="-1906.96" y2="-8452.7" xlink:href="#linear-gradient-11"/><linearGradient id="linear-gradient-64" x1="-667.1" y1="-6281.04" x2="-797.84" y2="-6518.85" gradientTransform="translate(6339.09 9378.05)" xlink:href="#linear-gradient-4"/><linearGradient id="linear-gradient-65" x1="-873.14" y1="-6599.64" x2="-941.61" y2="-6481.06" gradientTransform="translate(6339.09 9378.05)" xlink:href="#linear-gradient-15"/><linearGradient id="linear-gradient-66" x1="-894.27" y1="-6563.72" x2="-752.96" y2="-6808.47" gradientTransform="translate(6339.09 9378.05)" xlink:href="#linear-gradient-4"/><linearGradient id="linear-gradient-67" x1="4679.4" y1="1919.84" x2="10368.05" y2="1919.84" gradientUnits="userSpaceOnUse"><stop offset="0" stop-color="#132788" stop-opacity="0"/><stop offset="0.17" stop-color="#2045ff" stop-opacity="0.5"/><stop offset="0.86" stop-color="#1f43f7" stop-opacity="0.26"/><stop offset="1" stop-color="#1833bd" stop-opacity="0"/></linearGradient><symbol id="New_Symbol_2" data-name="New Symbol 2" viewBox="0 0 920.65 1652.14"><polygon class="cls-4" points="0 265.75 460.64 531.7 460.64 1652.14 0 1386.19 0 265.75"/><polygon class="cls-5" points="920.65 265.75 460.01 531.7 460.01 1652.14 920.65 1386.19 920.65 265.75"/><polygon class="cls-6" points="459.86 531.16 0.26 265.81 460.01 0.36 460.01 0 460.33 0.18 460.64 0 460.64 0.36 920.4 265.81 460.79 531.16 460.79 531.7 460.33 531.43 459.86 531.7 459.86 531.16"/></symbol><symbol id="New_Symbol" data-name="New Symbol" viewBox="0 0 753.61 643.55"><polygon class="cls-1" points="351.01 612.27 701.08 410.15 351.23 210.78 351.23 210 350.54 210.39 349.86 210 349.86 210.78 0 410.15 350.07 612.27 350.07 612.81 350.54 612.54 351.01 612.81 351.01 612.27"/><polygon class="cls-2" points="351.01 612.27 701.08 410.15 701.08 0.39 0 0 0 410.15 350.07 612.27 350.07 612.81 350.54 612.54 351.01 612.81 351.01 612.27"/><g id="Layer_1-5" data-name="Layer 1"><polygon class="cls-3" points="701.08 410.15 753.61 441.81 404.46 643.55 351.01 611.55 701.08 410.15"/></g></symbol></defs><title>hero-2</title><g id="Layer_3" data-name="Layer 3"><path class="cls-7" d="M4716.75,0c1765.59,1003.64-894.68,2524.77,982.17,3454.59s4004.67,53.24,4342.59-1099.25S8741.76,0,10055.49-4.87Z"/><polygon class="cls-8" points="8328.47 3198.58 7844.81 3477.89 7572.25 3320.53 8055.91 3041.22 8328.47 3198.58"/><polygon class="cls-9" points="8929.47 1492.73 8470.29 1755.82 8197.73 1598.45 8656.92 1335.37 8929.47 1492.73"/><polygon class="cls-10" points="7270.47 2697.17 6752.47 2993.73 6479.91 2836.37 6997.91 2539.81 7270.47 2697.17"/><polygon class="cls-11" points="6100.01 2474.18 6011.18 2525.46 5738.62 2368.1 5827.45 2316.82 6100.01 2474.18"/><polygon class="cls-12" points="7968.49 1507.54 7507.8 1773.34 7235.24 1615.97 7695.94 1350.17 7968.49 1507.54"/></g><g id="Layer_2" data-name="Layer 2"><path class="cls-13" d="M6072.23,1602.42l216-124.73L5355.66,935.83c3.08,69.89,2.46,106.68-22.81,236.43Z"/><path class="cls-14" d="M6545.52,1304.82l-216,124.73L7939,2361.2a125.54,125.54,0,0,0,125.58,0L9830.92,1172.26l-216-124.73S8209.74,2026.28,8086.09,2099.27L8001.78,2148Z"/><use width="920.65" height="1652.14" transform="translate(6963.92 -830.55)" xlink:href="#New_Symbol_2"/><polygon class="cls-15" points="7883.91 -565.23 7423.91 -299.65 7423.91 -299.78 7883.94 -565.13 7424.91 -830.57 7424.91 -830.94 7423.86 -830.76 7423.91 -830.94 7423.91 -830.57 6963.8 -565.13 7423.91 -299.78 7423.91 -299.65 6963.91 -565.23 6963.91 555.55 7422.91 820.55 7422.91 821.21 7423.86 821.02 7423.91 821.21 7423.91 820.84 7883.91 555.26 7883.91 -565.23"/><use width="920.65" height="1652.14" transform="translate(5853.92 -357.55)" xlink:href="#New_Symbol_2"/><use id="New_Symbol_2-7" data-name="New Symbol 2" width="920.65" height="1652.14" transform="translate(7736.92 -53.55)" xlink:href="#New_Symbol_2"/></g><g id="Layer_1" data-name="Layer 1"><polygon class="cls-16" points="7235.91 1615.97 7235.87 1615.79 7235.53 1615.89 7235.91 1616.11 7235.91 1615.97"/><polygon class="cls-16" points="7235.53 1615.89 7234.92 1615.54 7234.91 1616.06 7235.53 1615.89"/><path class="cls-17" d="M7695.84,1001.71l-.07-30.93.29-.17-109.14-63V838.44l0-194.64,109-62.94-.15-59.72h0v-.06l-.06,0-459.79-265.4v-.42L6775.36,520.71,7036,671.35l-38.62-22.27-.19-.11-112.13-64.66-109.15-62.92-.15,59.62,109.29,63.1,112.14,64.74.19.11,55.39,32,56.77,32.78,118.52,68.75-115.24-66.54-3.91,2.74v160.2h0V773.6l-56.69-32.73-55.3-31.93v.17l-113-65.24,1,193.74v70l-109.15,63,109.18,63,112,64.67.19.11,16.83,9.71-16.6-9.57-.19-.11-112.14-64.66-109.14-62.92-.15,59.62,109.29,63.1,112.14,64.74.19.11,3.81,2.21.47.26-3.75,2.17V1356l111-64.08v.06l-111,64.09V1356l-.95.54-.05,0V1158.3l-112-64.65,0,134v0l-109.16,63,186.65,107.77-186.34-107.44-.15,59.6,459,265h0L7696.07,1350l-.15-59.21-460,265.26-.14-.08,460.29-265.38-109.15-63,0-134.3,21.56-12.45Zm-698.92,355.07,0,0h0Zm-.12-.11.08,0-.3,0-.2-.12-.46,0v-.28l-111-64.09h0l111.47,64.35.54,0Zm112.12-133.5v-.33l.63.37,78.83,45.51Zm253-449.48v4.57l-3.72-2.43Zm-126,72.88.5,0,.5,0V847l-1-.22Zm-1,.45v-.58l.63.37Zm1,389v0l-.17-.1,126.87-73.14,46.11-26.59Zm238-73.23-3.73-2.15.39-.22,3.34-1.94Zm0-159v-.15h.26Zm113,288.06-112,64.65v-.29Z"/><path id="pole_lt" data-name="pole lt" class="cls-18" d="M6995.92,1356.64v.14l1-.07,0,.07v.15l-113-65.24,1-64.08,0-134,112,64.65v198.3Zm478.62,0-.62.07V1162.82l-4.11-2.37-107.89,62.29v69l113,65.24v-.15l-.42-.07.42.07v-.13Zm-477.61-353V709.11l-113-65.24,1,193.74V939.27l111,64.08v.43l1-.07,0,.07v-.18Zm477.61,0-.62.07V708.58l-55.62,32.11-56.38,32.55V938.69l113,65.24v-.15l-.42-.07.42.07v-.13Z"/><path id="pole_rt" data-name="pole rt" class="cls-19" d="M7108.93,1291.87l-112,64.67v.13l1,0V1163.09l3.77-2.18,107.23,61.91Zm478-64.26,0-134.61-113,65.23v198.42l1,0v-.43l112-64.36Zm-478-454-56.69-32.73-55.3-31.93v294.71l1,0v-.43l111-64.08Zm478-130.64-113,65.23v295.46l1,0v-.14l112-64.65V838.44Z"/><path id="side_lt" data-name="side lt" class="cls-20" d="M7235.92,1616v.54l-.2-.27.2.27v-.4l-460-265.58.15-59.6,457.37,263.71,2.48,1.42v.45l-1,59.55.95-.27Zm0-828.95v-.41l-2.48-1.43-123.9-71.43-4.82-2.79-107.33-61.88-.19-.11-112.13-64.66-109.15-62.92-.15,59.62,109.29,63.1,112.14,64.74.19.11,55.39,32,56.77,32.78L7235.92,847h0Zm0,449.49v-.41l-2.48-1.43-123.9-71.43-56.44-32.55-55.71-32.12-.19-.11-112.14-64.66-109.14-62.92-.15,59.62,109.29,63.1,112.14,64.74.19.11,3.81,2.21,108.35,62.55,126.37,73v.34h0v-60Z"/><path id="side_rt" data-name="side rt" class="cls-21" d="M7696.07,1350l-461.15,265.53,1-59.48,460-265.26Zm-.3-828.95-109.23,63.07-112.06,64.69-.2.12-107.34,62-4.75,2.74-126.27,72.91v59.92l1,.09v-.71l125.88-72.69,56.33-32.51,55.55-32.08.2-.11,111.87-64.59,109.17-63Zm0,449.49-109.22,63.07-112.07,64.69-.2.12-55.8,32.21-182.56,105.41V1296l234.66-135.52,4.1-2.38.2-.11,111.87-64.59,109.17-63Z"/><path class="cls-22" d="M7696.07,1290.6l-460.48,265.49-.15-.09-2.47-1.42-457.21-264,109.16-63v64.69l111,64.09v.42l1-.07,0,.07v-.13l1,0v-.43l111-64.08v-69l127,72.81,126-72.91v68.63l113,65.24v-.15l-.42-.07.42.07v-.25l112-64.65v-64.3Zm-109.15-383v31l-113,65.23v-.15l1,0v.13l-.42-.07.42.07v.15l-113-65.23V778.26l-4.07-2.65L7235.92,846v.55l1-.09V847l-1.2-.27-.8.27v-.6l-122.09-70.49-3.91,2.74v160.2l-112,64.67v.13l1,0v.13l-1-.07,0,.07v-.14l-112-64.66v-31.4l-109.15,63,109.18,63,112,64.67.19.11,55.78,32.2,56.26,32.49L7233,1234.58l2.48,1.42.15.09,127-73.23,56.08-32.34,56-32.26.2-.11,112-64.59,109.17-62.95Zm-351-651.89v-.36l-.2.18.2-.18v-.06L6775.36,520.71l459.89,265.77.67.13,459.87-265.48Z"/><polygon class="cls-23" points="7232.64 725.2 7582.43 523.26 7232.86 324.05 7232.86 323.28 7232.17 323.67 7231.49 323.28 7231.49 324.05 6881.91 523.26 7231.7 725.2 7231.7 725.74 7232.17 725.47 7232.64 725.74 7232.64 725.2"/><polygon class="cls-24" points="7232.64 725.2 7582.43 523.26 7582.43 113.84 6881.91 113.45 6881.91 523.26 7231.7 725.2 7231.7 725.74 7232.17 725.47 7232.64 725.74 7232.64 725.2"/><g id="Layer_1-2" data-name="Layer 1"><polygon class="cls-25" points="7582.43 523.26 7634.91 554.89 7286.05 756.45 7232.64 724.49 7582.43 523.26"/></g><polygon class="cls-26" points="6996.91 1003.74 7288.81 1172.26 7400.93 1107.44 7109.03 938.87 6997.03 1003.54 6996.91 1003.47 6996.91 1003.6 6996.8 1003.67 6996.91 1003.74"/><polygon class="cls-27" points="6996.91 1356.73 7288.81 1525.26 7400.93 1460.44 7109.03 1291.87 6997.03 1356.54 6996.91 1356.47 6996.91 1356.6 6996.8 1356.67 6996.91 1356.73"/><polygon class="cls-28" points="7474.91 1003.74 7766.81 1172.26 7878.93 1107.44 7587.03 938.87 7475.03 1003.54 7474.91 1003.47 7474.91 1003.6 7474.8 1003.67 7474.91 1003.74"/><path class="cls-29" d="M6997.92,2539.81l-.16-59.51-.28-.13-57.56-33.41V2002.5l57.15-32.72-.15-59.28.56-.33-57.56-33.41v-551.1l-.75.43-459.25-265.27v-.37l-.52.19-.48-.19v.37l-459.28,265.26-.72-.42v550.91l-57.9,33.6-.1.08-.16,59.53,58.16,33.29v443.5l-57.9,33.6,0,.13v0l-.15-.09-.16,59.52,518.16,296.65v-.05l13.26-8.43-12.26,8.43Zm-518.5-948.49,173-99.69-172.85,99.8-.17-.11-.18.11-167-96.42Z"/><polygon class="cls-30" points="6939.91 1325.66 6478.91 1591.82 6478.91 2713.14 6939.91 2446.98 6939.91 1325.66"/><polygon class="cls-31" points="6018.91 1325.66 6479.91 1591.82 6479.91 2713.14 6018.91 2446.98 6018.91 1325.66"/><g id="siding"><g id="siding_top" data-name="siding top"><g id="side_left_horizontal" data-name="side left horizontal"><polygon class="left-dark" points="6478.91 2776.45 5960.91 2480.25 5960.76 2539.78 6478.91 2836.42 6478.91 2776.45"/><path class="cls-32" d="M6478.92,2836.37l-518-296.56.15-59.51,517.85,296.12Zm0-629.92-518-296.2-.16,59.53,518.16,296.64Z"/></g><path id="side_left_horizontal-2" data-name="side left horizontal" class="cls-33" d="M6478.92,2206.45l518-296.2.15,59.53-518.15,296.64Zm1,629.92,518-296.56-.16-59.51-517.84,296.12Z"/><g id="top_horizontal" data-name="top horizontal"><path class="cls-34" d="M6939.27,2513.42l-460,263.08L5961,2480.17l58-33.69L6479.17,2710l402.05-230.25Zm-58.05-603.7L6479.17,2140l-460.1-263.49-58,33.69,518.23,296.33,460-263.08Z"/><path class="cls-35" d="M6997.48,2480.17,6537.1,2743.42,6479.17,2710l460.26-263.49Zm-58-603.69L6479.17,2140l59.43,32.59,458.88-262.39Z"/><path class="cls-36" d="M6537.1,2743.42l-57.85,33.08L5961,2480.17l58-33.69L6479.17,2710ZM6479.17,2140l-460.1-263.49-58,33.69,518.23,296.33,59.35-33.94Z"/></g></g></g><g id="building_featuers" data-name="building featuers"><g id="window"><polygon class="cls-37" points="6421.91 1928.92 6421.91 1968.88 6074.91 1768.53 6074.91 1728.58 6421.91 1928.92"/><polygon class="cls-38" points="6421.91 1969 6421.91 2041.45 6074.57 1840.9 6136.03 1803.94 6421.91 1969"/><polygon class="cls-39" points="6421.91 1632.03 6421.91 1929 6074.57 1728.45 6333.41 1580.94 6421.91 1632.03"/><path class="cls-40" d="M6333.77,1580.94l-258.85,147.51v-297Zm-258.85,187.51v72.45l61.47-37Z"/><polygon class="cls-41" points="6333.77 1580.94 6074.91 1431.49 6074.91 1728.45 6074.91 1768.45 6074.91 1840.9 6136.39 1803.94 6170.31 1783.53 6422.27 1632.03 6333.77 1580.94"/></g><path class="cls-42" d="M6300.92,2341.23l45,26v200.73l-45-26Zm-75,156.07,45,26V2322.55l-45-26Zm151,87.06,45,26V2409.6l-45-26Zm-76-278.94,45,26v-61.71l-45-26Zm-75-44.66,45,26V2225l-45-26Zm151,87,45,26v-61.71l-45-26Zm-151,149.49,45,26V2322.55l-45-26Zm151,87.06,45,26V2409.6l-45-26Zm-76-278.94,45,26v-61.71l-45-26Zm-75-44.66,45,26V2225l-45-26Zm151,87,45,26v-61.71l-45-26Zm-226,107.1,45,26V2280.16l-45-26Zm-76-44.66,45,26V2235.5l-45-26Zm76-191.88,45,26v-61.72l-45-26Zm-76-44.66,45,26V2138l-45-26Z"/><path class="cls-43" d="M6657.92,2542l-45,26V2367.21l45-26Zm75-245.39-45,26v200.74l45-26Zm-151,87-45,26v200.74l45-26Zm76-139.91-45,26v61.71l45-26Zm75-44.66-45,26v61.71l45-26Zm-151,87-45,26v61.71l45-26Zm151,10.47-45,26v200.74l45-26Zm-151,87-45,26v200.74l45-26Zm76-139.91-45,26v61.71l45-26Zm75-44.66-45,26v61.71l45-26Zm-151,87-45,26v61.71l45-26Zm226-31.92-45,26v200.73l45-26Zm76-44.66-45,26v200.73l45-26Zm-76-52.87-45,26v61.72l45-26Zm76-44.66-45,26v61.72l45-26Z"/><path class="cls-44" d="M6657.91,1974.47l-45,26-2-410.45,45-26Zm73-455.14-45,26,2,410.5,45-26Zm-151,87.06-45,26,2,410.5,45-26Zm151-87.06-45,26,2,410.5,45-26Zm-151,87.06-45,26,2,410.5,45-26Zm226-129.45-45,26,2,410.5,45-26Zm76-44.66-45,26,2,410.49,45-26Z"/></g><polygon id="roof" class="cls-45" points="6478.91 1591.61 6939.47 1326.26 6479.91 1060.82 6479.91 1060.45 6479.4 1060.64 6478.91 1060.45 6478.91 1060.82 6019.33 1326.26 6479.91 1591.61 6479.91 1592.16 6480.41 1591.87 6478.91 1592.16 6478.91 1591.61"/><polygon class="cls-46" points="6480.11 1528.2 6830.36 1326.26 6480.32 1127.05 6480.32 1126.28 6479.64 1126.66 6478.95 1126.28 6478.95 1127.05 6128.91 1326.26 6479.17 1528.2 6479.17 1528.74 6479.64 1528.47 6480.11 1528.74 6480.11 1528.2"/><polygon class="cls-47" points="6480.11 1528.2 6830.36 1326.26 6830.36 916.84 6128.91 916.45 6128.91 1326.26 6479.17 1528.2 6479.17 1528.74 6479.64 1528.47 6480.11 1528.74 6480.11 1528.2"/><g id="Layer_1-3" data-name="Layer 1"><polygon class="cls-48" points="6830.36 1326.26 6882.91 1357.89 6533.58 1559.45 6480.11 1527.49 6830.36 1326.26"/></g><polygon class="cls-46" points="6480.11 1528.2 6830.36 1326.26 6480.32 1127.05 6480.32 1126.28 6479.64 1126.66 6478.95 1126.28 6478.95 1127.05 6128.91 1326.26 6479.17 1528.2 6479.17 1528.74 6479.64 1528.47 6480.11 1528.74 6480.11 1528.2"/><polygon class="cls-47" points="6480.11 1528.2 6830.36 1326.26 6830.36 916.84 6128.91 916.45 6128.91 1326.26 6479.17 1528.2 6479.17 1528.74 6479.64 1528.47 6480.11 1528.74 6480.11 1528.2"/><g id="Layer_1-4" data-name="Layer 1"><polygon class="cls-48" points="6830.36 1326.26 6882.91 1357.89 6533.58 1559.45 6480.11 1527.49 6830.36 1326.26"/></g><polygon class="cls-17" points="7573.09 2144.73 7573 2144.77 7572.91 2145.01 7573.17 2144.77 7573.09 2144.73"/><path class="cls-17" d="M7573.74,2144.77l-.41.24-.08,0-.33.2v-.62l482.74-278.72-31.37-18.11-31,17.93,0,0,30.7-17.72V1621.51l1.3-.76-384.48-219.13-40.87-23.3-26.3-15.18-26.21,15-38.45,22L7466,1424.54l-22.86,13-.11.07-54.22,30.95.09.05V1696l30,17.32v.55l.48-.27.14.08-.56.32L7387.92,1696v-3.11l-123,71-33,19.06-26.55,15.33-17.88,10.32L7160.93,1824l-17.88,10.31-26.55,15.33-17.88,10.33-10.2,5.89,1.5.86V3041.9l482.33,278.63.34.18.33.2v-.83l.33-.19.33-.19,482.34-278.48V1866.38Zm13.05-714.38,17.13-6.49v.19l-17.08,6.46,17.08,53.94,7.76,24.51,60.73,34.7,80.39,45.86,60.95,34.83,0-.07.19.11v.12l-141.51-80.85-60.73-34.65-7.76-24.47-17.13-54,.05,0Zm252.13,524.53h0v-.15h0Zm0-4.47v0Zm16-55.13.08,0-.08,0Zm94.74-54.18,16.08-9.19,12.18-7v.11l-12,6.86h0l-16.06,9.19-94.62,54.11-.11-.06Zm-261.74-107.87.39-.22.61.35v14.75l-1,.57Zm-35-20.44.07,0-10.48,6,29.62,16.92-.21.13v-.16l-30-17.14v-.16l10.41-6Zm199.62,162.25,2.63,1.5-.25.15v-.21l-3.59-2-264.41-151.08v-.08Zm-263-131.63,4.83,2.76,244.25,139.61.29.16h0l-245-140v0l-3.51-2Zm249.37,211.47v0l.15-.09h0l-.15.09Zm.25-.1.34-.19-.34.19Zm50.93-375.49,103.36,58.91-.54.32v0Zm47.14,203.85.74.42-12.08,6.9-32,18.29-36.33,20.76-.53-.3,35.95-20.54,0,0,.05,0-.19-.11,31.68-18.1Zm-122.38-246.73h0Zm-241.44-137.6,39.07,22.26,0,0-.29.1-.38-.21-.1-.06-7.77-4.43v.16L7573,1399.08l.38-.22Zm-153.5,314.41,111-63.22-111,63.38Z"/><path class="cls-49" d="M7854.92,1876.52v18.61l-16.29-9.31-244.25-139.61-7.46-4.26v-18.56l264.41,151.08Zm-16,78.57V1886l-245-140v69.17l244.94,140,.06,0v-.07Zm-24.68-418.7L7611.79,1421l-.1-.06-7.77-4.43v7.37l-17.13,6.49,17.13,54.1,7.76,24.51,202.24,115.55v-87.94l.42-.17Zm-241.65,608.88-.08,0-.42-.24L7277.89,1975l-12.15-7-18.29-10.56,0,0h0l-34.11-19.7L7163.58,1909l-1.28-.73L7144.52,1898l-26.4-15.26-17.79-10.27-10.41-6V3041.9l482.33,278.63.34.18.33.2V2145.47Zm243.12-608.82h-1.37l-.42.17v87.81l-202.24-115.38-7.76-24.47-17.13-54,17.13-6.48v-7.4l-31-17.66V1626.4l319.78,182.23,31.8-18.17,12.74-7.28,40.68,23.24v18.67l-12,6.86v18.41l27,15.56V1638.59Zm-395.79-49.92v227.32l-31-17.9V1468.63Zm222,232.08v28.7l30,17.14v-28.7Z"/><polygon class="cls-50" points="7641.91 1718.61 7641.91 1747.31 7671.91 1764.45 7671.91 1735.75 7641.91 1718.61"/><path class="cls-51" d="M7979.66,1806.57l-12.23,7-.8.46-31.74,18.13-78.74,45-3.61-2.07-266.39-152.21,42.36-24.2,24,13.72-10.6,6.06V1747l29.85,17.06,30.15-17.23v-6.22l155.65,88.94,36.33-20.76,32-18.29,12.82-7.32Zm44.63,41.23-31,17.93-27.34-15.58v31.5L7838.84,1955h0l-244.91-139.93V1746l-7-4v-18.72l42.12-24.07,23.88,13.64,49.13,28.07,154.8,88.45,36.14-20.64-320.07-182.4v-.24L7419,1714,7387.92,1696v-3.11l-123,71-33,19.06-26.55,15.33-17.88,10.32L7160.93,1824l-17.88,10.31-26.55,15.33-17.88,10.33-10.2,5.89,10.2,5.88L7116.5,1882l26.55,15.33,17.88,10.31,1.36.79,50,28.88,34.29,19.8h0l18.31,10.56,12.29,7.1,295.71,170.73V2145l.08-.24.09,0,.08,0-.25.24v-.38l482.74-278.72Zm-322.13-106.91,154.73,88.42,36.12-20.64-319.92-182.31-307,175L7233.23,1820l-26.43,15.06L7189,1845.23l-26.43,15-9.82,5.6,9.82,5.68,26.43,15.26,77.06,44.49,13.26,7.66,20.67,11.48h539.1l.06,4.48-245.25-139.76v-69.06l-7-4.27v-18.58l42.27-24.06,23.86,13.64Zm-30-39-19.14,10.94-10.54,6,29.68,17,10.54-6,19.13-10.93Zm-31.45-300.28-40.87-23.3-26.3-15.18-26.21,15-38.45,22L7466,1424.54l-22.86,13-.11.07-54.22,30.95,31,17.91,23.19-13.24.11-.06,53.88-30.77h0l11.87-6.77h0l64.47-36.81h0l39.07,22.26,0,0-7.87,2.95-17.1,6.41,17.1,9.78,185,105.68,24.87-9.33.42-.17h0l179.34,102.21,31-17.91Zm48.18,331.45v15.53l13.59-7.77Zm277,117.26v31.32l27.3-15.77Zm13.74-43.76-12.23,7-.8.46-31.74,18.13-78.74,45-3.61-2.07-266.39-152.21,42.36-24.2,24,13.72-10.6,6.06V1747l29.85,17.06,30.15-17.23v-6.22l155.65,88.94,36.33-20.76,32-18.29,12.82-7.32Zm44.63,41.23-31,17.93-27.34-15.58v31.5L7838.84,1955h0l-244.91-139.93V1746l-7-4v-18.72l42.12-24.07,23.88,13.64,49.13,28.07,154.8,88.45,36.14-20.64-320.07-182.4v-.24L7419,1714,7387.92,1696v-3.11l-123,71-33,19.06-26.55,15.33-17.88,10.32L7160.93,1824l-17.88,10.31-26.55,15.33-17.88,10.33-10.2,5.89,10.2,5.88L7116.5,1882l26.55,15.33,17.88,10.31,1.36.79,50,28.88,34.29,19.8h0l18.31,10.56,12.29,7.1,295.71,170.73V2145l.08-.24.09,0,.08,0-.25.24v-.38l482.74-278.72Zm-352.1-145.9-19.14,10.94-10.54,6,29.68,17,10.54-6,19.13-10.93Zm-31.45-300.28-40.87-23.3-26.3-15.18-26.21,15-38.45,22L7466,1424.54l-22.86,13-.11.07-54.22,30.95,31,17.91,23.19-13.24.11-.06,53.88-30.77h0l11.87-6.77h0l64.47-36.81h0l39.07,22.26,0,0-7.87,2.95-17.1,6.41,17.1,9.78,185,105.68,24.87-9.33.42-.17h0l179.34,102.21,31-17.91Zm48.18,331.45v15.53l13.59-7.77Zm277,117.26v31.32l27.3-15.77Z"/><path class="cls-52" d="M7789.07,1545.91l24.85,78.48v-87.83Zm-216.33-147-64.82,36.78h0l-11.94,6.76h.26l-54,30.75-.12.06-23.23,13.23v227.33l154-87.69V1399Zm1,745.87-.41.24-.08,0-.33.2V3320.08l.33-.19.33-.19,482.34-278.48V1866.38Zm392.18-331.4v.84l-.8-.45-31.66,18.09-78.54,44.88v18.59l94.74-54.18,16.08-9.19,12.18-7v-18.47Zm-16.06,27.78-94.62,54.11-16.32-9.33v69l127-72.73V1832Zm-110.94,113.78v0Zm126.2-141.07.8.46v-.91Zm-392.18-414.95,0,0,.18.1Zm420,239.65v227.32l31-17.9V1620.66Zm-291,102.16v6.35l-30,17.14v-28.3l10.65-6.09,19.35-11v6.5l-14,8v15.45l13.94-8Z"/><path class="cls-53" d="M7672.19,1701.9l-19.14,10.94-10.54,6,29.68,17,10.54-6,19.13-10.93Zm307.47,104.67-12.23,7-.8.46-31.74,18.13-78.74,45-3.61-2.07-266.39-152.21,42.36-24.2,24,13.72-10.6,6.06V1747l29.85,17.06,30.15-17.23v-6.22l155.65,88.94,36.33-20.76,32-18.29,12.82-7.32Zm-338.92-405-40.87-23.3-26.3-15.18-26.21,15-38.45,22L7466,1424.54l-22.86,13-.11.07-54.22,30.95,31,17.91,23.19-13.24.11-.06,53.88-30.77h0l11.87-6.77h0l64.47-36.81h0l39.07,22.26,0,0-7.87,2.95-17.1,6.41,17.1,9.78,185,105.68,24.87-9.33.42-.17h0l179.34,102.21,31-17.91Z"/><path class="cls-54" d="M7965.92,1813.37v.84l-.8-.45-31.66,18.09-78.54,44.88v18.59l94.74-54.18,16.08-9.19,12.18-7v-18.47Zm-264-72.65v6.35l-30,17.14v-28.3l10.65-6.09,19.35-11v6.5l-14,8v15.45l13.94-8Z"/><path id="accent" class="cls-55" d="M7813.75,1624.39,7611.83,1509l-7.74-24.48-17.1-54,17.1,9.77,184.82,105.61Zm37.58,250.08-264.41-151.08V1742l7.46,4.26,244.25,139.61,16.29,9.31v-18.61Z"/><g id="windows"><path class="cls-56" d="M7296.92,2609.57l70,40.41v312.26l-70-40.42Zm-117,243,70,40.42V2580.77l-70-40.42Zm233,134.91,70,40.42V2715.68l-70-40.42Zm-116-434.22,70,40.41V2281.46l-70-40.42Zm-117-69.21,70,40.41V2212.25l-70-40.42Zm233,134.91,70,40.41V2347.16l-70-40.42Zm-116-432.7,70,40.42v-96l-70-40.41Zm-117-69.21,70,40.42v-96l-70-40.41Zm233,134.91,70,40.42v-96l-70-40.41Z"/></g><path class="cls-57" d="M7848.92,2923.45l-70,40.42V2651.61l70-40.42Zm117-381.47-70,40.42v312.25l70-40.41Zm-233,134.91-70,40.42v312.25l70-40.41Zm116-434.22-70,40.42v312.25l70-40.41Zm117-69.21-70,40.41v312.26l70-40.41Zm-233,134.91-70,40.41V2661l70-40.41Zm116-216.43-70,40.41v96l70-40.42Zm117-69.22-70,40.42v96l70-40.41Zm-233,134.91-70,40.42v96l70-40.41Z"/><path class="cls-58" d="M7749.3,1579.42l47.18,27L7778,1548.1l-47.18-27ZM7685.81,1543l50.87,29.06-18.45-58.27-50.87-29.07Zm-81.55-93.91,18.45,58.27,50.48,28.85-18.45-58.28Z"/><use width="753.61" height="643.55" transform="translate(7460.92 1890.45) scale(0.32 0.32)" xlink:href="#New_Symbol"/><use width="753.61" height="643.55" transform="translate(7196.92 1735.45) scale(0.32 0.32)" xlink:href="#New_Symbol"/><polygon class="cls-59" points="6186.91 1605.13 6125.91 1640.35 6125.91 1497.28 6157.67 1478.94 6186.91 1495.83 6186.91 1605.13"/><polygon class="cls-59" points="7540.91 1573.17 7454.91 1622.82 7454.91 1539.19 7540.91 1490.58 7540.91 1573.17"/><polygon class="cls-59" points="7392.91 921.38 7440.91 950.29 7440.91 817.36 7392.91 790.22 7392.91 921.38"/></g><g id="Layer_4" data-name="Layer 4"><g id="_Group_" data-name="&lt;Group&gt;"><polygon class="cls-60" points="5520.91 2046.75 5609.91 2098.14 5609.91 2293.73 5520.91 2242.35 5520.91 2046.75"/><polygon class="cls-61" points="5698.91 2046.75 5609.91 2098.14 5609.91 2293.73 5698.91 2242.35 5698.91 2046.75"/><polygon class="cls-62" points="5610.91 2098.18 5698.67 2047.01 5609.91 1995.82 5609.91 1995.75 5609.95 1995.79 5610.91 1995.75 5610.91 1995.82 5521.24 2047.01 5609.91 2098.18 5609.91 2098.28 5609.95 2098.23 5610.91 2098.28 5610.91 2098.18"/><polygon class="cls-63" points="5649.91 2211.45 5738.91 2262.84 5738.91 2368.25 5649.91 2316.87 5649.91 2211.45"/><polygon class="cls-64" points="5827.91 2211.45 5738.91 2262.84 5738.91 2368.25 5827.91 2316.87 5827.91 2211.45"/><polygon class="cls-65" points="5738.91 2262.78 5827.4 2211.62 5737.91 2160.43 5737.91 2160.36 5738.69 2160.4 5738.91 2160.36 5738.91 2160.43 5649.97 2211.62 5737.91 2262.78 5737.91 2262.89 5738.69 2262.84 5738.91 2262.89 5738.91 2262.78"/></g><g id="_Group_2" data-name="&lt;Group&gt;"><polygon class="cls-66" points="5698.68 2586.87 5609.68 2638.25 5609.68 2833.85 5698.68 2782.46 5698.68 2586.87"/><polygon class="cls-67" points="5520.68 2586.87 5609.68 2638.25 5609.68 2833.85 5520.68 2782.46 5520.68 2586.87"/><polygon class="cls-68" points="5610.68 2638.29 5520.98 2587.12 5609.68 2535.94 5609.68 2535.87 5609.69 2535.9 5610.68 2535.87 5610.68 2535.94 5698.41 2587.12 5609.68 2638.29 5609.68 2638.39 5609.69 2638.34 5610.68 2638.39 5610.68 2638.29"/><polygon class="cls-69" points="5569.68 2751.57 5480.68 2802.95 5480.68 2908.37 5569.68 2856.98 5569.68 2751.57"/><polygon class="cls-70" points="5971.02 2939.68 5882.19 2990.97 5609.63 2833.61 5698.46 2782.32 5971.02 2939.68"/><polygon class="cls-71" points="5676.12 2918.36 5587.3 2969.64 5480.9 2908.21 5569.73 2856.93 5676.12 2918.36"/><polygon class="cls-72" points="5569.68 2751.57 5480.68 2802.95 5480.68 2908.37 5569.68 2856.98 5569.68 2751.57"/><polygon class="cls-73" points="5391.68 2751.57 5480.68 2802.95 5480.68 2908.37 5391.68 2856.98 5391.68 2751.57"/><polygon class="cls-74" points="5481.68 2802.9 5392.25 2751.73 5480.68 2700.55 5480.68 2700.48 5480.96 2700.51 5481.68 2700.48 5481.68 2700.55 5569.68 2751.73 5480.68 2802.9 5480.68 2803 5480.96 2802.95 5481.68 2803 5481.68 2802.9"/></g></g><g id="Layer_5" data-name="Layer 5"><path class="cls-75" d="M10204.47,1536.44c-71.9-265.45-187.64-512.69-289.78-730.86-70.75-151.15-137.58-293.91-170.91-405.73-35.28-118.39-17.71-151.15-15.59-154.5q1-1.56,2.36-3.83c8.64-14.1,34.9-57,101.64-97.84,39.73-24.3,87-43.64,140.63-57.47,67.33-17.39,145.08-26.21,231.1-26.21H10364l-286.55-249.95-22.62.09c-155.91.57-280.1,16.66-379.67,49.17-117.47,38.36-204.78,101.63-259.52,188.05-42.47,67-63.91,146-63.73,234.61.13,66.65,12.34,139.78,37.3,223.56,41.18,138.15,113.67,293,190.43,457,95.72,204.49,204.22,436.27,267.73,670.69,68.86,254.24,74.3,473.43,16.63,670.11-30.06,102.55-77.77,205.1-141.8,304.82-64.45,100.37-145.61,198.19-241.22,290.75-96.58,93.49-207.95,181.67-331,262.08-125,81.63-262.1,155.34-407.64,219.08-418.45,183.27-893.88,280.14-1374.89,280.14-7.62,0-15.32,0-22.9-.07a3581.92,3581.92,0,0,1-779.09-90.83A3575.22,3575.22,0,0,1,5781,3288.81c-105.34-52.18-197.83-107.82-274.92-165.36-70.14-52.36-129.48-107.77-176.35-164.69-81.49-99-129.16-206.48-145.73-328.66-7.73-57-8.94-117-3.7-183.25,4.92-62.1,15.42-128.32,32.1-202.44,32.52-144.45,82.43-292.37,135.29-449,108.83-322.51,221.35-656,186.53-991-9.53-91.68-30.1-180.38-61.13-263.65-33.21-89.11-79.45-174.88-137.45-254.94C5276,203.32,5201.92,124.33,5115.52,51c-87.64-74.42-191-145.68-307.35-211.79L4756-190.48,4573.16,131.18l52.16,29.65C4721.6,215.56,4805.94,273.48,4876,333c63.85,54.22,117.69,111.35,160,169.8,74.54,102.91,117.13,214.05,130.2,339.79,6.09,58.6,6,119.85-.41,187.24-5.92,62.72-17.13,129.29-34.28,203.53-33.24,144-84.67,296.35-134.4,443.75-53.55,158.7-108.93,322.81-145.68,486.07-20.58,91.46-33.66,174.71-40,254.5-7.36,92.9-5.43,178.65,5.9,262.15,12.48,92.06,36.9,180.74,72.58,263.58,38,88.11,89.81,172.41,154.17,250.56,65.74,79.85,146.71,155.88,240.64,226,95,70.89,206.66,138.31,332,200.41a3946,3946,0,0,0,865.65,309.48,3952.6,3952.6,0,0,0,859.68,100.24c8.22.06,16.7.08,25.21.08,531.73,0,1058.51-107.61,1523.39-311.22,164.23-71.93,319.53-155.45,461.56-248.25,142.73-93.24,272.61-196.19,386-306,116.06-112.36,215.38-232.36,295.21-356.69,83.1-129.42,145.52-264.21,185.52-400.63,41.4-141.19,59.36-291.84,53.4-447.79C10267.29,1824.67,10245.05,1686.25,10204.47,1536.44Z"/></g></svg>