<svg preserveAspectRatio='none' id="Layer_1" data-name="Layer 1" xmlns="http://www.w3.org/2000/svg" xmlns:xlink="http://www.w3.org/1999/xlink" viewBox="0 0 960 311"><defs><style>.cls-1{fill:url(#linear-gradient);}.cls-2{fill:none;}.cls-3{fill:url(#linear-gradient-2);}</style><linearGradient id="linear-gradient" x1="914" y1="1109.5" x2="1874" y2="1109.5" gradientUnits="userSpaceOnUse"><stop offset="0" stop-color="#3218bd"/><stop offset="1" stop-color="#131888"/></linearGradient><linearGradient id="linear-gradient-2" x1="980" y1="952.54" x2="980" y2="1100.02" gradientUnits="userSpaceOnUse"><stop offset="0" stop-color="#3218bd"/><stop offset="1" stop-color="#131888" stop-opacity="0"/></linearGradient></defs><title>lol</title><path class="cls-1" d="M914,954v68.34a93.24,93.24,0,0,1,35-6.61c39.76,0,72,23.47,72,52.44s-32.24,52.44-72,52.44a93.24,93.24,0,0,1-35-6.62v151h960V954Z" transform="translate(-914 -954)"/><path class="cls-2" d="M949,1102.4c25.92,0,47-15.36,47-34.23s-21.08-34.23-47-34.23c-13.89,0-26.39,4.41-35,11.41V1091C922.61,1098,935.11,1102.4,949,1102.4Z" transform="translate(-914 -954)"/><path class="cls-3" d="M949,997.52a128.9,128.9,0,0,0-35,4.76v43.07c8.61-7,21.11-11.41,35-11.41,25.92,0,47,15.35,47,34.23s-21.08,34.23-47,34.23c-13.89,0-35,.24-35,.24v31.41a128.51,128.51,0,0,0,35,4.77c53.49,0,97-31.7,97-70.65S1002.49,997.52,949,997.52Z" transform="translate(-914 -954)"/></svg>