<svg id="Layer_1" data-name="Layer 1" xmlns="http://www.w3.org/2000/svg" xmlns:xlink="http://www.w3.org/1999/xlink" viewBox="0 0 1515.61 1054.29"><defs><style>.cls-1{fill:url(#linear-gradient);}.cls-2{fill:url(#linear-gradient-2);}</style><linearGradient id="linear-gradient" x1="-11.28" y1="-438.55" x2="958.69" y2="531.42" gradientTransform="translate(984.98 -188.64) rotate(90)" gradientUnits="userSpaceOnUse"><stop offset="0" stop-color="#3218bd"/><stop offset="1" stop-color="#131888"/></linearGradient><linearGradient id="linear-gradient-2" x1="314.66" y1="-509.3" x2="1426" y2="1623.52" gradientTransform="translate(984.98 -188.64) rotate(90)" gradientUnits="userSpaceOnUse"><stop offset="0" stop-color="#2045ff" stop-opacity="0"/><stop offset="1" stop-color="#2449ff" stop-opacity="0.8"/></linearGradient></defs><title>oval</title><path class="cls-1" d="M1471,285.94c-208.15,70-319.71,271.5-961.85-68.5s-336,550,170,806S1679.15,215.94,1471,285.94Z" transform="translate(-75 -75.03)"/><path class="cls-2" d="M75,276.45C75,243,79.89,213,89.6,186.87c13.47-36.21,35.73-64.39,66.16-83.74C197.06,76.87,250.63,69,315,79.63c60.42,10,132.26,36.92,213.53,80,232.1,122.89,412.63,184.73,551.9,189.06,116.73,3.63,190.7-32.86,269-71.49,36.85-18.17,75-37,117.29-51.2,19.72-6.64,38.44-8,55.63-4.21A82.27,82.27,0,0,1,1573.23,257c18.71,28.33,22.27,68.92,10.89,124.07-8.69,42.06-26.27,93.17-50.84,147.79-53.44,118.77-134.6,243.59-222.66,342.45-44.41,49.85-90.64,93.45-137.41,129.59-52.3,40.41-105.67,71.75-158.63,93.17-59.51,24.07-119.3,35.92-177.69,35.24-63.85-.74-126.56-16.47-186.38-46.73-147.09-74.42-289.87-204.06-402-365.07C198.61,646,156.51,570,126.72,498,95.64,422.76,78.39,354.17,75.44,294.1Q75,285.13,75,276.45ZM1477,341.9c-26,10.44-51.36,23-77.84,36-83.17,41-177.43,87.52-322.2,83-76.06-2.36-158.6-18.32-252.33-48.79C721.47,378.62,607.42,328.48,476,258.87c-70.55-37.36-130.89-60.37-179.33-68.4-35.72-5.92-63.58-3.34-80.57,7.46-26.32,16.74-30,58.55-28.4,90.67,2.29,46.51,17.12,104.06,42.9,166.43,26.74,64.71,64.81,133.25,110.09,198.24,48.45,69.53,103.17,132.82,162.65,188.11,63.88,59.38,130.47,106.8,197.93,140.93,35.49,18,72.15,29.05,109,33,34.56,3.69,70.35,1.21,106.39-7.4,68.27-16.29,138.7-54.34,209.34-113.1,52.5-43.66,103.79-97.65,152.43-160.45A1324.81,1324.81,0,0,0,1395.73,553.7c30.74-57.19,54.58-112.2,68.92-159.1C1471.76,371.36,1475.3,354.2,1477,341.9Zm27.53-10Z" transform="translate(-75 -75.03)"/></svg>