<svg id="Layer_1" data-name="Layer 1" xmlns="http://www.w3.org/2000/svg" xmlns:xlink="http://www.w3.org/1999/xlink" viewBox="0 0 565.7 658.25"><defs><style>.cls-1{fill:url(#linear-gradient);}.cls-2{fill:#b3c0ff;}.cls-3{fill:url(#linear-gradient-2);}.cls-4{fill:url(#New_Gradient_Swatch_copy_7);}.cls-5{fill:url(#linear-gradient-3);}.cls-6{fill:url(#linear-gradient-4);}.cls-7{fill:#cc1eb2;}.cls-8{fill:#d922be;}.cls-9{fill:none;stroke:#fff;stroke-miterlimit:10;stroke-width:0.25px;}</style><linearGradient id="linear-gradient" x1="373.56" y1="1337.76" x2="955.26" y2="330.24" gradientUnits="userSpaceOnUse"><stop offset="0" stop-color="#99a9ff"/><stop offset="1" stop-color="#fff" stop-opacity="0"/></linearGradient><linearGradient id="linear-gradient-2" x1="1544.78" y1="1390.25" x2="1021.39" y2="438.21" gradientTransform="matrix(-1, 0, 0, 1, 1535.42, -532.29)" gradientUnits="userSpaceOnUse"><stop offset="0" stop-color="#002aff"/><stop offset="1" stop-color="#e6fbff"/></linearGradient><linearGradient id="New_Gradient_Swatch_copy_7" x1="1452.68" y1="493.58" x2="929.52" y2="1445.98" gradientTransform="matrix(-1, 0, 0, 1, 1535.42, -532.29)" gradientUnits="userSpaceOnUse"><stop offset="0" stop-color="#e6fbff"/><stop offset="1" stop-color="#002aff"/></linearGradient><linearGradient id="linear-gradient-3" x1="1264.78" y1="671.17" x2="1219.81" y2="589.37" gradientTransform="matrix(-1, 0, 0, 1, 1535.42, -532.29)" gradientUnits="userSpaceOnUse"><stop offset="0" stop-color="#e600ca"/><stop offset="1" stop-color="#ff00e1"/></linearGradient><linearGradient id="linear-gradient-4" x1="1263.34" y1="629.45" x2="1225.15" y2="698.98" gradientTransform="matrix(-1, 0, 0, 1, 1535.42, -532.29)" gradientUnits="userSpaceOnUse"><stop offset="0" stop-color="#ff00e1"/><stop offset="1" stop-color="#e600ca"/></linearGradient></defs><title>point</title><path class="cls-1" d="M926.27,1023.77l1-319.64L648.57,542.84v1L367.63,703.55l1.14,321.22,2.43-1.38L648,1184.5l278.78-160.44-.67-.39Z" transform="translate(-365.72 -532.29)"/><path class="cls-2" d="M648.57,543.84,773.63,616l41.69,24.07,83.37,48.14,22.73,13.12v320.1L648.57,1179,375.72,1021.47V701.37l22.72-13.12,41.69-24.07,41.69-24.07L523.5,616,565.2,592l41.69-24.07,41.68-24.07m0-11.55-5,2.89-41.68,24.07L560.2,583.32l-41.7,24.06-41.68,24.07-41.69,24.07-41.69,24.07-22.72,13.12-5,2.88v331.66l5,2.88,272.85,157.53,5,2.89,5-2.89,272.85-157.53,5-2.88V695.59l-5-2.89-22.73-13.11-83.37-48.14-41.69-24.07-125.06-72.2-5-2.89Z" transform="translate(-365.72 -532.29)"/><polygon class="cls-3" points="283.27 88.2 283.27 578.63 72.15 456.74 283.27 88.2"/><polygon class="cls-4" points="282.81 88.2 282.81 578.63 493.93 456.74 282.81 88.2"/><polygon class="cls-5" points="282.87 68.78 282.87 176 233.55 146.99 282.87 68.78"/><polygon class="cls-6" points="282.76 68.78 282.76 176 332.08 146.99 282.76 68.78"/><polygon class="cls-7" points="282.87 168.86 282.87 176 233.55 146.99 239.81 143.47 282.87 168.86"/><polygon class="cls-8" points="332.08 146.99 282.76 176 282.76 168.86 325.81 143.47 332.08 146.99"/><line class="cls-9" x1="282.85" y1="354.01" x2="56.12" y2="223.11"/><line class="cls-9" x1="282.85" y1="394.01" x2="56.12" y2="263.11"/><line class="cls-9" x1="282.85" y1="434.01" x2="56.12" y2="303.11"/><line class="cls-9" x1="282.85" y1="474.01" x2="56.12" y2="343.11"/><line class="cls-9" x1="282.85" y1="514.01" x2="56.12" y2="383.11"/><line class="cls-9" x1="282.85" y1="554.01" x2="56.12" y2="423.11"/><line class="cls-9" x1="282.85" y1="354.01" x2="509.58" y2="223.11"/><line class="cls-9" x1="282.85" y1="394.01" x2="509.58" y2="263.11"/><line class="cls-9" x1="288.75" y1="430.6" x2="509.58" y2="303.11"/><line class="cls-9" x1="282.85" y1="434.01" x2="294.64" y2="427.2"/><line class="cls-9" x1="282.85" y1="474.01" x2="509.58" y2="343.11"/><line class="cls-9" x1="282.85" y1="514.01" x2="509.58" y2="383.11"/><line class="cls-9" x1="509.58" y1="423.11" x2="282.85" y2="554.01"/><line class="cls-9" x1="282.85" y1="190.03" x2="294.64" y2="183.22"/></svg>