<svg xmlns="http://www.w3.org/2000/svg" xmlns:xlink="http://www.w3.org/1999/xlink" viewBox="0 0 961.45 966.13"><defs><style>.cls-1,.cls-10{fill:none;}.cls-2{fill:url(#linear-gradient);}.cls-3{fill:url(#linear-gradient-2);}.cls-4{fill:url(#linear-gradient-3);}.cls-5{fill:url(#linear-gradient-4);}.cls-6{fill:#fdfdff;}.cls-10,.cls-6{stroke:#e6eaff;stroke-miterlimit:10;}.cls-7{fill:url(#linear-gradient-5);}.cls-8{fill:url(#linear-gradient-6);}.cls-9{fill:url(#linear-gradient-7);}.cls-11{isolation:isolate;}.cls-12{fill:url(#radial-gradient);}.cls-13{fill:url(#radial-gradient-2);}.cls-14{fill:url(#radial-gradient-3);}.cls-15{fill:url(#radial-gradient-4);}.cls-16{fill:url(#radial-gradient-5);}.cls-17{fill:#fff;}.cls-18{fill:#e4e9ff;}.cls-19{fill:#f5f7ff;}.cls-20{fill:#f2f6ff;}.cls-21{fill:#f1f3ff;}.cls-22{clip-path:url(#clip-path);}.cls-23{fill:#e7ebff;}.cls-24{fill:#e2e7ff;}.cls-25{fill:#eef1ff;}.cls-26{fill:#e8ecff;}.cls-27{fill:#fcfdff;}.cls-28{fill:#f6f8ff;}.cls-29{fill:#a7b6ff;}.cls-30{fill:#d9dfff;}.cls-31{fill:#8095ff;}.cls-32{fill:#8fa2ff;}.cls-33{fill:url(#linear-gradient-8);}.cls-34{fill:#a4b4ff;}.cls-35{fill:#d0d8ff;}.cls-36{fill:#8b9eff;}.cls-37{fill:#dde2ff;}.cls-38{fill:#9eaeff;}.cls-39{fill:#98a9ff;}.cls-40{fill:#afbcff;}.cls-41{fill:#c7d0ff;}.cls-42{fill:#dae0ff;}.cls-43{fill:#b4c0ff;}.cls-44{fill:#ccd5ff;}.cls-45{fill:#e0e6ff;}.cls-46{fill:url(#radial-gradient-6);}.cls-47{fill:#ff00e1;}.cls-48{fill:#ffb0f6;}.cls-49{fill:#b0ffd8;}.cls-50{fill:#cf00b7;}</style><linearGradient id="linear-gradient" x1="297.44" y1="916.47" x2="835.99" y2="-16.32" gradientUnits="userSpaceOnUse"><stop offset="0" stop-color="#3218bd"/><stop offset="1" stop-color="#131888"/></linearGradient><linearGradient id="linear-gradient-2" x1="188.69" y1="1104.84" x2="520.44" y2="530.23" gradientUnits="userSpaceOnUse"><stop offset="0" stop-color="#002bff" stop-opacity="0.4"/><stop offset="1" stop-color="#002bff" stop-opacity="0"/></linearGradient><linearGradient id="linear-gradient-3" x1="283.42" y1="409.57" x2="-16.1" y2="-109.22" gradientUnits="userSpaceOnUse"><stop offset="0" stop-color="#002bff" stop-opacity="0"/><stop offset="1" stop-color="#002bff" stop-opacity="0.4"/></linearGradient><linearGradient id="linear-gradient-4" x1="519.27" y1="734.18" x2="789.27" y2="266.53" xlink:href="#linear-gradient-2"/><linearGradient id="linear-gradient-5" x1="710.23" y1="737.58" x2="596.87" y2="541.22" gradientUnits="userSpaceOnUse"><stop offset="0" stop-color="#fdfdff"/><stop offset="1" stop-color="#e6eaff" stop-opacity="0.5"/></linearGradient><linearGradient id="linear-gradient-6" x1="768.44" y1="862.24" x2="664.6" y2="682.39" gradientTransform="matrix(0.5, -0.87, -0.87, -0.5, 867.31, 1487.64)" xlink:href="#linear-gradient-5"/><linearGradient id="linear-gradient-7" x1="557.33" y1="567.7" x2="772.3" y2="443.59" gradientUnits="userSpaceOnUse"><stop offset="0" stop-color="#e6eaff" stop-opacity="0.5"/><stop offset="1" stop-color="#fdfdff"/></linearGradient><radialGradient id="radial-gradient" cx="553.83" cy="600.46" r="21.17" gradientTransform="translate(19.97 345.18) scale(1 0.46)" gradientUnits="userSpaceOnUse"><stop offset="0" stop-color="#001cab" stop-opacity="0.2"/><stop offset="1" stop-color="#001cab" stop-opacity="0"/></radialGradient><radialGradient id="radial-gradient-2" cx="618.97" cy="571.33" r="53.73" gradientTransform="translate(19.97 329.4) scale(1 0.46)" gradientUnits="userSpaceOnUse"><stop offset="0" stop-color="#001cab" stop-opacity="0.2"/><stop offset="0.31" stop-color="#001cab" stop-opacity="0.2"/><stop offset="1" stop-color="#001cab" stop-opacity="0"/></radialGradient><radialGradient id="radial-gradient-3" cx="688.69" cy="692.35" r="43.93" gradientTransform="translate(19.97 394.94) scale(1 0.46)" xlink:href="#radial-gradient-2"/><radialGradient id="radial-gradient-4" cx="643.32" cy="716.56" r="34.12" gradientTransform="translate(19.97 408.05) scale(1 0.46)" xlink:href="#radial-gradient-2"/><radialGradient id="radial-gradient-5" cx="734.95" cy="664.66" r="34.12" gradientTransform="translate(19.97 379.94) scale(1 0.46)" xlink:href="#radial-gradient-2"/><clipPath id="clip-path" transform="translate(19.97 20)"><polygon class="cls-1" points="684.66 366.27 684.52 413.33 649.24 392.96 649.37 345.9 684.66 366.27"/></clipPath><linearGradient id="linear-gradient-8" x1="2039.53" y1="470.03" x2="2031.48" y2="484.3" gradientTransform="translate(-1424.87 20)" gradientUnits="userSpaceOnUse"><stop offset="0" stop-color="#fff"/><stop offset="0.57" stop-color="#f9faff"/><stop offset="1" stop-color="#f0f2ff"/></linearGradient><radialGradient id="radial-gradient-6" cx="484.42" cy="459.13" r="97.33" gradientUnits="userSpaceOnUse"><stop offset="0" stop-color="#ff00e1" stop-opacity="0.8"/><stop offset="1" stop-color="#ff00e1" stop-opacity="0"/></radialGradient></defs><title>restaurant</title><g id="Layer_2" data-name="Layer 2"><path class="cls-2" d="M203.86,277.26c-114.75-162,518.94-397,362.76-150s37.15,390,297.82,571.33S-78.23,995.3,26.44,817.3,318.61,439.21,203.86,277.26Z" transform="translate(19.97 20)"/><path class="cls-3" d="M936.47,722.67c-7.74-20.63-23.83-39.23-49.19-56.87C757.38,575.43,645.36,494,590.09,411.92,562.9,371.56,550,332.19,550.57,291.55c.64-44.09,16.95-90.82,49.86-142.88,18.33-29,28.34-54.1,30.61-76.78,2.82-28.1-6.63-52.73-26.61-69.35-18-15-43.5-22.54-75.87-22.54-4.16,0-8.5.13-12.9.37C486.22-18,451.07-10.59,414,1.67c-76.07,25.18-150.45,67-199,111.91-29.64,27.43-49.44,55.64-58.83,83.84-12.12,36.4-6.93,72,15,103,16.87,23.8,26.09,48.83,28.19,76.52,2.17,28.53-3.12,60-16.16,96.28C158.48,542,109.37,616,61.87,687.57,37.94,723.63,13.19,760.92-8,797c-23.27,39.58-11.9,81.6,29,107.06,37.15,23.14,101.27,36.45,196,40.71,19.78.89,40.91,1.34,62.8,1.34,66.31,0,139.73-4.1,212.32-11.86C591.19,923.68,685.63,906.53,758,886c40.29-11.44,74.25-24,100.92-37.31,33-16.46,55.44-34.26,68.72-54.43C942.29,772,945.44,746.55,936.47,722.67ZM258.52,500.27c17-47.21,23.85-91.59,20.39-131.92-3.51-41-17.78-79.46-42.41-114.22-7.08-10-8.39-19.39-4.37-31.43,4.94-14.84,18.17-32.74,37.25-50.4,39.95-37,105-73.24,169.78-94.68C483.15,63.06,512.09,60,528.63,60c12.69,0,19.87,1.85,23,3.17-.16,5.9-5,20.88-18.82,42.75-42.13,66.65-62.48,128.65-62.2,189.55.26,56.82,18.46,110.72,55.64,164.79,30.5,44.36,73.22,88.31,134.42,138.31,53.47,43.7,116.1,87.8,180.93,132.9,14.38,10,18.44,16.15,19.52,18.3l-.32.48C856.36,757,834.23,781.18,736.13,809,668,828.37,578.32,844.6,483.57,854.73c-70.32,7.52-140.66,11.49-203.42,11.49h0c-105.6,0-186.68-11.23-216.89-30.05l-1.08-.69C82,801.94,104.6,767.86,128.53,731.8,178.65,656.28,230.48,578.19,258.52,500.27Z" transform="translate(19.97 20)"/><path class="cls-4" d="M936.47,722.67c-7.74-20.63-23.83-39.23-49.19-56.87C757.38,575.43,645.36,494,590.09,411.92,562.9,371.56,550,332.19,550.57,291.55c.64-44.09,16.95-90.82,49.86-142.88,18.33-29,28.34-54.1,30.61-76.78,2.82-28.1-6.63-52.73-26.61-69.35-18-15-43.5-22.54-75.87-22.54-4.16,0-8.5.13-12.9.37C486.22-18,451.07-10.59,414,1.67c-76.07,25.18-150.45,67-199,111.91-29.64,27.43-49.44,55.64-58.83,83.84-12.12,36.4-6.93,72,15,103,16.87,23.8,26.09,48.83,28.19,76.52,2.17,28.53-3.12,60-16.16,96.28C158.48,542,109.37,616,61.87,687.57,37.94,723.63,13.19,760.92-8,797c-23.27,39.58-11.9,81.6,29,107.06,37.15,23.14,101.27,36.45,196,40.71,19.78.89,40.91,1.34,62.8,1.34,66.31,0,139.73-4.1,212.32-11.86C591.19,923.68,685.63,906.53,758,886c40.29-11.44,74.25-24,100.92-37.31,33-16.46,55.44-34.26,68.72-54.43C942.29,772,945.44,746.55,936.47,722.67ZM258.52,500.27c17-47.21,23.85-91.59,20.39-131.92-3.51-41-17.78-79.46-42.41-114.22-7.08-10-8.39-19.39-4.37-31.43,4.94-14.84,18.17-32.74,37.25-50.4,39.95-37,105-73.24,169.78-94.68C483.15,63.06,512.09,60,528.63,60c12.69,0,19.87,1.85,23,3.17-.16,5.9-5,20.88-18.82,42.75-42.13,66.65-62.48,128.65-62.2,189.55.26,56.82,18.46,110.72,55.64,164.79,30.5,44.36,73.22,88.31,134.42,138.31,53.47,43.7,116.1,87.8,180.93,132.9,14.38,10,18.44,16.15,19.52,18.3l-.32.48C856.36,757,834.23,781.18,736.13,809,668,828.37,578.32,844.6,483.57,854.73c-70.32,7.52-140.66,11.49-203.42,11.49h0c-105.6,0-186.68-11.23-216.89-30.05l-1.08-.69C82,801.94,104.6,767.86,128.53,731.8,178.65,656.28,230.48,578.19,258.52,500.27Z" transform="translate(19.97 20)"/></g><g id="Layer_1" data-name="Layer 1"><polygon class="cls-5" points="903.81 376.7 903.81 648.25 882.45 660.58 843.25 683.21 804.06 705.84 764.87 728.47 725.66 751.1 686.47 773.73 647.27 796.36 529.69 728.47 490.5 705.84 412.11 660.58 390.74 648.25 390.74 376.7 647.27 228.59 903.81 376.7"/><polygon class="cls-6" points="877.35 394.32 877.35 634.32 858.47 645.22 823.83 665.22 789.19 685.22 754.55 705.22 719.9 725.22 685.26 745.22 650.62 765.22 546.7 705.22 512.06 685.22 442.78 645.22 423.89 634.32 423.89 394.32 650.62 263.42 877.35 394.32"/><polygon class="cls-7" points="877.35 634.32 877.35 634.32 858.47 645.22 823.83 665.22 789.19 685.22 754.55 705.22 719.9 725.22 685.26 745.22 650.62 765.22 546.7 705.22 512.06 685.22 442.78 645.22 423.89 634.32 423.89 634.32 650.62 503.42 877.35 634.32"/><polygon class="cls-8" points="651.62 263.61 651.62 263.61 632.74 274.51 598.1 294.51 563.46 314.51 528.82 334.51 494.17 354.52 459.53 374.52 424.89 394.52 424.89 492.51 424.89 532.51 424.89 612.51 424.89 634.32 424.89 634.32 651.62 503.42 651.62 263.61"/><polygon class="cls-9" points="649.62 263.61 649.62 263.61 668.5 274.51 703.14 294.51 737.78 314.51 772.42 334.51 807.06 354.52 841.7 374.52 876.35 394.52 876.34 492.51 876.34 532.51 876.34 612.51 876.35 634.32 876.35 634.32 649.62 503.42 649.62 263.61"/><polyline class="cls-10" points="650.62 263.42 650.62 503.42 877.35 634.32"/><line class="cls-10" x1="650.62" y1="463.42" x2="423.89" y2="594.32"/><line class="cls-10" x1="650.62" y1="423.42" x2="423.89" y2="554.32"/><line class="cls-10" x1="650.62" y1="383.42" x2="423.89" y2="514.32"/><line class="cls-10" x1="650.62" y1="343.42" x2="423.89" y2="474.32"/><line class="cls-10" x1="650.62" y1="303.42" x2="423.89" y2="434.32"/><line class="cls-10" x1="650.62" y1="263.42" x2="423.89" y2="394.32"/><line class="cls-10" x1="650.62" y1="463.42" x2="877.35" y2="594.32"/><line class="cls-10" x1="650.62" y1="423.42" x2="877.35" y2="554.32"/><line class="cls-10" x1="761.71" y1="447.56" x2="877.35" y2="514.32"/><line class="cls-10" x1="650.62" y1="383.42" x2="662.41" y2="390.23"/><line class="cls-10" x1="650.62" y1="343.42" x2="877.35" y2="474.32"/><line class="cls-10" x1="650.62" y1="303.42" x2="877.35" y2="434.32"/><line class="cls-10" x1="877.35" y1="394.32" x2="650.62" y2="263.42"/><line class="cls-10" x1="458.53" y1="614.32" x2="685.26" y2="745.22"/><line class="cls-10" x1="493.17" y1="594.32" x2="719.9" y2="725.22"/><line class="cls-10" x1="754.54" y1="705.22" x2="527.81" y2="574.32"/><line class="cls-10" x1="562.45" y1="554.32" x2="789.18" y2="685.22"/><line class="cls-10" x1="823.82" y1="665.22" x2="597.09" y2="534.32"/><line class="cls-10" x1="631.74" y1="514.32" x2="858.47" y2="645.22"/><line class="cls-10" x1="842.71" y1="614.32" x2="615.98" y2="745.22"/><line class="cls-10" x1="808.07" y1="594.32" x2="581.34" y2="725.22"/><line class="cls-10" x1="773.43" y1="574.32" x2="546.7" y2="705.22"/><line class="cls-10" x1="738.79" y1="554.32" x2="512.06" y2="685.22"/><line class="cls-10" x1="704.15" y1="534.32" x2="477.41" y2="665.22"/><polyline class="cls-10" points="650.62 503.42 631.74 514.32 597.1 534.32 562.46 554.32 527.82 574.32 493.17 594.32 458.53 614.32 423.89 634.32"/><polyline class="cls-10" points="650.62 503.42 669.5 514.32 669.51 514.32 704.15 534.32 738.79 554.32 773.43 574.32 808.07 594.32 842.71 614.32 877.35 634.32"/><line class="cls-10" x1="669.5" y1="514.32" x2="442.77" y2="645.22"/><g class="cls-11"><ellipse class="cls-12" cx="573.8" cy="620.46" rx="27.65" ry="11.48"/><ellipse class="cls-13" cx="638.94" cy="591.33" rx="70.18" ry="29.13"/><ellipse class="cls-14" cx="708.66" cy="712.35" rx="57.38" ry="23.82"/><ellipse class="cls-15" cx="663.28" cy="736.56" rx="44.57" ry="18.5"/><ellipse class="cls-16" cx="754.92" cy="684.66" rx="44.57" ry="18.5"/><polygon class="cls-17" points="759.5 409.03 759.32 473.78 662.23 417.72 662.41 352.98 759.5 409.03"/><polygon class="cls-18" points="759.5 409.03 762.57 407.25 762.39 471.99 759.32 473.78 759.5 409.03"/><polygon class="cls-19" points="662.41 352.98 665.48 351.2 762.57 407.25 759.5 409.03 662.41 352.98"/></g><polygon class="cls-20" points="747.83 416.14 747.82 418.99 717.42 401.44 717.43 398.59 747.83 416.14"/><polygon class="cls-20" points="754.21 446.07 754.2 448.92 710.89 423.91 710.9 421.07 754.21 446.07"/><polygon class="cls-20" points="754.23 437.33 754.22 440.18 710.92 415.18 710.92 412.33 754.23 437.33"/><polygon class="cls-20" points="754.18 454.8 754.17 457.65 710.87 432.64 710.88 429.8 754.18 454.8"/><polygon class="cls-20" points="754.25 428.61 754.25 431.45 710.94 406.45 710.95 403.6 754.25 428.61"/><polygon class="cls-21" points="704.62 386.27 704.49 433.33 669.2 412.96 669.34 365.9 704.62 386.27"/><g class="cls-22"><path class="cls-17" d="M642.45,383.74c-14.65,6.21-14.7,16.25-.17,22.44s38.18,6.2,52.84,0,14.67-16.23.14-22.42S657.08,377.56,642.45,383.74Z" transform="translate(19.97 20)"/><path class="cls-18" d="M664.1,400.18c-1.08.45-1.08,1.19,0,1.65a5.74,5.74,0,0,0,3.88,0c1.07-.46,1.07-1.2,0-1.65A5.69,5.69,0,0,0,664.1,400.18Z" transform="translate(19.97 20)"/><path class="cls-18" d="M668.36,403.74c-1.08.45-1.08,1.19,0,1.65a5.74,5.74,0,0,0,3.88,0c1.07-.46,1.07-1.2,0-1.65A5.63,5.63,0,0,0,668.36,403.74Z" transform="translate(19.97 20)"/><path class="cls-18" d="M684.18,400.65c-1.08.46-1.08,1.2,0,1.65a5.68,5.68,0,0,0,3.88,0c1.07-.45,1.07-1.19,0-1.65A5.74,5.74,0,0,0,684.18,400.65Z" transform="translate(19.97 20)"/><path class="cls-18" d="M670.62,399.9c-1.08.45-1.08,1.19,0,1.64a5.63,5.63,0,0,0,3.88,0c1.08-.45,1.08-1.19,0-1.64A5.6,5.6,0,0,0,670.62,399.9Z" transform="translate(19.97 20)"/><path class="cls-23" d="M676.25,399l.12-.49c.94-1.63,2.37-.59,3.77-.48.64,0,1.32-.3,2,.12.26.17.31.33.48.48s-.07.47.09.62c.35.34,1.5.29,2,.38a1.85,1.85,0,0,1,0,.81,3.3,3.3,0,0,1-2.2.41c-.34,0-.82-.36-1.19-.27s-.39.56-.75.7c-1.36.55-1.54-.45-2.52-.71-.47-.12-.83.24-1.26,0-.23-.11-.48-.62-.68-.78A.71.71,0,0,1,676.25,399Z" transform="translate(19.97 20)"/><path class="cls-24" d="M659.85,403.28l.12-.49c.94-1.63,2.37-.58,3.77-.48.64.05,1.32-.3,2,.12.26.17.31.33.48.48s-.07.47.09.62c.35.34,1.5.29,2,.39a1.8,1.8,0,0,1,0,.8,3.3,3.3,0,0,1-2.2.41c-.34,0-.82-.35-1.19-.27s-.4.56-.75.7c-1.36.55-1.54-.44-2.52-.7-.47-.13-.83.24-1.26,0-.23-.11-.48-.62-.68-.79A.71.71,0,0,1,659.85,403.28Z" transform="translate(19.97 20)"/><path class="cls-23" d="M665.61,398.28l.12-.49c.94-1.63,2.37-.59,3.77-.49.64.05,1.32-.29,2,.13.26.17.31.32.49.47s-.07.48.08.63c.35.33,1.5.28,2,.38a1.8,1.8,0,0,1,0,.8,3.29,3.29,0,0,1-2.19.42c-.35,0-.83-.36-1.19-.27s-.4.56-.76.7c-1.36.55-1.54-.45-2.52-.71-.47-.12-.83.24-1.26,0-.23-.11-.48-.62-.68-.78A.71.71,0,0,1,665.61,398.28Z" transform="translate(19.97 20)"/><path class="cls-23" d="M671.22,402.12l.12-.49c.94-1.63,2.37-.59,3.77-.48.64,0,1.32-.3,1.95.12.26.17.3.33.48.48s-.07.47.09.62c.35.33,1.5.29,2,.38a1.85,1.85,0,0,1,0,.81,3.36,3.36,0,0,1-2.2.41c-.34,0-.82-.36-1.19-.27s-.4.56-.75.7c-1.36.55-1.55-.45-2.52-.71-.47-.12-.83.24-1.26,0-.23-.11-.48-.62-.68-.78A.71.71,0,0,1,671.22,402.12Z" transform="translate(19.97 20)"/><path class="cls-18" d="M678.7,398.71c-1.08.45-1.08,1.19,0,1.64a5.63,5.63,0,0,0,3.88,0c1.08-.45,1.08-1.19,0-1.64A5.6,5.6,0,0,0,678.7,398.71Z" transform="translate(19.97 20)"/><path class="cls-18" d="M670.62,396.79c-1.08.45-1.08,1.19,0,1.64a5.63,5.63,0,0,0,3.88,0c1.08-.45,1.08-1.19,0-1.64A5.6,5.6,0,0,0,670.62,396.79Z" transform="translate(19.97 20)"/><path class="cls-18" d="M678.7,401.82c-1.08.45-1.08,1.19,0,1.64a5.63,5.63,0,0,0,3.88,0c1.08-.45,1.08-1.19,0-1.64A5.6,5.6,0,0,0,678.7,401.82Z" transform="translate(19.97 20)"/><path class="cls-18" d="M680.14,388.67c-.56-1.12-1.8-.63-2.52-1.65a15.19,15.19,0,0,0-1.93-2.49,3.32,3.32,0,0,0-2.88-.95l-4.12.57c-.89.5-2.07.21-3,.72a8.4,8.4,0,0,0-1.08.91,6.11,6.11,0,0,1-3.54,1.09c-2.63.17-5.3,0-7.86.59a13.18,13.18,0,0,0-4.17,1.78c-.36.23-1-1.49-1.21-1.14-.49.7-.18,3.67.26,4.41a3.69,3.69,0,0,0,2,1.5,4.16,4.16,0,0,1,.85.33,2.59,2.59,0,0,1,.67.65,11.76,11.76,0,0,0,2.16,2.67c1.56,1.12,3.75.76,5.48-.06s3.26-2.07,5.07-2.7c2.51-.87,5.27-.46,7.85.18a14.53,14.53,0,0,0,4.21.68,4.08,4.08,0,0,0,3.54-2A8.08,8.08,0,0,0,680.14,388.67Z" transform="translate(19.97 20)"/><path class="cls-25" d="M679.74,387.59a25,25,0,0,0-2.12-3.1,15.55,15.55,0,0,0-1.93-2.48,3.26,3.26,0,0,0-2.88-.95l-4.12.56c-.89.51-2.07.22-3,.72a9.38,9.38,0,0,0-1.08.92,6,6,0,0,1-3.54,1.08c-2.63.18-5.3,0-7.86.6a13,13,0,0,0-4.17,1.78,3.16,3.16,0,0,0-1,.83,2.29,2.29,0,0,0,0,2.43,3.66,3.66,0,0,0,2,1.51,4.16,4.16,0,0,1,.85.33,2.44,2.44,0,0,1,.67.65,12,12,0,0,0,2.16,2.67c1.56,1.12,3.75.76,5.48-.07s3.26-2.07,5.07-2.69c2.51-.87,5.27-.46,7.85.18a14.88,14.88,0,0,0,4.21.68,4.07,4.07,0,0,0,3.54-2A4.23,4.23,0,0,0,679.74,387.59Z" transform="translate(19.97 20)"/><path class="cls-26" d="M674.23,388.31c-.27-.39-.61-.73-.84-1.14a7.34,7.34,0,0,1-.51-1.52,7.92,7.92,0,0,0-1.35-2.65l-.27-.28c-.07-.19-.38-.15-.47,0a.74.74,0,0,0,0,.58,28.09,28.09,0,0,0,3.49,7,.81.81,0,0,0,.29.29.28.28,0,0,0,.37-.09.55.55,0,0,0,0-.22A4.38,4.38,0,0,0,674.23,388.31Z" transform="translate(19.97 20)"/><path class="cls-26" d="M668.78,387.86a3.36,3.36,0,0,1-.58-2.36,1.51,1.51,0,0,0-.65-1.25l-.38,0-.14-.16a.63.63,0,0,0-.22.58,6.22,6.22,0,0,0,.39,1.64c.35,1.07.71,2.13,1.06,3.2a2.43,2.43,0,0,0,.39.79.77.77,0,0,0,.79.26A7.93,7.93,0,0,0,668.78,387.86Z" transform="translate(19.97 20)"/><path class="cls-26" d="M663.67,388.62c-.59-1.14-.95-2.48-1.92-3.33l-.27.42c.28,1,1.09,1.88,1.4,2.92a15,15,0,0,0,.37,1.47c0,.13.13.27.27.29a.32.32,0,0,0,.23-.07.88.88,0,0,0,.28-.84A3.41,3.41,0,0,0,663.67,388.62Z" transform="translate(19.97 20)"/><path class="cls-26" d="M659.49,390.3q-1.4-2.12-2.78-4.24l-.2-.16c-.27-.12-.57.19-.56.49a1.42,1.42,0,0,0,.39.78,42.55,42.55,0,0,1,3.07,4.26c.19.3.41.63.76.7A3,3,0,0,0,659.49,390.3Z" transform="translate(19.97 20)"/><path class="cls-26" d="M655.72,392.22a8.39,8.39,0,0,0-3.22-4.11l-.13-.22-.2-.06a1.71,1.71,0,0,0,.41,1.18,10.39,10.39,0,0,1,1.7,2.29,7.41,7.41,0,0,0,.25.71,1.57,1.57,0,0,0,1.26.89A1,1,0,0,0,655.72,392.22Z" transform="translate(19.97 20)"/><path class="cls-27" d="M657.11,374.22a9.17,9.17,0,0,0-8.32,0c-2.29,1.33-2.28,3.49,0,4.82a9.17,9.17,0,0,0,8.32,0C659.42,377.71,659.41,375.55,657.11,374.22Z" transform="translate(19.97 20)"/><path class="cls-28" d="M643.64,354h18.64c0,6-5.26,9.61-8.3,13.25-1.44,1.73,0,9,0,9s-.06.44-1,.44-1-.44-1-.44,1.44-7.24,0-9C648.9,363.58,643.64,360,643.64,354Z" transform="translate(19.97 20)"/><path class="cls-18" d="M653,360.22l7-.41s-5,6.18-7,7c-2-.79-7-7-7-7Z" transform="translate(19.97 20)"/><path class="cls-17" d="M659.53,351.38a20.78,20.78,0,0,0-13.18,0c-3.63,1.43-3.61,3.75,0,5.18a20.65,20.65,0,0,0,13.18,0C663.2,355.13,663.18,352.81,659.53,351.38Z" transform="translate(19.97 20)"/><path class="cls-25" d="M657.9,358.85a35.83,35.83,0,0,0-9.92,0c-2.73.47-2.71,1.22,0,1.68a35.83,35.83,0,0,0,9.92,0C660.67,360.07,660.65,359.32,657.9,358.85Z" transform="translate(19.97 20)"/></g><path class="cls-29" d="M604.62,416.54a5.53,5.53,0,0,0,3.34,3.8c2.89,1.22,7.91,4.26,7.91,6.69,0,0,1.21-4.43,3.49-2.28,1.37,1.29-1.56,4.73-3.19,5.56-6.86,3.5-3.22,10.6-3.22,10.6s5.67,9.31,7.87,7.91c1.7-1.08-1.46-8.95,1.43-13.41,3.74-5.77,3.49-15.22,1.06-19.63s-8.81-6.38-13.52-5.47-7,3.42-7.18,8.32-.23,17.73-2.4,18.87l9,.32s-1.21-1.83-1.32-7.41S603.1,418.9,604.62,416.54Z" transform="translate(19.97 20)"/><path class="cls-30" d="M608,436.07l-3.58-.29L601.66,439,596,451l.76,3.58-1,14.43,24.73,13.15s1.06-2.28,0-6.23-5.78-19.23-3.12-25a39.23,39.23,0,0,1,4.94-8.44,18.42,18.42,0,0,0-2.89-2.58c-1.06-.61-6.59-1.6-6.59-1.6Z" transform="translate(19.97 20)"/><path class="cls-31" d="M604.75,457s5-12.81,13.45-17.59c-2-.56-4.9-1.72-4.9-1.72L608,436.07l-2.58-.21C604.67,439.85,602.34,453.8,604.75,457Z" transform="translate(19.97 20)"/><polygon class="cls-32" points="637.34 552.18 637.47 613.14 549.04 561.37 548.91 499.07 637.34 552.18"/><polygon class="cls-31" points="681.73 526.55 681.86 587.51 637.47 613.14 637.34 552.18 681.73 526.55"/><polygon class="cls-17" points="594.97 472.58 677.95 522.16 687.16 527.88 637.15 556.75 544.96 501.46 594.97 472.58"/><polygon class="cls-19" points="637.15 556.75 637.28 562.74 545.1 507.44 544.96 501.46 637.15 556.75"/><polygon class="cls-18" points="687.16 527.88 687.3 533.86 637.28 562.74 637.15 556.75 687.16 527.88"/><polygon class="cls-33" points="610 487.58 586.59 492.43 611.26 506.77 634.66 501.92 610 487.58"/><polygon class="cls-32" points="610 487.58 586.59 492.43 611.26 506.77 634.66 501.92 610 487.58"/><polygon class="cls-19" points="590.7 493.1 609.74 489.16 630.55 501.25 611.51 505.19 590.7 493.1"/><polygon class="cls-18" points="611.51 505.19 609.74 489.16 630.55 501.25 611.51 505.19"/><polygon class="cls-32" points="609.59 517.73 584.92 503.4 584.89 493.41 609.56 507.75 609.59 517.73"/><polygon class="cls-34" points="609.56 507.75 584.89 493.41 586.59 492.43 611.26 506.77 609.56 507.75"/><polygon class="cls-31" points="611.26 506.77 634.66 501.92 634.67 503.25 609.59 517.73 609.56 507.75 611.26 506.77"/><polygon class="cls-18" points="634.64 532.81 657.85 519.65 657.94 516.74 634.74 529.89 634.64 532.81"/><polygon class="cls-32" points="634.74 529.89 657.94 516.74 641.69 507.75 618.48 520.91 634.74 529.89"/><polygon class="cls-19" points="618.48 520.91 618.38 523.82 634.64 532.81 634.74 529.89 618.48 520.91"/><polygon class="cls-17" points="647.52 520.5 653.88 516.73 641.09 509.66 634.74 513.42 647.52 520.5"/><path class="cls-35" d="M608.26,434.78a15.19,15.19,0,0,0-.61,3.78c.08,1.44,4.32,1.35,5.84-.17s2.51-7.15,2.51-7.15Z" transform="translate(19.97 20)"/><path class="cls-18" d="M616.93,431c1.37-1.22,3.8-4.94,2.43-6.23-2.28-2.15-3.49,2.28-3.49,2.28,0-2.43-5-5.47-7.91-6.69a5.53,5.53,0,0,1-3.34-3.8c-1.52,2.36-.53,7.33-.42,12.92a10.18,10.18,0,0,0,1.66,5.86,5.29,5.29,0,0,0,5.52.33,31.66,31.66,0,0,0,4.62-3.2A4.91,4.91,0,0,1,616.93,431Z" transform="translate(19.97 20)"/><path class="cls-18" d="M596.18,468s2.93,4.8,9.52,3.16-6.86-7.27-6.86-7.27h-3.42Z" transform="translate(19.97 20)"/><path class="cls-31" d="M604.4,435.78s-1.38-.73-4.19.5c-3.31,1.45-14.13,13.77-16,18.26s-.69,5.7,1,7,9,7,11,6.46c0,0-.83-3.88,2.66-4.11,0,0-1-3-5.69-5.85,0,0,1.44-3.11,3.57-3.49A56.29,56.29,0,0,1,604.4,435.78Z" transform="translate(19.97 20)"/><path class="cls-18" d="M599.17,475.41a9.68,9.68,0,0,0-9.52,0c-2.32,1.24-3.65,5.19.61,4.89s4.4,2.43,9,.49S599.17,475.41,599.17,475.41Z" transform="translate(19.97 20)"/><path class="cls-31" d="M622.25,442.45s4.63,3,4.63,11.9.65,23.36-4.63,23.82-23,2.62-23,2.62-.68-4,0-5.81,15.73-4.33,18.81-4.22c0,0-2.76-16.45-2.17-19C617.57,444.83,620.35,443.29,622.25,442.45Z" transform="translate(19.97 20)"/><path class="cls-18" d="M538.34,595.17s2,.55,3.56-2.19c4.16-7.49,5.69-3.15,5.69-3.15l-.49,1-.19,5.61-6.7,3-2.41-2.78Z" transform="translate(19.97 20)"/><path class="cls-29" d="M548.74,589.59s2.25,2.33,2.19,4.69-1,4.22-.43,5.73l-2.93.52-1-1.6a5.33,5.33,0,0,1-2.32,1.89c-1.71.82-7.93-.23-7.93-.23s-2.34-1.35-1.87-3,3.88-2.38,3.88-2.38.55,2.21,2.47,1.73,4-3.06,4.54-5.46S548.74,589.59,548.74,589.59Z" transform="translate(19.97 20)"/><path class="cls-31" d="M550,563.08c-.65-1.75,0-19.14,1.25-24.37s-2.26-11-2.26-11l-11.52,7.33v8.2s.45,16.38,3.35,19.85c1.48,3.72,2.47,27.75,2.47,27.75,2.85,2.58,6.53.13,6.53.13-.52-2.85,1-14.58,1.27-18.39A41.55,41.55,0,0,0,550,563.08Z" transform="translate(19.97 20)"/><path class="cls-18" d="M520.4,602.09s2,.56,3.56-2.19c4.15-7.48,5.68-3.14,5.68-3.14l-.48,1-.19,5.61-6.7,3-2.41-2.78Z" transform="translate(19.97 20)"/><path class="cls-29" d="M530.8,596.52s2.25,2.33,2.19,4.69-1,4.22-.44,5.73l-2.93.52-1-1.6a5.42,5.42,0,0,1-2.32,1.89c-1.71.82-7.93-.24-7.93-.24s-2.34-1.35-1.87-3,3.88-2.39,3.88-2.39.55,2.22,2.46,1.74,4-3.06,4.54-5.46S530.8,596.52,530.8,596.52Z" transform="translate(19.97 20)"/><path class="cls-31" d="M523.94,539s-4.24,15.78-4.47,20.77,2.13,11.67,3.22,19.27,2.68,18.66,2.68,18.66,3.26,2.23,6.45.11a24.31,24.31,0,0,1-.69-8.5c.48-4.51.39-20.94-1.91-27.28,0,0,4.61-11.31,7.36-13.9s6.28-11.37,3-17.54S523.94,539,523.94,539Z" transform="translate(19.97 20)"/><polygon class="cls-35" points="558.22 507.24 559 511.43 553.07 512.73 552.59 508.73 558.22 507.24"/><path class="cls-18" d="M527.21,477.05s-1.76,10.37,4.87,12,6.17-7.68,6.17-7.68l-3.61-5.7Z" transform="translate(19.97 20)"/><path class="cls-31" d="M526.73,476s.07-8.54,7.21-9.54c6.63-.93,13,2.09,13.26,11.63s-8.37,13-15.12,10.94a30.2,30.2,0,0,0,1.16-6.75c0-2.79-1.39-4.89-2.32-.7C530.92,481.6,527.66,478.58,526.73,476Z" transform="translate(19.97 20)"/><path class="cls-31" d="M542.7,475.38a5.17,5.17,0,1,0,3.84-6.18A5.14,5.14,0,0,0,542.7,475.38Z" transform="translate(19.97 20)"/><path class="cls-29" d="M544.63,470.1a5.08,5.08,0,0,0,2.18,9.11,4.9,4.9,0,0,1-2.18-9.11Z" transform="translate(19.97 20)"/><path class="cls-29" d="M547.44,497.88s-.94-8.52-6.75-8.64-11.4,1.43-13,4.52c-1.79,3.4-2.79,6,0,16.69s.23,21.4-2.56,25.59,0,3.72,0,3.72,17-.73,24.2-12.36c0,0-2.33-4.39-2.33-8.35S548,501.49,547.44,497.88Z" transform="translate(19.97 20)"/><path class="cls-18" d="M530.53,519.75c-.26-2.7,2.62-14.59,3.17-20.12s-3.77-6.2-3.77-6.2c-6.52,1.09-5.87,19.9-5.4,22.84.2,1.28.45,2.08.58,2.78a5.45,5.45,0,0,1-.63.68c-1.91,1.88-5.65,13.19-6,15.1s.25,2.62-1.64,2.94-2.81.84-2.58,1.55-3.08,3.67-3.16,4.83c-.05.63,1.61,1.51,4.25,1.59s4.62-3.15,5.26-6,5.31-8.89,7.57-12.51C530.23,523.92,530.72,521.67,530.53,519.75Z" transform="translate(19.97 20)"/><polygon class="cls-36" points="724.52 679.98 728.31 677.8 728.23 649.59 724.44 650.14 724.52 679.98"/><polygon class="cls-32" points="748.97 640 773 653.97 773.06 679.49 775.89 681.14 775.81 652.93 746.15 635.69 746.23 663.9 748.97 665.49 748.97 640"/><polygon class="cls-34" points="751.03 662.56 721.37 645.33 749.92 628.89 779.58 646.13 751.03 662.56"/><polygon class="cls-34" points="781.36 621.1 751.69 603.86 755.89 601.52 785.56 618.76 781.36 621.1"/><polygon class="cls-32" points="724.63 653.53 747.78 666.98 747.84 693.54 751.11 695.44 751.03 662.56 721.37 645.33 721.45 678.2 724.55 680 724.63 653.53"/><polygon class="cls-32" points="775.81 648.36 746.15 631.12 751.68 603.85 781.35 621.09 775.81 648.36"/><polygon class="cls-31" points="754.2 660.78 779.58 646.13 779.68 678.95 775.89 681.14 775.81 652.93 754.82 665.05 754.9 693.25 751.11 695.44 751.03 662.56 754.2 660.78"/><polygon class="cls-31" points="779.58 648.36 785.56 618.76 781.35 621.09 775.89 648.36 779.58 648.36"/><path class="cls-29" d="M720.2,564.4s.46-7.39,3.37-6.16,8,4.3,8,6.75c0,0,1.23-4.47,3.53-2.3,1.38,1.3-1.58,4.78-3.22,5.62-6.93,3.53-3.25,10.7-3.25,10.7s5.72,9.4,7.94,8c1.72-1.09-1.47-9,1.44-13.54,3.78-5.83,3.53-15.37,1.08-19.82s-8.9-6.45-13.66-5.53-7,3.45-7.25,8.4-.23,17.9-2.41,19l9.13.33s-1.23-1.85-1.35-7.49S718.66,566.78,720.2,564.4Z" transform="translate(19.97 20)"/><path class="cls-31" d="M734.31,629.89c-1.07-1.84-.95-2.48-2.79-5.23a1.84,1.84,0,0,0,.05-.25c0-.06,0-.13,0-.19a.14.14,0,0,0-.06-.14l-.07,0a.11.11,0,0,0-.08,0,12,12,0,0,1-3.34,1.72v-.43a6.86,6.86,0,0,0-.05-.83,6.86,6.86,0,0,1-1.1.26A5.24,5.24,0,0,1,727,626v.31c-1,.29-1.82-7.13-2.53-9.74l-15-3.2s-.51,9.54-.51,10l-1.61,10.74q.06,7.85-.16,11.52c-.15,2.31-.39,4.94-.7,7.88h27.15v0c.17-2.69-1.44-5.76-1.6-7-.8-6.38,3.49-4.17,4.32-9.81C736.78,634.14,735.26,631.52,734.31,629.89Z" transform="translate(19.97 20)"/><path class="cls-31" d="M723.26,574.83c-.75-.61-3.45-.26-4-.23a23.71,23.71,0,0,0-3.95.28,8.37,8.37,0,0,0-3.57,2.15c-.59.51-1.24,1.13-2,1.88a54.82,54.82,0,0,0-3.95,4.57l-.43.53c-1.15,1.49-2.44,3.33-3.85,5.46-5.53-3.51-8.56-5.45-9-5.76a2.12,2.12,0,0,0-.46-.29c-.56-.28-.54.46-1.47.46l-1.43-1a.1.1,0,0,0-.09,0,.08.08,0,0,0,0,.08,2.25,2.25,0,0,0,.62.59l0,0a4.14,4.14,0,0,1,.17,1.08,2.63,2.63,0,0,1-.91,1.83.08.08,0,0,0,0,.1l-.14.12c-.18.15-.3.26-.36.3l-1.16,1.17a12.62,12.62,0,0,0,1.64,1.3c-.28.28-.22.7.18,1.25a26.1,26.1,0,0,0,1.88,2.31,32.27,32.27,0,0,0,7,5.09l5.42,1.37c1.29-.61,3.56-1.64,5.82-2.74-1.17,3.58-2.49,7.5-4,11.81a42.45,42.45,0,0,0-.74,5.38,20.9,20.9,0,0,0,.55,7.51,9.18,9.18,0,0,0,1.38,2.76,4.06,4.06,0,0,0,1,.79,6,6,0,0,0,1.66.69c.06-.7.11-1.35.14-1.94a9.31,9.31,0,0,1,.69-3.09c.67-1.32,2.51-5.75,2.2-5.93a1.79,1.79,0,0,1-.18-.14,1.5,1.5,0,0,1-.69-1.25,1.14,1.14,0,0,1,.18-.64l0-.05a.65.65,0,0,1,0-.27,8.64,8.64,0,0,1,.79-2,23.48,23.48,0,0,0,2-1.63,8.23,8.23,0,0,1,0-2.8c.28-2.45.75-3.94.39-6.37-.18-1.17-3.09-3.25-2.19-4.05s2-1.17,2.82-1.91a2.85,2.85,0,0,0,1-1.33c.16-.68-.25-1.47,0-2.13.32-.94,2.17-.45,3.25-2.84.16-.33-.72-1.75-1.81-3.41,1-1.69,2.05-3.36,3.21-5,.48-.69.85-1.2,1.19-1.65a9.53,9.53,0,0,0,1.33-1.72A.53.53,0,0,0,723.26,574.83Z" transform="translate(19.97 20)"/><path class="cls-37" d="M731.94,631.06l-.59-.6a.84.84,0,0,0-.23-.23,16.88,16.88,0,0,0-2.17-1.75,22.66,22.66,0,0,0-2.52.88l-.6-.05a6.88,6.88,0,0,0-1.57.37,10.4,10.4,0,0,0-1.52.6.14.14,0,0,0-.1,0c-1,.5-1.56.89-1.56,1.2s.15.36.46.42a1.61,1.61,0,0,1,.37,0,.8.8,0,0,1,.32,0,.26.26,0,0,1-.05.14,33.75,33.75,0,0,1-1.29,3.67c.15.56.34,1.21.56,2a15.48,15.48,0,0,0,.64,2,2,2,0,0,0,1.62,1,3.6,3.6,0,0,1,1.38.37c.59.15,1-.11,1.38-.79a.62.62,0,0,0,.14-.27,5.54,5.54,0,0,1,.5-2.26l1.06-.46a3.87,3.87,0,0,1,.5-.28c.28-.15.57-.33.88-.51l1-.69.18-.09a6.2,6.2,0,0,0,1.48-1.1.84.84,0,0,0,.23-.23l.64-1a.26.26,0,0,0,.09-.14c0-.09.09-.18.14-.28A6.59,6.59,0,0,0,731.94,631.06Z" transform="translate(19.97 20)"/><path class="cls-38" d="M734.62,631.15a3.8,3.8,0,0,0-.32-.6,6.85,6.85,0,0,0-.92-1.24,4.92,4.92,0,0,0-.79-.79l-.05,0a16.15,16.15,0,0,0-2.07-1.48L729,628.48a16.88,16.88,0,0,1,2.17,1.75.84.84,0,0,1,.23.23l.59.6a6.59,6.59,0,0,1,1.34,2,.34.34,0,0,1,.05.19,12.22,12.22,0,0,0,1.47-1.71C734.75,631.4,734.68,631.28,734.62,631.15Z" transform="translate(19.97 20)"/><path class="cls-31" d="M744.47,590.5c-.09-2.62-.28-4.83-2.35-7a14.18,14.18,0,0,0-3.31-2.77c-1.31-.77-2.77-1.23-4.1-2-.59-.33-.58-.73-.7-1.37a7.17,7.17,0,0,0-.77-2.37,3.62,3.62,0,0,0-.58-.77c-.11-.11-1.08-.53-1.09-.62,0,.22-.15.42-.15.64a17.07,17.07,0,0,1,0,1.81c-.1.25.17.36,0,.64,0,.06.26.15.24.21h0a.11.11,0,0,0-.1.07c-.7,1.79-1.37,3.47-2,5-3,7.78-4.6,12-4.88,13-.53,2-1,4-1.29,6a76.65,76.65,0,0,0-.86,15.21c.18,4.52,1.26,8.92,1.76,13.4a6.88,6.88,0,0,1,1.57-.37l.6.05a22.66,22.66,0,0,1,2.52-.88s1.44-1.4,1.46-1.38a15.2,15.2,0,0,1,2.06,1.47l0,0a3.91,3.91,0,0,1,.76.76,6.56,6.56,0,0,1,.92,1.23.12.12,0,0,0,.1.06s0,0,.05,0a4.11,4.11,0,0,1,.27.51c.06.13.13.25.18.37a1.78,1.78,0,0,1,.14.46.17.17,0,0,1,0,.14,4.44,4.44,0,0,1,.15.52,4.44,4.44,0,0,0-.15-.52.17.17,0,0,0,0-.14,1.78,1.78,0,0,0-.14-.46,12.22,12.22,0,0,1-1.47,1.71.34.34,0,0,0-.05-.19c0,.1-.1.19-.14.28a.26.26,0,0,1-.09.14l-.64,1a.84.84,0,0,1-.23.23,6.2,6.2,0,0,1-1.48,1.1l-.18.09-1,.69a7.16,7.16,0,0,0,6.54-1.6c.33-.25,3.33-2.57,3.17-3-.43-1.19-1.08-3.19-.77-4.39.49-1.87,1.87-3.82,2.62-5.63,1.24-3,2.84-5.8,3.71-8.91s.27-6,.15-9.18c-.15-4-.29-8-.45-12C744.5,591.37,744.48,590.93,744.47,590.5Zm-10.08,28.41a55.69,55.69,0,0,1-1.89-9.35c.33-.51.7-1.1,1.11-1.75l2.42-3.72.77,7.87a7.69,7.69,0,0,1-.69,2.9C735.57,616.26,735,617.58,734.39,618.91Z" transform="translate(19.97 20)"/><polygon class="cls-18" points="708.85 610.09 707.49 609.11 710.31 602.54 712.3 603.6 708.85 610.09"/><path class="cls-35" d="M726.47,585.06a4.08,4.08,0,0,1,2.82-5l.39-.11.23-.14c.26-.23.52-.45.76-.7.43-.45.5-2.14,1-2.32-.13-4.61.23-6.65.19-8.89a4.08,4.08,0,0,0-4.41.49l-4.07,2.78c-.22,1.4-.51,3.62-.87,6.63q-.16,1.3-.33,2.4c0,.21-.07.43-.11.65v.22c-.15,1-.27,1.93-.38,2.65a6.58,6.58,0,0,0,.54,1.47c.29.48.51.83.66,1.09a11.68,11.68,0,0,0,3.69-.9C726.58,585.29,726.52,585.18,726.47,585.06Z" transform="translate(19.97 20)"/><path class="cls-18" d="M731.71,576.82a2.67,2.67,0,0,1-.36.14,13.65,13.65,0,0,1-6.34,2.76c-2.42.34-2.32-2.65-2.19-4.08-5,6.24-8.2,13-10.89,20.48a7,7,0,0,0-.65,2.48c0,1.34.9.91,1.38,1.71.37.64-.54,3-.64,3.84a30.87,30.87,0,0,0-.17,4.3,10.36,10.36,0,0,1-.05,2.55,6.44,6.44,0,0,0-.48,2.59c.26,1.24,1.53,1.43,2.55,1.79,2.76,1,5.89,2.24,8.87,1.72.23,0,.47-12.93.62-14.17a55.88,55.88,0,0,1,3.46-13.31c1.59-4.19,3.18-8.35,4.8-12.52C731.66,577,731.68,576.91,731.71,576.82Z" transform="translate(19.97 20)"/><path class="cls-18" d="M732.62,569c1.39-1.23,3.84-5,2.46-6.29-2.3-2.17-3.53,2.3-3.53,2.3,0-2.45-5.06-5.52-8-6.75s-3.91,3.57-3.8,9.21c.06,3-.1,4.82.67,5.91a5.35,5.35,0,0,0,5.58.34,48.31,48.31,0,0,0,5.67-3.23A5.27,5.27,0,0,1,732.62,569Z" transform="translate(19.97 20)"/><g class="cls-11"><polygon class="cls-39" points="676.44 709.85 676.43 713.47 676.36 700.73 676.37 697.11 676.44 709.85"/><polygon class="cls-18" points="729.53 709.86 729.52 713.47 714.02 722.48 714.03 718.86 729.53 709.86"/><polygon class="cls-18" points="692.04 718.86 692.03 722.48 676.43 713.47 676.44 709.85 692.04 718.86"/><polygon class="cls-19" points="714.03 718.86 714.02 722.48 692.03 722.48 692.04 718.86 714.03 718.86"/><polygon class="cls-17" points="729.46 697.12 729.53 709.86 714.03 718.86 692.04 718.86 676.44 709.85 676.37 697.11 691.86 688.11 713.86 688.11 729.46 697.12"/></g><g class="cls-11"><path class="cls-31" d="M685.84,634a.87.87,0,0,1-.05.28v0a1.87,1.87,0,0,1-.12.25l0,0a1.19,1.19,0,0,1-.22.23s-.12.09-.18.14l-.17.12a3.13,3.13,0,0,1-.52.23l-.2.06a2.44,2.44,0,0,1-.26.06,1.91,1.91,0,0,1-.33.06h-.08c-.14,0-.3,0-.45,0h-.07l-.44,0h-.07a3.07,3.07,0,0,1-.42-.07h-.05l-.4-.12-.06,0-.41-.19a1.91,1.91,0,0,1-.59-.52,1,1,0,0,1-.19-.58l-.14,47.7a1.32,1.32,0,0,0,.79,1.09l.38.19h0l.08,0,.23.08.14,0h0l.09,0,.27,0h.79l.3,0h.1l.24,0,.09,0,.27-.06.14,0,.06,0a3,3,0,0,0,.52-.22l0,0,.14-.1c.06,0,.13-.09.18-.14h0l.16-.18,0,0,0-.06,0,0c0-.08.06-.13.08-.18v0a.44.44,0,0,0,0-.1.78.78,0,0,0,0-.16v0h0Z" transform="translate(19.97 20)"/><path class="cls-40" d="M685.05,632.9a1.15,1.15,0,0,1,0,2.18,4.15,4.15,0,0,1-3.76,0c-1-.61-1-1.58,0-2.18A4.12,4.12,0,0,1,685.05,632.9Z" transform="translate(19.97 20)"/></g><g class="cls-11"><polygon class="cls-39" points="660.41 662.7 660.4 668.5 660.28 648.06 660.3 642.26 660.41 662.7"/><polygon class="cls-18" points="745.61 662.71 745.59 668.5 720.72 682.95 720.74 677.16 745.61 662.71"/><polygon class="cls-18" points="685.45 677.16 685.44 682.96 660.4 668.5 660.41 662.7 685.45 677.16"/><polygon class="cls-19" points="720.74 677.16 720.72 682.95 685.44 682.96 685.45 677.16 720.74 677.16"/><polygon class="cls-17" points="745.49 642.27 745.61 662.71 720.74 677.16 685.45 677.16 660.41 662.7 660.3 642.26 685.17 627.81 720.45 627.81 745.49 642.27"/></g><path class="cls-19" d="M659.71,624.64a4.83,4.83,0,0,0-4.35,0,1.33,1.33,0,0,0,0,2.52,4.77,4.77,0,0,0,4.35,0A1.33,1.33,0,0,0,659.71,624.64Z" transform="translate(19.97 20)"/><path class="cls-18" d="M652.67,614.06h9.74c0,3.14-2.75,5-4.34,6.93-.75.9,0,4.68,0,4.68s0,.23-.53.23-.53-.23-.53-.23.75-3.78,0-4.68C655.42,619.08,652.67,617.2,652.67,614.06Z" transform="translate(19.97 20)"/><path class="cls-29" d="M657.54,617.32l3.67-.21s-2.64,3.23-3.67,3.64c-1-.41-3.67-3.64-3.67-3.64Z" transform="translate(19.97 20)"/><path class="cls-19" d="M661,612.7a11,11,0,0,0-6.89,0c-1.89.75-1.88,2,0,2.71a10.83,10.83,0,0,0,6.89,0C662.89,614.67,662.88,613.45,661,612.7Z" transform="translate(19.97 20)"/><path class="cls-41" d="M660.12,616.61a18.72,18.72,0,0,0-5.18,0c-1.43.24-1.42.63,0,.88a18.72,18.72,0,0,0,5.18,0C661.57,617.24,661.56,616.85,660.12,616.61Z" transform="translate(19.97 20)"/><path class="cls-18" d="M648.61,698.15s-2.36.64-4.12-2.54c-4.82-8.68-6.6-3.65-6.6-3.65l.57,1.16.22,6.51,7.77,3.43,2.79-3.22Z" transform="translate(19.97 20)"/><path class="cls-29" d="M636.56,691.68s-2.61,2.71-2.54,5.45,1.16,4.89.5,6.64l3.4.61,1.14-1.86a6.21,6.21,0,0,0,2.69,2.19c2,.95,9.2-.27,9.2-.27s2.71-1.57,2.16-3.52-4.5-2.77-4.5-2.77-.63,2.57-2.85,2-4.69-3.56-5.27-6.34S636.56,691.68,636.56,691.68Z" transform="translate(19.97 20)"/><path class="cls-36" d="M644.3,675.4c-1.73,4.31-1.41,17.75-1.41,17.75-3.31,3-7.58.15-7.58.15.61-3.31-1.18-16.91-1.47-21.34S647.65,671.37,644.3,675.4Z" transform="translate(19.97 20)"/><path class="cls-18" d="M659.74,705.39s-2.36.64-4.13-2.54c-4.82-8.69-6.59-3.65-6.59-3.65l.56,1.16.22,6.51,7.77,3.43,2.79-3.23Z" transform="translate(19.97 20)"/><path class="cls-29" d="M647.68,698.92s-2.61,2.71-2.54,5.45,1.17,4.89.5,6.64l3.4.6,1.14-1.86a6.35,6.35,0,0,0,2.69,2.2c2,.95,9.2-.28,9.2-.28s2.71-1.56,2.16-3.52-4.49-2.76-4.49-2.76-.64,2.57-2.86,2-4.69-3.55-5.27-6.33S647.68,698.92,647.68,698.92Z" transform="translate(19.97 20)"/><path class="cls-29" d="M657.08,678.67c-1.27,8.82-3.11,21.64-3.11,21.64s-3.78,2.6-7.47.13a28.44,28.44,0,0,0,.8-9.86c-.57-5.22-5.15-13.14-2.49-20.49C644.81,670.09,658.35,669.86,657.08,678.67Z" transform="translate(19.97 20)"/><path class="cls-18" d="M687.66,588.8c-3.84,0-7.88-3.44-8.23-4.92s-2.11-4.31,2-4.83,5.73,1.66,7.43,2.7,1.21,1.72,1.21,1.72Z" transform="translate(19.97 20)"/><path class="cls-19" d="M653.55,631.14c-6.86,2.9-6.88,7.61-.08,10.5s17.88,2.91,24.74,0,6.87-7.6.07-10.49S660.4,628.24,653.55,631.14Z" transform="translate(19.97 20)"/><path class="cls-35" d="M679.52,635.41a1.8,1.8,0,0,0-1.25-1.64,1.23,1.23,0,0,0-.39-.06,2.47,2.47,0,0,0-1.19-.87,3.59,3.59,0,0,0-1.18-.17,2,2,0,0,0-1.38-.86,2.44,2.44,0,0,0-.54,0,6,6,0,0,0-2.75-1.07c-1.13-.09-2.26.15-3.39.15a28.91,28.91,0,0,0-3.84.25c-1.13.15-2.28.32-3.4.54l-.43.1-.3-.11a4.31,4.31,0,0,0-2.56.07c-1.08-.24-2.35.63-3.11,1.27s-1.87,1.93-1.21,3a1.43,1.43,0,0,0,1.21.72,3.23,3.23,0,0,0,0,.76,2.7,2.7,0,0,0,1.29,2,14,14,0,0,0,2.58,1.17,17,17,0,0,0,3.68,1,9.37,9.37,0,0,0,2,.06.85.85,0,0,0,.44.53,3.06,3.06,0,0,0,2,.11,2.06,2.06,0,0,0,1.58-.94.38.38,0,0,0,.06-.13c2-.21,3.94-.39,5.9-.64a10.31,10.31,0,0,0,3.11-.63,4.25,4.25,0,0,0,2-1.79,3.44,3.44,0,0,0,.42-1.2,1.54,1.54,0,0,0,.36-.27A1.66,1.66,0,0,0,679.52,635.41Zm-1.09,1.37a1.78,1.78,0,0,1-.39.07,2.32,2.32,0,0,0,.18-1.19A2,2,0,0,1,678.43,636.78Zm-1.21,1.66a1.38,1.38,0,0,1-.78.52,2.52,2.52,0,0,0,.37-1,1.59,1.59,0,0,0,.51-.24A1,1,0,0,1,677.22,638.44Zm-13.5,2.87a4.44,4.44,0,0,1,.07-.9,2,2,0,0,1,0-.24,2.08,2.08,0,0,0,1.09.56,7.17,7.17,0,0,0,2.17,0,1,1,0,0,1,0,.17c-1.11.12-2.21.28-3.33.38Zm-2.21-.82a1.4,1.4,0,0,1-1.49.31,4,4,0,0,1-2.07-1.45H658a15.16,15.16,0,0,0,3.81.12A1.4,1.4,0,0,1,661.51,640.49ZM655.29,635a3,3,0,0,0,.19.85,3.76,3.76,0,0,1-1.18.48,2.21,2.21,0,0,1,.57-1A3.62,3.62,0,0,1,655.29,635Zm.51.45a3,3,0,0,1-.09-.73,7,7,0,0,1,1.72-.68,1.52,1.52,0,0,0,.23.48,7.36,7.36,0,0,0-1,.57,1.21,1.21,0,0,0-.52.34l-.29.18h0A.84.84,0,0,1,655.8,635.4Zm4-3.2a.55.55,0,0,1,.24.93,20.49,20.49,0,0,0-2.08.34,1.12,1.12,0,0,1,.25-.39A3.42,3.42,0,0,1,659.75,632.2Zm12.52.31a8.3,8.3,0,0,1,1.26-.26l.18.11c.19.12.38.24.58.35h-2A.78.78,0,0,1,672.27,632.51Zm4.5,1.78.21.15a2.25,2.25,0,0,0-.58,0l0,0a3.49,3.49,0,0,1,.34-.15Zm.39,3.08a1.5,1.5,0,0,1-.32.19,1.44,1.44,0,0,0-.11-.42l0,0,.28.07Zm-1.45.22a5.93,5.93,0,0,0,.63-.26.68.68,0,0,1,.07.32A2.43,2.43,0,0,1,675.71,637.59Zm-.8,1.29a.81.81,0,0,1-.34.41,2.72,2.72,0,0,1-.63-.08.5.5,0,0,1-.31-.2,4.44,4.44,0,0,0,1.14-.93A.72.72,0,0,1,674.91,638.88ZM661,637.24l-.19-.18a2.43,2.43,0,0,0,0-.47l.62.06-.11.15Zm-4.6-1.51.51-.34a1.61,1.61,0,0,1,.72.06,2.54,2.54,0,0,0-.37.43c-.17.07-.34.14-.51.23a1.74,1.74,0,0,0-.35.22l-.21-.18A1.5,1.5,0,0,1,656.38,635.73Zm1.57-.93a1.54,1.54,0,0,0,.29.23h0l-.22.11a4.13,4.13,0,0,0-.5-.15Zm15,1.48a3.08,3.08,0,0,0-.75.06,2,2,0,0,0,.19-.45,2.64,2.64,0,0,0,.1-.94,3.67,3.67,0,0,1,.39.83A1.41,1.41,0,0,1,672.92,636.28Zm.41,2.06-.06-.3c.37,0,.73-.06,1.08-.11a4.11,4.11,0,0,1-.92.72A2.74,2.74,0,0,1,673.33,638.34Zm-4.71,1a.47.47,0,0,1,0-.49l.12,0a2.23,2.23,0,0,0,.4-.24A7.8,7.8,0,0,0,668.62,639.37Zm-5.19-1.91,0,0c0,.25,0,.51.07.77l-.16.15A2,2,0,0,1,663.43,637.46Zm-1.71-1.19c-.32,0-.65-.07-1-.1,0-.11,0-.21-.08-.32a4.5,4.5,0,0,1,1.1.34Zm-1.79,1.5a1,1,0,0,1-1.15-.48l.05-.07.27-.49.52-.1c.24.19.49.38.73.59A.75.75,0,0,1,659.93,637.77Zm-3-1.23h-.07l0,0,.07,0Zm.64-.34a4.19,4.19,0,0,1,.47-.14,2.13,2.13,0,0,0,0,.44,5.23,5.23,0,0,1-.68.07A2.58,2.58,0,0,1,657.54,636.2Zm7.1-3a6.35,6.35,0,0,0-1.39,1.15,1.54,1.54,0,0,0-.68-.53,1.07,1.07,0,0,0-.16-.14,1.67,1.67,0,0,1,.23-.39Zm7.3,1.19a2,2,0,0,1-.47,2.12l-.39,0h-.31a1.88,1.88,0,0,0,0-1.64,1.59,1.59,0,0,0,.62-.94,2.43,2.43,0,0,1,.46.33Zm-5.47,4.48-.44,0a1.78,1.78,0,0,1-.54-.21,2.67,2.67,0,0,1,.33-1.07l0-.06c.31-.12.63-.23.94-.37.14-.07.29-.14.44-.23l.3,0,.43.34a3.89,3.89,0,0,0-.8,1.45Q666.82,638.87,666.47,638.9Zm-4-3.89.18,0-.06.08Zm-.2-.83h0a2.08,2.08,0,0,1,.34.43l-.36-.06A1.21,1.21,0,0,1,662.27,634.18Zm2.89.55a2.23,2.23,0,0,1,1.35-.75,3.69,3.69,0,0,1,.82-.12,2.44,2.44,0,0,0,0,.27,3.44,3.44,0,0,1-.8.72,4.24,4.24,0,0,1-1.21.37l-.3.07A1,1,0,0,1,665.16,634.73Zm5.86-1a1.1,1.1,0,0,1-.46.77,4,4,0,0,0-1.48-1.06A3.6,3.6,0,0,1,671,633.73Zm-7.12,3.6c0-.17,0-.34-.08-.52l.09-.09.2-.16a4.2,4.2,0,0,1,.29,1s0,.07,0,.12l-.1,0Zm.9.21a4.84,4.84,0,0,0-.3-1s0-.11-.07-.17a3.27,3.27,0,0,1,.51-.22,1.82,1.82,0,0,0,.58.44,3.25,3.25,0,0,0,.43.18,2.09,2.09,0,0,0-.36.47C665.32,637.32,665.06,637.43,664.8,637.54Zm.61-1.52a8.36,8.36,0,0,1,1-.12,2.55,2.55,0,0,1,.37.32l.15.17h0a1.06,1.06,0,0,0-.47.07A2.48,2.48,0,0,1,665.41,636Zm4.19-.49a2,2,0,0,1,.09.49,1.71,1.71,0,0,0-.76.36l-.18-.14a2.9,2.9,0,0,1-.34-.36l.06-.1A6.35,6.35,0,0,0,669.6,635.53Zm-.13,1a.79.79,0,0,1,.23-.08v.07Zm-1.57-.68a3.19,3.19,0,0,1-.45.45c-.13-.15-.27-.3-.41-.44l.84,0Zm-.1.72a4.17,4.17,0,0,0,.36-.37,3.06,3.06,0,0,0,.36.36h-.72Zm1-1.27-.12,0a1.56,1.56,0,0,0-.15-1.22,1.93,1.93,0,0,1,.69.59,1.67,1.67,0,0,1,.25.43A5.06,5.06,0,0,1,668.79,635.31ZM668,634l.06.08a1.19,1.19,0,0,1,.15,1.3h-.09a3,3,0,0,1-.36-1.15Zm-.55.76a3.71,3.71,0,0,0,.24.66l-1.13,0a.85.85,0,0,0-.22-.09l.16-.06a2.54,2.54,0,0,0,.92-.69ZM665.09,639v0l-.4,0a.86.86,0,0,0,.06-.23Zm-.26-.69a2.81,2.81,0,0,0,0-.29l.47-.19a3.33,3.33,0,0,0-.21.7Zm1.62-1.37h0l-.08,0Zm4.19,0v0h.08Zm-.13-.93a2.07,2.07,0,0,1-.1.33l-.09-.11a.82.82,0,0,0-.22-.16,3.29,3.29,0,0,0-.11-.7,4,4,0,0,0,.45-.24A1.37,1.37,0,0,1,670.51,636Zm-1-1.86a2.59,2.59,0,0,1,.7.61,1.79,1.79,0,0,1-.38.22,2.38,2.38,0,0,0-1.38-1.32l.06,0A6.71,6.71,0,0,1,669.52,634.15Zm-1.52-.69,0-.05.08,0Zm-4,5,.06,0,.22-.13.17.16a1.25,1.25,0,0,1-.12.47l-.34-.08C664,638.71,664,638.59,664,638.45Zm4.95-1.11a5.41,5.41,0,0,0,.58.07h0l0,0a4.71,4.71,0,0,1-.54-.12Zm1.82.16h0l-.05,0v0Zm1.81-.55h.05l0,0Zm-4.06-3.76h0Zm-1.51,0h0a4.73,4.73,0,0,1,.39.28,4.11,4.11,0,0,0-1.68.34,1.59,1.59,0,0,0-1.12,1.55c-.24,0-.47.06-.71.07a2.28,2.28,0,0,0-.38-.38s0-.07,0-.11a1.21,1.21,0,0,0,0-.18A5.83,5.83,0,0,1,665,633.5a2.65,2.65,0,0,1,.84-.3Zm-5.13,1a1,1,0,0,0,0,.35,4.61,4.61,0,0,0-.53,0,3.83,3.83,0,0,0,.44-.36Zm-3.2,2.22a2.53,2.53,0,0,1,.12-.36l.17.12-.11.21Zm.41-1,.05-.08h.32l0,0Zm-.49,0h0v0l.06,0A.25.25,0,0,0,658.57,635.42Zm.92.61.15-.24a3.62,3.62,0,0,1,.57,0,3.58,3.58,0,0,1,.11.35h0l-.56.05Zm.51-.66h-.06l0,0Zm.22,1.2h.16a.61.61,0,0,1,0,.14Zm1.23-1a3.92,3.92,0,0,0-1-.21,2.91,2.91,0,0,0-.17-.3l.13-.06a8.28,8.28,0,0,1,1.5-.1l0,.08a1.12,1.12,0,0,0,.35.45l-.3.39A4.23,4.23,0,0,0,661.45,635.61Zm1.52-.3,0,0h0Zm.75.54.09.13-.14.1-.06-.23Zm3.91,2.87a3.65,3.65,0,0,1,.67-1.17,1.66,1.66,0,0,0,.33.15l.31.08a2.53,2.53,0,0,0-.48.5,5.7,5.7,0,0,1-.76.43Zm2.11-.83.21,0-.42.29A2.11,2.11,0,0,0,669.74,637.89Zm3-.31a.16.16,0,0,1,0,.07c-.32,0-.64,0-1,0A7.21,7.21,0,0,1,672.7,637.58Zm.47,0,.33,0-.31,0Zm1.22-1.28a1,1,0,0,0,.24-.41,1.55,1.55,0,0,1,.24-.19.9.9,0,0,0,.32.59.88.88,0,0,1,0,.16v0l-.54,0-.24,0A.41.41,0,0,1,674.39,636.31Zm.38.58.26,0c0,.11-.1.22-.16.33a1.28,1.28,0,0,1-.38-.39Zm.55.4a1.87,1.87,0,0,0,.15-.32l.43.07.07,0A5,5,0,0,1,675.32,637.29Zm.71-.91a4.42,4.42,0,0,1-.41-.26,1.62,1.62,0,0,0-.22-.76.49.49,0,0,1,.13-.12,1.69,1.69,0,0,0,.32.68,6.62,6.62,0,0,0,.65.67A4,4,0,0,1,676,636.38Zm-1.34-1c0-.07,0-.13,0-.2l.12.13A.41.41,0,0,0,674.69,635.33Zm-.68,1.46a1.8,1.8,0,0,0,.08.21,1.45,1.45,0,0,0,.3.39,4.61,4.61,0,0,0-1.42-.21h0a1.17,1.17,0,0,0,.22-.3,3.89,3.89,0,0,0,.49-.12Zm-8.26-4c-.88,0-1.76.05-2.64.1a3,3,0,0,1,1.73-.44,4.22,4.22,0,0,1,1.26.28A2.14,2.14,0,0,0,665.75,632.79Zm-4.16,1v0a3.61,3.61,0,0,0-1.59.88h0l-.19-.16a3.44,3.44,0,0,1,.94-.63A1.54,1.54,0,0,1,661.59,633.79Zm-2.2.52h0l.19-.15Zm-.32.35-.13.17-.1,0h0l.17-.21Zm-.62,0,0,0h.05Zm-2,2.18a1.89,1.89,0,0,0,.34.09.77.77,0,0,0,0,.15,3,3,0,0,0,.12,1.15,2.31,2.31,0,0,1-.47-.77A.63.63,0,0,1,656.46,636.86Zm.79,1.11a2.22,2.22,0,0,1,0-1,3.49,3.49,0,0,0,.46,0l.43-.05a.76.76,0,0,0,0,.11,2.18,2.18,0,0,0,0,.25l0,.18-.15.22a3.89,3.89,0,0,1-.41.5l-.21.26A2.64,2.64,0,0,1,657.25,638Zm2.76.21a.78.78,0,0,1-1,0,1.19,1.19,0,0,1-.22-.23A1.56,1.56,0,0,0,660,638.18Zm.67-.66,0,0-.11.12Zm1.71-1.46c.09-.13.19-.26.29-.38l.37.11a.7.7,0,0,1-.45.4h0Zm.86.17,0,.09a.17.17,0,0,0,0,.07,1.7,1.7,0,0,0-.19.19l-.12-.1A.93.93,0,0,0,663.25,636.23Zm.81,3.29a.52.52,0,0,0,.42-.17,4.18,4.18,0,0,1,.71.09l.16,0h0a1.53,1.53,0,0,0,.94.37,2.09,2.09,0,0,1,.59.51l-.62,0a2.66,2.66,0,0,1-2.38-.77v-.12Zm2.31-.1h0l0,0,.33,0a3,3,0,0,0,.51-.07l0,.11Zm1.18-.2.27-.11.31-.07a.81.81,0,0,0,.07.44h-.47A.35.35,0,0,1,667.55,639.22Zm1.59.1a3.43,3.43,0,0,1,1-1.07,1.76,1.76,0,0,1-.39.71,1.45,1.45,0,0,1-.68.39Zm2.5-1.28c.4,0,.81,0,1.22,0a5.15,5.15,0,0,0,.19.75,1.5,1.5,0,0,1-1.86-.79Zm5.35-1.55-.17-.18c-.37-.38-.91-.86-.87-1.3a2.07,2.07,0,0,1,1.1-.11.82.82,0,0,1,.75.74,2.37,2.37,0,0,1-.74.8Zm-1-2.29a2.12,2.12,0,0,0,0-.5l.41.29A2.12,2.12,0,0,0,676,634.2Zm-1.06-1.09h0l.3.17.13.08a1.61,1.61,0,0,1,.05,1.27,1,1,0,0,1-.32.38,3,3,0,0,0-.53-.47,1.21,1.21,0,0,1,0-.19.21.21,0,0,0-.41-.07l-.6-.35a3.65,3.65,0,0,1-1.06-.77C673.34,633.15,674.14,633.14,674.94,633.11Zm-.71,1.68a4,4,0,0,1,0,.91,1.54,1.54,0,0,0-.23.39,1.38,1.38,0,0,1-.39.23l-.29,0a2.74,2.74,0,0,0-.54-1.55,3.62,3.62,0,0,0-.56-.67,2.22,2.22,0,0,0-.25-.42,2.15,2.15,0,0,0-.52-.48H672C672.46,633.92,673.55,634.35,674.23,634.79Zm-4.18-2.18a3.57,3.57,0,0,0-1.94.14H667a5,5,0,0,0-2.63-.72,8.21,8.21,0,0,1,2.14-.17,9.21,9.21,0,0,1,2.76.39,5.35,5.35,0,0,1,.85.37Zm-8.12.83-.18-.06H662Zm-1.4.1a3.54,3.54,0,0,0-.68.38,3.16,3.16,0,0,0,.42-.4l.4,0Zm-1,.07-.25.21a5.52,5.52,0,0,0-.43.38,2.22,2.22,0,0,0-.84.12.9.9,0,0,1-.18-.43A15,15,0,0,1,659.56,633.61Zm-3.47,3.06,0,.06a.25.25,0,0,1,0-.08Zm3.51,2.44a7.59,7.59,0,0,1-2-.26h0a6.1,6.1,0,0,0,.5-.6,3.65,3.65,0,0,0,.24-.31,1.32,1.32,0,0,0,1.21.82,2.25,2.25,0,0,0,1.43-.91,5.19,5.19,0,0,1,.36.46,2.49,2.49,0,0,1,.39.76C661,639.11,660.32,639.13,659.6,639.11Zm1.66-1.57.23-.29.44-.58a2.19,2.19,0,0,0,.57,0c.13.09.24.19.36.29a1.66,1.66,0,0,0-.23.62,1.22,1.22,0,0,0,.41,1.21c0,.08.05.16.08.24l-1,.06A4.3,4.3,0,0,0,661.26,637.54Zm5.74,2.35h.59a1.78,1.78,0,0,0,.52.1,1.51,1.51,0,0,1-.47.25l-.31.07A2.18,2.18,0,0,0,667,639.89Zm4.07-.36c-.46,0-.92,0-1.38,0a2,2,0,0,0,.95-1.57h.11c.12,1,1.51,1.51,2.48,1.21a1,1,0,0,0,.47.39h0l-.19,0h0C672.72,639.63,671.88,639.55,671.07,639.53Zm4.1-.28a1.59,1.59,0,0,0,.14-.26,1.12,1.12,0,0,0-.21-1.16,3,3,0,0,0,.86.22,1.76,1.76,0,0,0,.39,0,1.78,1.78,0,0,1-.71,1.11Zm2.33-2.41-.24,0,.22-.16.25-.22a2.61,2.61,0,0,1-.16.42Zm.35-2.25-.56-.44.36,0A2.76,2.76,0,0,1,677.85,634.59Zm-.5-.87a2.71,2.71,0,0,0-.51.1c-.35-.26-.7-.49-1.06-.71A2.34,2.34,0,0,1,677.35,633.72Zm-16-1.83c1.26-.18,2.51-.41,3.78-.52s2.43,0,3.64-.15a6.56,6.56,0,0,1,3.46.28,5.91,5.91,0,0,1,.74.4c-.33.07-.65.17-1,.25a.22.22,0,0,0-.16.2,1.56,1.56,0,0,0,0,.38h-.93a3.35,3.35,0,0,0-.53-.4,5.23,5.23,0,0,0-2.09-.73,13.76,13.76,0,0,0-3.27-.08,3.73,3.73,0,0,0-2.44,1.16l-.24.26-.49,0c-.44,0-.9.06-1.35.11a1,1,0,0,0,.06-.23.88.88,0,0,0-.31-.78C660.64,632,661,631.94,661.35,631.89Zm-2.25.1a3.32,3.32,0,0,0-1.49,1.11,1.06,1.06,0,0,0-.2.5c-.3.08-.6.17-.9.28a7.67,7.67,0,0,0-.78.34,4.62,4.62,0,0,1,.24-1,1.72,1.72,0,0,1,1-1.07l.11,0a.18.18,0,0,0,.25-.15h0A4.52,4.52,0,0,1,659.1,632Zm-6.27,3.15a3,3,0,0,1,1-1.62,5.81,5.81,0,0,1,1.85-1.21,2.88,2.88,0,0,1,.5-.15,1.76,1.76,0,0,0-.35.41,3.82,3.82,0,0,0-.56,1.91,4.19,4.19,0,0,0-.84.67,2.26,2.26,0,0,0-.59,1.16A1.08,1.08,0,0,1,652.83,635.14Zm3.77,4.62a3.54,3.54,0,0,1-2.18-1.72,3,3,0,0,1-.2-1.35,4.55,4.55,0,0,0,1.43-.52l.06.09a2.84,2.84,0,0,0,0,1.42,2.28,2.28,0,0,0,1.6,1.49,5.24,5.24,0,0,0,1.19,1.29l.11.09C657.94,640.31,657.26,640,656.6,639.76Zm4.56,1.46a1.51,1.51,0,0,0,.46-.26,1.6,1.6,0,0,0,.63-1.5l1-.08a2.43,2.43,0,0,0,.2.35c0,.3-.08.6-.11.9a4.17,4.17,0,0,0,0,.71A11,11,0,0,1,661.16,641.22Zm4.42.79c-.42.08-1.51.21-1.78-.29.47,0,1-.09,1.42-.15l1.74-.2A2.42,2.42,0,0,1,665.58,642Zm12.4-3.87c-1.21,2.12-4,2.06-6.12,2.3q-2,.24-4.08.42l-.28,0a1.11,1.11,0,0,0,0-.19,2,2,0,0,0,1.18-.71h.43c.42.06.88,0,1.29.07a12.78,12.78,0,0,0,3.27,0,8.26,8.26,0,0,0,1-.07,2.68,2.68,0,0,0,1.19-.41,2.47,2.47,0,0,0,1.79-1,1.21,1.21,0,0,0,0-1.08l.13-.17,0,0a2.56,2.56,0,0,0,.55,0A4,4,0,0,1,678,638.14Zm.87-1.61a3.2,3.2,0,0,0-.09-.62,2.06,2.06,0,0,0-.43-.83,2.93,2.93,0,0,0,0-.41,2.64,2.64,0,0,0-.14-.48,1.21,1.21,0,0,1,.84.81A1.55,1.55,0,0,1,678.85,636.53Z" transform="translate(19.97 20)"/><path class="cls-42" d="M652.76,636.79a1.54,1.54,0,0,0,.36.27,3.65,3.65,0,0,0,.42,1.2,4.25,4.25,0,0,0,2,1.79,10.37,10.37,0,0,0,3.11.63c2,.25,3.93.43,5.9.64l.06.13a2.08,2.08,0,0,0,1.58.94,3.09,3.09,0,0,0,2-.11.88.88,0,0,0,.44-.53,9.28,9.28,0,0,0,2-.06,16.79,16.79,0,0,0,3.68-1,14.37,14.37,0,0,0,2.59-1.17,2.73,2.73,0,0,0,1.29-2,4.84,4.84,0,0,0,0-.76,1.42,1.42,0,0,0,1.2-.72c.67-1.07-.43-2.35-1.21-3s-2-1.51-3.11-1.27a4.31,4.31,0,0,0-2.56-.07l-.3.11-.42-.1c-1.12-.22-2.27-.39-3.41-.54a28.87,28.87,0,0,0-3.83-.25c-1.13,0-2.26-.24-3.39-.15a6,6,0,0,0-2.76,1.07,2.44,2.44,0,0,0-.54,0,2,2,0,0,0-1.37.86,3.65,3.65,0,0,0-1.19.17,2.44,2.44,0,0,0-1.18.87,1.23,1.23,0,0,0-.39.06,1.77,1.77,0,0,0-1.25,1.64A1.62,1.62,0,0,0,652.76,636.79Zm1-1.13a2.32,2.32,0,0,0,.19,1.19,1.59,1.59,0,0,1-.39-.07A2,2,0,0,1,653.71,635.66Zm.9,2.11a1.7,1.7,0,0,0,.51.24,2.53,2.53,0,0,0,.38,1,1.31,1.31,0,0,1-.78-.52A1,1,0,0,1,654.61,637.77Zm13.55,3.54c-1.11-.1-2.22-.26-3.33-.38a.51.51,0,0,1,0-.17,7.18,7.18,0,0,0,2.17,0,2.11,2.11,0,0,0,1.09-.56l0,.24a6.56,6.56,0,0,1,.07.9Zm1.94-1.83a15.19,15.19,0,0,0,3.81-.12H674a4,4,0,0,1-2.08,1.45,1.41,1.41,0,0,1-1.49-.31A1.35,1.35,0,0,1,670.1,639.48Zm7-4.17a2.23,2.23,0,0,1,.58,1,3.67,3.67,0,0,1-1.18-.48,3,3,0,0,0,.18-.85A3.62,3.62,0,0,1,677.06,635.31Zm-1,.26h0l-.29-.18a1.18,1.18,0,0,0-.51-.34,7.47,7.47,0,0,0-1-.57,1.33,1.33,0,0,0,.23-.48,7.25,7.25,0,0,1,1.73.68,3.56,3.56,0,0,1-.09.73Zm-2.31-2.49a1.12,1.12,0,0,1,.25.39,20.49,20.49,0,0,0-2.08-.34.55.55,0,0,1,.24-.93A3.38,3.38,0,0,1,673.77,633.08Zm-14.14-.35h-2l.58-.35.17-.11a8.68,8.68,0,0,1,1.27.26A1.43,1.43,0,0,1,659.63,632.73Zm-4.46,1.55a3.31,3.31,0,0,1,.33.15l0,0a2.34,2.34,0,0,0-.59,0l.21-.15Zm-.27,2.91.27-.07,0,0a1,1,0,0,0-.11.42,1.29,1.29,0,0,1-.32-.19A.94.94,0,0,1,654.9,637.19Zm.62.46a1.07,1.07,0,0,1,.07-.32c.21.1.42.18.63.26A2.4,2.4,0,0,1,655.52,637.65Zm1.64.43a4.62,4.62,0,0,0,1.14.93.5.5,0,0,1-.3.2,2.72,2.72,0,0,1-.63.08.78.78,0,0,1-.35-.41A.75.75,0,0,1,657.16,638.08Zm13.46-1.28-.12-.15.63-.06a2.44,2.44,0,0,0,0,.47l-.18.18C670.82,637.07,670.71,636.92,670.62,636.8Zm5.14-.65a.91.91,0,0,1-.21.18,1.5,1.5,0,0,0-.35-.22,4,4,0,0,0-.51-.23,2.49,2.49,0,0,0-.36-.43,1.58,1.58,0,0,1,.72-.06l.51.34A1.48,1.48,0,0,1,675.76,636.15ZM674.41,635a4,4,0,0,0-.49.15l-.22-.11h0a2,2,0,0,0,.3-.23Zm-15.33.78a3.67,3.67,0,0,1,.39-.83,2.45,2.45,0,0,0,.29,1.39,3.08,3.08,0,0,0-.75-.06A1.41,1.41,0,0,1,659.08,635.78Zm-.57,2.87a3.94,3.94,0,0,1-.93-.72c.36.05.72.09,1.08.11l-.06.3A2.54,2.54,0,0,1,658.51,638.65Zm4.3,0a2.65,2.65,0,0,0,.4.24l.12,0a.5.5,0,0,1,0,.49A7.89,7.89,0,0,0,662.81,638.6Zm5.75-.19-.15-.15c0-.26,0-.52.06-.77l0,0A2,2,0,0,1,668.56,638.41Zm1.6-2.22a4.25,4.25,0,0,1,1.1-.34c0,.11-.06.21-.08.32-.32,0-.65.08-1,.1Zm1.43,1c.23-.21.48-.4.73-.59l.51.1c.09.16.18.33.28.49a.43.43,0,0,0,0,.07,1,1,0,0,1-1.14.48A.73.73,0,0,1,671.59,637.22Zm3.41-.75.07,0,0,0H675Zm-.42.1a5.08,5.08,0,0,1-.67-.07,2.14,2.14,0,0,0,0-.44,3.64,3.64,0,0,1,.47.14A2.58,2.58,0,0,1,674.58,636.57Zm-5.29-3.25a1.67,1.67,0,0,1,.23.39l-.16.14a1.51,1.51,0,0,0-.67.53,6.65,6.65,0,0,0-1.4-1.15C668,633.25,668.63,633.28,669.29,633.32Zm-9.23.94a2.79,2.79,0,0,1,.46-.33,1.64,1.64,0,0,0,.62.94,1.88,1.88,0,0,0,0,1.64h-.31l-.39,0a2,2,0,0,1-.46-2.12Zm4.72,4.55a3.91,3.91,0,0,0-.81-1.45l.43-.34.31,0a3.68,3.68,0,0,0,.44.23c.3.14.62.25.94.37l0,.06a2.84,2.84,0,0,1,.33,1.07,1.84,1.84,0,0,1-.55.21l-.44,0Zm4.56-3.67-.06-.08.18,0A.49.49,0,0,1,669.34,635.14Zm.33-.58a2.2,2.2,0,0,0-.37.06,2.48,2.48,0,0,1,.34-.43h0A1.21,1.21,0,0,1,669.67,634.56Zm-2.75.73-.3-.07a4.24,4.24,0,0,1-1.21-.37,3.65,3.65,0,0,1-.8-.72,2.43,2.43,0,0,0,0-.27,3.87,3.87,0,0,1,.82.12,2.23,2.23,0,0,1,1.34.75A1,1,0,0,1,666.92,635.29Zm-4.07-1.85a4,4,0,0,0-1.48,1.06,1.09,1.09,0,0,1-.45-.77A3.56,3.56,0,0,1,662.85,633.44Zm4.77,4.33-.1,0c0-.05,0-.09,0-.12a3.86,3.86,0,0,1,.3-1l.19.16.09.09c0,.18-.05.35-.07.52Zm-1.27-.54a2.09,2.09,0,0,0-.36-.47,3.12,3.12,0,0,0,.42-.18,1.72,1.72,0,0,0,.58-.44,2.91,2.91,0,0,1,.51.22c0,.06,0,.12-.07.17a4.8,4.8,0,0,0-.29,1C666.88,637.43,666.61,637.32,666.35,637.23Zm-.84-.77a1,1,0,0,0-.47-.07h0l.16-.17a1.8,1.8,0,0,1,.37-.32,8.19,8.19,0,0,1,1,.12A2.36,2.36,0,0,1,665.51,636.46Zm-2-.68.06.1a3.89,3.89,0,0,1-.34.36l-.18.14a1.74,1.74,0,0,0-.77-.36,3.86,3.86,0,0,1,.09-.49A6.26,6.26,0,0,0,663.47,635.78Zm-1.23.75s0,0,0-.07a.7.7,0,0,1,.23.08Zm1.82-.7.83,0c-.14.14-.27.29-.4.44a2.4,2.4,0,0,1-.45-.45Zm.06.75h-.7a4,4,0,0,0,.35-.36,4.17,4.17,0,0,0,.36.37Zm-1.65-1.44a2,2,0,0,1,.25-.43,1.88,1.88,0,0,1,.7-.59,1.52,1.52,0,0,0-.15,1.22l-.12,0A5.2,5.2,0,0,1,662.47,635.14Zm1.73-.88a2.86,2.86,0,0,1-.36,1.15h-.09a1.21,1.21,0,0,1,.15-1.3L664,634Zm.35.38a2.59,2.59,0,0,0,.91.69l.16.06a1,1,0,0,0-.22.09l-1.12,0a3,3,0,0,0,.23-.66A.74.74,0,0,0,664.55,634.64Zm2.62,4.09a1.55,1.55,0,0,0,.07.23l-.4,0v0Zm-.33-.24a3.33,3.33,0,0,0-.21-.7l.47.19a1.41,1.41,0,0,0,0,.29A2.75,2.75,0,0,1,666.84,638.49Zm-1.3-1.56-.08,0h0Zm-4.33,0h.09v0Zm.29-1.79a3.28,3.28,0,0,0,.45.24,4.1,4.1,0,0,0-.12.7.65.65,0,0,0-.21.16.44.44,0,0,0-.09.11,2.13,2.13,0,0,1-.11-.33A1.44,1.44,0,0,1,661.5,635.13Zm1.92-1.5.06,0a2.37,2.37,0,0,0-1.39,1.32,2.08,2.08,0,0,1-.38-.22,2.75,2.75,0,0,1,.7-.61A7.37,7.37,0,0,1,663.42,633.63Zm.48-.19.09,0-.06.05Zm4.07,5.39-.34.08a1.25,1.25,0,0,1-.11-.47l.17-.16.21.13.06,0C668,638.59,668,638.71,668,638.83Zm-4.93-1.5a4.88,4.88,0,0,1-.55.12l0,0h0a5.54,5.54,0,0,0,.57-.07Zm-1.78.16v0l0,0h0Zm-1.91-.53,0,0h0Zm4.06-3.78h0Zm2.7,0a2.56,2.56,0,0,1,.84.3,5.83,5.83,0,0,1,1.54,1.26c0,.06,0,.12,0,.18s0,.07,0,.11a2.79,2.79,0,0,0-.39.38c-.23,0-.47,0-.7-.07a1.6,1.6,0,0,0-1.13-1.55,4.06,4.06,0,0,0-1.67-.34,2.76,2.76,0,0,1,.39-.28h0Zm4.06,1a3.94,3.94,0,0,0,.45.36,4.78,4.78,0,0,0-.53,0,2,2,0,0,0,0-.35Zm2.94,2.18-.12-.21.18-.12c0,.12.08.24.11.36Zm-.57-1,0,0h.32a.35.35,0,0,1,0,.08Zm.79,0,0,0v0h0A.25.25,0,0,1,673.33,635.35Zm-1.12.85-.56-.05h0a2,2,0,0,1,.1-.35,3.62,3.62,0,0,1,.57,0c.06.08.1.16.15.24Zm-.25-.87,0,0h-.06Zm-.42,1.38c0-.05,0-.1,0-.14h.17Zm-1.63-.85-.3-.39A1.33,1.33,0,0,0,670,635l0-.08a8.28,8.28,0,0,1,1.5.1l.12.06a2.91,2.91,0,0,0-.17.3,4,4,0,0,0-1,.21A3.76,3.76,0,0,0,669.91,635.86Zm-.92-.52h0l0,0Zm-.67.51-.06.23a.71.71,0,0,0-.14-.1l.09-.13Zm-4.08,2.86a5.24,5.24,0,0,1-.77-.43,2.53,2.53,0,0,0-.48-.5l.31-.08a2.07,2.07,0,0,0,.34-.15,3.81,3.81,0,0,1,.66,1.17Zm-1.84-.51a4.43,4.43,0,0,0-.42-.29l.21,0Zm-2.24-.57c-.32,0-.65,0-1,0a.43.43,0,0,1,0-.07A7.51,7.51,0,0,1,660.16,637.63Zm-1.41,0-.32,0,.33,0Zm-1.2-1.22-.24,0-.54,0a.06.06,0,0,0,0,0c0-.05,0-.11,0-.16a1,1,0,0,0,.33-.59,1.55,1.55,0,0,1,.24.19,1,1,0,0,0,.23.41A.41.41,0,0,1,657.55,636.42Zm-.11.44a1.37,1.37,0,0,1-.37.39,2.49,2.49,0,0,1-.16-.33l.26,0Zm-1.48.2.08,0,.43-.07a3.09,3.09,0,0,0,.14.32A5,5,0,0,1,656,637.06Zm-.52-.47a6.43,6.43,0,0,0,.64-.67,1.56,1.56,0,0,0,.32-.68.49.49,0,0,1,.13.12,1.74,1.74,0,0,0-.21.76,3.46,3.46,0,0,1-.42.26A3.82,3.82,0,0,1,655.44,636.59Zm1.7-1.33a.49.49,0,0,1,.12-.13,1.34,1.34,0,0,0,0,.2Zm1.12,1.49a4.37,4.37,0,0,0,.49.12,1.46,1.46,0,0,0,.22.3h0a4.67,4.67,0,0,0-1.43.21,1.45,1.45,0,0,0,.3-.39,1,1,0,0,0,.09-.21Zm7.58-4a4.16,4.16,0,0,1,1.25-.28,3,3,0,0,1,1.73.44c-.88,0-1.76-.08-2.64-.1A2,2,0,0,0,665.84,632.73Zm5.37,1.17a3.49,3.49,0,0,1,.95.63,1.56,1.56,0,0,0-.2.16h0a3.63,3.63,0,0,0-1.58-.88l0,0A1.52,1.52,0,0,1,671.21,633.9Zm1.16.26.19.15h0Zm.56.48.17.21h0l-.09,0-.14-.17Zm.54,0h0l0,0Zm2,2.83a2.31,2.31,0,0,1-.47.77,3,3,0,0,0,.11-1.15.77.77,0,0,0,0-.15,2,2,0,0,0,.35-.09A.69.69,0,0,1,675.51,637.48Zm-1,1-.21-.26a5,5,0,0,1-.42-.5l-.15-.22a.57.57,0,0,0,0-.18,2.29,2.29,0,0,0,0-.25l0-.11.43.05a3.53,3.53,0,0,0,.46,0,2.22,2.22,0,0,1,0,1A3.71,3.71,0,0,1,674.52,638.44Zm-1.4-.51a1.58,1.58,0,0,1-.22.23.8.8,0,0,1-1,0A1.57,1.57,0,0,0,673.12,637.93Zm-1.79-.25-.11-.12,0,0A.77.77,0,0,0,671.33,637.68Zm-2-1.49h0a.72.72,0,0,1-.45-.4l.38-.11.29.38Zm-.39.29-.13.1-.19-.19s0,0,0-.07,0-.06,0-.09A1.12,1.12,0,0,0,669,636.48Zm-.93,3,0,.12a2.67,2.67,0,0,1-2.39.77l-.61,0a1.92,1.92,0,0,1,.58-.51,1.56,1.56,0,0,0,1-.37h0l.17,0a4.18,4.18,0,0,1,.71-.09.51.51,0,0,0,.42.17Zm-3.26,0,0-.11a2.74,2.74,0,0,0,.5.07l.34,0,0,0h0Zm-.57,0h-.47a.72.72,0,0,0,.07-.44l.31.07.27.11A.33.33,0,0,1,664.2,639.48Zm-1.38-.13a1.45,1.45,0,0,1-.68-.39,1.74,1.74,0,0,1-.38-.71,3.66,3.66,0,0,1,1,1.07ZM660.74,638a1.5,1.5,0,0,1-1.86.79,5.15,5.15,0,0,0,.19-.75c.41,0,.82,0,1.23,0Zm-5.86-1.58a2.3,2.3,0,0,1-.75-.8.83.83,0,0,1,.75-.74A2.11,2.11,0,0,1,656,635c0,.44-.51.92-.87,1.3l-.17.18A.18.18,0,0,1,654.88,636.44Zm.69-2.45.41-.29a2.11,2.11,0,0,0,0,.5A2.22,2.22,0,0,0,655.57,634Zm3.83-.83a3.83,3.83,0,0,1-1.07.77l-.6.35a.21.21,0,0,0-.41.07,1.21,1.21,0,0,1,0,.19,3.42,3.42,0,0,0-.53.47,1,1,0,0,1-.31-.38,1.6,1.6,0,0,1,0-1.27l.14-.08.3-.17h0C657.8,633.14,658.6,633.15,659.4,633.16Zm.51,0h.55a2.36,2.36,0,0,0-.52.48,2.22,2.22,0,0,0-.25.42,3.62,3.62,0,0,0-.56.67,2.82,2.82,0,0,0-.54,1.55l-.28,0a1.44,1.44,0,0,1-.4-.23,1.29,1.29,0,0,0-.23-.39,4,4,0,0,1,0-.91C658.39,634.35,659.48,633.92,659.91,633.17Zm1.88-.54a5.43,5.43,0,0,1,.86-.37,9.16,9.16,0,0,1,2.76-.39,8.28,8.28,0,0,1,2.14.17,5,5,0,0,0-2.64.72h-1.09a3.57,3.57,0,0,0-1.94-.14Zm8.15.74h.24l-.18.06Zm1.32.11.41,0a2.59,2.59,0,0,0,.41.4,3.27,3.27,0,0,0-.68-.38Zm2.81.41a.9.9,0,0,1-.18.43,2.15,2.15,0,0,0-.83-.12c-.13-.13-.28-.25-.43-.38l-.26-.21A15,15,0,0,1,674.07,633.89Zm1.8,2.76a.19.19,0,0,0,0,.08l0-.06Zm-5.69,2.42a2.49,2.49,0,0,1,.39-.76,5.32,5.32,0,0,1,.37-.46,2.21,2.21,0,0,0,1.42.91,1.31,1.31,0,0,0,1.21-.82l.24.31a5.11,5.11,0,0,0,.51.6h0a7.7,7.7,0,0,1-2,.26C671.62,639.13,670.9,639.11,670.18,639.07Zm-.41,0-.95-.06c0-.08,0-.16.07-.24a1.22,1.22,0,0,0,.42-1.21,1.67,1.67,0,0,0-.24-.62l.36-.29a2.19,2.19,0,0,0,.57,0l.45.58.22.29A4.3,4.3,0,0,0,669.77,639.05Zm-5.17,1.26-.31-.07a1.36,1.36,0,0,1-.46-.25,1.65,1.65,0,0,0,.51-.1h.59A2.18,2.18,0,0,0,664.6,640.31Zm-6.21-.68h0l-.19,0h0a1,1,0,0,0,.47-.39c1,.3,2.36-.24,2.49-1.21h.11a2,2,0,0,0,1,1.57c-.46,0-.93,0-1.39,0C660.05,639.55,659.22,639.63,658.39,639.63Zm-2.09-.45a1.79,1.79,0,0,1-.72-1.11,1.7,1.7,0,0,0,.39,0,3,3,0,0,0,.87-.22,1.09,1.09,0,0,0-.07,1.42Zm-1.94-2.34a2.61,2.61,0,0,1-.16-.42l.25.22.23.16-.25,0Zm-.07-2.72.36,0c-.19.14-.39.29-.57.44A2.18,2.18,0,0,1,654.29,634.12Zm1.87-1a12.24,12.24,0,0,0-1.06.71,3.06,3.06,0,0,0-.51-.1A2.3,2.3,0,0,1,656.16,633.11Zm15.49-1a.88.88,0,0,0-.31.78,1,1,0,0,0,.06.23c-.45-.05-.9-.08-1.35-.11l-.49,0a3,3,0,0,0-.24-.26,3.71,3.71,0,0,0-2.44-1.16,13.67,13.67,0,0,0-3.26.08,5.22,5.22,0,0,0-2.1.73,3.35,3.35,0,0,0-.53.4h-.93a1.18,1.18,0,0,0,0-.38.23.23,0,0,0-.15-.2c-.32-.08-.64-.18-1-.25a5.91,5.91,0,0,1,.74-.4,6.56,6.56,0,0,1,3.46-.28c1.22.11,2.43.06,3.65.15s2.51.34,3.77.52C670.92,631.94,671.29,632,671.65,632.07Zm3,0h0a.17.17,0,0,0,.24.15l.11,0a1.69,1.69,0,0,1,1,1.07,4.09,4.09,0,0,1,.24,1,6.81,6.81,0,0,0-.78-.34,8.57,8.57,0,0,0-.9-.28,1.15,1.15,0,0,0-.19-.5,3.35,3.35,0,0,0-1.5-1.11A4.57,4.57,0,0,1,674.6,632Zm3.48,4.27a2.26,2.26,0,0,0-.59-1.16,4.43,4.43,0,0,0-.83-.67,3.93,3.93,0,0,0-.56-1.91,1.59,1.59,0,0,0-.36-.41,2.74,2.74,0,0,1,.51.15,5.77,5.77,0,0,1,1.84,1.21,3.07,3.07,0,0,1,1,1.62A1.09,1.09,0,0,1,678.08,636.31Zm-4.77,4.24.12-.09a5,5,0,0,0,1.18-1.29,2.3,2.3,0,0,0,1.61-1.49,2.85,2.85,0,0,0,0-1.42l.06-.09a4.64,4.64,0,0,0,1.43.52,2.91,2.91,0,0,1-.2,1.35,3.54,3.54,0,0,1-2.18,1.72C674.67,640,674,640.31,673.31,640.55Zm-4.68.79a5.53,5.53,0,0,0,0-.71c0-.3-.07-.6-.11-.9a3.9,3.9,0,0,0,.19-.35l1,.08a1.63,1.63,0,0,0,.63,1.5,1.56,1.56,0,0,0,.47.26A11,11,0,0,1,668.63,641.34Zm-3.66,0,1.75.2c.47.06.94.12,1.41.15-.26.5-1.35.37-1.78.29A2.45,2.45,0,0,1,665,641.37Zm-11.39-4.14a2.59,2.59,0,0,0,.56,0v0a2.09,2.09,0,0,0,.14.17,1.21,1.21,0,0,0,0,1.08,2.49,2.49,0,0,0,1.8,1,2.64,2.64,0,0,0,1.18.41,8.4,8.4,0,0,0,1,.07,12.79,12.79,0,0,0,3.27,0c.41,0,.87,0,1.29-.07h.44a2,2,0,0,0,1.17.71,1.11,1.11,0,0,0,0,.19l-.28,0q-2-.18-4.08-.42c-2.12-.24-4.9-.18-6.11-2.3A4.07,4.07,0,0,1,653.58,637.23Zm-.65-2.23a1.21,1.21,0,0,1,.85-.81,2.06,2.06,0,0,0-.15.48,2.93,2.93,0,0,0,0,.41,2.19,2.19,0,0,0-.43.83,2.57,2.57,0,0,0-.08.62A1.52,1.52,0,0,1,652.93,635Z" transform="translate(19.97 20)"/><path class="cls-29" d="M669.57,632.91c-.51.21-.51.56,0,.77a2.71,2.71,0,0,0,1.82,0c.5-.21.5-.56,0-.77A2.62,2.62,0,0,0,669.57,632.91Z" transform="translate(19.97 20)"/><path class="cls-29" d="M673.66,636.21c-.5.21-.5.56,0,.77a2.71,2.71,0,0,0,1.82,0c.5-.21.5-.56,0-.77A2.71,2.71,0,0,0,673.66,636.21Z" transform="translate(19.97 20)"/><path class="cls-38" d="M667,638.15c-.5.21-.51.56,0,.77a2.71,2.71,0,0,0,1.82,0c.5-.21.5-.56,0-.77A2.56,2.56,0,0,0,667,638.15Z" transform="translate(19.97 20)"/><path class="cls-29" d="M663.35,634.56c-.51.21-.51.56,0,.77a2.71,2.71,0,0,0,1.82,0c.5-.21.5-.56,0-.77A2.68,2.68,0,0,0,663.35,634.56Z" transform="translate(19.97 20)"/><path class="cls-29" d="M660.12,632.36c-.51.22-.51.56,0,.77a2.59,2.59,0,0,0,1.82,0c.5-.21.5-.55,0-.77A2.68,2.68,0,0,0,660.12,632.36Z" transform="translate(19.97 20)"/><path class="cls-29" d="M656.68,635.53c-.5.21-.5.56,0,.77a2.68,2.68,0,0,0,1.81,0c.51-.21.51-.56,0-.77A2.71,2.71,0,0,0,656.68,635.53Z" transform="translate(19.97 20)"/><path class="cls-29" d="M660.12,638.69c-.51.22-.51.56,0,.77a2.59,2.59,0,0,0,1.82,0c.5-.21.5-.55,0-.77A2.68,2.68,0,0,0,660.12,638.69Z" transform="translate(19.97 20)"/><path class="cls-40" d="M668.56,635.67l.06-.23c.44-.76,1.11-.27,1.77-.23.3,0,.61-.13.91.06.12.08.14.15.23.22s0,.23,0,.3.7.13.92.18a.92.92,0,0,1,0,.37,1.58,1.58,0,0,1-1,.2c-.16,0-.39-.17-.56-.13s-.19.26-.35.33c-.64.25-.73-.21-1.19-.33-.21-.06-.38.11-.58,0s-.23-.29-.32-.36A.33.33,0,0,1,668.56,635.67Z" transform="translate(19.97 20)"/><path class="cls-40" d="M663.61,633l.06-.23c.44-.76,1.11-.27,1.76-.22.3,0,.62-.14.91.05a2.47,2.47,0,0,1,.23.23s0,.22,0,.29.7.13.92.18a.81.81,0,0,1,0,.38,1.56,1.56,0,0,1-1,.19c-.16,0-.39-.17-.56-.13s-.18.27-.35.33c-.64.26-.72-.21-1.18-.33-.22-.06-.39.11-.59,0s-.23-.29-.32-.37A.35.35,0,0,1,663.61,633Z" transform="translate(19.97 20)"/><path class="cls-40" d="M659.12,635.8l0-.22c.44-.77,1.11-.28,1.77-.23.3,0,.62-.14.91.06.12.08.14.15.23.22s0,.22,0,.29.7.14.92.18a1,1,0,0,1,0,.38,1.57,1.57,0,0,1-1,.19c-.16,0-.39-.16-.56-.13s-.19.27-.35.33c-.64.26-.73-.21-1.18-.33-.22-.06-.39.11-.59,0s-.23-.29-.32-.37A.34.34,0,0,1,659.12,635.8Z" transform="translate(19.97 20)"/><path class="cls-40" d="M662.68,637.74l.05-.23c.44-.76,1.11-.27,1.77-.22.3,0,.62-.14.91.05.12.09.14.16.23.23s0,.22,0,.29.7.13.92.18a1,1,0,0,1,0,.38,1.57,1.57,0,0,1-1,.19c-.16,0-.39-.17-.56-.13s-.19.27-.35.33c-.64.26-.73-.21-1.18-.33-.22-.06-.39.11-.59,0s-.23-.29-.32-.37A.33.33,0,0,1,662.68,637.74Z" transform="translate(19.97 20)"/><path class="cls-19" d="M692.19,632.86c-6.86,2.91-6.89,7.61-.08,10.51s17.87,2.9,24.74,0,6.87-7.6.06-10.5S699,630,692.19,632.86Z" transform="translate(19.97 20)"/><path class="cls-29" d="M702.32,640.56c-.5.21-.5.56,0,.77a2.68,2.68,0,0,0,1.81,0c.51-.21.51-.56,0-.77A2.71,2.71,0,0,0,702.32,640.56Z" transform="translate(19.97 20)"/><path class="cls-29" d="M704.32,642.23c-.51.21-.51.55,0,.77a2.71,2.71,0,0,0,1.82,0c.5-.22.5-.56,0-.77A2.56,2.56,0,0,0,704.32,642.23Z" transform="translate(19.97 20)"/><path class="cls-29" d="M711.72,640.78c-.5.21-.5.56,0,.77a2.68,2.68,0,0,0,1.81,0c.51-.21.51-.56,0-.77A2.71,2.71,0,0,0,711.72,640.78Z" transform="translate(19.97 20)"/><path class="cls-29" d="M705.37,640.43c-.5.21-.5.55,0,.77a2.68,2.68,0,0,0,1.81,0c.51-.22.51-.56,0-.77A2.59,2.59,0,0,0,705.37,640.43Z" transform="translate(19.97 20)"/><path class="cls-40" d="M708,640l.06-.23c.44-.76,1.11-.27,1.76-.22.3,0,.62-.14.91.05.13.08.15.16.23.23s0,.22,0,.29.7.13.93.18a.92.92,0,0,1,0,.37,1.56,1.56,0,0,1-1,.2c-.16,0-.38-.17-.56-.13s-.18.26-.35.33c-.63.25-.72-.21-1.18-.33-.22-.06-.39.11-.59,0s-.22-.29-.31-.37A.33.33,0,0,1,708,640Z" transform="translate(19.97 20)"/><path class="cls-40" d="M700.33,642l.06-.23c.44-.76,1.11-.27,1.76-.22.3,0,.62-.14.92.05.12.08.14.16.22.23s0,.22,0,.29.7.13.93.18a.92.92,0,0,1,0,.37,1.5,1.5,0,0,1-1,.2c-.16,0-.38-.17-.55-.13s-.19.26-.36.33c-.63.26-.72-.21-1.18-.33-.22-.06-.38.11-.59,0s-.22-.29-.31-.37A.33.33,0,0,1,700.33,642Z" transform="translate(19.97 20)"/><path class="cls-40" d="M703,639.67l.06-.23c.44-.77,1.11-.28,1.76-.23.3,0,.62-.14.91.06.13.08.15.15.23.22s0,.22,0,.3.7.13.92.17a.81.81,0,0,1,0,.38,1.49,1.49,0,0,1-1,.19c-.16,0-.39-.16-.56-.12s-.18.26-.35.33c-.64.25-.72-.21-1.18-.34-.22,0-.39.12-.59,0s-.22-.29-.32-.36A.34.34,0,0,1,703,639.67Z" transform="translate(19.97 20)"/><path class="cls-40" d="M705.65,641.47l.06-.23c.44-.77,1.11-.28,1.77-.23.3,0,.61-.14.91.06.12.08.14.15.23.22s0,.22,0,.29.7.14.92.18a1,1,0,0,1,0,.38,1.57,1.57,0,0,1-1,.19c-.16,0-.39-.16-.56-.12s-.19.26-.35.33c-.64.25-.73-.21-1.18-.34-.22-.05-.39.12-.59,0s-.23-.29-.32-.37A.32.32,0,0,1,705.65,641.47Z" transform="translate(19.97 20)"/><path class="cls-29" d="M709.16,639.87c-.51.21-.51.56,0,.77a2.71,2.71,0,0,0,1.82,0c.5-.21.5-.56,0-.77A2.68,2.68,0,0,0,709.16,639.87Z" transform="translate(19.97 20)"/><path class="cls-29" d="M705.37,639c-.5.21-.5.56,0,.77a2.68,2.68,0,0,0,1.81,0c.51-.21.51-.56,0-.77A2.71,2.71,0,0,0,705.37,639Z" transform="translate(19.97 20)"/><path class="cls-29" d="M709.16,641.33c-.51.21-.51.55,0,.77a2.71,2.71,0,0,0,1.82,0c.5-.22.5-.56,0-.77A2.56,2.56,0,0,0,709.16,641.33Z" transform="translate(19.97 20)"/><path class="cls-29" d="M709.83,635.17c-.26-.53-.84-.3-1.18-.77a6.49,6.49,0,0,0-.9-1.17,1.53,1.53,0,0,0-1.35-.44l-1.93.26c-.42.24-1,.1-1.38.34a3.52,3.52,0,0,0-.51.43,2.89,2.89,0,0,1-1.66.51,22.54,22.54,0,0,0-3.68.27,6.26,6.26,0,0,0-2,.84c-.17.1-.45-.7-.57-.54a3.36,3.36,0,0,0,.13,2.07,1.71,1.71,0,0,0,.94.7,1.76,1.76,0,0,1,.4.16,1,1,0,0,1,.31.3,5.89,5.89,0,0,0,1,1.25,2.59,2.59,0,0,0,2.57,0,22.45,22.45,0,0,1,2.37-1.26,6.5,6.5,0,0,1,3.68.08,7,7,0,0,0,2,.32,1.91,1.91,0,0,0,1.66-1A3.77,3.77,0,0,0,709.83,635.17Z" transform="translate(19.97 20)"/><path class="cls-41" d="M709.64,634.66a10.62,10.62,0,0,0-1-1.45,6.79,6.79,0,0,0-.9-1.16,1.53,1.53,0,0,0-1.35-.44l-1.93.26c-.42.24-1,.1-1.38.34a3,3,0,0,0-.51.43,2.88,2.88,0,0,1-1.66.5,23.72,23.72,0,0,0-3.68.28,6.24,6.24,0,0,0-2,.83,1.56,1.56,0,0,0-.45.4,1.05,1.05,0,0,0,0,1.13,1.68,1.68,0,0,0,.94.71,2.37,2.37,0,0,1,.4.15,1.14,1.14,0,0,1,.31.31,5.89,5.89,0,0,0,1,1.25,2.59,2.59,0,0,0,2.57,0,22.45,22.45,0,0,1,2.37-1.26,6.5,6.5,0,0,1,3.68.08,7,7,0,0,0,2,.32,1.93,1.93,0,0,0,1.66-.95A2,2,0,0,0,709.64,634.66Z" transform="translate(19.97 20)"/><path class="cls-43" d="M707.07,635c-.13-.18-.29-.34-.4-.53a3.58,3.58,0,0,1-.24-.72,3.73,3.73,0,0,0-.63-1.24l-.13-.13c0-.09-.17-.07-.21,0a.32.32,0,0,0,0,.27,13,13,0,0,0,1.64,3.26.29.29,0,0,0,.13.14.14.14,0,0,0,.18,0,.21.21,0,0,0,0-.11A2,2,0,0,0,707.07,635Z" transform="translate(19.97 20)"/><path class="cls-43" d="M704.51,634.79a2.86,2.86,0,0,1-.21-.43,3,3,0,0,1-.06-.68.71.71,0,0,0-.3-.58h-.18l-.07-.07a.32.32,0,0,0-.1.27,3,3,0,0,0,.18.77c.17.5.34,1,.5,1.49a1.16,1.16,0,0,0,.18.37.36.36,0,0,0,.37.13A3.64,3.64,0,0,0,704.51,634.79Z" transform="translate(19.97 20)"/><path class="cls-43" d="M702.12,635.15a4.83,4.83,0,0,0-.9-1.56l-.12.19c.13.49.51.88.65,1.37.07.23.08.47.17.69,0,.06.07.12.13.13a.14.14,0,0,0,.11,0,.4.4,0,0,0,.13-.39A1.55,1.55,0,0,0,702.12,635.15Z" transform="translate(19.97 20)"/><path class="cls-43" d="M700.16,635.93l-1.3-2-.09-.08c-.13,0-.27.09-.26.23a.62.62,0,0,0,.18.37,20.13,20.13,0,0,1,1.44,2c.09.14.19.3.35.33A1.41,1.41,0,0,0,700.16,635.93Z" transform="translate(19.97 20)"/><path class="cls-43" d="M698.4,636.83a3.92,3.92,0,0,0-1.51-1.92l-.06-.11-.09,0a.77.77,0,0,0,.19.55,5.15,5.15,0,0,1,.8,1.07c0,.11.06.23.11.34a.75.75,0,0,0,.59.41A.51.51,0,0,0,698.4,636.83Z" transform="translate(19.97 20)"/><polygon class="cls-31" points="623.62 736.2 627.41 734.01 627.33 705.77 623.54 706.32 623.62 736.2"/><polygon class="cls-32" points="648.1 696.17 672.16 710.16 672.22 735.71 675.05 737.36 674.97 709.11 645.27 691.86 645.36 720.1 648.1 721.69 648.1 696.17"/><polygon class="cls-34" points="653.34 716.98 623.64 699.72 649.05 685.05 678.75 702.31 653.34 716.98"/><polygon class="cls-32" points="623.73 709.72 646.91 723.19 646.97 749.78 650.25 751.68 650.16 721.8 620.46 704.54 620.55 734.42 623.65 736.22 623.73 709.72"/><g class="cls-11"><polygon class="cls-39" points="649.26 708.62 622.86 693.28 616.69 675.01 643.09 690.35 649.26 708.62"/></g><polygon class="cls-44" points="650.16 721.8 620.46 704.54 611.6 677.23 641.3 694.49 650.16 721.8"/><polygon class="cls-45" points="641.3 694.49 611.6 677.23 614.92 673.79 644.62 691.05 641.3 694.49"/><polygon class="cls-36" points="644.62 691.05 653.34 716.98 678.75 702.31 678.85 735.17 675.05 737.36 674.97 709.11 653.96 721.25 654.04 749.49 650.25 751.68 650.16 721.8 641.3 694.49 644.62 691.05"/><path class="cls-29" d="M611.77,660.62s-5.06,16.44,5.22,20.53c5.83,2.32,8.62.67,8.62.67s8,2,22.45-.21c6.71-1.06,7.84-3.63,5.88-7.76-2.53-5.36-18.22-4.84-18.22-4.84Z" transform="translate(19.97 20)"/><path class="cls-18" d="M612.68,637.2a71.87,71.87,0,0,1,13.89-6.58,15.87,15.87,0,0,1,7.55-4.6c3.74-.93,7.45,2.23,3.43,4.88-6.24,4.11-7.78,3.07-7.78,3.07s-7.83,15-12.38,10.28A26.53,26.53,0,0,1,612.68,637.2Z" transform="translate(19.97 20)"/><polygon class="cls-35" points="641.34 644.38 640.44 649.23 647.32 650.74 647.87 646.1 641.34 644.38"/><path class="cls-18" d="M634.18,612.56s2,12-5.65,13.91-7.15-8.9-7.15-8.9l4.19-6.61Z" transform="translate(19.97 20)"/><path class="cls-35" d="M634.74,611.36s-.08-9.9-8.36-11.06c-7.69-1.08-15.11,2.43-15.38,13.49s9.71,15.11,17.53,12.68a35.11,35.11,0,0,1-1.34-7.83c0-3.23,1.61-5.66,2.69-.8C629.88,617.84,633.66,614.33,634.74,611.36Z" transform="translate(19.97 20)"/><ellipse class="cls-35" cx="610.39" cy="609.22" rx="5.93" ry="6" transform="translate(-104.09 1081.23) rotate(-76.56)"/><path class="cls-17" d="M614,604.5a5.89,5.89,0,0,1-2.52,10.56A5.68,5.68,0,0,0,614,604.5Z" transform="translate(19.97 20)"/><path class="cls-44" d="M610.73,636.72s1.08-9.89,7.82-10,13.22,1.67,15.11,5.24c2.08,4,3.24,7,0,19.36s-2.47,11.42.77,16.28-23.16-1.71-23.16-6.3S610.06,640.9,610.73,636.72Z" transform="translate(19.97 20)"/><path class="cls-18" d="M632.07,654.06c-.91-1-3.77-9.74-5.38-16s3.22-7.78,3.22-7.78c7.67.1,9.51,22.19,9.48,23C640,656.76,633.54,655.74,632.07,654.06Z" transform="translate(19.97 20)"/><path class="cls-18" d="M636.55,650.12s8.79-7.28,14-8c0,0,6-9.3,8.76-5.5,3.1,4.23-4.49,9.83-6.46,9.83,0,0-11.15,11.91-17.18,9.52S636.55,650.12,636.55,650.12Z" transform="translate(19.97 20)"/><polygon class="cls-32" points="650.16 721.8 620.46 704.54 611.6 677.23 641.3 694.49 650.16 721.8"/><polygon class="cls-34" points="641.3 694.49 611.6 677.23 614.92 673.79 644.62 691.05 641.3 694.49"/><polygon class="cls-31" points="644.62 691.05 653.34 716.98 678.75 702.31 678.85 735.17 675.05 737.36 674.97 709.11 653.96 721.25 654.04 749.49 650.25 751.68 650.16 721.8 641.3 694.49 644.62 691.05"/><path class="cls-19" d="M710.94,625.52a4.81,4.81,0,0,0-4.34,0,1.33,1.33,0,0,0,0,2.52,4.83,4.83,0,0,0,4.35,0C712.16,627.34,712.15,626.22,710.94,625.52Z" transform="translate(19.97 20)"/><path class="cls-18" d="M703.9,614.94h9.75c0,3.14-2.75,5-4.34,6.92-.75.9,0,4.69,0,4.69s0,.23-.53.23-.54-.23-.54-.23.76-3.79,0-4.69C706.66,620,703.9,618.08,703.9,614.94Z" transform="translate(19.97 20)"/><path class="cls-29" d="M708.78,618.2l3.66-.21s-2.63,3.23-3.66,3.64c-1-.41-3.67-3.64-3.67-3.64Z" transform="translate(19.97 20)"/><path class="cls-19" d="M712.21,613.58a10.83,10.83,0,0,0-6.89,0c-1.9.75-1.89,2,0,2.71a10.83,10.83,0,0,0,6.89,0C714.13,615.54,714.12,614.33,712.21,613.58Z" transform="translate(19.97 20)"/><path class="cls-41" d="M711.36,617.49a18.72,18.72,0,0,0-5.18,0c-1.43.24-1.42.63,0,.87a18.05,18.05,0,0,0,5.19,0C712.81,618.12,712.8,617.73,711.36,617.49Z" transform="translate(19.97 20)"/><path class="cls-19" d="M672.47,613.07c-6.75,2.86-6.78,7.49-.08,10.34s17.58,2.85,24.33,0,6.76-7.48.07-10.33S679.2,610.22,672.47,613.07Z" transform="translate(19.97 20)"/><path class="cls-35" d="M698,617.28a1.73,1.73,0,0,0-1.23-1.62,2.32,2.32,0,0,0-.38-.06,2.4,2.4,0,0,0-1.17-.86,4.09,4.09,0,0,0-1.17-.17,2,2,0,0,0-1.35-.84,2.35,2.35,0,0,0-.53,0,5.85,5.85,0,0,0-2.71-1.06c-1.11-.09-2.22.15-3.33.15a28,28,0,0,0-3.78.24c-1.11.15-2.24.32-3.35.54-.14,0-.27.06-.41.09l-.3-.1a4.11,4.11,0,0,0-2.52.07c-1.06-.25-2.32.61-3.06,1.24s-1.84,1.9-1.19,3a1.4,1.4,0,0,0,1.19.71,3.92,3.92,0,0,0,0,.76,2.67,2.67,0,0,0,1.27,2,13.53,13.53,0,0,0,2.54,1.15,16.8,16.8,0,0,0,3.62,1,9.69,9.69,0,0,0,1.94.07.9.9,0,0,0,.43.52,3.13,3.13,0,0,0,1.94.1,2,2,0,0,0,1.55-.93.34.34,0,0,0,.06-.12c1.94-.21,3.87-.39,5.8-.63a10.35,10.35,0,0,0,3.07-.62,4.2,4.2,0,0,0,1.92-1.76,3.63,3.63,0,0,0,.42-1.18,1.73,1.73,0,0,0,.35-.27A1.59,1.59,0,0,0,698,617.28Zm-1.07,1.34a1.59,1.59,0,0,1-.39.07,2.37,2.37,0,0,0,.19-1.17A2,2,0,0,1,696.94,618.62Zm-1.19,1.64a1.34,1.34,0,0,1-.77.5,2.42,2.42,0,0,0,.37-.93,1.54,1.54,0,0,0,.5-.24A1,1,0,0,1,695.75,620.26Zm-13.28,2.82a5.19,5.19,0,0,1,.06-.89l0-.23a2.15,2.15,0,0,0,1.08.55,7.24,7.24,0,0,0,2.13,0,.45.45,0,0,1,0,.16c-1.09.12-2.18.28-3.28.38Zm-2.17-.81a1.39,1.39,0,0,1-1.47.31,4,4,0,0,1-2-1.43h.08a14.69,14.69,0,0,0,3.75.12A1.39,1.39,0,0,1,680.3,622.27Zm-6.12-5.45a2.93,2.93,0,0,0,.18.84,3.54,3.54,0,0,1-1.16.47,2.16,2.16,0,0,1,.56-1A3.62,3.62,0,0,1,674.18,616.82Zm.5.44a2.82,2.82,0,0,1-.09-.71,6.35,6.35,0,0,1,1.7-.67,1.34,1.34,0,0,0,.22.47,6.26,6.26,0,0,0-1,.56,1.25,1.25,0,0,0-.51.33l-.28.18,0,0A1.21,1.21,0,0,1,674.68,617.26Zm3.89-3.15a.55.55,0,0,1,.23.92,17.88,17.88,0,0,0-2,.34A1.12,1.12,0,0,1,677,615,3.43,3.43,0,0,1,678.57,614.11Zm12.31.31a8.06,8.06,0,0,1,1.24-.26l.17.11c.19.12.38.24.58.35h-2A.78.78,0,0,1,690.88,614.42Zm4.43,1.75.21.15a2.25,2.25,0,0,0-.58,0l0,0a1.83,1.83,0,0,1,.32-.14Zm.38,3a1,1,0,0,1-.32.18,1,1,0,0,0-.11-.41l0,0,.27.07Zm-1.42.22.62-.25a.75.75,0,0,1,.06.31A2.27,2.27,0,0,1,694.27,619.42Zm-.79,1.27a.83.83,0,0,1-.34.4,2.62,2.62,0,0,1-.62-.07.61.61,0,0,1-.3-.2,4.53,4.53,0,0,0,1.12-.92A.72.72,0,0,1,693.48,620.69Zm-13.71-1.62-.18-.17a2.44,2.44,0,0,0,0-.47l.62.06-.11.15Zm-4.52-1.48.5-.34a1.56,1.56,0,0,1,.71.07,2.14,2.14,0,0,0-.37.42,4.31,4.31,0,0,0-.49.22,1.92,1.92,0,0,0-.35.22A1.68,1.68,0,0,1,675,618,1.44,1.44,0,0,1,675.25,617.59Zm1.54-.91a2,2,0,0,0,.29.22h0l-.22.11a4,4,0,0,0-.49-.15A3.89,3.89,0,0,1,676.79,616.68Zm14.73,1.45a3,3,0,0,0-.74.06,2.17,2.17,0,0,0,.19-.44,2.58,2.58,0,0,0,.1-.92,2.93,2.93,0,0,1,.38.8A1.24,1.24,0,0,1,691.52,618.13Zm.41,2-.06-.29a9.28,9.28,0,0,0,1.06-.11,3.8,3.8,0,0,1-.91.71A2.12,2.12,0,0,1,691.93,620.15Zm-4.64,1a.44.44,0,0,1,0-.47l.12-.05a2.46,2.46,0,0,0,.39-.22A7.29,7.29,0,0,0,687.29,621.16Zm-5.1-1.87,0,0c0,.25,0,.5.06.76a.54.54,0,0,0-.15.15A2,2,0,0,1,682.19,619.29Zm-1.69-1.17c-.31,0-.63-.07-1-.1a1.77,1.77,0,0,0-.08-.31,3.84,3.84,0,0,1,1.09.34Zm-1.76,1.48a1,1,0,0,1-1.13-.47l0-.07c.1-.16.19-.33.28-.49s.33-.07.5-.09q.38.27.72.57A.72.72,0,0,1,678.74,619.6Zm-3-1.21-.07,0,0,0,.06,0Zm.63-.34.46-.14a2.16,2.16,0,0,0,0,.44c-.22,0-.44.06-.67.07C676.26,618.29,676.32,618.17,676.39,618.05Zm7-2.92a5.94,5.94,0,0,0-1.38,1.13,1.41,1.41,0,0,0-.66-.52,1.07,1.07,0,0,0-.16-.14,1.6,1.6,0,0,1,.23-.38C682.07,615.18,682.72,615.15,683.38,615.13Zm7.17,1.17a2,2,0,0,1-.46,2.09l-.37,0h-.31a1.85,1.85,0,0,0,0-1.61,1.71,1.71,0,0,0,.61-.93,2.83,2.83,0,0,1,.45.32Zm-5.37,4.41-.44,0a1.83,1.83,0,0,1-.53-.21,2.73,2.73,0,0,1,.32-1l0-.06.93-.36.43-.23h.3a4.46,4.46,0,0,0,.42.34,4,4,0,0,0-.79,1.43Zm-3.94-3.83.18,0-.06.07A.46.46,0,0,1,681.24,616.88Zm-.2-.81h0a2.08,2.08,0,0,1,.34.43l-.36-.07A1.09,1.09,0,0,1,681,616.07Zm2.85.54a2.18,2.18,0,0,1,1.32-.75,3.67,3.67,0,0,1,.81-.11,2.35,2.35,0,0,0,0,.26,3.15,3.15,0,0,1-.79.71,4,4,0,0,1-1.19.37l-.29.06A.87.87,0,0,1,683.89,616.61Zm5.76-1a1.09,1.09,0,0,1-.45.75,3.8,3.8,0,0,0-1.46-1A3.49,3.49,0,0,1,689.65,615.63Zm-7,3.53c0-.16,0-.33-.07-.51l.09-.08.19-.16a4.07,4.07,0,0,1,.29,1s0,.07,0,.12l-.1.05Zm.89.21a4.63,4.63,0,0,0-.29-1c0-.06,0-.12-.07-.17a2.41,2.41,0,0,1,.5-.21,2.08,2.08,0,0,0,.57.43,2.63,2.63,0,0,0,.42.17,2,2,0,0,0-.35.46Zm.6-1.49a6.43,6.43,0,0,1,1-.12,2,2,0,0,1,.37.31l.15.17h0a1.14,1.14,0,0,0-.46.06A2.35,2.35,0,0,1,684.13,617.88Zm4.13-.49a2.67,2.67,0,0,1,.08.48,1.79,1.79,0,0,0-.75.36l-.18-.14a2.77,2.77,0,0,1-.33-.35l.06-.11A5.46,5.46,0,0,0,688.26,617.39Zm-.13,1a1.11,1.11,0,0,1,.22-.07v.06Zm-1.55-.66a3.05,3.05,0,0,1-.44.44,5.49,5.49,0,0,0-.4-.43l.82,0Zm-.09.7a4,4,0,0,0,.35-.36,3,3,0,0,0,.35.36h-.7Zm1-1.24-.12,0a1.52,1.52,0,0,0-.15-1.2,1.89,1.89,0,0,1,.68.58,2.58,2.58,0,0,1,.25.42A5.39,5.39,0,0,1,687.46,617.18Zm-.81-1.27.06.07a1.19,1.19,0,0,1,.15,1.28h-.09a2.86,2.86,0,0,1-.35-1.13Zm-.54.74a3.33,3.33,0,0,0,.23.65l-1.11,0-.21-.09.16-.06a2.5,2.5,0,0,0,.9-.67Zm-2.29,4.12v0l-.4,0a2,2,0,0,0,.07-.23Zm-.26-.68a2.81,2.81,0,0,0,0-.29l.46-.18a2.66,2.66,0,0,0-.2.68Zm1.6-1.35h0l-.07,0Zm4.12,0v0h.09Zm-.13-.91a2,2,0,0,1-.1.32l-.09-.11a.58.58,0,0,0-.21-.15,3.82,3.82,0,0,0-.12-.69l.45-.24A1.41,1.41,0,0,1,689.15,617.87Zm-1-1.84a2.7,2.7,0,0,1,.69.61,3.47,3.47,0,0,1-.37.21,2.39,2.39,0,0,0-1.37-1.3l.06,0A8.35,8.35,0,0,1,688.18,616Zm-1.5-.67,0-.05.08,0Zm-4,4.91.07,0a1.48,1.48,0,0,1,.21-.13l.17.16a1.24,1.24,0,0,1-.12.46l-.33-.08C682.71,620.52,682.72,620.4,682.71,620.27Zm4.88-1.1a5,5,0,0,0,.56.07v0l0,0a3.49,3.49,0,0,1-.54-.12Zm1.78.16h0l-.05,0v0Zm1.79-.55h0Zm-4-3.69h0Zm-1.48,0h0a2.7,2.7,0,0,1,.39.27,3.94,3.94,0,0,0-1.65.34,1.58,1.58,0,0,0-1.11,1.52,5.38,5.38,0,0,1-.69.07,3.41,3.41,0,0,0-.38-.38.44.44,0,0,0,0-.1,1.21,1.21,0,0,0,0-.18,6.26,6.26,0,0,1,1.52-1.24,2.73,2.73,0,0,1,.83-.29Zm-5,1a1.37,1.37,0,0,0,0,.35h-.52a3.55,3.55,0,0,0,.44-.35Zm-3.15,2.19a2.53,2.53,0,0,1,.12-.36l.17.12a2.12,2.12,0,0,0-.11.21Zm.41-.94a.41.41,0,0,1,.05-.09h.31l0,0Zm-.49,0,0,0,0,0,.05,0A.3.3,0,0,0,677.4,617.29Zm.91.59.15-.23H679c0,.12.07.24.1.35h0a5.28,5.28,0,0,0-.55,0Zm.5-.65h-.06l0,0Zm.21,1.19h.17a.76.76,0,0,0,0,.15Zm1.21-.95a3.77,3.77,0,0,0-.94-.21,1.69,1.69,0,0,0-.17-.29l.13-.06a9,9,0,0,1,1.48-.1.26.26,0,0,0,0,.08,1.16,1.16,0,0,0,.34.44l-.29.39A4.23,4.23,0,0,0,680.23,617.47Zm1.5-.3,0,.05,0,0Zm.74.54.09.13-.14.09-.06-.23Zm3.85,2.82a3.8,3.8,0,0,1,.65-1.15,2.33,2.33,0,0,0,.33.14,1.67,1.67,0,0,0,.3.08,2.81,2.81,0,0,0-.47.5,6,6,0,0,1-.75.42Zm2.07-.82.21,0-.41.29A3.28,3.28,0,0,0,688.39,619.71Zm2.92-.31,0,.08c-.32,0-.64,0-1,0C690.61,619.43,690.94,619.41,691.31,619.4Zm.46,0a1.66,1.66,0,0,1,.32,0h-.3Zm1.2-1.26a1.16,1.16,0,0,0,.23-.4,1.59,1.59,0,0,1,.24-.2.93.93,0,0,0,.31.59c0,.05,0,.1,0,.15l0,.05a3.83,3.83,0,0,1-.52-.05l-.24,0A.37.37,0,0,1,693,618.16Zm.37.57.25,0a1.87,1.87,0,0,1-.15.32,1.22,1.22,0,0,1-.37-.38Zm.54.4a2.3,2.3,0,0,0,.15-.32,3.07,3.07,0,0,1,.42.07l.07,0C694.31,619,694.1,619.06,693.88,619.13Zm.7-.91a2.83,2.83,0,0,1-.41-.25,1.57,1.57,0,0,0-.21-.75l.13-.12a1.57,1.57,0,0,0,.31.67,7.68,7.68,0,0,0,.64.67Zm-1.32-1c0-.06,0-.12,0-.19l.12.12Zm-.67,1.44a1.8,1.8,0,0,0,.08.21,1.85,1.85,0,0,0,.3.39,4.81,4.81,0,0,0-1.4-.22h0a1.11,1.11,0,0,0,.22-.29l.48-.12Zm-8.12-3.94c-.87,0-1.73.06-2.6.11a2.81,2.81,0,0,1,1.7-.43,3.8,3.8,0,0,1,1.24.27Zm-4.09,1,0,0a3.63,3.63,0,0,0-1.56.86h0l-.19-.16a3.15,3.15,0,0,1,.93-.62A1.5,1.5,0,0,1,680.38,615.68Zm-2.17.52h0l.19-.15Zm-.31.34a1.09,1.09,0,0,0-.13.17l-.1,0h0c.05-.07.11-.13.17-.2Zm-.62,0h0Zm-1.95,2.15a1.78,1.78,0,0,0,.33.09c0,.05,0,.1,0,.15a2.89,2.89,0,0,0,.12,1.13,2.27,2.27,0,0,1-.47-.76A.64.64,0,0,1,675.33,618.7Zm.78,1.09a2.13,2.13,0,0,1,0-1,3.38,3.38,0,0,0,.45,0l.42,0a.76.76,0,0,0,0,.11,1.93,1.93,0,0,0,0,.24l0,.18-.15.21a4.87,4.87,0,0,1-.4.5c-.05,0-.13.17-.21.26A2.9,2.9,0,0,1,676.11,619.79Zm2.71.21a.78.78,0,0,1-1,0,1.51,1.51,0,0,1-.21-.23A1.5,1.5,0,0,0,678.82,620Zm.65-.65,0,0-.11.12A1.11,1.11,0,0,0,679.47,619.35Zm1.69-1.43.29-.39a1.37,1.37,0,0,0,.36.11.7.7,0,0,1-.44.4h0Zm.85.16a.29.29,0,0,1,0,.09.64.64,0,0,1,0,.07l-.19.19-.12-.1A.93.93,0,0,0,682,618.08Zm.79,3.24a.52.52,0,0,0,.42-.17,4,4,0,0,1,.69.09l.17,0h0a1.47,1.47,0,0,0,.93.37,2,2,0,0,1,.58.5l-.61,0a2.59,2.59,0,0,1-2.35-.76l0-.12Zm2.28-.1h0l0,0,.33,0a2.74,2.74,0,0,0,.5-.07l0,.11Zm1.16-.2.26-.11.31-.07a.72.72,0,0,0,.07.44h-.47A.34.34,0,0,1,686.24,621Zm1.56.1a3.41,3.41,0,0,1,1-1,1.81,1.81,0,0,1-.37.7,1.5,1.5,0,0,1-.67.38Zm2.46-1.26c.4,0,.8,0,1.2,0a5,5,0,0,0,.19.74,1.48,1.48,0,0,1-1.83-.78Zm5.26-1.52-.16-.18c-.37-.37-.89-.85-.86-1.28a2,2,0,0,1,1.08-.11.81.81,0,0,1,.74.73,2.3,2.3,0,0,1-.73.79Zm-1-2.26a2,2,0,0,0,0-.49l.41.29A1.77,1.77,0,0,0,694.55,616.08Zm-1-1.07h0l.3.17.13.08a1.6,1.6,0,0,1,0,1.25,1,1,0,0,1-.31.37,3,3,0,0,0-.53-.46c0-.06,0-.13,0-.19a.21.21,0,0,0-.4-.07c-.19-.12-.4-.23-.59-.34a3.71,3.71,0,0,1-1.05-.76C691.93,615.05,692.72,615,693.5,615Zm-.69,1.65a3.89,3.89,0,0,1,0,.9,1.34,1.34,0,0,0-.22.38,1.54,1.54,0,0,1-.39.23l-.28,0a2.8,2.8,0,0,0-.53-1.53,3.91,3.91,0,0,0-.56-.66,3.38,3.38,0,0,0-.24-.41,2.52,2.52,0,0,0-.51-.47h.54C691.06,615.81,692.14,616.23,692.81,616.66Zm-4.11-2.14a3.56,3.56,0,0,0-1.91.13l-1.07,0a4.78,4.78,0,0,0-2.59-.71,8,8,0,0,1,2.1-.17,9,9,0,0,1,2.72.39,5.16,5.16,0,0,1,.84.36Zm-8,.81-.18-.05.24,0Zm-1.38.1a4.09,4.09,0,0,0-.67.38,3,3,0,0,0,.41-.39l.4,0Zm-1,.07-.25.21-.43.37a2.15,2.15,0,0,0-.82.12.9.9,0,0,1-.18-.43C677.27,615.65,677.84,615.57,678.38,615.5Zm-3.41,3a.16.16,0,0,0,0,.07.28.28,0,0,0,0-.09Zm3.44,2.4a7.77,7.77,0,0,1-1.94-.25h0a5.21,5.21,0,0,0,.51-.59c.08-.09.15-.19.23-.29a1.31,1.31,0,0,0,1.19.8,2.2,2.2,0,0,0,1.4-.89,3.94,3.94,0,0,1,.36.45,2.77,2.77,0,0,1,.39.74C679.83,620.91,679.12,620.94,678.41,620.91Zm1.64-1.54.22-.29c.15-.18.29-.37.44-.56a3.43,3.43,0,0,0,.56,0c.12.09.24.18.35.28a1.88,1.88,0,0,0-.23.61,1.2,1.2,0,0,0,.41,1.19,2.17,2.17,0,0,1,.07.24l-.93.05A4.31,4.31,0,0,0,680.05,619.37Zm5.65,2.31h.58a1.65,1.65,0,0,0,.5.1,1.29,1.29,0,0,1-.45.24l-.31.07A1.81,1.81,0,0,0,685.7,621.68Zm4-.35c-.45,0-.91,0-1.36,0a1.92,1.92,0,0,0,.93-1.54h.11c.13.94,1.5,1.48,2.44,1.18a1,1,0,0,0,.47.38l0,0-.19,0h0C691.32,621.43,690.5,621.35,689.7,621.33Zm4-.28a1,1,0,0,0,.14-.25,1.08,1.08,0,0,0-.21-1.14,3.8,3.8,0,0,0,.85.22,2.6,2.6,0,0,0,.39,0,1.73,1.73,0,0,1-.71,1.09Zm2.3-2.37-.24,0,.22-.17.25-.22a2.3,2.3,0,0,1-.17.42Zm.34-2.21-.55-.44.35,0A1.89,1.89,0,0,1,696.37,616.47Zm-.49-.86a3.06,3.06,0,0,0-.51.1c-.33-.25-.68-.48-1-.7A2.31,2.31,0,0,1,695.88,615.61Zm-15.74-1.8c1.24-.17,2.46-.4,3.71-.51s2.39,0,3.59-.15a6.54,6.54,0,0,1,3.4.27,7.43,7.43,0,0,1,.73.4c-.32.07-.64.17-1,.25a.2.2,0,0,0-.15.19,1.56,1.56,0,0,0,0,.38h-.92a2.88,2.88,0,0,0-.52-.4,5.22,5.22,0,0,0-2.06-.71,12.77,12.77,0,0,0-3.21-.08,3.66,3.66,0,0,0-2.4,1.14,2.73,2.73,0,0,0-.23.25l-.49,0-1.32.11a1.89,1.89,0,0,0,0-.23.85.85,0,0,0-.3-.76C679.44,613.91,679.8,613.86,680.14,613.81Zm-2.22.1a3.19,3.19,0,0,0-1.46,1.09,1.18,1.18,0,0,0-.2.49,9,9,0,0,0-.88.28,5.75,5.75,0,0,0-.77.33,4.05,4.05,0,0,1,.24-1,1.65,1.65,0,0,1,1-1l.11,0a.17.17,0,0,0,.24-.15h0A4.36,4.36,0,0,1,677.92,613.91Zm-6.17,3.1a3.08,3.08,0,0,1,1-1.6,5.6,5.6,0,0,1,1.82-1.18,2.56,2.56,0,0,1,.49-.16,2,2,0,0,0-.35.41,3.91,3.91,0,0,0-.55,1.88,4.65,4.65,0,0,0-.82.66,2.23,2.23,0,0,0-.58,1.14A1.08,1.08,0,0,1,671.75,617Zm3.71,4.54a3.51,3.51,0,0,1-2.14-1.69,2.94,2.94,0,0,1-.2-1.33,4.33,4.33,0,0,0,1.41-.51l.06.09a2.76,2.76,0,0,0,0,1.4,2.29,2.29,0,0,0,1.58,1.47,5,5,0,0,0,1.16,1.26l.11.09C676.78,622.09,676.12,621.83,675.46,621.55ZM680,623a1.64,1.64,0,0,0,.46-.26,1.58,1.58,0,0,0,.61-1.47l1-.09a2.89,2.89,0,0,0,.19.35c0,.3-.08.59-.11.89a5.27,5.27,0,0,0,0,.7A10.63,10.63,0,0,1,680,623Zm4.35.77c-.42.08-1.49.21-1.75-.27.46,0,.93-.1,1.39-.16l1.72-.19A2.33,2.33,0,0,1,684.3,623.76Zm12.19-3.8c-1.18,2.08-3.92,2-6,2.27-1.34.15-2.68.29-4,.41l-.28,0a1.1,1.1,0,0,0,0-.18,2,2,0,0,0,1.16-.7h.42c.42.06.87,0,1.27.07a12.4,12.4,0,0,0,3.22,0,7.93,7.93,0,0,0,1-.06,2.72,2.72,0,0,0,1.17-.4,2.47,2.47,0,0,0,1.77-1,1.2,1.2,0,0,0,0-1.06c.05,0,.09-.11.14-.17v0a1.94,1.94,0,0,0,.54-.05A3.41,3.41,0,0,1,696.49,620Zm.86-1.59a2.55,2.55,0,0,0-.08-.61,2,2,0,0,0-.43-.81,1.35,1.35,0,0,0,0-.4,2,2,0,0,0-.14-.48,1.21,1.21,0,0,1,.83.8A1.49,1.49,0,0,1,697.35,618.37Z" transform="translate(19.97 20)"/><path class="cls-42" d="M671.69,618.63a1.73,1.73,0,0,0,.35.27,3.63,3.63,0,0,0,.42,1.18,4.2,4.2,0,0,0,1.92,1.76,10.35,10.35,0,0,0,3.07.62c1.93.24,3.86.42,5.8.63a.34.34,0,0,0,.06.12,2,2,0,0,0,1.55.93,3.13,3.13,0,0,0,1.94-.1.9.9,0,0,0,.43-.52,9.69,9.69,0,0,0,1.94-.07,16.8,16.8,0,0,0,3.62-1,13.92,13.92,0,0,0,2.55-1.15,2.68,2.68,0,0,0,1.26-2,3.26,3.26,0,0,0,0-.76,1.38,1.38,0,0,0,1.19-.71c.65-1.05-.43-2.3-1.19-3s-2-1.49-3.06-1.24a4.11,4.11,0,0,0-2.52-.07l-.3.1c-.13,0-.27-.07-.41-.09-1.1-.22-2.24-.39-3.35-.54a28,28,0,0,0-3.77-.24c-1.12,0-2.23-.24-3.34-.15a5.85,5.85,0,0,0-2.71,1.06,2.35,2.35,0,0,0-.53,0,2,2,0,0,0-1.35.84,4.09,4.09,0,0,0-1.17.17,2.4,2.4,0,0,0-1.17.86,2.32,2.32,0,0,0-.38.06,1.73,1.73,0,0,0-1.23,1.62A1.59,1.59,0,0,0,671.69,618.63Zm.93-1.11a2.37,2.37,0,0,0,.19,1.17,1.59,1.59,0,0,1-.39-.07A2,2,0,0,1,672.62,617.52Zm.89,2.07a1.65,1.65,0,0,0,.5.24,2.42,2.42,0,0,0,.37.93,1.34,1.34,0,0,1-.77-.5A1,1,0,0,1,673.51,619.59Zm13.33,3.49c-1.1-.1-2.18-.26-3.28-.38a.45.45,0,0,1,0-.16,7.24,7.24,0,0,0,2.13,0,2.15,2.15,0,0,0,1.08-.55l0,.23a5.19,5.19,0,0,1,.06.89Zm1.9-1.8a14.69,14.69,0,0,0,3.75-.12h.08a4,4,0,0,1-2,1.43,1.27,1.27,0,0,1-1.79-1.3Zm6.86-4.1a2.16,2.16,0,0,1,.56,1,3.54,3.54,0,0,1-1.16-.47,3.31,3.31,0,0,0,.19-.84A4.59,4.59,0,0,1,695.6,617.18Zm-1,.26,0,0-.28-.18a1.25,1.25,0,0,0-.51-.33,6.26,6.26,0,0,0-1-.56,1.58,1.58,0,0,0,.23-.47,6.41,6.41,0,0,1,1.69.67,2.82,2.82,0,0,1-.09.71A1.21,1.21,0,0,1,694.63,617.44ZM692.36,615a1.12,1.12,0,0,1,.25.39,17.88,17.88,0,0,0-2.05-.34.55.55,0,0,1,.23-.92A3.43,3.43,0,0,1,692.36,615Zm-13.91-.34h-2c.2-.11.39-.23.58-.35l.17-.11a8.06,8.06,0,0,1,1.24.26A.78.78,0,0,1,678.45,614.64Zm-4.39,1.53a1.83,1.83,0,0,1,.32.14l0,0a2.25,2.25,0,0,0-.58,0l.21-.15Zm-.27,2.85.27-.07,0,0a1,1,0,0,0-.11.41,1,1,0,0,1-.32-.18Zm.62.46a.75.75,0,0,1,.06-.31l.62.25A2.27,2.27,0,0,1,674.41,619.48Zm1.61.42a4.53,4.53,0,0,0,1.12.92.61.61,0,0,1-.3.2,2.62,2.62,0,0,1-.62.07.83.83,0,0,1-.34-.4A.74.74,0,0,1,676,619.9Zm13.23-1.26-.11-.15.62-.06a2.44,2.44,0,0,0,0,.47l-.18.17Zm5.07-.64a1.18,1.18,0,0,1-.21.18,2.22,2.22,0,0,0-.34-.22,5.44,5.44,0,0,0-.5-.22,2.14,2.14,0,0,0-.37-.42,1.57,1.57,0,0,1,.71-.07l.5.34A1.44,1.44,0,0,1,694.32,618ZM693,616.87a4,4,0,0,0-.49.15l-.22-.11h0a2,2,0,0,0,.29-.22A3.89,3.89,0,0,1,693,616.87Zm-15.08.76a3.25,3.25,0,0,1,.38-.8,2.58,2.58,0,0,0,.1.92,2.17,2.17,0,0,0,.19.44,3,3,0,0,0-.74-.06A1.24,1.24,0,0,1,677.91,617.63Zm-.57,2.83a3.8,3.8,0,0,1-.91-.71,9.28,9.28,0,0,0,1.06.11,2.47,2.47,0,0,1-.06.29A2.12,2.12,0,0,1,677.34,620.46Zm4.24,0a2.46,2.46,0,0,0,.39.22l.12.05a.46.46,0,0,1,0,.47C681.92,620.91,681.76,620.65,681.58,620.42Zm5.65-.19a.54.54,0,0,0-.15-.15c0-.26,0-.51.06-.76l0,0A2,2,0,0,1,687.23,620.23Zm1.57-2.18a3.84,3.84,0,0,1,1.09-.34,1.77,1.77,0,0,0-.08.31c-.32,0-.64.08-.95.1Zm1.41,1q.35-.3.72-.57c.17,0,.34.06.5.09s.18.33.28.49l0,.07a1,1,0,0,1-1.13.47A.72.72,0,0,1,690.21,619.05Zm3.36-.73.07,0,0,0-.07,0Zm-.41.1c-.23,0-.45,0-.67-.07a2.16,2.16,0,0,0,0-.44l.46.14C693,618.17,693.1,618.29,693.16,618.42Zm-5.21-3.2a1.6,1.6,0,0,1,.23.38,1.07,1.07,0,0,0-.16.14,1.41,1.41,0,0,0-.66.52,5.94,5.94,0,0,0-1.38-1.13C686.64,615.15,687.3,615.18,688,615.22Zm-9.08.92a2.83,2.83,0,0,1,.45-.32,1.71,1.71,0,0,0,.61.93,1.85,1.85,0,0,0,0,1.61h-.3l-.38,0a2,2,0,0,1-.46-2.09Zm4.64,4.48a4,4,0,0,0-.79-1.43,3.47,3.47,0,0,0,.42-.34h.3l.43.23.93.36,0,.06a2.73,2.73,0,0,1,.32,1,1.73,1.73,0,0,1-.53.21l-.43,0ZM688,617l-.06-.07.18,0A.46.46,0,0,1,688,617Zm.32-.57-.36.07a2.08,2.08,0,0,1,.34-.43h0A1.09,1.09,0,0,1,688.32,616.43Zm-2.7.72-.29-.06a4,4,0,0,1-1.19-.37,3.33,3.33,0,0,1-.79-.71,2.35,2.35,0,0,0,0-.26,3.67,3.67,0,0,1,.81.11,2.18,2.18,0,0,1,1.32.75A.87.87,0,0,1,685.62,617.15Zm-4-1.81a3.8,3.8,0,0,0-1.46,1,1.13,1.13,0,0,1-.45-.75A3.49,3.49,0,0,1,681.62,615.34Zm4.69,4.26-.1-.05s0-.09,0-.12a4.07,4.07,0,0,1,.29-1l.19.16.09.08c0,.18,0,.35-.07.51Zm-1.26-.54a2,2,0,0,0-.35-.46,2.63,2.63,0,0,0,.42-.17,2.08,2.08,0,0,0,.57-.43,2.41,2.41,0,0,1,.5.21s-.05.11-.07.17a4.63,4.63,0,0,0-.29,1Zm-.82-.76a1.14,1.14,0,0,0-.46-.06h0l.15-.17a2,2,0,0,1,.37-.31,6.43,6.43,0,0,1,1,.12A2.35,2.35,0,0,1,684.23,618.3Zm-2-.67.06.11a2.77,2.77,0,0,1-.33.35l-.18.14a1.79,1.79,0,0,0-.75-.36,2.67,2.67,0,0,1,.08-.48A5.46,5.46,0,0,0,682.22,617.63Zm-1.21.74v-.06a.94.94,0,0,1,.22.07Zm1.79-.68.82,0a5.49,5.49,0,0,0-.4.43,3.05,3.05,0,0,1-.44-.44Zm.07.74h-.7a3,3,0,0,0,.35-.36,3.06,3.06,0,0,0,.36.36ZM681.24,617a2.58,2.58,0,0,1,.25-.42,2,2,0,0,1,.68-.58,1.52,1.52,0,0,0-.15,1.2l-.12,0A5.39,5.39,0,0,1,681.24,617Zm1.7-.86a2.86,2.86,0,0,1-.35,1.13h-.09a1.19,1.19,0,0,1,.15-1.28l.06-.07Zm.34.38a2.5,2.5,0,0,0,.9.67l.16.06-.21.09-1.11,0a3.33,3.33,0,0,0,.23-.65Zm2.58,4a2,2,0,0,0,.07.23l-.39,0v0Zm-.33-.24a2.66,2.66,0,0,0-.2-.68l.46.18a2.81,2.81,0,0,0,0,.29Zm-1.27-1.53-.07,0h0Zm-4.26,0h.09v0Zm.28-1.76a4.92,4.92,0,0,0,.45.24,3.82,3.82,0,0,0-.12.69.69.69,0,0,0-.21.15l-.09.11a2,2,0,0,1-.1-.32A1.41,1.41,0,0,1,680.28,617Zm1.89-1.48.06,0a2.34,2.34,0,0,0-1.36,1.3,2.82,2.82,0,0,1-.38-.21,2.88,2.88,0,0,1,.69-.61A8.35,8.35,0,0,1,682.17,615.52Zm.48-.19.08,0-.05.05Zm4,5.31-.33.08a1.24,1.24,0,0,1-.12-.46l.17-.16.22.13.06,0C686.64,620.4,686.65,620.52,686.65,620.64Zm-4.85-1.48a3.49,3.49,0,0,1-.54.12l0,0v0a5,5,0,0,0,.56-.07Zm-1.75.16v0l0,0h0Zm-1.88-.53h0Zm4-3.71h0Zm2.66,0a2.73,2.73,0,0,1,.83.29,6.26,6.26,0,0,1,1.52,1.24,1.21,1.21,0,0,0,0,.18.44.44,0,0,0,0,.1,3.41,3.41,0,0,0-.38.38,5.38,5.38,0,0,1-.69-.07,1.58,1.58,0,0,0-1.11-1.52,3.94,3.94,0,0,0-1.65-.34,2.7,2.7,0,0,1,.39-.27h0Zm4,1a2.86,2.86,0,0,0,.43.35h-.51a1.38,1.38,0,0,0,0-.35Zm2.88,2.15a2.12,2.12,0,0,0-.11-.21l.17-.12a2.53,2.53,0,0,1,.12.36Zm-.56-1,0,0h.32a.41.41,0,0,0,.05.09Zm.78,0,.05,0,0,0,0,0A.3.3,0,0,0,691.92,617.21Zm-1.1.84a5.09,5.09,0,0,0-.55,0h0a2.79,2.79,0,0,1,.11-.35h.56l.14.23Zm-.24-.86,0,0h-.06Zm-.42,1.37a.76.76,0,0,0,0-.15h.17Zm-1.6-.84-.3-.39a1.16,1.16,0,0,0,.34-.44.13.13,0,0,0,0-.08,9,9,0,0,1,1.48.1l.13.06a1.69,1.69,0,0,0-.17.29,3.77,3.77,0,0,0-.94.21A3.64,3.64,0,0,0,688.56,617.72Zm-.91-.52,0,0,0-.05Zm-.65.5-.06.23-.14-.09.09-.13Zm-4,2.82a6,6,0,0,1-.75-.42,2.81,2.81,0,0,0-.47-.5,1.67,1.67,0,0,0,.3-.08,2.33,2.33,0,0,0,.33-.14,3.8,3.8,0,0,1,.65,1.15Zm-1.81-.5-.41-.29.21,0A3.28,3.28,0,0,0,681.17,620Zm-2.2-.56c-.32,0-.64,0-1,0l0-.08C678.42,619.41,678.75,619.43,679,619.46Zm-1.39,0h-.31a1.73,1.73,0,0,1,.32,0Zm-1.18-1.19-.24,0a3.83,3.83,0,0,1-.52.05.09.09,0,0,1,0-.05.77.77,0,0,1,0-.15,1,1,0,0,0,.32-.59l.23.2a1.16,1.16,0,0,0,.23.4A.37.37,0,0,1,676.4,618.27Zm-.11.43a1.12,1.12,0,0,1-.37.38,1.87,1.87,0,0,1-.15-.32l.25,0Zm-1.45.2.07,0a3.07,3.07,0,0,1,.42-.07c0,.11.09.21.15.32C675.26,619.06,675.05,619,674.84,618.9Zm-.52-.46a7.68,7.68,0,0,0,.64-.67,1.57,1.57,0,0,0,.31-.67l.13.12a1.69,1.69,0,0,0-.21.75,2.83,2.83,0,0,1-.41.25Zm1.67-1.32.12-.12c0,.07,0,.13,0,.19Zm1.11,1.47.48.12a1.11,1.11,0,0,0,.22.29h0a4.81,4.81,0,0,0-1.4.22,1.85,1.85,0,0,0,.3-.39,1.8,1.8,0,0,0,.08-.21Zm7.45-4a3.8,3.8,0,0,1,1.24-.27,2.81,2.81,0,0,1,1.7.43c-.87,0-1.73-.08-2.6-.11Zm5.29,1.15a3.15,3.15,0,0,1,.93.62l-.19.16h0a3.57,3.57,0,0,0-1.56-.86l0,0A1.49,1.49,0,0,1,689.84,615.79ZM691,616l.19.15h0Zm.55.48c.06.07.12.13.17.2h0l-.09,0c-.05-.06-.09-.12-.14-.17Zm.53,0h0Zm2,2.78a2.27,2.27,0,0,1-.47.76,2.89,2.89,0,0,0,.12-1.13c0-.05,0-.1,0-.15a2.14,2.14,0,0,0,.34-.09A.67.67,0,0,1,694.07,619.31Zm-1,1c-.08-.09-.16-.21-.21-.26a4.87,4.87,0,0,1-.4-.5l-.15-.21,0-.18a1.93,1.93,0,0,0,0-.24.76.76,0,0,0,0-.11l.42,0a3.38,3.38,0,0,0,.45,0,2.13,2.13,0,0,1,0,1A2.9,2.9,0,0,1,693.09,620.26Zm-1.38-.51a1.51,1.51,0,0,1-.21.23.78.78,0,0,1-1,0A1.5,1.5,0,0,0,691.71,619.75Zm-1.75-.24-.11-.12,0,0A1.11,1.11,0,0,0,690,619.51ZM688,618h0a.7.7,0,0,1-.44-.4,1.58,1.58,0,0,0,.37-.11l.28.39Zm-.39.29-.12.1a1.7,1.7,0,0,0-.19-.19.64.64,0,0,1,0-.07s0-.06,0-.09A.93.93,0,0,0,687.62,618.33Zm-.91,3,0,.12a2.59,2.59,0,0,1-2.35.76l-.61,0a2,2,0,0,1,.58-.5,1.45,1.45,0,0,0,.93-.37h0l.17,0a3.94,3.94,0,0,1,.7-.09.49.49,0,0,0,.41.17Zm-3.21,0,0-.11a2.74,2.74,0,0,0,.5.07l.33,0,0,0h0Zm-.55,0h-.47a.72.72,0,0,0,.07-.44l.31.07.26.11A.34.34,0,0,1,683,621.28Zm-1.37-.13a1.42,1.42,0,0,1-.66-.38,1.7,1.7,0,0,1-.38-.7,3.41,3.41,0,0,1,1,1Zm-2-1.31a1.48,1.48,0,0,1-1.83.78,5,5,0,0,0,.19-.74c.4,0,.8,0,1.2,0Zm-5.77-1.55a2.4,2.4,0,0,1-.73-.79.82.82,0,0,1,.74-.73,2,2,0,0,1,1.08.11c0,.43-.49.91-.85,1.28l-.17.18Zm.68-2.41.41-.29a2,2,0,0,0-.05.49A1.77,1.77,0,0,0,674.45,615.88Zm3.77-.82a3.71,3.71,0,0,1-1.05.76l-.59.34a.21.21,0,0,0-.4.07c0,.06,0,.13,0,.19a3,3,0,0,0-.53.46,1,1,0,0,1-.31-.37,1.6,1.6,0,0,1,0-1.25l.13-.08.3-.17h.05C676.64,615,677.43,615.05,678.22,615.06Zm.5,0h.54a2.23,2.23,0,0,0-.5.47,2.5,2.5,0,0,0-.25.41,3.91,3.91,0,0,0-.56.66,2.8,2.8,0,0,0-.53,1.53l-.28,0a1.74,1.74,0,0,1-.39-.23,1.34,1.34,0,0,0-.22-.38,3.89,3.89,0,0,1,0-.9C677.22,616.23,678.3,615.81,678.72,615.07Zm1.85-.53a5.16,5.16,0,0,1,.84-.36,9,9,0,0,1,2.72-.39,8.05,8.05,0,0,1,2.11.17,4.79,4.79,0,0,0-2.6.71l-1.07,0a3.56,3.56,0,0,0-1.91-.13Zm8,.72.24,0-.18.05Zm1.3.12.4,0a3,3,0,0,0,.41.39,4.09,4.09,0,0,0-.67-.38Zm2.77.39a.9.9,0,0,1-.18.43,2.12,2.12,0,0,0-.82-.12l-.43-.37-.25-.21C691.52,615.57,692.09,615.65,692.66,615.77Zm1.76,2.72s0,.06,0,.09a.16.16,0,0,0,0-.07Zm-5.6,2.38a2.77,2.77,0,0,1,.39-.74,3.94,3.94,0,0,1,.36-.45,2.2,2.2,0,0,0,1.4.89,1.31,1.31,0,0,0,1.19-.8,3.36,3.36,0,0,0,.24.29,4.25,4.25,0,0,0,.5.59h0a7.77,7.77,0,0,1-1.94.25C690.24,620.94,689.53,620.91,688.82,620.87Zm-.4,0-.93-.05c0-.08,0-.16.07-.24a1.2,1.2,0,0,0,.41-1.19,1.88,1.88,0,0,0-.23-.61c.11-.1.23-.19.35-.28a3.43,3.43,0,0,0,.56,0c.15.19.29.38.44.56l.22.29A4.31,4.31,0,0,0,688.42,620.85Zm-5.08,1.24L683,622a1.29,1.29,0,0,1-.45-.24,1.65,1.65,0,0,0,.5-.1h.58A1.81,1.81,0,0,0,683.34,622.09Zm-6.11-.67h0l-.19,0,0,0a.93.93,0,0,0,.47-.38c.94.3,2.32-.24,2.44-1.18h.11a1.92,1.92,0,0,0,.93,1.54c-.45,0-.91,0-1.36,0C678.86,621.35,678,621.43,677.23,621.42Zm-2.06-.44a1.73,1.73,0,0,1-.71-1.09,2.57,2.57,0,0,0,.39,0,3.8,3.8,0,0,0,.85-.22,1.08,1.08,0,0,0-.21,1.14,1,1,0,0,0,.14.25Zm-1.9-2.3a2.3,2.3,0,0,1-.17-.42l.25.22.22.17-.24,0Zm-.08-2.67.35,0-.55.44A2.37,2.37,0,0,1,673.19,616Zm1.84-1c-.35.22-.7.45-1,.7a3.16,3.16,0,0,0-.5-.1A2.27,2.27,0,0,1,675,615Zm15.24-1a.85.85,0,0,0-.3.76,1,1,0,0,0,.06.23l-1.33-.11-.48,0-.24-.25a3.66,3.66,0,0,0-2.4-1.14,12.77,12.77,0,0,0-3.21.08,5.22,5.22,0,0,0-2.06.71,3.28,3.28,0,0,0-.52.4h-.92a1.56,1.56,0,0,0,0-.38.2.2,0,0,0-.15-.19c-.31-.08-.63-.18-1-.25a7.43,7.43,0,0,1,.73-.4,6.54,6.54,0,0,1,3.4-.27c1.2.11,2.39.06,3.59.15s2.47.34,3.71.51C689.56,613.86,689.92,613.91,690.27,614Zm2.9,0h0a.17.17,0,0,0,.24.15l.11,0a1.65,1.65,0,0,1,1,1,4.05,4.05,0,0,1,.24,1,5.75,5.75,0,0,0-.77-.33,9,9,0,0,0-.88-.28,1.06,1.06,0,0,0-.2-.49,3.19,3.19,0,0,0-1.46-1.09A4.36,4.36,0,0,1,693.17,614Zm3.43,4.2A2.23,2.23,0,0,0,696,617a4.32,4.32,0,0,0-.82-.66,3.91,3.91,0,0,0-.55-1.88,2,2,0,0,0-.35-.41,2.56,2.56,0,0,1,.49.16,5.6,5.6,0,0,1,1.82,1.18,3.08,3.08,0,0,1,1,1.6A1.07,1.07,0,0,1,696.6,618.16Zm-4.69,4.17.11-.09a5,5,0,0,0,1.16-1.26,2.3,2.3,0,0,0,1.59-1.47,2.88,2.88,0,0,0,0-1.4l.06-.09a4.42,4.42,0,0,0,1.41.51,2.94,2.94,0,0,1-.2,1.33,3.48,3.48,0,0,1-2.14,1.69C693.24,621.83,692.58,622.09,691.91,622.33Zm-4.61.78a5.27,5.27,0,0,0,0-.7c0-.3-.07-.59-.11-.89a2.89,2.89,0,0,0,.19-.35l1,.09a1.58,1.58,0,0,0,.61,1.47,1.64,1.64,0,0,0,.46.26A10.63,10.63,0,0,1,687.3,623.11Zm-3.6,0,1.72.19c.46.06.93.12,1.39.16-.26.48-1.33.35-1.75.27A2.33,2.33,0,0,1,683.7,623.14Zm-11.2-4.08a1.94,1.94,0,0,0,.54.05v0c.05.06.09.12.14.17a1.2,1.2,0,0,0,0,1.06,2.47,2.47,0,0,0,1.77,1,2.72,2.72,0,0,0,1.17.4,7.93,7.93,0,0,0,1,.06,12.4,12.4,0,0,0,3.22,0c.4,0,.85,0,1.27-.07H682a2,2,0,0,0,1.16.7,1.1,1.1,0,0,0,0,.18l-.28,0c-1.33-.12-2.67-.26-4-.41-2.09-.25-4.83-.19-6-2.27A3.41,3.41,0,0,1,672.5,619.06Zm-.64-2.19a1.21,1.21,0,0,1,.83-.8,2.64,2.64,0,0,0-.14.48,1.35,1.35,0,0,0,0,.4,2,2,0,0,0-.43.81,3.19,3.19,0,0,0-.08.61A1.49,1.49,0,0,1,671.86,616.87Z" transform="translate(19.97 20)"/><path class="cls-40" d="M691.88,619.91l0-.22c.44-.75,1.1-.27,1.74-.23.3,0,.61-.13.9.06.12.08.14.15.22.22s0,.22,0,.29.69.13.91.17a.92.92,0,0,1,0,.37,1.54,1.54,0,0,1-1,.2c-.16,0-.38-.17-.55-.13s-.18.26-.34.32c-.63.26-.71-.2-1.16-.32-.22-.06-.38.11-.58,0s-.23-.29-.32-.37A.33.33,0,0,1,691.88,619.91Z" transform="translate(19.97 20)"/><path class="cls-40" d="M686.83,618.6l.06-.23c.43-.75,1.09-.27,1.74-.22.29,0,.6-.14.89.06.12.07.14.15.23.21s0,.22,0,.29.68.13.9.18a.77.77,0,0,1,0,.37,1.51,1.51,0,0,1-1,.19c-.16,0-.38-.16-.55-.13s-.19.26-.35.33c-.63.25-.71-.21-1.16-.33-.22-.06-.38.11-.58,0s-.22-.29-.31-.36A.31.31,0,0,1,686.83,618.6Z" transform="translate(19.97 20)"/><path class="cls-40" d="M679.3,619.66l.06-.22c.43-.76,1.09-.27,1.74-.23.29,0,.6-.13.89.06a1.65,1.65,0,0,1,.23.22s0,.22,0,.29.69.13.91.17a.92.92,0,0,1,0,.37,1.45,1.45,0,0,1-1,.19c-.16,0-.38-.16-.55-.12s-.18.26-.35.32c-.62.26-.71-.2-1.16-.32-.21-.06-.38.11-.58,0s-.22-.29-.31-.37A.33.33,0,0,1,679.3,619.66Z" transform="translate(19.97 20)"/><path class="cls-40" d="M683.86,621.85l.06-.22c.43-.76,1.09-.27,1.74-.23.29,0,.6-.13.89.06a1.65,1.65,0,0,1,.23.22c.05,0,0,.22,0,.29s.69.13.91.17a.92.92,0,0,1,0,.37,1.45,1.45,0,0,1-1,.19c-.16,0-.38-.16-.55-.12s-.18.26-.35.32c-.62.25-.71-.2-1.16-.32-.21-.06-.38.11-.58,0s-.22-.28-.31-.36A.33.33,0,0,1,683.86,621.85Z" transform="translate(19.97 20)"/><path class="cls-29" d="M687.06,614.47c-.18-.37-.59-.21-.82-.54a5.58,5.58,0,0,0-.63-.82,1.08,1.08,0,0,0-.94-.3l-1.35.18c-.29.16-.67.07-1,.23a2.52,2.52,0,0,0-.35.3,2,2,0,0,1-1.16.36,16.78,16.78,0,0,0-2.56.19,4.11,4.11,0,0,0-1.36.58c-.12.08-.32-.49-.4-.37a2.3,2.3,0,0,0,.09,1.44,1.17,1.17,0,0,0,.66.49.9.9,0,0,1,.27.11.73.73,0,0,1,.22.21,3.76,3.76,0,0,0,.71.87,1.8,1.8,0,0,0,1.78,0,16.54,16.54,0,0,1,1.66-.88,4.47,4.47,0,0,1,2.56.06,5,5,0,0,0,1.37.22,1.36,1.36,0,0,0,1.16-.66A2.66,2.66,0,0,0,687.06,614.47Z" transform="translate(19.97 20)"/><path class="cls-41" d="M686.93,614.11a9.5,9.5,0,0,0-.69-1,5,5,0,0,0-.63-.81,1.09,1.09,0,0,0-.94-.31l-1.35.19c-.29.16-.67.07-1,.23a2.52,2.52,0,0,0-.35.3,2,2,0,0,1-1.16.35,15.6,15.6,0,0,0-2.56.2,4.11,4.11,0,0,0-1.36.58,1,1,0,0,0-.31.27.73.73,0,0,0,0,.79,1.13,1.13,0,0,0,.66.49,2.18,2.18,0,0,1,.27.11.77.77,0,0,1,.22.22,4,4,0,0,0,.71.87,1.8,1.8,0,0,0,1.78,0c.57-.27,1.07-.67,1.66-.88a4.56,4.56,0,0,1,2.56.06,4.63,4.63,0,0,0,1.37.23,1.37,1.37,0,0,0,1.16-.67A1.4,1.4,0,0,0,686.93,614.11Z" transform="translate(19.97 20)"/><path class="cls-43" d="M685.13,614.35a4.33,4.33,0,0,1-.27-.37,2.27,2.27,0,0,1-.17-.5,2.65,2.65,0,0,0-.44-.87l-.09-.09c0-.06-.12,0-.15,0a.25.25,0,0,0,0,.19,9.18,9.18,0,0,0,1.14,2.28s.05.07.1.09a.09.09,0,0,0,.12,0s0,0,0-.07A1.37,1.37,0,0,0,685.13,614.35Z" transform="translate(19.97 20)"/><path class="cls-43" d="M683.35,614.2a1.64,1.64,0,0,1-.14-.3,2.42,2.42,0,0,1-.05-.47A.49.49,0,0,0,683,613h-.12l-.05,0c-.06,0-.07.11-.07.18a1.94,1.94,0,0,0,.13.54l.35,1a.77.77,0,0,0,.12.26.26.26,0,0,0,.26.09A2.65,2.65,0,0,0,683.35,614.2Z" transform="translate(19.97 20)"/><path class="cls-43" d="M681.69,614.45a3.58,3.58,0,0,0-.63-1.09l-.09.14c.09.34.36.61.46,1,.05.16.06.33.12.48s0,.09.09.1a.11.11,0,0,0,.07,0,.25.25,0,0,0,.09-.27A1.36,1.36,0,0,0,681.69,614.45Z" transform="translate(19.97 20)"/><path class="cls-43" d="M680.32,615l-.9-1.38-.07-.06c-.09,0-.19.07-.18.16a.46.46,0,0,0,.13.26,14,14,0,0,1,1,1.39c.06.09.13.2.24.22A1,1,0,0,0,680.32,615Z" transform="translate(19.97 20)"/><path class="cls-43" d="M679.09,615.62a2.72,2.72,0,0,0-1.05-1.34l0-.07-.07,0a.64.64,0,0,0,.14.39,3.55,3.55,0,0,1,.55.74,2.34,2.34,0,0,0,.09.24.53.53,0,0,0,.4.29A.3.3,0,0,0,679.09,615.62Z" transform="translate(19.97 20)"/><polygon class="cls-46" points="442.75 412.4 442.75 553.97 526.1 505.85 526.1 364.28 442.75 412.4"/><polygon class="cls-47" points="448.82 419.07 448.82 540.29 520.02 499.19 520.02 377.96 448.82 419.07"/><polygon class="cls-48" points="454.61 428.12 454.61 435.45 514.23 401.03 514.23 393.7 454.61 428.12"/><polygon class="cls-48" points="454.61 442.49 454.61 449.81 514.23 415.4 514.23 408.07 454.61 442.49"/><polygon class="cls-49" points="454.61 456.86 454.61 464.18 468.59 456.11 468.59 448.78 454.61 456.86"/><polygon class="cls-48" points="454.61 456.86 454.61 464.18 475.3 452.24 475.3 444.91 454.61 456.86"/><path class="cls-50" d="M446.43,510.14l53.62-31V402.86C471.18,419.53,446.43,484.79,446.43,510.14Z" transform="translate(19.97 20)"/></g></svg>