<svg id="Layer_1" data-name="Layer 1" xmlns="http://www.w3.org/2000/svg" xmlns:xlink="http://www.w3.org/1999/xlink" viewBox="0 0 565.7 658.25"><defs><style>.cls-1{fill:url(#linear-gradient);}.cls-2{fill:#b3c0ff;}.cls-3{fill:url(#linear-gradient-2);}.cls-4{fill:url(#linear-gradient-3);}.cls-5{fill:url(#linear-gradient-4);}.cls-6{opacity:0.1;fill:url(#linear-gradient-6);}.cls-7{fill:#ff00e1;}.cls-10,.cls-8{fill:#e600ca;}.cls-9{fill:#ff42e9;}.cls-10{opacity:0.5;}.cls-11{fill:none;stroke:#fff;stroke-miterlimit:10;stroke-width:0.25px;}</style><linearGradient id="linear-gradient" x1="373.56" y1="1337.76" x2="955.26" y2="330.24" gradientUnits="userSpaceOnUse"><stop offset="0" stop-color="#99a9ff"/><stop offset="1" stop-color="#fff" stop-opacity="0"/></linearGradient><linearGradient id="linear-gradient-2" x1="940.13" y1="1326.62" x2="514.89" y2="553.12" gradientTransform="matrix(-1, 0, 0, 1, 931.42, -532.29)" gradientUnits="userSpaceOnUse"><stop offset="0" stop-color="#002aff"/><stop offset="1" stop-color="#e6fbff"/></linearGradient><linearGradient id="linear-gradient-3" x1="1696.94" y1="1398.36" x2="1271.7" y2="624.86" gradientTransform="translate(-1082.65 -532.29)" xlink:href="#linear-gradient-2"/><linearGradient id="linear-gradient-4" x1="717.08" y1="543.56" x2="40.65" y2="1775.02" gradientTransform="matrix(-1, 0, 0, 1, 931.42, -532.29)" gradientUnits="userSpaceOnUse"><stop offset="0" stop-color="#e6fbff"/><stop offset="1" stop-color="#002aff"/></linearGradient><linearGradient id="linear-gradient-6" x1="717.08" y1="938.77" x2="40.65" y2="2170.22" xlink:href="#linear-gradient-4"/></defs><title>vial</title><path class="cls-1" d="M926.27,1023.77l1-319.64L648.57,542.84v1L367.63,703.55l1.14,321.22,2.43-1.38L648,1184.5l278.78-160.44-.67-.39Z" transform="translate(-365.72 -532.29)"/><path class="cls-2" d="M648.57,543.84,773.63,616l41.69,24.07,83.37,48.14,22.73,13.12v320.1L648.57,1179,375.72,1021.47V701.37l22.72-13.12,41.69-24.07,41.69-24.07L523.5,616,565.2,592l41.69-24.07,41.68-24.07m0-11.55-5,2.89-41.68,24.07L560.2,583.32l-41.7,24.06-41.68,24.07-41.69,24.07-41.69,24.07-22.72,13.12-5,2.88v331.66l5,2.88,272.85,157.53,5,2.89,5-2.89,272.85-157.53,5-2.88V695.59l-5-2.89-22.73-13.11-83.37-48.14-41.69-24.07-125.06-72.2-5-2.89Z" transform="translate(-365.72 -532.29)"/><polygon class="cls-3" points="169.48 136.19 283.28 201.67 283.28 597.21 169.48 531.73 169.48 136.19"/><polygon class="cls-4" points="396.65 136.19 282.85 201.67 282.85 597.21 396.65 531.73 396.65 136.19"/><polygon id="roof" class="cls-5" points="283.17 201.89 169.42 136.35 282.92 70.8 282.92 70.71 283.05 70.75 283.17 70.71 283.17 70.8 396.67 136.35 282.92 201.89 282.92 202.03 282.8 201.96 283.17 202.03 283.17 201.89"/><polygon id="roof-2" data-name="roof" class="cls-5" points="283.17 201.89 169.42 136.35 282.92 70.8 282.92 70.71 283.05 70.75 283.17 70.71 283.17 70.8 396.67 136.35 282.92 201.89 282.92 202.03 282.8 201.96 283.17 202.03 283.17 201.89"/><polygon id="roof-3" data-name="roof" class="cls-6" points="283.17 597.1 169.42 531.56 282.92 466 282.92 465.91 283.05 465.96 283.17 465.91 283.17 466 396.67 531.56 282.92 597.1 282.92 597.23 282.8 597.16 283.17 597.23 283.17 597.1"/><polygon class="cls-7" points="316.96 399.37 317.67 576.44 348.76 558.69 348.75 380.38 316.96 399.37"/><polygon class="cls-8" points="263.81 191.64 263.09 373.71 232.01 355.96 232.01 173.65 263.81 191.64"/><polygon class="cls-7" points="316.96 401.87 397.72 354.75 396.67 319.13 316.96 365.16 316.96 401.87"/><polygon class="cls-9" points="263.81 190.64 312.72 162.3 297.74 134.72 231.96 172.7 263.81 190.64"/><polygon class="cls-9" points="301.87 168.64 207.71 114.95 238.31 96.4 333.72 150.7 301.87 168.64"/><polygon class="cls-8" points="263.09 410.06 169.48 355.98 169.48 319.29 263.09 373.71 263.09 410.06"/><polygon class="cls-10" points="357.34 341.79 282.28 298.46 283.04 254.58 396.56 319.01 357.34 341.79"/><polygon class="cls-10" points="208.5 341.79 283.56 298.46 282.8 254.58 169.28 319.01 208.5 341.79"/><polyline class="cls-11" points="282.85 596.03 282.85 202.03 509.58 71.13"/><line class="cls-11" x1="282.85" y1="238.03" x2="56.12" y2="107.13"/><line class="cls-11" x1="282.85" y1="278.03" x2="56.12" y2="147.13"/><line class="cls-11" x1="282.85" y1="318.03" x2="56.12" y2="187.13"/><line class="cls-11" x1="282.85" y1="358.03" x2="56.12" y2="227.13"/><line class="cls-11" x1="282.85" y1="398.03" x2="56.12" y2="267.13"/><line class="cls-11" x1="282.85" y1="438.03" x2="56.12" y2="307.13"/><line class="cls-11" x1="282.85" y1="238.03" x2="509.58" y2="107.13"/><line class="cls-11" x1="282.85" y1="278.03" x2="509.58" y2="147.13"/><line class="cls-11" x1="288.74" y1="314.63" x2="509.58" y2="187.13"/><line class="cls-11" x1="282.85" y1="318.03" x2="294.64" y2="311.22"/><line class="cls-11" x1="282.85" y1="358.03" x2="509.58" y2="227.13"/><line class="cls-11" x1="282.85" y1="398.03" x2="509.58" y2="267.13"/><line class="cls-11" x1="509.58" y1="307.13" x2="282.85" y2="438.03"/><line class="cls-11" x1="282.85" y1="478.03" x2="56.12" y2="347.13"/><line class="cls-11" x1="282.85" y1="518.03" x2="56.12" y2="387.13"/><line class="cls-11" x1="282.85" y1="558.03" x2="56.12" y2="427.13"/><line class="cls-11" x1="282.85" y1="478.03" x2="509.58" y2="347.13"/><line class="cls-11" x1="282.85" y1="518.03" x2="509.58" y2="387.13"/><line class="cls-11" x1="509.58" y1="427.13" x2="282.85" y2="558.03"/><line class="cls-11" x1="282.85" y1="190.03" x2="294.64" y2="183.22"/></svg>