<svg id="b2d11654-2678-4f8e-9e04-37ff0bcaf5eb" data-name="Layer 1" 
    xmlns="http://www.w3.org/2000/svg" 
    xmlns:xlink="http://www.w3.org/1999/xlink" viewBox="0 0 5432.84 871.08">
    <defs>
        <linearGradient id="cf2b6c9c-ff38-4984-8e37-5e1c352d0046" x1="2075.5" y1="443.22" x2="3382.83" y2="443.22" gradientUnits="userSpaceOnUse">
            <stop offset="0" class='stop-color-3' stop-color="#5c69ff"/>
            <stop offset="0.5" class='stop-color-4' stop-color="#da75ff"/>
            <stop offset="0.77" class='stop-color-5' stop-color="#ffe3fc"/>
            <stop offset="1" class='stop-color-3' stop-color="#5c69ff"/>
        </linearGradient>
    </defs>
    <title>footer</title>
    <path d="M-32.5,901,1253.87,149a145.71,145.71,0,0,1,146.43-.4l174.38,100.68a85.63,85.63,0,0,0,85.62,0L2057.4,20a145.11,145.11,0,0,1,145.07,0l313.36,180.92a85.05,85.05,0,0,0,85.07,0L2769,103.82a145.11,145.11,0,0,1,145.07,0L3179.92,257.3a85.05,85.05,0,0,0,85.07,0l78-45a145.41,145.41,0,0,1,145.37,0L3893.24,446a85,85,0,0,0,84.92,0L4265.88,279.9a143.41,143.41,0,0,1,143.4,0L5485,901Z" style="fill:url(#cf2b6c9c-ff38-4984-8e37-5e1c352d0046)"/>
    <path d="M3974.26,871H78.26L1269,174.86a115.73,115.73,0,0,1,116.29-.32l174.38,100.68a115.64,115.64,0,0,0,115.62,0L2042.23,63.37,2072.4,46a115.1,115.1,0,0,1,115.07,0l313.36,180.92a115,115,0,0,0,115.07,0L2784,129.81a115,115,0,0,1,115.07,0l265.82,153.47a115,115,0,0,0,115.07,0l78-45a115.36,115.36,0,0,1,115.37,0L3878.24,472a114.94,114.94,0,0,0,114.91,0l287.73-166.12a113.39,113.39,0,0,1,113.4,0L5373.07,871Z" class='fill-color-1' style="fill:#001336"/>
</svg>