<svg xmlns="http://www.w3.org/2000/svg" xmlns:xlink="http://www.w3.org/1999/xlink" viewBox="0 0 1296 1303.83"><defs><radialGradient id="28c7839e-50c9-4eb0-9aa4-9ec8d2b95c48" cx="961.07" cy="630.67" r="792.56" gradientTransform="translate(2045.57 566.26) rotate(148.81) scale(1 0.8)" gradientUnits="userSpaceOnUse"><stop offset="0" stop-color="#73738f" stop-opacity="0.4"/><stop offset="1" stop-color="#003" stop-opacity="0"/></radialGradient><linearGradient id="43cfe1bc-6abe-4196-b3ee-d053937f7a69" x1="82.95" y1="150.71" x2="1780.46" y2="150.71" gradientUnits="userSpaceOnUse"><stop offset="0" stop-color="#003" stop-opacity="0"/><stop offset="0.49" stop-color="#9494a9" stop-opacity="0.1"/><stop offset="1" stop-color="#003" stop-opacity="0"/></linearGradient><linearGradient id="aed3c61c-cc58-4802-8d09-b160dd6d3761" x1="82.95" y1="150.71" x2="1780.46" y2="150.71" gradientUnits="userSpaceOnUse"><stop offset="0" stop-color="#003" stop-opacity="0"/><stop offset="0.49" stop-color="#9494a9" stop-opacity="0.2"/><stop offset="1" stop-color="#003" stop-opacity="0"/></linearGradient><radialGradient id="d84232f3-3ba2-4663-81d3-d4130fcc1bc6" cx="905.61" cy="531.71" r="1381.09" gradientTransform="translate(-36.12 720.2) rotate(-30.77) scale(1 0.6)" gradientUnits="userSpaceOnUse"><stop offset="0" stop-color="#666685" stop-opacity="0.3"/><stop offset="1" stop-color="#003" stop-opacity="0"/></radialGradient><pattern id="73c652d8-e495-419c-ad01-f88d77095953" data-name="New Pattern 3" width="136.92" height="78.29" patternTransform="translate(18.33 -52.2)" patternUnits="userSpaceOnUse" viewBox="0 0 136.92 78.29"><rect width="136.92" height="78.29" style="fill:none"/><path d="M203.72,78.29l-66.8,38.56,66.8,38.57,68.09-38.57L203.72,78.29m0-1.16.49.29L272.31,116l1.53.87-1.53.87-68.1,38.57-.49.28-.5-.28-66.8-38.57-1.5-.87,1.5-.86,66.8-38.57.5-.29Z" style="fill:#666685"/><path d="M66.8,78.29,0,116.85l66.8,38.57,68.09-38.57L66.8,78.29m0-1.16.5.29L135.38,116l1.54.87-1.54.87L67.29,156.29l-.5.28-.49-.28L-.5,117.72l-1.5-.87L-.5,116,66.3,77.42l.49-.29Z" style="fill:#666685"/><path d="M203.72,0l-66.8,38.57,66.8,38.56,68.09-38.56L203.72,0m0-1.15.49.28,68.1,38.57,1.53.87-1.53.87L204.21,78l-.49.28-.5-.29-66.8-38.57-1.5-.86,1.5-.87L203.22-.86l.5-.29Z" style="fill:#666685"/><path d="M66.8,0,0,38.57,66.8,77.13l68.09-38.56L66.8,0m0-1.15.5.28L135.38,37.7l1.54.87-1.54.87L67.29,78l-.5.28L66.3,78-.5,39.43-2,38.57l1.5-.87L66.3-.86l.49-.29Z" style="fill:#666685"/><path d="M203.72-78.28l-66.8,38.56,66.8,38.57,68.09-38.57L203.72-78.28m0-1.16.49.29,68.1,38.56,1.53.87-1.53.87L204.21-.28l-.49.28-.5-.28-66.8-38.57-1.5-.87,1.5-.86,66.8-38.57.5-.29Z" style="fill:#666685"/><path d="M66.8-78.28,0-39.72,66.8-1.15l68.09-38.57L66.8-78.28m0-1.16.5.29,68.09,38.56,1.54.87-1.54.87L67.29-.28l-.5.28L66.3-.28-.5-38.85-2-39.72l1.5-.86L66.3-79.15l.49-.29Z" style="fill:#666685"/></pattern><radialGradient id="3232f0bc-3919-43a7-8627-031b4e5670ad" cx="955.4" cy="577" r="1050.39" gradientUnits="userSpaceOnUse"><stop offset="0" stop-color="#8c00ff"/><stop offset="0.5" stop-color="#00d4ff"/><stop offset="1" stop-color="#fe0"/></radialGradient><radialGradient id="5eacc93f-6b2a-453e-b7fa-beb2a77decf5" cx="923.99" cy="574.67" r="1103.67" xlink:href="#3232f0bc-3919-43a7-8627-031b4e5670ad"/><linearGradient id="6142aa8b-d267-4fdd-a7ea-f863ea3ab876" x1="427.52" y1="56.09" x2="512.73" y2="203.67" gradientUnits="userSpaceOnUse"><stop offset="0" stop-color="#003" stop-opacity="0"/><stop offset="1" stop-color="#003"/></linearGradient><linearGradient id="0c2070c8-df43-4ea6-9b80-08cbebdcb62c" x1="431.24" y1="0.85" x2="657.07" y2="159.71" gradientUnits="userSpaceOnUse"><stop offset="0" stop-color="#33335c"/><stop offset="1" stop-color="#003"/></linearGradient><linearGradient id="b5b01330-b072-4e36-91df-19489356d28a" x1="507.1" y1="52.08" x2="665.89" y2="163.78" xlink:href="#0c2070c8-df43-4ea6-9b80-08cbebdcb62c"/><linearGradient id="662e8043-8f7f-4c1a-991f-f7d60890568c" x1="511.9" y1="76.59" x2="737.73" y2="235.46" xlink:href="#0c2070c8-df43-4ea6-9b80-08cbebdcb62c"/><linearGradient id="9a7ffca1-6938-4192-bb11-fcc4231be150" x1="526.79" y1="192.28" x2="629.24" y2="14.83" gradientUnits="userSpaceOnUse"><stop offset="0" stop-color="#003"/><stop offset="1" stop-color="#33335c"/></linearGradient><linearGradient id="e8769805-4225-4fac-9800-6d1cd36b2037" x1="550.56" y1="88.65" x2="610.02" y2="191.63" xlink:href="#0c2070c8-df43-4ea6-9b80-08cbebdcb62c"/><linearGradient id="2b9a3b5a-c5a6-4c96-877d-4d8c879f8831" x1="340.17" y1="138.28" x2="772.74" y2="138.28" gradientUnits="userSpaceOnUse"><stop offset="0" stop-color="#fe0"/><stop offset="0.5" stop-color="#00d4ff"/><stop offset="1" stop-color="#8c00ff"/></linearGradient><linearGradient id="e67c3361-9f65-4f0d-a8b0-e6dc47083da2" x1="1046.43" y1="93.53" x2="1140.32" y2="256.14" xlink:href="#6142aa8b-d267-4fdd-a7ea-f863ea3ab876"/><linearGradient id="32f95c3f-c7c7-41a3-9094-9e33fd9a0865" x1="1129.92" y1="102.26" x2="1220.25" y2="165.81" xlink:href="#0c2070c8-df43-4ea6-9b80-08cbebdcb62c"/><linearGradient id="99a59f73-da77-4e51-a1c7-215053e4217d" x1="1150.28" y1="222.37" x2="1202.19" y2="132.45" xlink:href="#9a7ffca1-6938-4192-bb11-fcc4231be150"/><linearGradient id="92c2690f-1b3c-45a4-aad8-f8e20de36644" x1="1167.31" y1="151.1" x2="1232.28" y2="263.63" xlink:href="#0c2070c8-df43-4ea6-9b80-08cbebdcb62c"/><linearGradient id="6b00d82d-816d-46a8-9f71-6365ff317071" x1="1172.2" y1="261.07" x2="1172.2" y2="132.54" xlink:href="#3232f0bc-3919-43a7-8627-031b4e5670ad"/><linearGradient id="2d34a563-21b2-439e-816e-82aff3a6913a" x1="1169.83" y1="146.44" x2="1219.01" y2="96.76" xlink:href="#2b9a3b5a-c5a6-4c96-877d-4d8c879f8831"/><linearGradient id="6bb29296-937e-456c-9670-cdba1239ce21" x1="1047.5" y1="571.06" x2="1106.91" y2="673.97" gradientUnits="userSpaceOnUse"><stop offset="0" stop-color="#003" stop-opacity="0"/><stop offset="1" stop-color="#003" stop-opacity="0.5"/></linearGradient><linearGradient id="69b6afdf-c1bf-4c46-9ab8-8830d9037097" x1="854.18" y1="310.46" x2="1299.18" y2="623.51" gradientUnits="userSpaceOnUse"><stop offset="0" stop-color="#003"/><stop offset="0.82" stop-color="#332a46"/><stop offset="1" stop-color="#33335c"/></linearGradient><linearGradient id="6d06e1e3-a169-410c-94d9-f93810238bf6" x1="993.12" y1="403.93" x2="1310.68" y2="627.33" xlink:href="#69b6afdf-c1bf-4c46-9ab8-8830d9037097"/><linearGradient id="8a215973-ca21-44cb-be86-d535a097edf3" x1="965.76" y1="418.96" x2="1410.76" y2="732.01" xlink:href="#69b6afdf-c1bf-4c46-9ab8-8830d9037097"/><linearGradient id="4166a90a-1c64-4907-a44a-ce90e4b591ef" x1="996.85" y1="878.72" x2="1310.11" y2="336.13" xlink:href="#69b6afdf-c1bf-4c46-9ab8-8830d9037097"/><linearGradient id="9b3c9d7a-20d4-4d5b-9929-a02dfd3ff6e3" x1="1159.03" y1="530.83" x2="1295.72" y2="767.6" xlink:href="#0c2070c8-df43-4ea6-9b80-08cbebdcb62c"/><linearGradient id="2a365082-2789-4d32-9fca-03b4419a6fc0" x1="1107.45" y1="782.24" x2="1356.76" y2="350.41" xlink:href="#3232f0bc-3919-43a7-8627-031b4e5670ad"/><linearGradient id="a7b94dd0-c2d6-4267-9273-76193d7374a0" x1="779.68" y1="448.54" x2="855.74" y2="580.28" gradientUnits="userSpaceOnUse"><stop offset="0" stop-color="#003" stop-opacity="0"/><stop offset="1" stop-color="#003" stop-opacity="0.3"/></linearGradient><linearGradient id="a1a23f47-ad66-45d7-ac94-dee0e75f4945" x1="781.15" y1="212.7" x2="1169.18" y2="600.72" gradientUnits="userSpaceOnUse"><stop offset="0" stop-color="#003"/><stop offset="0.62" stop-color="#2e2e58"/><stop offset="1" stop-color="#003"/></linearGradient><linearGradient id="a1e936db-eb2a-4b24-90db-757ece7ff918" x1="773.63" y1="307.94" x2="1169.45" y2="703.75" xlink:href="#a1a23f47-ad66-45d7-ac94-dee0e75f4945"/><linearGradient id="63c3cbf5-eca5-457c-8412-3a7b0672a7f7" x1="847.5" y1="177.17" x2="1113.05" y2="442.72" xlink:href="#a1a23f47-ad66-45d7-ac94-dee0e75f4945"/><linearGradient id="f350aeb2-deb7-4778-b70e-e2b95f58d9bd" x1="748.59" y1="378.94" x2="1127.13" y2="757.47" xlink:href="#a1a23f47-ad66-45d7-ac94-dee0e75f4945"/><linearGradient id="a1b984e5-efa1-41ce-9d3b-801e45392f94" x1="763.57" y1="489.26" x2="1036.65" y2="762.34" xlink:href="#a1a23f47-ad66-45d7-ac94-dee0e75f4945"/><linearGradient id="3d33f88f-dda1-4dfa-a1ea-5199c1216840" x1="859.55" y1="297.55" x2="1043" y2="615.29" xlink:href="#2b9a3b5a-c5a6-4c96-877d-4d8c879f8831"/><linearGradient id="52cf5cb3-4d87-4fbb-96fa-c145a91605e7" x1="894.7" y1="214.4" x2="957.13" y2="322.54" gradientUnits="userSpaceOnUse"><stop offset="0" stop-color="#003"/><stop offset="1" stop-color="#2e2e58"/></linearGradient><linearGradient id="ab07a84c-4cd3-465e-bda0-70f01e5f3801" x1="871.45" y1="116.24" x2="955.45" y2="261.74" xlink:href="#52cf5cb3-4d87-4fbb-96fa-c145a91605e7"/><linearGradient id="9ec43fa2-e8ef-462d-927e-b4a2ef31bd30" x1="726.2" y1="232.88" x2="1058.4" y2="232.88" xlink:href="#2b9a3b5a-c5a6-4c96-877d-4d8c879f8831"/><linearGradient id="49fdfe27-1c08-41a8-81a9-b5a75e0121e3" x1="815.93" y1="88.38" x2="1073.75" y2="342.03" xlink:href="#52cf5cb3-4d87-4fbb-96fa-c145a91605e7"/><linearGradient id="2b0c8f84-148c-41b2-8dd1-ff6bb912bbb6" x1="1146.66" y1="574.25" x2="1267.69" y2="364.61" xlink:href="#3232f0bc-3919-43a7-8627-031b4e5670ad"/><linearGradient id="c43d5779-b4e5-46fe-9057-54efa310b4bd" x1="1122.63" y1="585.86" x2="1234.34" y2="392.38" xlink:href="#3232f0bc-3919-43a7-8627-031b4e5670ad"/><linearGradient id="1c7d6ac9-ef27-4029-b0c4-133810a6ef6e" x1="1094.05" y1="605.37" x2="1226.58" y2="375.82" xlink:href="#3232f0bc-3919-43a7-8627-031b4e5670ad"/><linearGradient id="161f95c0-7591-4bbc-91c7-7c8b4b205c51" x1="1083.09" y1="597.36" x2="1189.11" y2="413.72" xlink:href="#3232f0bc-3919-43a7-8627-031b4e5670ad"/><linearGradient id="9772a69d-6a8a-44e0-93e3-6d60bfd552f3" x1="188.1" y1="-4.49" x2="271.23" y2="139.49" xlink:href="#6142aa8b-d267-4fdd-a7ea-f863ea3ab876"/><linearGradient id="49ab2a24-7a29-42de-a41c-f2fe14311d32" x1="277.35" y1="46.77" x2="313.14" y2="108.76" xlink:href="#0c2070c8-df43-4ea6-9b80-08cbebdcb62c"/><linearGradient id="8ad0ab8a-62b0-43ef-9836-3f04e00a6bde" x1="-10612.71" y1="0.48" x2="-10550.44" y2="108.33" gradientTransform="matrix(-1, 0, 0, 1, -10269.67, 0)" xlink:href="#0c2070c8-df43-4ea6-9b80-08cbebdcb62c"/><linearGradient id="0ec540b7-c9b5-4796-a25b-ded9b67a5f44" x1="1023.51" y1="3636.67" x2="1059.89" y2="3573.67" gradientTransform="matrix(1, 0, 0, -1, 0, 3779.66)" gradientUnits="userSpaceOnUse"><stop offset="0" stop-color="#3c03a6"/><stop offset="1" stop-color="#fafdff"/></linearGradient><linearGradient id="b646d15c-aa9f-4016-9a1f-15195ece58ed" x1="1000.39" y1="3562.14" x2="1051.64" y2="3650.93" gradientTransform="matrix(1, 0, 0, -1, 0, 3779.66)" gradientUnits="userSpaceOnUse"><stop offset="0" stop-color="#fafdff"/><stop offset="1" stop-color="#3c03a6"/></linearGradient><linearGradient id="3fdb47df-ad9c-467b-8d1d-d967854e7e90" x1="882.12" y1="116.91" x2="950.8" y2="235.85" xlink:href="#52cf5cb3-4d87-4fbb-96fa-c145a91605e7"/><linearGradient id="af3b15d0-7bcf-4344-8582-bcb3324d9ecb" x1="805.8" y1="173.78" x2="1024.12" y2="173.78" xlink:href="#2b9a3b5a-c5a6-4c96-877d-4d8c879f8831"/><linearGradient id="c1b386ae-f741-47f4-977f-153e777a2635" x1="914.96" y1="226.4" x2="914.96" y2="17.28" gradientUnits="userSpaceOnUse"><stop offset="0" stop-color="#00d4ff"/><stop offset="1" stop-color="#00d4ff" stop-opacity="0"/></linearGradient><linearGradient id="ad396012-bfcc-428f-a98c-8883a893bb49" x1="914.96" y1="211.7" x2="914.96" y2="53.98" xlink:href="#c1b386ae-f741-47f4-977f-153e777a2635"/><linearGradient id="a5aad67e-e3ad-4db0-bc8d-908d08ab1045" x1="914.96" y1="198.43" x2="914.96" y2="79.26" xlink:href="#c1b386ae-f741-47f4-977f-153e777a2635"/><radialGradient id="69bd01fa-ff98-4051-a4a3-0d858a965aa4" cx="956.07" cy="69.52" r="203.12" gradientUnits="userSpaceOnUse"><stop offset="0.17" stop-color="#fff"/><stop offset="1" stop-color="#00d4ff"/></radialGradient></defs><title>hero</title><g id="0d7136c1-2752-46ef-9c4a-21952e3ac656" data-name="Layer 1"><rect x="2.85" y="264.53" width="1293.86" height="1034.09" style="fill:url(#28c7839e-50c9-4eb0-9aa4-9ec8d2b95c48)"/><path d="M2652.05-377.3,867.47,653a191.69,191.69,0,0,1-191.71,0L-1108.82-377.3H2652.05Z" style="fill:#003"/><path d="M2652.05-377.3,867.47,653a191.69,191.69,0,0,1-191.71,0L-1108.82-377.3H2652.05Z" style="fill:url(#43cfe1bc-6abe-4196-b3ee-d053937f7a69)"/><path d="M2652.05-377.3,867.47,653a191.69,191.69,0,0,1-191.71,0L-1108.82-377.3H2652.05Z" style="fill:url(#aed3c61c-cc58-4802-8d09-b160dd6d3761)"/><path d="M2652.05-434.3,867.47,596a191.69,191.69,0,0,1-191.71,0L-1108.82-434.3H2652.05Z" style="fill:#003"/><path d="M2652.05-434.3,867.47,596a191.69,191.69,0,0,1-191.71,0L-1108.82-434.3H2652.05Z" style="fill:url(#d84232f3-3ba2-4663-81d3-d4130fcc1bc6)"/><path d="M867.47,596a191.69,191.69,0,0,1-191.71,0L-1010.1-377.3h-98.72L675.76,653a191.69,191.69,0,0,0,191.71,0L2652.05-377.3h-98.73Z" style="fill:none;stroke:#7a7a95;stroke-miterlimit:10;opacity:0.1"/><path id="4a3836d0-bb71-44a4-b960-2bf6ea79c883" data-name="grid" d="M2652.05-434.3,867.47,596a191.69,191.69,0,0,1-191.71,0L-1108.82-434.3H2652.05Z" style="opacity:0.08;fill:url(#73c652d8-e495-419c-ad01-f88d77095953)"/><polyline points="0 0 1296 0 1296 351" style="fill:none;stroke:#000;stroke-miterlimit:10;stroke-width:0.25px"/><polygon id="552d9f71-8f91-4928-82bd-5d768655ecdd" data-name="the path" points="1109.63 710.5 984.03 637.99 986.53 633.66 1109.63 704.73 1312.63 587.58 1317.63 584.69 2871.43 -311.96 2873.93 -307.63 1109.63 710.5" style="fill:url(#3232f0bc-3919-43a7-8627-031b4e5670ad)"/><polygon id="6e5994c8-feca-47a1-903a-41f6d7ee4bce" data-name="grid line" points="1684.83 -66.56 1679.83 -69.44 1042.98 298.24 714.04 108.91 704.01 103.12 699.01 106.01 574.18 178.08 374.11 62.57 716.97 -135.38 711.97 -138.26 369.11 59.69 364.11 62.57 295.74 102.05 13.9 -60.66 11.4 -56.34 295.74 107.82 369.11 65.46 574.18 183.86 704.01 108.9 1109.52 343.01 796.78 523.57 792.74 525.9 796.78 528.24 872.23 571.79 871.01 565.32 802.74 525.9 1114.52 345.9 1119.52 343.01 1114.52 340.13 1047.48 301.42 1684.83 -66.56" style="fill:url(#5eacc93f-6b2a-453e-b7fa-beb2a77decf5)"/><polygon id="b2fc4d10-fc01-4698-b8cf-f69336294d29" data-name="grid line" points="1684.83 -66.56 1679.83 -69.44 1042.98 298.24 714.04 108.91 704.01 103.12 699.01 106.01 574.18 178.08 374.11 62.57 716.97 -135.38 711.97 -138.26 369.11 59.69 364.11 62.57 295.74 102.05 13.9 -60.66 11.4 -56.34 295.74 107.82 369.11 65.46 574.18 183.86 704.01 108.9 1109.52 343.01 796.78 523.57 792.74 525.9 796.78 528.24 872.23 571.79 871.01 565.32 802.74 525.9 1114.52 345.9 1119.52 343.01 1114.52 340.13 1047.48 301.42 1684.83 -66.56" style="fill:url(#5eacc93f-6b2a-453e-b7fa-beb2a77decf5)"/><g id="04930bb0-1620-4bde-9ac8-deaa81366fdd" data-name="tower shadow"><polygon points="534.65 181.47 367.39 84.91 404.05 63.74 561.06 154.39 534.65 181.47" style="fill:url(#6142aa8b-d267-4fdd-a7ea-f863ea3ab876)"/></g><g id="456245d2-b5bf-4f4d-a304-fd03e2358ca4" data-name="&lt;Group&gt;"><polygon points="602.54 97.47 580.89 109.97 568.59 117.08 556.3 109.97 534.65 97.47 568.59 77.88 602.54 97.47" style="stroke:#050537;stroke-miterlimit:10;fill:url(#0c2070c8-df43-4ea6-9b80-08cbebdcb62c)"/><polygon points="602.54 97.47 580.89 109.97 568.59 117.08 568.59 77.88 602.54 97.47" style="stroke:#050537;stroke-miterlimit:10;fill:url(#b5b01330-b072-4e36-91df-19489356d28a)"/><polygon points="602.54 116.47 580.89 128.97 568.59 136.07 556.3 128.97 534.65 116.47 568.59 96.88 602.54 116.47" style="stroke:#050537;stroke-miterlimit:10;fill:url(#662e8043-8f7f-4c1a-991f-f7d60890568c)"/><polygon points="568.59 117.08 568.59 201.07 534.65 181.47 534.65 97.47 568.59 117.08" style="stroke:#050537;stroke-miterlimit:10;fill:url(#9a7ffca1-6938-4192-bb11-fcc4231be150)"/><polygon points="602.54 97.47 602.54 181.47 568.59 201.07 568.59 117.08 602.54 97.47" style="stroke:#050537;stroke-miterlimit:10;fill:url(#e8769805-4225-4fac-9800-6d1cd36b2037)"/><polygon points="568.59 159.8 514.17 128.38 534.31 116.75 534.31 122.58 524.27 128.38 568.59 153.97 612.92 128.38 602.88 122.58 602.88 116.75 623.02 128.38 568.59 159.8" style="fill:url(#2b9a3b5a-c5a6-4c96-877d-4d8c879f8831)"/></g><g id="443735e1-c155-452d-941a-47d48e0b6586" data-name="tower shadow"><polygon points="1165.79 222.64 1003.02 128.67 1021 118.28 1176.14 207.85 1165.79 222.64" style="fill:url(#e67c3361-9f65-4f0d-a8b0-e6dc47083da2)"/></g><g id="7c46caf0-8e76-4bca-ae48-4bb050dbb9b5" data-name="&lt;Group&gt;"><polygon points="1192.95 137.05 1184.29 141.95 1179.37 144.73 1174.45 141.95 1165.79 137.05 1179.37 129.36 1192.95 137.05" style="stroke:#141443;stroke-miterlimit:10;fill:url(#32f95c3f-c7c7-41a3-9094-9e33fd9a0865)"/><polygon points="1179.37 144.85 1179.37 230.33 1165.79 222.64 1165.79 137.17 1179.37 144.85" style="stroke:#141443;stroke-miterlimit:10;fill:url(#99a59f73-da77-4e51-a1c7-215053e4217d)"/><polygon points="1192.95 137.17 1192.95 222.64 1179.37 230.33 1179.37 144.85 1192.95 137.17" style="stroke:#141443;stroke-miterlimit:10;fill:url(#92c2690f-1b3c-45a4-aad8-f8e20de36644)"/><polygon points="1169.69 225.08 1169.69 139.38 1174.7 142.08 1174.7 227.97 1169.69 225.08" style="fill:url(#6b00d82d-816d-46a8-9f71-6365ff317071)"/><polygon points="1183.65 131.74 1169.69 139.38 1174.7 142.08 1188.66 134.63 1183.65 131.74" style="fill:url(#2d34a563-21b2-439e-816e-82aff3a6913a)"/><polygon points="1225.8 117.28 1217.49 122.08 1212.77 124.81 1208.04 122.08 1199.73 117.28 1212.77 109.76 1225.8 117.28" style="fill:#fff680"/><polygon points="1212.77 124.81 1212.77 140.17 1199.73 132.64 1199.73 117.28 1212.77 124.81" style="fill:#fe0"/><polygon points="1225.8 117.28 1225.8 132.64 1212.77 140.17 1212.77 124.81 1225.8 117.28" style="fill:#fffab2"/><polygon points="1158.62 118.28 1150.31 123.08 1145.59 125.81 1140.86 123.08 1132.55 118.28 1145.59 110.76 1158.62 118.28" style="fill:#80eaff"/><polygon points="1145.59 125.81 1145.59 141.17 1132.55 133.64 1132.55 118.28 1145.59 125.81" style="fill:#00d4ff"/><polygon points="1158.62 118.28 1158.62 133.64 1145.59 141.17 1145.59 125.81 1158.62 118.28" style="fill:#b2f2ff"/><polygon points="1192.8 97.94 1184.24 102.89 1179.38 105.69 1174.51 102.89 1165.95 97.94 1179.38 90.19 1192.8 97.94" style="fill:#c680ff"/><polygon points="1179.38 105.69 1179.38 121.52 1165.95 113.76 1165.95 97.94 1179.38 105.69" style="fill:#8c00ff"/><polygon points="1192.8 97.94 1192.8 113.76 1179.38 121.52 1179.38 105.69 1192.8 97.94" style="fill:#ddb2ff"/></g><g id="88710403-bb28-46f0-a760-257d44bc32cb" data-name="tower shadow"><polygon points="1110.47 668.53 947.7 574.55 1029.28 527.45 1171.55 609.59 1110.47 668.53" style="fill:url(#6bb29296-937e-456c-9670-cdba1239ce21)"/></g><polygon points="1111.47 538.53 1178.36 499.9 1245.26 538.53 1178.36 577.15 1111.47 538.53" style="fill:url(#69b6afdf-c1bf-4c46-9ab8-8830d9037097)"/><path d="M1178.36,500.48l65.9,38-41.8,24.13-24.1,13.91-24.09-13.91-41.8-24.13,65.89-38m0-1.15-67.89,39.2,43.3,25,24.59,14.2,24.6-14.2,43.3-25-67.9-39.2Z" style="fill:#191947"/><polygon points="1246.26 538.53 1202.96 563.53 1178.36 577.73 1178.36 499.33 1246.26 538.53" style="stroke:#191947;stroke-miterlimit:10;fill:url(#6d06e1e3-a169-410c-94d9-f93810238bf6)"/><polygon points="1111.47 568.53 1178.36 529.9 1245.26 568.53 1178.36 607.15 1111.47 568.53" style="fill:url(#8a215973-ca21-44cb-be86-d535a097edf3)"/><path d="M1178.36,530.48l65.9,38-41.8,24.13-24.1,13.91-24.09-13.91-41.8-24.13,65.89-38m0-1.15-67.89,39.2,43.3,25,24.59,14.2,24.6-14.2,43.3-25-67.9-39.2Z" style="fill:#191947"/><polygon points="1110.97 668.24 1110.97 539.39 1177.86 578.02 1177.86 706.86 1110.97 668.24" style="fill:url(#4166a90a-1c64-4907-a44a-ce90e4b591ef)"/><path d="M1111.47,540.26l65.89,38V706l-65.89-38V540.26m-1-1.73v130l67.89,39.2v-130l-67.89-39.2Z" style="fill:#191947"/><polygon points="1178.86 578.02 1245.76 539.39 1245.76 668.24 1178.86 706.86 1178.86 578.02" style="fill:url(#9b3c9d7a-20d4-4d5b-9929-a02dfd3ff6e3)"/><path d="M1245.26,540.26V668l-65.9,38V578.3l65.9-38m1-1.73-67.9,39.2v130l67.9-39.2v-130Z" style="fill:#191947"/><path d="M1246.94,655.91l-68.31,39.42-68.83-39.74v-5.84l68.83,39.75,68.31-39.42Zm0,7.3-68.31,39.41-68.83-39.74v5.83l68.83,39.75L1246.94,669Z" style="fill:url(#2a365082-2789-4d32-9fca-03b4419a6fc0)"/><g id="64ba89c5-3e47-40dc-adff-11d9f51d9796" data-name="tower shadow"><polygon points="848.59 582.1 685.82 488.12 789.75 428.12 932.02 510.26 848.59 582.1" style="fill:url(#a7b94dd0-c2d6-4267-9273-76193d7374a0)"/></g><path d="M851.17,317.67c-.45-.95-.89-1.89-1.3-2.83" style="fill:none;stroke:#000;stroke-miterlimit:10;stroke-width:0.25px"/><path d="M986.71,384.2c-.29-.58-.56-1.16-.83-1.74C960.27,331,877.47,269.26,851.19,214.71c5.9,13.73,5.8,28.29,3.55,40.82-.44,2.47-1,4.85-1.55,7.14a115.2,115.2,0,0,1-3.8,12.12c-.67,1.82-1.35,3.5-2,5a89.71,89.71,0,0,1-4.25,8.83h0c.3,8.47,2.71,17.23,6.73,26.19.47.94.9,1.88,1.3,2.83a.05.05,0,0,0,0,0C878.07,373.5,959.68,432.8,985.88,485.46c-5.68-12.49-6.28-25.73-4.72-37.56.35-2.66.81-5.23,1.34-7.72h0a111,111,0,0,1,3.67-13.1c.68-2,1.38-3.82,2.06-5.51a95,95,0,0,1,5.25-11.23C993.48,402,991,393.27,986.71,384.2Z" style="stroke:#141443;stroke-miterlimit:10;stroke-width:0.5px;fill:url(#a1a23f47-ad66-45d7-ac94-dee0e75f4945)"/><path d="M986.71,487.2c-.29-.58-.56-1.16-.83-1.74C960.27,434,877.47,372.26,851.19,317.71c4,2.6,4.46,21.15,3.41,41.57a34.52,34.52,0,0,1-1.58,7.06h0a115,115,0,0,1-3.83,12c-.68,1.8-1.35,3.45-2,4.93a88.41,88.41,0,0,1-4.1,8.45c0,8.32,2.46,17.06,6.77,26.13q.25.51.48,1c.06.11.11.22.16.33,25.38,51.62,108.7,113.65,134.9,168.39-5.21-12-5.82-24.57-4.4-35.93.33-2.68.77-5.29,1.3-7.8A110.89,110.89,0,0,1,986,530.62c.68-2,1.38-3.86,2.06-5.56a98.09,98.09,0,0,1,5.47-11.73C993.48,505,991,496.27,986.71,487.2Z" style="stroke:#141443;stroke-miterlimit:10;stroke-width:0.5px;fill:url(#a1e936db-eb2a-4b24-90db-757ece7ff918)"/><path d="M853.52,116.29c3.64,12.28,3.08,24.86,1,35.77h0c-.47,2.42-1,4.75-1.62,7A115.65,115.65,0,0,1,849,170.92c-.68,1.78-1.36,3.41-2,4.87a86.74,86.74,0,0,1-3.93,8.05c0,9.92,3,20.24,8.07,30.83a.08.08,0,0,1,0,0C877.47,269.26,960.27,331,985.88,382.46c-5.68-12.49-6.28-25.73-4.72-37.56.35-2.66.81-5.23,1.34-7.72h0a111,111,0,0,1,3.67-13.1c.68-2,1.38-3.82,2.06-5.51a95,95,0,0,1,5.25-11.23C993.48,252.82,887.57,180,853.52,116.29Z" style="stroke:#141443;stroke-miterlimit:10;stroke-width:0.5px;fill:url(#63c3cbf5-eca5-457c-8412-3a7b0672a7f7)"/><path d="M986.62,590.2l0-.06c-.42-.85-.82-1.7-1.18-2.56-26.2-54.74-109.52-116.77-134.9-168.39,6.33,13.64,6.55,28.21,4.48,40.87h0c-.41,2.49-.91,4.92-1.47,7.24h0a114,114,0,0,1-3.72,12.39c-.68,1.86-1.36,3.58-2,5.15a93.22,93.22,0,0,1-4.69,9.85c0,8.13,2.36,16.67,6.49,25.53,18.65,40,73.36,86.55,109.69,131.06a81.25,81.25,0,0,0,16.51-7.76,54.22,54.22,0,0,0,4.47-3.11,41.34,41.34,0,0,0,7.17-6.87,29.64,29.64,0,0,0,2.63-3.79h0a22.53,22.53,0,0,0,3.31-11.56C993.37,609.17,990.91,599.8,986.62,590.2Z" style="stroke:#141443;stroke-miterlimit:10;stroke-width:0.5px;fill:url(#f350aeb2-deb7-4778-b70e-e2b95f58d9bd)"/><path d="M849.59,520.24c3.94,10.62,4.52,22.41,3.76,32.75-.2,2.86-.51,5.63-.88,8.29-.75,5.46-1.75,10.43-2.61,14.58h0c-.49,2.36-.94,4.46-1.27,6.23a52.53,52.53,0,0,0,7.29,5.43,78,78,0,0,0,13.45,6.65l0,13.48h0l0,10,.11,32.55a123.8,123.8,0,0,0,34.14,7.41c3.21.27,6.49.43,9.82.48l2.36,0a150.28,150.28,0,0,0,15.8-.83c2.81-.3,5.57-.68,8.26-1.14a118,118,0,0,0,19.38-4.89C923,606.79,868.24,560.26,849.59,520.24Z" style="stroke:#141443;stroke-miterlimit:10;stroke-width:0.5px;fill:url(#a1b984e5-efa1-41ce-9d3b-801e45392f94)"/><path d="M854.3,277.78c-1.26-2.22-2.46-4.5-3.57-6.77.68-2,1.34-4.2,2-6.48l.86,1.66c13.89,26.93,41.33,55.87,67.86,83.86,26.34,27.8,51.25,54.08,64.2,78.71-.68,2.07-1.33,4.27-1.94,6.58l-.16-.29c-13-24.24-37.53-50.17-63.56-77.62C894.86,331,868.91,303.58,854.3,277.78Zm-.75,89.41-.5-1,0,.11h0c-.58,2.27-1.22,4.42-1.89,6.46,1,2,2.06,4,3.17,6,14.61,25.8,40.56,53.17,65.65,79.65,26,27.45,50.61,53.38,63.56,77.62l.48.9c.62-2.23,1.28-4.34,2-6.33l0-.12c-12.85-24.85-38-51.38-64.59-79.45S867.44,394.12,853.55,367.19Zm-2.79-201.12c1.1,2.25,2.29,4.51,3.54,6.71,14.61,25.8,40.56,53.17,65.65,79.65,26,27.45,50.61,53.38,63.56,77.62l.51,1c.63-2.28,1.31-4.44,2-6.47-12.84-24.86-38-51.4-64.61-79.49s-54-56.93-67.86-83.86l-.83-1.62C852.1,161.86,851.44,164,850.76,166.07ZM987.06,634l-.6-.61c-12.7-25.1-38.13-51.93-65.05-80.33-26.53-28-54-56.93-67.86-83.86l-.34-.65c-.58,2.33-1.22,4.55-1.88,6.65.94,1.88,1.93,3.75,3,5.59,14.61,25.8,40.56,53.17,65.65,79.65,25.95,27.36,50.45,53.21,63.43,77.38A37.55,37.55,0,0,0,987.06,634Z" style="fill:url(#3d33f88f-dda1-4dfa-a1ea-5199c1216840)"/><g style="opacity:0.2"><path d="M1228.46,678.42a4.91,4.91,0,0,0,.15-.51" style="fill:none;stroke:#000;stroke-miterlimit:10;stroke-width:0.25px"/><path d="M1191.44,564.6l.06-.22.09-.41" style="fill:none;stroke:#000;stroke-miterlimit:10;stroke-width:0.25px"/><path d="M1228.46,678.42a4.91,4.91,0,0,0,.15-.51" style="fill:none;stroke:#000;stroke-miterlimit:10;stroke-width:0.25px"/><path d="M1191.44,564.6l.06-.22.09-.41" style="fill:none;stroke:#000;stroke-miterlimit:10;stroke-width:0.25px"/><path d="M1191.44,564.6l.06-.22.09-.41" style="fill:none;stroke:#000;stroke-miterlimit:10;stroke-width:0.25px"/><path d="M1228.61,677.91a4.91,4.91,0,0,1-.15.51" style="fill:none;stroke:#000;stroke-miterlimit:10;stroke-width:0.25px"/><path d="M1228.46,678.42a4.91,4.91,0,0,0,.15-.51" style="fill:none;stroke:#000;stroke-miterlimit:10;stroke-width:0.25px"/><path d="M1191.44,564.6l.06-.22.09-.41" style="fill:none;stroke:#000;stroke-miterlimit:10;stroke-width:0.25px"/><path d="M1228.46,678.42a4.91,4.91,0,0,0,.15-.51" style="fill:none;stroke:#000;stroke-miterlimit:10;stroke-width:0.25px"/><path d="M1008.63,204.16c-19.16,16.82-53.81,28.05-93.37,28.05-40,0-75-11.49-94-28.64a70.74,70.74,0,0,1,11-11.44c9-7.5,20.27-13.73,33.22-18.24a155.26,155.26,0,0,1,98.39,0c13,4.51,24.28,10.74,33.23,18.24A71.44,71.44,0,0,1,1008.63,204.16Z" style="fill:none;stroke:#000;stroke-miterlimit:10;stroke-width:0.25px"/><path d="M1008.63,204.16c-19.16,16.82-53.81,28.05-93.37,28.05-40,0-75-11.49-94-28.64a70.74,70.74,0,0,1,11-11.44c9-7.5,20.27-13.73,33.22-18.24a155.26,155.26,0,0,1,98.39,0c13,4.51,24.28,10.74,33.23,18.24A71.44,71.44,0,0,1,1008.63,204.16Z" style="fill:none;stroke:#000;stroke-miterlimit:10;stroke-width:0.25px"/></g><path d="M1016.65,248c-10.12,30.53-51.92,53.42-101.95,53.42-50.55,0-92.7-23.36-102.26-54.37,24,16.19,61.14,26.58,102.82,26.58,38.58,0,73.28-8.9,97.26-23.07h0l.23-.13h0Q1014.76,249.23,1016.65,248Z" style="stroke:#141443;stroke-miterlimit:10;stroke-width:0.5px;fill:url(#52cf5cb3-4d87-4fbb-96fa-c145a91605e7)"/><path d="M1046.33,192.13c0,8.78-3,17.21-8.59,25A75.47,75.47,0,0,1,1019,234.91c-24,16.55-61.52,27.2-103.72,27.2-42.87,0-80.93-11-104.85-28a74.59,74.59,0,0,1-17.63-17,50.14,50.14,0,0,1-4.88-8.4,39,39,0,0,1-.37-32.33h0a57.62,57.62,0,0,1,14.08-19.13h0A101.12,101.12,0,0,1,823.72,142h0c-1.1.9-2.16,1.82-3.17,2.76h0a47.85,47.85,0,0,0-11.73,15.94h0A33,33,0,0,0,806,173.89v9.6a32,32,0,0,0,1.2,8.64,35.55,35.55,0,0,0,1.89,5.16,40.88,40.88,0,0,0,4.07,7,51.5,51.5,0,0,0,4.13,5c17.84,19.25,55,32.48,97.93,32.48,42.39,0,79.13-12.89,97.24-31.74a52.28,52.28,0,0,0,4.83-5.78,41.48,41.48,0,0,0,4.06-7,35.55,35.55,0,0,0,1.89-5.16,32,32,0,0,0,1.2-8.64v-9.6a33,33,0,0,0-2.78-13.14h0A47.85,47.85,0,0,0,1010,144.8h0q-1.52-1.41-3.18-2.76h0a101.36,101.36,0,0,1,22.08,15.18h0A57.48,57.48,0,0,1,1043,176.35h0A39.52,39.52,0,0,1,1046.33,192.13Z" style="stroke:#141443;stroke-miterlimit:10;stroke-width:0.5px;fill:url(#ab07a84c-4cd3-465e-bda0-70f01e5f3801)"/><path d="M1046.33,192.13v11.52a39.69,39.69,0,0,1-3.71,16.56,49.46,49.46,0,0,1-4.88,8.4c-5.07,7.09-12.23,13.62-21.09,19.39q-1.89,1.23-3.89,2.41l.09-.11-.32.25h0c-24,14.17-58.68,23.07-97.26,23.07-41.68,0-78.82-10.39-102.82-26.58a76.44,76.44,0,0,1-19.66-18.44,50.14,50.14,0,0,1-4.88-8.4,39.68,39.68,0,0,1-3.7-16.56V192.13a39.68,39.68,0,0,0,3.7,16.56,50.14,50.14,0,0,0,4.88,8.4,74.59,74.59,0,0,0,17.63,17c23.92,17,62,28,104.85,28,42.2,0,79.75-10.65,103.72-27.2a75.47,75.47,0,0,0,18.76-17.82C1043.29,209.34,1046.33,200.91,1046.33,192.13Z" style="fill:url(#9ec43fa2-e8ef-462d-927e-b4a2ef31bd30)"/><path d="M1019,192.13c-.53.86-1.1,1.72-1.7,2.56a56.26,56.26,0,0,1-8.7,9.47c-19.16,16.82-53.81,28.05-93.37,28.05-40,0-75-11.49-94-28.64a55.51,55.51,0,0,1-8-8.88c-.61-.84-1.18-1.7-1.71-2.56a41.31,41.31,0,0,1-2.36-4.44,33,33,0,0,1-3.09-13.8v9.6a32,32,0,0,0,1.2,8.64,35.55,35.55,0,0,0,1.89,5.16,40.88,40.88,0,0,0,4.07,7,51.5,51.5,0,0,0,4.13,5c17.84,19.25,55,32.48,97.93,32.48,42.39,0,79.13-12.89,97.24-31.74a52.28,52.28,0,0,0,4.83-5.78,41.48,41.48,0,0,0,4.06-7,35.55,35.55,0,0,0,1.89-5.16,32,32,0,0,0,1.2-8.64v-9.6A34.5,34.5,0,0,1,1019,192.13Z" style="stroke:#33335c;stroke-miterlimit:10;stroke-width:0.25px;fill:url(#49fdfe27-1c08-41a8-81a9-b5a75e0121e3)"/><polygon points="1110.47 519.33 1178.36 558.52 1246.26 519.32 1178.36 480.12 1110.47 519.33" style="fill:url(#2b0c8f84-148c-41b2-8dd1-ff6bb912bbb6)"/><polygon points="1124.05 489.33 1178.36 520.68 1232.68 489.32 1178.36 457.96 1124.05 489.33" style="fill:url(#c43d5779-b4e5-46fe-9057-54efa310b4bd)"/><polygon points="1134.91 459.32 1178.36 484.41 1221.82 459.32 1178.36 434.23 1134.91 459.32" style="fill:url(#1c7d6ac9-ef27-4029-b0c4-133810a6ef6e)"/><polygon points="1143.61 432.32 1178.37 452.39 1213.13 432.32 1178.37 412.25 1143.61 432.32" style="fill:url(#161f95c0-7591-4bbc-91c7-7c8b4b205c51)"/><polygon points="296.83 87.84 294.89 88.96 162.26 10.42 130.57 28.72 264.9 106.28 296.83 124.71 328.76 106.28 296.83 87.84" style="fill:url(#9772a69d-6a8a-44e0-93e3-6d60bfd552f3)"/><polygon points="296.83 54.19 296.83 118.11 329.39 99.31 296.83 54.19" style="stroke:#050537;stroke-miterlimit:10;fill:url(#49ab2a24-7a29-42de-a41c-f2fe14311d32)"/><polygon points="296.83 54.19 296.83 118.11 264.27 99.31 296.83 54.19" style="stroke:#050537;stroke-miterlimit:10;fill:url(#8ad0ab8a-62b0-43ef-9836-3f04e00a6bde)"/><g id="b2a7ef64-6a0a-4a90-a9d3-e48ce3e6194f" data-name="700ae341-8bdd-4edd-986e-4d6ca5c4bc30"><polygon points="1033.72 139.36 1034.55 139.84 1035.36 140.32 1035.36 141.28 1035.36 181.01 1034.55 181.5 1033.72 181.98 1032.89 181.5 1032.07 181.01 1032.07 141.28 1032.07 140.32 1032.89 139.84 1033.72 139.36" style="fill:url(#0ec540b7-c9b5-4796-a25b-ded9b67a5f44)"/><path d="M1033.75,139.38l-.83.47-.82.48V181l.82.49.83.47Z" style="fill:url(#b646d15c-aa9f-4016-9a1f-15195ece58ed)"/><polygon points="1033.72 139.36 1035.36 140.29 1033.72 141.23 1032.07 140.29 1033.72 139.36" style="fill:#f9e3e9"/><polygon points="1032.1 128.77 1034.64 127.28 1041.59 131.29 1039.03 132.77 1032.1 128.77" style="fill:#4ae1ff"/><polygon points="1032.1 128.77 1039.03 132.77 1039 146.73 1032.06 142.72 1032.1 128.77" style="fill:#00d4ff"/><polygon points="1039.03 132.77 1041.59 131.29 1048.53 135.29 1045.97 136.79 1039.03 132.77" style="fill:#fff899"/><polygon points="1045.97 136.79 1048.53 135.29 1048.49 149.26 1045.93 150.75 1045.97 136.79" style="fill:#fae8ed"/><polygon points="1039.03 132.77 1045.97 136.79 1045.93 150.75 1039 146.73 1039.03 132.77" style="fill:#fe0"/><polygon points="1045.97 136.79 1048.53 135.29 1055.48 139.31 1052.91 140.79 1045.97 136.79" style="fill:#d199ff"/><polygon points="1052.91 140.79 1055.48 139.31 1055.43 153.27 1052.87 154.75 1052.91 140.79" style="fill:#d199ff"/><polygon points="1045.97 136.79 1052.91 140.79 1052.87 154.75 1045.93 150.75 1045.97 136.79" style="fill:#8c00ff"/></g><ellipse cx="914.96" cy="173.78" rx="109.49" ry="61.08" style="stroke:#33335c;stroke-miterlimit:10;stroke-width:0.25px;fill:url(#3fdb47df-ad9c-467b-8d1d-d967854e7e90)"/><path d="M915,234.9c-60.19,0-109.16-27.42-109.16-61.12s49-61.11,109.16-61.11,109.16,27.41,109.16,61.11S975.15,234.9,915,234.9Zm0-121.24c-59.64,0-108.17,27-108.17,60.12S855.32,233.91,915,233.91s108.17-27,108.17-60.13S974.61,113.66,915,113.66Z" style="fill:url(#af3b15d0-7bcf-4344-8582-bcb3324d9ecb)"/><path d="M1011.07,172.78c0,29.61-43,53.62-96.11,53.62s-96.11-24-96.11-53.62V17.28h192.22Z" style="fill-opacity:0.4;fill:url(#c1b386ae-f741-47f4-977f-153e777a2635)"/><ellipse cx="914.96" cy="172.78" rx="96.11" ry="53.62" style="fill:#00d4ff;opacity:0.1"/><path d="M988.49,170.69c0,22.65-32.92,41-73.53,41s-73.52-18.36-73.52-41V54h147Z" style="fill-opacity:0.4;fill:url(#ad396012-bfcc-428f-a98c-8883a893bb49)"/><ellipse cx="914.96" cy="170.69" rx="73.52" ry="41.02" style="fill:#00d4ff;opacity:0.1"/><path d="M970.51,167.43c0,17.12-24.87,31-55.55,31s-55.55-13.88-55.55-31V79.26h111.1Z" style="fill-opacity:0.4;fill:url(#a5aad67e-e3ad-4db0-bc8d-908d08ab1045)"/><ellipse cx="914.96" cy="167.43" rx="55.55" ry="30.99" style="fill:#00d4ff;opacity:0.1"/><path d="M914.22,120.28a21.62,21.62,0,1,1-21.61-21.61A21.62,21.62,0,0,1,914.22,120.28Zm18.39-43a13,13,0,1,0,13,13A13,13,0,0,0,932.61,77.31Zm-40-14.18a4.15,4.15,0,1,0,4.15,4.15A4.15,4.15,0,0,0,892.61,63.13Zm70,48a5.19,5.19,0,1,0,5.18,5.19A5.19,5.19,0,0,0,962.61,111.09Zm-20,27.55a8.65,8.65,0,1,0,8.64,8.64A8.64,8.64,0,0,0,942.61,138.64Zm-50,25.18a3.46,3.46,0,1,0,3.45,3.46A3.46,3.46,0,0,0,892.61,163.82Z" style="fill:url(#69bd01fa-ff98-4051-a4a3-0d858a965aa4)"/></g></svg>