<svg xmlns="http://www.w3.org/2000/svg" xmlns:xlink="http://www.w3.org/1999/xlink" viewBox="0 0 3504 1303.83"><defs><radialGradient id="19a3502d-13c0-42a8-ae07-fbcda53cb2db" cx="2137.16" cy="639.83" r="820.93" gradientTransform="translate(4203.53 -40.6) rotate(151) scale(1 0.64)" gradientUnits="userSpaceOnUse"><stop offset="0" stop-color="#a9a9c2" stop-opacity="0.45"/><stop offset="1" stop-color="#161659" stop-opacity="0"/></radialGradient><linearGradient id="592dded0-8fa5-458e-8c7d-5fbfd357b79a" x1="1242.88" y1="150.42" x2="2940.39" y2="150.42" gradientUnits="userSpaceOnUse"><stop offset="0" stop-color="#161659" stop-opacity="0"/><stop offset="0.49" stop-color="#9d9db9" stop-opacity="0.1"/><stop offset="1" stop-color="#161659" stop-opacity="0"/></linearGradient><linearGradient id="ce57873a-c75d-4f83-84e1-ea41d635011d" x1="1242.88" y1="150.42" x2="2940.39" y2="150.42" gradientUnits="userSpaceOnUse"><stop offset="0" stop-color="#161659" stop-opacity="0"/><stop offset="0.49" stop-color="#f8f8fa" stop-opacity="0.3"/><stop offset="1" stop-color="#161659" stop-opacity="0"/></linearGradient><radialGradient id="fb5eb795-04db-48aa-b686-b0984403d1d7" cx="2065.54" cy="531.42" r="1381.09" gradientTransform="translate(127.22 1313.42) rotate(-30.77) scale(1 0.6)" gradientUnits="userSpaceOnUse"><stop offset="0" stop-color="#b9b9cd" stop-opacity="0.4"/><stop offset="1" stop-color="#161659" stop-opacity="0"/></radialGradient><pattern id="d4ff3c06-9537-4097-98f6-85a4533e49d9" data-name="New Pattern 3" width="136.92" height="78.29" patternTransform="translate(18.33 -52.2)" patternUnits="userSpaceOnUse" viewBox="0 0 136.92 78.29"><rect width="136.92" height="78.29" style="fill:none"/><path d="M203.72,78.29l-66.8,38.56,66.8,38.57,68.09-38.57L203.72,78.29m0-1.16.49.29L272.31,116l1.53.87-1.53.87-68.1,38.57-.49.28-.5-.28-66.8-38.57-1.5-.87,1.5-.86,66.8-38.57.5-.29Z" style="fill:#73739c"/><path d="M66.8,78.29,0,116.85l66.8,38.57,68.09-38.57L66.8,78.29m0-1.16.5.29L135.38,116l1.54.87-1.54.87L67.29,156.29l-.5.28-.49-.28L-.5,117.72l-1.5-.87L-.5,116,66.3,77.42l.49-.29Z" style="fill:#73739c"/><path d="M203.72,0l-66.8,38.57,66.8,38.56,68.09-38.56L203.72,0m0-1.15.49.28,68.1,38.57,1.53.87-1.53.87L204.21,78l-.49.28-.5-.29-66.8-38.57-1.5-.86,1.5-.87L203.22-.86l.5-.29Z" style="fill:#73739c"/><path d="M66.8,0,0,38.57,66.8,77.13l68.09-38.56L66.8,0m0-1.15.5.28L135.38,37.7l1.54.87-1.54.87L67.29,78l-.5.28L66.3,78-.5,39.43-2,38.57l1.5-.87L66.3-.86l.49-.29Z" style="fill:#73739c"/><path d="M203.72-78.28l-66.8,38.56,66.8,38.57,68.09-38.57L203.72-78.28m0-1.16.49.29,68.1,38.56,1.53.87-1.53.87L204.21-.28l-.49.28-.5-.28-66.8-38.57-1.5-.87,1.5-.86,66.8-38.57.5-.29Z" style="fill:#73739c"/><path d="M66.8-78.28,0-39.72,66.8-1.15l68.09-38.57L66.8-78.28m0-1.16.5.29,68.09,38.56,1.54.87-1.54.87L67.29-.28l-.5.28L66.3-.28-.5-38.85-2-39.72l1.5-.86L66.3-79.15l.49-.29Z" style="fill:#73739c"/></pattern><radialGradient id="330e9e8d-8a82-42e1-9ef8-985d034c2e89" cx="2115.33" cy="576.71" r="1050.39" gradientUnits="userSpaceOnUse"><stop offset="0" stop-color="#8c00ff"/><stop offset="0.5" stop-color="#00d4ff"/><stop offset="1" stop-color="#fe0"/></radialGradient><radialGradient id="cb7789a8-ec31-4649-b111-6aad49876ce3" cx="2083.92" cy="574.37" r="1103.67" xlink:href="#330e9e8d-8a82-42e1-9ef8-985d034c2e89"/><linearGradient id="f716c3f0-9672-4a31-99dc-a9b1d992dbaf" x1="1587.46" y1="55.79" x2="1672.66" y2="203.37" gradientUnits="userSpaceOnUse"><stop offset="0" stop-color="#161659" stop-opacity="0"/><stop offset="1" stop-color="#161659"/></linearGradient><linearGradient id="2de55d27-f2ee-4dcb-a702-7aec1bfe1f07" x1="1591.17" y1="0.55" x2="1817" y2="159.42" gradientUnits="userSpaceOnUse"><stop offset="0" stop-color="#45457a"/><stop offset="1" stop-color="#161659"/></linearGradient><linearGradient id="3640c4bc-4a00-4984-a3b8-27cb2c408e45" x1="1667.03" y1="51.78" x2="1825.82" y2="163.49" xlink:href="#2de55d27-f2ee-4dcb-a702-7aec1bfe1f07"/><linearGradient id="de81d1b1-967f-422d-8560-7f057a9a6de9" x1="1671.83" y1="76.3" x2="1897.66" y2="235.16" xlink:href="#2de55d27-f2ee-4dcb-a702-7aec1bfe1f07"/><linearGradient id="ec51bb10-cfc5-4f72-bcef-6e33aa839004" x1="1686.72" y1="191.98" x2="1789.17" y2="14.54" gradientUnits="userSpaceOnUse"><stop offset="0" stop-color="#161659"/><stop offset="1" stop-color="#45457a"/></linearGradient><linearGradient id="eb7b2c28-eae3-4ae5-ac35-c7e378594291" x1="1710.5" y1="88.36" x2="1769.95" y2="191.33" xlink:href="#2de55d27-f2ee-4dcb-a702-7aec1bfe1f07"/><linearGradient id="6ec532b0-6301-4413-837f-e932d9694459" x1="1500.1" y1="137.98" x2="1932.67" y2="137.98" gradientUnits="userSpaceOnUse"><stop offset="0" stop-color="#fe0"/><stop offset="0.5" stop-color="#00d4ff"/><stop offset="1" stop-color="#8c00ff"/></linearGradient><linearGradient id="da4fed7a-2480-450f-8c50-40cd476dfca1" x1="2206.36" y1="93.23" x2="2300.25" y2="255.85" xlink:href="#f716c3f0-9672-4a31-99dc-a9b1d992dbaf"/><linearGradient id="1fa40e16-5c8a-494f-9cc7-5612a0b68906" x1="2289.86" y1="101.97" x2="2380.19" y2="165.51" xlink:href="#2de55d27-f2ee-4dcb-a702-7aec1bfe1f07"/><linearGradient id="6e34cd89-a561-477f-9c2e-fb7bdd50fd99" x1="2310.21" y1="222.07" x2="2362.13" y2="132.15" xlink:href="#ec51bb10-cfc5-4f72-bcef-6e33aa839004"/><linearGradient id="7e2cf1fc-4e34-43de-abe1-d8cccb89e7ac" x1="2327.24" y1="150.81" x2="2392.21" y2="263.34" xlink:href="#2de55d27-f2ee-4dcb-a702-7aec1bfe1f07"/><linearGradient id="d6d2eb94-4400-4762-ac36-47d36ce63ab4" x1="2332.13" y1="260.78" x2="2332.13" y2="132.24" xlink:href="#330e9e8d-8a82-42e1-9ef8-985d034c2e89"/><linearGradient id="b58a6619-053b-4f62-8899-949252bb4432" x1="2329.77" y1="146.15" x2="2378.94" y2="96.46" xlink:href="#6ec532b0-6301-4413-837f-e932d9694459"/><linearGradient id="fe92519b-de7c-4c0b-ba30-7b749b224ef6" x1="2207.43" y1="570.77" x2="2266.84" y2="673.68" gradientUnits="userSpaceOnUse"><stop offset="0" stop-color="#161659" stop-opacity="0"/><stop offset="1" stop-color="#161659" stop-opacity="0.5"/></linearGradient><linearGradient id="1a67f164-21e8-4327-a701-5f8fa4bc5168" x1="2009.26" y1="306.76" x2="2460.91" y2="624.49" gradientUnits="userSpaceOnUse"><stop offset="0" stop-color="#161659"/><stop offset="0.82" stop-color="#332a46"/><stop offset="1" stop-color="#45457a"/></linearGradient><linearGradient id="414d960b-de75-4a90-926d-fcd3b5367072" x1="2153.05" y1="403.63" x2="2470.62" y2="627.04" xlink:href="#1a67f164-21e8-4327-a701-5f8fa4bc5168"/><linearGradient id="363d1a41-89aa-40f1-bb70-53e7c9183577" x1="2122.51" y1="416.43" x2="2574.17" y2="734.16" xlink:href="#1a67f164-21e8-4327-a701-5f8fa4bc5168"/><linearGradient id="07b84e29-42c6-4327-be22-636964e236bb" x1="2155.46" y1="880.72" x2="2471.53" y2="333.27" xlink:href="#1a67f164-21e8-4327-a701-5f8fa4bc5168"/><linearGradient id="340a3d4b-5971-4ad7-b3d3-9768f02d8b8a" x1="2318.48" y1="529.71" x2="2456.4" y2="768.6" xlink:href="#2de55d27-f2ee-4dcb-a702-7aec1bfe1f07"/><linearGradient id="a51167dd-a930-4850-b15c-a1dbad19c691" x1="2268.42" y1="781.42" x2="2514.05" y2="355.98" xlink:href="#330e9e8d-8a82-42e1-9ef8-985d034c2e89"/><linearGradient id="bfcffdc5-b805-4bdd-b376-5f6a90a79ac3" x1="1939.61" y1="448.25" x2="2015.67" y2="579.99" gradientUnits="userSpaceOnUse"><stop offset="0" stop-color="#161659" stop-opacity="0"/><stop offset="1" stop-color="#161659" stop-opacity="0.3"/></linearGradient><linearGradient id="dddc1b9d-f8ef-4b2e-84b2-26836eed9e52" x1="1928.8" y1="200.12" x2="2439.54" y2="710.86" gradientUnits="userSpaceOnUse"><stop offset="0" stop-color="#161659"/><stop offset="0.62" stop-color="#535384"/><stop offset="1" stop-color="#161659"/></linearGradient><linearGradient id="42802735-d5db-4631-94bb-ec6518edf2b6" x1="1911.19" y1="285.27" x2="2346.26" y2="720.34" xlink:href="#dddc1b9d-f8ef-4b2e-84b2-26836eed9e52"/><linearGradient id="0d0a2f0c-f4b9-437f-bec8-93949a7088fd" x1="2022.42" y1="191.86" x2="2451.51" y2="620.95" xlink:href="#dddc1b9d-f8ef-4b2e-84b2-26836eed9e52"/><linearGradient id="2ddb71a1-66c6-47cc-821a-4146716189f1" x1="1908.52" y1="378.64" x2="2287.06" y2="757.18" xlink:href="#dddc1b9d-f8ef-4b2e-84b2-26836eed9e52"/><linearGradient id="42022212-db86-4e88-9a85-5ff9c806361d" x1="1933.32" y1="498.79" x2="2192.53" y2="757.99" xlink:href="#dddc1b9d-f8ef-4b2e-84b2-26836eed9e52"/><linearGradient id="49e195be-e61e-49b4-be38-5e9c32d739a8" x1="2019.48" y1="297.25" x2="2202.93" y2="615" xlink:href="#6ec532b0-6301-4413-837f-e932d9694459"/><linearGradient id="f7c46cc1-c91b-41da-8049-71adc5bc8468" x1="2054.63" y1="214.11" x2="2117.07" y2="322.24" gradientUnits="userSpaceOnUse"><stop offset="0" stop-color="#161659"/><stop offset="1" stop-color="#404077"/></linearGradient><linearGradient id="dcf0281c-0c39-42b1-ac76-39a80f81d228" x1="2031.38" y1="115.94" x2="2115.38" y2="261.44" xlink:href="#f7c46cc1-c91b-41da-8049-71adc5bc8468"/><linearGradient id="89a1c0e4-82ba-42e9-a746-e0177d5e6e9e" x1="1886.13" y1="232.59" x2="2218.33" y2="232.59" xlink:href="#6ec532b0-6301-4413-837f-e932d9694459"/><linearGradient id="886420e8-12fa-4118-84c2-6acfefcff512" x1="1975.86" y1="88.08" x2="2233.69" y2="341.74" xlink:href="#f7c46cc1-c91b-41da-8049-71adc5bc8468"/><linearGradient id="d24743d4-9282-4b64-a700-8b797146dfa6" x1="2306.59" y1="573.95" x2="2427.63" y2="364.31" xlink:href="#330e9e8d-8a82-42e1-9ef8-985d034c2e89"/><linearGradient id="56849270-dca4-43a8-a39d-21fc75dcf456" x1="2282.57" y1="585.56" x2="2394.27" y2="392.09" xlink:href="#330e9e8d-8a82-42e1-9ef8-985d034c2e89"/><linearGradient id="77fdab4f-e83b-4731-b6ee-36c2f494082d" x1="2253.98" y1="605.08" x2="2386.51" y2="375.53" xlink:href="#330e9e8d-8a82-42e1-9ef8-985d034c2e89"/><linearGradient id="cc163c53-5955-4e20-bab6-aa881428eda1" x1="2243.02" y1="597.06" x2="2349.04" y2="413.42" xlink:href="#330e9e8d-8a82-42e1-9ef8-985d034c2e89"/><linearGradient id="13597fc1-a17e-48f2-8cfc-2a064260cfe6" x1="1348.03" y1="-4.79" x2="1431.16" y2="139.2" xlink:href="#f716c3f0-9672-4a31-99dc-a9b1d992dbaf"/><linearGradient id="e4003580-b206-468f-ab64-dccff0e001de" x1="1437.28" y1="46.47" x2="1481.73" y2="123.48" xlink:href="#2de55d27-f2ee-4dcb-a702-7aec1bfe1f07"/><linearGradient id="60ff1d3e-bc62-4715-9c71-066acf962c98" x1="-9445.08" y1="13.28" x2="-9382.81" y2="121.13" gradientTransform="matrix(-1, 0, 0, 1, -7949.67, 0)" xlink:href="#2de55d27-f2ee-4dcb-a702-7aec1bfe1f07"/><linearGradient id="febf704a-be4c-4381-84dc-ada6d08ca8b0" x1="2183.44" y1="3636.96" x2="2219.82" y2="3573.96" gradientTransform="matrix(1, 0, 0, -1, 0, 3779.66)" gradientUnits="userSpaceOnUse"><stop offset="0" stop-color="#310387"/><stop offset="1" stop-color="#fafdff"/></linearGradient><linearGradient id="e40d91ae-a1b3-455a-89fa-9a05d4f224ae" x1="2160.32" y1="3562.43" x2="2211.58" y2="3651.22" gradientTransform="matrix(1, 0, 0, -1, 0, 3779.66)" gradientUnits="userSpaceOnUse"><stop offset="0" stop-color="#fafdff"/><stop offset="1" stop-color="#310387"/></linearGradient><linearGradient id="865f0473-2668-4061-a19c-dee385e45c9e" x1="2042.06" y1="116.61" x2="2110.73" y2="235.55" xlink:href="#f7c46cc1-c91b-41da-8049-71adc5bc8468"/><linearGradient id="9f53341d-802d-42ae-89b0-bd158908f15f" x1="1965.73" y1="173.49" x2="2184.05" y2="173.49" xlink:href="#6ec532b0-6301-4413-837f-e932d9694459"/><linearGradient id="a405084b-a028-4613-b15b-5b10324e2cd1" x1="2074.89" y1="226.1" x2="2074.89" y2="16.99" gradientUnits="userSpaceOnUse"><stop offset="0" stop-color="#00d4ff"/><stop offset="1" stop-color="#00d4ff" stop-opacity="0"/></linearGradient><linearGradient id="deaafb08-2ef8-425e-bc31-ada3def7c532" x1="2074.89" y1="211.41" x2="2074.89" y2="53.68" xlink:href="#a405084b-a028-4613-b15b-5b10324e2cd1"/><linearGradient id="5df5e677-ccd1-46ad-baa7-d83b2761f355" x1="2074.89" y1="198.13" x2="2074.89" y2="78.96" xlink:href="#a405084b-a028-4613-b15b-5b10324e2cd1"/><radialGradient id="0538631a-a599-48c7-a177-e53282297634" cx="2116" cy="69.22" r="203.12" gradientUnits="userSpaceOnUse"><stop offset="0.17" stop-color="#fff"/><stop offset="1" stop-color="#00d4ff"/></radialGradient></defs><title>hero-trial</title><g id="8e231d57-afce-42c1-aa7d-b678189e0646" data-name="Layer 1"><rect x="1162.78" y="264.23" width="2057.63" height="1034.09" style="fill:url(#19a3502d-13c0-42a8-ae07-fbcda53cb2db)"/><path d="M3812-377.59,2027.4,652.74a191.74,191.74,0,0,1-191.71,0L51.11-377.59H3812Z" style="fill:#161659"/><path d="M3812-377.59,2027.4,652.74a191.74,191.74,0,0,1-191.71,0L51.11-377.59H3812Z" style="fill:url(#592dded0-8fa5-458e-8c7d-5fbfd357b79a)"/><path d="M3812-377.59,2027.4,652.74a191.74,191.74,0,0,1-191.71,0L51.11-377.59H3812Z" style="fill:url(#ce57873a-c75d-4f83-84e1-ea41d635011d)"/><path d="M3812-434.59,2027.4,595.74a191.74,191.74,0,0,1-191.71,0L51.11-434.59H3812Z" style="fill:#161659"/><path id="0e5e3868-3da7-4fd8-9e71-b4254a0ad37d" data-name="glow" d="M3812-434.59,2027.4,595.74a191.74,191.74,0,0,1-191.71,0L51.11-434.59H3812Z" style="fill:url(#fb5eb795-04db-48aa-b686-b0984403d1d7)"/><path id="2b5aaa63-0dc6-42f6-a7d6-2f1aca03ae5e" data-name="sidelines" d="M2027.4,595.74a191.74,191.74,0,0,1-191.71,0L149.84-377.59H51.11L1835.69,652.74a191.74,191.74,0,0,0,191.71,0L3812-377.59h-98.73Z" style="fill:none;stroke:#8686a9;stroke-miterlimit:10;opacity:0.2"/><path id="9c8c7239-26d3-4508-852e-446d3d5ebf4c" data-name="grid" d="M3812-434.59,2027.4,595.74a191.74,191.74,0,0,1-191.71,0L51.11-434.59H3812Z" style="opacity:0.2;fill:url(#d4ff3c06-9537-4097-98f6-85a4533e49d9)"/><polygon id="386ba93c-a398-4452-ba0f-c25fd41fceb6" data-name="the path" points="2269.56 710.21 2143.96 637.69 2146.46 633.36 2269.56 704.43 2472.56 587.28 2477.57 584.4 4031.36 -312.25 4033.86 -307.92 2269.56 710.21" style="fill:url(#330e9e8d-8a82-42e1-9ef8-985d034c2e89)"/><polygon id="1fb157f9-5aef-44de-a32a-adb7647fb7b9" data-name="grid line" points="2844.76 -66.85 2839.76 -69.74 2202.91 297.95 1873.97 108.62 1863.95 102.83 1858.95 105.72 1734.11 177.79 1534.04 62.28 1876.9 -135.67 1871.9 -138.56 1529.04 59.39 1524.04 62.28 1455.67 101.75 1173.84 -60.96 1171.34 -56.63 1455.67 107.53 1529.04 65.17 1734.11 183.56 1863.95 108.6 2269.45 342.72 1956.71 523.28 1952.67 525.61 1956.71 527.94 2032.16 571.5 2030.94 565.02 1962.67 525.61 2274.45 345.61 2279.45 342.72 2274.45 339.83 2207.41 301.13 2844.76 -66.85" style="fill:url(#cb7789a8-ec31-4649-b111-6aad49876ce3)"/><polygon id="711e9b60-251b-4d4b-9135-79e4808db2b9" data-name="grid line" points="2844.76 -66.85 2839.76 -69.74 2202.91 297.95 1873.97 108.62 1863.95 102.83 1858.95 105.72 1734.11 177.79 1534.04 62.28 1876.9 -135.67 1871.9 -138.56 1529.04 59.39 1524.04 62.28 1455.67 101.75 1173.84 -60.96 1171.34 -56.63 1455.67 107.53 1529.04 65.17 1734.11 183.56 1863.95 108.6 2269.45 342.72 1956.71 523.28 1952.67 525.61 1956.71 527.94 2032.16 571.5 2030.94 565.02 1962.67 525.61 2274.45 345.61 2279.45 342.72 2274.45 339.83 2207.41 301.13 2844.76 -66.85" style="fill:url(#cb7789a8-ec31-4649-b111-6aad49876ce3)"/><g id="aa04df24-6c9c-4b17-9731-cf508d5c8d09" data-name="tower shadow"><polygon points="1694.58 181.18 1527.32 84.61 1563.98 63.45 1720.99 154.09 1694.58 181.18" style="fill:url(#f716c3f0-9672-4a31-99dc-a9b1d992dbaf)"/></g><g id="9b4c06c0-70f8-451c-9815-ed35400206ee" data-name="&lt;Group&gt;"><polygon points="1762.47 97.18 1740.82 109.68 1728.52 116.78 1716.23 109.68 1694.58 97.18 1728.52 77.58 1762.47 97.18" style="stroke:#1b1b5d;stroke-miterlimit:10;fill:url(#2de55d27-f2ee-4dcb-a702-7aec1bfe1f07)"/><polygon points="1762.47 97.18 1740.82 109.68 1728.52 116.78 1728.52 77.58 1762.47 97.18" style="stroke:#1b1b5d;stroke-miterlimit:10;fill:url(#3640c4bc-4a00-4984-a3b8-27cb2c408e45)"/><polygon points="1762.47 116.18 1740.82 128.68 1728.52 135.78 1716.23 128.68 1694.58 116.18 1728.52 96.58 1762.47 116.18" style="stroke:#1b1b5d;stroke-miterlimit:10;fill:url(#de81d1b1-967f-422d-8560-7f057a9a6de9)"/><polygon points="1728.52 116.78 1728.52 200.78 1694.58 181.18 1694.58 97.18 1728.52 116.78" style="stroke:#1b1b5d;stroke-miterlimit:10;fill:url(#ec51bb10-cfc5-4f72-bcef-6e33aa839004)"/><polygon points="1762.47 97.18 1762.47 181.18 1728.52 200.78 1728.52 116.78 1762.47 97.18" style="stroke:#1b1b5d;stroke-miterlimit:10;fill:url(#eb7b2c28-eae3-4ae5-ac35-c7e378594291)"/><polygon points="1728.52 159.5 1674.1 128.08 1694.24 116.46 1694.24 122.29 1684.2 128.08 1728.52 153.67 1772.85 128.08 1762.81 122.29 1762.81 116.46 1782.95 128.08 1728.52 159.5" style="fill:url(#6ec532b0-6301-4413-837f-e932d9694459)"/></g><g id="f5f5c562-582c-4426-806b-8fc2f17c4db0" data-name="tower shadow"><polygon points="2325.72 222.35 2162.95 128.37 2180.93 117.99 2336.07 207.56 2325.72 222.35" style="fill:url(#da4fed7a-2480-450f-8c50-40cd476dfca1)"/></g><g id="cd019ec9-78ac-44c6-9853-11e2debe0d5d" data-name="&lt;Group&gt;"><polygon points="2352.88 136.75 2344.22 141.65 2339.3 144.43 2334.38 141.65 2325.72 136.75 2339.3 129.07 2352.88 136.75" style="stroke:#292967;stroke-miterlimit:10;fill:url(#1fa40e16-5c8a-494f-9cc7-5612a0b68906)"/><polygon points="2339.3 144.55 2339.3 230.03 2325.72 222.35 2325.72 136.87 2339.3 144.55" style="stroke:#292967;stroke-miterlimit:10;fill:url(#6e34cd89-a561-477f-9c2e-fb7bdd50fd99)"/><polygon points="2352.88 136.87 2352.88 222.35 2339.3 230.03 2339.3 144.55 2352.88 136.87" style="stroke:#292967;stroke-miterlimit:10;fill:url(#7e2cf1fc-4e34-43de-abe1-d8cccb89e7ac)"/><polygon points="2329.63 224.79 2329.63 139.09 2334.63 141.78 2334.63 227.67 2329.63 224.79" style="fill:url(#d6d2eb94-4400-4762-ac36-47d36ce63ab4)"/><polygon points="2343.59 131.44 2329.63 139.09 2334.63 141.78 2348.59 134.33 2343.59 131.44" style="fill:url(#b58a6619-053b-4f62-8899-949252bb4432)"/><polygon points="2385.73 116.99 2377.42 121.79 2372.7 124.51 2367.97 121.79 2359.66 116.99 2372.7 109.46 2385.73 116.99" style="fill:#fff680"/><polygon points="2372.7 124.51 2372.7 139.87 2359.66 132.35 2359.66 116.99 2372.7 124.51" style="fill:#fe0"/><polygon points="2385.73 116.99 2385.73 132.35 2372.7 139.87 2372.7 124.51 2385.73 116.99" style="fill:#fffab2"/><polygon points="2318.55 117.99 2310.24 122.79 2305.52 125.51 2300.8 122.79 2292.48 117.99 2305.52 110.46 2318.55 117.99" style="fill:#80eaff"/><polygon points="2305.52 125.51 2305.52 140.87 2292.48 133.35 2292.48 117.99 2305.52 125.51" style="fill:#00d4ff"/><polygon points="2318.55 117.99 2318.55 133.35 2305.52 140.87 2305.52 125.51 2318.55 117.99" style="fill:#b2f2ff"/><polygon points="2352.73 97.65 2344.17 102.59 2339.31 105.4 2334.44 102.59 2325.88 97.65 2339.31 89.89 2352.73 97.65" style="fill:#c680ff"/><polygon points="2339.31 105.4 2339.31 121.22 2325.88 113.47 2325.88 97.65 2339.31 105.4" style="fill:#8c00ff"/><polygon points="2352.73 97.65 2352.73 113.47 2339.31 121.22 2339.31 105.4 2352.73 97.65" style="fill:#ddb2ff"/></g><g id="03e0211c-ad4a-496e-9138-154c5292c36a" data-name="tower shadow"><polygon points="2270.4 668.23 2107.63 574.25 2189.21 527.15 2331.49 609.29 2270.4 668.23" style="fill:url(#fe92519b-de7c-4c0b-ba30-7b749b224ef6)"/></g><polygon points="2406.19 538.23 2362.89 563.23 2338.29 577.43 2313.7 563.23 2270.4 538.23 2338.29 499.03 2406.19 538.23" style="stroke:#2e2e6a;stroke-miterlimit:10;fill:url(#1a67f164-21e8-4327-a701-5f8fa4bc5168)"/><polygon points="2406.19 538.23 2362.89 563.23 2338.29 577.43 2338.29 499.03 2406.19 538.23" style="stroke:#2e2e6a;stroke-miterlimit:10;fill:url(#414d960b-de75-4a90-926d-fcd3b5367072)"/><polygon points="2406.19 568.23 2362.89 593.23 2338.29 607.43 2313.7 593.23 2270.4 568.23 2338.29 529.03 2406.19 568.23" style="stroke:#2e2e6a;stroke-miterlimit:10;fill:url(#363d1a41-89aa-40f1-bb70-53e7c9183577)"/><polygon points="2338.29 577.43 2338.29 707.43 2270.4 668.23 2270.4 538.23 2338.29 577.43" style="stroke:#2e2e6a;stroke-miterlimit:10;fill:url(#07b84e29-42c6-4327-be22-636964e236bb)"/><polygon points="2406.19 538.23 2406.19 668.23 2338.29 707.43 2338.29 577.43 2406.19 538.23" style="stroke:#2e2e6a;stroke-miterlimit:10;fill:url(#340a3d4b-5971-4ad7-b3d3-9768f02d8b8a)"/><path d="M2405.85,657l-67.29,38.83-67.82-39.15v-5.75l67.82,39.16,67.29-38.84Zm0,7.19L2338.56,703l-67.82-39.15v5.74l67.82,39.16,67.29-38.84Z" style="fill:url(#a51167dd-a930-4850-b15c-a1dbad19c691)"/><g id="1a7a726e-aab4-45e9-a25c-7b4447fa20bb" data-name="tower shadow"><polygon points="2008.52 581.8 1845.75 487.83 1949.68 427.82 2091.95 509.96 2008.52 581.8" style="fill:url(#bfcffdc5-b805-4bdd-b376-5f6a90a79ac3)"/></g><path d="M2011.1,317.38c-.45-.95-.89-1.89-1.3-2.83" style="fill:none;stroke:#000;stroke-miterlimit:10;stroke-width:0.25px"/><path d="M2146.64,383.91c-.29-.58-.56-1.16-.83-1.74C2120.2,330.7,2037.4,269,2011.12,214.42c5.9,13.73,5.8,28.29,3.55,40.82-.44,2.47-1,4.85-1.55,7.14a115.2,115.2,0,0,1-3.8,12.12c-.67,1.82-1.35,3.5-2,5a89.71,89.71,0,0,1-4.25,8.83h0c.3,8.47,2.71,17.23,6.73,26.19.47.94.9,1.88,1.3,2.83a.05.05,0,0,0,0,0c26.88,55.78,108.49,115.09,134.69,167.75-5.68-12.49-6.28-25.73-4.72-37.56.35-2.66.81-5.23,1.34-7.72h0a111,111,0,0,1,3.67-13.1c.68-2,1.38-3.82,2.06-5.51a95,95,0,0,1,5.25-11.23C2153.41,401.72,2150.94,393,2146.64,383.91Z" style="stroke:#5e5e8d;stroke-miterlimit:10;stroke-width:0.5px;fill:url(#dddc1b9d-f8ef-4b2e-84b2-26836eed9e52)"/><path d="M2146.64,486.91c-.29-.58-.56-1.16-.83-1.74C2120.2,433.7,2037.4,372,2011.12,317.42c4.05,2.59,4.46,21.15,3.41,41.57a34.67,34.67,0,0,1-1.58,7.06h0a115,115,0,0,1-3.83,12c-.68,1.8-1.35,3.45-2,4.93a88.41,88.41,0,0,1-4.1,8.45c0,8.32,2.46,17.06,6.77,26.13q.26.51.48,1c.06.11.11.22.16.33,25.38,51.62,108.7,113.65,134.9,168.39-5.21-12-5.82-24.57-4.4-35.93.33-2.68.77-5.29,1.3-7.8a110.89,110.89,0,0,1,3.64-13.23c.68-2,1.38-3.86,2.06-5.56a98.09,98.09,0,0,1,5.47-11.73C2153.41,504.72,2150.94,496,2146.64,486.91Z" style="stroke:#5e5e8d;stroke-miterlimit:10;stroke-width:0.5px;fill:url(#42802735-d5db-4631-94bb-ec6518edf2b6)"/><path d="M2013.45,116c3.64,12.28,3.08,24.86,1,35.77h0c-.47,2.42-1,4.75-1.62,7a115.65,115.65,0,0,1-3.84,11.87c-.68,1.78-1.36,3.41-2,4.87a86.74,86.74,0,0,1-3.93,8.05c0,9.92,3,20.24,8.07,30.83l0,0C2037.4,269,2120.2,330.7,2145.81,382.17c-5.68-12.49-6.28-25.73-4.72-37.56.35-2.66.81-5.23,1.34-7.72h0a111,111,0,0,1,3.67-13.1c.68-2,1.38-3.82,2.06-5.51a95,95,0,0,1,5.25-11.23C2153.41,252.53,2047.5,179.75,2013.45,116Z" style="stroke:#5e5e8d;stroke-miterlimit:10;stroke-width:0.5px;fill:url(#0d0a2f0c-f4b9-437f-bec8-93949a7088fd)"/><path d="M2146.55,589.91l0-.06c-.42-.85-.82-1.7-1.18-2.56-26.2-54.74-109.52-116.77-134.9-168.39,6.33,13.64,6.55,28.21,4.48,40.87h0c-.41,2.49-.91,4.92-1.47,7.24h0a114,114,0,0,1-3.72,12.39c-.68,1.86-1.36,3.58-2,5.15a93.22,93.22,0,0,1-4.69,9.85c0,8.13,2.36,16.67,6.49,25.53,18.65,40,73.36,86.55,109.69,131.06a81.25,81.25,0,0,0,16.51-7.76,54.22,54.22,0,0,0,4.47-3.11,41.34,41.34,0,0,0,7.17-6.87,29.64,29.64,0,0,0,2.63-3.79h0a22.53,22.53,0,0,0,3.31-11.56C2153.3,608.88,2150.84,599.51,2146.55,589.91Z" style="stroke:#5e5e8d;stroke-miterlimit:10;stroke-width:0.5px;fill:url(#2ddb71a1-66c6-47cc-821a-4146716189f1)"/><path d="M2009.52,520c3.94,10.62,4.52,22.41,3.76,32.75-.2,2.86-.51,5.63-.88,8.29-.75,5.46-1.75,10.43-2.61,14.58h0c-.49,2.36-.94,4.46-1.27,6.23a52.53,52.53,0,0,0,7.29,5.43,78,78,0,0,0,13.45,6.65l0,13.48h0l0,10,.11,32.55a123.8,123.8,0,0,0,34.14,7.41c3.21.27,6.49.43,9.82.48l2.36,0a150.28,150.28,0,0,0,15.8-.83c2.81-.3,5.57-.68,8.26-1.14a118,118,0,0,0,19.38-4.89C2082.88,606.5,2028.17,560,2009.52,520Z" style="stroke:#5e5e8d;stroke-miterlimit:10;stroke-width:0.5px;fill:url(#42022212-db86-4e88-9a85-5ff9c806361d)"/><path d="M2014.23,277.49c-1.25-2.23-2.46-4.51-3.57-6.77.68-2,1.35-4.21,2-6.49l.86,1.67c13.9,26.93,41.33,55.87,67.86,83.86,26.34,27.79,51.25,54.07,64.2,78.71-.68,2.07-1.33,4.27-1.94,6.58l-.16-.29c-12.94-24.24-37.53-50.17-63.55-77.63C2054.79,330.66,2028.84,303.28,2014.23,277.49Zm-.75,89.41-.49-1,0,.12h0c-.58,2.26-1.22,4.42-1.88,6.46,1,2,2,4,3.16,6,14.61,25.79,40.56,53.17,65.66,79.64,26,27.46,50.61,53.39,63.55,77.63l.48.9c.62-2.23,1.29-4.35,2-6.33,0-.05,0-.09,0-.13-12.85-24.84-38-51.37-64.59-79.44S2027.38,393.83,2013.48,366.9Zm-2.79-201.13c1.11,2.25,2.3,4.51,3.54,6.72,14.61,25.79,40.56,53.17,65.66,79.64,26,27.46,50.61,53.39,63.55,77.63l.51.95c.63-2.27,1.31-4.44,2-6.47-12.84-24.85-38-51.4-64.61-79.48s-54-56.93-67.86-83.86l-.83-1.62C2012,161.56,2011.37,163.73,2010.69,165.77ZM2147,633.69l-.6-.61c-12.7-25.09-38.13-51.92-65-80.32-26.53-28-54-56.93-67.86-83.86l-.34-.66c-.58,2.33-1.22,4.55-1.88,6.65,1,1.88,1.93,3.76,3,5.6,14.61,25.79,40.56,53.17,65.66,79.64,25.94,27.37,50.44,53.22,63.42,77.39A37.63,37.63,0,0,0,2147,633.69Z" style="fill:url(#49e195be-e61e-49b4-be38-5e9c32d739a8)"/><g style="opacity:0.2"><path d="M2388.39,678.12a4.91,4.91,0,0,0,.15-.51" style="fill:none;stroke:#000;stroke-miterlimit:10;stroke-width:0.25px"/><path d="M2351.37,564.31l.06-.22.09-.41" style="fill:none;stroke:#000;stroke-miterlimit:10;stroke-width:0.25px"/><path d="M2388.39,678.12a4.91,4.91,0,0,0,.15-.51" style="fill:none;stroke:#000;stroke-miterlimit:10;stroke-width:0.25px"/><path d="M2351.37,564.31l.06-.22.09-.41" style="fill:none;stroke:#000;stroke-miterlimit:10;stroke-width:0.25px"/><path d="M2351.37,564.31l.06-.22.09-.41" style="fill:none;stroke:#000;stroke-miterlimit:10;stroke-width:0.25px"/><path d="M2388.54,677.61a4.91,4.91,0,0,1-.15.51" style="fill:none;stroke:#000;stroke-miterlimit:10;stroke-width:0.25px"/><path d="M2388.39,678.12a4.91,4.91,0,0,0,.15-.51" style="fill:none;stroke:#000;stroke-miterlimit:10;stroke-width:0.25px"/><path d="M2351.37,564.31l.06-.22.09-.41" style="fill:none;stroke:#000;stroke-miterlimit:10;stroke-width:0.25px"/><path d="M2388.39,678.12a4.91,4.91,0,0,0,.15-.51" style="fill:none;stroke:#000;stroke-miterlimit:10;stroke-width:0.25px"/><path d="M2168.56,203.87c-19.16,16.82-53.81,28-93.37,28-40,0-75-11.49-94-28.64a70.74,70.74,0,0,1,11-11.44c9-7.5,20.27-13.73,33.22-18.24a155.26,155.26,0,0,1,98.39,0c13,4.51,24.28,10.74,33.23,18.24A71.44,71.44,0,0,1,2168.56,203.87Z" style="fill:none;stroke:#000;stroke-miterlimit:10;stroke-width:0.25px"/><path d="M2168.56,203.87c-19.16,16.82-53.81,28-93.37,28-40,0-75-11.49-94-28.64a70.74,70.74,0,0,1,11-11.44c9-7.5,20.27-13.73,33.22-18.24a155.26,155.26,0,0,1,98.39,0c13,4.51,24.28,10.74,33.23,18.24A71.44,71.44,0,0,1,2168.56,203.87Z" style="fill:none;stroke:#000;stroke-miterlimit:10;stroke-width:0.25px"/></g><path d="M2176.58,247.71c-10.12,30.53-51.92,53.42-101.95,53.42-50.55,0-92.7-23.36-102.26-54.37,24,16.19,61.14,26.58,102.82,26.58,38.58,0,73.28-8.9,97.26-23.07h0l.23-.13h0Q2174.69,248.94,2176.58,247.71Z" style="stroke:#292967;stroke-miterlimit:10;stroke-width:0.5px;fill:url(#f7c46cc1-c91b-41da-8049-71adc5bc8468)"/><path d="M2206.26,191.84c0,8.78-3,17.21-8.59,25a75.47,75.47,0,0,1-18.76,17.82c-24,16.55-61.52,27.2-103.72,27.2-42.87,0-80.93-11-104.85-28a74.59,74.59,0,0,1-17.63-17,50.14,50.14,0,0,1-4.88-8.4,39,39,0,0,1-.37-32.33h0a57.62,57.62,0,0,1,14.08-19.13h0a101.12,101.12,0,0,1,22.08-15.18h0c-1.1.9-2.16,1.82-3.17,2.76h0a47.85,47.85,0,0,0-11.73,15.94h0A33,33,0,0,0,1966,173.6v9.6a32,32,0,0,0,1.2,8.64,35.55,35.55,0,0,0,1.89,5.16,40.88,40.88,0,0,0,4.07,7,51.5,51.5,0,0,0,4.13,5c17.84,19.25,55,32.48,97.93,32.48,42.39,0,79.13-12.89,97.24-31.74a52.28,52.28,0,0,0,4.83-5.78,41.48,41.48,0,0,0,4.06-7,35.55,35.55,0,0,0,1.89-5.16,32,32,0,0,0,1.2-8.64v-9.6a33,33,0,0,0-2.78-13.14h0a47.85,47.85,0,0,0-11.73-15.94h0q-1.51-1.41-3.18-2.76h0a101.36,101.36,0,0,1,22.08,15.18h0a57.48,57.48,0,0,1,14.08,19.13h0A39.52,39.52,0,0,1,2206.26,191.84Z" style="stroke:#292967;stroke-miterlimit:10;stroke-width:0.5px;fill:url(#dcf0281c-0c39-42b1-ac76-39a80f81d228)"/><path d="M2206.26,191.84v11.52a39.69,39.69,0,0,1-3.71,16.56,49.46,49.46,0,0,1-4.88,8.4c-5.07,7.09-12.23,13.62-21.09,19.39q-1.89,1.23-3.89,2.41l.09-.11-.32.25h0c-24,14.17-58.68,23.07-97.26,23.07-41.68,0-78.82-10.39-102.82-26.58a76.44,76.44,0,0,1-19.66-18.44,50.14,50.14,0,0,1-4.88-8.4,39.68,39.68,0,0,1-3.7-16.56V191.84a39.68,39.68,0,0,0,3.7,16.56,50.14,50.14,0,0,0,4.88,8.4,74.59,74.59,0,0,0,17.63,17c23.92,17,62,28,104.85,28,42.2,0,79.75-10.65,103.72-27.2a75.47,75.47,0,0,0,18.76-17.82C2203.22,209.05,2206.26,200.62,2206.26,191.84Z" style="fill:url(#89a1c0e4-82ba-42e9-a746-e0177d5e6e9e)"/><path d="M2179,191.84c-.53.86-1.1,1.72-1.7,2.56a56.26,56.26,0,0,1-8.7,9.47c-19.16,16.82-53.81,28-93.37,28-40,0-75-11.49-94-28.64a55.51,55.51,0,0,1-8-8.88c-.61-.84-1.18-1.7-1.71-2.56a41.31,41.31,0,0,1-2.36-4.44,33,33,0,0,1-3.09-13.8v9.6a32,32,0,0,0,1.2,8.64,35.55,35.55,0,0,0,1.89,5.16,40.88,40.88,0,0,0,4.07,7,51.5,51.5,0,0,0,4.13,5c17.84,19.25,55,32.48,97.93,32.48,42.39,0,79.13-12.89,97.24-31.74a52.28,52.28,0,0,0,4.83-5.78,41.48,41.48,0,0,0,4.06-7,35.55,35.55,0,0,0,1.89-5.16,32,32,0,0,0,1.2-8.64v-9.6A34.5,34.5,0,0,1,2179,191.84Z" style="stroke:#45457a;stroke-miterlimit:10;stroke-width:0.25px;fill:url(#886420e8-12fa-4118-84c2-6acfefcff512)"/><polygon points="2270.4 519.03 2338.29 558.23 2406.19 519.03 2338.29 479.82 2270.4 519.03" style="fill:url(#d24743d4-9282-4b64-a700-8b797146dfa6)"/><polygon points="2283.98 489.03 2338.3 520.39 2392.61 489.03 2338.3 457.67 2283.98 489.03" style="fill:url(#56849270-dca4-43a8-a39d-21fc75dcf456)"/><polygon points="2294.85 459.03 2338.3 484.12 2381.75 459.03 2338.3 433.94 2294.85 459.03" style="fill:url(#77fdab4f-e83b-4731-b6ee-36c2f494082d)"/><polygon points="2303.54 432.03 2338.3 452.1 2373.06 432.03 2338.3 411.95 2303.54 432.03" style="fill:url(#cc163c53-5955-4e20-bab6-aa881428eda1)"/><polygon points="1456.76 87.55 1454.83 88.67 1322.2 10.12 1290.5 28.43 1424.83 105.98 1456.76 124.42 1488.69 105.98 1456.76 87.55" style="fill:url(#13597fc1-a17e-48f2-8cfc-2a064260cfe6)"/><polygon points="1456.76 53.9 1456.76 117.81 1489.32 99.02 1456.76 53.9" style="stroke:#1b1b5d;stroke-miterlimit:10;fill:url(#e4003580-b206-468f-ab64-dccff0e001de)"/><polygon points="1456.76 53.9 1456.76 117.81 1424.2 99.02 1456.76 53.9" style="stroke:#1b1b5d;stroke-miterlimit:10;fill:url(#60ff1d3e-bc62-4715-9c71-066acf962c98)"/><g id="69713e4a-345f-42f8-8eaf-e2c1072d044c" data-name="700ae341-8bdd-4edd-986e-4d6ca5c4bc30"><polygon points="2193.65 139.07 2194.48 139.54 2195.29 140.02 2195.29 140.99 2195.29 180.72 2194.48 181.21 2193.65 181.69 2192.83 181.21 2192 180.72 2192 140.99 2192 140.02 2192.83 139.54 2193.65 139.07" style="fill:url(#febf704a-be4c-4381-84dc-ada6d08ca8b0)"/><path d="M2193.68,139.08l-.83.48-.82.48v40.69l.82.49.83.48Z" style="fill:url(#e40d91ae-a1b3-455a-89fa-9a05d4f224ae)"/><polygon points="2193.65 139.07 2195.29 139.99 2193.65 140.93 2192 139.99 2193.65 139.07" style="fill:#f9e3e9"/><polygon points="2192.03 128.47 2194.58 126.99 2201.52 130.99 2198.96 132.47 2192.03 128.47" style="fill:#4ae1ff"/><polygon points="2192.03 128.47 2198.96 132.47 2198.93 146.43 2191.99 142.43 2192.03 128.47" style="fill:#00d4ff"/><polygon points="2198.96 132.47 2201.52 130.99 2208.47 135 2205.9 136.49 2198.96 132.47" style="fill:#fff899"/><polygon points="2205.9 136.49 2208.47 135 2208.42 148.97 2205.86 150.45 2205.9 136.49" style="fill:#fae8ed"/><polygon points="2198.96 132.47 2205.9 136.49 2205.86 150.45 2198.93 146.43 2198.96 132.47" style="fill:#fe0"/><polygon points="2205.9 136.49 2208.47 135 2215.41 139.01 2212.85 140.5 2205.9 136.49" style="fill:#d199ff"/><polygon points="2212.85 140.5 2215.41 139.01 2215.37 152.97 2212.8 154.46 2212.85 140.5" style="fill:#d199ff"/><polygon points="2205.9 136.49 2212.85 140.5 2212.8 154.46 2205.86 150.45 2205.9 136.49" style="fill:#8c00ff"/></g><ellipse cx="2074.89" cy="173.49" rx="109.49" ry="61.08" style="stroke:#45457a;stroke-miterlimit:10;stroke-width:0.25px;fill:url(#865f0473-2668-4061-a19c-dee385e45c9e)"/><path d="M2074.89,234.6c-60.19,0-109.16-27.41-109.16-61.11s49-61.12,109.16-61.12,109.16,27.42,109.16,61.12S2135.08,234.6,2074.89,234.6Zm0-121.24c-59.64,0-108.17,27-108.17,60.13s48.53,60.12,108.17,60.12,108.17-27,108.17-60.12S2134.54,113.36,2074.89,113.36Z" style="fill:url(#9f53341d-802d-42ae-89b0-bd158908f15f)"/><path d="M2171,172.49c0,29.61-43,53.61-96.11,53.61s-96.11-24-96.11-53.61V17H2171Z" style="fill-opacity:0.4;fill:url(#a405084b-a028-4613-b15b-5b10324e2cd1)"/><ellipse cx="2074.89" cy="172.49" rx="96.11" ry="53.62" style="fill:#00d4ff;opacity:0.1"/><path d="M2148.42,170.39c0,22.65-32.92,41-73.53,41s-73.52-18.37-73.52-41V53.68h147.05Z" style="fill-opacity:0.4;fill:url(#deaafb08-2ef8-425e-bc31-ada3def7c532)"/><ellipse cx="2074.89" cy="170.39" rx="73.52" ry="41.02" style="fill:#00d4ff;opacity:0.1"/><path d="M2130.44,167.14c0,17.12-24.87,31-55.55,31s-55.55-13.87-55.55-31V79h111.1Z" style="fill-opacity:0.4;fill:url(#5df5e677-ccd1-46ad-baa7-d83b2761f355)"/><ellipse cx="2074.89" cy="167.14" rx="55.55" ry="30.99" style="fill:#00d4ff;opacity:0.1"/><path d="M2074.15,120a21.62,21.62,0,1,1-21.61-21.62A21.62,21.62,0,0,1,2074.15,120Zm18.39-43a13,13,0,1,0,13,13A13,13,0,0,0,2092.54,77Zm-40-14.18a4.15,4.15,0,1,0,4.15,4.15A4.15,4.15,0,0,0,2052.54,62.84Zm70,48a5.19,5.19,0,1,0,5.18,5.19A5.19,5.19,0,0,0,2122.54,110.8Zm-20,27.54a8.65,8.65,0,1,0,8.64,8.65A8.65,8.65,0,0,0,2102.54,138.34Zm-50,25.19A3.46,3.46,0,1,0,2056,167,3.46,3.46,0,0,0,2052.54,163.53Z" style="fill:url(#0538631a-a599-48c7-a177-e53282297634)"/></g></svg>