<svg xmlns="http://www.w3.org/2000/svg" xmlns:xlink="http://www.w3.org/1999/xlink" viewBox="0 0 1295.6 382.77"><defs><clipPath id="0c94449f-24a8-478e-a157-9304395bd800"><polygon id="73e7dc97-527c-49a9-94f5-8601f55daff5" data-name="top layer" points="1108.22 -1541.53 -772.21 -455.86 -2652.65 -1541.53 500.27 -1541.53 1108.22 -1541.53" style="fill:none"/></clipPath><linearGradient id="5d263d19-b691-48a5-b3a0-e1a7b7736c53" x1="-1266.53" y1="-2250.97" x2="817.91" y2="1359.39" gradientUnits="userSpaceOnUse"><stop offset="0" stop-color="#82d5ff"/><stop offset="1" stop-color="#00a1ff"/></linearGradient><linearGradient id="ce34ef29-64b6-43a7-a726-ca124a194c5a" x1="197.45" y1="259.61" x2="36.99" y2="-18.32" gradientUnits="userSpaceOnUse"><stop offset="0" stop-color="#3d5ad1"/><stop offset="1" stop-color="#3d5ad1" stop-opacity="0"/></linearGradient></defs><title>hero-bottom</title><g id="6d525f67-0a16-42dc-a756-c5035397bfd4" data-name="Layer 1"><path d="M18.18,189.13a301.32,301.32,0,0,1,301.36,0l197.4,114a561.32,561.32,0,0,0,560.15.68L1295.6,178.32V0H0V199.62Z" style="fill:#eff2fb"/><g id="fe87e1dc-03e8-4d05-ac8e-a09c7b1b2108" data-name="top layer"><g style="clip-path:url(#0c94449f-24a8-478e-a157-9304395bd800)"><g id="1434b13c-63b5-4d21-a800-7907bc746fec" data-name="grid top"><line x1="2079.8" y1="-1004.5" x2="-1246.09" y2="915.7" style="fill:none;stroke:#eceffa;stroke-miterlimit:10"/><line x1="2079.8" y1="-1082.9" x2="-1246.09" y2="837.3" style="fill:none;stroke:#eceffa;stroke-miterlimit:10"/><line x1="2079.8" y1="-1161.3" x2="-1246.09" y2="758.9" style="fill:none;stroke:#eceffa;stroke-miterlimit:10"/><line x1="2079.8" y1="-1239.7" x2="-1246.09" y2="680.5" style="fill:none;stroke:#eceffa;stroke-miterlimit:10"/><line x1="2079.8" y1="-1318.1" x2="-1246.09" y2="602.1" style="fill:none;stroke:#eceffa;stroke-miterlimit:10"/><line x1="2079.8" y1="-1396.5" x2="-1246.09" y2="523.7" style="fill:none;stroke:#eceffa;stroke-miterlimit:10"/><line x1="2079.8" y1="-1474.9" x2="-1246.09" y2="445.3" style="fill:none;stroke:#eceffa;stroke-miterlimit:10"/><line x1="2079.8" y1="-1553.3" x2="-1246.09" y2="366.9" style="fill:none;stroke:#eceffa;stroke-miterlimit:10"/><line x1="2079.8" y1="-1631.7" x2="-1246.09" y2="288.5" style="fill:none;stroke:#eceffa;stroke-miterlimit:10"/><line x1="2079.8" y1="-1710.1" x2="-1246.09" y2="210.1" style="fill:none;stroke:#eceffa;stroke-miterlimit:10"/><line x1="2079.8" y1="-1788.5" x2="-1246.09" y2="131.7" style="fill:none;stroke:#eceffa;stroke-miterlimit:10"/><line x1="2079.8" y1="-1866.9" x2="-1246.09" y2="53.3" style="fill:none;stroke:#eceffa;stroke-miterlimit:10"/><line x1="-97.48" y1="-1242.35" x2="2079.8" y2="14.7" style="fill:none;stroke:#eceffa;stroke-miterlimit:10"/><line x1="-1722.27" y1="-1161.23" x2="1260.85" y2="561.08" style="fill:none;stroke:#eceffa;stroke-miterlimit:10"/><line x1="-1722.27" y1="-1239.63" x2="1260.85" y2="482.68" style="fill:none;stroke:#eceffa;stroke-miterlimit:10"/><line x1="-1722.27" y1="-1318.03" x2="1260.85" y2="404.28" style="stroke:#eceffa;stroke-miterlimit:10;fill:url(#5d263d19-b691-48a5-b3a0-e1a7b7736c53)"/><line x1="-1722.27" y1="-1396.43" x2="1260.85" y2="325.88" style="fill:none;stroke:#eceffa;stroke-miterlimit:10"/><line x1="-916.43" y1="-1009.58" x2="1260.85" y2="247.48" style="fill:none;stroke:#eceffa;stroke-miterlimit:10"/><line x1="-916.43" y1="-1087.98" x2="1260.85" y2="169.08" style="fill:none;stroke:#eceffa;stroke-miterlimit:10"/><line x1="-916.43" y1="-1166.38" x2="1260.85" y2="90.68" style="fill:none;stroke:#eceffa;stroke-miterlimit:10"/><line x1="-916.43" y1="-1244.78" x2="1260.85" y2="12.28" style="fill:none;stroke:#eceffa;stroke-miterlimit:10"/><line x1="-916.43" y1="244.82" x2="1260.85" y2="1501.88" style="fill:none;stroke:#eceffa;stroke-miterlimit:10"/><line x1="-916.43" y1="166.42" x2="1260.85" y2="1423.48" style="fill:none;stroke:#eceffa;stroke-miterlimit:10"/><line x1="-916.43" y1="88.02" x2="1260.85" y2="1345.08" style="fill:none;stroke:#eceffa;stroke-miterlimit:10"/><line x1="-916.43" y1="9.62" x2="1260.85" y2="1266.68" style="fill:none;stroke:#eceffa;stroke-miterlimit:10"/><line x1="-916.43" y1="-68.78" x2="1260.85" y2="1188.28" style="fill:none;stroke:#eceffa;stroke-miterlimit:10"/><line x1="-916.43" y1="-147.18" x2="1260.85" y2="1109.88" style="fill:none;stroke:#eceffa;stroke-miterlimit:10"/><line x1="-916.43" y1="-225.58" x2="1260.85" y2="1031.48" style="fill:none;stroke:#eceffa;stroke-miterlimit:10"/><line x1="-916.43" y1="-303.98" x2="1260.85" y2="953.08" style="fill:none;stroke:#eceffa;stroke-miterlimit:10"/><line x1="-916.43" y1="-382.38" x2="1260.85" y2="874.68" style="fill:none;stroke:#eceffa;stroke-miterlimit:10"/><line x1="-916.43" y1="-460.78" x2="1260.85" y2="796.28" style="fill:none;stroke:#eceffa;stroke-miterlimit:10"/><line x1="-1859.87" y1="-1083.87" x2="1260.85" y2="717.88" style="fill:none;stroke:#eceffa;stroke-miterlimit:10"/><line x1="-1722.27" y1="-1082.83" x2="1260.85" y2="639.48" style="fill:none;stroke:#eceffa;stroke-miterlimit:10"/></g></g></g><path d="M319.54,189.13.05,3l0,196.6,18.15-10.48A301.32,301.32,0,0,1,319.54,189.13Z" style="fill:url(#ce34ef29-64b6-43a7-a726-ca124a194c5a)"/></g></svg>