<svg xmlns="http://www.w3.org/2000/svg" xmlns:xlink="http://www.w3.org/1999/xlink" viewBox="0 0 1295.72 672.41"><defs><clipPath id="3ebd53a1-6b10-4137-9b0f-07dd890c8b1b"><path d="M1379.06-37.58,744.2,328.11l413.26,235.72L1722,234.44c125.18-72.27,56.25-140.86-68.93-213.13L1552.82-36.58C1494.73-70.12,1437.15-71.12,1379.06-37.58Z" style="fill:none"/></clipPath><clipPath id="07be9f54-9af1-4c49-8f8c-047f6b02ca8c"><rect x="1294.87" y="-102.47" width="136.92" height="78.29" style="fill:none"/></clipPath><clipPath id="b08175ca-755d-4103-bc48-59cc92df66f3"><rect x="1294.87" y="-24.18" width="136.92" height="78.29" style="fill:none"/></clipPath><clipPath id="4057dba4-c4b1-438f-8f60-bf65f512907d"><rect x="1294.87" y="54.11" width="136.92" height="78.29" style="fill:none"/></clipPath><clipPath id="580579f0-3c16-4dd6-8615-de539cbe12df"><rect x="1294.87" y="132.39" width="136.92" height="78.29" style="fill:none"/></clipPath><clipPath id="0e268316-eff7-492f-a4c8-30eaf3882def"><rect x="1294.87" y="210.68" width="136.92" height="78.29" style="fill:none"/></clipPath><clipPath id="e417746a-2239-4e8f-b28e-f60ba9d5c035"><rect x="1294.87" y="288.96" width="136.92" height="78.29" style="fill:none"/></clipPath><clipPath id="117dd20a-da9c-4515-b1d2-2ba9bb7ed28e"><rect x="1294.87" y="367.25" width="136.92" height="78.29" style="fill:none"/></clipPath><clipPath id="2d60bd84-5bb0-458e-a930-36f9b8b19763"><rect x="1294.87" y="445.54" width="136.92" height="78.29" style="fill:none"/></clipPath><clipPath id="775816db-371b-4ba7-b670-1a8a2ec67dfd"><rect x="1294.87" y="523.82" width="136.92" height="78.29" style="fill:none"/></clipPath><clipPath id="d9e9275b-c993-4cdf-82d1-53b38321cee4"><rect x="1157.95" y="-102.47" width="136.92" height="78.29" style="fill:none"/></clipPath><clipPath id="4d956053-6432-4f62-bb8c-ded9bceb48d8"><rect x="1157.95" y="-24.18" width="136.92" height="78.29" style="fill:none"/></clipPath><clipPath id="9f729a62-937b-4de0-b9f8-0f8d1d839d95"><rect x="1157.95" y="54.11" width="136.92" height="78.29" style="fill:none"/></clipPath><clipPath id="bf0a2052-89ac-4a9b-b09a-a12cd3dbcd6f"><rect x="1157.95" y="132.39" width="136.92" height="78.29" style="fill:none"/></clipPath><clipPath id="127cc59e-512f-47d8-bb09-224f03ff7827"><rect x="1157.95" y="210.68" width="136.92" height="78.29" style="fill:none"/></clipPath><clipPath id="49900fbc-ab21-4c80-a74c-2c01e55b46eb"><rect x="1157.95" y="288.96" width="136.92" height="78.29" style="fill:none"/></clipPath><clipPath id="236440e8-c5dd-47c6-b5f4-045d6bf0e48c"><rect x="1157.95" y="367.25" width="136.92" height="78.29" style="fill:none"/></clipPath><clipPath id="11c7f500-100b-4846-bfbc-dabfbf6db79e"><rect x="1157.95" y="445.54" width="136.92" height="78.29" style="fill:none"/></clipPath><clipPath id="b863d9ff-4d66-4e51-89cd-2797ee5ccef1"><rect x="1157.95" y="523.82" width="136.92" height="78.29" style="fill:none"/></clipPath><clipPath id="e711587f-a091-4032-bd70-eb2dbe883a6d"><rect x="1021.03" y="-102.47" width="136.92" height="78.29" style="fill:none"/></clipPath><clipPath id="eacdd13f-619f-4850-9a21-fda9a4008319"><rect x="1021.03" y="-24.18" width="136.92" height="78.29" style="fill:none"/></clipPath><clipPath id="48db8600-dddf-40da-b8e4-4e0a837f3e68"><rect x="1021.03" y="54.11" width="136.92" height="78.29" style="fill:none"/></clipPath><clipPath id="139ed3b8-9ad6-41cd-ad82-501972e1d4a9"><rect x="1021.03" y="132.39" width="136.92" height="78.29" style="fill:none"/></clipPath><clipPath id="2a3dcbdb-5bfc-4fe8-b59c-3ce3306307f3"><rect x="1021.03" y="210.68" width="136.92" height="78.29" style="fill:none"/></clipPath><clipPath id="8d1b721f-62c8-43e0-821f-d45c2f5df558"><rect x="1021.03" y="288.96" width="136.92" height="78.29" style="fill:none"/></clipPath><clipPath id="e1b4d80e-8638-4505-bc0c-6a558e7f224c"><rect x="1021.03" y="367.25" width="136.92" height="78.29" style="fill:none"/></clipPath><clipPath id="4b74306f-dbbb-4409-8eb4-ff075fed3d05"><rect x="1021.03" y="445.54" width="136.92" height="78.29" style="fill:none"/></clipPath><clipPath id="8d6477df-a72d-498f-b3fc-4d364cbe5bdc"><rect x="1021.03" y="523.82" width="136.92" height="78.29" style="fill:none"/></clipPath><clipPath id="4c83aae0-f197-457b-84cb-43bbd3d0269e"><rect x="884.11" y="-102.47" width="136.92" height="78.29" style="fill:none"/></clipPath><clipPath id="782721e2-caad-47ce-88c3-0a72a8bcb653"><rect x="884.11" y="-24.18" width="136.92" height="78.29" style="fill:none"/></clipPath><clipPath id="2456f3c8-d466-4072-9df8-06c6b9096b04"><rect x="884.11" y="54.11" width="136.92" height="78.29" style="fill:none"/></clipPath><clipPath id="78b113d7-e5d7-4202-a13a-01f8ee2386d7"><rect x="884.11" y="132.39" width="136.92" height="78.29" style="fill:none"/></clipPath><clipPath id="a777ff3a-3fc4-4f2f-8320-7268a08b5498"><rect x="884.11" y="210.68" width="136.92" height="78.29" style="fill:none"/></clipPath><clipPath id="470f1e7e-0b12-468e-9a16-742b25d7b7b4"><rect x="884.11" y="288.96" width="136.92" height="78.29" style="fill:none"/></clipPath><clipPath id="4f5fbe34-b382-4b0c-8629-a0baee07cc6d"><rect x="884.11" y="367.25" width="136.92" height="78.29" style="fill:none"/></clipPath><clipPath id="73678d47-e6e9-411f-a737-b4334716290f"><rect x="884.11" y="445.54" width="136.92" height="78.29" style="fill:none"/></clipPath><clipPath id="41bc4223-e581-43ff-b71f-df21e959bee0"><rect x="884.11" y="523.82" width="136.92" height="78.29" style="fill:none"/></clipPath><clipPath id="bdfd789a-5321-4533-903e-1f1d667be5d3"><rect x="747.19" y="-102.47" width="136.92" height="78.29" style="fill:none"/></clipPath><clipPath id="64a7e0e0-7650-4bb6-91bb-8487ef585b64"><rect x="747.19" y="-24.18" width="136.92" height="78.29" style="fill:none"/></clipPath><clipPath id="098788ac-a871-47c5-b74e-23190416c7ae"><rect x="747.19" y="54.11" width="136.92" height="78.29" style="fill:none"/></clipPath><clipPath id="466289ad-cae0-440f-b45a-0462f586c081"><rect x="747.19" y="132.39" width="136.92" height="78.29" style="fill:none"/></clipPath><clipPath id="e995f515-3d3a-4879-ad8d-34264084fc2e"><rect x="747.19" y="210.68" width="136.92" height="78.29" style="fill:none"/></clipPath><clipPath id="0b0f0771-57cd-4f80-b1d0-74dddcae2c9e"><rect x="747.19" y="288.96" width="136.92" height="78.29" style="fill:none"/></clipPath><clipPath id="bd91c38c-c2f2-4760-8e17-794460daf1b7"><rect x="747.19" y="367.25" width="136.92" height="78.29" style="fill:none"/></clipPath><clipPath id="707dd6e9-504e-4aba-a5f3-6e9b6728b72d"><rect x="747.19" y="445.54" width="136.92" height="78.29" style="fill:none"/></clipPath><clipPath id="65959786-d972-41c1-a314-8c2f3b0c7996"><rect x="747.19" y="523.82" width="136.92" height="78.29" style="fill:none"/></clipPath><clipPath id="afc46d93-7fc6-42ad-9c32-c2b99a44f642"><rect x="610.27" y="-102.47" width="136.92" height="78.29" style="fill:none"/></clipPath><clipPath id="1cd36651-d0ae-46ae-ba85-eae42669ec42"><rect x="610.27" y="-24.18" width="136.92" height="78.29" style="fill:none"/></clipPath><clipPath id="ab5b21d0-2da8-499d-8f98-ac472107c1e1"><rect x="610.27" y="54.11" width="136.92" height="78.29" style="fill:none"/></clipPath><clipPath id="a4bca186-28e2-47eb-8f27-cb8122923eaf"><rect x="610.27" y="132.39" width="136.92" height="78.29" style="fill:none"/></clipPath><clipPath id="7066670d-a376-4ef4-9d68-1d7f81383c4d"><rect x="610.27" y="210.68" width="136.92" height="78.29" style="fill:none"/></clipPath><clipPath id="62309194-bf37-4668-906a-3e50c1ca8adb"><rect x="610.27" y="288.96" width="136.92" height="78.29" style="fill:none"/></clipPath><clipPath id="dcfdd15c-46ad-4826-b9ae-7d7cb30679e9"><rect x="610.27" y="367.25" width="136.92" height="78.29" style="fill:none"/></clipPath><clipPath id="af0241f0-d434-4c62-ac22-54a9b82740d7"><rect x="610.27" y="445.54" width="136.92" height="78.29" style="fill:none"/></clipPath><clipPath id="ff1e17f1-bd23-4763-ad0b-70a7834d9549"><rect x="610.27" y="523.82" width="136.92" height="78.29" style="fill:none"/></clipPath><clipPath id="69e84802-5b85-4830-8c30-1e68c7e9402b"><polygon points="1024.83 573.92 1294.8 573.92 1294.8 -25.02 1024.83 117.12 1024.83 573.92" style="fill:none"/></clipPath><linearGradient id="40d0f642-9ef1-425e-9122-bbdc99800043" x1="1453.39" y1="609.54" x2="990.86" y2="-225.31" gradientUnits="userSpaceOnUse"><stop offset="0" stop-color="#fe0"/><stop offset="0.5" stop-color="#00d4ff"/><stop offset="1" stop-color="#8c00ff"/></linearGradient><linearGradient id="4fdc1cbe-4c5a-4e1b-8a4e-bef8cadd8692" x1="630.52" y1="200.42" x2="1668.7" y2="200.42" xlink:href="#40d0f642-9ef1-425e-9122-bbdc99800043"/><linearGradient id="6579fb6d-9efd-42c5-9d27-f36bf267d734" x1="245.03" y1="492.76" x2="1.55" y2="71.05" gradientUnits="userSpaceOnUse"><stop offset="0" stop-color="#c3b6dc" stop-opacity="0.1"/><stop offset="1" stop-color="#fff" stop-opacity=".05"/></linearGradient></defs><title>icons-bio-bottom-3</title><g id="c6f2baaa-e826-4a9f-abda-9a7c8b0718af" data-name="Layer 7"><path d="M.12,511.05l72.33-41.76a414.52,414.52,0,0,1,414.5,0L722.79,605.46a440.19,440.19,0,0,0,440.16,0L1295.42,529V51.57h.3V-1325.85L1076.51-1200a561.32,561.32,0,0,1-560.15-.68l-197.4-114a301.32,301.32,0,0,0-301.36,0l-18.19,10.5" style="fill:#eae6f3"/><g style="opacity:0.1"><g style="clip-path:url(#3ebd53a1-6b10-4137-9b0f-07dd890c8b1b)"><g style="clip-path:url(#07be9f54-9af1-4c49-8f8c-047f6b02ca8c)"><path d="M1361.67-24.18l68.09,38.57L1361.67,53l-66.8-38.57,66.8-38.57m0-1.15-.5.29-66.8,38.56-1.5.87,1.5.86,66.8,38.57.5.29.5-.28,68.09-38.57,1.53-.87-1.53-.87L1362.17-25l-.5-.28Z" style="fill:#73739c"/></g><g style="clip-path:url(#b08175ca-755d-4103-bc48-59cc92df66f3)"><path d="M1361.67,54.11l68.09,38.56-68.09,38.57-66.8-38.57,66.8-38.56m0-1.15-.5.28-66.8,38.57-1.5.86,1.5.87,66.8,38.57.5.28.5-.28,68.09-38.57,1.53-.87-1.53-.87-68.09-38.56-.5-.28Z" style="fill:#73739c"/><path d="M1361.67-24.18l68.09,38.57L1361.67,53l-66.8-38.57,66.8-38.57m0-1.15-.5.29-66.8,38.56-1.5.87,1.5.86,66.8,38.57.5.29.5-.28,68.09-38.57,1.53-.87-1.53-.87L1362.17-25l-.5-.28Z" style="fill:#73739c"/></g><g style="clip-path:url(#4057dba4-c4b1-438f-8f60-bf65f512907d)"><path d="M1361.67,132.39,1429.76,171l-68.09,38.57L1294.87,171l66.8-38.57m0-1.15-.5.29-66.8,38.56-1.5.87,1.5.87,66.8,38.56.5.29.5-.28,68.09-38.57,1.53-.87-1.53-.87-68.09-38.57-.5-.28Z" style="fill:#73739c"/><path d="M1361.67,54.11l68.09,38.56-68.09,38.57-66.8-38.57,66.8-38.56m0-1.15-.5.28-66.8,38.57-1.5.86,1.5.87,66.8,38.57.5.28.5-.28,68.09-38.57,1.53-.87-1.53-.87-68.09-38.56-.5-.28Z" style="fill:#73739c"/><path d="M1361.67-24.18l68.09,38.57L1361.67,53l-66.8-38.57,66.8-38.57m0-1.15-.5.29-66.8,38.56-1.5.87,1.5.86,66.8,38.57.5.29.5-.28,68.09-38.57,1.53-.87-1.53-.87L1362.17-25l-.5-.28Z" style="fill:#73739c"/></g><g style="clip-path:url(#580579f0-3c16-4dd6-8615-de539cbe12df)"><path d="M1361.67,210.68l68.09,38.57-68.09,38.56-66.8-38.56,66.8-38.57m0-1.15-.5.28-66.8,38.57-1.5.87,1.5.86,66.8,38.57.5.29.5-.29,68.09-38.56,1.53-.87-1.53-.87-68.09-38.57-.5-.28Z" style="fill:#73739c"/><path d="M1361.67,132.39,1429.76,171l-68.09,38.57L1294.87,171l66.8-38.57m0-1.15-.5.29-66.8,38.56-1.5.87,1.5.87,66.8,38.56.5.29.5-.28,68.09-38.57,1.53-.87-1.53-.87-68.09-38.57-.5-.28Z" style="fill:#73739c"/><path d="M1361.67,54.11l68.09,38.56-68.09,38.57-66.8-38.57,66.8-38.56m0-1.15-.5.28-66.8,38.57-1.5.86,1.5.87,66.8,38.57.5.28.5-.28,68.09-38.57,1.53-.87-1.53-.87-68.09-38.56-.5-.28Z" style="fill:#73739c"/></g><g style="clip-path:url(#0e268316-eff7-492f-a4c8-30eaf3882def)"><path d="M1361.67,289l68.09,38.56-68.09,38.57-66.8-38.57,66.8-38.56m0-1.16-.5.29-66.8,38.57-1.5.86,1.5.87,66.8,38.56.5.29.5-.28,68.09-38.57,1.53-.87-1.53-.87-68.09-38.57-.5-.28Z" style="fill:#73739c"/><path d="M1361.67,210.68l68.09,38.57-68.09,38.56-66.8-38.56,66.8-38.57m0-1.15-.5.28-66.8,38.57-1.5.87,1.5.86,66.8,38.57.5.29.5-.29,68.09-38.56,1.53-.87-1.53-.87-68.09-38.57-.5-.28Z" style="fill:#73739c"/><path d="M1361.67,132.39,1429.76,171l-68.09,38.57L1294.87,171l66.8-38.57m0-1.15-.5.29-66.8,38.56-1.5.87,1.5.87,66.8,38.56.5.29.5-.28,68.09-38.57,1.53-.87-1.53-.87-68.09-38.57-.5-.28Z" style="fill:#73739c"/></g><g style="clip-path:url(#e417746a-2239-4e8f-b28e-f60ba9d5c035)"><path d="M1361.67,367.25l68.09,38.57-68.09,38.56-66.8-38.56,66.8-38.57m0-1.15-.5.29L1294.37,405l-1.5.87,1.5.86,66.8,38.57.5.29.5-.28,68.09-38.57,1.53-.87-1.53-.87-68.09-38.57-.5-.28Z" style="fill:#73739c"/><path d="M1361.67,289l68.09,38.56-68.09,38.57-66.8-38.57,66.8-38.56m0-1.16-.5.29-66.8,38.57-1.5.86,1.5.87,66.8,38.56.5.29.5-.28,68.09-38.57,1.53-.87-1.53-.87-68.09-38.57-.5-.28Z" style="fill:#73739c"/><path d="M1361.67,210.68l68.09,38.57-68.09,38.56-66.8-38.56,66.8-38.57m0-1.15-.5.28-66.8,38.57-1.5.87,1.5.86,66.8,38.57.5.29.5-.29,68.09-38.56,1.53-.87-1.53-.87-68.09-38.57-.5-.28Z" style="fill:#73739c"/></g><g style="clip-path:url(#117dd20a-da9c-4515-b1d2-2ba9bb7ed28e)"><path d="M1361.67,445.54l68.09,38.56-68.09,38.57-66.8-38.57,66.8-38.56m0-1.16-.5.29-66.8,38.57-1.5.86,1.5.87,66.8,38.57.5.28.5-.28L1430.26,485l1.53-.87-1.53-.87-68.09-38.56-.5-.29Z" style="fill:#73739c"/><path d="M1361.67,367.25l68.09,38.57-68.09,38.56-66.8-38.56,66.8-38.57m0-1.15-.5.29L1294.37,405l-1.5.87,1.5.86,66.8,38.57.5.29.5-.28,68.09-38.57,1.53-.87-1.53-.87-68.09-38.57-.5-.28Z" style="fill:#73739c"/><path d="M1361.67,289l68.09,38.56-68.09,38.57-66.8-38.57,66.8-38.56m0-1.16-.5.29-66.8,38.57-1.5.86,1.5.87,66.8,38.56.5.29.5-.28,68.09-38.57,1.53-.87-1.53-.87-68.09-38.57-.5-.28Z" style="fill:#73739c"/></g><g style="clip-path:url(#2d60bd84-5bb0-458e-a930-36f9b8b19763)"><path d="M1361.67,523.82l68.09,38.57L1361.67,601l-66.8-38.57,66.8-38.57m0-1.15-.5.29-66.8,38.56-1.5.87,1.5.87,66.8,38.56.5.29.5-.28,68.09-38.57,1.53-.87-1.53-.87L1362.17,523l-.5-.28Z" style="fill:#73739c"/><path d="M1361.67,445.54l68.09,38.56-68.09,38.57-66.8-38.57,66.8-38.56m0-1.16-.5.29-66.8,38.57-1.5.86,1.5.87,66.8,38.57.5.28.5-.28L1430.26,485l1.53-.87-1.53-.87-68.09-38.56-.5-.29Z" style="fill:#73739c"/><path d="M1361.67,367.25l68.09,38.57-68.09,38.56-66.8-38.56,66.8-38.57m0-1.15-.5.29L1294.37,405l-1.5.87,1.5.86,66.8,38.57.5.29.5-.28,68.09-38.57,1.53-.87-1.53-.87-68.09-38.57-.5-.28Z" style="fill:#73739c"/></g><g style="clip-path:url(#775816db-371b-4ba7-b670-1a8a2ec67dfd)"><path d="M1361.67,602.11l68.09,38.57-68.09,38.56-66.8-38.56,66.8-38.57m0-1.15-.5.28-66.8,38.57-1.5.87,1.5.86,66.8,38.57.5.28.5-.28,68.09-38.56,1.53-.87-1.53-.87-68.09-38.57-.5-.28Z" style="fill:#73739c"/><path d="M1361.67,523.82l68.09,38.57L1361.67,601l-66.8-38.57,66.8-38.57m0-1.15-.5.29-66.8,38.56-1.5.87,1.5.87,66.8,38.56.5.29.5-.28,68.09-38.57,1.53-.87-1.53-.87L1362.17,523l-.5-.28Z" style="fill:#73739c"/><path d="M1361.67,445.54l68.09,38.56-68.09,38.57-66.8-38.57,66.8-38.56m0-1.16-.5.29-66.8,38.57-1.5.86,1.5.87,66.8,38.57.5.28.5-.28L1430.26,485l1.53-.87-1.53-.87-68.09-38.56-.5-.29Z" style="fill:#73739c"/></g><g style="clip-path:url(#d9e9275b-c993-4cdf-82d1-53b38321cee4)"><path d="M1361.67-24.18l68.09,38.57L1361.67,53l-66.8-38.57,66.8-38.57m0-1.15-.5.29-66.8,38.56-1.5.87,1.5.86,66.8,38.57.5.29.5-.28,68.09-38.57,1.53-.87-1.53-.87L1362.17-25l-.5-.28Z" style="fill:#73739c"/><path d="M1224.75-24.18l68.09,38.57L1224.75,53,1158,14.39l66.8-38.57m0-1.15-.5.29-66.8,38.56-1.5.87,1.5.86,66.8,38.57.5.29.49-.28,68.1-38.57,1.53-.87-1.53-.87L1225.24-25l-.49-.28Z" style="fill:#73739c"/></g><g style="clip-path:url(#4d956053-6432-4f62-bb8c-ded9bceb48d8)"><path d="M1361.67,54.11l68.09,38.56-68.09,38.57-66.8-38.57,66.8-38.56m0-1.15-.5.28-66.8,38.57-1.5.86,1.5.87,66.8,38.57.5.28.5-.28,68.09-38.57,1.53-.87-1.53-.87-68.09-38.56-.5-.28Z" style="fill:#73739c"/><path d="M1224.75,54.11l68.09,38.56-68.09,38.57L1158,92.67l66.8-38.56m0-1.15-.5.28-66.8,38.57-1.5.86,1.5.87,66.8,38.57.5.28.49-.28,68.1-38.57,1.53-.87-1.53-.87-68.1-38.56-.49-.28Z" style="fill:#73739c"/><path d="M1361.67-24.18l68.09,38.57L1361.67,53l-66.8-38.57,66.8-38.57m0-1.15-.5.29-66.8,38.56-1.5.87,1.5.86,66.8,38.57.5.29.5-.28,68.09-38.57,1.53-.87-1.53-.87L1362.17-25l-.5-.28Z" style="fill:#73739c"/><path d="M1224.75-24.18l68.09,38.57L1224.75,53,1158,14.39l66.8-38.57m0-1.15-.5.29-66.8,38.56-1.5.87,1.5.86,66.8,38.57.5.29.49-.28,68.1-38.57,1.53-.87-1.53-.87L1225.24-25l-.49-.28Z" style="fill:#73739c"/></g><g style="clip-path:url(#9f729a62-937b-4de0-b9f8-0f8d1d839d95)"><path d="M1361.67,132.39,1429.76,171l-68.09,38.57L1294.87,171l66.8-38.57m0-1.15-.5.29-66.8,38.56-1.5.87,1.5.87,66.8,38.56.5.29.5-.28,68.09-38.57,1.53-.87-1.53-.87-68.09-38.57-.5-.28Z" style="fill:#73739c"/><path d="M1224.75,132.39,1292.84,171l-68.09,38.57L1158,171l66.8-38.57m0-1.15-.5.29-66.8,38.56-1.5.87,1.5.87,66.8,38.56.5.29.49-.28,68.1-38.57,1.53-.87-1.53-.87-68.1-38.57-.49-.28Z" style="fill:#73739c"/><path d="M1361.67,54.11l68.09,38.56-68.09,38.57-66.8-38.57,66.8-38.56m0-1.15-.5.28-66.8,38.57-1.5.86,1.5.87,66.8,38.57.5.28.5-.28,68.09-38.57,1.53-.87-1.53-.87-68.09-38.56-.5-.28Z" style="fill:#73739c"/><path d="M1224.75,54.11l68.09,38.56-68.09,38.57L1158,92.67l66.8-38.56m0-1.15-.5.28-66.8,38.57-1.5.86,1.5.87,66.8,38.57.5.28.49-.28,68.1-38.57,1.53-.87-1.53-.87-68.1-38.56-.49-.28Z" style="fill:#73739c"/><path d="M1361.67-24.18l68.09,38.57L1361.67,53l-66.8-38.57,66.8-38.57m0-1.15-.5.29-66.8,38.56-1.5.87,1.5.86,66.8,38.57.5.29.5-.28,68.09-38.57,1.53-.87-1.53-.87L1362.17-25l-.5-.28Z" style="fill:#73739c"/><path d="M1224.75-24.18l68.09,38.57L1224.75,53,1158,14.39l66.8-38.57m0-1.15-.5.29-66.8,38.56-1.5.87,1.5.86,66.8,38.57.5.29.49-.28,68.1-38.57,1.53-.87-1.53-.87L1225.24-25l-.49-.28Z" style="fill:#73739c"/></g><g style="clip-path:url(#bf0a2052-89ac-4a9b-b09a-a12cd3dbcd6f)"><path d="M1361.67,210.68l68.09,38.57-68.09,38.56-66.8-38.56,66.8-38.57m0-1.15-.5.28-66.8,38.57-1.5.87,1.5.86,66.8,38.57.5.29.5-.29,68.09-38.56,1.53-.87-1.53-.87-68.09-38.57-.5-.28Z" style="fill:#73739c"/><path d="M1224.75,210.68l68.09,38.57-68.09,38.56L1158,249.25l66.8-38.57m0-1.15-.5.28-66.8,38.57-1.5.87,1.5.86,66.8,38.57.5.29.49-.29,68.1-38.56,1.53-.87-1.53-.87-68.1-38.57-.49-.28Z" style="fill:#73739c"/><path d="M1361.67,132.39,1429.76,171l-68.09,38.57L1294.87,171l66.8-38.57m0-1.15-.5.29-66.8,38.56-1.5.87,1.5.87,66.8,38.56.5.29.5-.28,68.09-38.57,1.53-.87-1.53-.87-68.09-38.57-.5-.28Z" style="fill:#73739c"/><path d="M1224.75,132.39,1292.84,171l-68.09,38.57L1158,171l66.8-38.57m0-1.15-.5.29-66.8,38.56-1.5.87,1.5.87,66.8,38.56.5.29.49-.28,68.1-38.57,1.53-.87-1.53-.87-68.1-38.57-.49-.28Z" style="fill:#73739c"/><path d="M1361.67,54.11l68.09,38.56-68.09,38.57-66.8-38.57,66.8-38.56m0-1.15-.5.28-66.8,38.57-1.5.86,1.5.87,66.8,38.57.5.28.5-.28,68.09-38.57,1.53-.87-1.53-.87-68.09-38.56-.5-.28Z" style="fill:#73739c"/><path d="M1224.75,54.11l68.09,38.56-68.09,38.57L1158,92.67l66.8-38.56m0-1.15-.5.28-66.8,38.57-1.5.86,1.5.87,66.8,38.57.5.28.49-.28,68.1-38.57,1.53-.87-1.53-.87-68.1-38.56-.49-.28Z" style="fill:#73739c"/></g><g style="clip-path:url(#127cc59e-512f-47d8-bb09-224f03ff7827)"><path d="M1361.67,289l68.09,38.56-68.09,38.57-66.8-38.57,66.8-38.56m0-1.16-.5.29-66.8,38.57-1.5.86,1.5.87,66.8,38.56.5.29.5-.28,68.09-38.57,1.53-.87-1.53-.87-68.09-38.57-.5-.28Z" style="fill:#73739c"/><path d="M1224.75,289l68.09,38.56-68.09,38.57L1158,327.53l66.8-38.56m0-1.16-.5.29-66.8,38.57-1.5.86,1.5.87,66.8,38.56.5.29.49-.28,68.1-38.57,1.53-.87-1.53-.87-68.1-38.57-.49-.28Z" style="fill:#73739c"/><path d="M1361.67,210.68l68.09,38.57-68.09,38.56-66.8-38.56,66.8-38.57m0-1.15-.5.28-66.8,38.57-1.5.87,1.5.86,66.8,38.57.5.29.5-.29,68.09-38.56,1.53-.87-1.53-.87-68.09-38.57-.5-.28Z" style="fill:#73739c"/><path d="M1224.75,210.68l68.09,38.57-68.09,38.56L1158,249.25l66.8-38.57m0-1.15-.5.28-66.8,38.57-1.5.87,1.5.86,66.8,38.57.5.29.49-.29,68.1-38.56,1.53-.87-1.53-.87-68.1-38.57-.49-.28Z" style="fill:#73739c"/><path d="M1361.67,132.39,1429.76,171l-68.09,38.57L1294.87,171l66.8-38.57m0-1.15-.5.29-66.8,38.56-1.5.87,1.5.87,66.8,38.56.5.29.5-.28,68.09-38.57,1.53-.87-1.53-.87-68.09-38.57-.5-.28Z" style="fill:#73739c"/><path d="M1224.75,132.39,1292.84,171l-68.09,38.57L1158,171l66.8-38.57m0-1.15-.5.29-66.8,38.56-1.5.87,1.5.87,66.8,38.56.5.29.49-.28,68.1-38.57,1.53-.87-1.53-.87-68.1-38.57-.49-.28Z" style="fill:#73739c"/></g><g style="clip-path:url(#49900fbc-ab21-4c80-a74c-2c01e55b46eb)"><path d="M1361.67,367.25l68.09,38.57-68.09,38.56-66.8-38.56,66.8-38.57m0-1.15-.5.29L1294.37,405l-1.5.87,1.5.86,66.8,38.57.5.29.5-.28,68.09-38.57,1.53-.87-1.53-.87-68.09-38.57-.5-.28Z" style="fill:#73739c"/><path d="M1224.75,367.25l68.09,38.57-68.09,38.56L1158,405.82l66.8-38.57m0-1.15-.5.29L1157.45,405l-1.5.87,1.5.86,66.8,38.57.5.29.49-.28,68.1-38.57,1.53-.87-1.53-.87-68.1-38.57-.49-.28Z" style="fill:#73739c"/><path d="M1361.67,289l68.09,38.56-68.09,38.57-66.8-38.57,66.8-38.56m0-1.16-.5.29-66.8,38.57-1.5.86,1.5.87,66.8,38.56.5.29.5-.28,68.09-38.57,1.53-.87-1.53-.87-68.09-38.57-.5-.28Z" style="fill:#73739c"/><path d="M1224.75,289l68.09,38.56-68.09,38.57L1158,327.53l66.8-38.56m0-1.16-.5.29-66.8,38.57-1.5.86,1.5.87,66.8,38.56.5.29.49-.28,68.1-38.57,1.53-.87-1.53-.87-68.1-38.57-.49-.28Z" style="fill:#73739c"/><path d="M1361.67,210.68l68.09,38.57-68.09,38.56-66.8-38.56,66.8-38.57m0-1.15-.5.28-66.8,38.57-1.5.87,1.5.86,66.8,38.57.5.29.5-.29,68.09-38.56,1.53-.87-1.53-.87-68.09-38.57-.5-.28Z" style="fill:#73739c"/><path d="M1224.75,210.68l68.09,38.57-68.09,38.56L1158,249.25l66.8-38.57m0-1.15-.5.28-66.8,38.57-1.5.87,1.5.86,66.8,38.57.5.29.49-.29,68.1-38.56,1.53-.87-1.53-.87-68.1-38.57-.49-.28Z" style="fill:#73739c"/></g><g style="clip-path:url(#236440e8-c5dd-47c6-b5f4-045d6bf0e48c)"><path d="M1361.67,445.54l68.09,38.56-68.09,38.57-66.8-38.57,66.8-38.56m0-1.16-.5.29-66.8,38.57-1.5.86,1.5.87,66.8,38.57.5.28.5-.28L1430.26,485l1.53-.87-1.53-.87-68.09-38.56-.5-.29Z" style="fill:#73739c"/><path d="M1224.75,445.54l68.09,38.56-68.09,38.57L1158,484.1l66.8-38.56m0-1.16-.5.29-66.8,38.57-1.5.86,1.5.87,66.8,38.57.5.28.49-.28,68.1-38.57,1.53-.87-1.53-.87-68.1-38.56-.49-.29Z" style="fill:#73739c"/><path d="M1361.67,367.25l68.09,38.57-68.09,38.56-66.8-38.56,66.8-38.57m0-1.15-.5.29L1294.37,405l-1.5.87,1.5.86,66.8,38.57.5.29.5-.28,68.09-38.57,1.53-.87-1.53-.87-68.09-38.57-.5-.28Z" style="fill:#73739c"/><path d="M1224.75,367.25l68.09,38.57-68.09,38.56L1158,405.82l66.8-38.57m0-1.15-.5.29L1157.45,405l-1.5.87,1.5.86,66.8,38.57.5.29.49-.28,68.1-38.57,1.53-.87-1.53-.87-68.1-38.57-.49-.28Z" style="fill:#73739c"/><path d="M1361.67,289l68.09,38.56-68.09,38.57-66.8-38.57,66.8-38.56m0-1.16-.5.29-66.8,38.57-1.5.86,1.5.87,66.8,38.56.5.29.5-.28,68.09-38.57,1.53-.87-1.53-.87-68.09-38.57-.5-.28Z" style="fill:#73739c"/><path d="M1224.75,289l68.09,38.56-68.09,38.57L1158,327.53l66.8-38.56m0-1.16-.5.29-66.8,38.57-1.5.86,1.5.87,66.8,38.56.5.29.49-.28,68.1-38.57,1.53-.87-1.53-.87-68.1-38.57-.49-.28Z" style="fill:#73739c"/></g><g style="clip-path:url(#11c7f500-100b-4846-bfbc-dabfbf6db79e)"><path d="M1361.67,523.82l68.09,38.57L1361.67,601l-66.8-38.57,66.8-38.57m0-1.15-.5.29-66.8,38.56-1.5.87,1.5.87,66.8,38.56.5.29.5-.28,68.09-38.57,1.53-.87-1.53-.87L1362.17,523l-.5-.28Z" style="fill:#73739c"/><path d="M1224.75,523.82l68.09,38.57L1224.75,601,1158,562.39l66.8-38.57m0-1.15-.5.29-66.8,38.56-1.5.87,1.5.87,66.8,38.56.5.29.49-.28,68.1-38.57,1.53-.87-1.53-.87L1225.24,523l-.49-.28Z" style="fill:#73739c"/><path d="M1361.67,445.54l68.09,38.56-68.09,38.57-66.8-38.57,66.8-38.56m0-1.16-.5.29-66.8,38.57-1.5.86,1.5.87,66.8,38.57.5.28.5-.28L1430.26,485l1.53-.87-1.53-.87-68.09-38.56-.5-.29Z" style="fill:#73739c"/><path d="M1224.75,445.54l68.09,38.56-68.09,38.57L1158,484.1l66.8-38.56m0-1.16-.5.29-66.8,38.57-1.5.86,1.5.87,66.8,38.57.5.28.49-.28,68.1-38.57,1.53-.87-1.53-.87-68.1-38.56-.49-.29Z" style="fill:#73739c"/><path d="M1361.67,367.25l68.09,38.57-68.09,38.56-66.8-38.56,66.8-38.57m0-1.15-.5.29L1294.37,405l-1.5.87,1.5.86,66.8,38.57.5.29.5-.28,68.09-38.57,1.53-.87-1.53-.87-68.09-38.57-.5-.28Z" style="fill:#73739c"/><path d="M1224.75,367.25l68.09,38.57-68.09,38.56L1158,405.82l66.8-38.57m0-1.15-.5.29L1157.45,405l-1.5.87,1.5.86,66.8,38.57.5.29.49-.28,68.1-38.57,1.53-.87-1.53-.87-68.1-38.57-.49-.28Z" style="fill:#73739c"/></g><g style="clip-path:url(#b863d9ff-4d66-4e51-89cd-2797ee5ccef1)"><path d="M1361.67,602.11l68.09,38.57-68.09,38.56-66.8-38.56,66.8-38.57m0-1.15-.5.28-66.8,38.57-1.5.87,1.5.86,66.8,38.57.5.28.5-.28,68.09-38.56,1.53-.87-1.53-.87-68.09-38.57-.5-.28Z" style="fill:#73739c"/><path d="M1224.75,602.11l68.09,38.57-68.09,38.56L1158,640.68l66.8-38.57m0-1.15-.5.28-66.8,38.57-1.5.87,1.5.86,66.8,38.57.5.28.49-.28,68.1-38.56,1.53-.87-1.53-.87-68.1-38.57-.49-.28Z" style="fill:#73739c"/><path d="M1361.67,523.82l68.09,38.57L1361.67,601l-66.8-38.57,66.8-38.57m0-1.15-.5.29-66.8,38.56-1.5.87,1.5.87,66.8,38.56.5.29.5-.28,68.09-38.57,1.53-.87-1.53-.87L1362.17,523l-.5-.28Z" style="fill:#73739c"/><path d="M1224.75,523.82l68.09,38.57L1224.75,601,1158,562.39l66.8-38.57m0-1.15-.5.29-66.8,38.56-1.5.87,1.5.87,66.8,38.56.5.29.49-.28,68.1-38.57,1.53-.87-1.53-.87L1225.24,523l-.49-.28Z" style="fill:#73739c"/><path d="M1361.67,445.54l68.09,38.56-68.09,38.57-66.8-38.57,66.8-38.56m0-1.16-.5.29-66.8,38.57-1.5.86,1.5.87,66.8,38.57.5.28.5-.28L1430.26,485l1.53-.87-1.53-.87-68.09-38.56-.5-.29Z" style="fill:#73739c"/><path d="M1224.75,445.54l68.09,38.56-68.09,38.57L1158,484.1l66.8-38.56m0-1.16-.5.29-66.8,38.57-1.5.86,1.5.87,66.8,38.57.5.28.49-.28,68.1-38.57,1.53-.87-1.53-.87-68.1-38.56-.49-.29Z" style="fill:#73739c"/></g><g style="clip-path:url(#e711587f-a091-4032-bd70-eb2dbe883a6d)"><path d="M1224.75-24.18l68.09,38.57L1224.75,53,1158,14.39l66.8-38.57m0-1.15-.5.29-66.8,38.56-1.5.87,1.5.86,66.8,38.57.5.29.49-.28,68.1-38.57,1.53-.87-1.53-.87L1225.24-25l-.49-.28Z" style="fill:#73739c"/><path d="M1087.83-24.18l68.09,38.57L1087.83,53,1021,14.39l66.8-38.57m0-1.15-.49.29-66.8,38.56-1.5.87,1.5.86,66.8,38.57.49.29.5-.28,68.09-38.57,1.54-.87-1.54-.87L1088.32-25l-.5-.28Z" style="fill:#73739c"/></g><g style="clip-path:url(#eacdd13f-619f-4850-9a21-fda9a4008319)"><path d="M1224.75,54.11l68.09,38.56-68.09,38.57L1158,92.67l66.8-38.56m0-1.15-.5.28-66.8,38.57-1.5.86,1.5.87,66.8,38.57.5.28.49-.28,68.1-38.57,1.53-.87-1.53-.87-68.1-38.56-.49-.28Z" style="fill:#73739c"/><path d="M1087.83,54.11l68.09,38.56-68.09,38.57L1021,92.67l66.8-38.56m0-1.15-.49.28-66.8,38.57-1.5.86,1.5.87,66.8,38.57.49.28.5-.28,68.09-38.57,1.54-.87-1.54-.87-68.09-38.56-.5-.28Z" style="fill:#73739c"/><path d="M1224.75-24.18l68.09,38.57L1224.75,53,1158,14.39l66.8-38.57m0-1.15-.5.29-66.8,38.56-1.5.87,1.5.86,66.8,38.57.5.29.49-.28,68.1-38.57,1.53-.87-1.53-.87L1225.24-25l-.49-.28Z" style="fill:#73739c"/><path d="M1087.83-24.18l68.09,38.57L1087.83,53,1021,14.39l66.8-38.57m0-1.15-.49.29-66.8,38.56-1.5.87,1.5.86,66.8,38.57.49.29.5-.28,68.09-38.57,1.54-.87-1.54-.87L1088.32-25l-.5-.28Z" style="fill:#73739c"/></g><g style="clip-path:url(#48db8600-dddf-40da-b8e4-4e0a837f3e68)"><path d="M1224.75,132.39,1292.84,171l-68.09,38.57L1158,171l66.8-38.57m0-1.15-.5.29-66.8,38.56-1.5.87,1.5.87,66.8,38.56.5.29.49-.28,68.1-38.57,1.53-.87-1.53-.87-68.1-38.57-.49-.28Z" style="fill:#73739c"/><path d="M1087.83,132.39,1155.92,171l-68.09,38.57L1021,171l66.8-38.57m0-1.15-.49.29-66.8,38.56-1.5.87,1.5.87,66.8,38.56.49.29.5-.28,68.09-38.57L1158,171l-1.54-.87-68.09-38.57-.5-.28Z" style="fill:#73739c"/><path d="M1224.75,54.11l68.09,38.56-68.09,38.57L1158,92.67l66.8-38.56m0-1.15-.5.28-66.8,38.57-1.5.86,1.5.87,66.8,38.57.5.28.49-.28,68.1-38.57,1.53-.87-1.53-.87-68.1-38.56-.49-.28Z" style="fill:#73739c"/><path d="M1087.83,54.11l68.09,38.56-68.09,38.57L1021,92.67l66.8-38.56m0-1.15-.49.28-66.8,38.57-1.5.86,1.5.87,66.8,38.57.49.28.5-.28,68.09-38.57,1.54-.87-1.54-.87-68.09-38.56-.5-.28Z" style="fill:#73739c"/><path d="M1224.75-24.18l68.09,38.57L1224.75,53,1158,14.39l66.8-38.57m0-1.15-.5.29-66.8,38.56-1.5.87,1.5.86,66.8,38.57.5.29.49-.28,68.1-38.57,1.53-.87-1.53-.87L1225.24-25l-.49-.28Z" style="fill:#73739c"/><path d="M1087.83-24.18l68.09,38.57L1087.83,53,1021,14.39l66.8-38.57m0-1.15-.49.29-66.8,38.56-1.5.87,1.5.86,66.8,38.57.49.29.5-.28,68.09-38.57,1.54-.87-1.54-.87L1088.32-25l-.5-.28Z" style="fill:#73739c"/></g><g style="clip-path:url(#139ed3b8-9ad6-41cd-ad82-501972e1d4a9)"><path d="M1224.75,210.68l68.09,38.57-68.09,38.56L1158,249.25l66.8-38.57m0-1.15-.5.28-66.8,38.57-1.5.87,1.5.86,66.8,38.57.5.29.49-.29,68.1-38.56,1.53-.87-1.53-.87-68.1-38.57-.49-.28Z" style="fill:#73739c"/><path d="M1087.83,210.68l68.09,38.57-68.09,38.56L1021,249.25l66.8-38.57m0-1.15-.49.28-66.8,38.57-1.5.87,1.5.86,66.8,38.57.49.29.5-.29,68.09-38.56,1.54-.87-1.54-.87-68.09-38.57-.5-.28Z" style="fill:#73739c"/><path d="M1224.75,132.39,1292.84,171l-68.09,38.57L1158,171l66.8-38.57m0-1.15-.5.29-66.8,38.56-1.5.87,1.5.87,66.8,38.56.5.29.49-.28,68.1-38.57,1.53-.87-1.53-.87-68.1-38.57-.49-.28Z" style="fill:#73739c"/><path d="M1087.83,132.39,1155.92,171l-68.09,38.57L1021,171l66.8-38.57m0-1.15-.49.29-66.8,38.56-1.5.87,1.5.87,66.8,38.56.49.29.5-.28,68.09-38.57L1158,171l-1.54-.87-68.09-38.57-.5-.28Z" style="fill:#73739c"/><path d="M1224.75,54.11l68.09,38.56-68.09,38.57L1158,92.67l66.8-38.56m0-1.15-.5.28-66.8,38.57-1.5.86,1.5.87,66.8,38.57.5.28.49-.28,68.1-38.57,1.53-.87-1.53-.87-68.1-38.56-.49-.28Z" style="fill:#73739c"/><path d="M1087.83,54.11l68.09,38.56-68.09,38.57L1021,92.67l66.8-38.56m0-1.15-.49.28-66.8,38.57-1.5.86,1.5.87,66.8,38.57.49.28.5-.28,68.09-38.57,1.54-.87-1.54-.87-68.09-38.56-.5-.28Z" style="fill:#73739c"/></g><g style="clip-path:url(#2a3dcbdb-5bfc-4fe8-b59c-3ce3306307f3)"><path d="M1224.75,289l68.09,38.56-68.09,38.57L1158,327.53l66.8-38.56m0-1.16-.5.29-66.8,38.57-1.5.86,1.5.87,66.8,38.56.5.29.49-.28,68.1-38.57,1.53-.87-1.53-.87-68.1-38.57-.49-.28Z" style="fill:#73739c"/><path d="M1087.83,289l68.09,38.56-68.09,38.57L1021,327.53l66.8-38.56m0-1.16-.49.29-66.8,38.57-1.5.86,1.5.87,66.8,38.56.49.29.5-.28,68.09-38.57,1.54-.87-1.54-.87-68.09-38.57-.5-.28Z" style="fill:#73739c"/><path d="M1224.75,210.68l68.09,38.57-68.09,38.56L1158,249.25l66.8-38.57m0-1.15-.5.28-66.8,38.57-1.5.87,1.5.86,66.8,38.57.5.29.49-.29,68.1-38.56,1.53-.87-1.53-.87-68.1-38.57-.49-.28Z" style="fill:#73739c"/><path d="M1087.83,210.68l68.09,38.57-68.09,38.56L1021,249.25l66.8-38.57m0-1.15-.49.28-66.8,38.57-1.5.87,1.5.86,66.8,38.57.49.29.5-.29,68.09-38.56,1.54-.87-1.54-.87-68.09-38.57-.5-.28Z" style="fill:#73739c"/><path d="M1224.75,132.39,1292.84,171l-68.09,38.57L1158,171l66.8-38.57m0-1.15-.5.29-66.8,38.56-1.5.87,1.5.87,66.8,38.56.5.29.49-.28,68.1-38.57,1.53-.87-1.53-.87-68.1-38.57-.49-.28Z" style="fill:#73739c"/><path d="M1087.83,132.39,1155.92,171l-68.09,38.57L1021,171l66.8-38.57m0-1.15-.49.29-66.8,38.56-1.5.87,1.5.87,66.8,38.56.49.29.5-.28,68.09-38.57L1158,171l-1.54-.87-68.09-38.57-.5-.28Z" style="fill:#73739c"/></g><g style="clip-path:url(#8d1b721f-62c8-43e0-821f-d45c2f5df558)"><path d="M1224.75,367.25l68.09,38.57-68.09,38.56L1158,405.82l66.8-38.57m0-1.15-.5.29L1157.45,405l-1.5.87,1.5.86,66.8,38.57.5.29.49-.28,68.1-38.57,1.53-.87-1.53-.87-68.1-38.57-.49-.28Z" style="fill:#73739c"/><path d="M1087.83,367.25l68.09,38.57-68.09,38.56L1021,405.82l66.8-38.57m0-1.15-.49.29L1020.53,405l-1.5.87,1.5.86,66.8,38.57.49.29.5-.28,68.09-38.57,1.54-.87-1.54-.87-68.09-38.57-.5-.28Z" style="fill:#73739c"/><path d="M1224.75,289l68.09,38.56-68.09,38.57L1158,327.53l66.8-38.56m0-1.16-.5.29-66.8,38.57-1.5.86,1.5.87,66.8,38.56.5.29.49-.28,68.1-38.57,1.53-.87-1.53-.87-68.1-38.57-.49-.28Z" style="fill:#73739c"/><path d="M1087.83,289l68.09,38.56-68.09,38.57L1021,327.53l66.8-38.56m0-1.16-.49.29-66.8,38.57-1.5.86,1.5.87,66.8,38.56.49.29.5-.28,68.09-38.57,1.54-.87-1.54-.87-68.09-38.57-.5-.28Z" style="fill:#73739c"/><path d="M1224.75,210.68l68.09,38.57-68.09,38.56L1158,249.25l66.8-38.57m0-1.15-.5.28-66.8,38.57-1.5.87,1.5.86,66.8,38.57.5.29.49-.29,68.1-38.56,1.53-.87-1.53-.87-68.1-38.57-.49-.28Z" style="fill:#73739c"/><path d="M1087.83,210.68l68.09,38.57-68.09,38.56L1021,249.25l66.8-38.57m0-1.15-.49.28-66.8,38.57-1.5.87,1.5.86,66.8,38.57.49.29.5-.29,68.09-38.56,1.54-.87-1.54-.87-68.09-38.57-.5-.28Z" style="fill:#73739c"/></g><g style="clip-path:url(#e1b4d80e-8638-4505-bc0c-6a558e7f224c)"><path d="M1224.75,445.54l68.09,38.56-68.09,38.57L1158,484.1l66.8-38.56m0-1.16-.5.29-66.8,38.57-1.5.86,1.5.87,66.8,38.57.5.28.49-.28,68.1-38.57,1.53-.87-1.53-.87-68.1-38.56-.49-.29Z" style="fill:#73739c"/><path d="M1087.83,445.54l68.09,38.56-68.09,38.57L1021,484.1l66.8-38.56m0-1.16-.49.29-66.8,38.57-1.5.86,1.5.87,66.8,38.57.49.28.5-.28L1156.41,485l1.54-.87-1.54-.87-68.09-38.56-.5-.29Z" style="fill:#73739c"/><path d="M1224.75,367.25l68.09,38.57-68.09,38.56L1158,405.82l66.8-38.57m0-1.15-.5.29L1157.45,405l-1.5.87,1.5.86,66.8,38.57.5.29.49-.28,68.1-38.57,1.53-.87-1.53-.87-68.1-38.57-.49-.28Z" style="fill:#73739c"/><path d="M1087.83,367.25l68.09,38.57-68.09,38.56L1021,405.82l66.8-38.57m0-1.15-.49.29L1020.53,405l-1.5.87,1.5.86,66.8,38.57.49.29.5-.28,68.09-38.57,1.54-.87-1.54-.87-68.09-38.57-.5-.28Z" style="fill:#73739c"/><path d="M1224.75,289l68.09,38.56-68.09,38.57L1158,327.53l66.8-38.56m0-1.16-.5.29-66.8,38.57-1.5.86,1.5.87,66.8,38.56.5.29.49-.28,68.1-38.57,1.53-.87-1.53-.87-68.1-38.57-.49-.28Z" style="fill:#73739c"/><path d="M1087.83,289l68.09,38.56-68.09,38.57L1021,327.53l66.8-38.56m0-1.16-.49.29-66.8,38.57-1.5.86,1.5.87,66.8,38.56.49.29.5-.28,68.09-38.57,1.54-.87-1.54-.87-68.09-38.57-.5-.28Z" style="fill:#73739c"/></g><g style="clip-path:url(#4b74306f-dbbb-4409-8eb4-ff075fed3d05)"><path d="M1224.75,523.82l68.09,38.57L1224.75,601,1158,562.39l66.8-38.57m0-1.15-.5.29-66.8,38.56-1.5.87,1.5.87,66.8,38.56.5.29.49-.28,68.1-38.57,1.53-.87-1.53-.87L1225.24,523l-.49-.28Z" style="fill:#73739c"/><path d="M1087.83,523.82l68.09,38.57L1087.83,601,1021,562.39l66.8-38.57m0-1.15-.49.29-66.8,38.56-1.5.87,1.5.87,66.8,38.56.49.29.5-.28,68.09-38.57,1.54-.87-1.54-.87L1088.32,523l-.5-.28Z" style="fill:#73739c"/><path d="M1224.75,445.54l68.09,38.56-68.09,38.57L1158,484.1l66.8-38.56m0-1.16-.5.29-66.8,38.57-1.5.86,1.5.87,66.8,38.57.5.28.49-.28,68.1-38.57,1.53-.87-1.53-.87-68.1-38.56-.49-.29Z" style="fill:#73739c"/><path d="M1087.83,445.54l68.09,38.56-68.09,38.57L1021,484.1l66.8-38.56m0-1.16-.49.29-66.8,38.57-1.5.86,1.5.87,66.8,38.57.49.28.5-.28L1156.41,485l1.54-.87-1.54-.87-68.09-38.56-.5-.29Z" style="fill:#73739c"/><path d="M1224.75,367.25l68.09,38.57-68.09,38.56L1158,405.82l66.8-38.57m0-1.15-.5.29L1157.45,405l-1.5.87,1.5.86,66.8,38.57.5.29.49-.28,68.1-38.57,1.53-.87-1.53-.87-68.1-38.57-.49-.28Z" style="fill:#73739c"/><path d="M1087.83,367.25l68.09,38.57-68.09,38.56L1021,405.82l66.8-38.57m0-1.15-.49.29L1020.53,405l-1.5.87,1.5.86,66.8,38.57.49.29.5-.28,68.09-38.57,1.54-.87-1.54-.87-68.09-38.57-.5-.28Z" style="fill:#73739c"/></g><g style="clip-path:url(#8d6477df-a72d-498f-b3fc-4d364cbe5bdc)"><path d="M1224.75,602.11l68.09,38.57-68.09,38.56L1158,640.68l66.8-38.57m0-1.15-.5.28-66.8,38.57-1.5.87,1.5.86,66.8,38.57.5.28.49-.28,68.1-38.56,1.53-.87-1.53-.87-68.1-38.57-.49-.28Z" style="fill:#73739c"/><path d="M1087.83,602.11l68.09,38.57-68.09,38.56L1021,640.68l66.8-38.57m0-1.15-.49.28-66.8,38.57-1.5.87,1.5.86,66.8,38.57.49.28.5-.28,68.09-38.56,1.54-.87-1.54-.87-68.09-38.57-.5-.28Z" style="fill:#73739c"/><path d="M1224.75,523.82l68.09,38.57L1224.75,601,1158,562.39l66.8-38.57m0-1.15-.5.29-66.8,38.56-1.5.87,1.5.87,66.8,38.56.5.29.49-.28,68.1-38.57,1.53-.87-1.53-.87L1225.24,523l-.49-.28Z" style="fill:#73739c"/><path d="M1087.83,523.82l68.09,38.57L1087.83,601,1021,562.39l66.8-38.57m0-1.15-.49.29-66.8,38.56-1.5.87,1.5.87,66.8,38.56.49.29.5-.28,68.09-38.57,1.54-.87-1.54-.87L1088.32,523l-.5-.28Z" style="fill:#73739c"/><path d="M1224.75,445.54l68.09,38.56-68.09,38.57L1158,484.1l66.8-38.56m0-1.16-.5.29-66.8,38.57-1.5.86,1.5.87,66.8,38.57.5.28.49-.28,68.1-38.57,1.53-.87-1.53-.87-68.1-38.56-.49-.29Z" style="fill:#73739c"/><path d="M1087.83,445.54l68.09,38.56-68.09,38.57L1021,484.1l66.8-38.56m0-1.16-.49.29-66.8,38.57-1.5.86,1.5.87,66.8,38.57.49.28.5-.28L1156.41,485l1.54-.87-1.54-.87-68.09-38.56-.5-.29Z" style="fill:#73739c"/></g><g style="clip-path:url(#4c83aae0-f197-457b-84cb-43bbd3d0269e)"><path d="M1087.83-24.18l68.09,38.57L1087.83,53,1021,14.39l66.8-38.57m0-1.15-.49.29-66.8,38.56-1.5.87,1.5.86,66.8,38.57.49.29.5-.28,68.09-38.57,1.54-.87-1.54-.87L1088.32-25l-.5-.28Z" style="fill:#73739c"/><path d="M950.91-24.18,1019,14.39,950.91,53l-66.8-38.57,66.8-38.57m0-1.15-.49.29-66.8,38.56-1.5.87,1.5.86,66.8,38.57.49.29.5-.28,68.09-38.57,1.54-.87-1.54-.87L951.4-25l-.5-.28Z" style="fill:#73739c"/></g><g style="clip-path:url(#782721e2-caad-47ce-88c3-0a72a8bcb653)"><path d="M1087.83,54.11l68.09,38.56-68.09,38.57L1021,92.67l66.8-38.56m0-1.15-.49.28-66.8,38.57-1.5.86,1.5.87,66.8,38.57.49.28.5-.28,68.09-38.57,1.54-.87-1.54-.87-68.09-38.56-.5-.28Z" style="fill:#73739c"/><path d="M950.91,54.11,1019,92.67l-68.09,38.57-66.8-38.57,66.8-38.56m0-1.15-.49.28-66.8,38.57-1.5.86,1.5.87,66.8,38.57.49.28.5-.28,68.09-38.57,1.54-.87-1.54-.87L951.4,53.24l-.5-.28Z" style="fill:#73739c"/><path d="M1087.83-24.18l68.09,38.57L1087.83,53,1021,14.39l66.8-38.57m0-1.15-.49.29-66.8,38.56-1.5.87,1.5.86,66.8,38.57.49.29.5-.28,68.09-38.57,1.54-.87-1.54-.87L1088.32-25l-.5-.28Z" style="fill:#73739c"/><path d="M950.91-24.18,1019,14.39,950.91,53l-66.8-38.57,66.8-38.57m0-1.15-.49.29-66.8,38.56-1.5.87,1.5.86,66.8,38.57.49.29.5-.28,68.09-38.57,1.54-.87-1.54-.87L951.4-25l-.5-.28Z" style="fill:#73739c"/></g><g style="clip-path:url(#2456f3c8-d466-4072-9df8-06c6b9096b04)"><path d="M1087.83,132.39,1155.92,171l-68.09,38.57L1021,171l66.8-38.57m0-1.15-.49.29-66.8,38.56-1.5.87,1.5.87,66.8,38.56.49.29.5-.28,68.09-38.57L1158,171l-1.54-.87-68.09-38.57-.5-.28Z" style="fill:#73739c"/><path d="M950.91,132.39,1019,171l-68.09,38.57L884.11,171l66.8-38.57m0-1.15-.49.29-66.8,38.56-1.5.87,1.5.87,66.8,38.56.49.29.5-.28,68.09-38.57L1021,171l-1.54-.87L951.4,131.52l-.5-.28Z" style="fill:#73739c"/><path d="M1087.83,54.11l68.09,38.56-68.09,38.57L1021,92.67l66.8-38.56m0-1.15-.49.28-66.8,38.57-1.5.86,1.5.87,66.8,38.57.49.28.5-.28,68.09-38.57,1.54-.87-1.54-.87-68.09-38.56-.5-.28Z" style="fill:#73739c"/><path d="M950.91,54.11,1019,92.67l-68.09,38.57-66.8-38.57,66.8-38.56m0-1.15-.49.28-66.8,38.57-1.5.86,1.5.87,66.8,38.57.49.28.5-.28,68.09-38.57,1.54-.87-1.54-.87L951.4,53.24l-.5-.28Z" style="fill:#73739c"/><path d="M1087.83-24.18l68.09,38.57L1087.83,53,1021,14.39l66.8-38.57m0-1.15-.49.29-66.8,38.56-1.5.87,1.5.86,66.8,38.57.49.29.5-.28,68.09-38.57,1.54-.87-1.54-.87L1088.32-25l-.5-.28Z" style="fill:#73739c"/><path d="M950.91-24.18,1019,14.39,950.91,53l-66.8-38.57,66.8-38.57m0-1.15-.49.29-66.8,38.56-1.5.87,1.5.86,66.8,38.57.49.29.5-.28,68.09-38.57,1.54-.87-1.54-.87L951.4-25l-.5-.28Z" style="fill:#73739c"/></g><g style="clip-path:url(#78b113d7-e5d7-4202-a13a-01f8ee2386d7)"><path d="M1087.83,210.68l68.09,38.57-68.09,38.56L1021,249.25l66.8-38.57m0-1.15-.49.28-66.8,38.57-1.5.87,1.5.86,66.8,38.57.49.29.5-.29,68.09-38.56,1.54-.87-1.54-.87-68.09-38.57-.5-.28Z" style="fill:#73739c"/><path d="M950.91,210.68,1019,249.25l-68.09,38.56-66.8-38.56,66.8-38.57m0-1.15-.49.28-66.8,38.57-1.5.87,1.5.86,66.8,38.57.49.29.5-.29,68.09-38.56,1.54-.87-1.54-.87L951.4,209.81l-.5-.28Z" style="fill:#73739c"/><path d="M1087.83,132.39,1155.92,171l-68.09,38.57L1021,171l66.8-38.57m0-1.15-.49.29-66.8,38.56-1.5.87,1.5.87,66.8,38.56.49.29.5-.28,68.09-38.57L1158,171l-1.54-.87-68.09-38.57-.5-.28Z" style="fill:#73739c"/><path d="M950.91,132.39,1019,171l-68.09,38.57L884.11,171l66.8-38.57m0-1.15-.49.29-66.8,38.56-1.5.87,1.5.87,66.8,38.56.49.29.5-.28,68.09-38.57L1021,171l-1.54-.87L951.4,131.52l-.5-.28Z" style="fill:#73739c"/><path d="M1087.83,54.11l68.09,38.56-68.09,38.57L1021,92.67l66.8-38.56m0-1.15-.49.28-66.8,38.57-1.5.86,1.5.87,66.8,38.57.49.28.5-.28,68.09-38.57,1.54-.87-1.54-.87-68.09-38.56-.5-.28Z" style="fill:#73739c"/><path d="M950.91,54.11,1019,92.67l-68.09,38.57-66.8-38.57,66.8-38.56m0-1.15-.49.28-66.8,38.57-1.5.86,1.5.87,66.8,38.57.49.28.5-.28,68.09-38.57,1.54-.87-1.54-.87L951.4,53.24l-.5-.28Z" style="fill:#73739c"/></g><g style="clip-path:url(#a777ff3a-3fc4-4f2f-8320-7268a08b5498)"><path d="M1087.83,289l68.09,38.56-68.09,38.57L1021,327.53l66.8-38.56m0-1.16-.49.29-66.8,38.57-1.5.86,1.5.87,66.8,38.56.49.29.5-.28,68.09-38.57,1.54-.87-1.54-.87-68.09-38.57-.5-.28Z" style="fill:#73739c"/><path d="M950.91,289,1019,327.53,950.91,366.1l-66.8-38.57L950.91,289m0-1.16-.49.29-66.8,38.57-1.5.86,1.5.87L950.41,367l.49.29.5-.28,68.09-38.57,1.54-.87-1.54-.87L951.4,288.09l-.5-.28Z" style="fill:#73739c"/><path d="M1087.83,210.68l68.09,38.57-68.09,38.56L1021,249.25l66.8-38.57m0-1.15-.49.28-66.8,38.57-1.5.87,1.5.86,66.8,38.57.49.29.5-.29,68.09-38.56,1.54-.87-1.54-.87-68.09-38.57-.5-.28Z" style="fill:#73739c"/><path d="M950.91,210.68,1019,249.25l-68.09,38.56-66.8-38.56,66.8-38.57m0-1.15-.49.28-66.8,38.57-1.5.87,1.5.86,66.8,38.57.49.29.5-.29,68.09-38.56,1.54-.87-1.54-.87L951.4,209.81l-.5-.28Z" style="fill:#73739c"/><path d="M1087.83,132.39,1155.92,171l-68.09,38.57L1021,171l66.8-38.57m0-1.15-.49.29-66.8,38.56-1.5.87,1.5.87,66.8,38.56.49.29.5-.28,68.09-38.57L1158,171l-1.54-.87-68.09-38.57-.5-.28Z" style="fill:#73739c"/><path d="M950.91,132.39,1019,171l-68.09,38.57L884.11,171l66.8-38.57m0-1.15-.49.29-66.8,38.56-1.5.87,1.5.87,66.8,38.56.49.29.5-.28,68.09-38.57L1021,171l-1.54-.87L951.4,131.52l-.5-.28Z" style="fill:#73739c"/></g><g style="clip-path:url(#470f1e7e-0b12-468e-9a16-742b25d7b7b4)"><path d="M1087.83,367.25l68.09,38.57-68.09,38.56L1021,405.82l66.8-38.57m0-1.15-.49.29L1020.53,405l-1.5.87,1.5.86,66.8,38.57.49.29.5-.28,68.09-38.57,1.54-.87-1.54-.87-68.09-38.57-.5-.28Z" style="fill:#73739c"/><path d="M950.91,367.25,1019,405.82l-68.09,38.56-66.8-38.56,66.8-38.57m0-1.15-.49.29L883.61,405l-1.5.87,1.5.86,66.8,38.57.49.29.5-.28,68.09-38.57,1.54-.87-1.54-.87L951.4,366.38l-.5-.28Z" style="fill:#73739c"/><path d="M1087.83,289l68.09,38.56-68.09,38.57L1021,327.53l66.8-38.56m0-1.16-.49.29-66.8,38.57-1.5.86,1.5.87,66.8,38.56.49.29.5-.28,68.09-38.57,1.54-.87-1.54-.87-68.09-38.57-.5-.28Z" style="fill:#73739c"/><path d="M950.91,289,1019,327.53,950.91,366.1l-66.8-38.57L950.91,289m0-1.16-.49.29-66.8,38.57-1.5.86,1.5.87L950.41,367l.49.29.5-.28,68.09-38.57,1.54-.87-1.54-.87L951.4,288.09l-.5-.28Z" style="fill:#73739c"/><path d="M1087.83,210.68l68.09,38.57-68.09,38.56L1021,249.25l66.8-38.57m0-1.15-.49.28-66.8,38.57-1.5.87,1.5.86,66.8,38.57.49.29.5-.29,68.09-38.56,1.54-.87-1.54-.87-68.09-38.57-.5-.28Z" style="fill:#73739c"/><path d="M950.91,210.68,1019,249.25l-68.09,38.56-66.8-38.56,66.8-38.57m0-1.15-.49.28-66.8,38.57-1.5.87,1.5.86,66.8,38.57.49.29.5-.29,68.09-38.56,1.54-.87-1.54-.87L951.4,209.81l-.5-.28Z" style="fill:#73739c"/></g><g style="clip-path:url(#4f5fbe34-b382-4b0c-8629-a0baee07cc6d)"><path d="M1087.83,445.54l68.09,38.56-68.09,38.57L1021,484.1l66.8-38.56m0-1.16-.49.29-66.8,38.57-1.5.86,1.5.87,66.8,38.57.49.28.5-.28L1156.41,485l1.54-.87-1.54-.87-68.09-38.56-.5-.29Z" style="fill:#73739c"/><path d="M950.91,445.54,1019,484.1l-68.09,38.57-66.8-38.57,66.8-38.56m0-1.16-.49.29-66.8,38.57-1.5.86,1.5.87,66.8,38.57.49.28.5-.28L1019.49,485l1.54-.87-1.54-.87L951.4,444.67l-.5-.29Z" style="fill:#73739c"/><path d="M1087.83,367.25l68.09,38.57-68.09,38.56L1021,405.82l66.8-38.57m0-1.15-.49.29L1020.53,405l-1.5.87,1.5.86,66.8,38.57.49.29.5-.28,68.09-38.57,1.54-.87-1.54-.87-68.09-38.57-.5-.28Z" style="fill:#73739c"/><path d="M950.91,367.25,1019,405.82l-68.09,38.56-66.8-38.56,66.8-38.57m0-1.15-.49.29L883.61,405l-1.5.87,1.5.86,66.8,38.57.49.29.5-.28,68.09-38.57,1.54-.87-1.54-.87L951.4,366.38l-.5-.28Z" style="fill:#73739c"/><path d="M1087.83,289l68.09,38.56-68.09,38.57L1021,327.53l66.8-38.56m0-1.16-.49.29-66.8,38.57-1.5.86,1.5.87,66.8,38.56.49.29.5-.28,68.09-38.57,1.54-.87-1.54-.87-68.09-38.57-.5-.28Z" style="fill:#73739c"/><path d="M950.91,289,1019,327.53,950.91,366.1l-66.8-38.57L950.91,289m0-1.16-.49.29-66.8,38.57-1.5.86,1.5.87L950.41,367l.49.29.5-.28,68.09-38.57,1.54-.87-1.54-.87L951.4,288.09l-.5-.28Z" style="fill:#73739c"/></g><g style="clip-path:url(#73678d47-e6e9-411f-a737-b4334716290f)"><path d="M1087.83,523.82l68.09,38.57L1087.83,601,1021,562.39l66.8-38.57m0-1.15-.49.29-66.8,38.56-1.5.87,1.5.87,66.8,38.56.49.29.5-.28,68.09-38.57,1.54-.87-1.54-.87L1088.32,523l-.5-.28Z" style="fill:#73739c"/><path d="M950.91,523.82,1019,562.39,950.91,601l-66.8-38.57,66.8-38.57m0-1.15-.49.29-66.8,38.56-1.5.87,1.5.87,66.8,38.56.49.29.5-.28,68.09-38.57,1.54-.87-1.54-.87L951.4,523l-.5-.28Z" style="fill:#73739c"/><path d="M1087.83,445.54l68.09,38.56-68.09,38.57L1021,484.1l66.8-38.56m0-1.16-.49.29-66.8,38.57-1.5.86,1.5.87,66.8,38.57.49.28.5-.28L1156.41,485l1.54-.87-1.54-.87-68.09-38.56-.5-.29Z" style="fill:#73739c"/><path d="M950.91,445.54,1019,484.1l-68.09,38.57-66.8-38.57,66.8-38.56m0-1.16-.49.29-66.8,38.57-1.5.86,1.5.87,66.8,38.57.49.28.5-.28L1019.49,485l1.54-.87-1.54-.87L951.4,444.67l-.5-.29Z" style="fill:#73739c"/><path d="M1087.83,367.25l68.09,38.57-68.09,38.56L1021,405.82l66.8-38.57m0-1.15-.49.29L1020.53,405l-1.5.87,1.5.86,66.8,38.57.49.29.5-.28,68.09-38.57,1.54-.87-1.54-.87-68.09-38.57-.5-.28Z" style="fill:#73739c"/><path d="M950.91,367.25,1019,405.82l-68.09,38.56-66.8-38.56,66.8-38.57m0-1.15-.49.29L883.61,405l-1.5.87,1.5.86,66.8,38.57.49.29.5-.28,68.09-38.57,1.54-.87-1.54-.87L951.4,366.38l-.5-.28Z" style="fill:#73739c"/></g><g style="clip-path:url(#41bc4223-e581-43ff-b71f-df21e959bee0)"><path d="M1087.83,602.11l68.09,38.57-68.09,38.56L1021,640.68l66.8-38.57m0-1.15-.49.28-66.8,38.57-1.5.87,1.5.86,66.8,38.57.49.28.5-.28,68.09-38.56,1.54-.87-1.54-.87-68.09-38.57-.5-.28Z" style="fill:#73739c"/><path d="M950.91,602.11,1019,640.68l-68.09,38.56-66.8-38.56,66.8-38.57m0-1.15-.49.28-66.8,38.57-1.5.87,1.5.86,66.8,38.57.49.28.5-.28,68.09-38.56,1.54-.87-1.54-.87L951.4,601.24l-.5-.28Z" style="fill:#73739c"/><path d="M1087.83,523.82l68.09,38.57L1087.83,601,1021,562.39l66.8-38.57m0-1.15-.49.29-66.8,38.56-1.5.87,1.5.87,66.8,38.56.49.29.5-.28,68.09-38.57,1.54-.87-1.54-.87L1088.32,523l-.5-.28Z" style="fill:#73739c"/><path d="M950.91,523.82,1019,562.39,950.91,601l-66.8-38.57,66.8-38.57m0-1.15-.49.29-66.8,38.56-1.5.87,1.5.87,66.8,38.56.49.29.5-.28,68.09-38.57,1.54-.87-1.54-.87L951.4,523l-.5-.28Z" style="fill:#73739c"/><path d="M1087.83,445.54l68.09,38.56-68.09,38.57L1021,484.1l66.8-38.56m0-1.16-.49.29-66.8,38.57-1.5.86,1.5.87,66.8,38.57.49.28.5-.28L1156.41,485l1.54-.87-1.54-.87-68.09-38.56-.5-.29Z" style="fill:#73739c"/><path d="M950.91,445.54,1019,484.1l-68.09,38.57-66.8-38.57,66.8-38.56m0-1.16-.49.29-66.8,38.57-1.5.86,1.5.87,66.8,38.57.49.28.5-.28L1019.49,485l1.54-.87-1.54-.87L951.4,444.67l-.5-.29Z" style="fill:#73739c"/></g><g style="clip-path:url(#bdfd789a-5321-4533-903e-1f1d667be5d3)"><path d="M950.91-24.18,1019,14.39,950.91,53l-66.8-38.57,66.8-38.57m0-1.15-.49.29-66.8,38.56-1.5.87,1.5.86,66.8,38.57.49.29.5-.28,68.09-38.57,1.54-.87-1.54-.87L951.4-25l-.5-.28Z" style="fill:#73739c"/><path d="M814-24.18l68.09,38.57L814,53l-66.8-38.57L814-24.18m0-1.15-.49.29-66.8,38.56-1.5.87,1.5.86,66.8,38.57.49.29.5-.28,68.09-38.57,1.54-.87-1.54-.87L814.48-25l-.5-.28Z" style="fill:#73739c"/></g><g style="clip-path:url(#64a7e0e0-7650-4bb6-91bb-8487ef585b64)"><path d="M950.91,54.11,1019,92.67l-68.09,38.57-66.8-38.57,66.8-38.56m0-1.15-.49.28-66.8,38.57-1.5.86,1.5.87,66.8,38.57.49.28.5-.28,68.09-38.57,1.54-.87-1.54-.87L951.4,53.24l-.5-.28Z" style="fill:#73739c"/><path d="M814,54.11l68.09,38.56L814,131.24l-66.8-38.57L814,54.11M814,53l-.49.28-66.8,38.57-1.5.86,1.5.87,66.8,38.57.49.28.5-.28,68.09-38.57,1.54-.87-1.54-.87L814.48,53.24,814,53Z" style="fill:#73739c"/><path d="M950.91-24.18,1019,14.39,950.91,53l-66.8-38.57,66.8-38.57m0-1.15-.49.29-66.8,38.56-1.5.87,1.5.86,66.8,38.57.49.29.5-.28,68.09-38.57,1.54-.87-1.54-.87L951.4-25l-.5-.28Z" style="fill:#73739c"/><path d="M814-24.18l68.09,38.57L814,53l-66.8-38.57L814-24.18m0-1.15-.49.29-66.8,38.56-1.5.87,1.5.86,66.8,38.57.49.29.5-.28,68.09-38.57,1.54-.87-1.54-.87L814.48-25l-.5-.28Z" style="fill:#73739c"/></g><g style="clip-path:url(#098788ac-a871-47c5-b74e-23190416c7ae)"><path d="M950.91,132.39,1019,171l-68.09,38.57L884.11,171l66.8-38.57m0-1.15-.49.29-66.8,38.56-1.5.87,1.5.87,66.8,38.56.49.29.5-.28,68.09-38.57L1021,171l-1.54-.87L951.4,131.52l-.5-.28Z" style="fill:#73739c"/><path d="M814,132.39,882.08,171,814,209.53,747.19,171,814,132.39m0-1.15-.49.29-66.8,38.56-1.5.87,1.5.87,66.8,38.56.49.29.5-.28,68.09-38.57,1.54-.87-1.54-.87-68.09-38.57-.5-.28Z" style="fill:#73739c"/><path d="M950.91,54.11,1019,92.67l-68.09,38.57-66.8-38.57,66.8-38.56m0-1.15-.49.28-66.8,38.57-1.5.86,1.5.87,66.8,38.57.49.28.5-.28,68.09-38.57,1.54-.87-1.54-.87L951.4,53.24l-.5-.28Z" style="fill:#73739c"/><path d="M814,54.11l68.09,38.56L814,131.24l-66.8-38.57L814,54.11M814,53l-.49.28-66.8,38.57-1.5.86,1.5.87,66.8,38.57.49.28.5-.28,68.09-38.57,1.54-.87-1.54-.87L814.48,53.24,814,53Z" style="fill:#73739c"/><path d="M950.91-24.18,1019,14.39,950.91,53l-66.8-38.57,66.8-38.57m0-1.15-.49.29-66.8,38.56-1.5.87,1.5.86,66.8,38.57.49.29.5-.28,68.09-38.57,1.54-.87-1.54-.87L951.4-25l-.5-.28Z" style="fill:#73739c"/><path d="M814-24.18l68.09,38.57L814,53l-66.8-38.57L814-24.18m0-1.15-.49.29-66.8,38.56-1.5.87,1.5.86,66.8,38.57.49.29.5-.28,68.09-38.57,1.54-.87-1.54-.87L814.48-25l-.5-.28Z" style="fill:#73739c"/></g><g style="clip-path:url(#466289ad-cae0-440f-b45a-0462f586c081)"><path d="M950.91,210.68,1019,249.25l-68.09,38.56-66.8-38.56,66.8-38.57m0-1.15-.49.28-66.8,38.57-1.5.87,1.5.86,66.8,38.57.49.29.5-.29,68.09-38.56,1.54-.87-1.54-.87L951.4,209.81l-.5-.28Z" style="fill:#73739c"/><path d="M814,210.68l68.09,38.57L814,287.81l-66.8-38.56L814,210.68m0-1.15-.49.28-66.8,38.57-1.5.87,1.5.86,66.8,38.57.49.29.5-.29,68.09-38.56,1.54-.87-1.54-.87-68.09-38.57-.5-.28Z" style="fill:#73739c"/><path d="M950.91,132.39,1019,171l-68.09,38.57L884.11,171l66.8-38.57m0-1.15-.49.29-66.8,38.56-1.5.87,1.5.87,66.8,38.56.49.29.5-.28,68.09-38.57L1021,171l-1.54-.87L951.4,131.52l-.5-.28Z" style="fill:#73739c"/><path d="M814,132.39,882.08,171,814,209.53,747.19,171,814,132.39m0-1.15-.49.29-66.8,38.56-1.5.87,1.5.87,66.8,38.56.49.29.5-.28,68.09-38.57,1.54-.87-1.54-.87-68.09-38.57-.5-.28Z" style="fill:#73739c"/><path d="M950.91,54.11,1019,92.67l-68.09,38.57-66.8-38.57,66.8-38.56m0-1.15-.49.28-66.8,38.57-1.5.86,1.5.87,66.8,38.57.49.28.5-.28,68.09-38.57,1.54-.87-1.54-.87L951.4,53.24l-.5-.28Z" style="fill:#73739c"/><path d="M814,54.11l68.09,38.56L814,131.24l-66.8-38.57L814,54.11M814,53l-.49.28-66.8,38.57-1.5.86,1.5.87,66.8,38.57.49.28.5-.28,68.09-38.57,1.54-.87-1.54-.87L814.48,53.24,814,53Z" style="fill:#73739c"/></g><g style="clip-path:url(#e995f515-3d3a-4879-ad8d-34264084fc2e)"><path d="M950.91,289,1019,327.53,950.91,366.1l-66.8-38.57L950.91,289m0-1.16-.49.29-66.8,38.57-1.5.86,1.5.87L950.41,367l.49.29.5-.28,68.09-38.57,1.54-.87-1.54-.87L951.4,288.09l-.5-.28Z" style="fill:#73739c"/><path d="M814,289l68.09,38.56L814,366.1l-66.8-38.57L814,289m0-1.16-.49.29-66.8,38.57-1.5.86,1.5.87L813.49,367l.49.29.5-.28,68.09-38.57,1.54-.87-1.54-.87-68.09-38.57-.5-.28Z" style="fill:#73739c"/><path d="M950.91,210.68,1019,249.25l-68.09,38.56-66.8-38.56,66.8-38.57m0-1.15-.49.28-66.8,38.57-1.5.87,1.5.86,66.8,38.57.49.29.5-.29,68.09-38.56,1.54-.87-1.54-.87L951.4,209.81l-.5-.28Z" style="fill:#73739c"/><path d="M814,210.68l68.09,38.57L814,287.81l-66.8-38.56L814,210.68m0-1.15-.49.28-66.8,38.57-1.5.87,1.5.86,66.8,38.57.49.29.5-.29,68.09-38.56,1.54-.87-1.54-.87-68.09-38.57-.5-.28Z" style="fill:#73739c"/><path d="M950.91,132.39,1019,171l-68.09,38.57L884.11,171l66.8-38.57m0-1.15-.49.29-66.8,38.56-1.5.87,1.5.87,66.8,38.56.49.29.5-.28,68.09-38.57L1021,171l-1.54-.87L951.4,131.52l-.5-.28Z" style="fill:#73739c"/><path d="M814,132.39,882.08,171,814,209.53,747.19,171,814,132.39m0-1.15-.49.29-66.8,38.56-1.5.87,1.5.87,66.8,38.56.49.29.5-.28,68.09-38.57,1.54-.87-1.54-.87-68.09-38.57-.5-.28Z" style="fill:#73739c"/></g><g style="clip-path:url(#0b0f0771-57cd-4f80-b1d0-74dddcae2c9e)"><path d="M950.91,367.25,1019,405.82l-68.09,38.56-66.8-38.56,66.8-38.57m0-1.15-.49.29L883.61,405l-1.5.87,1.5.86,66.8,38.57.49.29.5-.28,68.09-38.57,1.54-.87-1.54-.87L951.4,366.38l-.5-.28Z" style="fill:#73739c"/><path d="M814,367.25l68.09,38.57L814,444.38l-66.8-38.56L814,367.25m0-1.15-.49.29L746.69,405l-1.5.87,1.5.86,66.8,38.57.49.29.5-.28,68.09-38.57,1.54-.87-1.54-.87-68.09-38.57-.5-.28Z" style="fill:#73739c"/><path d="M950.91,289,1019,327.53,950.91,366.1l-66.8-38.57L950.91,289m0-1.16-.49.29-66.8,38.57-1.5.86,1.5.87L950.41,367l.49.29.5-.28,68.09-38.57,1.54-.87-1.54-.87L951.4,288.09l-.5-.28Z" style="fill:#73739c"/><path d="M814,289l68.09,38.56L814,366.1l-66.8-38.57L814,289m0-1.16-.49.29-66.8,38.57-1.5.86,1.5.87L813.49,367l.49.29.5-.28,68.09-38.57,1.54-.87-1.54-.87-68.09-38.57-.5-.28Z" style="fill:#73739c"/><path d="M950.91,210.68,1019,249.25l-68.09,38.56-66.8-38.56,66.8-38.57m0-1.15-.49.28-66.8,38.57-1.5.87,1.5.86,66.8,38.57.49.29.5-.29,68.09-38.56,1.54-.87-1.54-.87L951.4,209.81l-.5-.28Z" style="fill:#73739c"/><path d="M814,210.68l68.09,38.57L814,287.81l-66.8-38.56L814,210.68m0-1.15-.49.28-66.8,38.57-1.5.87,1.5.86,66.8,38.57.49.29.5-.29,68.09-38.56,1.54-.87-1.54-.87-68.09-38.57-.5-.28Z" style="fill:#73739c"/></g><g style="clip-path:url(#bd91c38c-c2f2-4760-8e17-794460daf1b7)"><path d="M950.91,445.54,1019,484.1l-68.09,38.57-66.8-38.57,66.8-38.56m0-1.16-.49.29-66.8,38.57-1.5.86,1.5.87,66.8,38.57.49.28.5-.28L1019.49,485l1.54-.87-1.54-.87L951.4,444.67l-.5-.29Z" style="fill:#73739c"/><path d="M814,445.54l68.09,38.56L814,522.67l-66.8-38.57L814,445.54m0-1.16-.49.29-66.8,38.57-1.5.86,1.5.87,66.8,38.57.49.28.5-.28L882.57,485l1.54-.87-1.54-.87-68.09-38.56-.5-.29Z" style="fill:#73739c"/><path d="M950.91,367.25,1019,405.82l-68.09,38.56-66.8-38.56,66.8-38.57m0-1.15-.49.29L883.61,405l-1.5.87,1.5.86,66.8,38.57.49.29.5-.28,68.09-38.57,1.54-.87-1.54-.87L951.4,366.38l-.5-.28Z" style="fill:#73739c"/><path d="M814,367.25l68.09,38.57L814,444.38l-66.8-38.56L814,367.25m0-1.15-.49.29L746.69,405l-1.5.87,1.5.86,66.8,38.57.49.29.5-.28,68.09-38.57,1.54-.87-1.54-.87-68.09-38.57-.5-.28Z" style="fill:#73739c"/><path d="M950.91,289,1019,327.53,950.91,366.1l-66.8-38.57L950.91,289m0-1.16-.49.29-66.8,38.57-1.5.86,1.5.87L950.41,367l.49.29.5-.28,68.09-38.57,1.54-.87-1.54-.87L951.4,288.09l-.5-.28Z" style="fill:#73739c"/><path d="M814,289l68.09,38.56L814,366.1l-66.8-38.57L814,289m0-1.16-.49.29-66.8,38.57-1.5.86,1.5.87L813.49,367l.49.29.5-.28,68.09-38.57,1.54-.87-1.54-.87-68.09-38.57-.5-.28Z" style="fill:#73739c"/></g><g style="clip-path:url(#707dd6e9-504e-4aba-a5f3-6e9b6728b72d)"><path d="M950.91,523.82,1019,562.39,950.91,601l-66.8-38.57,66.8-38.57m0-1.15-.49.29-66.8,38.56-1.5.87,1.5.87,66.8,38.56.49.29.5-.28,68.09-38.57,1.54-.87-1.54-.87L951.4,523l-.5-.28Z" style="fill:#73739c"/><path d="M814,523.82l68.09,38.57L814,601l-66.8-38.57L814,523.82m0-1.15-.49.29-66.8,38.56-1.5.87,1.5.87,66.8,38.56.49.29.5-.28,68.09-38.57,1.54-.87-1.54-.87L814.48,523l-.5-.28Z" style="fill:#73739c"/><path d="M950.91,445.54,1019,484.1l-68.09,38.57-66.8-38.57,66.8-38.56m0-1.16-.49.29-66.8,38.57-1.5.86,1.5.87,66.8,38.57.49.28.5-.28L1019.49,485l1.54-.87-1.54-.87L951.4,444.67l-.5-.29Z" style="fill:#73739c"/><path d="M814,445.54l68.09,38.56L814,522.67l-66.8-38.57L814,445.54m0-1.16-.49.29-66.8,38.57-1.5.86,1.5.87,66.8,38.57.49.28.5-.28L882.57,485l1.54-.87-1.54-.87-68.09-38.56-.5-.29Z" style="fill:#73739c"/><path d="M950.91,367.25,1019,405.82l-68.09,38.56-66.8-38.56,66.8-38.57m0-1.15-.49.29L883.61,405l-1.5.87,1.5.86,66.8,38.57.49.29.5-.28,68.09-38.57,1.54-.87-1.54-.87L951.4,366.38l-.5-.28Z" style="fill:#73739c"/><path d="M814,367.25l68.09,38.57L814,444.38l-66.8-38.56L814,367.25m0-1.15-.49.29L746.69,405l-1.5.87,1.5.86,66.8,38.57.49.29.5-.28,68.09-38.57,1.54-.87-1.54-.87-68.09-38.57-.5-.28Z" style="fill:#73739c"/></g><g style="clip-path:url(#65959786-d972-41c1-a314-8c2f3b0c7996)"><path d="M950.91,602.11,1019,640.68l-68.09,38.56-66.8-38.56,66.8-38.57m0-1.15-.49.28-66.8,38.57-1.5.87,1.5.86,66.8,38.57.49.28.5-.28,68.09-38.56,1.54-.87-1.54-.87L951.4,601.24l-.5-.28Z" style="fill:#73739c"/><path d="M814,602.11l68.09,38.57L814,679.24l-66.8-38.56L814,602.11m0-1.15-.49.28-66.8,38.57-1.5.87,1.5.86,66.8,38.57.49.28.5-.28,68.09-38.56,1.54-.87-1.54-.87-68.09-38.57L814,601Z" style="fill:#73739c"/><path d="M950.91,523.82,1019,562.39,950.91,601l-66.8-38.57,66.8-38.57m0-1.15-.49.29-66.8,38.56-1.5.87,1.5.87,66.8,38.56.49.29.5-.28,68.09-38.57,1.54-.87-1.54-.87L951.4,523l-.5-.28Z" style="fill:#73739c"/><path d="M814,523.82l68.09,38.57L814,601l-66.8-38.57L814,523.82m0-1.15-.49.29-66.8,38.56-1.5.87,1.5.87,66.8,38.56.49.29.5-.28,68.09-38.57,1.54-.87-1.54-.87L814.48,523l-.5-.28Z" style="fill:#73739c"/><path d="M950.91,445.54,1019,484.1l-68.09,38.57-66.8-38.57,66.8-38.56m0-1.16-.49.29-66.8,38.57-1.5.86,1.5.87,66.8,38.57.49.28.5-.28L1019.49,485l1.54-.87-1.54-.87L951.4,444.67l-.5-.29Z" style="fill:#73739c"/><path d="M814,445.54l68.09,38.56L814,522.67l-66.8-38.57L814,445.54m0-1.16-.49.29-66.8,38.57-1.5.86,1.5.87,66.8,38.57.49.28.5-.28L882.57,485l1.54-.87-1.54-.87-68.09-38.56-.5-.29Z" style="fill:#73739c"/></g><g style="clip-path:url(#afc46d93-7fc6-42ad-9c32-c2b99a44f642)"><path d="M814-24.18l68.09,38.57L814,53l-66.8-38.57L814-24.18m0-1.15-.49.29-66.8,38.56-1.5.87,1.5.86,66.8,38.57.49.29.5-.28,68.09-38.57,1.54-.87-1.54-.87L814.48-25l-.5-.28Z" style="fill:#73739c"/><path d="M677.07-24.18l68.09,38.57L677.07,53l-66.8-38.57,66.8-38.57m0-1.15-.49.29-66.8,38.56-1.5.87,1.5.86,66.8,38.57.49.29.5-.28,68.09-38.57,1.54-.87-1.54-.87L677.56-25l-.5-.28Z" style="fill:#73739c"/></g><g style="clip-path:url(#1cd36651-d0ae-46ae-ba85-eae42669ec42)"><path d="M814,54.11l68.09,38.56L814,131.24l-66.8-38.57L814,54.11M814,53l-.49.28-66.8,38.57-1.5.86,1.5.87,66.8,38.57.49.28.5-.28,68.09-38.57,1.54-.87-1.54-.87L814.48,53.24,814,53Z" style="fill:#73739c"/><path d="M677.07,54.11l68.09,38.56-68.09,38.57-66.8-38.57,66.8-38.56m0-1.15-.49.28-66.8,38.57-1.5.86,1.5.87,66.8,38.57.49.28.5-.28,68.09-38.57,1.54-.87-1.54-.87L677.56,53.24l-.5-.28Z" style="fill:#73739c"/><path d="M814-24.18l68.09,38.57L814,53l-66.8-38.57L814-24.18m0-1.15-.49.29-66.8,38.56-1.5.87,1.5.86,66.8,38.57.49.29.5-.28,68.09-38.57,1.54-.87-1.54-.87L814.48-25l-.5-.28Z" style="fill:#73739c"/><path d="M677.07-24.18l68.09,38.57L677.07,53l-66.8-38.57,66.8-38.57m0-1.15-.49.29-66.8,38.56-1.5.87,1.5.86,66.8,38.57.49.29.5-.28,68.09-38.57,1.54-.87-1.54-.87L677.56-25l-.5-.28Z" style="fill:#73739c"/></g><g style="clip-path:url(#ab5b21d0-2da8-499d-8f98-ac472107c1e1)"><path d="M814,132.39,882.08,171,814,209.53,747.19,171,814,132.39m0-1.15-.49.29-66.8,38.56-1.5.87,1.5.87,66.8,38.56.49.29.5-.28,68.09-38.57,1.54-.87-1.54-.87-68.09-38.57-.5-.28Z" style="fill:#73739c"/><path d="M677.07,132.39,745.16,171l-68.09,38.57L610.27,171l66.8-38.57m0-1.15-.49.29-66.8,38.56-1.5.87,1.5.87,66.8,38.56.49.29.5-.28,68.09-38.57,1.54-.87-1.54-.87-68.09-38.57-.5-.28Z" style="fill:#73739c"/><path d="M814,54.11l68.09,38.56L814,131.24l-66.8-38.57L814,54.11M814,53l-.49.28-66.8,38.57-1.5.86,1.5.87,66.8,38.57.49.28.5-.28,68.09-38.57,1.54-.87-1.54-.87L814.48,53.24,814,53Z" style="fill:#73739c"/><path d="M677.07,54.11l68.09,38.56-68.09,38.57-66.8-38.57,66.8-38.56m0-1.15-.49.28-66.8,38.57-1.5.86,1.5.87,66.8,38.57.49.28.5-.28,68.09-38.57,1.54-.87-1.54-.87L677.56,53.24l-.5-.28Z" style="fill:#73739c"/><path d="M814-24.18l68.09,38.57L814,53l-66.8-38.57L814-24.18m0-1.15-.49.29-66.8,38.56-1.5.87,1.5.86,66.8,38.57.49.29.5-.28,68.09-38.57,1.54-.87-1.54-.87L814.48-25l-.5-.28Z" style="fill:#73739c"/><path d="M677.07-24.18l68.09,38.57L677.07,53l-66.8-38.57,66.8-38.57m0-1.15-.49.29-66.8,38.56-1.5.87,1.5.86,66.8,38.57.49.29.5-.28,68.09-38.57,1.54-.87-1.54-.87L677.56-25l-.5-.28Z" style="fill:#73739c"/></g><g style="clip-path:url(#a4bca186-28e2-47eb-8f27-cb8122923eaf)"><path d="M814,210.68l68.09,38.57L814,287.81l-66.8-38.56L814,210.68m0-1.15-.49.28-66.8,38.57-1.5.87,1.5.86,66.8,38.57.49.29.5-.29,68.09-38.56,1.54-.87-1.54-.87-68.09-38.57-.5-.28Z" style="fill:#73739c"/><path d="M677.07,210.68l68.09,38.57-68.09,38.56-66.8-38.56,66.8-38.57m0-1.15-.49.28-66.8,38.57-1.5.87,1.5.86,66.8,38.57.49.29.5-.29,68.09-38.56,1.54-.87-1.54-.87-68.09-38.57-.5-.28Z" style="fill:#73739c"/><path d="M814,132.39,882.08,171,814,209.53,747.19,171,814,132.39m0-1.15-.49.29-66.8,38.56-1.5.87,1.5.87,66.8,38.56.49.29.5-.28,68.09-38.57,1.54-.87-1.54-.87-68.09-38.57-.5-.28Z" style="fill:#73739c"/><path d="M677.07,132.39,745.16,171l-68.09,38.57L610.27,171l66.8-38.57m0-1.15-.49.29-66.8,38.56-1.5.87,1.5.87,66.8,38.56.49.29.5-.28,68.09-38.57,1.54-.87-1.54-.87-68.09-38.57-.5-.28Z" style="fill:#73739c"/><path d="M814,54.11l68.09,38.56L814,131.24l-66.8-38.57L814,54.11M814,53l-.49.28-66.8,38.57-1.5.86,1.5.87,66.8,38.57.49.28.5-.28,68.09-38.57,1.54-.87-1.54-.87L814.48,53.24,814,53Z" style="fill:#73739c"/><path d="M677.07,54.11l68.09,38.56-68.09,38.57-66.8-38.57,66.8-38.56m0-1.15-.49.28-66.8,38.57-1.5.86,1.5.87,66.8,38.57.49.28.5-.28,68.09-38.57,1.54-.87-1.54-.87L677.56,53.24l-.5-.28Z" style="fill:#73739c"/></g><g style="clip-path:url(#7066670d-a376-4ef4-9d68-1d7f81383c4d)"><path d="M814,289l68.09,38.56L814,366.1l-66.8-38.57L814,289m0-1.16-.49.29-66.8,38.57-1.5.86,1.5.87L813.49,367l.49.29.5-.28,68.09-38.57,1.54-.87-1.54-.87-68.09-38.57-.5-.28Z" style="fill:#73739c"/><path d="M677.07,289l68.09,38.56L677.07,366.1l-66.8-38.57L677.07,289m0-1.16-.49.29-66.8,38.57-1.5.86,1.5.87L676.57,367l.49.29.5-.28,68.09-38.57,1.54-.87-1.54-.87-68.09-38.57-.5-.28Z" style="fill:#73739c"/><path d="M814,210.68l68.09,38.57L814,287.81l-66.8-38.56L814,210.68m0-1.15-.49.28-66.8,38.57-1.5.87,1.5.86,66.8,38.57.49.29.5-.29,68.09-38.56,1.54-.87-1.54-.87-68.09-38.57-.5-.28Z" style="fill:#73739c"/><path d="M677.07,210.68l68.09,38.57-68.09,38.56-66.8-38.56,66.8-38.57m0-1.15-.49.28-66.8,38.57-1.5.87,1.5.86,66.8,38.57.49.29.5-.29,68.09-38.56,1.54-.87-1.54-.87-68.09-38.57-.5-.28Z" style="fill:#73739c"/><path d="M814,132.39,882.08,171,814,209.53,747.19,171,814,132.39m0-1.15-.49.29-66.8,38.56-1.5.87,1.5.87,66.8,38.56.49.29.5-.28,68.09-38.57,1.54-.87-1.54-.87-68.09-38.57-.5-.28Z" style="fill:#73739c"/><path d="M677.07,132.39,745.16,171l-68.09,38.57L610.27,171l66.8-38.57m0-1.15-.49.29-66.8,38.56-1.5.87,1.5.87,66.8,38.56.49.29.5-.28,68.09-38.57,1.54-.87-1.54-.87-68.09-38.57-.5-.28Z" style="fill:#73739c"/></g><g style="clip-path:url(#62309194-bf37-4668-906a-3e50c1ca8adb)"><path d="M814,367.25l68.09,38.57L814,444.38l-66.8-38.56L814,367.25m0-1.15-.49.29L746.69,405l-1.5.87,1.5.86,66.8,38.57.49.29.5-.28,68.09-38.57,1.54-.87-1.54-.87-68.09-38.57-.5-.28Z" style="fill:#73739c"/><path d="M677.07,367.25l68.09,38.57-68.09,38.56-66.8-38.56,66.8-38.57m0-1.15-.49.29L609.77,405l-1.5.87,1.5.86,66.8,38.57.49.29.5-.28,68.09-38.57,1.54-.87-1.54-.87-68.09-38.57-.5-.28Z" style="fill:#73739c"/><path d="M814,289l68.09,38.56L814,366.1l-66.8-38.57L814,289m0-1.16-.49.29-66.8,38.57-1.5.86,1.5.87L813.49,367l.49.29.5-.28,68.09-38.57,1.54-.87-1.54-.87-68.09-38.57-.5-.28Z" style="fill:#73739c"/><path d="M677.07,289l68.09,38.56L677.07,366.1l-66.8-38.57L677.07,289m0-1.16-.49.29-66.8,38.57-1.5.86,1.5.87L676.57,367l.49.29.5-.28,68.09-38.57,1.54-.87-1.54-.87-68.09-38.57-.5-.28Z" style="fill:#73739c"/><path d="M814,210.68l68.09,38.57L814,287.81l-66.8-38.56L814,210.68m0-1.15-.49.28-66.8,38.57-1.5.87,1.5.86,66.8,38.57.49.29.5-.29,68.09-38.56,1.54-.87-1.54-.87-68.09-38.57-.5-.28Z" style="fill:#73739c"/><path d="M677.07,210.68l68.09,38.57-68.09,38.56-66.8-38.56,66.8-38.57m0-1.15-.49.28-66.8,38.57-1.5.87,1.5.86,66.8,38.57.49.29.5-.29,68.09-38.56,1.54-.87-1.54-.87-68.09-38.57-.5-.28Z" style="fill:#73739c"/></g><g style="clip-path:url(#dcfdd15c-46ad-4826-b9ae-7d7cb30679e9)"><path d="M814,445.54l68.09,38.56L814,522.67l-66.8-38.57L814,445.54m0-1.16-.49.29-66.8,38.57-1.5.86,1.5.87,66.8,38.57.49.28.5-.28L882.57,485l1.54-.87-1.54-.87-68.09-38.56-.5-.29Z" style="fill:#73739c"/><path d="M677.07,445.54l68.09,38.56-68.09,38.57-66.8-38.57,66.8-38.56m0-1.16-.49.29-66.8,38.57-1.5.86,1.5.87,66.8,38.57.49.28.5-.28L745.65,485l1.54-.87-1.54-.87-68.09-38.56-.5-.29Z" style="fill:#73739c"/><path d="M814,367.25l68.09,38.57L814,444.38l-66.8-38.56L814,367.25m0-1.15-.49.29L746.69,405l-1.5.87,1.5.86,66.8,38.57.49.29.5-.28,68.09-38.57,1.54-.87-1.54-.87-68.09-38.57-.5-.28Z" style="fill:#73739c"/><path d="M677.07,367.25l68.09,38.57-68.09,38.56-66.8-38.56,66.8-38.57m0-1.15-.49.29L609.77,405l-1.5.87,1.5.86,66.8,38.57.49.29.5-.28,68.09-38.57,1.54-.87-1.54-.87-68.09-38.57-.5-.28Z" style="fill:#73739c"/><path d="M814,289l68.09,38.56L814,366.1l-66.8-38.57L814,289m0-1.16-.49.29-66.8,38.57-1.5.86,1.5.87L813.49,367l.49.29.5-.28,68.09-38.57,1.54-.87-1.54-.87-68.09-38.57-.5-.28Z" style="fill:#73739c"/><path d="M677.07,289l68.09,38.56L677.07,366.1l-66.8-38.57L677.07,289m0-1.16-.49.29-66.8,38.57-1.5.86,1.5.87L676.57,367l.49.29.5-.28,68.09-38.57,1.54-.87-1.54-.87-68.09-38.57-.5-.28Z" style="fill:#73739c"/></g><g style="clip-path:url(#af0241f0-d434-4c62-ac22-54a9b82740d7)"><path d="M814,523.82l68.09,38.57L814,601l-66.8-38.57L814,523.82m0-1.15-.49.29-66.8,38.56-1.5.87,1.5.87,66.8,38.56.49.29.5-.28,68.09-38.57,1.54-.87-1.54-.87L814.48,523l-.5-.28Z" style="fill:#73739c"/><path d="M677.07,523.82l68.09,38.57L677.07,601l-66.8-38.57,66.8-38.57m0-1.15-.49.29-66.8,38.56-1.5.87,1.5.87,66.8,38.56.49.29.5-.28,68.09-38.57,1.54-.87-1.54-.87L677.56,523l-.5-.28Z" style="fill:#73739c"/><path d="M814,445.54l68.09,38.56L814,522.67l-66.8-38.57L814,445.54m0-1.16-.49.29-66.8,38.57-1.5.86,1.5.87,66.8,38.57.49.28.5-.28L882.57,485l1.54-.87-1.54-.87-68.09-38.56-.5-.29Z" style="fill:#73739c"/><path d="M677.07,445.54l68.09,38.56-68.09,38.57-66.8-38.57,66.8-38.56m0-1.16-.49.29-66.8,38.57-1.5.86,1.5.87,66.8,38.57.49.28.5-.28L745.65,485l1.54-.87-1.54-.87-68.09-38.56-.5-.29Z" style="fill:#73739c"/><path d="M814,367.25l68.09,38.57L814,444.38l-66.8-38.56L814,367.25m0-1.15-.49.29L746.69,405l-1.5.87,1.5.86,66.8,38.57.49.29.5-.28,68.09-38.57,1.54-.87-1.54-.87-68.09-38.57-.5-.28Z" style="fill:#73739c"/><path d="M677.07,367.25l68.09,38.57-68.09,38.56-66.8-38.56,66.8-38.57m0-1.15-.49.29L609.77,405l-1.5.87,1.5.86,66.8,38.57.49.29.5-.28,68.09-38.57,1.54-.87-1.54-.87-68.09-38.57-.5-.28Z" style="fill:#73739c"/></g><g style="clip-path:url(#ff1e17f1-bd23-4763-ad0b-70a7834d9549)"><path d="M814,602.11l68.09,38.57L814,679.24l-66.8-38.56L814,602.11m0-1.15-.49.28-66.8,38.57-1.5.87,1.5.86,66.8,38.57.49.28.5-.28,68.09-38.56,1.54-.87-1.54-.87-68.09-38.57L814,601Z" style="fill:#73739c"/><path d="M677.07,602.11l68.09,38.57-68.09,38.56-66.8-38.56,66.8-38.57m0-1.15-.49.28-66.8,38.57-1.5.87,1.5.86,66.8,38.57.49.28.5-.28,68.09-38.56,1.54-.87-1.54-.87-68.09-38.57-.5-.28Z" style="fill:#73739c"/><path d="M814,523.82l68.09,38.57L814,601l-66.8-38.57L814,523.82m0-1.15-.49.29-66.8,38.56-1.5.87,1.5.87,66.8,38.56.49.29.5-.28,68.09-38.57,1.54-.87-1.54-.87L814.48,523l-.5-.28Z" style="fill:#73739c"/><path d="M677.07,523.82l68.09,38.57L677.07,601l-66.8-38.57,66.8-38.57m0-1.15-.49.29-66.8,38.56-1.5.87,1.5.87,66.8,38.56.49.29.5-.28,68.09-38.57,1.54-.87-1.54-.87L677.56,523l-.5-.28Z" style="fill:#73739c"/><path d="M814,445.54l68.09,38.56L814,522.67l-66.8-38.57L814,445.54m0-1.16-.49.29-66.8,38.57-1.5.86,1.5.87,66.8,38.57.49.28.5-.28L882.57,485l1.54-.87-1.54-.87-68.09-38.56-.5-.29Z" style="fill:#73739c"/><path d="M677.07,445.54l68.09,38.56-68.09,38.57-66.8-38.57,66.8-38.56m0-1.16-.49.29-66.8,38.57-1.5.86,1.5.87,66.8,38.57.49.28.5-.28L745.65,485l1.54-.87-1.54-.87-68.09-38.56-.5-.29Z" style="fill:#73739c"/></g></g></g><g id="9b2996ff-bd2f-4eca-a3e6-ac16ad49751f" data-name="waves"><polygon points="993.88 304.1 1113.76 373.31 1232.99 304.47 1113.75 234.72 993.88 304.1" style="fill:none;stroke:#00d4ff;stroke-miterlimit:10;stroke-width:3px"/><polygon points="955.63 304.13 1113.86 395.48 1271.25 304.62 1113.85 212.54 955.63 304.13" style="fill:none;stroke:#00d4ff;stroke-miterlimit:10;stroke-width:3px;opacity:0.6000000000000001"/><polygon points="916.41 304.16 1113.96 418.22 1310.47 304.76 1113.95 189.81 916.41 304.16" style="fill:none;stroke:#00d4ff;stroke-miterlimit:10;stroke-width:3px;opacity:0.2"/></g><g style="clip-path:url(#69e84802-5b85-4830-8c30-1e68c7e9402b)"><polygon points="1186.01 373.34 1324.16 293.58 1267.07 260.62 1196.18 301.56 1047.86 215.92 1331.71 52.04 1338.21 63.3 1073.86 215.92 1196.18 286.54 1267.07 245.61 1350.16 293.58 1212.01 373.34 1338.54 446.4 1332.04 457.65 1186.01 373.34" style="fill:url(#40d0f642-9ef1-425e-9122-bbdc99800043)"/></g><polygon points="1195.21 102.5 1143.26 132.5 1113.73 149.54 1084.23 132.5 1032.27 102.5 1113.73 55.46 1195.21 102.5" style="fill:#e8e3f2"/><polygon points="1195.21 103.5 1143.26 133.5 1113.73 150.54 1113.73 56.46 1195.21 103.5" style="fill:#e2dcee"/><polygon points="1195.21 148.1 1143.26 178.1 1113.73 195.14 1084.23 178.1 1032.27 148.1 1113.73 101.06 1195.21 148.1" style="fill:#dad2e9"/><polygon points="1113.73 149.54 1113.73 351.14 1032.27 304.1 1032.27 102.5 1113.73 149.54" style="fill:#e2dcee"/><polygon points="1195.21 102.5 1195.21 304.1 1113.73 351.14 1113.73 149.54 1195.21 102.5" style="fill:#e8e3f2"/><polygon points="1113.73 252.07 983.13 176.66 1031.45 148.76 1031.45 162.75 1007.37 176.66 1113.73 238.08 1220.12 176.66 1196.03 162.75 1196.03 148.76 1244.36 176.66 1113.73 252.07" style="fill:url(#4fdc1cbe-4c5a-4e1b-8a4e-bef8cadd8692)"/><path d="M.12,511.05l72.33-41.76a414.52,414.52,0,0,1,414.5,0L0,188.15Z" style="fill:url(#6579fb6d-9efd-42c5-9d27-f36bf267d734)"/></g></svg>