<svg id="ffc6aa74-c72a-46de-bbd4-d59bc3128f19" data-name="Layer 1" xmlns="http://www.w3.org/2000/svg" xmlns:xlink="http://www.w3.org/1999/xlink" viewBox="0 0 1296 2093.55"><defs><linearGradient id="77d2d460-b920-424b-bc3d-d1484e472593" x1="-113.42" y1="-97.61" x2="112.41" y2="61.26" gradientUnits="userSpaceOnUse"><stop offset="0" stop-color="#d2d9f4"/><stop offset="1" stop-color="#fafdff"/></linearGradient><linearGradient id="532d635d-f962-42f1-b73e-c83583b3416f" x1="-7.07" y1="-24.93" x2="151.72" y2="86.77" xlink:href="#77d2d460-b920-424b-bc3d-d1484e472593"/><linearGradient id="b91ff314-b0ef-4b9c-bdbc-01b7adb63ce5" x1="-57.5" y1="-39.27" x2="168.32" y2="119.59" xlink:href="#77d2d460-b920-424b-bc3d-d1484e472593"/><linearGradient id="c3cd4d26-aef4-4457-96a7-804a49df06c6" x1="-145.72" y1="389.52" x2="84.64" y2="-9.46" gradientUnits="userSpaceOnUse"><stop offset="0" stop-color="#3d5ad1"/><stop offset="1" stop-color="#fff"/></linearGradient><linearGradient id="e8bd2a90-7695-48bb-9a9a-63acfe616005" x1="52.51" y1="39.55" x2="248.9" y2="379.72" gradientUnits="userSpaceOnUse"><stop offset="0" stop-color="#fff"/><stop offset="1" stop-color="#3d5ad1"/></linearGradient><linearGradient id="47b4222c-491d-4246-bb86-9c58a7ccb833" x1="-174" y1="61.27" x2="258.57" y2="61.27" gradientUnits="userSpaceOnUse"><stop offset="0" stop-color="#5c69ff"/><stop offset="0.5" stop-color="#e49cff"/><stop offset="1" stop-color="#ffe3fc"/></linearGradient><pattern id="12db47d8-0c10-45cb-88bb-0ed7206fe3e9" data-name="New Pattern 3" width="136.92" height="78.29" patternTransform="translate(43.67 -10)" patternUnits="userSpaceOnUse" viewBox="0 0 136.92 78.29"><rect width="136.92" height="78.29" style="fill:none"/><path d="M203.72,78.29l-66.8,38.56,66.8,38.57,68.09-38.57L203.72,78.29m0-1.16.49.29L272.31,116l1.53.87-1.53.87-68.1,38.57-.49.28-.5-.28-66.8-38.57-1.5-.87,1.5-.86,66.8-38.57.5-.29Z" style="fill:#001e96"/><path d="M66.8,78.29,0,116.85l66.8,38.57,68.09-38.57L66.8,78.29m0-1.16.49.29L135.38,116l1.54.87-1.54.87L67.29,156.29l-.49.28-.5-.28L-.5,117.72l-1.5-.87L-.5,116,66.3,77.42l.5-.29Z" style="fill:#001e96"/><path d="M203.72,0l-66.8,38.57,66.8,38.56,68.09-38.56L203.72,0m0-1.15.49.28,68.1,38.57,1.53.87-1.53.87L204.21,78l-.49.29-.5-.29-66.8-38.57-1.5-.86,1.5-.87L203.22-.87l.5-.28Z" style="fill:#001e96"/><path d="M66.8,0,0,38.57,66.8,77.13l68.09-38.56L66.8,0m0-1.15.49.28L135.38,37.7l1.54.87-1.54.87L67.29,78l-.49.29L66.3,78-.5,39.43-2,38.57l1.5-.87L66.3-.87l.5-.28Z" style="fill:#001e96"/></pattern><clipPath id="9f68e15a-840f-4931-91ea-58cb374ea2bc"><polygon points="1025.42 1882.02 1295.38 1882.02 1295.38 1223.08 1025.42 1365.23 1025.42 1882.02" style="fill:none"/></clipPath><linearGradient id="3aacb722-b623-4005-a192-251a53f11056" x1="1453.98" y1="1860.64" x2="991.44" y2="1025.79" xlink:href="#47b4222c-491d-4246-bb86-9c58a7ccb833"/><linearGradient id="02fe0a17-1673-41f3-8561-6f4697dbefd8" x1="324.9" y1="1931.48" x2="45.27" y2="1447.13" gradientUnits="userSpaceOnUse"><stop offset="0" stop-color="#858e9e" stop-opacity="0.8"/><stop offset="1" stop-color="#001336" stop-opacity="0"/></linearGradient><pattern id="43325231-97e7-4cc2-a258-8568c27dd834" data-name="New Pattern 3" width="136.92" height="78.29" patternTransform="translate(21.17 11)" patternUnits="userSpaceOnUse" viewBox="0 0 136.92 78.29"><rect width="136.92" height="78.29" style="fill:none"/><path d="M203.72,78.29l-66.8,38.56,66.8,38.57,68.09-38.57L203.72,78.29m0-1.16.49.29L272.31,116l1.53.87-1.53.87-68.1,38.57-.49.28-.5-.28-66.8-38.57-1.5-.87,1.5-.86,66.8-38.57.5-.29Z" style="fill:#001e96"/><path d="M66.8,78.29,0,116.85l66.8,38.57,68.09-38.57L66.8,78.29m0-1.16.49.29L135.38,116l1.54.87-1.54.87L67.29,156.29l-.49.28-.5-.28L-.5,117.72l-1.5-.87L-.5,116,66.3,77.42l.5-.29Z" style="fill:#001e96"/><path d="M203.72,0l-66.8,38.57,66.8,38.56,68.09-38.56L203.72,0m0-1.15.49.28,68.1,38.57,1.53.87-1.53.87L204.21,78l-.49.29-.5-.29-66.8-38.57-1.5-.86,1.5-.87L203.22-.87l.5-.28Z" style="fill:#001e96"/><path d="M66.8,0,0,38.57,66.8,77.13l68.09-38.56L66.8,0m0-1.15.49.28L135.38,37.7l1.54.87-1.54.87L67.29,78l-.49.29L66.3,78-.5,39.43-2,38.57l1.5-.87L66.3-.87l.5-.28Z" style="fill:#001e96"/></pattern><linearGradient id="86df9892-a6e0-4acf-8751-7bc9fd2ed9b0" x1="1188.19" y1="576.68" x2="863.61" y2="14.49" gradientUnits="userSpaceOnUse"><stop offset="0" stop-color="#001336" stop-opacity="0"/><stop offset="1" stop-color="#42506a"/></linearGradient><linearGradient id="87a2719a-1a22-4657-863f-5d363fc4d09d" x1="1435.6" y1="659.8" x2="973.07" y2="-175.05" xlink:href="#47b4222c-491d-4246-bb86-9c58a7ccb833"/><symbol id="0b9b0ae7-065f-4455-875f-f2f932770968" data-name="New Symbol" viewBox="0 0 108.85 124.93"><polygon points="88.37 20.47 66.72 32.97 54.42 40.07 42.13 32.97 20.48 20.47 54.42 0.87 88.37 20.47" style="stroke:#e8ebf9;stroke-miterlimit:10;fill:url(#77d2d460-b920-424b-bc3d-d1484e472593)"/><polygon points="88.37 20.47 66.72 32.97 54.42 40.07 54.42 0.87 88.37 20.47" style="stroke:#e8ebf9;stroke-miterlimit:10;fill:url(#532d635d-f962-42f1-b73e-c83583b3416f)"/><polygon points="88.37 39.47 66.72 51.97 54.42 59.07 42.13 51.97 20.48 39.47 54.42 19.87 88.37 39.47" style="stroke:#dce1f7;stroke-miterlimit:10;fill:url(#b91ff314-b0ef-4b9c-bdbc-01b7adb63ce5)"/><polygon points="54.42 40.07 54.42 124.07 20.48 104.47 20.48 20.47 54.42 40.07" style="stroke:#e8ebf9;stroke-miterlimit:10;fill:url(#c3cd4d26-aef4-4457-96a7-804a49df06c6)"/><polygon points="88.37 20.47 88.37 104.47 54.42 124.07 54.42 40.07 88.37 20.47" style="stroke:#e8ebf9;stroke-miterlimit:10;fill:url(#e8bd2a90-7695-48bb-9a9a-63acfe616005)"/><polygon points="54.42 82.79 0 51.37 20.14 39.74 20.14 45.57 10.1 51.37 54.42 76.96 98.75 51.37 88.71 45.57 88.71 39.74 108.85 51.37 54.42 82.79" style="fill:url(#47b4222c-491d-4246-bb86-9c58a7ccb833)"/></symbol></defs><title>icons-bio</title><path d="M.71,1929.16,260.83,1779a298.85,298.85,0,0,1,298.89,0L1065,2070.83a136.36,136.36,0,0,0,136.35,0l94.69-54.67v-606.5h.3V32.25L1077.1,158.11A561.32,561.32,0,0,1,517,157.43l-197.4-114a301.37,301.37,0,0,0-301.36,0L0,54Z" style="fill:#001336"/><path d="M1412.65,1126.53,498.26,1654.45l631,364.31,726.63-419.52c125.17-72.27-30.05-342.55-155.22-414.82l-100.27-57.89A187.76,187.76,0,0,0,1412.65,1126.53Z" style="stroke:#3d5ad1;stroke-miterlimit:10;opacity:0.3;fill:url(#12db47d8-0c10-45cb-88bb-0ed7206fe3e9)"/><g id="56418c78-ede6-4558-8485-e0fd079cf731" data-name="waves"><polygon points="994.47 1552.21 1114.34 1621.41 1233.58 1552.57 1114.34 1482.82 994.47 1552.21" style="fill:none;stroke:#ffe3fc;stroke-miterlimit:10;stroke-width:2px"/><polygon points="956.21 1552.23 1114.45 1643.59 1271.84 1552.72 1114.43 1460.65 956.21 1552.23" style="fill:none;stroke:#ffe3fc;stroke-miterlimit:10;stroke-width:2px;opacity:0.6000000000000001"/><polygon points="917 1552.26 1114.55 1666.32 1311.06 1552.87 1114.54 1437.91 917 1552.26" style="fill:none;stroke:#ffe3fc;stroke-miterlimit:10;stroke-width:2px;opacity:0.2"/></g><g style="clip-path:url(#9f68e15a-840f-4931-91ea-58cb374ea2bc)"><polygon points="1186.6 1624.45 1324.75 1544.69 1267.66 1511.73 1196.77 1552.66 1048.44 1467.03 1332.3 1303.14 1338.8 1314.4 1074.44 1467.03 1196.77 1537.65 1267.66 1496.72 1350.75 1544.69 1212.6 1624.45 1339.13 1697.5 1332.63 1708.76 1186.6 1624.45" style="fill:url(#3aacb722-b623-4005-a192-251a53f11056)"/></g><use width="108.85" height="124.93" transform="translate(983.71 1301.48) scale(2.4)" xlink:href="#0b9b0ae7-065f-4455-875f-f2f932770968"/><path d="M.71,1929.16,260.83,1779a298.85,298.85,0,0,1,298.89,0h0L.57,1456Z" style="fill:url(#02fe0a17-1673-41f3-8561-6f4697dbefd8)"/><path d="M1296.3,1149.53V32.26L1077.1,158.11A561.32,561.32,0,0,1,517,157.43l-197.4-114a301.37,301.37,0,0,0-301.36,0L0,54V73.73L.11,411.18Z" style="opacity:0.3;fill:url(#43325231-97e7-4cc2-a258-8568c27dd834)"/><path d="M1077.8,157.7a561.3,561.3,0,0,1-551.53,4.19h0l770.05,444.58V32.25Z" style="fill:url(#86df9892-a6e0-4acf-8751-7bc9fd2ed9b0)"/><polygon points="1168.22 423.61 1306.37 343.85 1249.29 310.89 1178.39 351.82 1030.07 266.19 1313.92 102.31 1320.42 113.56 1056.07 266.19 1178.39 336.81 1249.29 295.88 1332.37 343.85 1194.22 423.61 1320.76 496.66 1314.26 507.92 1168.22 423.61" style="fill:url(#87a2719a-1a22-4657-863f-5d363fc4d09d)"/></svg>