<svg id="9e6ec445-41ee-4bd7-a89a-dce97834dd86" data-name="Layer 1" xmlns="http://www.w3.org/2000/svg" xmlns:xlink="http://www.w3.org/1999/xlink" viewBox="0 0 1296.32 1505.42"><defs><pattern id="c9a03f8a-0007-4c80-9394-807cd35caec4" data-name="New Pattern 3" width="136.92" height="78.29" patternTransform="translate(21.17 11)" patternUnits="userSpaceOnUse" viewBox="0 0 136.92 78.29"><rect width="136.92" height="78.29" style="fill:none"/><path d="M203.72,78.29l-66.8,38.56,66.8,38.57,68.09-38.57L203.72,78.29m0-1.16.49.29L272.31,116l1.53.87-1.53.87-68.1,38.57-.49.28-.5-.28-66.8-38.57-1.5-.87,1.5-.86,66.8-38.57.5-.29Z" style="fill:#001e96"/><path d="M66.8,78.29,0,116.85l66.8,38.57,68.09-38.57L66.8,78.29m0-1.16.49.29L135.38,116l1.54.87-1.54.87L67.29,156.29l-.49.28-.5-.28L-.5,117.72l-1.5-.87L-.5,116,66.3,77.42l.5-.29Z" style="fill:#001e96"/><path d="M203.72,0l-66.8,38.57,66.8,38.56,68.09-38.56L203.72,0m0-1.15.49.28,68.1,38.57,1.53.87-1.53.87L204.21,78l-.49.29-.5-.29-66.8-38.57-1.5-.86,1.5-.87L203.22-.87l.5-.28Z" style="fill:#001e96"/><path d="M66.8,0,0,38.57,66.8,77.13l68.09-38.56L66.8,0m0-1.15.49.28L135.38,37.7l1.54.87-1.54.87L67.29,78l-.49.29L66.3,78-.5,39.43-2,38.57l1.5-.87L66.3-.87l.5-.28Z" style="fill:#001e96"/></pattern><linearGradient id="66c3e294-cc16-42fa-98d2-a90fea33dd59" x1="149.1" y1="1302.76" x2="-70.99" y2="921.54" gradientUnits="userSpaceOnUse"><stop offset="0" stop-color="#5c69ff"/><stop offset="0.5" stop-color="#e49cff"/><stop offset="1" stop-color="#ffe3fc"/></linearGradient><linearGradient id="5168b76d-9b9c-48f6-96d1-7d9b2300ca60" x1="805.59" y1="1261.54" x2="895.79" y2="1417.77" gradientUnits="userSpaceOnUse"><stop offset="0" stop-color="#e49cff" stop-opacity="0"/><stop offset="1" stop-color="#3d5ad1" stop-opacity="0.8"/></linearGradient><linearGradient id="431648bb-e749-4876-9dbe-bf1a87659d18" x1="927.15" y1="1323.91" x2="1096.33" y2="1616.94" gradientUnits="userSpaceOnUse"><stop offset="0" stop-color="#fff"/><stop offset="1" stop-color="#d2d9f4"/></linearGradient><linearGradient id="70bab74f-b49f-4637-b8ec-6dc8a8e65d11" x1="-332.32" y1="1273.33" x2="-60.43" y2="1744.26" gradientTransform="matrix(-1, 0, 0, 1, 644.31, 0)" gradientUnits="userSpaceOnUse"><stop offset="0" stop-color="#fff"/><stop offset="1" stop-color="#3d5ad1"/></linearGradient></defs><title>team</title><path d="M1200.52,332.9a136.33,136.33,0,0,1-136.35,0L558.92,41.06A298.82,298.82,0,0,0,260,41L-.09,191.22v1093L235.1,1420a128.78,128.78,0,0,0,128.77,0h0a240.83,240.83,0,0,1,240.83,0l71.94,41.53a322.48,322.48,0,0,0,322.52,0L1296.21,1290V277.65Z" style="fill:#eff2fb"/><path d="M1200.52,332.9a136.33,136.33,0,0,1-136.35,0L558.92,41.06A298.82,298.82,0,0,0,260,41L-.09,191.22v1093L235.1,1420a128.78,128.78,0,0,0,128.77,0h0a240.83,240.83,0,0,1,240.83,0l71.94,41.53a322.48,322.48,0,0,0,322.52,0L1296.21,1290V277.65Z" style="opacity:0.075;fill:url(#c9a03f8a-0007-4c80-9394-807cd35caec4)"/><polygon points="-78.98 1296.57 -83.98 1287.9 66.49 1201.03 0.27 1162.8 204.67 1044.79 -78.59 881.24 -73.59 872.58 224.67 1044.79 20.27 1162.8 86.49 1201.03 -78.98 1296.57" style="fill:url(#66c3e294-cc16-42fa-98d2-a90fea33dd59)"/><g id="2ef8d0b4-aced-4d66-b007-46a400db32a3" data-name="waves"><polygon points="874.07 1385.66 935.45 1421.1 996.5 1385.85 935.44 1350.14 874.07 1385.66" style="fill:none;stroke:#e49cff;stroke-miterlimit:10;stroke-width:2px;opacity:0.4"/><polygon points="854.49 1385.67 935.5 1432.45 1016.08 1385.92 935.5 1338.78 854.49 1385.67" style="fill:none;stroke:#e49cff;stroke-miterlimit:10;stroke-width:2px;opacity:0.30000000000000004"/><polygon points="834.4 1385.69 935.55 1444.09 1036.16 1386 935.55 1327.14 834.4 1385.69" style="fill:none;stroke:#e49cff;stroke-miterlimit:10;stroke-width:2px;opacity:0.1"/></g><g id="73b2091b-2a34-49c1-aaef-abbeeb285819" data-name="tower shadow"><polygon points="938.94 1411.66 715.99 1286.94 761.64 1260.59 982.13 1386.73 938.94 1411.66" style="fill:url(#5168b76d-9b9c-48f6-96d1-7d9b2300ca60)"/></g><polygon points="937.78 1305.42 983.44 1368.69 937.78 1395.05 937.78 1305.42" style="fill:url(#431648bb-e749-4876-9dbe-bf1a87659d18)"/><path d="M938.28,1307l44.43,61.57-44.43,25.65V1307m-1-3.09v92l46.89-27.07-46.89-65Z" style="fill:#eceffa"/><polygon points="891.13 1368.69 936.78 1305.42 936.78 1395.05 891.13 1368.69" style="fill:url(#70bab74f-b49f-4637-b8ec-6dc8a8e65d11)"/><path d="M936.28,1307v87.22l-44.42-25.65L936.28,1307m1-3.09-46.88,65,46.88,27.07v-92Z" style="fill:#e8ebf9"/></svg>