<svg id="dbbb" data-name="svg-logo-db-circle" xmlns="http://www.w3.org/2000/svg" viewBox="0 0 1082.8425 179.7041" style='height: 25px;'>
  <title>logo</title>
  <style>
   #dbbb * {
    fill: #a00ddd!important;
   }
  </style>
  <path d="M73.9621,0H57.5632V25.633A36.7835,36.7835,0,1,0,73.9566,56.24q0-.1544-.0014-.3087h.0137V0Zm-36.78,76.5848a20.34,20.34,0,0,1-.7454-40.6727q.3727-.0068.7454,0a20.34,20.34,0,0,1,0,40.6727ZM97.751,179.7041H114.15v-25.633a36.7794,36.7794,0,1,0-16.4057-30.6189l.0069.3279v55.924Zm36.7795-76.5848a20.3432,20.3432,0,1,1-20.3431,20.3432,20.3433,20.3433,0,0,1,20.3431-20.3432ZM115.7822,9.7327V9.74l-.3279-.0069A36.7728,36.7728,0,0,0,78.6816,46.5055v.0068A36.78,36.78,0,1,0,146.08,26.1384h25.633V9.74H115.7822Zm-.3279,16.44A20.34,20.34,0,1,1,116.2,66.8452q-.3728.0069-.7454,0a20.34,20.34,0,0,1,0-40.6726ZM55.924,169.9714v-.0069l.3279.0069A36.78,36.78,0,1,0,25.633,153.5657H0v16.3988H55.924Zm.3279-16.4467a20.34,20.34,0,0,1-.7454-40.6726q.3726-.0069.7454,0a20.34,20.34,0,0,1,0,40.6726Z" style="fill: #fff"/>
  <g>
    <path d="M248.3728,31.1675h33.6958a96.2453,96.2453,0,0,1,23.2559,2.7363,53.2369,53.2369,0,0,1,19.2241,8.856,43.4172,43.4172,0,0,1,13.0322,15.9116q4.8223,9.7947,4.8238,23.76a48.4946,48.4946,0,0,1-4.68,21.8159,46.92,46.92,0,0,1-12.6,15.84,55.6856,55.6856,0,0,1-18.2881,9.7207,70.9994,70.9994,0,0,1-21.7442,3.3115h-36.72Zm22.4639,81.2158h11.6641a62.6879,62.6879,0,0,0,14.4716-1.584,30.9061,30.9061,0,0,0,11.5923-5.2558,25.2175,25.2175,0,0,0,7.7041-9.6485A34.2075,34.2075,0,0,0,319.0764,81.28a28.5028,28.5028,0,0,0-2.8076-13.0322,26.08,26.08,0,0,0-7.56-9.1441,33.164,33.164,0,0,0-11.16-5.4,49.6,49.6,0,0,0-13.4639-1.8h-13.248Z" style="fill: #fff"/>
    <path d="M367.8909,41.1035a12.5281,12.5281,0,1,1,21.3843,8.856,12.5281,12.5281,0,0,1-21.3843-8.856Zm1.728,22.0323h21.6V133.12h-21.6Z" style="fill: #fff"/>
    <path d="M494.61,127.2153q0,19.8722-10.0078,30.168-10.01,10.295-30.456,10.2959a81.9906,81.9906,0,0,1-18.4322-2.0879,41.704,41.704,0,0,1-16.7036-8.1357L430.9617,139.6a45.2236,45.2236,0,0,0,10.584,6.6231,29.7873,29.7873,0,0,0,12.1679,2.4482q9.9361,0,14.6163-4.8242a16.9608,16.9608,0,0,0,4.68-12.3115v-6.7676h-.2881a20.36,20.36,0,0,1-9.288,7.1279,29.7461,29.7461,0,0,1-10.44,2.0879,36.0407,36.0407,0,0,1-14.1118-2.6641,31.4227,31.4227,0,0,1-10.8721-7.4882,33.3624,33.3624,0,0,1-6.9843-11.4483,41.6157,41.6157,0,0,1-2.4478-14.543A42.0877,42.0877,0,0,1,420.81,84.3037a36.9968,36.9968,0,0,1,6.336-11.664,31.8124,31.8124,0,0,1,10.0083-8.1363,28.4057,28.4057,0,0,1,13.3916-3.0957,32.5615,32.5615,0,0,1,15.2641,3.6,25.1887,25.1887,0,0,1,5.1841,3.5279,22.4361,22.4361,0,0,1,3.4561,3.8159h.2881V63.1358H494.61ZM440.178,97.6958a16.872,16.872,0,0,0,4.9678,12.0234,18.975,18.975,0,0,0,5.4721,3.8165,16.79,16.79,0,0,0,13.608,0,18.719,18.719,0,0,0,5.5439-3.8165,16.9908,16.9908,0,0,0,0-24.0478,18.7527,18.7527,0,0,0-5.5439-3.8159,16.794,16.794,0,0,0-13.608,0,19.01,19.01,0,0,0-5.4721,3.8159,16.8724,16.8724,0,0,0-4.9678,12.0244Z" style="fill: #fff"/>
    <path d="M524.8484,41.1035a12.5283,12.5283,0,1,1,21.3848,8.856,12.5284,12.5284,0,0,1-21.3848-8.856Zm1.728,22.0323h21.6V133.12h-21.6Z" style="fill: #fff"/>
    <path d="M625.7918,80.4155H606.784v23.3282A43.6131,43.6131,0,0,0,607.072,109a10.5722,10.5722,0,0,0,1.2959,4.1045,6.5426,6.5426,0,0,0,3.0957,2.6641,13.709,13.709,0,0,0,5.544.9355,37.103,37.103,0,0,0,4.5361-.36,7.6832,7.6832,0,0,0,4.2481-1.6553v18a32.7148,32.7148,0,0,1-7.4883,1.7275,69.0677,69.0677,0,0,1-7.6318.4317,41.5773,41.5773,0,0,1-10.08-1.1514,22.9547,22.9547,0,0,1-8.0635-3.6719,17.1734,17.1734,0,0,1-5.4-6.5527,22.3945,22.3945,0,0,1-1.9434-9.792V80.4155H571.36v-17.28h13.8242V42.3994h21.6V63.1358h19.0078Z" style="fill: #fff"/>
    <path d="M695.0554,124.3355h-.288a20.32,20.32,0,0,1-9.5752,8.0644,32.9494,32.9494,0,0,1-12.6006,2.4473A32.5091,32.5091,0,0,1,663.16,133.48a23.7609,23.7609,0,0,1-7.9922-4.1045,19.7835,19.7835,0,0,1-5.4716-6.7676,20.6439,20.6439,0,0,1-2.0166-9.36,21.4463,21.4463,0,0,1,2.2324-10.2237,19.9657,19.9657,0,0,1,6.0478-6.9121,30.04,30.04,0,0,1,8.712-4.248,63.76,63.76,0,0,1,10.1523-2.232,97.23,97.23,0,0,1,10.5117-.8642q5.2544-.1413,9.72-.1441a11.2368,11.2368,0,0,0-4.1035-9.144,14.8109,14.8109,0,0,0-9.7207-3.3838,21.1464,21.1464,0,0,0-9.72,2.2319,26.542,26.542,0,0,0-7.8477,6.12L652.1433,72.64a39.6162,39.6162,0,0,1,14.1123-8.4239A50.433,50.433,0,0,1,682.96,61.4077q9.504,0,15.6241,2.376a22.7328,22.7328,0,0,1,9.792,6.9839,26.9307,26.9307,0,0,1,5.1123,11.3042,74.3334,74.3334,0,0,1,1.4394,15.48V133.12H695.0554Zm-5.3281-21.8877q-2.4492,0-6.12.2158a31.1477,31.1477,0,0,0-7.0557,1.2236,15.7276,15.7276,0,0,0-5.76,3.0244,6.9716,6.9716,0,0,0-2.376,5.6162,6.1748,6.1748,0,0,0,3.3115,5.76,13.8439,13.8439,0,0,0,6.9121,1.8721,21.68,21.68,0,0,0,6.12-.8643,18.2312,18.2312,0,0,0,5.2559-2.4482,11.8307,11.8307,0,0,0,3.6719-4.0313,11.615,11.615,0,0,0,1.3681-5.7607v-4.6074Z" style="fill: #fff"/>
    <path d="M743.1492,24.2559h21.6V133.12h-21.6Z" style="fill: #fff"/>
    <path d="M797.4373,31.1675h38.0156a96.281,96.281,0,0,1,13.32.936,36.4211,36.4211,0,0,1,12.0235,3.7442,23.0565,23.0565,0,0,1,8.6406,7.8481q3.3105,5.042,3.3115,13.3916,0,8.64-4.8232,14.3281a26.5276,26.5276,0,0,1-12.7442,8.1363V79.84a29.1768,29.1768,0,0,1,9.1436,2.8076,24.4405,24.4405,0,0,1,7.0556,5.3281,22.74,22.74,0,0,1,4.5362,7.56,26.5728,26.5728,0,0,1,1.584,9.2158q0,8.0669-3.4561,13.4638a27.1571,27.1571,0,0,1-8.9277,8.712,39.0845,39.0845,0,0,1-12.3116,4.7519,65.8573,65.8573,0,0,1-13.6084,1.44h-41.76Zm22.4638,40.7519h16.2715a22.8315,22.8315,0,0,0,5.1123-.5756,14.1465,14.1465,0,0,0,4.5362-1.8721,9.7646,9.7646,0,0,0,3.24-3.4561,10.369,10.369,0,0,0,1.2236-5.184,9.4161,9.4161,0,0,0-1.3681-5.2559,9.5524,9.5524,0,0,0-3.5274-3.24,16.9043,16.9043,0,0,0-4.8965-1.6558,29.4288,29.4288,0,0,0-5.3281-.5039H819.9011Zm0,42.1924h20.16a24.7866,24.7866,0,0,0,5.2559-.5761,13.8954,13.8954,0,0,0,4.8242-2.0157,11.47,11.47,0,0,0,3.5273-3.7441,10.8143,10.8143,0,0,0,1.3682-5.6162,9.014,9.014,0,0,0-1.8-5.8321,11.4529,11.4529,0,0,0-4.5362-3.3837,23.225,23.225,0,0,0-5.9042-1.584,43.8587,43.8587,0,0,0-5.9034-.4317H819.9011Z" style="fill: #fff"/>
    <path d="M900.9724,41.1035a12.5279,12.5279,0,1,1,21.3838,8.856,12.5279,12.5279,0,0,1-21.3838-8.856ZM902.7,63.1358h21.6V133.12H902.7Z" style="fill: #fff"/>
    <path d="M1001.9148,80.4155H982.907v23.3282A43.5914,43.5914,0,0,0,983.1951,109a10.5705,10.5705,0,0,0,1.2959,4.1045,6.5421,6.5421,0,0,0,3.0957,2.6641,13.7082,13.7082,0,0,0,5.5439.9355,37.1043,37.1043,0,0,0,4.5362-.36,7.6828,7.6828,0,0,0,4.248-1.6553v18a32.7148,32.7148,0,0,1-7.4883,1.7275,69.0677,69.0677,0,0,1-7.6318.4317,41.5779,41.5779,0,0,1-10.08-1.1514,22.9563,22.9563,0,0,1-8.0635-3.6719,17.1741,17.1741,0,0,1-5.4-6.5527,22.3945,22.3945,0,0,1-1.9434-9.792V80.4155H947.4832v-17.28h13.8242V42.3994h21.6V63.1358h19.0078Z" style="fill: #fff"/>
    <path d="M1066.8592,83.7275a15.2975,15.2975,0,0,0-12.5284-5.9038,11.782,11.782,0,0,0-5.3281,1.2959,4.5838,4.5838,0,0,0-2.5918,4.4639,4.0113,4.0113,0,0,0,2.6641,3.8159,35.1046,35.1046,0,0,0,6.7675,2.16q4.1046.9382,8.7842,2.0161a33.0842,33.0842,0,0,1,8.7842,3.3838,19.6983,19.6983,0,0,1,6.7676,6.2637q2.6631,3.9624,2.664,10.5849a19.6022,19.6022,0,0,1-2.9521,11.1592,22.6324,22.6324,0,0,1-7.56,7.0566,32.519,32.519,0,0,1-10.3681,3.7442,61.66,61.66,0,0,1-11.376,1.0791,55.0775,55.0775,0,0,1-14.832-2.0879,27.6853,27.6853,0,0,1-12.6719-7.416l13.1035-14.544a21.7142,21.7142,0,0,0,6.6963,5.6885,18.0526,18.0526,0,0,0,8.5683,1.9434,20.0281,20.0281,0,0,0,6.7676-1.0791,3.9828,3.9828,0,0,0,3.0244-3.96,4.39,4.39,0,0,0-2.664-4.1045,29.2835,29.2835,0,0,0-6.7686-2.3037q-4.1029-.9345-8.7832-2.0166a36.2747,36.2747,0,0,1-8.7842-3.2393,18.3724,18.3724,0,0,1-6.7685-6.12q-2.6661-3.9594-2.6641-10.5845a21.3379,21.3379,0,0,1,2.52-10.6557,22.1548,22.1548,0,0,1,6.6241-7.3443,28.6979,28.6979,0,0,1,9.4316-4.2475,43.261,43.261,0,0,1,10.8-1.3682,50.7026,50.7026,0,0,1,13.9687,2.0161,25.9335,25.9335,0,0,1,11.9522,7.2Z" style="fill: #fff"/>
  </g>
</svg>
