<?xml version="1.0" encoding="utf-8"?>
<!-- Generator: Adobe Illustrator 22.0.0, SVG Export Plug-In . SVG Version: 6.00 Build 0)  -->
<svg version="1.1" id="Layer_1" xmlns="http://www.w3.org/2000/svg" xmlns:xlink="http://www.w3.org/1999/xlink" x="0px" y="0px"
	 viewBox="0 0 500.2 91.1" style="enable-background:new 0 0 500.2 91.1;" xml:space="preserve">
<style type="text/css">
	.st0{clip-path:url(#SVGID_2_);fill:#3218BD;}
	.st1{clip-path:url(#SVGID_2_);fill:#3118BC;}
	.st2{clip-path:url(#SVGID_2_);fill:#3118BB;}
	.st3{clip-path:url(#SVGID_2_);fill:#3018BA;}
	.st4{clip-path:url(#SVGID_2_);fill:#3018B9;}
	.st5{clip-path:url(#SVGID_2_);fill:#2F18B8;}
	.st6{clip-path:url(#SVGID_2_);fill:#2E18B7;}
	.st7{clip-path:url(#SVGID_2_);fill:#2E18B6;}
	.st8{clip-path:url(#SVGID_2_);fill:#2D18B5;}
	.st9{clip-path:url(#SVGID_2_);fill:#2D18B4;}
	.st10{clip-path:url(#SVGID_2_);fill:#2C18B3;}
	.st11{clip-path:url(#SVGID_2_);fill:#2B18B2;}
	.st12{clip-path:url(#SVGID_2_);fill:#2B18B1;}
	.st13{clip-path:url(#SVGID_2_);fill:#2A18B0;}
	.st14{clip-path:url(#SVGID_2_);fill:#2A18AF;}
	.st15{clip-path:url(#SVGID_2_);fill:#2918AE;}
	.st16{clip-path:url(#SVGID_2_);fill:#2818AD;}
	.st17{clip-path:url(#SVGID_2_);fill:#2818AC;}
	.st18{clip-path:url(#SVGID_2_);fill:#2718AB;}
	.st19{clip-path:url(#SVGID_2_);fill:#2718AA;}
	.st20{clip-path:url(#SVGID_2_);fill:#2618A9;}
	.st21{clip-path:url(#SVGID_2_);fill:#2518A8;}
	.st22{clip-path:url(#SVGID_2_);fill:#2518A7;}
	.st23{clip-path:url(#SVGID_2_);fill:#2418A6;}
	.st24{clip-path:url(#SVGID_2_);fill:#2418A5;}
	.st25{clip-path:url(#SVGID_2_);fill:#2318A4;}
	.st26{clip-path:url(#SVGID_2_);fill:#2318A3;}
	.st27{clip-path:url(#SVGID_2_);fill:#2218A1;}
	.st28{clip-path:url(#SVGID_2_);fill:#2118A0;}
	.st29{clip-path:url(#SVGID_2_);fill:#21189F;}
	.st30{clip-path:url(#SVGID_2_);fill:#20189E;}
	.st31{clip-path:url(#SVGID_2_);fill:#20189D;}
	.st32{clip-path:url(#SVGID_2_);fill:#1F189C;}
	.st33{clip-path:url(#SVGID_2_);fill:#1E189B;}
	.st34{clip-path:url(#SVGID_2_);fill:#1E189A;}
	.st35{clip-path:url(#SVGID_2_);fill:#1D1899;}
	.st36{clip-path:url(#SVGID_2_);fill:#1D1898;}
	.st37{clip-path:url(#SVGID_2_);fill:#1C1897;}
	.st38{clip-path:url(#SVGID_2_);fill:#1B1896;}
	.st39{clip-path:url(#SVGID_2_);fill:#1B1895;}
	.st40{clip-path:url(#SVGID_2_);fill:#1A1894;}
	.st41{clip-path:url(#SVGID_2_);fill:#1A1893;}
	.st42{clip-path:url(#SVGID_2_);fill:#191892;}
	.st43{clip-path:url(#SVGID_2_);fill:#181891;}
	.st44{clip-path:url(#SVGID_2_);fill:#181890;}
	.st45{clip-path:url(#SVGID_2_);fill:#17188F;}
	.st46{clip-path:url(#SVGID_2_);fill:#17188E;}
	.st47{clip-path:url(#SVGID_2_);fill:#16188D;}
	.st48{clip-path:url(#SVGID_2_);fill:#15188C;}
	.st49{clip-path:url(#SVGID_2_);fill:#15188B;}
	.st50{clip-path:url(#SVGID_2_);fill:#14188A;}
	.st51{clip-path:url(#SVGID_2_);fill:#141889;}
	.st52{clip-path:url(#SVGID_2_);fill:#131888;}
	.st53{clip-path:url(#SVGID_4_);fill:#3218BD;}
	.st54{clip-path:url(#SVGID_4_);fill:#3118BC;}
	.st55{clip-path:url(#SVGID_4_);fill:#3118BB;}
	.st56{clip-path:url(#SVGID_4_);fill:#3018BA;}
	.st57{clip-path:url(#SVGID_4_);fill:#3018B9;}
	.st58{clip-path:url(#SVGID_4_);fill:#2F18B8;}
	.st59{clip-path:url(#SVGID_4_);fill:#2E18B7;}
	.st60{clip-path:url(#SVGID_4_);fill:#2E18B6;}
	.st61{clip-path:url(#SVGID_4_);fill:#2D18B5;}
	.st62{clip-path:url(#SVGID_4_);fill:#2D18B4;}
	.st63{clip-path:url(#SVGID_4_);fill:#2C18B3;}
	.st64{clip-path:url(#SVGID_4_);fill:#2B18B2;}
	.st65{clip-path:url(#SVGID_4_);fill:#2B18B1;}
	.st66{clip-path:url(#SVGID_4_);fill:#2A18B0;}
	.st67{clip-path:url(#SVGID_4_);fill:#2A18AF;}
	.st68{clip-path:url(#SVGID_4_);fill:#2918AE;}
	.st69{clip-path:url(#SVGID_4_);fill:#2818AD;}
	.st70{clip-path:url(#SVGID_4_);fill:#2818AC;}
	.st71{clip-path:url(#SVGID_4_);fill:#2718AB;}
	.st72{clip-path:url(#SVGID_4_);fill:#2718AA;}
	.st73{clip-path:url(#SVGID_4_);fill:#2618A9;}
	.st74{clip-path:url(#SVGID_4_);fill:#2518A8;}
	.st75{clip-path:url(#SVGID_4_);fill:#2518A7;}
	.st76{clip-path:url(#SVGID_4_);fill:#2418A6;}
	.st77{clip-path:url(#SVGID_4_);fill:#2418A5;}
	.st78{clip-path:url(#SVGID_4_);fill:#2318A4;}
	.st79{clip-path:url(#SVGID_4_);fill:#2318A3;}
	.st80{clip-path:url(#SVGID_4_);fill:#2218A1;}
	.st81{clip-path:url(#SVGID_4_);fill:#2118A0;}
	.st82{clip-path:url(#SVGID_4_);fill:#21189F;}
	.st83{clip-path:url(#SVGID_4_);fill:#20189E;}
	.st84{clip-path:url(#SVGID_4_);fill:#20189D;}
	.st85{clip-path:url(#SVGID_4_);fill:#1F189C;}
	.st86{clip-path:url(#SVGID_4_);fill:#1E189B;}
	.st87{clip-path:url(#SVGID_4_);fill:#1E189A;}
	.st88{clip-path:url(#SVGID_4_);fill:#1D1899;}
	.st89{clip-path:url(#SVGID_4_);fill:#1D1898;}
	.st90{clip-path:url(#SVGID_4_);fill:#1C1897;}
	.st91{clip-path:url(#SVGID_4_);fill:#1B1896;}
	.st92{clip-path:url(#SVGID_4_);fill:#1B1895;}
	.st93{clip-path:url(#SVGID_4_);fill:#1A1894;}
	.st94{clip-path:url(#SVGID_4_);fill:#1A1893;}
	.st95{clip-path:url(#SVGID_4_);fill:#191892;}
	.st96{clip-path:url(#SVGID_4_);fill:#181891;}
	.st97{clip-path:url(#SVGID_4_);fill:#181890;}
	.st98{clip-path:url(#SVGID_4_);fill:#17188F;}
	.st99{clip-path:url(#SVGID_4_);fill:#17188E;}
	.st100{clip-path:url(#SVGID_4_);fill:#16188D;}
	.st101{clip-path:url(#SVGID_4_);fill:#15188C;}
	.st102{clip-path:url(#SVGID_4_);fill:#15188B;}
	.st103{clip-path:url(#SVGID_4_);fill:#14188A;}
	.st104{clip-path:url(#SVGID_4_);fill:#141889;}
	.st105{clip-path:url(#SVGID_4_);fill:#131888;}
	.st106{enable-background:new    ;}
	.st107{fill:#131888;}
</style>
<title>broadcaster-logo</title>
<g>
	<g>
		<defs>
			<polygon id="SVGID_1_" points="90.2,38.9 90.1,12.9 67.5,0 45,13.1 67.6,26 67.7,52 45.3,65.1 22.7,52.2 22.8,78.2 45.4,91.1 
				67.8,78 67.7,52 			"/>
		</defs>
		<clipPath id="SVGID_2_">
			<use xlink:href="#SVGID_1_"  style="overflow:visible;"/>
		</clipPath>
		<polygon class="st0" points="57.7,0 22.7,19.9 22.7,0 		"/>
		<polygon class="st0" points="59.2,0 22.7,20.7 22.7,19.9 57.7,0 		"/>
		<polygon class="st1" points="60.7,0 22.7,21.5 22.7,20.7 59.2,0 		"/>
		<polygon class="st2" points="62.2,0 22.7,22.4 22.7,21.5 60.7,0 		"/>
		<polygon class="st3" points="63.7,0 22.7,23.2 22.7,22.4 62.2,0 		"/>
		<polygon class="st4" points="65.2,0 22.7,24.1 22.7,23.2 63.7,0 		"/>
		<polygon class="st5" points="66.7,0 22.7,24.9 22.7,24.1 65.2,0 		"/>
		<polygon class="st6" points="68.2,0 22.7,25.8 22.7,24.9 66.7,0 		"/>
		<polygon class="st7" points="69.7,0 22.7,26.6 22.7,25.8 68.2,0 		"/>
		<polygon class="st8" points="71.2,0 22.7,27.5 22.7,26.6 69.7,0 		"/>
		<polygon class="st9" points="72.7,0 22.7,28.3 22.7,27.5 71.2,0 		"/>
		<polygon class="st10" points="74.2,0 22.7,29.2 22.7,28.3 72.7,0 		"/>
		<polygon class="st11" points="75.7,0 22.7,30 22.7,29.2 74.2,0 		"/>
		<polygon class="st12" points="77.2,0 22.7,30.9 22.7,30 75.7,0 		"/>
		<polygon class="st13" points="78.7,0 22.7,31.7 22.7,30.9 77.2,0 		"/>
		<polygon class="st14" points="80.2,0 22.7,32.6 22.7,31.7 78.7,0 		"/>
		<polygon class="st15" points="81.7,0 22.7,33.4 22.7,32.6 80.2,0 		"/>
		<polygon class="st16" points="83.2,0 22.7,34.3 22.7,33.4 81.7,0 		"/>
		<polygon class="st17" points="84.7,0 22.7,35.1 22.7,34.3 83.2,0 		"/>
		<polygon class="st18" points="85.1,0 85.3,0.5 22.7,35.9 22.7,35.1 84.7,0 		"/>
		<polygon class="st19" points="85.3,0.5 85.7,1.1 22.7,36.8 22.7,35.9 		"/>
		<polygon class="st20" points="85.7,1.1 86.1,1.8 22.7,37.6 22.7,36.8 		"/>
		<polygon class="st21" points="86.1,1.8 86.4,2.4 22.7,38.5 22.7,37.6 		"/>
		<polygon class="st22" points="86.4,2.4 86.8,3 22.7,39.3 22.7,38.5 		"/>
		<polygon class="st23" points="86.8,3 87.2,3.7 22.7,40.2 22.7,39.3 		"/>
		<polygon class="st24" points="87.2,3.7 87.5,4.3 22.7,41 22.7,40.2 		"/>
		<polygon class="st25" points="87.5,4.3 87.9,5 22.7,41.9 22.7,41 		"/>
		<polygon class="st26" points="87.9,5 88.2,5.6 22.7,42.7 22.7,41.9 		"/>
		<polygon class="st27" points="88.2,5.6 88.6,6.2 22.7,43.6 22.7,42.7 		"/>
		<polygon class="st28" points="88.6,6.2 89,6.9 22.7,44.4 22.7,43.6 		"/>
		<polygon class="st29" points="89,6.9 89.3,7.5 22.7,45.3 22.7,44.4 		"/>
		<polygon class="st30" points="89.3,7.5 89.7,8.2 22.7,46.1 22.7,45.3 		"/>
		<polygon class="st31" points="89.7,8.2 90.1,8.8 22.7,47 22.7,46.1 		"/>
		<polygon class="st32" points="90.1,8.8 90.2,9 90.2,9.6 22.7,47.8 22.7,47 		"/>
		<polygon class="st33" points="90.2,10.4 22.7,48.7 22.7,47.8 90.2,9.6 		"/>
		<polygon class="st34" points="90.2,11.3 22.7,49.5 22.7,48.7 90.2,10.4 		"/>
		<polygon class="st35" points="90.2,12.1 22.7,50.3 22.7,49.5 90.2,11.3 		"/>
		<polygon class="st36" points="90.2,13 22.7,51.2 22.7,50.3 90.2,12.1 		"/>
		<polygon class="st37" points="90.2,13.8 22.7,52 22.7,51.2 90.2,13 		"/>
		<polygon class="st38" points="90.2,14.7 22.7,52.9 22.7,52 90.2,13.8 		"/>
		<polygon class="st39" points="90.2,15.5 22.7,53.7 22.7,52.9 90.2,14.7 		"/>
		<polygon class="st40" points="90.2,16.4 22.7,54.6 22.7,53.7 90.2,15.5 		"/>
		<polygon class="st41" points="90.2,17.2 22.7,55.4 22.7,54.6 90.2,16.4 		"/>
		<polygon class="st42" points="90.2,18.1 22.7,56.3 22.7,55.4 90.2,17.2 		"/>
		<polygon class="st43" points="90.2,18.9 22.7,57.1 22.7,56.3 90.2,18.1 		"/>
		<polygon class="st44" points="90.2,19.8 22.7,58 22.7,57.1 90.2,18.9 		"/>
		<polygon class="st45" points="90.2,20.6 22.7,58.8 22.7,58 90.2,19.8 		"/>
		<polygon class="st46" points="90.2,21.4 22.7,59.7 22.7,58.8 90.2,20.6 		"/>
		<polygon class="st47" points="90.2,22.3 22.7,60.5 22.7,59.7 90.2,21.4 		"/>
		<polygon class="st48" points="90.2,23.1 22.7,61.4 22.7,60.5 90.2,22.3 		"/>
		<polygon class="st49" points="90.2,24 22.7,62.2 22.7,61.4 90.2,23.1 		"/>
		<polygon class="st50" points="90.2,24.8 22.7,63.1 22.7,62.2 90.2,24 		"/>
		<polygon class="st51" points="90.2,25.7 22.7,63.9 22.7,63.1 90.2,24.8 		"/>
		<polygon class="st52" points="90.2,26.5 22.7,64.8 22.7,63.9 90.2,25.7 		"/>
		<polygon class="st52" points="27.8,91.1 22.7,82.1 22.7,64.8 90.2,26.5 90.2,91.1 		"/>
	</g>
</g>
<g>
	<g>
		<defs>
			<polygon id="SVGID_3_" points="45,13.1 22.5,0.2 0,13.3 0.1,39.3 22.7,52.2 22.6,26.2 			"/>
		</defs>
		<clipPath id="SVGID_4_">
			<use xlink:href="#SVGID_3_"  style="overflow:visible;"/>
		</clipPath>
		<polygon class="st53" points="40,0.2 44.2,7.6 0,32.7 0,0.2 		"/>
		<polygon class="st53" points="44.2,7.6 44.6,8.3 0,33.5 0,32.7 		"/>
		<polygon class="st54" points="44.6,8.3 45,8.9 0,34.4 0,33.5 		"/>
		<polygon class="st55" points="45,8.9 45,9 45,9.7 0,35.2 0,34.4 		"/>
		<polygon class="st56" points="45,10.6 0,36.1 0,35.2 45,9.7 		"/>
		<polygon class="st57" points="45,11.4 0,36.9 0,36.1 45,10.6 		"/>
		<polygon class="st58" points="45,12.3 0,37.8 0,36.9 45,11.4 		"/>
		<polygon class="st59" points="45,13.1 0,38.6 0,37.8 45,12.3 		"/>
		<polygon class="st60" points="45,14 0,39.5 0,38.6 45,13.1 		"/>
		<polygon class="st61" points="45,14.8 0,40.3 0,39.5 45,14 		"/>
		<polygon class="st62" points="45,15.7 0,41.2 0,40.3 45,14.8 		"/>
		<polygon class="st63" points="45,16.5 0,42 0,41.2 45,15.7 		"/>
		<polygon class="st64" points="45,17.4 0,42.9 0,42 45,16.5 		"/>
		<polygon class="st65" points="45,18.2 0.2,43.6 0,43.1 0,42.9 45,17.4 		"/>
		<polygon class="st66" points="45,19 0.6,44.2 0.2,43.6 45,18.2 		"/>
		<polygon class="st67" points="45,19.9 1,44.8 0.6,44.2 45,19 		"/>
		<polygon class="st68" points="45,20.7 1.3,45.5 1,44.8 45,19.9 		"/>
		<polygon class="st69" points="45,21.6 1.7,46.1 1.3,45.5 45,20.7 		"/>
		<polygon class="st70" points="45,22.4 2.1,46.8 1.7,46.1 45,21.6 		"/>
		<polygon class="st71" points="45,23.3 2.4,47.4 2.1,46.8 45,22.4 		"/>
		<polygon class="st72" points="45,24.1 2.8,48.1 2.4,47.4 45,23.3 		"/>
		<polygon class="st73" points="45,25 3.1,48.7 2.8,48.1 45,24.1 		"/>
		<polygon class="st74" points="45,25.8 3.5,49.3 3.1,48.7 45,25 		"/>
		<polygon class="st75" points="45,26.7 3.9,50 3.5,49.3 45,25.8 		"/>
		<polygon class="st76" points="45,27.5 4.2,50.6 3.9,50 45,26.7 		"/>
		<polygon class="st77" points="45,28.4 4.6,51.3 4.2,50.6 45,27.5 		"/>
		<polygon class="st78" points="45,29.2 5,51.9 4.6,51.3 45,28.4 		"/>
		<polygon class="st79" points="45,30.1 5.9,52.2 5.1,52.2 5,51.9 45,29.2 		"/>
		<polygon class="st80" points="45,30.9 7.4,52.2 5.9,52.2 45,30.1 		"/>
		<polygon class="st81" points="45,31.8 8.9,52.2 7.4,52.2 45,30.9 		"/>
		<polygon class="st82" points="45,32.6 10.4,52.2 8.9,52.2 45,31.8 		"/>
		<polygon class="st83" points="45,33.4 11.9,52.2 10.4,52.2 45,32.6 		"/>
		<polygon class="st84" points="45,34.3 13.4,52.2 11.9,52.2 45,33.4 		"/>
		<polygon class="st85" points="45,35.1 14.9,52.2 13.4,52.2 45,34.3 		"/>
		<polygon class="st86" points="45,36 16.4,52.2 14.9,52.2 45,35.1 		"/>
		<polygon class="st87" points="45,36.8 17.9,52.2 16.4,52.2 45,36 		"/>
		<polygon class="st88" points="45,37.7 19.4,52.2 17.9,52.2 45,36.8 		"/>
		<polygon class="st89" points="45,38.5 20.9,52.2 19.4,52.2 45,37.7 		"/>
		<polygon class="st90" points="45,39.4 22.4,52.2 20.9,52.2 45,38.5 		"/>
		<polygon class="st91" points="45,40.2 23.9,52.2 22.4,52.2 45,39.4 		"/>
		<polygon class="st92" points="45,41.1 25.4,52.2 23.9,52.2 45,40.2 		"/>
		<polygon class="st93" points="45,41.9 26.9,52.2 25.4,52.2 45,41.1 		"/>
		<polygon class="st94" points="45,42.8 28.4,52.2 26.9,52.2 45,41.9 		"/>
		<polygon class="st95" points="45,43.6 29.9,52.2 28.4,52.2 45,42.8 		"/>
		<polygon class="st96" points="45,44.5 31.4,52.2 29.9,52.2 45,43.6 		"/>
		<polygon class="st97" points="45,45.3 32.9,52.2 31.4,52.2 45,44.5 		"/>
		<polygon class="st98" points="45,46.2 34.4,52.2 32.9,52.2 45,45.3 		"/>
		<polygon class="st99" points="45,47 35.9,52.2 34.4,52.2 45,46.2 		"/>
		<polygon class="st100" points="45,47.8 37.4,52.2 35.9,52.2 45,47 		"/>
		<polygon class="st101" points="45,48.7 38.9,52.2 37.4,52.2 45,47.8 		"/>
		<polygon class="st102" points="45,49.5 40.4,52.2 38.9,52.2 45,48.7 		"/>
		<polygon class="st103" points="45,50.4 41.9,52.2 40.4,52.2 45,49.5 		"/>
		<polygon class="st104" points="45,51.2 43.4,52.2 41.9,52.2 45,50.4 		"/>
		<polygon class="st105" points="45,52.1 44.9,52.2 43.4,52.2 45,51.2 		"/>
		<polygon class="st105" points="44.9,52.2 45,52.1 45,52.2 		"/>
	</g>
</g>
<g class="st106">
	<path class="st107" d="M122,56.8h5.9V29.8H122v-7.1h18.4c5.4,0,9.5,0.9,12.4,2.8c2.9,1.9,4.3,4.6,4.3,8.2c0,2.1-0.5,3.9-1.4,5.4
		c-1,1.6-2.3,2.8-4.1,3.7c2.1,0.7,3.8,1.8,5,3.5c1.2,1.7,1.8,3.7,1.8,6.2c0,3.6-1.2,6.4-3.6,8.4s-5.9,3-10.4,3H122V56.8z
		 M143.5,40.1c1.6,0,2.9-0.5,3.7-1.4c0.9-0.9,1.3-2.2,1.3-3.8c0-3.5-2.5-5.2-7.4-5.2H136v10.4H143.5z M143,56.8
		c2.2,0,3.9-0.5,5.1-1.4c1.2-0.9,1.8-2.2,1.8-4c0-1.6-0.5-2.9-1.6-3.8c-1.1-0.9-2.7-1.3-4.8-1.3H136v10.4H143z"/>
</g>
<g class="st106">
	<path class="st107" d="M185.5,31.4c1.7,0,3.4,0.3,5,0.9l1.2,8.7l-6.6,1.4l-0.7-3.8c-3.1,0.2-5.7,1-7.7,2.5l-0.1,16.4h6.9v6.4h-20.6
		v-6.4h5.9V40.5l-6.7-2.2l2.1-6.4l10.4,3.4C178.3,32.7,182,31.4,185.5,31.4z"/>
	<path class="st107" d="M224,35.8c2.9,3,4.4,7.2,4.4,12.5c0,5.3-1.5,9.5-4.4,12.5c-2.9,3-7,4.5-12.2,4.5c-5.1,0-9.1-1.5-12-4.5
		c-2.9-3-4.3-7.1-4.3-12.5c0-5.3,1.4-9.5,4.3-12.5c2.9-3,6.9-4.5,12-4.5C217,31.3,221.1,32.8,224,35.8z M205.5,40.5
		c-1.4,1.8-2.2,4.4-2.2,7.8c0,3.5,0.7,6.1,2.2,7.9c1.4,1.8,3.6,2.7,6.4,2.7c2.8,0,5-0.9,6.4-2.7c1.4-1.8,2.2-4.4,2.2-7.9
		c0-3.4-0.7-6-2.2-7.8c-1.5-1.8-3.6-2.7-6.4-2.7C209,37.8,206.9,38.7,205.5,40.5z"/>
</g>
<g class="st106">
	<path class="st107" d="M244.4,65.2c-4.3,0-7.6-0.9-9.9-2.6c-2.3-1.7-3.4-4.2-3.4-7.5c0-3.2,1.1-5.6,3.3-7.2
		c2.2-1.6,5.4-2.4,9.6-2.4h7.8c0-2.7-0.6-4.8-1.7-6.2c-1.1-1.4-2.7-2.1-4.6-2.1s-3.8,0.3-5.6,0.8l-0.6,3.4l-6.6-0.9l1.3-7.4
		c3.8-1.4,7.7-2,11.8-2c4.6,0,8.1,1.2,10.5,3.6c2.4,2.4,3.6,6,3.6,10.6v11.6l5.9,1.9l-2.2,6.6l-9-3.1
		C251,64.3,247.7,65.2,244.4,65.2z M240.5,52c-0.8,0.8-1.3,1.9-1.3,3.3c0,2.7,1.8,4,5.5,4c2.6,0,4.9-0.7,7.1-2v-6.4l-7.6-0.1
		C242.5,50.8,241.3,51.2,240.5,52z"/>
</g>
<g class="st106">
	<path class="st107" d="M293,62.5c-1.3,0.8-2.7,1.5-4.4,2c-1.7,0.5-3.3,0.7-4.9,0.7c-5.2,0-9.3-1.5-12.2-4.6
		c-2.9-3.1-4.3-7.3-4.3-12.7c0-5.2,1.4-9.3,4.3-12.2c2.9-2.9,7-4.4,12.2-4.4c1.9,0,4,0.4,6.5,1.2V26l-6.9-2.4l2.2-6.7l12.6,4.3v35.6
		l6,2l-2.2,6.8L293,62.5z M287,58.4c1.2-0.3,2.3-0.8,3.2-1.3V39.1c-0.8-0.4-1.8-0.7-3-1c-1.2-0.2-2.3-0.4-3.4-0.4
		c-2.6,0-4.6,0.9-6.2,2.8c-1.6,1.9-2.3,4.3-2.3,7.3c0,3.3,0.8,5.9,2.3,7.9c1.6,2,3.6,3,6.2,3C284.7,58.9,285.8,58.7,287,58.4z"/>
	<path class="st107" d="M325.2,37.4c-2.9,0-5.1,0.9-6.6,2.8c-1.5,1.9-2.3,4.6-2.3,8.3c0,3.2,0.8,5.7,2.5,7.5
		c1.6,1.8,3.7,2.8,6.2,2.8c3.2,0,6.4-1.1,9.6-3.4l3.2,4.8c-2.3,1.8-4.4,3.1-6.3,3.9c-1.9,0.8-4.2,1.2-6.7,1.2
		c-5.1,0-9.2-1.4-12.1-4.3c-3-2.9-4.4-7-4.4-12.4c0-5.6,1.5-9.9,4.4-12.8c3-3,7.1-4.4,12.5-4.4c3.3,0,6.9,0.7,10.8,2l1.8,9l-6.7,1.5
		l-1-5.7C328.3,37.6,326.7,37.4,325.2,37.4z"/>
	<path class="st107" d="M356.2,65.2c-4.3,0-7.6-0.9-9.9-2.6c-2.3-1.7-3.4-4.2-3.4-7.5c0-3.2,1.1-5.6,3.3-7.2
		c2.2-1.6,5.4-2.4,9.6-2.4h7.8c0-2.7-0.6-4.8-1.7-6.2c-1.1-1.4-2.7-2.1-4.6-2.1s-3.8,0.3-5.6,0.8l-0.6,3.4l-6.6-0.9l1.3-7.4
		c3.8-1.4,7.7-2,11.8-2c4.6,0,8.1,1.2,10.5,3.6c2.4,2.4,3.6,6,3.6,10.6v11.6l5.9,1.9l-2.2,6.6l-9-3.1
		C362.8,64.3,359.5,65.2,356.2,65.2z M352.3,52c-0.8,0.8-1.3,1.9-1.3,3.3c0,2.7,1.8,4,5.5,4c2.6,0,4.9-0.7,7.1-2v-6.4l-7.6-0.1
		C354.3,50.8,353.1,51.2,352.3,52z"/>
	<path class="st107" d="M395.4,37.1c-1.8,0-3.3,0.3-4.5,1c-1.2,0.7-1.8,1.6-1.8,2.7c0,1.2,0.4,2.1,1.2,2.7c0.8,0.6,2.2,1.1,4.3,1.3
		l4.2,0.6c3.6,0.5,6.2,1.5,7.9,3c1.7,1.5,2.5,3.6,2.5,6.3c0,3.4-1.3,6-3.9,7.8s-5.9,2.7-9.8,2.7c-4.9,0-9.2-1-12.7-3.2l-1.3-7.3
		l6.7-1.2l0.8,3.8c1.9,0.9,4,1.4,6.2,1.4c2.1,0,3.7-0.3,5.1-1c1.3-0.7,2-1.6,2-2.9c0-1-0.4-1.8-1.1-2.4c-0.7-0.6-2.1-1-4.1-1.2
		l-4-0.6c-3.5-0.5-6.1-1.6-8-3.2c-1.9-1.6-2.8-3.7-2.8-6.3c0-3,1.2-5.4,3.7-7.2c2.4-1.8,5.6-2.7,9.6-2.7c4.4,0,8.1,1,11.3,3.2
		l1.3,6.7l-6,1.1l-1.1-4.3C398.9,37.4,397.1,37.1,395.4,37.1z"/>
</g>
<g class="st106">
	<path class="st107" d="M419.6,62.1c-2-2.1-3-5.3-3-9.6V38.9h-5.8v-6.3h5.8v-6l7.7-2.3v8.3h8.5v6.3h-8.5v11.4c0,5.6,1.6,8.5,4.7,8.5
		c1.3,0,2.8-0.5,4.7-1.4l1.5,5.9c-2.7,1.3-5.1,2-7.2,2C424.4,65.2,421.6,64.2,419.6,62.1z"/>
</g>
<g class="st106">
	<path class="st107" d="M453.6,65.2c-3.5,0-6.6-0.7-9.2-2.1c-2.6-1.4-4.7-3.4-6.1-6c-1.4-2.5-2.2-5.5-2.2-8.8c0-3.4,0.7-6.3,2-8.9
		c1.4-2.6,3.3-4.6,5.7-6c2.5-1.4,5.3-2.1,8.5-2.1c3.2,0,6,0.7,8.4,2c2.4,1.3,4.3,3.2,5.6,5.5c1.3,2.4,2,5.1,2,8.3
		c0,1.2-0.1,2.5-0.3,3.9h-24.1c0.2,2.6,1.2,4.6,3,6c1.8,1.4,4.1,2,6.8,2c3.9,0,7.3-1.2,10.4-3.6l2.8,4.8
		C462.8,63.5,458.4,65.2,453.6,65.2z M458.2,39.9c-1.4-1.4-3.3-2.1-5.6-2.1c-2.3,0-4.2,0.7-5.9,2.2c-1.6,1.4-2.5,3.3-2.7,5.6h16.4
		C460.3,43.2,459.6,41.3,458.2,39.9z"/>
</g>
<g class="st106">
	<path class="st107" d="M494.4,31.4c1.7,0,3.4,0.3,5,0.9l1.2,8.7l-6.6,1.4l-0.7-3.8c-3.1,0.2-5.7,1-7.7,2.5l-0.1,16.4h6.9v6.4h-20.6
		v-6.4h5.9V40.5l-6.7-2.2l2.1-6.4l10.4,3.4C487.3,32.7,491,31.4,494.4,31.4z"/>
</g>
</svg>
