<?xml version="1.0" encoding="utf-8"?>
<!-- Generator: Adobe Illustrator 16.0.0, SVG Export Plug-In . SVG Version: 6.00 Build 0)  -->
<!DOCTYPE svg PUBLIC "-//W3C//DTD SVG 1.1//EN" "http://www.w3.org/Graphics/SVG/1.1/DTD/svg11.dtd">
<svg version="1.1" id="Layer_1" xmlns="http://www.w3.org/2000/svg" xmlns:xlink="http://www.w3.org/1999/xlink" x="0px" y="0px"
	 width="278.154px" height="68px" viewBox="-41.5 -821.5 278.154 68" enable-background="new -41.5 -821.5 278.154 68"
	 xml:space="preserve">
<g>
	<path fill="#275E7C" d="M-2.845-789.702h-18.438l-13.198-25.018L-2.845-789.702z M-32.777-793.662l-2.268,1.935v-6.985
		L-32.777-793.662z M-23.606-788.478l-3.414-6.585l-7.906,6.585H-23.606z M-34.481-762.235l13.198-25.019h18.438L-34.481-762.235z
		 M-35.044-778.243v-6.984l2.268,1.935L-35.044-778.243z M-23.606-788.478l-3.414,6.585l-7.906-6.585H-23.606z"/>
</g>
<g>
	<path fill="#410E72" d="M35.654-798.31v4.666c-2.276-1.905-4.631-2.857-7.065-2.857c-2.682,0-4.941,0.964-6.778,2.891
		c-1.848,1.916-2.772,4.259-2.772,7.031c0,2.738,0.924,5.049,2.772,6.931s4.113,2.822,6.795,2.822c1.386,0,2.563-0.225,3.533-0.676
		c0.541-0.226,1.102-0.53,1.682-0.913c0.581-0.383,1.192-0.845,1.834-1.386v4.75c-2.253,1.273-4.62,1.91-7.099,1.91
		c-3.73,0-6.913-1.301-9.55-3.905c-2.625-2.625-3.938-5.792-3.938-9.499c0-3.324,1.099-6.288,3.296-8.891
		c2.705-3.189,6.203-4.783,10.497-4.783C31.203-800.219,33.468-799.583,35.654-798.31z"/>
	<path fill="#410E72" d="M49.464-784.736l8.08,11.122h-4.817l-7.454-10.683h-0.71v10.683h-3.938v-26.098h4.614
		c3.448,0,5.938,0.648,7.471,1.944c1.69,1.442,2.535,3.347,2.535,5.713c0,1.848-0.529,3.437-1.589,4.767
		C52.597-785.959,51.199-785.108,49.464-784.736z M44.562-787.729h1.251c3.73,0,5.595-1.425,5.595-4.276
		c0-2.67-1.814-4.006-5.442-4.006h-1.403V-787.729z"/>
	<path fill="#410E72" d="M65.589-784.889l-8.519-14.824h4.53l5.967,10.429l5.983-10.429h4.53l-8.553,14.824v11.274h-3.938V-784.889z
		"/>
	<path fill="#410E72" d="M85.027-784.212v10.598h-3.938v-26.098h4.462c2.187,0,3.837,0.152,4.953,0.457
		c1.127,0.304,2.119,0.879,2.975,1.724c1.499,1.465,2.248,3.313,2.248,5.544c0,2.389-0.8,4.282-2.4,5.679
		c-1.6,1.397-3.758,2.096-6.474,2.096H85.027z M85.027-787.863h1.471c3.617,0,5.426-1.392,5.426-4.175
		c0-2.693-1.865-4.04-5.595-4.04h-1.302V-787.863z"/>
	<path fill="#410E72" d="M106.984-796.011v22.396h-3.938v-22.396h-6v-3.702h15.922v3.702H106.984z"/>
	<path fill="#410E72" d="M130.395-779.953h-11.173l-2.907,6.339h-4.242l12.914-27.738l12.458,27.738h-4.311L130.395-779.953z
		 M128.789-783.655l-3.871-8.874l-4.057,8.874H128.789z"/>
	<path fill="#410E72" d="M152.943-787.204h10.784v0.862c0,1.961-0.231,3.696-0.693,5.206c-0.451,1.397-1.211,2.705-2.282,3.921
		c-2.422,2.727-5.504,4.091-9.246,4.091c-3.651,0-6.778-1.318-9.381-3.956c-2.603-2.648-3.904-5.826-3.904-9.533
		c0-3.786,1.324-6.998,3.972-9.634c2.648-2.648,5.871-3.972,9.668-3.972c2.04,0,3.944,0.417,5.713,1.25
		c1.69,0.834,3.353,2.187,4.986,4.057l-2.806,2.688c-2.141-2.851-4.75-4.276-7.826-4.276c-2.761,0-5.076,0.952-6.947,2.857
		c-1.871,1.871-2.806,4.214-2.806,7.031c0,2.908,1.042,5.302,3.127,7.184c1.95,1.746,4.062,2.62,6.339,2.62
		c1.938,0,3.679-0.653,5.223-1.96c1.544-1.318,2.406-2.896,2.586-4.733h-6.508V-787.204z"/>
	<path fill="#410E72" d="M182.827-779.953h-11.173l-2.907,6.339h-4.243l12.914-27.738l12.457,27.738h-4.31L182.827-779.953z
		 M181.222-783.655l-3.871-8.874l-4.057,8.874H181.222z"/>
	<path fill="#410E72" d="M192.225-773.614l5.494-28.059l8.958,20.283l9.279-20.283l4.936,28.059h-4.04l-2.519-15.753l-7.725,16.954
		l-7.505-16.971l-2.806,15.771H192.225z"/>
	<path fill="#410E72" d="M230.358-799.712v26.098h-3.938v-26.098H230.358z"/>
</g>
</svg>
