<svg xmlns="http://www.w3.org/2000/svg" viewBox="0 0 162.65 21.23">
    <title>logo</title>
    <path fill='blue' d="M161.45,0s1.21.17,1.2,1.16c-.05,6.3,0,12.6,0,18.9,0,.86-.14,1.17-1.11,1.17q-80.23,0-160.49,0c-.83,0-1-.19-1-1C0,13.8.05,7.39,0,1,0,.11,1.06,0,1.06,0ZM1.88.8S.8,1,.81,1.89c0,5.86,0,11.73,0,17.59,0,.74.17.93.93.93q79.59,0,159.18,0c.76,0,.92-.2.92-.94,0-5.83-.05-11.66,0-17.5,0-1-1.19-1.17-1.19-1.17Z" transform="translate(0 0)"></path>
    <path fill='blue' d="M53.48,8.88c0,1.95,0,3.86,0,5.77,0,.68-.15.93-.87.91s-.84-.18-.83-.84c0-2.63,0-5.26,0-7.89,0-.36-.33-1,.28-1.09a1.35,1.35,0,0,1,1.55.55c1.29,1.73,2.67,3.4,4,5.1.13.17.28.33.56.68,0-2,0-3.72,0-5.47,0-.62.05-.94.82-.95s.91.3.9,1c0,2.6,0,5.2,0,7.79,0,.37.32.91-.32,1.09s-.9-.22-1.21-.64q-2.1-2.73-4.23-5.43C54,9.25,53.91,9,53.48,8.88Z" transform="translate(0 0)"></path>
    <path fill='blue' d="M74.85,12.12c0,2.39-.84,3.3-3.3,3.61A4.94,4.94,0,0,1,66.23,13a5.75,5.75,0,0,1,1.29-6.43,5.3,5.3,0,0,1,6.15-.39c.29.18,1,.28.62.86-.29.43-.58,1-1.41.45a3.44,3.44,0,0,0-4.11.17,4,4,0,0,0-1.22,4.08,3.6,3.6,0,0,0,5.36,1.86c.74-.53.39-1.3.36-1.93s-.65-.19-1-.27a2.33,2.33,0,0,0-.79,0c-.57.08-.74-.13-.74-.7s.1-.86.76-.8a13.74,13.74,0,0,0,2.4,0c.84-.08,1,.27,1,1A9.45,9.45,0,0,0,74.85,12.12Z" transform="translate(0 0)"></path>
    <path fill='blue' d="M5.71,10.62c0-1.36,0-2.72,0-4.09,0-.56.08-.83.75-.82,1.86,0,3.72,0,5.58,0,.75,0,.67.38.7.86s-.09.85-.76.82c-1.29-.06-2.59,0-3.89,0-.53,0-.65.15-.67.67,0,2.23-.07,2.23,2.19,2.23.7,0,1.4,0,2.09,0s.79.2.77.79,0,.86-.72.82c-1.2-.07-2.4,0-3.59,0-.54,0-.78.1-.73.69s0,1.4,0,2.1,0,1-.81,1-1-.2-.94-1C5.75,13.29,5.71,12,5.71,10.62Z" transform="translate(0 0)"></path>
    <path fill='blue' d="M38.24,5.86C37.17,7.4,36.18,9,35,10.48a4.15,4.15,0,0,0-.62,2.82v1.2c0,1-.43,1.31-1.4,1-.23-.06-.34-.17-.33-.4,0,0,0-.07,0-.1.71-3.32-1.28-5.65-3-8.08-.25-.35-.47-.72-.71-1.09,1.6-.43,1.85-.34,2.62.92l1.93,3.12A32,32,0,0,0,35.32,7.1,2.08,2.08,0,0,1,38.24,5.86Z" transform="translate(0 0)"></path>
    <path fill='blue' d="M113.88,11.88l3.36,3.66a1.14,1.14,0,0,1-1.38-.37c-.85-1-1.74-1.92-2.62-2.88a4.94,4.94,0,0,0-3-.4c-.19.15-.12.36-.12.55,0,.86,0,1.73,0,2.59,0,.29.1.63-.4.61s-.37-.3-.37-.56c0-3,0-5.92,0-8.89,0-.52.23-.59.66-.58,1.23,0,2.46,0,3.7,0A3.11,3.11,0,0,1,117,8.37c.21,1.74-.74,3-2.62,3.4ZM110.1,8.65c0,.57,0,1.14,0,1.7s.1.78.7.75c1.09,0,2.19,0,3.28,0a2.12,2.12,0,0,0,2.11-2.3,2.25,2.25,0,0,0-2.07-2.36,16,16,0,0,0-1.7,0C110.1,6.34,110.1,6.35,110.1,8.65Z" transform="translate(0 0)"></path>
    <path fill='blue' d="M18.51,10.55c0-1.33,0-2.67,0-4,0-.73.23-.87.91-.89s.86.27.85.93c0,2.19,0,4.38,0,6.58,0,.64.15.86.82.83,1.22-.06,2.46,0,3.69,0,.63,0,.68.28.67.78s0,.81-.67.8c-1.86,0-3.72,0-5.58,0-.57,0-.66-.25-.65-.73C18.52,13.41,18.51,12,18.51,10.55Z" transform="translate(0 0)"></path>
    <path fill='blue' d="M136.58,10.58c0-1.43,0-2.86,0-4.3,0-.49.1-.69.65-.68,1.87,0,3.73,0,5.6,0,.25,0,.65-.18.65.34s-.43.4-.72.41c-1.57,0-3.14,0-4.7,0-.58,0-.75.18-.72.73a19.22,19.22,0,0,1,0,2.4c-.06.66.21.76.79.75,1.5,0,3,0,4.5,0,.22,0,.57-.15.6.3s-.31.43-.61.43c-1.5,0-3,0-4.5,0-.61,0-.82.15-.78.77a17.48,17.48,0,0,1,0,2.4c-.06.66.22.76.8.75,1.59,0,3.19,0,4.79,0,.29,0,.72-.19.73.39s-.45.36-.72.36c-1.9,0-3.79,0-5.69,0-.53,0-.68-.15-.67-.67C136.6,13.51,136.58,12.05,136.58,10.58Z" transform="translate(0 0)"></path>
    <path fill='blue' d="M122.88,10.62c0-1.43,0-2.86,0-4.29,0-.55.14-.75.72-.73,1.3,0,2.6,0,3.89,0a3.12,3.12,0,0,1,3.1,3A3.16,3.16,0,0,1,128,12.11a15.73,15.73,0,0,1-3.29.07c-.73,0-1.1.12-1,1a18.84,18.84,0,0,1,0,2c0,.28,0,.52-.39.51s-.42-.24-.41-.52a.33.33,0,0,0,0-.1Zm.8-1.79c0,.66,0,1.33,0,2,0,.47.13.65.62.63,1,0,1.92,0,2.89,0a2.45,2.45,0,0,0,2.62-2.51,2.44,2.44,0,0,0-2.56-2.57c-.37,0-.73,0-1.1,0C123.68,6.35,123.68,6.35,123.68,8.83Z" transform="translate(0 0)"></path>
    <path fill='blue' d="M81.23,10.61a4.2,4.2,0,0,0,2.16,3.87A4.54,4.54,0,0,0,88,14.32c.2-.12.37-.28.56-.42s.36,0,.5.16.09.29-.06.41l-.31.25a5.26,5.26,0,0,1-5.74.39,4.68,4.68,0,0,1-2.5-4.75A4.65,4.65,0,0,1,83.29,6a5.22,5.22,0,0,1,5.47.57c.18.13.65.23.3.65s-.5.06-.73-.11a4.55,4.55,0,0,0-4.9-.39A4.15,4.15,0,0,0,81.23,10.61Z" transform="translate(0 0)"></path>
    <path fill='blue' d="M45.41,10.68c0,1.4,0,2.8,0,4.19,0,.76-.41.67-.89.68s-.88,0-.87-.7q.06-4.23,0-8.48c0-.75.42-.67.9-.68s.89,0,.86.7C45.38,7.82,45.41,9.25,45.41,10.68Z" transform="translate(0 0)"></path>
    <path fill='blue' d="M103.71,15.54c-.74.26-.91-.14-1.11-.6-1.1-2.52-2.23-5-3.34-7.55-.12-.26-.25-.52-.46-.95l-3.12,7.08c-.23.52-.47,1-.66,1.56s-.46.71-1,.45l2.49-5.61c.57-1.27,1.16-2.53,1.72-3.81.13-.29.24-.51.63-.51a.65.65,0,0,1,.66.47C100.87,9.22,102.29,12.36,103.71,15.54Z" transform="translate(0 0)"></path>
    <path fill='blue' d="M153.07,11c0-1.34,0-2.67,0-4,0-.53-.16-.7-.68-.67-.76,0-1.53,0-2.3,0-.27,0-.65.13-.64-.37s.36-.31.58-.31h6.9c.21,0,.5-.12.53.26s-.2.43-.5.43c-.8,0-1.6,0-2.4,0-.58,0-.73.18-.72.74q0,3.9,0,7.8c0,.28.27.81-.41.78s-.36-.47-.36-.75C153.06,13.58,153.07,12.28,153.07,11Z" transform="translate(0 0)"></path>
</svg>