<?xml version="1.0" encoding="utf-8"?>
<svg version="1.1" id="Layer_1" xmlns="http://www.w3.org/2000/svg" xmlns:xlink="http://www.w3.org/1999/xlink" x="0px" y="0px"
	 viewBox="0 0 242.1 165.4" style="enable-background:new 0 0 242.1 165.4;width: 100%;height: 100%;" xml:space="preserve">
<path fill='rgba(85,17,140,1)' d="M1,164.5c-0.7-0.6-1-1.4-1-2.4s0.3-1.8,1-2.5c0.7-0.7,1.5-1,2.7-1s2.2-0.5,3.2-1.5c1-1,1.5-2.2,1.5-3.6V73.5
	c0-0.9,0.3-1.8,1-2.4c0.7-0.7,1.5-1.1,2.5-1.1c0.9,0,1.7,0.4,2.4,1.1c0.7,0.7,1,1.5,1,2.4v79.9c0,3.4-1.1,6.2-3.4,8.5
	c-2.3,2.3-5.1,3.4-8.5,3.4C2.4,165.4,1.6,165.1,1,164.5z M8.7,48.2V45c0-0.9,0.4-1.7,1.1-2.4c0.7-0.7,1.6-1,2.4-1
	c0.9,0,1.7,0.3,2.3,1c0.7,0.7,1,1.4,1,2.4v3.2c0,0.9-0.3,1.8-1,2.4c-0.7,0.7-1.4,1.1-2.3,1.1c-0.9,0-1.7-0.4-2.4-1.1
	C9.1,50,8.7,49.1,8.7,48.2z"/>
<path fill='rgba(85,17,140,1)' d="M48.7,48.2V45c0-0.9,0.3-1.7,1-2.4c0.7-0.7,1.4-1,2.4-1c0.9,0,1.8,0.3,2.5,1c0.7,0.7,1,1.4,1,2.4v3.2
	c0,1-0.4,1.9-1,2.6c-0.7,0.7-1.5,1.1-2.5,1.1c-0.9,0-1.7-0.4-2.4-1.1C49,50.1,48.7,49.2,48.7,48.2z M48.7,135.3V73.4
	c0-0.9,0.3-1.7,1-2.4c0.7-0.7,1.5-1,2.4-1s1.8,0.3,2.5,1c0.7,0.7,1,1.4,1,2.4v61.9c0,0.9-0.4,1.7-1,2.4c-0.7,0.7-1.5,1-2.5,1
	c-0.9,0-1.7-0.3-2.4-1C49,137,48.7,136.2,48.7,135.3z"/>
<path fill='rgba(85,17,140,1)' d="M142.8,135.3v-9.9c-3.1,4.1-6.9,7.3-11.5,9.7c-4.6,2.4-9.5,3.6-14.8,3.6c-9.2,0-17.1-3.3-23.5-10
	c-6.4-6.7-9.7-14.7-9.7-24.2c0-9.5,3.2-17.6,9.7-24.3S107.2,70,116.5,70c5.3,0,10.3,1.2,14.8,3.6c4.6,2.4,8.4,5.7,11.5,9.8V44
	c0-0.9,0.4-1.7,1.1-2.4c0.7-0.7,1.5-1,2.4-1c0.9,0,1.7,0.3,2.4,1c0.7,0.7,1,1.4,1,2.4v91.3c0,0.9-0.3,1.7-1,2.4
	c-0.7,0.7-1.4,1-2.4,1c-0.9,0-1.8-0.3-2.4-1C143.1,137,142.8,136.2,142.8,135.3z M90.2,104.4c0,7.6,2.6,14.1,7.8,19.4
	c5.2,5.3,11.3,8,18.5,8c7.1,0,13.3-2.5,18.3-7.6c5.1-5.1,7.8-11.3,8-18.5v-2.2c-0.3-7.4-3-13.6-8-18.8c-5.1-5.1-11.2-7.7-18.3-7.7
	c-7.1,0-13.3,2.7-18.5,8.1C92.7,90.3,90.2,96.8,90.2,104.4z"/>
<path fill='rgba(85,17,140,1)' d="M186.6,128.5c-6.3-6.8-9.5-14.8-9.5-24.1c0-9.3,3.2-17.4,9.5-24.2c6.3-6.8,14-10.1,23-10.1
	c9,0,16.6,3.4,23,10.1c6.3,6.8,9.5,14.8,9.5,24.2c0,9.3-3.2,17.4-9.5,24.1c-6.3,6.8-14,10.1-23,10.1
	C200.6,138.6,193,135.2,186.6,128.5z M209.6,76.6c-7,0-13,2.7-18.1,8.1c-5.1,5.4-7.6,11.9-7.6,19.5c0,7.6,2.5,14.1,7.6,19.5
	c5.1,5.4,11.1,8.1,18.1,8.1s13-2.7,18.1-8.1c5.1-5.4,7.6-11.9,7.6-19.5c0-7.6-2.5-14.1-7.6-19.5C222.6,79.3,216.6,76.6,209.6,76.6z"
	/>
<path fill='rgba(85,17,140,1)' d="M52.1,26.4c-1.7,0-3-1.3-3-3c0-0.1,0-0.3,0-0.4c0-1.7,1.3-3,2.9-3.1c1.7-0.1,3,1.3,3.1,2.9c0,0.2,0,0.4,0,0.6
	C55.1,25,53.8,26.4,52.1,26.4z"/>
<path fill='rgba(85,17,140,1)' d="M52.1,24.9c-1.6,0-2.9-1.2-3-2.8c0-0.3,0-0.6-0.1-0.9c0-0.1,0-0.3,0-0.4c0-0.1-0.1-0.3-0.1-0.4
	c0-0.3-0.1-0.6-0.2-0.8c0-0.1-0.1-0.3-0.1-0.4c-0.1-0.1-0.1-0.3-0.1-0.4c-0.1-0.3-0.2-0.5-0.2-0.8c0-0.1-0.1-0.3-0.1-0.4
	c-0.1-0.1-0.1-0.3-0.2-0.4c-0.1-0.3-0.2-0.5-0.3-0.8c-0.1-0.1-0.1-0.3-0.1-0.4c-0.1-0.1-0.2-0.2-0.2-0.4c-0.1-0.3-0.3-0.5-0.4-0.8
	c-0.1-0.1-0.1-0.3-0.2-0.4c-0.1-0.1-0.2-0.2-0.3-0.3c-0.2-0.2-0.3-0.5-0.5-0.7c-0.1-0.1-0.2-0.2-0.2-0.4c-0.1-0.1-0.2-0.2-0.3-0.3
	c-0.2-0.2-0.4-0.4-0.5-0.7c-0.1-0.1-0.2-0.2-0.3-0.3c-0.1-0.1-0.2-0.2-0.3-0.3c-0.2-0.2-0.4-0.4-0.6-0.6c-0.1-0.1-0.2-0.2-0.3-0.3
	c-0.1-0.1-0.2-0.2-0.3-0.3c-0.2-0.2-0.4-0.4-0.7-0.5c-0.1-0.1-0.2-0.2-0.3-0.3c-0.1-0.1-0.2-0.1-0.4-0.2c-0.2-0.2-0.5-0.3-0.7-0.5
	c-0.1-0.1-0.2-0.2-0.3-0.3c-0.1-0.1-0.3-0.1-0.4-0.2c-0.2-0.1-0.5-0.3-0.8-0.4c-0.1-0.1-0.3-0.1-0.4-0.2c-0.1,0-0.3-0.1-0.4-0.1
	c-0.3-0.1-0.5-0.2-0.8-0.3c-0.1-0.1-0.3-0.1-0.4-0.2c-0.1,0-0.3-0.1-0.4-0.1c-0.3-0.1-0.5-0.2-0.8-0.2c-0.1,0-0.3-0.1-0.4-0.1
	c-0.1,0-0.3,0-0.4-0.1c-0.3-0.1-0.6-0.1-0.8-0.2c-0.1,0-0.3-0.1-0.4-0.1c-0.1,0-0.3,0-0.4,0c-0.3,0-0.6-0.1-0.9-0.1
	c-0.1,0-0.3,0-0.4-0.1c-0.1,0-0.3,0-0.4,0c-0.1,0-0.3,0-0.4,0l-0.4,0c-0.1,0-0.3,0-0.4,0C30.8,6,30.6,6,30.5,6c-0.3,0-0.6,0-0.9,0.1
	c-0.1,0-0.3,0-0.4,0c-0.1,0-0.3,0.1-0.4,0.1c-0.3,0-0.6,0.1-0.8,0.2c-0.1,0-0.3,0.1-0.4,0.1c-0.1,0.1-0.3,0.1-0.4,0.1
	c-0.3,0.1-0.5,0.2-0.8,0.2c-0.1,0-0.3,0.1-0.4,0.1c-0.1,0.1-0.3,0.1-0.4,0.2c-0.3,0.1-0.5,0.2-0.8,0.3c-0.1,0.1-0.3,0.1-0.4,0.1
	c-0.1,0.1-0.2,0.2-0.4,0.2c-0.3,0.1-0.5,0.3-0.8,0.4c-0.1,0.1-0.3,0.1-0.4,0.2c-0.1,0.1-0.2,0.2-0.3,0.3C22.2,8.8,22,9,21.8,9.2
	c-0.1,0.1-0.2,0.2-0.4,0.2c-0.1,0.1-0.2,0.2-0.3,0.3c-0.2,0.2-0.4,0.4-0.7,0.5c-0.1,0.1-0.2,0.2-0.3,0.3c-0.1,0.1-0.2,0.2-0.3,0.3
	c-0.2,0.2-0.4,0.4-0.6,0.6c-0.1,0.1-0.2,0.2-0.3,0.3c-0.1,0.1-0.2,0.2-0.3,0.3c-0.2,0.2-0.4,0.4-0.5,0.7c-0.1,0.1-0.2,0.2-0.3,0.3
	c-0.1,0.1-0.1,0.2-0.2,0.4c-0.2,0.2-0.3,0.5-0.5,0.7c-0.1,0.1-0.2,0.2-0.3,0.3c-0.1,0.1-0.1,0.3-0.2,0.4c-0.1,0.2-0.3,0.5-0.4,0.7
	c-0.1,0.1-0.1,0.3-0.2,0.4c0,0.1-0.1,0.3-0.1,0.4c-0.1,0.3-0.2,0.5-0.3,0.8c-0.1,0.1-0.1,0.3-0.2,0.4c0,0.1-0.1,0.3-0.1,0.4
	c-0.1,0.3-0.2,0.5-0.2,0.8c0,0.1-0.1,0.3-0.1,0.4c0,0.1,0,0.3-0.1,0.4c-0.1,0.3-0.1,0.6-0.2,0.8c0,0.1-0.1,0.3-0.1,0.4
	c0,0.1,0,0.3,0,0.4c0,0.3-0.1,0.6-0.1,0.9c-0.1,1.7-1.6,2.9-3.2,2.8c-1.7-0.1-2.9-1.6-2.8-3.2c0-0.4,0.1-0.8,0.1-1.1
	c0-0.2,0.1-0.4,0.1-0.6c0-0.2,0-0.4,0-0.6C8.8,19,8.9,18.6,9,18.2c0-0.2,0.1-0.4,0.2-0.5c0-0.2,0-0.4,0.1-0.6
	c0.1-0.4,0.2-0.7,0.3-1.1c0.1-0.2,0.1-0.4,0.2-0.5c0-0.2,0.1-0.4,0.2-0.6c0.1-0.4,0.3-0.7,0.4-1.1c0.1-0.2,0.2-0.3,0.3-0.5
	c0.1-0.2,0.1-0.4,0.2-0.5c0.2-0.3,0.4-0.7,0.5-1c0.1-0.2,0.2-0.3,0.3-0.5c0.1-0.2,0.2-0.3,0.3-0.5c0.2-0.3,0.4-0.6,0.6-1
	c0.1-0.2,0.2-0.3,0.4-0.4c0.1-0.2,0.2-0.3,0.3-0.5c0.2-0.3,0.5-0.6,0.7-0.9c0.1-0.1,0.3-0.3,0.4-0.4c0.1-0.2,0.2-0.3,0.4-0.4
	c0.3-0.3,0.5-0.5,0.8-0.8c0.1-0.1,0.3-0.3,0.4-0.4c0.1-0.1,0.2-0.3,0.4-0.4c0.3-0.3,0.6-0.5,0.9-0.7c0.2-0.1,0.3-0.2,0.5-0.3
	c0.1-0.1,0.3-0.3,0.4-0.4c0.3-0.2,0.6-0.4,1-0.6c0.2-0.1,0.3-0.2,0.5-0.3c0.1-0.1,0.3-0.2,0.5-0.3c0.3-0.2,0.7-0.4,1-0.5
	c0.2-0.1,0.4-0.2,0.5-0.2C22,2.2,22.1,2.1,22.3,2c0.4-0.2,0.7-0.3,1.1-0.4c0.2-0.1,0.4-0.1,0.6-0.2c0.2-0.1,0.3-0.2,0.5-0.2
	c0.4-0.1,0.7-0.2,1.1-0.3c0.2-0.1,0.4-0.1,0.6-0.1c0.2-0.1,0.4-0.1,0.5-0.2c0.4-0.1,0.7-0.2,1.1-0.2c0.2,0,0.4,0,0.6,0
	c0.2-0.1,0.4-0.1,0.6-0.1c0.4,0,0.8-0.1,1.1-0.1c0.2,0,0.4,0,0.6,0C30.8,0,31,0,31.2,0c0.4,0,0.8,0,1.1,0c0.2,0,0.4,0,0.6,0.1
	c0.2,0,0.4,0,0.6,0c0.4,0,0.8,0.1,1.1,0.1c0.2,0,0.4,0.1,0.6,0.1c0.2,0,0.4,0,0.6,0c0.4,0.1,0.8,0.1,1.1,0.2c0.2,0,0.4,0.1,0.5,0.2
	c0.2,0,0.4,0,0.6,0.1c0.4,0.1,0.7,0.2,1.1,0.3c0.2,0.1,0.4,0.1,0.5,0.2c0.2,0,0.4,0.1,0.6,0.2c0.4,0.1,0.7,0.3,1.1,0.4
	c0.2,0.1,0.3,0.2,0.5,0.3c0.2,0.1,0.4,0.1,0.5,0.2c0.3,0.2,0.7,0.4,1,0.5c0.2,0.1,0.3,0.2,0.5,0.3c0.2,0.1,0.3,0.2,0.5,0.3
	c0.3,0.2,0.6,0.4,1,0.6c0.2,0.1,0.3,0.2,0.4,0.4c0.2,0.1,0.3,0.2,0.5,0.3c0.3,0.2,0.6,0.5,0.9,0.7c0.1,0.1,0.3,0.3,0.4,0.4
	c0.2,0.1,0.3,0.2,0.5,0.4c0.3,0.3,0.5,0.5,0.8,0.8c0.1,0.1,0.3,0.3,0.4,0.5c0.1,0.1,0.3,0.2,0.4,0.4c0.2,0.3,0.5,0.6,0.7,0.9
	c0.1,0.2,0.2,0.3,0.3,0.5c0.1,0.1,0.3,0.3,0.4,0.4c0.2,0.3,0.4,0.6,0.6,1c0.1,0.2,0.2,0.3,0.3,0.5c0.1,0.1,0.2,0.3,0.3,0.5
	c0.2,0.3,0.4,0.7,0.5,1c0.1,0.2,0.2,0.4,0.2,0.5c0.1,0.2,0.2,0.3,0.3,0.5c0.2,0.3,0.3,0.7,0.4,1.1c0.1,0.2,0.1,0.4,0.2,0.6
	c0.1,0.2,0.2,0.3,0.2,0.5c0.1,0.4,0.2,0.7,0.3,1.1c0.1,0.2,0.1,0.4,0.1,0.6c0.1,0.2,0.1,0.4,0.2,0.5c0.1,0.4,0.2,0.8,0.2,1.1
	c0,0.2,0,0.4,0,0.6c0.1,0.2,0.1,0.4,0.1,0.6c0,0.4,0.1,0.8,0.1,1.1c0.1,1.7-1.1,3.1-2.8,3.2C52.2,24.9,52.1,24.9,52.1,24.9z"/>
<path fill='rgba(85,17,140,1)' d="M11.4,26.4c-1.7,0-3-1.3-3-3c0-0.2,0-0.4,0-0.6c0-1.7,1.4-3,3.1-2.9c1.7,0,3,1.4,2.9,3.1c0,0.1,0,0.3,0,0.4
	C14.4,25,13,26.4,11.4,26.4z"/>
</svg>