<svg width="150px" id="69c57df6-39a7-40c3-962f-ac01faddcabd" data-name="Layer 1" xmlns="http://www.w3.org/2000/svg" viewBox="0 0 692.55 124.86">
        <title>logo</title>
        <path fill='blue' d="M66.33,108.85a3.21,3.21,0,0,0-3.21-3.19H43a3.2,3.2,0,1,0,0,6.4H63.12A3.21,3.21,0,0,0,66.33,108.85Z" style="fill:#00a5ff"></path>
        <path fill='blue' d="M66.32,121.66a3.2,3.2,0,0,0-3.2-3.2H43a3.2,3.2,0,1,0,0,6.39H63.13A3.19,3.19,0,0,0,66.32,121.66Z" style="fill:#00a5ff"></path>
        <path fill='blue' d="M.24,77.42A3.21,3.21,0,0,1,2,73.23l9.34-3.86a3.2,3.2,0,1,1,2.45,5.91L4.43,79.14A3.2,3.2,0,0,1,.24,77.42Z" style="fill:#00a5ff"></path>
        <path fill='blue' d="M106.25,77.42a3.22,3.22,0,0,0-1.73-4.19l-9.35-3.86a3.2,3.2,0,0,0-2.45,5.91l9.35,3.86A3.19,3.19,0,0,0,106.25,77.42Z" style="fill:#00a5ff"></path>
        <path fill='blue' d="M.24,31.1A3.2,3.2,0,0,0,2,35.28l9.34,3.86a3.2,3.2,0,1,0,2.45-5.91L4.43,29.37A3.2,3.2,0,0,0,.24,31.1Z" style="fill:#00a5ff"></path>
        <path fill='blue' d="M106.25,31.1a3.21,3.21,0,0,1-1.73,4.18l-9.35,3.86a3.2,3.2,0,1,1-2.45-5.91l9.35-3.86A3.19,3.19,0,0,1,106.25,31.1Z" style="fill:#00a5ff"></path>
        <path fill='blue' d="M52.88,16.52a3.22,3.22,0,0,0,3.2-3.21V3.2a3.2,3.2,0,0,0-6.4,0V13.31A3.21,3.21,0,0,0,52.88,16.52Z" style="fill:#00a5ff"></path>
        <path fill='blue' d="M84.68,59.46a31.85,31.85,0,0,0,.4-5c0-.47,0-.93,0-1.4l-.93-6.39a32,32,0,0,0-31-24.21h0A32,32,0,0,0,30.44,77.08a31.93,31.93,0,0,1,9.35,22.17H66.35A31.9,31.9,0,0,1,75.7,77.08,32.16,32.16,0,0,0,83,65.85Z" style="fill:#00a5ff"></path>
        <path fill='blue' d="M177.44,92.62q0,8.8-3.85,13.21t-11.71,6.92l-2.16-6a19.55,19.55,0,0,0,6-3.36A9.64,9.64,0,0,0,168.45,99a24,24,0,0,0,.78-6.74V41.38h8.21Z" style="fill:#00a5ff"></path>
        <path fill='blue' d="M229.45,100.91h-6.83l-.6-7.09a17.31,17.31,0,0,1-6,6.18,16.17,16.17,0,0,1-8.21,2q-6,0-9.33-3.63T195.15,88V55.38h7.95V87.17c0,3.11.54,5.32,1.64,6.61s2.88,2,5.36,2q6.65,0,11.4-7.87V55.38h7.95Z" style="fill:#00a5ff"></path>
        <path fill='blue' d="M278.74,58.05q3.5,3.72,3.5,10.2v32.66h-7.95V69.37c0-3.22-.61-5.5-1.82-6.82a6.86,6.86,0,0,0-5.35-2,10.41,10.41,0,0,0-6.4,2.07,21.61,21.61,0,0,0-5.18,6v32.31h-7.95V55.38h6.83l.69,6.74a18,18,0,0,1,6-5.71A15.54,15.54,0,0,1,269,54.34Q275.25,54.34,278.74,58.05Z" style="fill:#00a5ff"></path>
        <path fill='blue' d="M307.9,35.07A5.32,5.32,0,0,1,309.45,39a5.16,5.16,0,0,1-1.55,3.85,5.61,5.61,0,0,1-4.06,1.51,5.5,5.5,0,0,1-4-1.51A5.16,5.16,0,0,1,298.31,39a5.32,5.32,0,0,1,1.55-3.89,5.41,5.41,0,0,1,4-1.55A5.52,5.52,0,0,1,307.9,35.07Zm0,20.31v45.53H300V55.38Z" style="fill:#00a5ff"></path>
        <path fill='blue' d="M359.31,41.38V93.74h24.45l-.95,7.17H351.1V41.38Z" style="fill:#00a5ff"></path>
        <path fill='blue' d="M427.48,80.86h-29q.53,7.53,3.81,11.06a11,11,0,0,0,8.46,3.55,18.59,18.59,0,0,0,6.05-1,24.9,24.9,0,0,0,5.79-3L426,96.24a25.19,25.19,0,0,1-15.9,5.71q-9.51,0-14.82-6.22T390,78.62a32.35,32.35,0,0,1,2.29-12.57,19.65,19.65,0,0,1,6.56-8.6,16.69,16.69,0,0,1,10.07-3.11q9.08,0,13.91,6t4.84,16.5C427.65,78.13,427.59,79.48,427.48,80.86Zm-7.69-6.39q0-6.73-2.68-10.28t-8-3.54q-9.76,0-10.63,14.34h21.35Z" style="fill:#00a5ff"></path>
        <path fill='blue' d="M472.83,94.39a5.85,5.85,0,0,0,2.86,2L473.87,102a12.13,12.13,0,0,1-5.7-2,9.1,9.1,0,0,1-3.2-4.84q-4.58,6.82-13.56,6.83-6.75,0-10.63-3.81a13.26,13.26,0,0,1-3.89-9.93q0-7.26,5.23-11.15t14.82-3.89h7V69.81c0-3.23-.78-5.53-2.34-6.92s-3.94-2.07-7.17-2.07a40.22,40.22,0,0,0-12.27,2.42l-2-5.79a45.86,45.86,0,0,1,15.72-3.11q8,0,12,3.93t4,11.19V90.28A7.19,7.19,0,0,0,472.83,94.39Zm-8.89-5.49V78.45h-6q-12.62,0-12.61,9.33c0,2.7.66,4.75,2,6.13S450.63,96,453.22,96Q460,96,463.94,88.9Z" style="fill:#00a5ff"></path>
        <path fill='blue' d="M514.22,54.86l-1.47,7.77a16.63,16.63,0,0,0-4-.51A8.43,8.43,0,0,0,502,65.23q-2.59,3.1-4.06,9.67v26h-7.95V55.38h6.83l.77,9.24a17.32,17.32,0,0,1,4.93-7.69,11,11,0,0,1,7.26-2.59A18.25,18.25,0,0,1,514.22,54.86Z" style="fill:#00a5ff"></path>
        <path fill='blue' d="M556.17,58.05q3.5,3.72,3.5,10.2v32.66h-7.95V69.37c0-3.22-.61-5.5-1.82-6.82a6.86,6.86,0,0,0-5.35-2,10.39,10.39,0,0,0-6.4,2.07,21.61,21.61,0,0,0-5.18,6v32.31h-8V55.38h6.82l.7,6.74a18,18,0,0,1,6-5.71,15.54,15.54,0,0,1,7.91-2.07Q552.66,54.34,556.17,58.05Z" style="fill:#00a5ff"></path>
        <path fill='blue' d="M585.33,35.07A5.32,5.32,0,0,1,586.88,39a5.16,5.16,0,0,1-1.55,3.85,5.64,5.64,0,0,1-4.07,1.51,5.5,5.5,0,0,1-4-1.51A5.12,5.12,0,0,1,575.74,39a5.28,5.28,0,0,1,1.55-3.89,5.4,5.4,0,0,1,4-1.55A5.54,5.54,0,0,1,585.33,35.07Zm0,20.31v45.53h-8V55.38Z" style="fill:#00a5ff"></path>
        <path fill='blue' d="M634.62,58.05q3.5,3.72,3.5,10.2v32.66h-8V69.37c0-3.22-.61-5.5-1.82-6.82a6.86,6.86,0,0,0-5.35-2,10.41,10.41,0,0,0-6.4,2.07,21.61,21.61,0,0,0-5.18,6v32.31h-7.95V55.38h6.82l.7,6.74a18,18,0,0,1,6-5.71,15.54,15.54,0,0,1,7.91-2.07Q631.11,54.34,634.62,58.05Z" style="fill:#00a5ff"></path>
        <path fill='blue' d="M692.55,57.45a24.1,24.1,0,0,1-5.7,1.12c-2.08.18-4.61.26-7.61.26q8,3.63,8,11.49a14.52,14.52,0,0,1-4.67,11.15q-4.67,4.32-12.7,4.32a19,19,0,0,1-5.79-.86,4.9,4.9,0,0,0-1.64,1.85,5.15,5.15,0,0,0-.6,2.38c0,2.48,2,3.71,6,3.71h7.26a19.06,19.06,0,0,1,8.12,1.65A13.05,13.05,0,0,1,688.7,99a11.2,11.2,0,0,1,1.95,6.48,11.55,11.55,0,0,1-5.45,10.24q-5.43,3.58-15.89,3.58a35.87,35.87,0,0,1-11.62-1.51,11,11,0,0,1-6.1-4.54,14.9,14.9,0,0,1-1.81-7.77H657a7.94,7.94,0,0,0,1,4.36,6.47,6.47,0,0,0,3.71,2.42,27.19,27.19,0,0,0,7.61.82q7.17,0,10.23-1.77a5.75,5.75,0,0,0,3.07-5.31,5.48,5.48,0,0,0-2.42-4.84,11.93,11.93,0,0,0-6.74-1.64h-7.17q-5.79,0-8.77-2.47a7.7,7.7,0,0,1-3-6.17,8,8,0,0,1,1.3-4.32,12.62,12.62,0,0,1,3.71-3.72,13,13,0,0,1-7.69-12.61A15.13,15.13,0,0,1,654.14,62a15.6,15.6,0,0,1,6.31-5.66,19.59,19.59,0,0,1,8.94-2,62.37,62.37,0,0,0,9-.39,31,31,0,0,0,6-1.3q2.39-.81,5.83-2.37Zm-30.11,5.4A10.81,10.81,0,0,0,660,70.24a10.79,10.79,0,0,0,2.5,7.47,9,9,0,0,0,7.09,2.81q4.66,0,7.12-2.72c1.64-1.82,2.47-4.37,2.47-7.65q0-10.11-9.77-10.11A8.76,8.76,0,0,0,662.44,62.85Z" style="fill:#00a5ff"></path>
    </svg>