<svg id="1b2527f1-69ee-4e5d-8e2e-4f102d96dff4" data-name="Layer 1" xmlns="http://www.w3.org/2000/svg" viewBox="0 0 125.12 8.93"><title>miles-logo</title><path d="M0,.22H1.19L4.28,7.34,7.38.22H8.51V8.71H7.72V1.22h0L4.45,8.71H4.1L.82,1.22h0V8.71H0Z" style="fill:red"/><path d="M13.27.22h.79V8.71h-.79Z" style="fill:red"/><path d="M18.91.22h.79V8h4v.72H18.91Z" style="fill:red"/><path d="M27.43.22h5.2V.94H28.22V4h4.13v.72H28.22V8h4.6v.72H27.43Z" style="fill:red"/><path d="M37.3,7.14a1.89,1.89,0,0,0,.81.8,2.33,2.33,0,0,0,1.13.27A2.25,2.25,0,0,0,40,8.09a1.72,1.72,0,0,0,.61-.34A1.6,1.6,0,0,0,41,7.23a1.52,1.52,0,0,0,.15-.69A1.26,1.26,0,0,0,41,5.81a1.54,1.54,0,0,0-.5-.48,3.22,3.22,0,0,0-.7-.31L39,4.75q-.42-.13-.81-.3a2.67,2.67,0,0,1-.7-.44,2,2,0,0,1-.5-.67,2.53,2.53,0,0,1-.18-1,2.14,2.14,0,0,1,.22-1,2.18,2.18,0,0,1,.6-.74,2.74,2.74,0,0,1,.87-.44,3.52,3.52,0,0,1,1-.15,3.19,3.19,0,0,1,1.29.25,2.37,2.37,0,0,1,1,.82l-.69.49a2,2,0,0,0-.7-.63,2,2,0,0,0-1-.21,2.48,2.48,0,0,0-.73.1,1.83,1.83,0,0,0-.61.3,1.43,1.43,0,0,0-.41.5,1.46,1.46,0,0,0-.16.71,1.41,1.41,0,0,0,.32,1,2.61,2.61,0,0,0,.81.54,9.42,9.42,0,0,0,1.06.34,5.18,5.18,0,0,1,1.06.41,2.26,2.26,0,0,1,.81.7,2.13,2.13,0,0,1,.32,1.24,2.25,2.25,0,0,1-.22,1,2,2,0,0,1-.58.75,2.45,2.45,0,0,1-.84.46,3.08,3.08,0,0,1-1,.16,3.93,3.93,0,0,1-1.55-.3,2.78,2.78,0,0,1-1.21-1Z" style="fill:red"/><path d="M51.9.22h1l5.17,7.44h0V.22h.79V8.71h-1L52.72,1.27h0V8.71H51.9Z" style="fill:red"/><path d="M63.76.22H69V.94h-4.4V4h4.13v.72H64.55V8h4.59v.72H63.76Z" style="fill:red"/><path d="M75.28.94H72.37V.22H79V.94h-2.9V8.71h-.79Z" style="fill:red"/><path d="M81.7.22h.81l2.11,7.52h0L86.8.22h1L90,7.74h0L92.09.22h.81L90.43,8.71h-1L87.31,1.15h0L85.14,8.71h-1Z" style="fill:red"/><path d="M96.09,4.46a4.7,4.7,0,0,1,.33-1.78,4.11,4.11,0,0,1,.9-1.41A4,4,0,0,1,98.71.34a4.83,4.83,0,0,1,3.56,0,3.91,3.91,0,0,1,1.38.93,4,4,0,0,1,.9,1.41,4.7,4.7,0,0,1,.33,1.78,4.8,4.8,0,0,1-.33,1.8,4,4,0,0,1-.9,1.41,3.91,3.91,0,0,1-1.38.93,5,5,0,0,1-3.56,0,4,4,0,0,1-1.39-.93,4.11,4.11,0,0,1-.9-1.41A4.8,4.8,0,0,1,96.09,4.46Zm.8,0a4.22,4.22,0,0,0,.25,1.48,3.58,3.58,0,0,0,.72,1.19A3.38,3.38,0,0,0,99,7.92a3.82,3.82,0,0,0,1.5.29A3.74,3.74,0,0,0,102,7.92a3.38,3.38,0,0,0,1.13-.79,3.28,3.28,0,0,0,.72-1.19,4.22,4.22,0,0,0,.26-1.48A4.17,4.17,0,0,0,103.83,3a3.28,3.28,0,0,0-.72-1.19A3.25,3.25,0,0,0,102,1a3.74,3.74,0,0,0-1.49-.29A3.82,3.82,0,0,0,99,1a3.25,3.25,0,0,0-1.13.79A3.58,3.58,0,0,0,97.14,3,4.16,4.16,0,0,0,96.89,4.46Z" style="fill:red"/><path d="M109.18.22h2.68a5.05,5.05,0,0,1,.63.07,3.66,3.66,0,0,1,.68.19,2.07,2.07,0,0,1,.63.39,2,2,0,0,1,.45.63,2.22,2.22,0,0,1,.18.94,2.16,2.16,0,0,1-.21,1,2,2,0,0,1-.53.64,2.21,2.21,0,0,1-.7.36,4.47,4.47,0,0,1-.73.17l2.47,4.08h-.9l-2.39-4H110v4h-.79ZM110,4h1.68a2.64,2.64,0,0,0,1-.16,1.72,1.72,0,0,0,.61-.38,1.25,1.25,0,0,0,.29-.49,1.84,1.84,0,0,0,.08-.48,1.72,1.72,0,0,0-.08-.48,1.18,1.18,0,0,0-.29-.49,1.73,1.73,0,0,0-.61-.39,2.87,2.87,0,0,0-1-.15H110Z" style="fill:red"/><path d="M118.81.22h.79V4h.07L123.79.22h1.09L120.59,4.1l4.53,4.61H124l-4.31-4.39h-.07V8.71h-.79Z" style="fill:red"/></svg>