<?xml version="1.0" encoding="utf-8"?>
<!-- Generator: Adobe Illustrator 16.0.0, SVG Export Plug-In . SVG Version: 6.00 Build 0)  -->
<!DOCTYPE svg PUBLIC "-//W3C//DTD SVG 1.1//EN" "http://www.w3.org/Graphics/SVG/1.1/DTD/svg11.dtd">
<svg version="1.1" id="Layer_1" xmlns="http://www.w3.org/2000/svg" xmlns:xlink="http://www.w3.org/1999/xlink" x="0px" y="0px"
	 width="4958.192px" height="1285.423px" viewBox="0 0 4958.192 1285.423" enable-background="new 0 0 4958.192 1285.423"
	 xml:space="preserve">
<g>
	<path fill-rule="evenodd" clip-rule="evenodd" fill="#08E5D5" d="M289.828,0.903c0.944,0.734,2.055,1.47,3.013,2.37
		c1.942,1.824,3.811,3.728,5.695,5.612c86.253,86.253,172.516,172.495,258.753,258.763
		c144.2,144.251,288.389,288.513,432.572,432.78c95.18,95.235,190.354,190.476,285.496,285.748
		c9.473,9.484,9.504,7.181,0.279,16.547c-73.895,75.024-147.814,150.026-221.707,225.055c-17.068,17.331-34.08,34.719-51.078,52.119
		c-7.862,8.049-6.708,6.721-13.656-0.216c-75.467-75.355-150.912-150.734-226.359-226.11
		c-82.285-82.207-164.545-164.437-246.853-246.622C383.923,675.083,251.835,543.247,119.757,411.4
		C82.726,374.434,45.688,337.475,8.652,300.513c-1.18-1.178-2.368-2.346-3.539-3.531c-6.845-6.937-6.82-6.914,0.091-13.805
		c54.751-54.594,109.499-109.191,164.236-163.8c37.75-37.661,75.471-75.351,113.241-112.992
		C284.751,4.324,286.443,1.677,289.828,0.903z"/>
	<path fill-rule="evenodd" clip-rule="evenodd" fill="#0AE5D5" d="M3996.282,600.397c0-3.536,0-7.071,0-10.607
		c0-95.295-0.014-190.588,0.018-285.883c0.004-13.691-1.428-12.165,12.315-12.243c10.329-0.059,20.666,0.238,30.983-0.108
		c5.353-0.181,7.243,1.888,6.723,6.94c-0.17,1.648-0.021,3.329-0.021,4.995c0,201.251,0.006,402.502-0.011,603.753
		c-0.002,13.775,1.161,11.922-12.508,12.037c-8.996,0.075-17.993,0.016-26.989,0.014c-10.84-0.003-10.533,0.895-10.516-10.083
		c0.025-15.327,0.006-30.654,0.006-45.981c0-2.872,0-5.743,0-8.004c-2.252-1.308-2.822-0.134-3.282,0.565
		c-23.633,35.879-57.916,56.49-98.579,66.721c-49.743,12.516-98.688,8.872-145.311-13.092
		c-57.369-27.025-91.417-73.373-104.488-134.536c-10.504-49.15-6.193-97.485,16.621-143.115
		c28.173-56.343,74.198-89.531,135.339-101.906c41.382-8.375,82.224-5.462,121.755,10.048
		C3950.418,552.499,3970.677,568.912,3996.282,600.397z M3841.213,571.326c-4.325,0-8.681-0.329-12.973,0.049
		c-55.38,4.887-97.282,30.84-121.938,81.165c-19.889,40.592-21.365,83.312-9.062,126.536c8.659,30.421,25.615,55.34,50.733,74.704
		c52.987,40.85,136.124,41.133,193.481-3.837c55.847-43.785,76.264-119.514,46.957-184.055
		C3959.976,603.26,3909.021,573.508,3841.213,571.326z"/>
	<path fill-rule="evenodd" clip-rule="evenodd" fill="#0AE5D5" d="M2424.529,331.535c18.1,0,36.052,0.035,54.004-0.024
		c4.602-0.016,5.001,3.557,6.129,6.62c8.518,23.119,17.072,46.224,25.563,69.352c52.212,142.204,104.406,284.415,156.646,426.609
		c1.136,3.092,1.794,6.44,4.023,9.134c3.383-1.347,3.279-4.754,4.235-7.331c60.319-162.637,120.502-325.324,180.895-487.934
		c7.539-20.296,1.759-16.035,23.277-16.426c13.271-0.241,26.549-0.045,39.754-0.045c0.574,4-1.059,6.633-2.104,9.381
		c-72.128,189.858-144.283,379.706-216.414,569.563c-3.874,10.198-2.728,8.78-12.617,8.842c-12.665,0.08-25.345-0.332-37.989,0.17
		c-6.145,0.244-8.648-2.094-10.679-7.64c-14.417-39.394-29.184-78.659-43.843-117.965
		c-56.08-150.358-112.166-300.715-168.211-451.085C2425.949,339.406,2423.959,336.172,2424.529,331.535z"/>
	<path fill-rule="evenodd" clip-rule="evenodd" fill="#0AE5D5" d="M3241.612,816.732c10.56,8.9,21.148,17.968,31.915,26.82
		c3.513,2.889,2.7,5.31,0.483,8.454c-15.802,22.415-34.799,41.621-59.595,53.622c-57.891,28.02-117.975,32.747-178.36,10.128
		c-62.34-23.352-98.965-70.489-113.421-134.594c-10.64-47.183-8.923-94.305,10.442-139.221
		c28.346-65.75,78.178-104.792,149.557-114.576c38.083-5.22,75.207-0.924,109.977,16.546
		c48.998,24.617,78.387,64.686,91.301,117.472c5.851,23.915,5.196,48.243,4.857,72.567c-0.057,4.088-1.318,6.264-5.781,5.864
		c-2.645-0.237-5.328-0.033-7.994-0.033c-98.316,0.001-196.632-0.011-294.947,0.013c-14.506,0.004-13.785-1.396-11.968,13.735
		c5.919,49.283,28.923,87.934,72.044,113.803c16.085,9.651,33.785,14.079,52.134,15.862c39.13,3.807,75.483-4.503,108.526-26.221
		c13.518-8.886,24.981-19.893,34.479-32.986C3236.987,821.609,3238.216,818.755,3241.612,816.732z M3102.646,695.093
		c41.957,0,83.915,0.013,125.873-0.009c10.322-0.006,10.572-0.077,9.703-10.575c-2.665-32.178-17.242-58.599-41.062-79.607
		c-33.32-29.388-72.8-38.645-116.247-32.437c-13.914,1.988-27.246,6.107-39.52,13.217c-38.418,22.258-62.076,55.473-72.776,98.233
		c-2.616,10.462-1.911,11.165,9.154,11.17C3019.396,695.104,3061.021,695.093,3102.646,695.093z"/>
	<path fill-rule="evenodd" clip-rule="evenodd" fill="#0AE5D6" d="M4547.381,526.165c54.862-1.006,100.099,20.792,138.061,59.286
		c6.319,6.407,6.222,6.621-0.78,11.93c-9.559,7.246-19.308,14.245-28.759,21.628c-3.38,2.641-5.522,2.287-8.31-0.767
		c-8.567-9.384-18.312-17.428-28.66-24.811c-29.066-20.738-61.461-25.922-96.078-20.869
		c-62.425,9.115-119.832,57.548-125.346,141.028c-1.826,27.639,1.096,54.604,11.984,80.266
		c21.102,49.729,58.985,78.48,111.764,87.934c19.184,3.438,38.459,3.35,57.507-1.462c24.314-6.144,44.234-19.642,61.715-37.154
		c2.116-2.12,4.069-4.405,6.099-6.614c4.967-5.406,5.01-5.458,10.823-0.729c8.788,7.148,17.55,14.335,26.253,21.588
		c6.227,5.19,6.301,5.363,0.799,11.566c-25.059,28.248-55.582,47.788-92.761,55.344c-61.881,12.576-119.515,2.16-170.385-36.23
		c-39.524-29.828-62.1-70.812-70.942-119.116c-7.78-42.502-4.792-84.461,12.139-124.55c26.81-63.479,74.948-101.152,142.184-114.792
		c7.818-1.585,15.773-2.68,23.721-3.367C4534.688,525.731,4541.054,526.165,4547.381,526.165z"/>
	<path fill-rule="evenodd" clip-rule="evenodd" fill="#0AE5D5" d="M4955.083,872.279c2.055,13.049,2.859,26.27,3.107,39.547
		c0.057,3.022-0.822,4.912-3.997,5.898c-29.526,9.174-59.196,15.725-90.315,8.276c-36.775-8.802-59.676-33.07-66.058-70.3
		c-1.701-9.92-2.103-19.856-2.103-29.857c0.001-77.656,0.016-155.313-0.015-232.97c-0.004-12.502,1.531-12.04-11.667-12.037
		c-20.664,0.006-41.328,0.036-61.992-0.014c-9.51-0.022-9.556-0.097-9.62-9.175c-0.062-8.665,0.011-17.331-0.021-25.996
		c-0.038-11.017-0.172-10.022,10.609-10.027c20.665-0.011,41.329-0.001,61.992-0.007c2.333,0,4.667-0.009,6.998-0.082
		c2.41-0.075,3.599-1.423,3.647-3.788c0.047-2.333,0.064-4.666,0.064-6.999c0.006-30.33-0.024-60.659,0.023-90.988
		c0.014-8.26,0.118-8.348,8.068-8.409c10.997-0.085,21.997-0.066,32.996-0.008c8.808,0.047,8.897,0.103,8.915,8.616
		c0.051,24.33,0.018,48.66,0.02,72.99c0,6.999-0.076,14,0.023,20.998c0.105,7.495,0.178,7.632,7.865,7.647
		c29.663,0.061,59.326-0.022,88.988,0.047c14.619,0.034,12.838-1.589,12.947,12.612c0.068,8.998-0.07,17.998,0.031,26.996
		c0.043,3.692-1.354,5.626-5.203,5.551c-2.998-0.059-5.998,0.033-8.998,0.034c-28.662,0.004-57.324-0.021-85.988,0.016
		c-9.543,0.012-9.646,0.081-9.65,8.972c-0.021,79.656,0.01,159.312-0.021,238.969c-0.002,7.381,0.668,14.666,2.775,21.729
		c5.746,19.266,22.016,31.65,43.006,33.179c18.67,1.361,36.411-2.596,53.773-8.953c2.498-0.914,4.975-1.894,7.498-2.727
		C4953.345,871.836,4954.068,872.148,4955.083,872.279z"/>
	<path fill-rule="evenodd" clip-rule="evenodd" fill="#0AE5D5" d="M3448.446,599.583c4.447-2.213,5.455-5.57,7.22-8.227
		c11.55-17.393,25.433-32.651,42.632-44.485c28.977-19.936,61.068-25.147,95.326-18.633c3.809,0.723,6.883,1.778,6.14,7.025
		c-1.728,12.193-2.987,24.451-4.435,36.684c-0.487,4.115-1.608,6.432-6.922,5.637c-60.354-9.027-120.511,22.071-134.569,93.857
		c-2.767,14.125-3.966,28.317-3.952,42.683c0.062,63.978,0.027,127.955,0.025,191.931c0,2.666-0.117,5.338,0.01,7.996
		c0.184,3.854-1.603,5.298-5.364,5.27c-12.994-0.098-25.991-0.147-38.985,0.028c-4.409,0.061-5.977-1.803-5.697-5.959
		c0.156-2.321,0.02-4.663,0.02-6.995c0-85.636,0.343-171.274-0.174-256.907c-0.199-32.95-2.508-65.883-3.56-98.834
		c-0.569-17.829-2.139-14.735,14.251-15.007c8.328-0.137,16.662-0.059,24.991-0.015c10.323,0.055,10.44-1.412,10.729,10.042
		c0.377,14.98,1.034,29.955,1.612,44.929C3447.843,593.213,3448.145,595.816,3448.446,599.583z"/>
	<path fill-rule="evenodd" clip-rule="evenodd" fill="#0AE5D5" d="M4177.647,726.527c0-59.935-0.01-119.868,0.01-179.803
		c0.004-12.486-0.848-11.019,11.411-11.089c10.321-0.059,20.646-0.088,30.966,0.016c7.454,0.075,7.457,0.183,7.627,7.922
		c0.028,1.332,0.004,2.664,0.004,3.996c0,119.87,0.01,239.74-0.013,359.608c-0.003,13.636,1.308,12.025-12.442,12.109
		c-9.656,0.059-19.312,0.062-28.968-0.005c-8.481-0.058-8.569-0.115-8.579-8.952c-0.035-37.959-0.016-75.917-0.016-113.877
		C4177.647,773.143,4177.647,749.835,4177.647,726.527z"/>
	<path fill-rule="evenodd" clip-rule="evenodd" fill="#0AE5D5" d="M1819.597,459.639c-4.854,4.596-10.483,9.713-15.875,15.068
		c-24.545,24.384-49.015,48.844-73.533,73.254c-7.492,7.459-6.34,7.722-13.708,0.357c-25.65-25.632-51.297-51.269-76.916-76.933
		c-5.774-5.784-5.787-5.903-0.233-11.466c28.677-28.722,57.373-57.425,86.104-86.093c5.385-5.373,5.573-5.382,10.855-0.114
		c26.854,26.782,53.654,53.617,80.463,80.443C1817.912,455.316,1819.266,456.38,1819.597,459.639z"/>
	<path fill-rule="evenodd" clip-rule="evenodd" fill="#0AE5D6" d="M1175.981,716.827c-0.685-0.427-1.566-0.85-2.29-1.46
		c-1.016-0.855-1.919-1.845-2.861-2.787c-26.136-26.134-52.29-52.252-78.394-78.42c-5.661-5.675-5.657-5.833,0.106-11.607
		c28.697-28.755,57.422-57.48,86.175-86.18c5.218-5.208,5.372-5.205,10.758,0.169c26.164,26.108,52.3,52.243,78.407,78.407
		c5.703,5.716,5.711,5.871,0.01,11.568c-28.734,28.718-57.505,57.396-86.299,86.053
		C1179.991,714.165,1178.741,716.314,1175.981,716.827z"/>
	<path fill-rule="evenodd" clip-rule="evenodd" fill="#0AE5D6" d="M1376.184,723.956c1.306,0.979,2.178,1.484,2.866,2.171
		c27.086,27.054,54.175,54.104,81.212,81.207c5.381,5.394,5.394,5.595,0.101,10.875c-28.988,28.914-58.019,57.787-87.074,86.636
		c-4.997,4.961-5.179,4.973-10.049,0.116c-26.398-26.33-52.764-52.691-79.092-79.091c-5.223-5.238-5.269-5.484-0.584-10.178
		c30.101-30.158,60.27-60.248,90.431-90.345C1374.447,724.896,1375.092,724.639,1376.184,723.956z"/>
	<path fill-rule="evenodd" clip-rule="evenodd" fill="#0AE5D5" d="M1539.545,177.482c1.071,0.91,2.408,1.894,3.569,3.054
		c27.074,27.041,54.072,54.159,81.259,81.083c3.547,3.512,3.096,5.509-0.219,8.79c-29.56,29.259-59.03,58.608-88.324,88.133
		c-3.941,3.972-6.211,3.049-9.618-0.382c-26.492-26.681-53.141-53.207-79.689-79.832c-4.782-4.795-4.758-4.99,0.298-10.055
		c28.911-28.968,57.863-57.896,86.819-86.818C1535.255,179.844,1536.605,177.785,1539.545,177.482z"/>
	<path fill-rule="evenodd" clip-rule="evenodd" fill="#0AE5D5" d="M1449.477,442.141c-32.589,32.726-64.45,64.721-96.578,96.984
		c-0.751-0.649-2.052-1.642-3.198-2.788c-26.594-26.574-53.193-53.145-79.738-79.769c-5.584-5.6-5.613-5.815-0.577-10.867
		c28.896-28.978,57.835-57.913,86.814-86.808c5.084-5.07,5.347-5.095,10.18-0.273c27.557,27.495,55.039,55.062,82.53,82.621
		C1449.361,441.692,1449.603,442.349,1449.477,442.141z"/>
	<path fill-rule="evenodd" clip-rule="evenodd" fill="#0AE5D5" d="M1641.951,635.44c-0.345,2.434-2.516,3.688-4.115,5.283
		c-19.102,19.065-38.257,38.078-57.391,57.112c-9.923,9.869-19.913,19.672-29.701,29.671c-3.234,3.305-5.379,4.79-9.536,0.567
		c-26.419-26.827-53.168-53.327-79.746-79.999c-5.003-5.02-4.999-5.278-0.087-10.204c28.939-29.022,57.961-57.962,86.898-86.983
		c3.096-3.105,5.4-5.227,9.646-0.929c26.932,27.257,54.111,54.27,81.194,81.378C1640.258,632.483,1641.673,633.481,1641.951,635.44z
		"/>
	<path fill-rule="evenodd" clip-rule="evenodd" fill="#0AE5D5" d="M1901.425,376.121c-3.027-0.305-4.375-2.372-5.992-3.979
		c-10.388-10.33-20.74-20.697-31.1-31.055c-16.011-16.009-32.047-31.993-48.011-48.048c-4.922-4.951-4.938-5.148-0.001-10.099
		c28.923-28.995,57.883-57.952,86.874-86.879c5.048-5.038,5.247-5.05,10.072-0.238c26.644,26.565,53.256,53.16,79.815,79.809
		c4.808,4.825,4.791,5.083-0.324,10.185c-28.992,28.923-58.042,57.789-87.093,86.652
		C1904.277,373.85,1902.695,375.035,1901.425,376.121z"/>
	<path fill-rule="evenodd" clip-rule="evenodd" fill="#0AE5D5" d="M1804.643,89.343c-1.636,1.779-3.356,3.792-5.223,5.655
		c-25.455,25.409-50.898,50.829-76.43,76.161c-4.471,4.436-8.282,11.986-13.825,12.278c-6.352,0.334-10.065-7.776-14.716-12.368
		c-22.987-22.694-45.756-45.611-68.588-68.464c-6.851-6.857-7.502-5.914-0.428-12.984c28.266-28.25,56.525-56.507,84.772-84.775
		c6.573-6.577,5.754-6.377,12.23,0.1c25.666,25.669,51.354,51.316,76.975,77.03C1801.441,84.014,1804.273,85.585,1804.643,89.343z"
		/>
	<path fill-rule="evenodd" clip-rule="evenodd" fill="#0AE5D6" d="M4239.952,383.677c0.043,21.164-15.857,37.426-36.843,37.678
		c-21.409,0.258-38.19-16.136-38.316-37.429c-0.122-20.742,16.3-37.47,37.063-37.754
		C4223.261,345.879,4239.907,362.269,4239.952,383.677z"/>
</g>
</svg>
