<svg id="c662b1ce-76c1-430f-acfb-f9a2629bca2b" data-name="Layer 1" 
    xmlns="http://www.w3.org/2000/svg" viewBox="0 0 55.07 9.22">
    <title>veridium-logo</title>
    <path style='fill: #203a47' d="M0,.58H2.14l2.1,5.56h0L6.4.58h2L4.9,9.07H3.4Z"/>
    <path style='fill: #203a47' d="M14.64,8.06a2.88,2.88,0,0,1-1.09.86,3.29,3.29,0,0,1-1.37.3A3.81,3.81,0,0,1,10.91,9a3,3,0,0,1-1-.62,2.91,2.91,0,0,1-.94-2.22A3,3,0,0,1,9.19,4.9a3,3,0,0,1,.69-1,3.15,3.15,0,0,1,1-.62,3.8,3.8,0,0,1,1.27-.21,2.92,2.92,0,0,1,1.13.21,2.47,2.47,0,0,1,.87.62,2.77,2.77,0,0,1,.54,1,3.78,3.78,0,0,1,.2,1.26v.56H10.74a1.41,1.41,0,0,0,.47.82,1.29,1.29,0,0,0,.89.31,1.4,1.4,0,0,0,.75-.2,2,2,0,0,0,.53-.51ZM13.12,5.5a1.09,1.09,0,0,0-.3-.78A1.07,1.07,0,0,0,12,4.39a1.37,1.37,0,0,0-.92.34,1.24,1.24,0,0,0-.25.35,1.18,1.18,0,0,0-.1.42Z"/>
    <path style='fill: #203a47' d="M16.73,3.24h1.8v.94h0a2.15,2.15,0,0,1,.69-.81,1.7,1.7,0,0,1,1-.27h.31a1.25,1.25,0,0,1,.29.05V4.8a2.62,2.62,0,0,0-.38-.09,2.38,2.38,0,0,0-.39,0,2,2,0,0,0-.81.14,1,1,0,0,0-.46.41,1.42,1.42,0,0,0-.21.61,5,5,0,0,0,0,.8V9.07h-1.8Z"/>
    <path style='fill: #203a47' d="M22.21,1.4a1,1,0,0,1,.31-.73A1,1,0,0,1,24,.67a1,1,0,0,1,.31.73,1,1,0,0,1-.31.74,1,1,0,0,1-1.47,0A1,1,0,0,1,22.21,1.4Zm.15,1.84h1.8V9.07h-1.8Z"/>
    <path style='fill: #203a47' d="M32.29,9.07H30.64V8.3h0a1.6,1.6,0,0,1-.28.32,2.17,2.17,0,0,1-.41.3,2.6,2.6,0,0,1-.51.21,2,2,0,0,1-.59.09A2.94,2.94,0,0,1,27.65,9a2.5,2.5,0,0,1-.91-.62,3,3,0,0,1-.58-.95A3.43,3.43,0,0,1,26,6.2,3.86,3.86,0,0,1,26.14,5a3.36,3.36,0,0,1,.53-1,2.91,2.91,0,0,1,.83-.69,2.4,2.4,0,0,1,1.12-.25,3,3,0,0,1,1.05.17,1.73,1.73,0,0,1,.8.59h0V0h1.8ZM30.64,6.16a1.52,1.52,0,0,0-.38-1.07,1.39,1.39,0,0,0-1.06-.41,1.41,1.41,0,0,0-1.07.41,1.52,1.52,0,0,0-.37,1.07,1.49,1.49,0,0,0,.37,1.06,1.37,1.37,0,0,0,1.07.41,1.35,1.35,0,0,0,1.06-.41A1.5,1.5,0,0,0,30.64,6.16Z"/>
    <path style='fill: #203a47' d="M34.33,1.4a1,1,0,0,1,.31-.73,1,1,0,0,1,1.47,0,1,1,0,0,1,.31.73,1,1,0,0,1-.31.74,1,1,0,0,1-1.47,0A1,1,0,0,1,34.33,1.4Zm.15,1.84h1.8V9.07h-1.8Z"/>
    <path style='fill: #203a47' d="M43.91,9.07H42.18V8.28h0a3.25,3.25,0,0,1-.25.34,1.61,1.61,0,0,1-.37.3,2,2,0,0,1-.49.21,1.89,1.89,0,0,1-.6.09A2.56,2.56,0,0,1,39.34,9a1.64,1.64,0,0,1-.66-.59,2.3,2.3,0,0,1-.31-.87,7.44,7.44,0,0,1-.08-1.09V3.24h1.8V6.1c0,.16,0,.34,0,.52a1.65,1.65,0,0,0,.11.5.91.91,0,0,0,.27.37.94.94,0,0,0,.54.14,1.13,1.13,0,0,0,.56-.12.83.83,0,0,0,.33-.34,1.24,1.24,0,0,0,.15-.47,3.36,3.36,0,0,0,0-.56V3.24h1.8Z"/>
    <path style='fill: #203a47' d="M45.9,3.24h1.73V4h0a1.72,1.72,0,0,1,.24-.33,1.52,1.52,0,0,1,.37-.3,2.29,2.29,0,0,1,.5-.22,1.9,1.9,0,0,1,.6-.08,2.24,2.24,0,0,1,1.08.25,1.59,1.59,0,0,1,.72.79,1.89,1.89,0,0,1,.75-.8A2.28,2.28,0,0,1,53,3.1a2.21,2.21,0,0,1,1,.19,1.79,1.79,0,0,1,.64.54,2.28,2.28,0,0,1,.34.81,5.19,5.19,0,0,1,.1,1V9.07h-1.8V5.68A1.34,1.34,0,0,0,53.09,5a.65.65,0,0,0-.61-.29,1.19,1.19,0,0,0-.53.1.83.83,0,0,0-.33.28,1,1,0,0,0-.18.42,2.1,2.1,0,0,0-.06.51V9.07h-1.8V6c0-.11,0-.23,0-.39a1.56,1.56,0,0,0-.08-.43.92.92,0,0,0-.24-.35.69.69,0,0,0-.47-.14,1,1,0,0,0-.56.13.75.75,0,0,0-.33.33,1.23,1.23,0,0,0-.15.48,3.24,3.24,0,0,0,0,.55v2.9H45.9Z"/>
</svg>