<svg id="62515cab-2cb1-4231-ac07-9c92900928fd" data-name="Layer 1" xmlns="http://www.w3.org/2000/svg" viewBox="0 0 46.54 12.18"><title>outpost-logo</title><path d="M.5,6A4.57,4.57,0,0,1,1.58,2.84,3.87,3.87,0,0,1,4.64,1.62,3.92,3.92,0,0,1,7.7,2.82,4.57,4.57,0,0,1,8.78,6,4.56,4.56,0,0,1,7.7,9.17a3.89,3.89,0,0,1-3.06,1.21,3.93,3.93,0,0,1-3-1.19A4.59,4.59,0,0,1,.5,6ZM4.64,9.55a1.73,1.73,0,0,0,1.59-.93A5.25,5.25,0,0,0,6.77,6a5.13,5.13,0,0,0-.55-2.62,1.73,1.73,0,0,0-1.58-.93,1.73,1.73,0,0,0-1.58.93A5.25,5.25,0,0,0,2.52,6a5.37,5.37,0,0,0,.53,2.62A1.73,1.73,0,0,0,4.64,9.55Z" transform="translate(-0.5 -1.62)" style="fill:#161659"/><path d="M9.4,4.84V4.2h2.86V8.34a1.71,1.71,0,0,0,.15.85.7.7,0,0,0,.61.23,1.66,1.66,0,0,0,.72-.18,1.6,1.6,0,0,0,.6-.48V5.08l-.78-.24V4.2H16.2V9.3h.94v.52a3.19,3.19,0,0,1-.43.25,3,3,0,0,1-.36.16,1.91,1.91,0,0,1-.41.11,1.84,1.84,0,0,1-.39,0,1.23,1.23,0,0,1-1.21-.78,3,3,0,0,1-2.09.78A1.64,1.64,0,0,1,10.42,8.5V5.08Z" transform="translate(-0.5 -1.62)" style="fill:#161659"/><path d="M17.63,5V4.56l2-1.45h.44V4.26L21.6,4.2V5H20.11V8.47a2,2,0,0,0,.13.83.56.56,0,0,0,.54.24,2.14,2.14,0,0,0,.81-.22l.19.68a3.26,3.26,0,0,1-1.52.38c-1.33,0-2-.62-2-1.85V5Z" transform="translate(-0.5 -1.62)" style="fill:#161659"/><path d="M22,13.16l1-.24V5.29H22V4.66l1.92-.46h.95v.58A2.32,2.32,0,0,1,26.63,4a2.38,2.38,0,0,1,.95.2,2.31,2.31,0,0,1,.79.57,3,3,0,0,1,.53.93A3.77,3.77,0,0,1,29.1,7a3.47,3.47,0,0,1-.28,1.45,3.1,3.1,0,0,1-.76,1.07,3.27,3.27,0,0,1-1.13.66,4,4,0,0,1-1.36.23,2.38,2.38,0,0,1-.69-.07v2.61l1.26.24v.64H22Zm2.87-3.68a1.43,1.43,0,0,0,.58.12A1.49,1.49,0,0,0,26.71,9,3.25,3.25,0,0,0,27.19,7a2.51,2.51,0,0,0-.33-1.44,1.1,1.1,0,0,0-.93-.47,1.62,1.62,0,0,0-.57.12,1.41,1.41,0,0,0-.48.3Z" transform="translate(-0.5 -1.62)" style="fill:#161659"/><path d="M33.16,10.38a3.35,3.35,0,0,1-1.28-.24,3.14,3.14,0,0,1-1-.66,3.1,3.1,0,0,1-.68-1,3.18,3.18,0,0,1-.25-1.28,3.14,3.14,0,0,1,.25-1.28,3.06,3.06,0,0,1,.68-1,3.14,3.14,0,0,1,1-.66,3.65,3.65,0,0,1,2.55,0,3.2,3.2,0,0,1,1,.66,2.93,2.93,0,0,1,.69,1,3.51,3.51,0,0,1,0,2.55,3,3,0,0,1-.69,1,3.07,3.07,0,0,1-1,.67A3.34,3.34,0,0,1,33.16,10.38ZM31.85,7.19A3.93,3.93,0,0,0,32.18,9a1.06,1.06,0,0,0,2,0,3.93,3.93,0,0,0,.33-1.77,3.81,3.81,0,0,0-.33-1.75,1.06,1.06,0,0,0-2,0A3.81,3.81,0,0,0,31.85,7.19Z" transform="translate(-0.5 -1.62)" style="fill:#161659"/><path d="M37.28,10.1V8.39H38l.43,1.19.68,0c.94,0,1.41-.2,1.41-.61a.54.54,0,0,0-.26-.44,2.45,2.45,0,0,0-.48-.29c-.15-.08-.44-.2-.86-.39a3.24,3.24,0,0,1-1.21-.82,1.84,1.84,0,0,1-.37-1.19A1.53,1.53,0,0,1,38,4.49,3.49,3.49,0,0,1,39.92,4a6.55,6.55,0,0,1,1.84.23V5.88h-.62l-.38-1.06A4.37,4.37,0,0,0,40,4.76c-.76,0-1.15.19-1.15.57a.58.58,0,0,0,.11.3,1.1,1.1,0,0,0,.39.31c.19.1.49.24.89.42a4.42,4.42,0,0,1,1.48.95,1.89,1.89,0,0,1,.38,1.25,1.5,1.5,0,0,1-.73,1.35,3.57,3.57,0,0,1-1.94.47A8.32,8.32,0,0,1,37.28,10.1Z" transform="translate(-0.5 -1.62)" style="fill:#161659"/><path d="M42.89,5V4.56l2-1.45h.44V4.26l1.49-.06V5H45.37V8.47a2,2,0,0,0,.13.83.56.56,0,0,0,.54.24,2.14,2.14,0,0,0,.81-.22L47,10a3.26,3.26,0,0,1-1.52.38c-1.33,0-2-.62-2-1.85V5Z" transform="translate(-0.5 -1.62)" style="fill:#161659"/></svg>