<svg width="250" height="30" viewBox="0 0 1420 142" fill="none" xmlns="http://www.w3.org/2000/svg">
<path d="M285.095 108.485V47.8528H298.033V108.485H285.095ZM265.262 54.1805V42.3752H317.772V54.1805H265.262ZM364.047 108.485V42.3752H376.986V108.485H364.047ZM373.869 108.485V96.6796H406.263V108.485H373.869ZM373.869 80.7188V69.1968H401.918V80.7188H373.869ZM373.869 54.1805V42.3752H405.885V54.1805H373.869ZM471.415 108.485V47.8528H484.354V108.485H471.415ZM451.583 54.1805V42.3752H504.093V54.1805H451.583ZM561.795 85.0631V73.2578H575.017C576.969 73.2578 578.701 72.8486 580.212 72.0301C581.786 71.2116 583.013 70.0783 583.895 68.6302C584.839 67.182 585.312 65.545 585.312 63.7192C585.312 60.8859 584.273 58.5878 582.195 56.8249C580.18 55.0619 577.567 54.1805 574.356 54.1805H561.795V42.3752L574.923 42.2807C579.582 42.2178 583.706 43.1307 587.295 45.0196C590.884 46.8454 593.685 49.3639 595.7 52.5749C597.715 55.786 598.722 59.5007 598.722 63.7192C598.722 67.8746 597.652 71.5894 595.511 74.8634C593.434 78.0744 590.569 80.5929 586.917 82.4188C583.265 84.1817 579.11 85.0631 574.451 85.0631H561.795ZM550.368 108.485V42.3752H563.306V108.485H550.368ZM586.728 108.485L571.428 81.9465L581.345 74.8634L601.367 108.485H586.728ZM649.016 108.485V42.3752H661.954V108.485H649.016ZM743.275 109.618C736.853 109.618 731.155 108.17 726.181 105.274C721.207 102.315 717.304 98.2851 714.47 93.1852C711.637 88.0223 710.22 82.1039 710.22 75.43C710.22 68.7561 711.637 62.8692 714.47 57.7693C717.304 52.6064 721.176 48.5769 726.087 45.6807C731.061 42.7215 736.759 41.2419 743.181 41.2419C747.714 41.2419 751.933 42.0604 755.836 43.6974C759.74 45.2714 763.14 47.5065 766.036 50.4028C768.995 53.236 771.262 56.51 772.836 60.2248L760.842 64.6636C759.771 62.334 758.355 60.3192 756.592 58.6193C754.829 56.8563 752.814 55.5027 750.547 54.5582C748.281 53.5509 745.825 53.0472 743.181 53.0472C739.34 53.0472 735.909 54.0231 732.887 55.9749C729.927 57.8637 727.598 60.4766 725.898 63.8136C724.261 67.1506 723.442 71.0227 723.442 75.43C723.442 79.8373 724.292 83.7409 725.992 87.1409C727.692 90.4778 730.053 93.1222 733.076 95.074C736.098 96.9629 739.561 97.9073 743.464 97.9073C746.172 97.9073 748.627 97.4036 750.831 96.3962C753.097 95.3259 755.081 93.8778 756.781 92.0519C758.544 90.226 759.96 88.1168 761.03 85.7242L773.025 90.0686C771.451 93.9092 769.184 97.3092 766.225 100.268C763.329 103.228 759.929 105.526 756.025 107.163C752.121 108.8 747.872 109.618 743.275 109.618ZM846.181 109.807C840.703 109.807 835.949 108.737 831.92 106.596C827.89 104.455 824.774 101.465 822.57 97.624C820.429 93.7204 819.359 89.1242 819.359 83.8354H832.298C832.298 86.6687 832.864 89.1556 833.998 91.2963C835.194 93.3741 836.831 94.9796 838.909 96.1129C841.049 97.2462 843.536 97.8129 846.37 97.8129C849.203 97.8129 851.658 97.2462 853.736 96.1129C855.877 94.9796 857.514 93.3741 858.647 91.2963C859.843 89.1556 860.442 86.6687 860.442 83.8354H873.38C873.38 89.1242 872.247 93.7204 869.98 97.624C867.777 101.465 864.628 104.455 860.536 106.596C856.506 108.737 851.721 109.807 846.181 109.807ZM819.359 83.8354V42.3752H832.298V83.8354H819.359ZM860.442 83.8354V42.3752H873.38V83.8354H860.442ZM946.771 109.618C943.434 109.618 940.318 109.209 937.422 108.39C934.525 107.572 931.944 106.439 929.677 104.99C927.411 103.479 925.522 101.811 924.011 99.985C922.563 98.1592 921.618 96.2388 921.178 94.2241L933.833 90.4464C934.651 92.5871 936.099 94.4444 938.177 96.0185C940.255 97.5295 942.868 98.3166 946.016 98.3795C949.353 98.4425 952.06 97.7184 954.138 96.2073C956.279 94.6963 957.349 92.7445 957.349 90.3519C957.349 88.2742 956.499 86.5427 954.799 85.1576C953.162 83.7095 950.895 82.6076 947.999 81.8521L939.405 79.5855C936.194 78.767 933.361 77.5392 930.905 75.9022C928.45 74.2023 926.529 72.1245 925.144 69.669C923.759 67.2135 923.066 64.3488 923.066 61.0748C923.066 54.8416 925.113 49.9935 929.205 46.5306C933.361 43.0048 939.216 41.2419 946.771 41.2419C950.99 41.2419 954.673 41.8715 957.821 43.1307C961.032 44.327 963.708 46.0584 965.849 48.325C967.99 50.5917 969.627 53.2675 970.76 56.3526L958.199 60.2248C957.443 58.0841 956.058 56.2582 954.044 54.7471C952.029 53.236 949.479 52.4805 946.394 52.4805C943.246 52.4805 940.759 53.2046 938.933 54.6527C937.17 56.1008 936.288 58.147 936.288 60.7914C936.288 62.8692 936.981 64.5062 938.366 65.7024C939.814 66.8987 941.766 67.8117 944.221 68.4413L952.91 70.6135C958.577 71.9986 962.984 74.4856 966.132 78.0744C969.28 81.6632 970.854 85.6613 970.854 90.0686C970.854 93.9722 969.91 97.4036 968.021 100.363C966.132 103.259 963.393 105.526 959.804 107.163C956.216 108.8 951.871 109.618 946.771 109.618ZM1080 108.485V42.3752H1092.94V108.485H1080ZM1088.31 108.485V96.6796H1122.03V108.485H1088.31ZM1214.31 108.485L1189 42.3752H1201.94L1228 108.485H1214.31ZM1162.08 108.485L1188.15 42.3752H1201.09L1175.78 108.485H1162.08ZM1174.36 93.9407V82.5132H1215.82V93.9407H1174.36ZM1278.9 108.485V97.0573H1297.88C1300.96 97.0573 1303.39 96.3018 1305.15 94.7907C1306.91 93.2167 1307.79 91.1389 1307.79 88.5575C1307.79 85.8502 1306.82 83.7095 1304.87 82.1354C1302.92 80.5614 1300.24 79.8058 1296.84 79.8688H1278.9V69.8579L1290.32 70.0468C1296.49 70.0468 1301.88 70.7394 1306.47 72.1245C1311.07 73.4467 1314.63 75.5245 1317.14 78.3577C1319.73 81.191 1321.02 84.9372 1321.02 89.5964C1321.02 93.6259 1320.1 97.0573 1318.28 99.8906C1316.45 102.724 1313.9 104.865 1310.63 106.313C1307.35 107.761 1303.51 108.485 1299.11 108.485H1278.9ZM1273.7 108.485V42.3752H1286.36V108.485H1273.7ZM1278.42 80.5299V69.2913H1296.37C1299.2 69.2913 1301.44 68.5672 1303.07 67.1191C1304.71 65.671 1305.53 63.6247 1305.53 60.9803C1305.53 58.3359 1304.62 56.2897 1302.79 54.8416C1300.96 53.3305 1298.48 52.6064 1295.33 52.6694H1278.42V42.4696L1296.08 42.2807C1300.62 42.2807 1304.58 43.0048 1307.98 44.4529C1311.38 45.8381 1314.03 47.9473 1315.92 50.7805C1317.81 53.5509 1318.75 57.0137 1318.75 61.1692C1318.75 64.5691 1317.59 67.6543 1315.26 70.4246C1312.99 73.1949 1309.78 75.3985 1305.62 77.0355C1301.53 78.6725 1296.74 79.491 1291.27 79.491L1278.42 80.5299ZM1391.5 109.618C1388.16 109.618 1385.05 109.209 1382.15 108.39C1379.25 107.572 1376.67 106.439 1374.41 104.99C1372.14 103.479 1370.25 101.811 1368.74 99.985C1367.29 98.1592 1366.35 96.2388 1365.91 94.2241L1378.56 90.4464C1379.38 92.5871 1380.83 94.4444 1382.91 96.0185C1384.98 97.5295 1387.6 98.3166 1390.74 98.3795C1394.08 98.4425 1396.79 97.7184 1398.87 96.2073C1401.01 94.6963 1402.08 92.7445 1402.08 90.3519C1402.08 88.2742 1401.23 86.5427 1399.53 85.1576C1397.89 83.7095 1395.62 82.6076 1392.73 81.8521L1384.13 79.5855C1380.92 78.767 1378.09 77.5392 1375.63 75.9022C1373.18 74.2023 1371.26 72.1245 1369.87 69.669C1368.49 67.2135 1367.79 64.3488 1367.79 61.0748C1367.79 54.8416 1369.84 49.9935 1373.93 46.5306C1378.09 43.0048 1383.94 41.2419 1391.5 41.2419C1395.72 41.2419 1399.4 41.8715 1402.55 43.1307C1405.76 44.327 1408.44 46.0584 1410.58 48.325C1412.72 50.5917 1414.35 53.2675 1415.49 56.3526L1402.93 60.2248C1402.17 58.0841 1400.79 56.2582 1398.77 54.7471C1396.76 53.236 1394.21 52.4805 1391.12 52.4805C1387.97 52.4805 1385.49 53.2046 1383.66 54.6527C1381.9 56.1008 1381.02 58.147 1381.02 60.7914C1381.02 62.8692 1381.71 64.5062 1383.09 65.7024C1384.54 66.8987 1386.49 67.8117 1388.95 68.4413L1397.64 70.6135C1403.3 71.9986 1407.71 74.4856 1410.86 78.0744C1414.01 81.6632 1415.58 85.6613 1415.58 90.0686C1415.58 93.9722 1414.64 97.4036 1412.75 100.363C1410.86 103.259 1408.12 105.526 1404.53 107.163C1400.94 108.8 1396.6 109.618 1391.5 109.618Z" fill="#0E1416"/>
<path fill-rule="evenodd" clip-rule="evenodd" d="M141.615 0H0V141.615H141.615V0ZM65.0031 106.138C68.3049 109.204 73.0613 110.737 79.2718 110.737C81.3163 110.737 83.36 110.344 85.4044 109.558C87.4482 108.85 89.4926 107.789 91.5363 106.374L86.7015 96.3504C85.5218 97.2151 84.461 97.8042 83.5175 98.1192C82.574 98.4335 81.7093 98.591 80.9233 98.591C78.4071 98.591 76.4808 97.883 75.1447 96.4678C73.8867 95.0526 73.2578 92.9695 73.2578 90.2178V61.6799H89.1776V50.359H73.2578V31.9625H60.1681V50.359H50.3802V61.6799H60.1681V92.6946C60.1681 98.5122 61.7797 102.993 65.0031 106.138Z" fill="#0E1416"/>
</svg>
