<?xml version="1.0" encoding="UTF-8" standalone="no"?>
<svg width="2740px" height="3026px" viewBox="0 0 2740 3026" version="1.1" xmlns="http://www.w3.org/2000/svg" xmlns:xlink="http://www.w3.org/1999/xlink">
    <!-- Generator: Sketch 3.8.1 (29687) - http://www.bohemiancoding.com/sketch -->
    <title>Group 7</title>
    <desc>Created with Sketch.</desc>
    <defs>
        <linearGradient x1="50%" y1="0%" x2="50%" y2="100%" id="linearGradient-1">
            <stop stop-color="#52E8EA" offset="1.58641582%"></stop>
            <stop stop-color="#6B6CFC" offset="100%"></stop>
        </linearGradient>
    </defs>
    <g id="Welcome" stroke="none" stroke-width="1" fill="none" fill-rule="evenodd" opacity="0.199999988">
        <g id="Artboard-7" transform="translate(-929.000000, 0.000000)" fill="url(#linearGradient-1)">
            <g id="Group-7" transform="translate(929.000000, -36.000000)">
                <path d="M0.265624999,1129.1875 C0.265624999,1129.1875 691.711126,1633 1573.07812,1649.64062 C2454.44512,1666.28125 2739.92187,1029.4375 2739.92187,1029.4375 C2739.92187,1029.4375 2256.89062,2598.35938 1214.8125,2320.78125 C172.734375,2043.20312 0.265624999,1129.1875 0.265624999,1129.1875 Z" id="Path-47" style="mix-blend-mode: screen;"></path>
                <path d="M20.765625,1186.5625 C20.765625,1186.5625 216.4375,2091.78125 1225.4375,2430.15625 C2234.4375,2768.53125 2554.67188,1990.625 2554.67188,1990.625 C2554.67188,1990.625 2478.85399,3345.43416 1301.89063,3007.07812 C124.927264,2668.72209 20.765625,1186.5625 20.765625,1186.5625 Z" id="Path-47" style="mix-blend-mode: screen;"></path>
                <path d="M31.9375,1120.57811 C31.9375,1120.57811 695.343602,-114.265644 1504.42184,49.2968681 C2313.50009,212.85938 2731.67759,1062.93839 2736.21875,1062.93749 C2740.75977,1062.93659 2449.01562,1460.79687 1706.4375,801.234364 C878.998861,66.2982181 31.9375,1120.57811 31.9375,1120.57811 Z" id="Path-47" style="mix-blend-mode: screen;"></path>
                <path d="M24.9374999,1141.89062 C24.9374999,1141.89062 216.09375,980.796875 607.71875,1012.82812 C999.34375,1044.85937 2204.85937,1608.96876 2727.75001,1044.85937 C2843.00002,1199.53836 1972.86719,2151.13281 1030.6875,1904.95312 C88.5078124,1658.77344 24.9374999,1141.89062 24.9374999,1141.89062 Z" id="Path-47" style="mix-blend-mode: screen;"></path>
                <path d="M10.4687502,1192.57812 C10.4687502,1192.57812 335.28125,1898.62439 1220.31256,2143.125 C2105.34386,2387.62561 2518.78906,1417.91406 2518.78906,1417.91406 C2518.78906,1417.91406 3251.66831,3540.64977 1595.82816,2897.0625 C-13.7608053,2271.45202 10.4687502,1192.57812 10.4687502,1192.57812 Z" id="Path-47" style="mix-blend-mode: screen;"></path>
                <path d="M0.75,1144.23562 C0.75,1144.23562 1442.3125,-738.468701 1732.8125,328.203135 C2023.3125,1394.87497 2688.46875,1144.2356 2688.46875,1144.2356 C2688.46875,1144.2356 2533.84976,1448.32686 1511.29688,1107.1094 C488.74399,765.891949 0.75,1144.23562 0.75,1144.23562 Z" id="Path-47" style="mix-blend-mode: screen;"></path>
                <path d="M15.640625,1137.56251 C15.640625,1137.56251 381.280025,230.4329 1497.57812,840.078118 C2613.87622,1449.72334 2716.1875,1083.8828 2716.1875,1083.8828 C2716.1875,1083.8828 2276.47656,1749.05465 1226.45312,1525.17188 C176.429687,1301.28911 15.640625,1137.56251 15.640625,1137.56251 Z" id="Path-47" style="mix-blend-mode: screen;"></path>
            </g>
        </g>
    </g>
</svg>