<?xml version="1.0" encoding="UTF-8" standalone="no"?>
<svg width="25px" height="8px" viewBox="0 0 25 8" version="1.1" xmlns="http://www.w3.org/2000/svg" xmlns:xlink="http://www.w3.org/1999/xlink">
    <!-- Generator: Sketch 43.1 (39012) - http://www.bohemiancoding.com/sketch -->
    <title>bottle</title>
    <desc>Created with Sketch.</desc>
    <defs></defs>
    <g id="Page-1" stroke="none" stroke-width="1" fill="none" fill-rule="evenodd">
        <g id="space" transform="translate(-6589.000000, -1734.000000)" fill-rule="nonzero">
            <g id="bottle" transform="translate(6555.000000, 1732.000000)">
                <g id="Group" opacity="0" fill="#B3B3B3">
                    <g id="Shape">
                        <path d="M72.372,26.801 L68.547,24.16 L71.203,17.366 L65.323,12.663 L59.281,10.118 L61.942,5.74 L55.424,-2.27373675e-13 L37.454,-2.27373675e-13 L30.938,5.74 L33.599,10.164 L27.555,12.689 L21.675,17.38 L24.331,24.166 L20.507,26.8 C20.507,26.8 4.067,28.882 1.515,33.3 C-1.036,37.718 1.515,166.999 1.515,166.999 L2.627,166.999 C4.78,175.999 23.661,176.949 46.638,176.949 C69.617,176.949 88.497,175.999 90.65,166.999 L91.365,166.999 C91.365,166.999 94.104,38.043 91.365,33.298 C88.624,28.554 72.372,26.801 72.372,26.801 Z"></path>
                    </g>
                </g>
                <path d="M52.616,10 L58.793,6 L53.892,2 L39.418,2 L34.168,6 L40.693,10 L52.616,10 Z" id="Shape" fill="#A3A3A3"></path>
            </g>
        </g>
    </g>
</svg>