<?xml version="1.0" encoding="UTF-8" standalone="no"?>
<svg width="369px" height="272px" viewBox="0 0 369 272" version="1.1" xmlns="http://www.w3.org/2000/svg" xmlns:xlink="http://www.w3.org/1999/xlink">
    <!-- Generator: Sketch 43.1 (39012) - http://www.bohemiancoding.com/sketch -->
    <title>chair</title>
    <desc>Created with Sketch.</desc>
    <defs></defs>
    <g id="Page-1" stroke="none" stroke-width="1" fill="none" fill-rule="evenodd">
        <g id="space" transform="translate(-8991.000000, -2809.000000)">
            <g id="person_1_" transform="translate(8688.000000, 2314.000000)">
                <g id="chair" transform="translate(303.000000, 495.000000)">
                    <g id="Group" transform="translate(137.000000, 228.000000)" fill-rule="nonzero">
                        <path d="M94,21.65 C94,14.06 73.012,8 47.119,8 L47.113,8 L47.103,8 C42.259,8 37.591,8.124 33.205,8.523 C14.107,10.26 0.236,15.434 0.236,21.604 C0.236,21.95 0.466,28.812 0.466,30.048 C0.466,37.638 21.183,43.785 47.077,43.785 C72.97,43.785 93.684,37.631 93.684,30.042 C93.686,28.904 94,22.184 94,21.65 Z" id="Shape" fill="#D2F7F6"></path>
                        <path d="M94,21.558 C94,29.147 73.012,35.299 47.119,35.299 C21.226,35.299 0.236,29.147 0.236,21.558 C0.236,14.831 16.726,1.382 38.504,0.195 C41.297,0.045 44.176,1.927 47.119,1.927 C50.504,1.927 53.805,0.069 56.986,0.269 C78.141,1.599 94,14.961 94,21.558 Z" id="Shape" fill="#A1F7F0"></path>
                    </g>
                    <g id="Group" transform="translate(142.000000, 116.000000)">
                        <path d="M14.936,59.645 C14.936,56.62 27.374,54.168 42.719,54.168 C58.061,54.168 70.5,56.619 70.5,59.645" id="Shape" stroke="#CCC4FF" stroke-width="4"></path>
                        <path d="M0.256,31.643 C0.256,27.007 19.322,23.251 42.838,23.251 C66.358,23.251 85.424,27.007 85.424,31.643" id="Shape" stroke="#CCC4FF" stroke-width="10"></path>
                        <path d="M52,114.581 C52,114.581 47.969,116.509 43,116.509 C38.031,116.509 34,114.581 34,114.581 L34,0 L52,0 L52,114.581 Z" id="Shape" fill="#D2F7F6" fill-rule="nonzero"></path>
                        <path d="M70.5,59.645 C70.5,62.668 58.061,65.12 42.719,65.12 C27.373,65.12 14.936,62.669 14.936,59.645" id="Shape" stroke="#CCC4FF" stroke-width="4"></path>
                        <path d="M85.424,31.643 C85.424,36.279 66.358,40.035 42.838,40.035 C19.322,40.035 0.256,36.279 0.256,31.643" id="Shape" stroke="#CCC4FF" stroke-width="10"></path>
                    </g>
                    <path d="M365.203,53.564 C365.203,29.457 312.963,9.319 238.33,2.531 C221.516,0.994 203.646,0.843 185.103,0.83 C185.064,0.83 185.025,1 184.986,1 L184.961,1 L184.936,1 L184.471,1 L184.006,1 L183.979,1 L183.952,1 C183.913,1 183.876,0.83 183.837,0.83 C165.294,0.844 147.425,1.079 130.61,2.616 C55.977,9.405 3.737,29.5 3.737,53.609 C3.737,54.961 -2.265,61.286 2.68,73.786 C7.606,86.246 83.137,127.943 183.821,128.214 C183.921,128.214 184.016,129 184.116,129 L184.471,129 L184.826,129 C184.926,129 185.019,128.202 185.119,128.202 C285.803,127.932 361.332,86.618 366.26,74.16 C371.203,61.658 365.203,54.917 365.203,53.564 Z" id="Shape" fill="#A1F7F0" fill-rule="nonzero"></path>
                    <path d="M359.703,52.141 C359.703,80.577 281.06,103.624 184.047,103.624 C87.039,103.624 8.397,80.576 8.397,52.141 C8.397,23.706 87.04,0.656 184.047,0.656 C281.061,0.655 359.703,23.705 359.703,52.141 Z" id="Shape" fill="#D2F7F6" fill-rule="nonzero"></path>
                </g>
            </g>
        </g>
    </g>
</svg>