<?xml version="1.0" encoding="UTF-8" standalone="no"?>
<svg width="3641px" height="1283px" viewBox="0 0 3641 1283" version="1.1" xmlns="http://www.w3.org/2000/svg" xmlns:xlink="http://www.w3.org/1999/xlink">
    <!-- Generator: Sketch 3.8.1 (29687) - http://www.bohemiancoding.com/sketch -->
    <title>Combined Shape</title>
    <desc>Created with Sketch.</desc>
    <defs>
        <linearGradient x1="50%" y1="0%" x2="50%" y2="100%" id="linearGradient-1">
            <stop stop-color="#EEF9FF" offset="0%"></stop>
            <stop stop-color="#FFFFFF" offset="100%"></stop>
        </linearGradient>
    </defs>
    <g id="Welcome" stroke="none" stroke-width="1" fill="none" fill-rule="evenodd">
        <g id="Artboard-2" transform="translate(-51.000000, -2018.000000)" fill="url(#linearGradient-1)">
            <path d="M2110.26835,2027.22444 L2108.0944,2027.60777 L2148.33134,2269.69654 C2050.13205,2266.53783 1949.6063,2265 1847.5,2265 C849.797599,2265 51.267892,2411.82656 51.267892,2782.96191 C51.267892,2782.96191 51.2679026,3300.79728 51.267892,3300.79724 C51.2678813,3300.7972 1327.33442,3300.79724 1847.5,3300.79724 L3692.00007,3300.79724 C3692.00007,3300.79724 3692.00007,2782.96191 3692.00007,2782.96191 C3692.00007,2450.58801 3012.84515,2298.11589 2154.3698,2269.89291 L2119.89988,2074.40429 C2150.70115,2048.32697 2191.54704,2027.81234 2209.66279,2035.65572 C2181.68166,2006.15498 2110.05812,2021.17761 2110.26835,2027.22444 Z M2111.98915,2029.54031 L2119.66407,2073.06693 C2130.79819,2050.05937 2118.7467,2037.41087 2111.98915,2029.54031 Z M2444.50111,2473.61201 C2588.92418,2486.24739 2707.36795,2480.87999 2709.05267,2461.62358 C2710.73739,2442.36717 2595.02508,2416.51376 2450.60201,2403.87838 C2306.17894,2391.243 2187.73517,2396.6104 2186.05045,2415.86681 C2184.36573,2435.12322 2300.07803,2460.97663 2444.50111,2473.61201 Z M2781.24402,2592.84274 C2857.0418,2600.80941 2919.53312,2597.32441 2920.82229,2585.05876 C2922.11146,2572.79312 2861.7103,2556.3916 2785.91252,2548.42493 C2710.11474,2540.45826 2647.62342,2543.94327 2646.33425,2556.20891 C2645.04508,2568.47455 2705.44624,2584.87608 2781.24402,2592.84274 Z M2089.96223,2364.14915 C2124.18303,2365.34417 2152.11196,2360.94361 2152.34326,2354.32023 C2152.57455,2347.69685 2125.02061,2341.35879 2090.79982,2340.16377 C2056.57902,2338.96875 2028.65009,2343.36931 2028.41879,2349.99269 C2028.1875,2356.61607 2055.74144,2362.95413 2089.96223,2364.14915 Z" id="Combined-Shape" transform="translate(1871.633981, 2659.398621) scale(-1, 1) translate(-1871.633981, -2659.398621) "></path>
        </g>
    </g>
</svg>