<?xml version="1.0" encoding="UTF-8" standalone="no"?>
<svg width="430px" height="339px" viewBox="0 0 430 339" version="1.1" xmlns="http://www.w3.org/2000/svg" xmlns:xlink="http://www.w3.org/1999/xlink">
    <!-- Generator: Sketch 43.1 (39012) - http://www.bohemiancoding.com/sketch -->
    <title>postmates</title>
    <desc>Created with Sketch.</desc>
    <defs></defs>
    <g id="Page-1" stroke="none" stroke-width="1" fill="none" fill-rule="evenodd">
        <g id="postmates">
            <polygon id="Shape" fill="#EEEDF5" fill-rule="nonzero" points="0 36 430 36 430 339 0 339"></polygon>
            <rect id="Rectangle-path" fill="#EBEEF3" fill-rule="nonzero" x="24" y="48" width="88" height="125" rx="3"></rect>
            <rect id="Rectangle-path" fill="#FFFFFF" fill-rule="nonzero" x="25" y="49" width="86" height="122" rx="2"></rect>
            <rect id="Rectangle-path" fill="#EBEEF3" fill-rule="nonzero" x="119" y="48" width="88" height="125" rx="3"></rect>
            <rect id="Rectangle-path" fill="#FFFFFF" fill-rule="nonzero" x="120" y="49" width="86" height="122" rx="2"></rect>
            <rect id="Rectangle-path" fill="#EBEEF3" fill-rule="nonzero" x="309" y="47" width="88" height="125" rx="3"></rect>
            <rect id="Rectangle-path" fill="#FFFFFF" fill-rule="nonzero" x="310" y="48" width="86" height="122" rx="2"></rect>
            <rect id="Rectangle-path" fill="#FFFFFF" fill-rule="nonzero" x="215" y="48" width="86" height="122" rx="2"></rect>
            <rect id="Rectangle-path" fill="#F4FBFF" fill-rule="nonzero" x="25" y="187" width="86" height="26" rx="2"></rect>
            <rect id="Rectangle-path" fill="#FCFFF3" fill-rule="nonzero" x="120" y="187" width="86" height="26" rx="2"></rect>
            <polygon id="Shape" fill="#E78A2E" fill-rule="nonzero" opacity="0.07" points="25 49 111 49 111 126 25 126"></polygon>
            <path d="M54.18,100.06 C54.38,99.78 54.85,99.56 55.2,99.56 L80.8,99.56 C81.15,99.56 81.6,99.78 81.82,100.06 L82.02,100.34 C82.24,100.62 82.12,100.84 81.75,100.84 L54.25,100.84 C53.88,100.84 53.75,100.62 53.97,100.34 L54.17,100.06 L54.18,100.06 Z" id="Shape" fill="#EFF1F5" fill-rule="nonzero"></path>
            <path d="M84.03,95 L84.03,96.07 C84.03,98.27 82.29,100.04 80.13,100.04 L55.54,100.04 C53.4,100.04 51.66,98.26 51.66,96.07 L51.66,95 C56.52,93.35 62.02,92.43 67.86,92.43 C73.68,92.43 79.18,93.35 84.04,94.99 L84.03,95 Z M83.98,85.02 C84.01,84.74 84.03,84.46 84.03,84.17 C84.03,78 76.78,73 67.83,73 C58.9,73 51.66,78 51.66,84.17 C51.66,84.47 51.66,84.74 51.7,85.02 C55.5,87.57 61.3,89.19 67.84,89.19 C74.36,89.19 80.18,87.56 83.98,85.01 L83.98,85.02 Z" id="Shape" fill="#FF9934" fill-rule="nonzero"></path>
            <rect id="Rectangle-path" fill="#E8023A" fill-rule="nonzero" x="52.3" y="84.66" width="31.73" height="1.94" rx="0.97"></rect>
            <rect id="Rectangle-path" fill="#7C4409" fill-rule="nonzero" x="51" y="87.57" width="34" height="6.15" rx="3.075"></rect>
            <rect id="Rectangle-path" fill="#884D0B" fill-rule="nonzero" x="52.94" y="88.54" width="30.11" height="1.3" rx="0.65"></rect>
            <path d="M64.28,95.02 L82.72,95.02 C83.09,95.02 83.38,94.72 83.38,94.37 C83.38,94.01 83.08,93.72 82.72,93.72 L52.62,93.72 C52.26,93.72 51.97,94.02 51.97,94.37 C51.97,94.73 52.27,95.02 52.63,95.02 L57,95.02 L61.04,97.45 L64.28,95.02 Z" id="Shape" fill="#FFEE49" fill-rule="nonzero"></path>
            <path d="M52.3,86.92 C52.3,86.74 52.44,86.6 52.62,86.6 L83.7,86.6 C83.88,86.6 84.03,86.74 84.03,86.92 L84.03,87.25 C84.03,87.43 83.88,87.57 83.7,87.57 L52.62,87.57 C52.44,87.57 52.3,87.43 52.3,87.25 L52.3,86.92 Z M66.87,87.57 C66.87,89.17 68.1,90.49 69.62,90.49 C70.16,90.49 70.67,90.31 71.09,90.02 C71.86,91.07 73.23,91.77 74.79,91.77 C77.19,91.77 79.16,90.1 79.16,88.05 C79.16,87.88 79.16,87.72 79.12,87.55 L66.87,87.55 L66.87,87.57 Z" id="Shape" fill="#73D974" fill-rule="nonzero"></path>
            <ellipse id="Oval" fill="#C86419" fill-rule="nonzero" transform="translate(58.451247, 79.479075) rotate(-20.000000) translate(-58.451247, -79.479075) " cx="58.4512475" cy="79.4790747" rx="1.62" ry="1"></ellipse>
            <ellipse id="Oval" fill="#C86419" fill-rule="nonzero" transform="translate(63.299423, 81.741299) rotate(-14.000000) translate(-63.299423, -81.741299) " cx="63.2994228" cy="81.7412987" rx="1.62" ry="1"></ellipse>
            <ellipse id="Oval" fill="#C86419" fill-rule="nonzero" cx="68.16" cy="76.24" rx="1.62" ry="1"></ellipse>
            <ellipse id="Oval" fill="#C86419" fill-rule="nonzero" transform="translate(72.700450, 82.710639) rotate(7.000000) translate(-72.700450, -82.710639) " cx="72.7004502" cy="82.7106392" rx="1.62" ry="1"></ellipse>
            <ellipse id="Oval" fill="#C86419" fill-rule="nonzero" transform="translate(76.709603, 76.821954) rotate(23.000000) translate(-76.709603, -76.821954) " cx="76.7096025" cy="76.8219537" rx="1.62" ry="1"></ellipse>
            <ellipse id="Oval" fill="#C86419" fill-rule="nonzero" transform="translate(78.319101, 81.678828) rotate(15.000000) translate(-78.319101, -81.678828) " cx="78.319101" cy="81.6788284" rx="1.62" ry="1"></ellipse>
            <path d="M82.3,98.58 C81.57,99.38 80.5,99.88 79.33,99.88 L56.33,99.88 C55.17,99.88 54.13,99.38 53.38,98.58 L82.3,98.58 Z" id="Shape" fill="#E98329" fill-rule="nonzero"></path>
            <rect id="Rectangle-path" fill="#EEEDF5" fill-rule="nonzero" x="46" y="144" width="44" height="3" rx="1"></rect>
            <rect id="Rectangle-path" fill="#F6418B" fill-rule="nonzero" x="58" y="150" width="20" height="3" rx="1"></rect>
            <polygon id="Shape" fill="#FCD305" fill-rule="nonzero" opacity="0.07" points="310 48 396 48 396 125 310 125"></polygon>
            <rect id="Rectangle-path" fill="#EEEDF5" fill-rule="nonzero" x="331" y="143" width="44" height="3" rx="1"></rect>
            <rect id="Rectangle-path" fill="#F6418B" fill-rule="nonzero" x="343" y="149" width="20" height="3" rx="1"></rect>
            <polygon id="Shape" fill="#FF2814" fill-rule="nonzero" opacity="0.05" points="120 49 206 49 206 126 120 126"></polygon>
            <rect id="Rectangle-path" fill="#EEEDF5" fill-rule="nonzero" x="141" y="144" width="44" height="3" rx="1"></rect>
            <rect id="Rectangle-path" fill="#F6418B" fill-rule="nonzero" x="153" y="150" width="20" height="3" rx="1"></rect>
            <polygon id="Shape" fill="#FF9934" fill-rule="nonzero" opacity="0.05" points="215 48 301 48 301 125 215 125"></polygon>
            <rect id="Rectangle-path" fill="#EEEDF5" fill-rule="nonzero" x="236" y="143" width="44" height="3" rx="1"></rect>
            <rect id="Rectangle-path" fill="#F6418B" fill-rule="nonzero" x="248" y="149" width="20" height="3" rx="1"></rect>
            <ellipse id="Oval" fill="#EFF1F5" fill-rule="nonzero" cx="162.5" cy="102.52" rx="6.44" ry="1"></ellipse>
            <polyline id="Shape" fill="#C3CDDC" fill-rule="nonzero" points="160.23 76.65 159.47 70.8 155.2 68.06 154.27 69.71 157.6 71.87 158.17 76.74"></polyline>
            <path d="M153.3,80.96 L171.7,80.96 L168.93,100 C168.8,100.9 167.96,101.64 167.03,101.64 L157.96,101.64 C157.03,101.64 156.18,100.91 156.06,100 L153.3,80.96 Z" id="Shape" fill="#FF4F3F" fill-rule="nonzero"></path>
            <path d="M168.96,80.96 L171.69,80.96 L168.93,100 C168.8,100.9 167.96,101.64 167.03,101.64 L157.96,101.64 C157.03,101.64 156.18,100.91 156.06,100 L155.94,99.27 L165.12,99.27 C165.77,99.27 166.38,98.74 166.48,98.09 L168.94,80.95 L168.96,80.96 Z" id="Shape" fill="#E11A12" fill-rule="nonzero"></path>
            <path d="M153.06,78 C152.81,78 152.56,78.2 152.5,78.46 L152.1,80.5 C152.04,80.75 152.2,80.96 152.48,80.96 L172.52,80.96 C172.79,80.96 172.96,80.76 172.92,80.5 L172.5,78.46 C172.45,78.21 172.2,78 171.94,78 L170.7,78 L170.15,76.44 C170.07,76.2 169.79,76 169.53,76 L155.43,76 C155.17,76 154.9,76.2 154.83,76.44 L154.3,78 L153.06,78 Z" id="Shape" fill="#FF715D" fill-rule="nonzero"></path>
            <rect id="Rectangle-path" fill="#FFFFFF" fill-rule="nonzero" x="165" y="77.32" width="4.3" height="1.68" rx="0.84"></rect>
            <path d="M344.498884,101.26 C344.578884,101.12 344.778884,101 344.938884,101 L359.888884,101 C360.058884,101 360.258884,101.13 360.338884,101.26 L360.798884,102.08 C360.878884,102.22 360.818884,102.34 360.648884,102.34 L344.178884,102.34 C344.018884,102.34 343.958884,102.22 344.028884,102.08 L344.508884,101.26 L344.498884,101.26 Z" id="Shape" fill="#EFF1F5" fill-rule="nonzero"></path>
            <path d="M342,72 C342.75,72.96 347.28,78.53 346.98,85.06" id="Shape" stroke="#FDD405" stroke-width="1.78"></path>
            <path d="M362.3,72 C360.65,74.68 357.63,77.06 355,90.5" id="Shape" stroke="#F6AC0F" stroke-width="1.78"></path>
            <path d="M344.8,85.28 C344.8,81.86 344.87,79.64 342,76" id="Shape" stroke="#FFDE17" stroke-width="1.78"></path>
            <path d="M353.36,70 C353.36,72.9 352.38,89.82 352,90.7" id="Shape" stroke="#FFBF09" stroke-width="1.78"></path>
            <path d="M351,68 C351.38,69.56 352.74,81.14 351.76,87.08" id="Shape" stroke="#FDD405" stroke-width="1.78"></path>
            <path d="M356,72 C356.9,74.45 357.5,84.62 357.05,87.3" id="Shape" stroke="#FFDE17" stroke-width="1.78"></path>
            <path d="M359,71 C359.6,72.56 361.72,82.73 359.76,89.04" id="Shape" stroke="#FFBF09" stroke-width="1.78"></path>
            <path d="M365.719019,76 C363.619019,77.85 358.019019,85.2 359.149019,90.25" id="Shape" stroke="#FDD405" stroke-width="1.78"></path>
            <path d="M348.023124,72 C347.193124,73.93 346.283124,81.13 347.873124,87.07" id="Shape" stroke="#FFDE17" stroke-width="1.78"></path>
            <path d="M348.16,69 C349.14,71.36 350.04,82.5 348,86.88" id="Shape" stroke="#FFBF09" stroke-width="1.78"></path>
            <path d="M351,81 C352.14,82.78 354.63,86.64 352.82,90.58" id="Shape" stroke="#F3AE3D" stroke-width="0.5"></path>
            <path d="M355.5,70 C355.2,72.15 353,90.5 353,90.5" id="Shape" stroke="#FDD405" stroke-width="1.78"></path>
            <path d="M358.37,72.9 C357.77,74.16 353.84,89.9 354.07,92.72 M346,70 C346.98,71.12 349.47,84.1 349.47,88.78" id="Shape" stroke="#F6AC0F" stroke-width="1.78"></path>
            <path d="M345.38,71 C344.85,72.64 343.48,79.62 343.48,84.8 M341,74.79 C342.2,76.49 343.57,81.62 345.75,85.19 M362.13,75.46 C360.77,76.66 359.73,78.06 358.21,83.4" id="Shape" stroke="#FFBF09" stroke-width="1.78"></path>
            <path d="M351.4,73 C352.23,74.04 351.58,87.33 349,91.56" id="Shape" stroke="#F6AC0F" stroke-width="1.78"></path>
            <path d="M363.041518,84.2461148 L363.441518,80.3761148 C363.461518,80.1261148 363.281518,79.9761148 363.041518,80.0061148 L358.241518,80.7861148 C358.241518,80.7861148 357.221518,83.6461148 353.221518,83.6461148 C349.221518,83.6461148 348.201518,80.7861148 348.201518,80.7861148 L343.401518,80.0061148 C343.161518,79.9661148 342.981518,80.1261148 343.001518,80.3761148 L343.401518,84.2361148 L363.041518,84.2361148 L363.041518,84.2461148 Z" id="Shape" fill-opacity="0.3" fill="#ED5900" fill-rule="nonzero"></path>
            <path d="M342.003124,80.3861148 C341.973124,80.1361148 342.163124,79.9861148 342.403124,80.0161148 L347.403124,80.8361148 C347.403124,80.8361148 348.453124,83.8061148 352.603124,83.8061148 C356.753124,83.8061148 357.803124,80.8261148 357.803124,80.8261148 L362.803124,80.0061148 C363.043124,79.9661148 363.223124,80.1261148 363.203124,80.3761148 L361.073124,100.876115 C361.013124,101.376115 360.573124,101.756115 360.073124,101.756115 L345.123124,101.756115 C344.623124,101.756115 344.183124,101.356115 344.123124,100.876115 L342.003124,80.3761148 L342.003124,80.3861148 Z" id="Shape" fill="#FF4230" fill-rule="nonzero"></path>
            <path d="M346.84,80.7361148 L347.37,80.8361148 C347.37,80.8361148 347.42,80.9961148 347.57,81.2361148 C347.29,81.0861148 347.04,80.9161148 346.83,80.7361148 L346.84,80.7361148 Z M361.19,80.2661148 L362.79,80.0061148 C363.03,79.9661148 363.21,80.1261148 363.19,80.3761148 L361.06,100.876115 C361,101.376115 360.56,101.756115 360.06,101.756115 L345.1,101.756115 C344.6,101.756115 344.16,101.356115 344.1,100.876115 L344,99.9761148 L358.24,99.9761148 C358.74,99.9761148 359.18,99.5761148 359.24,99.0961148 L361.18,80.2561148 L361.19,80.2661148 Z" id="Shape" fill="#E11A12" fill-rule="nonzero"></path>
            <path d="M357.71,84 C357.64,85.56 355.27,86.8 352.36,86.8 C349.44,86.8 347.06,85.56 347,84 C348.34,84.92 350.24,85.5 352.36,85.5 C354.46,85.5 356.38,84.92 357.71,84 Z" id="Shape" fill="#FF6B59" fill-rule="nonzero"></path>
            <polygon id="Shape" fill="#EFF1F5" fill-rule="nonzero" points="243.82 93.4 272.2 93.4 272.2 95 243.8 95"></polygon>
            <rect id="Rectangle-path" stroke="#E98329" stroke-width="1.07" fill="#FF9934" fill-rule="nonzero" x="242.75" y="80" width="30.51" height="8.57" rx="4.28"></rect>
            <rect id="Rectangle-path" fill="#C0472A" fill-rule="nonzero" x="239" y="82.14" width="38" height="5.89" rx="2.94"></rect>
            <rect id="Rectangle-path" stroke="#E98329" stroke-width="1.07" fill="#FF9934" fill-rule="nonzero" x="242.75" y="85.36" width="30.51" height="8.57" rx="4.28"></rect>
            <path d="M242.8,88.97 C242.76,89.19 242.75,89.41 242.75,89.64 C242.75,92 244.65,93.94 247.02,93.94 L268.98,93.94 C271.35,93.94 273.25,92.01 273.25,89.64 C273.25,89.42 273.25,89.19 273.2,88.97 C272.88,91.02 271.12,92.59 268.98,92.59 L247.02,92.59 C244.9,92.6 243.12,91 242.8,88.96 L242.8,88.97 Z" id="Shape" fill="#E98329" fill-rule="nonzero"></path>
            <path d="M243.98,84.56 L244.64,83.96 L245.64,83.03 C246.02,82.69 246.61,82.69 246.98,83.03 L247.98,83.95 C248.36,84.29 248.95,84.29 249.32,83.95 L250.32,83.03 C250.7,82.69 251.29,82.69 251.66,83.03 L252.66,83.95 C253.04,84.29 253.63,84.29 254,83.95 L255,83.03 C255.37,82.69 255.97,82.69 256.34,83.03 L257.34,83.95 C257.71,84.29 258.3,84.3 258.67,83.95 L259.7,83 C260.07,82.67 260.66,82.67 261.03,83 L262.03,83.94 C262.41,84.27 263,84.28 263.36,83.94 L264.36,83.02 C264.73,82.69 265.32,82.69 265.69,83.02 L266.69,83.95 C267.06,84.29 267.64,84.3 268.02,83.95 L269.02,83.02 C269.4,82.68 269.99,82.69 270.34,83.02 L271.84,84.47" id="Shape" stroke="#FBC809" stroke-width="1.07" stroke-linecap="round"></path>
            <rect id="Rectangle-path" fill="#FFB159" fill-rule="nonzero" x="258.27" y="86.96" width="12.31" height="1.61" rx="0.8"></rect>
            <polygon id="Shape" fill="#F6418B" fill-rule="nonzero" points="0 0 430 0 430 36 0 36"></polygon>
            <rect id="Rectangle-path" fill="#FF92BF" fill-rule="nonzero" x="48" y="13" width="229" height="11" rx="1"></rect>
            <rect id="Rectangle-path" fill="#FF92BF" fill-rule="nonzero" x="29" y="13" width="12" height="11" rx="1"></rect>
            <rect id="Rectangle-path" fill="#FF92BF" fill-rule="nonzero" x="12" y="13" width="12" height="11" rx="1"></rect>
            <polygon id="Triangle" fill="#FFFFFF" points="15 18.5 20 16 20 21"></polygon>
            <polygon id="Triangle" fill="#FFFFFF" transform="translate(35.500000, 18.500000) rotate(-180.000000) translate(-35.500000, -18.500000) " points="33 18.5 38 16 38 21"></polygon>
        </g>
    </g>
</svg>