<?xml version="1.0" encoding="UTF-8" standalone="no"?>
<svg width="388px" height="389px" viewBox="0 0 388 389" version="1.1" xmlns="http://www.w3.org/2000/svg" xmlns:xlink="http://www.w3.org/1999/xlink">
    <!-- Generator: Sketch 43.1 (39012) - http://www.bohemiancoding.com/sketch -->
    <title>Group</title>
    <desc>Created with Sketch.</desc>
    <defs>
        <radialGradient cx="50%" cy="0%" fx="50%" fy="0%" r="100%" id="radialGradient-1">
            <stop stop-color="#23C5FF" offset="0%"></stop>
            <stop stop-color="#5F4EFF" offset="100%"></stop>
        </radialGradient>
    </defs>
    <g id="Page-1" stroke="none" stroke-width="1" fill="none" fill-rule="evenodd">
        <g id="A4">
            <g id="Group" transform="translate(-1.000000, 0.000000)">
                <rect id="Rectangle-2" fill="url(#radialGradient-1)" x="0" y="0" width="390" height="390"></rect>
                <path d="M243.655172,195.682872 C243.655172,186.236716 251.306747,178.579093 260.768756,178.579093 L330.886417,178.579093 C340.337988,178.579093 348,186.234639 348,195.682872 C348,205.129028 340.348426,212.78665 330.886417,212.78665 L260.768756,212.78665 C251.317185,212.78665 243.655172,205.131105 243.655172,195.682872 Z M110.095869,195.827544 C110.095869,186.381388 117.747443,178.723766 127.209452,178.723766 L197.327113,178.723766 C206.778684,178.723766 214.440697,186.379311 214.440697,195.827544 C214.440697,205.2737 206.789122,212.931323 197.327113,212.931323 L127.209452,212.931323 C117.757881,212.931323 110.095869,205.275777 110.095869,195.827544 Z M168.589754,123.103779 C168.589754,113.657622 176.241328,106 185.703337,106 L255.820998,106 C265.272569,106 272.934582,113.655546 272.934582,123.103779 C272.934582,132.549935 265.283007,140.207557 255.820998,140.207557 L185.703337,140.207557 C176.251766,140.207557 168.589754,132.552012 168.589754,123.103779 Z M169.761881,266.896221 C169.761881,257.450065 177.413455,249.792443 186.875465,249.792443 L256.993126,249.792443 C266.444697,249.792443 274.106709,257.447988 274.106709,266.896221 C274.106709,276.342378 266.455135,284 256.993126,284 L186.875465,284 C177.423893,284 169.761881,276.344454 169.761881,266.896221 Z M102.950622,266.182356 C102.950622,257.130457 110.286671,249.792443 119.340591,249.792443 C128.392521,249.792443 135.73056,257.130822 135.73056,266.182356 L135.73056,267.610086 C135.73056,276.661986 128.394511,284 119.340591,284 C110.288661,284 102.950622,276.661621 102.950622,267.610086 L102.950622,266.182356 Z M42,194.286135 C42,185.234236 49.3360487,177.896221 58.3899688,177.896221 C67.4418986,177.896221 74.7799376,185.234601 74.7799376,194.286135 L74.7799376,195.713865 C74.7799376,204.765764 67.4438889,212.103779 58.3899688,212.103779 C49.338039,212.103779 42,204.765399 42,195.713865 L42,194.286135 Z M102.950622,122.389914 C102.950622,113.338014 110.286671,106 119.340591,106 C128.392521,106 135.73056,113.338379 135.73056,122.389914 L135.73056,123.817644 C135.73056,132.869543 128.394511,140.207557 119.340591,140.207557 C110.288661,140.207557 102.950622,132.869178 102.950622,123.817644 L102.950622,122.389914 Z" id="Shape" fill="#FFFFFF" fill-rule="nonzero"></path>
            </g>
        </g>
    </g>
</svg>