<?xml version="1.0" encoding="UTF-8" standalone="no"?>
<svg width="472px" height="332px" viewBox="0 0 472 332" version="1.1" xmlns="http://www.w3.org/2000/svg" xmlns:xlink="http://www.w3.org/1999/xlink">
    <!-- Generator: Sketch 3.8.1 (29687) - http://www.bohemiancoding.com/sketch -->
    <title>Group 4</title>
    <desc>Created with Sketch.</desc>
    <defs></defs>
    <g id="Welcome" stroke="none" stroke-width="1" fill="none" fill-rule="evenodd">
        <g id="Artboard-9" transform="translate(-129.000000, -1094.000000)">
            <g id="Group-4" transform="translate(129.000000, 1094.000000)">
                <rect id="Rectangle-202" fill="#FFFFFF" x="0" y="0" width="332" height="332"></rect>
                <g id="Group-5" transform="translate(42.000000, 96.000000)">
                    <g id="Group-6">
                        <g id="Group-2" transform="translate(124.000000, 70.000000) rotate(-180.000000) translate(-124.000000, -70.000000) ">
                            <g id="Group-7" transform="translate(61.289863, 0.000000)">
                                <polygon id="Fill-40" fill="#1FBEE6" points="82.9729669 26.5706082 -7.81597009e-14 26.5706082 4.57895065 -1.95399252e-14 87.5519175 -1.95399252e-14"></polygon>
                                <polygon id="Fill-48" fill="#2AA1FA" points="138.989064 -4.79616347e-14 113.013253 -4.79616347e-14 108.435911 26.5706082 134.408504 26.5706082"></polygon>
                            </g>
                            <g id="Group-7" transform="translate(61.289863, 113.000000)">
                                <polygon id="Fill-40" fill="#1FBEE6" points="82.9729669 26.5706082 0 26.5706082 4.57895065 0 87.5519175 0"></polygon>
                                <polygon id="Fill-48" fill="#2AA1FA" points="138.989064 -1.42108547e-14 113.013253 -1.42108547e-14 108.435911 26.5706082 134.408504 26.5706082"></polygon>
                            </g>
                            <g id="Group-7" transform="translate(0.000000, 56.500000)">
                                <polygon id="Fill-40" fill="#1FBEE6" points="191.408878 26.5706082 108.435911 26.5706082 113.014861 -1.42108547e-14 195.987828 -1.42108547e-14"></polygon>
                                <polygon id="Fill-40" fill="#FF60A2" points="82.9729669 26.5706082 -4.54747351e-12 26.5706082 4.57895065 0 87.5519175 0"></polygon>
                                <polygon id="Fill-48" fill="#2AA1FA" points="247.424974 -2.84217094e-14 221.449163 -2.84217094e-14 216.871822 26.5706082 242.844415 26.5706082"></polygon>
                            </g>
                        </g>
                    </g>
                    <path d="M299.999566,42.0773333 C300.357766,42.0773333 300.639205,42.1933322 300.843891,42.4253333 C301.048577,42.6573345 301.099747,42.953776 300.997404,43.3146667 L297.466592,63.1893333 C298.899392,62.0035496 300.485684,61.0626701 302.225513,60.3666667 C303.965343,59.6706632 305.807488,59.3226667 307.752003,59.3226667 L308.519571,59.3226667 C310.822286,59.3226667 312.766773,59.7608845 314.353088,60.6373333 C315.939403,61.5137822 317.180292,62.6995481 318.075792,64.1946667 C318.971293,65.6897853 319.534171,67.4426566 319.764442,69.4533333 C319.994714,71.4640101 319.905165,73.6293217 319.495793,75.9493333 L318.267684,82.9093333 C317.244255,88.5804728 314.992745,92.8466524 311.513086,95.708 C308.033427,98.5693476 303.735089,100 298.617944,100 L297.850376,100 C294.677745,100 291.697053,99.5360046 288.908208,98.608 C286.119364,97.6799954 283.778305,96.623117 281.884961,95.4373333 C281.168561,95.0248868 280.887122,94.3804488 281.040637,93.504 L289.483884,43.392 C289.637399,42.4639954 290.174691,42 291.095777,42 L299.999566,42.0773333 Z M303.146595,68.5253333 C302.174337,68.5253333 301.112545,68.7186647 299.961188,69.1053333 C298.80983,69.4920019 297.620111,70.1235512 296.391996,71 L293.168211,89.096 C294.140469,89.6631139 295.15109,90.1271093 296.200104,90.488 C297.249119,90.8488907 298.20857,91.0293333 299.078484,91.0293333 L299.462268,91.0293333 C301.304441,91.0293333 302.87794,90.3848953 304.182812,89.096 C305.487684,87.8071047 306.370378,85.8737907 306.830921,83.296 L308.05903,76.336 C308.519573,73.7582093 308.353268,71.8248953 307.560111,70.536 C306.766953,69.2471047 305.449308,68.6026667 303.607136,68.6026667 L303.146595,68.5253333 Z M345.286078,59.0133333 C347.537622,59.0133333 349.597242,59.3871074 351.465,60.1346667 C353.332759,60.882226 354.893465,61.9906593 356.147165,63.46 C357.400866,64.9293407 358.270768,66.7466558 358.756896,68.912 C359.243025,71.0773442 359.230233,73.5777636 358.718518,76.4133333 L357.95095,80.8986667 C357.848607,81.5173364 357.515998,81.8266667 356.953112,81.8266667 L335.077424,81.8266667 L334.847153,83.064 C334.38661,85.7449023 334.834354,87.7168826 336.190397,88.98 C337.546441,90.2431174 339.426964,90.8746667 341.832022,90.8746667 L342.215806,90.8746667 C343.75095,90.8746667 345.439582,90.642669 347.281755,90.1786667 C349.123927,89.7146643 351.273096,89.0702263 353.729326,88.2453333 C354.087526,88.1422217 354.381758,88.180888 354.612029,88.3613333 C354.842301,88.5417787 354.906264,88.8124426 354.803921,89.1733333 L353.652569,95.6693333 C353.499055,96.597338 353.012933,97.2159985 352.19419,97.5253333 C350.249675,98.2471147 348.113298,98.8399977 345.784997,99.304 C343.456696,99.7680023 341.32032,100 339.375804,100 L338.608236,100 C335.896149,100 333.491127,99.5617822 331.393097,98.6853333 C329.295068,97.8088845 327.58085,96.5715635 326.250392,94.9733333 C324.919934,93.3751031 324.011654,91.4289004 323.525525,89.1346667 C323.039396,86.840433 323.026604,84.3013473 323.487147,81.5173333 L324.254715,77.3413333 C324.766429,74.402652 325.674709,71.8120112 326.979581,69.5693333 C328.284453,67.3266555 329.845159,65.4448965 331.661746,63.924 C333.478333,62.4031035 335.486782,61.2560039 337.687155,60.4826667 C339.887527,59.7093295 342.190208,59.3226667 344.595267,59.3226667 L345.286078,59.0133333 Z M343.443915,67.3653333 C341.652914,67.3653333 340.117793,68.0355489 338.838507,69.376 C337.55922,70.7164511 336.638148,72.6239876 336.075262,75.0986667 L348.279593,75.0986667 C349.354194,69.9430853 347.870244,67.3653333 343.827699,67.3653333 L343.443915,67.3653333 Z M382.129342,49.8106667 C382.436371,49.707555 382.692224,49.7591101 382.89691,49.9653333 C383.101596,50.1715566 383.178352,50.4293318 383.12718,50.7386667 L381.438531,60.328 L389.651508,60.328 C390.009709,60.328 390.291147,60.4439988 390.495833,60.676 C390.700519,60.9080012 390.75169,61.2044426 390.649347,61.5653333 L389.497995,68.2933333 C389.395652,68.8604473 389.063042,69.144 388.500156,69.144 L379.826638,69.144 L376.756366,86.776 C376.500509,88.168007 376.60285,89.1733302 377.063393,89.792 C377.523936,90.4106698 378.265911,90.72 379.28934,90.72 L379.673124,90.72 C380.082496,90.72 380.632581,90.6297787 381.323396,90.4493333 C382.01421,90.268888 383.101587,89.9724465 384.58556,89.56 C384.94376,89.4568884 385.237991,89.5084434 385.468263,89.7146667 C385.698534,89.9208899 385.788083,90.1786651 385.736912,90.488 L384.662316,96.5973333 C384.559973,97.2160031 384.201779,97.6542209 383.587721,97.912 C380.415091,99.2524511 377.856557,99.9226667 375.912041,99.9226667 L375.144473,99.9226667 C371.460128,99.9226667 368.722497,98.8915659 366.931496,96.8293333 C365.140495,94.7671008 364.552032,91.9831286 365.166089,88.4773333 L368.543388,69.144 L364.782305,69.144 C364.424105,69.144 364.142666,69.0280012 363.93798,68.796 C363.733295,68.5639988 363.682124,68.2675574 363.784467,67.9066667 L364.628792,62.8026667 C364.782306,62.0808853 365.217257,61.5911124 365.933657,61.3333333 L370.155281,60.2506667 L371.38339,53.368 C371.536904,52.543107 372.023026,52.0533341 372.841769,51.8986667 L382.129342,49.8106667 Z M408.610438,59.3226667 C410.759639,59.3226667 412.640162,59.8511058 414.252063,60.908 C415.863964,61.9648942 417.23278,63.2151039 418.358552,64.6586667 L419.740174,61.1786667 C419.996031,60.6115527 420.456567,60.328 421.121796,60.328 L428.95099,60.328 C429.30919,60.328 429.590629,60.4439988 429.795315,60.676 C430.000001,60.9080012 430.051171,61.2044426 429.948828,61.5653333 L423.578014,98.0666667 C423.475671,98.6337806 423.143062,98.9173333 422.580176,98.9173333 L414.443955,98.9173333 C413.727554,98.9173333 413.36936,98.5822256 413.36936,97.912 L413.446116,95.2053333 C411.80863,96.6488961 410.043241,97.7959957 408.149897,98.6466667 C406.256553,99.4973376 404.235311,99.9226667 402.08611,99.9226667 L401.85584,99.9226667 C399.553124,99.9226667 397.608638,99.4586713 396.022323,98.5306667 C394.436008,97.602662 393.182326,96.3653411 392.26124,94.8186667 C391.340153,93.2719923 390.764483,91.4675659 390.534212,89.4053333 C390.30394,87.3431008 390.393489,85.1520116 390.80286,82.832 L392.107726,75.4853333 C392.517098,73.1653217 393.156731,71.0257876 394.026646,69.0666667 C394.896561,67.1075458 395.996731,65.4062294 397.327188,63.9626667 C398.657646,62.5191039 400.231145,61.384893 402.047732,60.56 C403.864318,59.735107 405.923938,59.3226667 408.226654,59.3226667 L408.610438,59.3226667 Z M410.452601,68.68 C406.717085,68.68 404.388819,71.257752 403.467732,76.4133333 L402.31638,83.1413333 C401.395294,88.2969147 402.802488,90.8746667 406.538004,90.8746667 L406.845032,90.8746667 C407.817289,90.8746667 408.879081,90.6813353 410.030439,90.2946667 C411.181797,89.9079981 412.371515,89.2764488 413.59963,88.4 L416.669902,71 C415.697644,70.1235512 414.712609,69.4920019 413.714765,69.1053333 C412.716922,68.7186647 411.731886,68.5253333 410.759628,68.5253333 L410.452601,68.68 Z" id="beta" fill="#3A3E4D"></path>
                </g>
            </g>
        </g>
    </g>
</svg>