<svg width="846" height="1143" viewBox="0 0 846 1143" xmlns="http://www.w3.org/2000/svg">
  <title>
    Group 22
  </title>
  <g fill="none" fill-rule="evenodd">
    <path d="M0 99.996C0 44.77 44.776 0 100.004 0h645.992C801.226 0 846 44.773 846 99.996v942.132c0 55.227-44.776 99.997-100.004 99.997H100.004C44.774 1142.125 0 1097.352 0 1042.128V99.996z" fill="#FFF"/>
    <rect fill="#F7F7F7" x="351" y="206" width="454" height="288" rx="50"/>
    <path d="M399 423h349.182M399 363h349.182M399 310h349.182M399 250h349.182" stroke="#C7C7C7" stroke-width="11" stroke-linecap="square"/>
    <path d="M0 99.995C0 44.77 44.776 0 100.004 0h645.992C801.226 0 846 44.77 846 99.995V203H0V99.995z" fill="#B83C6B"/>
    <path d="M598 786.53c0-25.697 20.832-46.53 46.535-46.53h113.93c25.7 0 46.535 20.827 46.535 46.53 0 25.7-20.832 46.532-46.535 46.532h-113.93c-25.7 0-46.535-20.827-46.535-46.53z" fill="#F7F7F7"/>
    <text font-family="Karla-Bold, Karla" font-size="48" font-weight="bold" letter-spacing="-1.3" fill="#C7C7C7">
      <tspan x="657" y="801">9/10</tspan>
    </text>
    <rect fill="#B83C6C" x="29" y="1014" width="376" height="92" rx="46"/>
    <rect fill="#B83C6C" x="413" y="1014" width="400" height="92" rx="46"/>
    <path fill="#FFECF4" d="M0 202h846v32H0z"/>
    <path d="M207 148h339.5" stroke="#C6527F" stroke-width="11" stroke-linecap="square"/>
    <rect fill="#FFECF4" x="121" y="852" width="408.503" height="93.062" rx="46.531"/>
    <path d="M180 900h242.505" stroke="#E49DB9" stroke-width="11" stroke-linecap="square"/>
    <text stroke="#E49DB8" font-family="Karla-Regular, Karla" font-size="48" letter-spacing="-1.271" fill="#E49DB8">
      <tspan x="455" y="915">?</tspan>
    </text>
    <path d="M123 627h138.466c25.7 0 46.534 20.827 46.534 46.53 0 25.7-20.84 46.532-46.534 46.532h-91.932c-25.7 0-46.534-20.827-46.534-46.53V627zM123 560.53c0-25.697 20.838-46.53 46.534-46.53h134.932c25.7 0 46.534 20.827 46.534 46.53 0 25.7-20.838 46.532-46.534 46.532H123v-46.53z" fill="#FFECF4"/>
    <path d="M172 675h50.522" stroke="#E49DB9" stroke-width="11" stroke-linecap="square"/>
    <text stroke="#E49DB8" font-family="Karla-Regular, Karla" font-size="48" letter-spacing="-1.271" fill="#E49DB8">
      <tspan x="247" y="690">?</tspan>
    </text>
    <text font-family="AppleColorEmoji, Apple Color Emoji" font-size="48">
      <tspan x="161" y="577" fill="#FFF">😀😄</tspan> <tspan x="257" y="577" font-family="Karla-Bold, Karla" font-weight="bold" fill="#E49DB8">!!!</tspan>
    </text>
    <text font-family="Karla-Bold, Karla" font-size="24" font-weight="bold" fill="#FFF">
      <tspan x="484" y="1068">The shoes fit me great!</tspan>
    </text>
    <text font-family="Karla-Bold, Karla" font-size="24" font-weight="bold" fill="#FFF">
      <tspan x="50" y="1068">The shoes could fit me better.</tspan>
    </text>
    <rect fill="#C04575" x="49" y="44" width="114" height="115" rx="57"/>
    <g fill="#FFF">
      <path d="M100.123 108.38l-2.003 7.27h-6.735l8.78-28.32h8.483l8.95 28.32h-6.99l-2.216-7.27M94.957 93.3H64.31c0 1.884 1.55 3.412 3.462 3.412h23.836c.935-1.298 2.064-2.45 3.35-3.41zM88.917 108.25H76.99c0 1.885 1.55 3.412 3.46 3.412h9.454c-.455-1.08-.79-2.224-.987-3.41zM90.61 98.284H68.536c0 1.884 1.55 3.41 3.46 3.41h17.237c.324-1.198.787-2.343 1.375-3.41zM88.703 105.704c0-.83.067-1.643.193-2.437H72.763c0 1.884 1.55 3.412 3.46 3.412h12.514c-.02-.323-.034-.648-.034-.976zM114.028 93.3c1.285.962 2.414 2.114 3.348 3.412h23.837c1.91 0 3.46-1.528 3.46-3.41H114.03zM119.75 101.696h17.236c1.91 0 3.46-1.528 3.46-3.412h-22.07c.587 1.067 1.05 2.212 1.374 3.412zM120.282 105.704c0 .328-.014.652-.034.975h12.512c1.912 0 3.46-1.53 3.46-3.413H120.09c.126.794.194 1.608.194 2.437zM119.08 111.662h9.454c1.91 0 3.46-1.527 3.46-3.41H120.07c-.2 1.186-.532 2.33-.987 3.41z"/>
    </g>
    <text font-family="Biryani-Heavy, Biryani" font-size="48" font-weight="600" fill="#FFF">
      <tspan x="201" y="105">aero athletics</tspan>
    </text>
    <rect fill="#C04575" x="36" y="645" width="60" height="61" rx="30"/>
    <g fill="#FFF">
      <path d="M62.907 679.15l-1.054 3.856h-3.545l4.622-15.02h4.464l4.71 15.02h-3.678l-1.167-3.856M60.188 671.15h-16.13c0 1 .816 1.81 1.822 1.81h12.545c.492-.688 1.086-1.3 1.763-1.81zM57.01 679.08h-6.28c0 1 .817 1.81 1.823 1.81h4.975c-.24-.573-.415-1.18-.52-1.81zM57.9 673.794H46.283c0 1 .815 1.81 1.82 1.81h9.073c.17-.637.414-1.244.724-1.81zM56.896 677.73c0-.44.036-.87.102-1.292h-8.49c0 1 .815 1.81 1.82 1.81h6.586c-.01-.172-.018-.344-.018-.518zM70.225 671.15c.677.51 1.27 1.122 1.763 1.81h12.545c1.006 0 1.822-.81 1.822-1.81h-16.13zM73.237 675.604h9.07c1.007 0 1.823-.81 1.823-1.81H72.513c.31.566.554 1.173.724 1.81zM73.517 677.73c0 .174-.008.346-.018.517h6.584c1.007 0 1.822-.81 1.822-1.81h-8.492c.067.422.103.853.103 1.293zM72.885 680.89h4.975c1.006 0 1.822-.81 1.822-1.81h-6.278c-.104.63-.28 1.237-.52 1.81z"/>
    </g>
    <rect fill="#C04575" x="34" y="872" width="60" height="61" rx="30"/>
    <g fill="#FFF">
      <path d="M60.907 906.15l-1.054 3.856h-3.545l4.622-15.02h4.464l4.71 15.02h-3.678l-1.167-3.856M58.188 898.15h-16.13c0 1 .816 1.81 1.822 1.81h12.545c.492-.688 1.086-1.3 1.763-1.81zM55.01 906.08h-6.28c0 1 .817 1.81 1.823 1.81h4.975c-.24-.573-.415-1.18-.52-1.81zM55.9 900.794H44.283c0 1 .815 1.81 1.82 1.81h9.073c.17-.637.414-1.244.724-1.81zM54.896 904.73c0-.44.036-.87.102-1.292h-8.49c0 1 .815 1.81 1.82 1.81h6.586c-.01-.172-.018-.344-.018-.518zM68.225 898.15c.677.51 1.27 1.122 1.763 1.81h12.545c1.006 0 1.822-.81 1.822-1.81h-16.13zM71.237 902.604h9.07c1.007 0 1.823-.81 1.823-1.81H70.513c.31.566.554 1.173.724 1.81zM71.517 904.73c0 .174-.008.346-.018.517h6.584c1.007 0 1.822-.81 1.822-1.81h-8.492c.067.422.103.853.103 1.293zM70.885 907.89h4.975c1.006 0 1.822-.81 1.822-1.81h-6.278c-.104.63-.28 1.237-.52 1.81z"/>
    </g>
  </g>
</svg>
