<svg width="846" height="1143" viewBox="0 0 846 1143" xmlns="http://www.w3.org/2000/svg">
  <title>
    Group 21
  </title>
  <g fill="none" fill-rule="evenodd">
    <rect fill="#FFF" width="846" height="1142.125" rx="100"/>
    <path d="M0 99.995C0 44.77 44.776 0 100.004 0h645.992C801.226 0 846 44.77 846 99.995V203H0V99.995z" fill="#3A3E4D"/>
    <rect fill="#F7F7F7" x="364" y="630" width="454" height="203" rx="50"/>
    <rect fill="#F7F7F7" x="633" y="211.5" width="185" height="103" rx="50"/>
    <text font-family="Karla-Bold, Karla" font-size="32" font-weight="bold" fill="#464A5A">
      <tspan x="71" y="1071">Great service. Alex was the perfect host.</tspan>
    </text>
    <path fill="#9DA1B1" d="M0 202h846v32H0z"/>
    <rect fill="#454A59" x="48" y="44" width="114" height="115" rx="57"/>
    <path d="M207 148h442.5" stroke="#464A5A" stroke-width="11" stroke-linecap="square"/>
    <g fill="#FFF">
      <g transform="translate(59 73)">
        <path d="M14.774 19.09c.607-.846.928-1.54.963-2.082.034-.542-.123-.93-.473-1.166-.35-.235-.84-.317-1.47-.247s-1.32.295-2.065.67c-.49.26-.958.578-1.4.955-.444.376-.812.77-1.104 1.182-.292.413-.496.82-.612 1.22-.117.4-.088.735.087 1.005.177.27.503.453.982.547.477.095 1.16.06 2.047-.106 1.352-.258 2.43-.24 3.236.053.806.296 1.383.766 1.733 1.414.35.647.483 1.43.402 2.348-.082.918-.333 1.866-.753 2.842-.42.977-.993 1.948-1.716 2.913-.723.965-1.57 1.824-2.537 2.578-.97.753-2.037 1.353-3.203 1.8-1.167.447-2.392.647-3.675.6-1.168-.07-2.136-.353-2.906-.847S.978 33.656.616 32.914C.256 32.172.11 31.354.18 30.46c.07-.894.35-1.788.84-2.684.442-.8.985-1.353 1.627-1.66.64-.305 1.213-.44 1.715-.405.5.036.857.207 1.067.513.21.306.115.647-.28 1.024-.35.33-.626.74-.824 1.235-.198.495-.268.972-.21 1.43.06.46.28.86.666 1.2.385.343.997.537 1.837.584.7.047 1.387-.136 2.064-.548.677-.41 1.283-.935 1.82-1.57.537-.637.974-1.313 1.313-2.03.338-.72.512-1.372.524-1.96.013-.59-.168-1.043-.54-1.36-.375-.318-.993-.394-1.856-.23-1.19.236-2.217.242-3.08.018C6 23.792 5.33 23.404 4.85 22.85c-.477-.552-.75-1.223-.82-2.012-.07-.79.08-1.636.454-2.543.373-.905.98-1.818 1.82-2.736.84-.92 1.948-1.79 3.325-2.614 1.632-.965 3.096-1.453 4.39-1.465 1.296-.01 2.358.272 3.186.848.83.577 1.395 1.342 1.698 2.295.303.954.28 1.925-.07 2.913-.327.966-.77 1.648-1.33 2.048-.56.4-1.08.618-1.558.654-.478.035-.85-.065-1.12-.3-.268-.235-.286-.517-.052-.847zM20.724 17.855c.256.236.747.424 1.47.565.723.14 1.505.224 2.345.247.186-.376.35-.718.49-1.024.14-.305.244-.553.314-.74.093-.26.326-.443.7-.55.373-.104.753-.15 1.137-.14.387.012.72.077 1 .194.28.118.384.283.314.495-.163.47-.373.988-.63 1.553.42-.07.77-.176 1.05-.317.396-.19.63-.153.7.106.07.26-.187.66-.77 1.2-.187.19-.432.342-.735.46-.305.117-.654.223-1.05.317-.398.848-.83 1.73-1.296 2.65-.467.917-.91 1.794-1.33 2.63l-1.12 2.224c-.327.648-.55 1.112-.665 1.395-.258.612-.328 1.088-.21 1.43.115.34.343.57.68.688.34.118.76.123 1.26.017.503-.106 1.01-.323 1.524-.653.302-.188.49-.235.56-.14.07.094.035.264-.105.51-.14.248-.375.543-.7.884-.328.34-.736.665-1.226.97-.49.307-1.05.572-1.68.795-.63.225-1.307.336-2.03.336-.677 0-1.19-.14-1.54-.423-.35-.283-.566-.665-.648-1.147-.08-.483-.052-1.037.088-1.66.14-.623.373-1.29.7-1.995.21-.446.473-.988.787-1.623.317-.636.666-1.312 1.052-2.03.385-.718.775-1.454 1.172-2.207l1.155-2.19c-.654 0-1.26-.03-1.82-.088-.56-.058-1.04-.147-1.436-.265-.467-.14-.753-.388-.858-.74-.105-.354-.105-.695 0-1.025.105-.33.286-.583.543-.76.255-.176.524-.16.804.053z"/>
        <path d="M36.998 24.034c.233.636.21 1.342-.07 2.12-.28.776-.764 1.5-1.452 2.17-.688.672-1.552 1.23-2.59 1.678-1.04.448-2.176.66-3.413.635.164.472.496.837.998 1.095.503.26 1.09.39 1.77.39.675 0 1.416-.125 2.22-.372.806-.247 1.593-.64 2.364-1.182.396-.26.63-.33.7-.212.07.117 0 .34-.21.67s-.538.72-.98 1.165c-.444.45-.987.86-1.628 1.238-.642.376-1.354.677-2.135.9-.78.223-1.615.276-2.502.16-.91-.12-1.686-.384-2.327-.796-.64-.41-1.113-.94-1.416-1.588-.304-.648-.438-1.39-.403-2.225.036-.836.263-1.737.683-2.702.397-.894.904-1.665 1.523-2.313.618-.647 1.277-1.177 1.977-1.59.7-.41 1.418-.693 2.153-.846.735-.154 1.417-.2 2.047-.142.63.06 1.184.235 1.663.53.478.293.822.7 1.032 1.216zm-2.66 1.06c-.187-.19-.49-.235-.91-.142-.42.095-.87.295-1.347.6-.477.307-.938.707-1.38 1.2-.445.496-.795 1.05-1.052 1.66.747-.022 1.447-.17 2.1-.44s1.208-.583 1.663-.936c.456-.353.777-.712.964-1.077.186-.366.174-.655-.035-.866h-.002z"/>
        <path d="M57.333 23.54c.373-.164.543-.11.508.16-.034.27-.256.58-.664.935-.408.353-.97.66-1.68.918-.712.26-1.546.294-2.503.106-.117.375-.337.917-.665 1.623-.327.706-.718 1.448-1.172 2.224-.454.777-.956 1.53-1.505 2.26-.547.73-1.102 1.306-1.66 1.73-.4.306-.853.548-1.367.724-.513.178-1.02.26-1.522.248-.5-.012-.968-.14-1.398-.388-.433-.247-.753-.64-.963-1.183-.072-.14-.124-.294-.16-.46-.034-.164-.063-.34-.087-.53l-.525.707c-.397.494-.822.883-1.277 1.165-.454.282-.91.453-1.364.512-.455.06-.88-.024-1.278-.247-.397-.224-.712-.606-.945-1.148-.233-.564-.303-1.277-.21-2.136.093-.858.286-1.758.578-2.7.293-.94.66-1.87 1.104-2.79.443-.917.91-1.717 1.4-2.4.21-.306.536-.53.98-.67.443-.143.868-.207 1.277-.195.41.012.736.1.98.264.246.164.275.4.088.706-.443.753-.887 1.6-1.33 2.542-.443.942-.822 1.818-1.137 2.63-.314.813-.53 1.495-.646 2.048-.117.554-.06.807.175.76.185-.024.424-.212.716-.565.29-.353.606-.782.945-1.29.34-.504.67-1.045.998-1.622.327-.577.618-1.124.876-1.642.186-.495.385-.99.594-1.483l.63-1.483c.14-.353.402-.606.788-.76.385-.152.77-.223 1.154-.21.386.01.7.11.946.3.245.187.31.446.193.776-.398 1.06-.77 2.065-1.122 3.02-.35.952-.64 1.794-.875 2.523-.233.73-.38 1.312-.437 1.747-.058.436.006.665.193.69.21-.095.49-.384.838-.867.35-.482.718-1.064 1.103-1.747.386-.683.778-1.418 1.174-2.207.397-.79.736-1.548 1.015-2.278.675-1.788 1.632-2.165 2.868-1.13.304.26.654.465 1.052.618.396.154.8.26 1.207.318.407.06.8.083 1.172.07.37-.01.686-.076.943-.194z"/>
        <path d="M64.72 24.034c.23.636.21 1.342-.072 2.12-.28.776-.764 1.5-1.452 2.17-.69.672-1.552 1.23-2.59 1.678-1.04.448-2.177.66-3.413.635.163.472.495.837.998 1.095.502.26 1.092.39 1.768.39.677 0 1.418-.125 2.223-.372.805-.247 1.593-.64 2.363-1.182.396-.26.63-.33.7-.212.07.117 0 .34-.21.67s-.537.72-.98 1.165c-.444.45-.986.86-1.627 1.238-.643.376-1.354.677-2.136.9-.782.223-1.616.276-2.502.16-.91-.12-1.686-.384-2.328-.796-.642-.41-1.114-.94-1.418-1.588-.303-.648-.437-1.39-.402-2.225.035-.836.262-1.737.682-2.702.397-.894.904-1.665 1.523-2.313.617-.647 1.278-1.177 1.977-1.59.7-.41 1.418-.693 2.153-.846.735-.154 1.417-.2 2.047-.142.63.06 1.184.235 1.663.53.478.293.823.7 1.034 1.216zm-2.662 1.06c-.187-.19-.49-.235-.91-.142-.42.095-.87.295-1.347.6-.477.307-.94.707-1.382 1.2-.444.496-.794 1.05-1.05 1.66.746-.022 1.447-.17 2.1-.44s1.207-.583 1.662-.936c.455-.353.776-.712.963-1.077.186-.366.175-.655-.035-.866z"/>
        <path d="M74.833 29.12c-.327.988-.677 1.94-1.05 2.86.466-.047.956-.165 1.47-.354.512-.188 1.177-.53 1.994-1.024.28-.188.455-.246.525-.177.07.072.052.22-.052.442-.105.224-.286.49-.543.795-.257.305-.572.612-.945.917-.653.493-1.254.853-1.802 1.077-.55.223-1.08.358-1.593.406-.42.824-.886 1.57-1.4 2.242-.513.67-1.09 1.253-1.733 1.748-.64.494-1.36.883-2.152 1.165-.794.282-1.67.424-2.625.424-1.12 0-1.978-.265-2.573-.795-.594-.53-.892-1.17-.892-1.924 0-.753.292-1.53.875-2.33s1.482-1.46 2.695-1.977c-.327-.47-.46-1.09-.403-1.854.058-.765.25-1.57.577-2.42.163-.423.39-.917.682-1.482.29-.565.582-1.118.874-1.66.29-.54.578-1.023.858-1.447.28-.424.49-.718.63-.883.187-.188.478-.33.875-.424.397-.093.78-.14 1.155-.14.373 0 .683.052.928.158.244.106.297.242.157.406-.303.448-.618.953-.946 1.518-.326.565-.64 1.136-.944 1.713-.303.578-.572 1.13-.805 1.66-.232.53-.395.984-.49 1.36-.186.706-.18 1.177.02 1.412.197.236.495.283.89.14.398-.14.864-.434 1.4-.882.538-.447 1.04-1 1.507-1.66.21-.446.46-.947.752-1.5.29-.553.582-1.088.874-1.606.292-.518.56-.972.805-1.36.244-.388.436-.653.576-.794.187-.19.478-.33.876-.424.396-.094.78-.14 1.154-.14.373 0 .677.052.91.158.234.105.292.24.175.406-.302.447-.617.947-.944 1.5-.326.554-.635 1.113-.927 1.677-.293.565-.567 1.113-.823 1.642-.256.53-.455 1.005-.594 1.43zm-9.415 7.308c.7.094 1.353-.077 1.96-.512.606-.436 1.213-1.124 1.82-2.066-.35-.023-.7-.023-1.05 0-.77.07-1.44.236-2.013.494-.572.26-.992.53-1.26.812-.267.283-.367.548-.297.794.07.25.35.407.84.478zM81.832 16.972c.07-.565.292-.918.666-1.06.373-.14.752-.128 1.137.036.385.165.705.472.962.918.257.448.303.978.14 1.59-.187.753-.46 1.39-.822 1.906-.363.518-.73.93-1.103 1.236-.28.212-.52.335-.718.37-.198.036-.362.018-.49-.052-.128-.07-.204-.188-.227-.353-.023-.165 0-.33.07-.495.21-.47.344-.882.403-1.236.058-.353.075-.688.052-1.006-.023-.318-.052-.623-.088-.918-.033-.294-.028-.606.02-.936h-.002zM90.512 19.41c.466-.166.84-.113 1.12.158.28.27.466.612.56 1.024.093.412.1.818.017 1.218s-.24.647-.473.74c-.327.143-.625.36-.892.655-.27.294-.48.64-.63 1.04-.153.402-.258.83-.316 1.29-.06.46-.042.924.05 1.395.117.706.17 1.5.16 2.383-.013.882-.16 1.725-.44 2.525 1.052-.117 1.95-.53 2.697-1.236.256-.235.437-.312.542-.23.104.083.104.26 0 .53-.106.27-.31.613-.614 1.024-.303.412-.73.812-1.278 1.2-.548.39-1.22.743-2.012 1.06-.793.318-1.715.524-2.764.618h-.21c-.654.07-1.22.03-1.698-.123-.48-.153-.876-.358-1.19-.617-.316-.26-.555-.56-.72-.9-.16-.342-.28-.665-.348-.972-.047-.352-.047-.635 0-.847.047-.21.175-.41.385-.6.42-.33.835-.76 1.244-1.288.407-.53.816-1.113 1.225-1.748.406-.636.797-1.294 1.17-1.977l1.086-1.978c.233-.988.63-1.87 1.19-2.648.56-.777 1.272-1.342 2.136-1.695zm-6.965 12.287c.397.236.805.323 1.225.264.42-.057.8-.25 1.137-.58.338-.33.612-.772.822-1.325.21-.553.303-1.206.28-1.96-.607.824-1.184 1.524-1.733 2.1-.55.578-1.127 1.078-1.733 1.502z"/>
        <g>
          <path d="M22.264 7.624c.07.18.168.338.29.47.125.132.264.236.421.31.157.077.33.12.515.134.186.013.38-.01.58-.07.178-.054.344-.124.496-.21.153-.085.28-.188.382-.307.102-.12.17-.256.21-.41.038-.155.03-.328-.022-.52-.042-.157-.12-.278-.23-.364-.114-.085-.248-.15-.404-.19-.157-.043-.33-.068-.516-.075-.188-.005-.377-.01-.568-.008-.237.004-.478.002-.722-.006s-.473-.042-.687-.104c-.214-.062-.405-.16-.572-.3-.167-.138-.292-.337-.375-.596-.07-.214-.085-.42-.046-.613.04-.194.123-.375.254-.54.132-.165.304-.313.517-.442.213-.128.46-.235.738-.32.247-.072.472-.114.675-.124.203-.01.388.005.553.042.165.037.31.094.436.17.124.075.234.162.328.26.094.1.173.207.236.32.063.115.115.23.153.34l-.614.17c-.064-.17-.15-.314-.263-.426-.112-.112-.24-.196-.383-.252-.143-.056-.3-.085-.467-.086-.167 0-.338.026-.51.078-.158.047-.308.11-.452.185-.144.076-.265.167-.364.27-.1.106-.168.223-.21.353-.04.13-.036.272.012.426.05.16.133.28.25.367.117.085.256.146.417.184.16.037.338.058.53.064.194.006.39.008.594.007.242-.002.485.003.727.017.243.013.467.054.672.122.206.067.385.173.538.316.154.143.264.342.332.598.07.257.08.497.035.717-.043.22-.133.42-.268.6-.136.178-.31.334-.527.466-.215.132-.46.24-.738.322-.25.074-.503.107-.762.097-.26-.01-.505-.062-.737-.158-.232-.095-.44-.233-.626-.414-.185-.18-.326-.405-.42-.673.196-.066.394-.13.592-.193zM29.97 1.757l.104.517c-.635.128-1.267.263-1.898.406.356 1.602.71 3.204 1.067 4.807l-.573.13-1.103-4.798c-.63.147-1.26.302-1.887.464l-.13-.51c1.466-.38 2.94-.72 4.42-1.017zM34.72.946c.025.174.05.348.073.522-1.082.152-2.16.326-3.238.522l.324 1.815c.99-.18 1.983-.342 2.978-.484l.074.523c-.99.14-1.976.302-2.96.48l.357 1.997c1.064-.194 2.132-.365 3.202-.514l.072.523c-1.257.174-2.51.38-3.76.616l-1-5.36c1.288-.244 2.58-.458 3.876-.64zM38.22.53c.883 1.738 1.72 3.492 2.513 5.258-.206.014-.412.03-.618.046-.246-.54-.496-1.076-.75-1.613-.8.07-1.6.153-2.398.248-.14.577-.278 1.155-.41 1.732l-.624.082c.43-1.89.91-3.78 1.434-5.666.285-.03.57-.06.853-.087zm-.383.575c-.255.943-.498 1.887-.73 2.832.67-.078 1.338-.147 2.01-.207-.416-.878-.842-1.754-1.28-2.625zM41.523.273l.157 2.785c.91-.983 1.856-1.95 2.835-2.902.274-.006.548-.01.822-.013-.766.723-1.512 1.457-2.24 2.2.842 1.07 1.65 2.155 2.427 3.25-.247.003-.493.007-.74.012-.673-.953-1.37-1.896-2.09-2.83-.33.338-.653.68-.973 1.02.038.64.074 1.282.11 1.922-.195.01-.39.022-.584.035-.116-1.813-.23-3.627-.347-5.442.208-.013.416-.026.623-.037zM46.94.14l-.02 2.372c1.033.01 2.067.037 3.1.086L50.13.23l.624.03-.293 5.447-.583-.03.12-2.568c-1.027-.05-2.054-.078-3.082-.087l-.02 2.57-.585-.002c0-1.817.003-3.635.005-5.453.21 0 .417.002.625.004zM56.542 3.538c-.053.418-.158.792-.313 1.125-.156.333-.353.612-.593.838-.24.226-.52.39-.84.498-.32.106-.675.14-1.067.1-.39-.038-.73-.14-1.025-.305-.293-.166-.536-.383-.728-.65-.192-.268-.332-.58-.42-.936-.086-.357-.117-.745-.09-1.165.027-.417.108-.798.244-1.14.137-.344.325-.633.565-.867.24-.234.53-.41.866-.523.338-.112.718-.15 1.136-.11.422.042.788.152 1.098.328.31.177.56.404.75.68.19.277.322.598.392.96.072.364.08.753.026 1.168zm-.605-.077c.044-.365.034-.7-.033-.998-.067-.3-.177-.56-.333-.782-.154-.22-.346-.397-.577-.53-.23-.13-.486-.21-.765-.238-.28-.027-.544.002-.796.086-.25.085-.473.22-.666.408-.192.186-.35.42-.47.702s-.194.607-.22.976c-.026.37-.002.7.075.997.077.297.192.554.345.77.154.214.34.385.56.512.22.126.46.2.724.227.263.025.514-.003.754-.084.24-.082.456-.213.65-.395.193-.18.356-.41.488-.685.133-.277.22-.597.265-.964zM58.393 1.038L57.86 4.67c-.03.22-.018.425.04.612.056.188.142.352.258.493.114.14.25.257.405.35.156.09.316.15.483.177.18.03.363.03.55.002.188-.028.363-.087.524-.178.163-.09.303-.214.425-.37.12-.157.203-.35.245-.58l.668-3.623c.207.038.413.078.62.12-.23 1.193-.46 2.386-.688 3.58-.06.313-.175.576-.344.792-.17.215-.366.385-.592.512-.226.126-.468.21-.727.25-.26.042-.51.042-.756 0-.234-.038-.46-.118-.68-.24-.222-.12-.415-.276-.58-.467-.164-.192-.29-.42-.374-.68-.085-.26-.105-.552-.06-.875.165-1.2.332-2.4.498-3.598l.62.09zM62.806 5.65c-.027.195-.02.38.023.555.04.175.11.335.21.48.1.143.226.266.38.37.156.104.334.178.538.226.18.044.358.065.532.067.173 0 .334-.025.48-.078.147-.055.275-.14.383-.254.11-.116.188-.27.236-.465.038-.155.03-.3-.025-.43-.056-.13-.14-.252-.256-.367-.116-.114-.254-.22-.413-.32-.16-.1-.322-.196-.488-.29-.208-.114-.415-.236-.622-.364-.207-.13-.388-.272-.543-.432-.155-.16-.27-.34-.348-.545-.076-.203-.088-.438-.033-.704.045-.222.132-.408.26-.558.128-.15.288-.265.482-.344.194-.08.415-.122.662-.128.248-.006.512.023.794.09.25.057.465.134.646.226.18.093.334.197.46.31.124.116.222.237.295.365.072.13.124.26.157.393.034.133.05.265.05.396 0 .13-.012.253-.034.37l-.615-.158c.03-.18.022-.347-.02-.5-.04-.154-.11-.29-.208-.41-.097-.12-.22-.223-.364-.307-.145-.083-.304-.146-.48-.187-.16-.038-.32-.058-.48-.063-.162-.005-.312.013-.448.055s-.254.11-.352.202c-.1.092-.164.218-.198.376-.035.163-.023.31.037.443s.15.255.27.368c.12.113.264.22.428.32.164.1.335.2.51.3.212.12.42.245.623.377.204.132.38.28.524.44.145.16.25.343.313.543s.06.43-.005.684c-.067.26-.174.472-.32.642-.147.17-.322.298-.528.386-.205.09-.432.137-.684.145-.252.008-.518-.022-.798-.087-.253-.06-.488-.158-.707-.295-.22-.137-.406-.304-.56-.503-.154-.2-.267-.422-.34-.672-.07-.25-.083-.515-.034-.795.202.042.404.084.606.128zM71.817 4.202l-.16.502c-1.05-.342-2.104-.663-3.164-.96L68 5.517c.976.275 1.947.568 2.914.88-.053.17-.107.336-.16.503-.96-.31-1.925-.6-2.893-.874l-.54 1.953c1.048.294 2.09.612 3.13.952-.054.168-.11.335-.162.502-1.22-.4-2.445-.768-3.677-1.105l1.416-5.264c1.27.347 2.534.726 3.79 1.136z"/>
        </g>
        <g>
          <path d="M12.904 46.255l-.146.506c-.97-.284-1.938-.583-2.903-.894L9.3 47.622c.85.275 1.704.54 2.56.795l-.148.505c-.86-.256-1.717-.522-2.572-.798l-.77 2.434-.59-.19 1.67-5.187c1.148.377 2.3.735 3.454 1.075zM17.123 49.012c-.033.132-.08.257-.144.374-.064.118-.142.225-.233.32-.092.096-.198.18-.32.25-.12.072-.252.125-.394.16.132.07.235.153.307.247.073.094.123.194.15.302.03.108.04.22.032.337-.008.117-.027.233-.055.347l-.2.802c-.028.117-.04.234-.033.348.007.116.025.223.057.324l-.647-.164c-.016-.046-.026-.097-.028-.154-.003-.056 0-.113.005-.17.006-.056.014-.11.025-.164.01-.053.02-.1.03-.14.07-.28.142-.558.213-.838.025-.102.032-.207.02-.316-.01-.11-.046-.213-.106-.31-.06-.1-.148-.19-.263-.273-.116-.082-.266-.147-.45-.196-.552-.148-1.104-.3-1.655-.455L12.81 51.9l-.592-.17 1.48-5.244c.725.208 1.452.41 2.18.603.26.068.48.174.657.315.18.142.32.302.42.48.104.178.168.366.194.562.026.198.017.386-.027.565zm-3.553.14c.55.155 1.1.305 1.65.452.144.038.287.048.43.028.14-.02.273-.062.394-.13.12-.066.226-.154.313-.264.088-.11.15-.237.186-.38.036-.143.042-.28.02-.413-.024-.133-.07-.255-.14-.368-.07-.112-.163-.21-.278-.293-.115-.083-.248-.145-.4-.185-.54-.145-1.082-.293-1.622-.445l-.553 1.997zM21.966 48.54l-.106.516c-1.013-.214-2.024-.44-3.032-.68l-.42 1.794c.964.23 1.93.447 2.896.652-.035.172-.07.344-.107.516-.97-.206-1.94-.425-2.908-.655-.155.658-.31 1.316-.462 1.974 1.09.26 2.184.504 3.28.733l-.106.516c-1.3-.272-2.598-.566-3.892-.88l1.267-5.3c1.192.29 2.39.56 3.59.814zM22.794 52.536c-.024.194-.013.378.034.554.047.175.124.334.23.475.105.142.24.263.404.362.165.098.353.168.565.206.19.035.373.05.552.04.18-.008.342-.044.488-.106.146-.063.27-.157.37-.28.102-.123.17-.283.203-.48.028-.16.008-.302-.057-.428-.065-.127-.16-.243-.28-.348-.123-.107-.266-.204-.43-.294-.162-.09-.328-.177-.496-.263-.21-.103-.42-.216-.627-.336-.208-.12-.39-.26-.543-.415-.155-.156-.27-.335-.345-.536-.076-.204-.087-.438-.035-.705.044-.22.126-.41.248-.56.122-.153.273-.27.455-.356.18-.085.387-.136.618-.153.23-.018.48-.002.743.048.235.043.44.104.61.183.174.078.32.17.444.274.123.103.222.215.298.336.075.122.134.247.174.376.04.13.065.26.074.39.01.128.008.253-.004.37l-.6-.102c.015-.183-.002-.348-.05-.497-.05-.15-.122-.28-.22-.392-.098-.113-.217-.206-.357-.28-.14-.073-.294-.125-.46-.156-.15-.027-.302-.04-.454-.037-.153.002-.293.027-.42.074-.13.047-.24.118-.332.214-.093.096-.154.223-.185.382-.032.163-.02.31.04.44s.15.25.27.36c.12.106.263.207.427.3.163.094.334.186.51.276.212.106.422.218.63.335.207.12.388.252.543.4.155.15.272.322.352.516.08.194.1.422.056.682-.043.264-.132.486-.265.668-.134.18-.302.324-.506.427-.203.103-.436.167-.696.19-.26.022-.54.007-.835-.048-.266-.05-.517-.14-.75-.272-.235-.133-.435-.297-.6-.494-.163-.198-.283-.42-.36-.67-.077-.25-.092-.515-.044-.796.205.04.41.08.614.122zM28.277 49.692l-.355 2.343c1.004.156 2.01.3 3.017.428l.297-2.35c.194.024.388.05.58.072-.218 1.805-.44 3.61-.658 5.413-.203-.026-.405-.05-.608-.077l.323-2.55c-1.01-.13-2.02-.273-3.03-.43l-.386 2.542c-.203-.03-.404-.063-.605-.095L27.7 49.6c.192.032.384.062.578.092zM40.5 50.938c.505 1.576 1.03 3.15 1.58 4.72.668-1.527 1.313-3.06 1.935-4.597.252.006.505.01.758.014l-.074 5.452-.61-.01.08-4.475c-.58 1.482-1.18 2.96-1.803 4.432-.184-.007-.368-.012-.553-.02-.53-1.512-1.04-3.028-1.528-4.547l-.225 4.47-.613-.033.3-5.445c.252.016.503.028.754.04zM49.266 51.05c.004.176.01.35.012.527-1.03.025-2.06.037-3.087.035l-.002 1.843c.982.002 1.966-.01 2.95-.03l.01.526c-.987.023-1.975.034-2.962.032 0 .676-.002 1.352-.004 2.028 1.114.002 2.228-.01 3.34-.04.006.177.01.352.014.53-1.32.032-2.643.044-3.965.035.014-1.818.026-3.635.038-5.453 1.22.01 2.44-.002 3.658-.032zM52.551 50.925c.76 1.78 1.546 3.554 2.363 5.32-.215.015-.43.03-.646.043-.246-.542-.49-1.085-.73-1.63-.808.048-1.617.088-2.426.118-.187.565-.377 1.13-.57 1.692l-.656.02c.653-1.837 1.276-3.68 1.867-5.525.268-.01.535-.024.8-.038h.002zm-.383.555c-.285.927-.578 1.853-.878 2.778.67-.027 1.34-.06 2.01-.097-.384-.89-.762-1.785-1.133-2.68zM58.779 50.436l.053.525c-.605.065-1.21.123-1.816.178l.432 4.907-.61.053-.408-4.91c-.605.052-1.21.098-1.817.14l-.036-.526c1.4-.097 2.8-.22 4.2-.366h-.002zM64.328 49.72c.672-.102 1.344-.21 2.014-.325.36-.06.696-.048 1.01.043.312.09.593.236.84.44.25.204.46.458.63.76.17.304.29.64.358 1.004.072.38.08.746.022 1.096-.056.35-.17.666-.34.947-.17.28-.393.517-.666.708-.273.19-.59.317-.95.378-.702.122-1.404.235-2.107.342l-.812-5.39zm1.327 4.78l1.26-.207c.297-.05.564-.146.8-.287.234-.142.426-.323.575-.54.15-.22.25-.473.303-.76.054-.288.05-.602-.013-.943-.068-.37-.177-.683-.328-.937-.15-.253-.33-.452-.54-.597-.21-.146-.444-.24-.702-.282-.258-.043-.53-.04-.814.007-.405.068-.81.134-1.216.198l.675 4.346zM71.78 48.335c1.037 1.633 2.102 3.254 3.195 4.863-.21.05-.422.1-.633.148-.332-.494-.66-.99-.986-1.487-.794.178-1.59.35-2.387.514-.097.588-.196 1.175-.297 1.763l-.646.128c.353-1.92.675-3.84.967-5.76.263-.056.525-.11.787-.17zm-.29.61c-.135.963-.277 1.925-.427 2.887.66-.137 1.32-.28 1.98-.427-.525-.817-1.043-1.636-1.554-2.46zM75.103 47.557L76.4 52.85c-.2.05-.398.1-.597.148l-1.272-5.3.573-.14zM76.772 47.128l1.24 4.764c.933-.246 1.864-.505 2.79-.775.05.17.097.338.146.507-1.13.328-2.262.64-3.398.935-.45-1.76-.9-3.522-1.348-5.282l.57-.15zM81.978 48.5c.252-1.037.492-2.072.72-3.108l.648-.21c-.298 1.24-.614 2.482-.948 3.723l.636 2.093-.59.18c-.21-.698-.418-1.397-.627-2.095-.96-.844-1.907-1.7-2.837-2.564l.653-.19c.772.73 1.553 1.454 2.345 2.17z"/>
        </g>
        <ellipse cx="38.656" cy="51.97" rx=".698" ry=".704"/>
        <ellipse cx="56.9" cy="51.97" rx=".698" ry=".704"/>
      </g>
      <path d="M101.177 115.738s-.465.946-2.668.946c-2.204 0-5.31-.946-5.31-.946s3.105-.945 5.31-.945c2.202 0 2.667.945 2.667.945zM107.78 115.738s.465-.945 2.668-.945c2.204 0 5.31.945 5.31.945s-3.107.946-5.31.946c-2.202 0-2.668-.946-2.668-.946zM104.73 117.485c-.168.143-.416.133-.57-.023l-1.304-1.315c-.078-.08-.122-.187-.122-.3 0-.112.043-.22.122-.3l1.304-1.314c.154-.156.402-.166.57-.023l1.532 1.314c.094.08.148.2.148.323 0 .124-.054.242-.148.324l-1.533 1.315z"/>
      <g>
        <path d="M101.177 86.986s-.465.945-2.668.945c-2.204 0-5.31-.944-5.31-.944s3.105-.946 5.31-.946c2.202 0 2.667.946 2.667.946zM107.78 86.986s.465-.946 2.668-.946c2.204 0 5.31.946 5.31.946s-3.107.945-5.31.945c-2.202 0-2.668-.944-2.668-.944zM104.73 88.733c-.168.143-.416.133-.57-.023l-1.304-1.315c-.078-.08-.122-.187-.122-.3 0-.112.043-.22.122-.3l1.304-1.314c.154-.155.402-.165.57-.022l1.532 1.314c.094.08.148.2.148.323 0 .125-.054.243-.148.323l-1.533 1.315z"/>
      </g>
    </g>
    <g transform="translate(36 874)">
      <rect fill="#454A59" width="61" height="62" rx="30.5"/>
      <g fill="#FFF">
        <g transform="translate(4.816 21.557)">
          <path d="M7.905 5.293c.325-.457.497-.832.515-1.124.02-.292-.065-.502-.252-.63-.188-.126-.45-.17-.787-.132-.336.038-.705.16-1.104.362-.262.14-.512.31-.75.514-.236.203-.433.415-.59.637-.155.223-.264.442-.327.658-.063.216-.048.397.046.543.094.147.268.245.524.296.256.05.62.03 1.096-.057.724-.14 1.302-.13 1.732.027.43.16.74.413.927.762.188.348.26.77.216 1.265-.043.494-.177 1.005-.402 1.532-.225.527-.53 1.05-.918 1.57-.387.52-.84.984-1.357 1.39-.52.406-1.09.73-1.714.97-.625.242-1.28.35-1.967.324-.625-.037-1.143-.19-1.555-.456-.412-.266-.715-.6-.908-1-.194-.4-.272-.84-.234-1.322.037-.482.187-.964.45-1.447.236-.43.527-.73.87-.895.343-.165.65-.238.918-.22.268.02.46.113.57.277.113.165.063.35-.15.552-.186.177-.333.4-.44.666-.105.266-.143.523-.11.77.03.248.15.464.355.648s.532.29.982.314c.374.026.742-.073 1.105-.295.362-.222.686-.505.974-.847.288-.343.522-.708.703-1.095.18-.386.274-.738.28-1.055.007-.317-.09-.562-.29-.733-.2-.172-.53-.213-.992-.124-.636.127-1.185.13-1.647.01-.462-.12-.82-.33-1.077-.63-.256-.297-.403-.658-.44-1.084-.038-.425.043-.882.243-1.37.2-.49.524-.98.973-1.476.45-.495 1.043-.964 1.78-1.408.873-.52 1.657-.784 2.35-.79.693-.007 1.26.146 1.704.456.443.312.746.724.908 1.238.162.514.15 1.037-.037 1.57-.175.52-.412.89-.712 1.104-.3.216-.577.334-.833.353-.256.02-.456-.034-.6-.16-.143-.127-.153-.28-.028-.457zM11.09 4.626c.136.127.4.23.786.305.387.077.805.122 1.255.134.1-.203.188-.387.263-.552.075-.165.13-.298.168-.4.05-.14.176-.238.376-.295.2-.057.402-.082.608-.076.206.008.384.042.534.106.15.063.206.152.17.266-.09.254-.2.533-.338.838.224-.038.412-.095.562-.17.212-.103.337-.084.374.056.038.14-.1.355-.412.647-.1.102-.23.184-.393.247-.162.064-.35.12-.56.172-.213.457-.444.932-.694 1.427-.25.494-.487.967-.712 1.418l-.6 1.2c-.174.348-.292.6-.355.75-.138.33-.176.588-.113.772.062.184.184.308.365.37.18.065.406.068.674.01.27-.056.54-.174.815-.352.163-.1.263-.126.3-.076.038.05.02.143-.056.277-.075.132-.2.29-.374.475-.175.184-.393.358-.656.523-.262.165-.562.308-.9.428-.336.12-.698.18-1.085.18-.363 0-.638-.075-.825-.228-.187-.152-.302-.358-.346-.618-.045-.26-.03-.56.045-.895.075-.336.2-.694.375-1.075.112-.24.253-.533.42-.876.17-.343.357-.707.563-1.095.206-.387.415-.784.628-1.19l.62-1.18c-.35 0-.676-.016-.975-.048-.3-.032-.556-.08-.768-.143-.25-.077-.403-.21-.46-.4-.055-.19-.055-.375 0-.553.057-.177.154-.314.29-.41.14-.094.282-.085.432.03z"/>
          <path d="M19.797 7.958c.125.342.113.723-.037 1.142-.15.42-.41.81-.777 1.17-.37.363-.83.664-1.386.905-.556.24-1.164.356-1.826.342.088.255.266.45.535.59.268.14.583.21.945.21s.76-.066 1.19-.2c.43-.133.852-.345 1.264-.637.212-.14.337-.178.374-.114.038.063 0 .184-.112.36-.112.18-.287.39-.524.63-.238.24-.528.463-.87.666-.345.203-.725.365-1.144.485-.418.12-.864.15-1.34.086-.486-.063-.9-.206-1.244-.43-.344-.22-.596-.506-.76-.855-.16-.35-.233-.75-.214-1.2.02-.45.14-.935.365-1.456.212-.482.484-.897.815-1.246.33-.35.683-.635 1.058-.857.375-.223.758-.375 1.152-.458.393-.082.758-.108 1.095-.076.337.032.634.127.89.285.256.16.44.38.552.658zm-1.423.57c-.1-.1-.262-.126-.487-.075-.225.05-.465.158-.72.323-.257.165-.504.38-.74.647-.238.267-.425.565-.562.895.4-.012.774-.092 1.123-.238.35-.146.646-.314.89-.504.243-.19.415-.384.515-.58.1-.197.093-.353-.02-.467z"/>
          <path d="M30.678 7.69c.2-.088.29-.06.272.087-.02.146-.138.314-.356.504-.218.192-.518.357-.9.496-.38.14-.826.16-1.338.057-.062.203-.18.495-.356.876-.175.38-.384.78-.627 1.198-.243.42-.512.825-.806 1.218-.293.394-.59.705-.89.933-.212.164-.455.295-.73.39-.274.095-.545.14-.814.133-.27-.007-.52-.076-.75-.21-.23-.133-.402-.345-.514-.637-.04-.076-.067-.16-.085-.248-.02-.09-.035-.184-.047-.285l-.28.38c-.214.266-.44.476-.685.628-.243.154-.487.246-.73.278-.244.032-.472-.013-.684-.133-.213-.12-.382-.327-.506-.62-.125-.304-.163-.687-.113-1.15.05-.464.154-.95.31-1.457.156-.507.353-1.01.59-1.504.237-.495.487-.926.75-1.294.112-.165.286-.286.524-.362.237-.076.465-.11.683-.105.22.007.394.054.525.143.13.09.146.216.046.38-.237.407-.474.864-.71 1.37-.238.51-.44.982-.61 1.42-.168.438-.284.805-.346 1.104-.063.298-.032.435.093.41.1-.013.228-.115.384-.306.155-.19.324-.42.505-.695.18-.273.36-.565.534-.876.173-.31.33-.606.467-.885.1-.268.206-.534.318-.8l.337-.8c.075-.19.215-.327.422-.41.206-.082.41-.12.617-.114.208.007.376.06.507.162.132.102.165.24.103.42-.212.57-.41 1.112-.6 1.626-.186.514-.342.968-.467 1.362-.125.393-.203.707-.234.942-.032.235.002.36.102.37.112-.05.262-.205.45-.465.187-.26.383-.574.59-.943.206-.368.415-.764.627-1.19.21-.424.392-.834.542-1.227.362-.965.874-1.168 1.535-.61.163.14.35.25.563.334.212.082.427.14.646.17.218.033.427.046.627.04.2-.007.368-.042.505-.106z"/>
          <path d="M34.63 7.958c.125.342.112.723-.038 1.142-.15.42-.41.81-.777 1.17-.368.363-.83.664-1.386.905-.556.24-1.165.356-1.827.342.087.255.265.45.534.59.268.14.584.21.946.21s.758-.066 1.19-.2c.43-.133.85-.345 1.263-.637.212-.14.337-.178.375-.114.038.063 0 .184-.112.36-.112.18-.287.39-.524.63-.238.24-.528.463-.87.666-.344.203-.725.365-1.144.485-.418.12-.864.15-1.34.086-.486-.063-.9-.206-1.244-.43-.344-.22-.596-.506-.76-.855-.16-.35-.233-.75-.214-1.2.02-.45.14-.935.365-1.456.212-.482.484-.897.815-1.246.33-.35.684-.635 1.058-.857.374-.223.76-.375 1.152-.458.393-.082.758-.108 1.095-.076.338.032.634.127.89.285.256.16.44.38.553.658zm-1.424.57c-.1-.1-.262-.126-.486-.075-.225.05-.466.158-.72.323-.257.165-.504.38-.74.647-.24.267-.426.565-.563.895.4-.012.774-.092 1.124-.238.35-.146.647-.314.89-.504s.415-.384.515-.58c.1-.197.094-.353-.02-.467z"/>
          <path d="M40.042 10.7c-.175.532-.362 1.046-.562 1.54.25-.024.512-.088.787-.19.274-.1.63-.285 1.067-.55.15-.103.243-.134.28-.097.04.04.03.118-.027.238-.056.122-.153.265-.29.43-.138.165-.306.33-.506.494-.35.267-.67.46-.963.58-.294.122-.578.195-.853.22-.224.444-.474.847-.75 1.21-.273.36-.583.675-.926.94-.343.268-.727.477-1.152.63-.424.152-.893.228-1.404.228-.6 0-1.058-.142-1.377-.428-.318-.286-.477-.632-.477-1.037 0-.407.156-.826.468-1.257.312-.43.793-.787 1.442-1.066-.175-.254-.247-.587-.216-1 .03-.412.134-.846.31-1.303.086-.228.208-.494.364-.8.156-.303.312-.602.47-.894.155-.29.308-.552.457-.78.15-.23.263-.387.338-.476.1-.1.257-.178.47-.228.21-.05.417-.077.617-.077s.365.03.496.086c.13.058.16.13.084.22-.162.24-.33.514-.505.82-.175.303-.344.61-.506.922-.162.31-.306.61-.43.895-.126.285-.213.53-.263.732-.1.38-.096.634.01.76.105.128.265.153.477.077.212-.076.462-.235.75-.476.286-.24.555-.538.804-.894.113-.24.247-.51.403-.81.156-.297.312-.586.47-.865.155-.278.298-.523.43-.732.13-.21.233-.352.308-.428.1-.102.256-.178.468-.23.212-.05.418-.075.618-.075s.364.03.488.086c.125.058.156.13.094.22-.162.24-.33.51-.506.81-.175.297-.34.598-.496.903-.156.305-.303.6-.44.885-.137.285-.243.542-.318.77zm-5.038 3.94c.375.05.724-.042 1.05-.277.324-.235.648-.606.973-1.113-.187-.013-.375-.013-.562 0-.412.038-.77.127-1.077.266-.306.14-.53.286-.674.438-.143.152-.197.295-.16.428.038.134.188.22.45.257zM43.788 4.15c.037-.304.156-.495.355-.57.2-.077.403-.07.61.018.205.09.376.254.514.495.137.24.162.527.075.857-.1.406-.247.75-.44 1.028-.194.28-.39.5-.59.666-.15.114-.278.18-.384.2-.106.02-.194.01-.262-.03-.07-.037-.11-.1-.122-.19-.013-.088 0-.177.038-.265.112-.255.184-.477.215-.668.03-.19.04-.37.028-.542-.013-.172-.028-.336-.047-.495-.018-.16-.016-.327.01-.505zM48.432 5.464c.25-.09.45-.06.6.086.15.146.25.33.3.552.05.222.052.44.008.656-.044.216-.128.35-.253.4-.175.076-.334.194-.477.352-.144.16-.256.346-.338.562-.08.216-.137.447-.168.695-.03.247-.022.498.028.752.062.38.09.808.084 1.283-.006.476-.084.93-.234 1.362.562-.063 1.042-.286 1.442-.667.137-.126.234-.168.29-.123.057.044.057.14 0 .285-.056.146-.165.33-.328.552-.162.222-.39.438-.683.648-.294.21-.653.4-1.077.57-.425.172-.918.283-1.48.334h-.112c-.35.038-.652.016-.908-.067s-.468-.193-.637-.333c-.17-.14-.297-.3-.385-.485-.087-.185-.15-.36-.187-.525-.025-.19-.025-.343 0-.457.025-.114.093-.22.206-.323.225-.178.446-.41.665-.695.217-.286.436-.6.654-.942.218-.343.428-.698.628-1.066l.58-1.066c.125-.533.337-1.01.637-1.428.3-.42.68-.724 1.142-.914zm-3.727 6.625c.212.126.43.173.655.14.225-.03.428-.135.61-.313.18-.177.327-.415.44-.714.112-.298.16-.65.15-1.056-.326.444-.634.822-.928 1.133-.293.31-.602.58-.927.81z"/>
          <ellipse cx="20.684" cy="23.019" rx=".373" ry=".38"/>
          <ellipse cx="30.446" cy="23.019" rx=".373" ry=".38"/>
        </g>
        <path d="M27.384 39.598s-.25.51-1.427.51c-1.18 0-2.84-.51-2.84-.51s1.66-.51 2.84-.51 1.427.51 1.427.51zM30.917 39.598s.25-.51 1.428-.51c1.18 0 2.84.51 2.84.51s-1.66.51-2.84.51-1.428-.51-1.428-.51zM29.285 40.54c-.09.077-.222.07-.305-.013l-.697-.708c-.042-.044-.066-.103-.066-.163 0-.06.024-.12.066-.162l.697-.708c.083-.085.216-.09.305-.013l.82.71c.05.042.08.106.08.173 0 .067-.03.13-.08.174l-.82.71z"/>
        <g>
          <path d="M27.384 24.097s-.25.51-1.427.51c-1.18 0-2.84-.51-2.84-.51s1.66-.51 2.84-.51 1.427.51 1.427.51zM30.917 24.097s.25-.51 1.428-.51c1.18 0 2.84.51 2.84.51s-1.66.51-2.84.51-1.428-.51-1.428-.51zM29.285 25.04c-.09.076-.222.07-.305-.014l-.697-.71c-.042-.042-.066-.1-.066-.16s.024-.12.066-.162l.697-.71c.083-.083.216-.088.305-.01l.82.707c.05.045.08.108.08.176 0 .067-.03.13-.08.174l-.82.71z"/>
        </g>
      </g>
    </g>
    <text font-family="MastocPersonalUseOnly, Mastoc Personal Use Only" font-size="72" fill="#E1E6F6">
      <tspan x="199" y="118">Stewey’s Steakhouse</tspan>
    </text>
    <rect fill="#ECEEF8" x="121" y="852" width="376" height="93.062" rx="46.531"/>
    <path d="M180 900h213.5" stroke="#9DA1B1" stroke-width="11" stroke-linecap="square"/>
    <text stroke="#9DA1B1" font-family="Karla-Regular, Karla" font-size="48" letter-spacing="-1.271" fill="#9DA1B1">
      <tspan x="425" y="915">?</tspan>
    </text>
    <path d="M121 518h329.47c25.698 0 46.53 20.827 46.53 46.53 0 25.7-20.835 46.532-46.53 46.532H167.53c-25.698 0-46.53-20.827-46.53-46.53V518z" fill="#ECEEF8"/>
    <path d="M180 566h213.5" stroke="#9DA1B1" stroke-width="11" stroke-linecap="square"/>
    <text stroke="#9DA1B1" font-family="Karla-Regular, Karla" font-size="48" letter-spacing="-1.271" fill="#9DA1B1">
      <tspan x="425" y="581">?</tspan>
    </text>
    <path d="M121 385c0-27.615 22.393-50 50.004-50h431.992C630.612 335 653 357.387 653 385v63c0 27.615-22.393 50-50.004 50H121V385z" fill="#ECEEF8"/>
    <g stroke-linecap="square" stroke="#9DA1B1" stroke-width="11">
      <path d="M180 447h418.02M180 387h418.02"/>
    </g>
    <g stroke-linecap="square" stroke="#C7C7C7" stroke-width="11">
      <path d="M412 762h349.182M412 702h349.182"/>
    </g>
    <path fill="#FFBB2F" d="M700.09 274.073l-11.798 7.107 3.137-13.376L681 258.82l13.737-1.16L700.09 245l5.352 12.66 13.737 1.16-10.43 8.984 3.138 13.376M755.09 274.073l-11.798 7.107 3.137-13.376L736 258.82l13.737-1.16L755.09 245l5.352 12.66 13.737 1.16-10.43 8.984 3.138 13.376"/>
    <path d="M750.8 1059.5l-7.354 16.115 38.108-16.115-38.108-16.115" fill="#3A3E4D"/>
  </g>
</svg>
