<svg width="846" height="1143" viewBox="0 0 846 1143" xmlns="http://www.w3.org/2000/svg" xmlns:xlink="http://www.w3.org/1999/xlink">
  <title>
    Group 19
  </title>
  <defs>
    <path d="M.79 7.684c-1.196 3.427-1.028 7.29.46 10.6 1.795 3.985 5.27 6.878 8.432 9.183.744.542 1.512 1.082 2.255 1.605 1.06.747 2.158 1.52 3.21 2.313 1.904 1.438 3.348 2.72 4.545 4.038.07.077.138.155.207.233 2.953 3.358 4.405 7.232 4.067 10.767 2.82-2.985 4.793-6.867 5.588-11.026.26-1.356.39-2.716.393-4.064v-.08c0-.74-.04-1.477-.12-2.21l-.014-.107c-.343-3-1.356-5.45-3.188-7.71-1.678-2.067-3.907-3.865-6.873-6.18-.562-.438-1.173-.907-1.82-1.403-2.314-1.773-4.936-3.783-6.817-5.58C9.374 6.4 8.186 4.77 7.588 3.216c-.152-.394-.268-.79-.346-1.18l-.165-.61.077.036C7.102.967 7.112.48 7.184 0 4.23 1.686 1.918 4.456.79 7.684" id="b"/>
    <filter x="-50%" y="-50%" width="200%" height="200%" filterUnits="objectBoundingBox" id="a">
      <feOffset dy="2" in="SourceAlpha" result="shadowOffsetOuter1"/>
      <feColorMatrix values="0 0 0 0 0 0 0 0 0 0 0 0 0 0 0 0 0 0 0.5 0" in="shadowOffsetOuter1"/>
    </filter>
    <path d="M8.48 31.068c-3.4-1.035-6.415-.7-8.464-.175-.01-.278-.016-.557-.016-.837v-.034c.002-2.3.36-4.61 1.046-6.782 4.366 5.385 8.315 7.273 12.467 10.354l.244.18c.86.647 1.727 1.394 2.54 2.205.005.002.01.006.012.01l.123.125c.325.332.65.682.974 1.05.613.707 1.17 1.445 1.638 2.195 1.127 1.813 1.63 3.935 1.636 6.083v.083c-.003 1.41-.22 2.83-.615 4.177-1.002 3.426-3.037 6.453-5.286 9.215.274-.54.423-1.107.482-1.688.68-3.745.397-13.446-15.246-26.336 1.077-.276 2.42-.5 3.946-.5 1.378 0 2.904.183 4.517.674zm3.317 17.304c1.298 1.258 2.302 2.803 2.802 4.505.416 1.42.808 2.93.662 4.353.68-3.745.397-13.446-15.246-26.336 0 0 6.888 6.01 11.78 17.478zm-6.89-5.487c1.482 1.463 4.696 3.595 6.285 4.938.208.176.41.36.606.55C6.903 36.902.015 30.892.015 30.892c.174 4.492 1.73 8.867 4.892 11.992z" id="d"/>
    <filter x="-50%" y="-50%" width="200%" height="200%" filterUnits="objectBoundingBox" id="c">
      <feOffset in="SourceAlpha" result="shadowOffsetOuter1"/>
      <feColorMatrix values="0 0 0 0 0 0 0 0 0 0 0 0 0 0 0 0 0 0 0.5 0" in="shadowOffsetOuter1"/>
    </filter>
    <path d="M.41 4.01c-.62 1.787-.533 3.803.238 5.53.928 2.078 2.726 3.588 4.363 4.79.386.283.783.565 1.168.838.55.39 1.117.792 1.66 1.207.987.75 1.734 1.42 2.353 2.107l.11.12c1.528 1.753 2.28 3.774 2.104 5.62 1.46-1.56 2.48-3.584 2.892-5.754.134-.708.202-1.417.204-2.12v-.04c0-.388-.022-.773-.063-1.154 0-.01-.006-.047-.007-.057-.178-1.566-.702-2.844-1.65-4.022-.87-1.08-2.022-2.017-3.557-3.225-.29-.23-.607-.473-.942-.732-1.196-.925-2.553-1.974-3.527-2.91-.902-.87-1.516-1.72-1.826-2.53-.078-.206-.14-.413-.18-.616L3.663.744l.04.018C3.677.504 3.683.25 3.72 0 2.188.88.992 2.325.408 4.01" id="f"/>
    <filter x="-50%" y="-50%" width="200%" height="200%" filterUnits="objectBoundingBox" id="e">
      <feOffset dy="2" in="SourceAlpha" result="shadowOffsetOuter1"/>
      <feColorMatrix values="0 0 0 0 0 0 0 0 0 0 0 0 0 0 0 0 0 0 0.5 0" in="shadowOffsetOuter1"/>
    </filter>
    <path d="M4.388 18.21c-1.758-.54-3.32-.365-4.38-.092-.005-.145-.008-.29-.008-.436v-.018c0-1.2.186-2.406.54-3.54 2.26 2.81 4.305 3.796 6.454 5.403l.126.095c.445.337.894.727 1.315 1.15.002 0 .004.003.006.005l.065.066c.168.173.336.355.504.548.316.37.605.754.846 1.146.584.945.844 2.053.847 3.173v.043c-.002.736-.114 1.476-.318 2.18-.52 1.786-1.572 3.366-2.736 4.807.14-.282.218-.578.25-.88.35-1.955.204-7.016-7.89-13.742.556-.143 1.25-.26 2.04-.26.713 0 1.504.095 2.338.35zm1.718 9.027c.67.657 1.19 1.463 1.45 2.35.215.742.418 1.53.343 2.272.35-1.955.204-7.016-7.89-13.742 0 0 3.563 3.136 6.096 9.12zM2.54 24.375c.766.763 2.43 1.875 3.252 2.576.108.093.213.19.314.288C3.573 21.253.01 18.117.01 18.117c.088 2.344.893 4.626 2.53 6.257z" id="h"/>
    <filter x="-50%" y="-50%" width="200%" height="200%" filterUnits="objectBoundingBox" id="g">
      <feOffset in="SourceAlpha" result="shadowOffsetOuter1"/>
      <feColorMatrix values="0 0 0 0 0 0 0 0 0 0 0 0 0 0 0 0 0 0 0.5 0" in="shadowOffsetOuter1"/>
    </filter>
    <path d="M.41 4.01c-.62 1.787-.533 3.803.238 5.53.928 2.078 2.726 3.588 4.363 4.79.386.283.783.565 1.168.838.55.39 1.117.792 1.66 1.207.987.75 1.734 1.42 2.353 2.107l.11.12c1.528 1.753 2.28 3.774 2.104 5.62 1.46-1.56 2.48-3.584 2.892-5.754.134-.708.202-1.417.204-2.12v-.04c0-.388-.022-.773-.063-1.154 0-.01-.006-.047-.007-.057-.178-1.566-.702-2.844-1.65-4.022-.87-1.08-2.022-2.017-3.557-3.225-.29-.23-.607-.473-.942-.732-1.196-.925-2.553-1.974-3.527-2.91-.902-.87-1.516-1.72-1.826-2.53-.078-.206-.14-.413-.18-.616L3.663.744l.04.018C3.677.504 3.683.25 3.72 0 2.188.88.992 2.325.408 4.01" id="j"/>
    <filter x="-50%" y="-50%" width="200%" height="200%" filterUnits="objectBoundingBox" id="i">
      <feOffset dy="2" in="SourceAlpha" result="shadowOffsetOuter1"/>
      <feColorMatrix values="0 0 0 0 0 0 0 0 0 0 0 0 0 0 0 0 0 0 0.5 0" in="shadowOffsetOuter1"/>
    </filter>
    <path d="M4.388 18.21c-1.758-.54-3.32-.365-4.38-.092-.005-.145-.008-.29-.008-.436v-.018c0-1.2.186-2.406.54-3.54 2.26 2.81 4.305 3.796 6.454 5.403l.126.095c.445.337.894.727 1.315 1.15.002 0 .004.003.006.005l.065.066c.168.173.336.355.504.548.316.37.605.754.846 1.146.584.945.844 2.053.847 3.173v.043c-.002.736-.114 1.476-.318 2.18-.52 1.786-1.572 3.366-2.736 4.807.14-.282.218-.578.25-.88.35-1.955.204-7.016-7.89-13.742.556-.143 1.25-.26 2.04-.26.713 0 1.504.095 2.338.35zm1.718 9.027c.67.657 1.19 1.463 1.45 2.35.215.742.418 1.53.343 2.272.35-1.955.204-7.016-7.89-13.742 0 0 3.563 3.136 6.096 9.12zM2.54 24.375c.766.763 2.43 1.875 3.252 2.576.108.093.213.19.314.288C3.573 21.253.01 18.117.01 18.117c.088 2.344.893 4.626 2.53 6.257z" id="l"/>
    <filter x="-50%" y="-50%" width="200%" height="200%" filterUnits="objectBoundingBox" id="k">
      <feOffset in="SourceAlpha" result="shadowOffsetOuter1"/>
      <feColorMatrix values="0 0 0 0 0 0 0 0 0 0 0 0 0 0 0 0 0 0 0.5 0" in="shadowOffsetOuter1"/>
    </filter>
  </defs>
  <g fill="none" fill-rule="evenodd">
    <rect fill="#FFF" width="846" height="1142.125" rx="100"/>
    <path d="M0 99.995C0 44.77 44.776 0 100.004 0h645.992C801.226 0 846 44.77 846 99.995V203H0V99.995z" fill="#298C9A"/>
    <path fill="#7CC2CC" d="M0 203h846v32H0z"/>
    <rect fill="#43B6AC" x="45" y="44" width="114" height="115" rx="57"/>
    <path d="M127 334c0-27.615 22.393-50 50.01-50h390.98c27.62 0 50.01 22.386 50.01 50v83.03c0 27.615-22.393 50-50.01 50H127V334zM127 487h444.476C597.17 487 618 507.827 618 533.53c0 25.7-20.823 46.532-46.524 46.532H173.524c-25.695 0-46.524-20.827-46.524-46.53V487z" fill="#EFFDFF"/>
    <g stroke="#7CC2CC" stroke-width="11" stroke-linecap="square">
      <path d="M185.5 351.5h375.005M185.5 394.5h375.005"/>
    </g>
    <path d="M127 842h123.957c25.698 0 46.53 20.827 46.53 46.53 0 25.7-20.84 46.532-46.53 46.532H173.53c-25.698 0-46.53-20.827-46.53-46.53V842z" fill="#EFFDFF"/>
    <rect fill="#F7F7F7" x="521" y="611" width="281" height="93.062" rx="46.531"/>
    <path d="M127 775.53c0-25.697 20.835-46.53 46.53-46.53h282.94c25.698 0 46.53 20.827 46.53 46.53 0 25.7-20.835 46.532-46.53 46.532H127v-46.53z" fill="#EFFDFF"/>
    <g fill="#FFBB2F">
      <path d="M688.31 668.073l-11.8 7.107 3.14-13.376-10.43-8.984 13.737-1.16L688.31 639l5.352 12.66 13.737 1.16-10.43 8.984 3.137 13.376M743.928 668.073l-11.798 7.107 3.138-13.376-10.43-8.984 13.738-1.16 5.352-12.66 5.352 12.66 13.738 1.16-10.43 8.984 3.138 13.376M577.072 668.073l-11.798 7.107 3.138-13.376-10.43-8.984 13.738-1.16 5.352-12.66 5.352 12.66 13.738 1.16-10.43 8.984 3.138 13.376M632.69 668.073l-11.797 7.107 3.137-13.376-10.43-8.984 13.738-1.16L632.69 639l5.353 12.66 13.737 1.16-10.43 8.984 3.14 13.376"/>
    </g>
    <path fill="#FFBB2F" d="M119.5 1073.79l-18.515 11.194 4.924-21.068-16.368-14.15 21.558-1.827 8.4-19.94 8.4 19.94 21.558 1.826-16.367 14.15 4.925 21.068"/>
    <path fill="#DBE1E5" d="M575.5 1073.79l-18.515 11.194 4.924-21.068-16.368-14.15 21.558-1.827 8.4-19.94 8.4 19.94 21.558 1.826-16.367 14.15 4.925 21.068"/>
    <path fill="#FFBB2F" d="M271.5 1073.79l-18.515 11.194 4.924-21.068-16.368-14.15 21.558-1.827 8.4-19.94 8.4 19.94 21.558 1.826-16.367 14.15 4.925 21.068M423.5 1073.79l-18.515 11.194 4.924-21.068-16.368-14.15 21.558-1.827 8.4-19.94 8.4 19.94 21.558 1.826-16.367 14.15 4.925 21.068"/>
    <path fill="#DBE1E5" d="M727.5 1073.79l-18.515 11.194 4.924-21.068-16.368-14.15 21.558-1.827 8.4-19.94 8.4 19.94 21.558 1.826-16.367 14.15 4.925 21.068"/>
    <g transform="translate(160 878)" fill="#7CC2CC">
      <circle cx="10.5" cy="10.5" r="10.5"/>
      <circle fill-opacity=".501" cx="50.5" cy="10.5" r="10.5"/>
      <circle fill-opacity=".243" cx="90.5" cy="10.5" r="10.5"/>
    </g>
    <g stroke="#7CC2CC">
      <path d="M186 534h335" stroke-width="11" stroke-linecap="square"/>
      <text font-family="Karla-Regular, Karla" font-size="48" letter-spacing="-1.271" fill="#7CC2CC" transform="translate(186 506)">
        <tspan x="363" y="44">?</tspan>
      </text>
    </g>
    <g stroke="#7CC2CC">
      <path d="M186 777h213.5" stroke-width="11" stroke-linecap="square"/>
      <text font-family="Karla-Regular, Karla" font-size="48" letter-spacing="-1.271" fill="#7CC2CC" transform="translate(186 748)">
        <tspan x="245" y="44">?</tspan>
      </text>
    </g>
    <g fill="#000">
      <use filter="url(#a)" xlink:href="#b" transform="translate(89 72)"/>
      <use filter="url(#c)" xlink:href="#d" transform="translate(89 72)"/>
    </g>
    <g transform="translate(36 493)">
      <rect fill="#43B6AC" width="59" height="60" rx="29.5"/>
      <g fill="#000">
        <use filter="url(#e)" xlink:href="#f" transform="translate(22.772 12.61)"/>
        <use filter="url(#g)" xlink:href="#h" transform="translate(22.772 12.61)"/>
      </g>
    </g>
    <g transform="translate(36 859)">
      <rect fill="#43B6AC" width="59" height="60" rx="29.5"/>
      <g fill="#000">
        <use filter="url(#i)" xlink:href="#j" transform="translate(22.772 12.61)"/>
        <use filter="url(#k)" xlink:href="#l" transform="translate(22.772 12.61)"/>
      </g>
    </g>
    <g>
      <path d="M200 148h408.503" stroke="#43B5AB" stroke-width="11" stroke-linecap="square"/>
      <text font-family="Nunito" font-size="72" letter-spacing="4.29" fill="#E1FBFF" transform="translate(191 33)">
        <tspan x="0" y="72">Silt</tspan> <tspan x="116.736" y="72">a</tspan>
      </text>
    </g>
  </g>
</svg>
