<svg width="847" height="1143" viewBox="0 0 847 1143" xmlns="http://www.w3.org/2000/svg" xmlns:xlink="http://www.w3.org/1999/xlink">
  <title>
    Group 20
  </title>
  <defs>
    <linearGradient x1="-11.43%" y1="-33.525%" x2="32.269%" y2="170.236%" id="b">
      <stop stop-color="#32BBA5" offset="0%"/>
      <stop stop-color="#298C9A" offset="100%"/>
    </linearGradient>
    <path id="a" d="M137 815h21v7h-21z"/>
    <mask id="c" x="0" y="0" width="21" height="7" fill="#fff">
      <use xlink:href="#a"/>
    </mask>
  </defs>
  <g fill="none" fill-rule="evenodd">
    <path d="M127 957h123.957c25.698 0 46.53 20.827 46.53 46.53 0 25.7-20.84 46.532-46.53 46.532H173.53c-25.698 0-46.53-20.827-46.53-46.53V957z" fill="url(#b)"/>
    <rect fill="#FFF" width="846" height="1142.125" rx="100"/>
    <path d="M0 99.995C0 44.77 44.776 0 100.004 0h645.992C801.226 0 846 44.77 846 99.995V203H0V99.995z" fill="#F47B00"/>
    <path d="M127 516.994c0-27.61 22.393-49.994 50.01-49.994h390.98c27.62 0 50.01 22.386 50.01 49.994v207.19c0 27.612-22.393 49.995-50.01 49.995H127V516.993z" fill="#FFF4E9"/>
    <use stroke="#979797" mask="url(#c)" stroke-width="2" fill="#D8D8D8" xlink:href="#a"/>
    <path d="M127 794h201.85c25.7 0 46.537 20.827 46.537 46.53 0 25.7-20.83 46.532-46.538 46.532H173.537c-25.702 0-46.538-20.827-46.538-46.53V794z" fill="#FFF4E9"/>
    <rect fill="#FDDEBD" x="163" y="501" width="200" height="240" rx="10"/>
    <text font-family="Karla-Bold, Karla" font-size="48" font-weight="bold" letter-spacing="-1.3" fill="#FFF4E8">
      <tspan x="249" y="637">A</tspan>
    </text>
    <rect fill="#FDDEBD" x="380" y="501" width="200" height="240" rx="10"/>
    <rect fill="#F7F7F7" x="670" y="904" width="131.556" height="93.062" rx="46.531"/>
    <g font-size="48" font-family="Karla-Bold, Karla" font-weight="bold">
      <text letter-spacing="-1.271" fill="#FFCA90" transform="translate(173 813)">
        <tspan x="0" y="44">A or B ?</tspan>
      </text>
      <text letter-spacing="-1.3" fill="#C7C7C7" transform="translate(173 813)">
        <tspan x="548" y="152">A</tspan>
      </text>
    </g>
    <path fill="#FCDEBD" d="M1 203h846v32H1z"/>
    <path d="M127 1063.53c0-25.697 20.84-46.53 46.53-46.53h77.427c25.698 0 46.53 20.827 46.53 46.53 0 25.7-20.84 46.532-46.53 46.532H173.53c-25.698 0-46.53-20.827-46.53-46.53z" fill="#FFF4E9"/>
    <g transform="translate(160 1053)" fill="#FFCA90">
      <circle cx="10.5" cy="10.5" r="10.5"/>
      <circle fill-opacity=".508" cx="50.5" cy="10.5" r="10.5"/>
      <circle fill-opacity=".244" cx="90.5" cy="10.5" r="10.5"/>
    </g>
    <text font-family="Karla-Bold, Karla" font-size="48" font-weight="bold" letter-spacing="-1.3" fill="#FFF4E8">
      <tspan x="465" y="637">B</tspan>
    </text>
    <rect fill="#FF8A13" x="49" y="44" width="114" height="115" rx="57"/>
    <g fill="#FFF4E8">
      <path d="M127.805 96.713V82.21c0-.887-.626-1.974-1.39-2.417l-12.502-7.252c-.764-.442-2.014-.443-2.777 0l-12.504 7.252c-.763.443-1.39 1.53-1.39 2.417v14.503c.002.886.627 1.974 1.39 2.417l12.503 7.253c.764.442 2.015.442 2.78 0l12.5-7.253c.764-.443 1.39-1.53 1.39-2.417zM136.046 107.966l-7.417-4.302c-.454-.264-1.196-.264-1.648 0l-7.42 4.3c-.452.265-.823.91-.823 1.436v8.604c0 .526.37 1.172.823 1.435l7.418 4.302c.454.262 1.196.262 1.65-.002l7.417-4.3c.453-.264.824-.91.824-1.436V109.4c0-.526-.37-1.17-.824-1.434z"/>
      <path d="M109.8 108.706l-12.503-7.253c-1.578-.917-2.722-2.91-2.723-4.738V82.21c0-.904.28-1.847.754-2.68l-1.163-.676c-1.008-.584-2.657-.584-3.665 0L74.01 88.42c-1.008.584-1.832 2.02-1.833 3.188v19.13c0 1.17.826 2.604 1.833 3.19l16.49 9.564c1.008.584 2.658.584 3.665 0l16.49-9.565c1.01-.585 1.833-2.02 1.833-3.19v-1.342c-.697-.004-1.716-.127-2.687-.69z"/>
    </g>
    <g transform="translate(40 803)">
      <rect fill="#FF8A13" width="64" height="65" rx="32"/>
      <g fill="#FFF4E8">
        <path d="M44.24 29.794v-8.197c0-.5-.35-1.116-.778-1.366l-7.02-4.098c-.428-.25-1.13-.25-1.56 0l-7.018 4.098c-.43.25-.78.866-.78 1.366v8.198c0 .5.35 1.116.78 1.367l7.02 4.1c.428.25 1.13.25 1.56 0l7.018-4.1c.428-.25.78-.865.78-1.366zM48.868 36.155l-4.164-2.432c-.255-.15-.67-.15-.925 0l-4.165 2.43c-.255.15-.463.515-.463.812v4.863c0 .298.208.663.463.81l4.164 2.433c.253.15.67.15.924 0l4.164-2.43c.255-.15.463-.514.463-.812v-4.863c0-.297-.207-.662-.462-.81z"/>
        <path d="M34.134 36.573l-7.02-4.1c-.886-.518-1.528-1.644-1.53-2.678v-8.198c0-.51.16-1.044.424-1.515l-.652-.382c-.566-.33-1.492-.33-2.058 0l-9.257 5.407c-.565.33-1.028 1.14-1.028 1.802V37.72c0 .66.463 1.47 1.03 1.802l9.257 5.406c.564.33 1.49.33 2.056 0l9.258-5.406c.566-.33 1.028-1.142 1.028-1.802v-.76c-.39-.002-.963-.07-1.508-.39z"/>
      </g>
    </g>
    <g transform="translate(40 1028)">
      <rect fill="#FF8A13" width="64" height="65" rx="32"/>
      <g fill="#FFF4E8">
        <path d="M44.24 29.794v-8.197c0-.5-.35-1.116-.778-1.366l-7.02-4.098c-.428-.25-1.13-.25-1.56 0l-7.018 4.098c-.43.25-.78.866-.78 1.366v8.198c0 .5.35 1.116.78 1.367l7.02 4.1c.428.25 1.13.25 1.56 0l7.018-4.1c.428-.25.78-.865.78-1.366zM48.868 36.155l-4.164-2.432c-.255-.15-.67-.15-.925 0l-4.165 2.43c-.255.15-.463.515-.463.812v4.863c0 .298.208.663.463.81l4.164 2.433c.253.15.67.15.924 0l4.164-2.43c.255-.15.463-.514.463-.812v-4.863c0-.297-.207-.662-.462-.81z"/>
        <path d="M34.134 36.573l-7.02-4.1c-.886-.518-1.528-1.644-1.53-2.678v-8.198c0-.51.16-1.044.424-1.515l-.652-.382c-.566-.33-1.492-.33-2.058 0l-9.257 5.407c-.565.33-1.028 1.14-1.028 1.802V37.72c0 .66.463 1.47 1.03 1.802l9.257 5.406c.564.33 1.49.33 2.056 0l9.258-5.406c.566-.33 1.028-1.142 1.028-1.802v-.76c-.39-.002-.963-.07-1.508-.39z"/>
      </g>
    </g>
    <path d="M207 148h408.503" stroke="#FF9A32" stroke-width="11" stroke-linecap="square"/>
    <text font-family="WebnarW00-BoldItalic" font-size="72" font-style="italic" font-weight="bold" letter-spacing="1.05" fill="#FFF4E8">
      <tspan x="195" y="118">THUMO</tspan> <tspan x="446.85" y="118">S</tspan>
    </text>
  </g>
</svg>
