<?xml version="1.0" encoding="utf-8"?>
<!-- Generator: Adobe Illustrator 16.0.0, SVG Export Plug-In . SVG Version: 6.00 Build 0)  -->
<!DOCTYPE svg PUBLIC "-//W3C//DTD SVG 1.1//EN" "http://www.w3.org/Graphics/SVG/1.1/DTD/svg11.dtd">
<svg version="1.1" id="Layer_1" xmlns="http://www.w3.org/2000/svg" xmlns:xlink="http://www.w3.org/1999/xlink" x="0px" y="0px"
	 width="737.762px" height="696px" viewBox="0 0 737.762 696" enable-background="new 0 0 737.762 696" xml:space="preserve">
<linearGradient id="SVGID_1_" gradientUnits="userSpaceOnUse" x1="-128.4697" y1="-287.3521" x2="810.2876" y2="755.2311">
	<stop  offset="0" style="stop-color:#5548BB"/>
	<stop  offset="1" style="stop-color:#36299C"/>
</linearGradient>
<rect x="-123.238" y="-279" display="none" fill="url(#SVGID_1_)" width="923" height="1020"/>
<g>
	<g>
		<line fill="none" stroke="#FFBC00" stroke-width="10" stroke-miterlimit="10" x1="358.762" y1="184" x2="358.762" y2="174"/>
		
			<line fill="none" stroke="#FFBC00" stroke-width="10" stroke-miterlimit="10" stroke-dasharray="20,20" x1="358.762" y1="154" x2="358.762" y2="41"/>
		<line fill="none" stroke="#FFBC00" stroke-width="10" stroke-miterlimit="10" x1="358.762" y1="31" x2="358.762" y2="21"/>
	</g>
</g>
<g>
	<polygon fill="#98EFE8" points="148.262,327.836 219.762,369.162 219.762,509.233 147.323,550.76 76.762,509.233 76.762,368.934 	
		"/>
	<polygon fill="#D2F7F6" points="75.682,368.934 147.012,410.23 220.219,369.162 147.951,327.836 	"/>
	<polygon fill="#A1F7F0" points="146.762,550.76 146.762,410.23 219.762,369.162 219.762,509.233 	"/>
</g>
<g>
	<g>
		<polygon fill="#98EFE8" points="253.762,317.432 325.762,358.758 325.762,570.644 252.824,612.169 181.762,570.644 
			181.762,358.53 		"/>
		<polygon fill="#D2F7F6" points="181.438,358.53 252.769,399.827 325.976,358.758 253.707,317.432 		"/>
		<polygon fill="#A1F7F0" points="251.762,612.169 251.762,399.827 325.762,358.758 325.762,570.644 		"/>
	</g>
	<g>
		<g enable-background="new    ">
			<defs>
				<polygon id="SVGID_2_" enable-background="new    " points="116.438,369.866 145.975,351.652 174.443,368.088 144.906,386.302 
									"/>
			</defs>
			<clipPath id="SVGID_3_">
				<use xlink:href="#SVGID_2_"  overflow="visible"/>
			</clipPath>
		</g>
	</g>
</g>
<g>
	<polyline fill="#98EFE8" points="174.443,368.088 167.344,363.989 139.513,372.632 153.146,355.792 145.975,351.652 
		116.438,369.866 120.921,372.455 145.452,357.328 145.523,357.37 129.023,377.133 132.313,379.032 164.874,368.542 
		164.952,368.587 140.421,383.713 144.906,386.302 174.443,368.088 	"/>
	<polygon fill="#98EFE8" points="574.762,231.374 646.762,272.699 646.762,504.933 573.824,546.457 502.762,504.933 
		502.762,272.472 	"/>
	<polygon fill="#D2F7F6" points="502.933,272.472 574.263,313.769 647.471,272.699 575.202,231.374 	"/>
	<polygon fill="#A1F7F0" points="573.762,546.457 573.762,313.769 646.762,272.699 646.762,504.933 	"/>
</g>
<g>
	<polygon fill="#98EFE8" points="463.762,215.665 536.762,256.992 536.762,571.878 462.824,613.402 390.762,571.878 
		390.762,256.764 	"/>
	<polygon fill="#D2F7F6" points="391.183,256.764 462.513,298.06 535.721,256.992 463.452,215.665 	"/>
	<polygon fill="#A1F7F0" points="462.762,613.402 462.762,298.06 536.762,256.992 536.762,571.878 	"/>
</g>
<g>
	<polygon fill="#98EFE8" points="359.262,177.13 431.762,218.456 431.762,630.698 358.324,672.225 286.762,630.698 286.762,218.229 
			"/>
	<polygon fill="#D2F7F6" points="287.311,218.229 358.641,259.526 431.849,218.456 359.58,177.13 	"/>
	<polygon fill="#A1F7F0" points="358.762,672.225 358.762,259.526 431.762,218.456 431.762,630.698 	"/>
</g>
<g>
	<g enable-background="new    ">
		<defs>
			<polygon id="SVGID_4_" enable-background="new    " points="226.186,358.769 255.723,340.556 276.645,352.635 247.107,370.848 
							"/>
		</defs>
		<clipPath id="SVGID_5_">
			<use xlink:href="#SVGID_4_"  overflow="visible"/>
		</clipPath>
	</g>
</g>
<g>
	<polyline fill="#98EFE8" points="276.645,352.635 255.723,340.556 250.962,343.491 259.07,348.173 234.294,363.45 238.999,366.167 
		263.775,350.889 271.883,355.57 276.645,352.635 	"/>
</g>
<g>
	<g>
		<polyline fill="#98EFE8" points="572.48,257.851 555.41,267.706 584.948,285.92 589.652,283.204 577.39,275.643 589.045,268.914 
			584.285,265.978 572.629,272.707 564.869,267.921 577.235,260.782 572.48,257.851 		"/>
	</g>
	<g>
		<g enable-background="new    ">
			<defs>
				<polygon id="SVGID_6_" enable-background="new    " points="368.028,651.854 367.337,627.98 423.486,595.563 424.177,619.437 
									"/>
			</defs>
			<clipPath id="SVGID_7_">
				<use xlink:href="#SVGID_6_"  overflow="visible"/>
			</clipPath>
		</g>
	</g>
	<g>
		<g enable-background="new    ">
			<defs>
				<polygon id="SVGID_8_" enable-background="new    " points="475.793,589.677 475.102,565.804 530.642,533.738 531.333,557.611 
									"/>
			</defs>
			<clipPath id="SVGID_9_">
				<use xlink:href="#SVGID_8_"  overflow="visible"/>
			</clipPath>
			<g clip-path="url(#SVGID_9_)">
				<path fill="#FFBC00" d="M481.129,562.627c-0.782,0.451-1.513,1.017-2.173,1.676c-0.661,0.668-1.24,1.416-1.732,2.25
					c-0.492,0.825-0.884,1.737-1.184,2.729c-0.293,0.989-0.463,2.027-0.499,3.122l3.108-1.468c0.068-1.003,0.333-1.92,0.794-2.752
					c0.456-0.828,1.057-1.462,1.791-1.886c0.346-0.2,0.67-0.315,0.979-0.351c0.303-0.039,0.577,0.009,0.812,0.136
					c0.24,0.125,0.434,0.323,0.582,0.612c0.148,0.288,0.232,0.662,0.246,1.132c0.011,0.391-0.038,0.794-0.141,1.211
					c-0.103,0.427-0.236,0.847-0.4,1.267c-0.164,0.421-0.346,0.837-0.553,1.251c-0.2,0.41-0.396,0.801-0.585,1.174l-6.511,12.469
					l0.119,4.095l11.643-6.722l-0.101-3.477l-8.054,4.65l5.19-9.645c0.755-1.399,1.371-2.766,1.842-4.097
					c0.465-1.328,0.68-2.71,0.639-4.15c-0.032-1.097-0.203-1.969-0.525-2.611c-0.316-0.652-0.736-1.088-1.258-1.318
					c-0.523-0.24-1.132-0.287-1.82-0.168C482.655,561.881,481.917,562.172,481.129,562.627"/>
				<path fill="#FFBC00" d="M492.374,574.866c-0.543,0.313-0.996,0.83-1.37,1.548c-0.368,0.713-0.542,1.41-0.522,2.1
					c0.01,0.345,0.073,0.635,0.183,0.873c0.116,0.243,0.267,0.42,0.452,0.527c0.192,0.112,0.405,0.156,0.642,0.155
					c0.243-0.013,0.495-0.087,0.758-0.239c0.538-0.31,0.996-0.83,1.364-1.543c0.374-0.718,0.548-1.423,0.528-2.104
					c-0.02-0.689-0.233-1.155-0.642-1.397C493.36,574.536,492.899,574.562,492.374,574.866"/>
				<path fill="#FFBC00" d="M503.319,570.052c-0.848,0.489-1.556,0.556-2.125,0.199c-0.569-0.364-0.869-1.09-0.901-2.186
					c-0.015-0.518,0.049-1.032,0.191-1.568c0.143-0.527,0.34-1.032,0.594-1.505s0.557-0.895,0.91-1.273
					c0.353-0.379,0.733-0.687,1.121-0.91c0.394-0.228,0.772-0.358,1.142-0.396c0.363-0.034,0.681,0.029,0.953,0.198
					s0.493,0.433,0.66,0.781c0.168,0.356,0.26,0.781,0.274,1.299c0.032,1.096-0.217,2.139-0.747,3.138
					C504.862,568.818,504.173,569.559,503.319,570.052 M503.02,559.716c-0.734,0.424-1.322,0.452-1.77,0.091
					c-0.442-0.375-0.678-1.002-0.705-1.91c-0.025-0.854,0.163-1.702,0.563-2.547c0.4-0.844,0.977-1.479,1.729-1.913
					c0.692-0.399,1.268-0.43,1.733-0.086c0.471,0.341,0.713,0.941,0.738,1.796c0.013,0.453-0.034,0.911-0.143,1.363
					c-0.114,0.456-0.277,0.9-0.49,1.318c-0.212,0.417-0.457,0.781-0.739,1.11C503.656,559.261,503.349,559.526,503.02,559.716
					 M502.743,550.147c-0.734,0.424-1.423,0.957-2.06,1.596c-0.643,0.649-1.193,1.357-1.662,2.138
					c-0.469,0.788-0.833,1.627-1.086,2.53c-0.259,0.905-0.372,1.839-0.344,2.801c0.036,1.222,0.282,2.179,0.744,2.843
					c0.457,0.676,1.138,0.928,2.032,0.762l0.001,0.062c-0.409,0.348-0.796,0.794-1.175,1.354c-0.373,0.551-0.701,1.154-0.979,1.808
					c-0.285,0.659-0.502,1.342-0.657,2.067c-0.149,0.723-0.219,1.44-0.199,2.145c0.033,1.136,0.217,2.041,0.552,2.714
					c0.334,0.668,0.773,1.138,1.316,1.414c0.542,0.276,1.169,0.359,1.895,0.235c0.719-0.12,1.487-0.421,2.305-0.893
					c0.806-0.466,1.56-1.044,2.274-1.751c0.714-0.707,1.323-1.504,1.832-2.387c0.502-0.879,0.9-1.832,1.186-2.858
					c0.292-1.035,0.418-2.12,0.385-3.255c-0.02-0.704-0.129-1.318-0.32-1.845c-0.186-0.53-0.434-0.943-0.747-1.257
					c-0.306-0.316-0.658-0.527-1.056-0.633c-0.392-0.115-0.799-0.104-1.208,0.021l-0.002-0.063c0.874-0.854,1.512-1.868,1.921-3.043
					c0.409-1.168,0.593-2.372,0.558-3.595c-0.028-0.962-0.19-1.736-0.493-2.318s-0.696-0.983-1.194-1.213
					c-0.498-0.223-1.077-0.278-1.729-0.18C504.18,549.453,503.483,549.721,502.743,550.147"/>
				<polyline fill="#FFBC00" points="521.333,539.112 518.676,548.416 512.282,553.357 517.111,556.62 516.256,565.655 
					521.891,558.366 527.761,559.013 526.419,551.246 530.899,542.608 524.432,545.093 521.333,539.112 				"/>
			</g>
		</g>
	</g>
	<g>
		<g enable-background="new    ">
			<defs>
				<polygon id="SVGID_10_" enable-background="new    " points="584.395,528.775 583.704,504.902 639.56,472.653 640.251,496.527 
									"/>
			</defs>
			<clipPath id="SVGID_11_">
				<use xlink:href="#SVGID_10_"  overflow="visible"/>
			</clipPath>
			<g clip-path="url(#SVGID_11_)">
				<path fill="#FFBC00" d="M589.557,501.817c-0.639,0.368-1.251,0.816-1.836,1.354c-0.58,0.533-1.114,1.145-1.593,1.818
					c-0.479,0.683-0.893,1.439-1.233,2.273c-0.34,0.825-0.6,1.715-0.772,2.666l3.155-0.706c0.186-0.912,0.508-1.727,0.961-2.435
					c0.459-0.71,0.978-1.24,1.569-1.582c0.733-0.424,1.339-0.487,1.814-0.196c0.477,0.298,0.724,0.888,0.749,1.765
					c0.021,0.688-0.059,1.293-0.244,1.813s-0.434,0.982-0.749,1.38c-0.311,0.402-0.671,0.745-1.068,1.046
					c-0.398,0.294-0.81,0.563-1.239,0.812l-0.759,0.438l0.101,3.477l0.711-0.411c0.441-0.255,0.896-0.47,1.359-0.649
					c0.456-0.175,0.878-0.253,1.25-0.22c0.377,0.037,0.692,0.214,0.938,0.541c0.253,0.323,0.39,0.851,0.411,1.586
					c0.015,0.532-0.048,1.07-0.19,1.599s-0.347,1.028-0.606,1.496c-0.26,0.469-0.563,0.882-0.911,1.259
					c-0.347,0.375-0.721,0.678-1.108,0.902c-0.788,0.455-1.416,0.555-1.892,0.305c-0.474-0.244-0.812-0.797-1.024-1.63l-3.108,2.909
					c0.224,0.826,0.534,1.475,0.93,1.931c0.396,0.464,0.859,0.754,1.386,0.889c0.532,0.131,1.114,0.112,1.759-0.053
					c0.645-0.166,1.329-0.449,2.051-0.866c0.765-0.441,1.506-1.021,2.209-1.721c0.702-0.7,1.316-1.493,1.843-2.377
					c0.521-0.875,0.931-1.827,1.229-2.852c0.291-1.021,0.425-2.076,0.394-3.173c-0.041-1.417-0.363-2.481-0.967-3.177
					c-0.603-0.701-1.463-0.834-2.586-0.408l-0.002-0.063c0.923-0.843,1.634-1.891,2.132-3.148c0.497-1.259,0.729-2.499,0.693-3.721
					c-0.029-1.01-0.211-1.805-0.531-2.4c-0.326-0.583-0.751-0.983-1.272-1.191c-0.522-0.216-1.125-0.258-1.801-0.131
					C591.03,501.103,590.309,501.383,589.557,501.817"/>
				<path fill="#FFBC00" d="M601.292,513.773c-0.542,0.313-0.995,0.83-1.363,1.545c-0.374,0.717-0.548,1.414-0.527,2.103
					c0.01,0.345,0.072,0.636,0.189,0.878c0.11,0.239,0.261,0.415,0.452,0.52c0.185,0.115,0.399,0.167,0.642,0.155
					c0.236-0.002,0.489-0.084,0.752-0.235c0.537-0.311,0.996-0.83,1.364-1.544c0.374-0.718,0.548-1.415,0.527-2.104
					c-0.02-0.689-0.234-1.154-0.642-1.397C602.284,513.44,601.818,513.471,601.292,513.773"/>
				<path fill="#FFBC00" d="M611.858,488.941c-0.781,0.451-1.507,1.014-2.173,1.684c-0.66,0.661-1.24,1.409-1.731,2.242
					c-0.492,0.834-0.885,1.736-1.184,2.73c-0.293,0.988-0.457,2.031-0.493,3.118l3.103-1.465c0.068-1.003,0.333-1.919,0.794-2.752
					c0.456-0.827,1.057-1.461,1.791-1.886c0.347-0.2,0.671-0.315,0.979-0.35c0.309-0.035,0.577,0.009,0.817,0.133
					c0.234,0.127,0.429,0.334,0.576,0.614c0.148,0.289,0.232,0.663,0.246,1.141c0.011,0.383-0.039,0.786-0.142,1.212
					c-0.104,0.417-0.236,0.837-0.4,1.258c-0.158,0.417-0.346,0.837-0.547,1.247c-0.207,0.414-0.401,0.812-0.591,1.177l-6.505,12.473
					l0.119,4.088l11.637-6.719l-0.101-3.477l-8.055,4.65l5.19-9.645c0.76-1.402,1.37-2.765,1.842-4.097
					c0.472-1.331,0.681-2.709,0.639-4.15c-0.031-1.096-0.203-1.968-0.524-2.61c-0.316-0.645-0.736-1.088-1.259-1.319
					s-1.132-0.286-1.813-0.163C613.384,488.196,612.647,488.486,611.858,488.941"/>
				<polyline fill="#FFBC00" points="630.251,478.027 627.595,487.331 621.2,492.265 626.03,495.526 625.174,504.562 
					630.809,497.273 636.68,497.92 635.337,490.152 639.816,481.517 633.351,484.008 630.251,478.027 				"/>
			</g>
		</g>
	</g>
	<g>
		<g enable-background="new    ">
			<defs>
				<polygon id="SVGID_12_" enable-background="new    " points="188.703,562.523 189.395,538.65 245.25,570.899 244.559,594.772 
									"/>
			</defs>
			<clipPath id="SVGID_13_">
				<use xlink:href="#SVGID_12_"  overflow="visible"/>
			</clipPath>
		</g>
	</g>
	<g>
		<g enable-background="new    ">
			<defs>
				<polygon id="SVGID_14_" enable-background="new    " points="85.104,504.61 85.796,480.737 141.336,512.803 140.644,536.676 
									"/>
			</defs>
			<clipPath id="SVGID_15_">
				<use xlink:href="#SVGID_14_"  overflow="visible"/>
			</clipPath>
			<g clip-path="url(#SVGID_15_)">
				<path fill="#FFBC00" d="M91.806,484.509c-0.788-0.455-1.521-0.734-2.198-0.838c-0.683-0.116-1.279-0.047-1.809,0.196
					c-0.523,0.24-0.955,0.675-1.294,1.3c-0.346,0.62-0.563,1.433-0.66,2.453l3.083,2.105c0.129-0.889,0.437-1.474,0.925-1.758
					c0.494-0.28,1.105-0.214,1.846,0.214c0.34,0.196,0.667,0.456,0.961,0.77c0.3,0.316,0.563,0.668,0.783,1.057
					c0.219,0.39,0.396,0.81,0.528,1.253c0.127,0.446,0.187,0.903,0.172,1.381c-0.011,0.384-0.081,0.718-0.205,1.013
					c-0.124,0.286-0.277,0.541-0.459,0.761c-0.183,0.222-0.383,0.417-0.606,0.583c-0.223,0.165-0.434,0.321-0.639,0.466
					l-7.001,4.676l-0.119,4.087l11.643,6.723l0.101-3.477l-8.055-4.65l5.569-3.433c0.809-0.496,1.483-1.117,2.009-1.873
					c0.532-0.752,0.818-1.845,0.86-3.284c0.032-1.098-0.09-2.139-0.359-3.122c-0.269-0.982-0.655-1.891-1.147-2.708
					c-0.493-0.818-1.072-1.559-1.745-2.226C93.319,485.519,92.588,484.961,91.806,484.509"/>
				<path fill="#FFBC00" d="M101.984,509.117c-0.543-0.313-1.017-0.332-1.413-0.059c-0.396,0.271-0.61,0.745-0.63,1.435
					c-0.01,0.345,0.034,0.697,0.133,1.056c0.099,0.367,0.234,0.709,0.408,1.023c0.172,0.322,0.377,0.616,0.612,0.88
					c0.235,0.271,0.484,0.478,0.747,0.63c0.538,0.31,1.004,0.324,1.407,0.056c0.396-0.272,0.61-0.746,0.63-1.436
					c0.02-0.688-0.16-1.382-0.541-2.079C102.956,509.918,102.503,509.417,101.984,509.117"/>
				<polyline fill="#FFBC00" points="132.027,507.429 128.928,513.417 122.462,510.925 126.941,519.562 125.599,527.329 
					131.47,526.683 137.104,533.972 136.249,524.937 141.079,521.674 134.684,516.74 132.027,507.429 				"/>
			</g>
		</g>
	</g>
</g>
<g>
	<path fill="#FFBC00" d="M370.773,641.624l4.086-11.729l0.047-0.027l0.267,9.216L370.773,641.624 M377.698,622.691l-3.344,1.931
		l-6.583,18.376l0.111,3.829l7.392-4.268l0.134,4.644l2.95-1.703l-0.135-4.643l2.525-1.459l-0.101-3.477l-2.525,1.458
		L377.698,622.691"/>
	<path fill="#FFBC00" d="M385.218,636.691c-0.543,0.313-0.996,0.829-1.363,1.544c-0.374,0.717-0.548,1.414-0.528,2.104
		c0.01,0.345,0.073,0.635,0.189,0.87c0.11,0.246,0.261,0.423,0.452,0.526c0.186,0.108,0.399,0.16,0.642,0.155
		c0.237-0.01,0.489-0.091,0.752-0.243c0.538-0.31,0.996-0.822,1.364-1.535c0.374-0.718,0.548-1.423,0.528-2.104
		c-0.02-0.688-0.233-1.154-0.642-1.404C386.21,636.357,385.744,636.388,385.218,636.691"/>
	<path fill="#FFBC00" d="M396.164,631.877c-0.848,0.489-1.556,0.556-2.125,0.199c-0.569-0.364-0.869-1.09-0.901-2.186
		c-0.015-0.518,0.049-1.04,0.191-1.568c0.143-0.528,0.341-1.032,0.594-1.505s0.557-0.902,0.91-1.281
		c0.36-0.375,0.733-0.679,1.122-0.902c0.394-0.228,0.773-0.358,1.142-0.404c0.363-0.034,0.681,0.037,0.953,0.206
		s0.492,0.433,0.66,0.781s0.26,0.781,0.274,1.299c0.032,1.096-0.217,2.139-0.747,3.138
		C397.707,630.644,397.018,631.384,396.164,631.877 M395.864,621.541c-0.734,0.424-1.322,0.452-1.77,0.082
		c-0.442-0.365-0.679-0.993-0.705-1.901c-0.024-0.854,0.164-1.71,0.564-2.547c0.4-0.844,0.977-1.487,1.729-1.922
		c0.693-0.399,1.269-0.421,1.734-0.077c0.471,0.333,0.719,0.938,0.744,1.792c0.013,0.453-0.041,0.907-0.149,1.367
		c-0.114,0.456-0.277,0.893-0.49,1.31s-0.457,0.79-0.739,1.119C396.5,621.086,396.193,621.352,395.864,621.541 M395.587,611.973
		c-0.734,0.424-1.423,0.957-2.061,1.596c-0.643,0.649-1.193,1.357-1.662,2.138c-0.469,0.788-0.833,1.627-1.086,2.529
		c-0.259,0.906-0.372,1.839-0.344,2.802c0.035,1.222,0.281,2.17,0.744,2.843c0.457,0.675,1.138,0.928,2.031,0.761l0.002,0.063
		c-0.409,0.348-0.797,0.794-1.175,1.354c-0.373,0.551-0.701,1.154-0.979,1.808c-0.285,0.659-0.501,1.341-0.656,2.067
		c-0.149,0.715-0.22,1.432-0.199,2.145c0.033,1.135,0.217,2.041,0.552,2.707c0.341,0.671,0.773,1.145,1.316,1.421
		c0.542,0.276,1.176,0.355,1.895,0.235s1.487-0.421,2.305-0.893c0.806-0.466,1.561-1.045,2.274-1.751
		c0.714-0.707,1.322-1.504,1.831-2.387c0.502-0.88,0.9-1.833,1.191-2.869c0.286-1.024,0.413-2.109,0.38-3.244
		c-0.021-0.713-0.13-1.326-0.315-1.849c-0.191-0.526-0.44-0.939-0.752-1.253c-0.307-0.316-0.659-0.527-1.05-0.636
		c-0.398-0.113-0.798-0.104-1.213,0.023l-0.002-0.062c0.874-0.854,1.512-1.868,1.921-3.043c0.409-1.177,0.593-2.373,0.558-3.595
		c-0.028-0.962-0.19-1.737-0.493-2.319c-0.296-0.585-0.696-0.982-1.194-1.212c-0.498-0.223-1.076-0.279-1.729-0.18
		C397.024,611.278,396.328,611.545,395.587,611.973"/>
	<polyline fill="#FFBC00" points="414.178,600.938 411.521,610.24 405.126,615.183 409.956,618.445 409.101,627.48 414.735,620.191 
		420.606,620.838 419.264,613.071 423.743,604.434 417.277,606.917 414.178,600.938 	"/>
</g>
<g>
	<path fill="#FFBC00" d="M195.231,542.315c-0.639-0.369-1.257-0.622-1.847-0.772c-0.597-0.146-1.149-0.162-1.65-0.046
		c-0.5,0.109-0.946,0.378-1.322,0.79c-0.376,0.42-0.678,0.985-0.899,1.71l3.091,2.898c0.232-0.678,0.59-1.1,1.069-1.27
		c0.484-0.166,1.017-0.082,1.607,0.26c0.734,0.424,1.324,1.042,1.767,1.872c0.443,0.82,0.649,1.672,0.624,2.549
		c-0.02,0.689-0.131,1.183-0.34,1.476c-0.209,0.294-0.475,0.459-0.803,0.483c-0.323,0.037-0.685-0.029-1.093-0.201
		c-0.402-0.168-0.815-0.374-1.239-0.619l-0.764-0.441l-0.101,3.484l0.711,0.41c0.441,0.256,0.895,0.557,1.352,0.908
		c0.451,0.349,0.864,0.754,1.221,1.215c0.363,0.456,0.657,0.992,0.883,1.592c0.219,0.597,0.322,1.261,0.301,1.989
		c-0.016,0.531-0.107,0.98-0.275,1.329s-0.394,0.602-0.671,0.759c-0.278,0.158-0.596,0.222-0.953,0.19
		c-0.357-0.031-0.729-0.159-1.124-0.387c-0.788-0.455-1.402-1.071-1.847-1.854s-0.74-1.693-0.892-2.744l-3.178-0.72
		c0.169,1.061,0.433,2.032,0.789,2.931c0.356,0.891,0.788,1.705,1.29,2.425c0.506,0.729,1.071,1.382,1.704,1.955
		c0.633,0.572,1.311,1.066,2.033,1.483c0.77,0.445,1.515,0.724,2.233,0.844c0.719,0.121,1.358,0.061,1.918-0.197
		c0.554-0.262,1.004-0.718,1.351-1.37c0.341-0.655,0.53-1.524,0.562-2.621c0.041-1.418-0.21-2.804-0.753-4.169
		c-0.543-1.364-1.367-2.469-2.477-3.332l0.001-0.063c0.946,0.244,1.693,0.037,2.24-0.617c0.553-0.651,0.848-1.597,0.883-2.818
		c0.029-1.01-0.094-1.98-0.377-2.916c-0.282-0.943-0.669-1.812-1.163-2.606c-0.493-0.802-1.073-1.519-1.734-2.163
		C196.696,543.296,195.984,542.749,195.231,542.315"/>
	<path fill="#FFBC00" d="M205.898,567.214c-0.537-0.311-1.01-0.337-1.406-0.063c-0.402,0.269-0.611,0.754-0.631,1.443
		c-0.01,0.336,0.035,0.696,0.133,1.056c0.093,0.355,0.229,0.696,0.408,1.022c0.173,0.315,0.377,0.608,0.612,0.872
		c0.229,0.267,0.478,0.475,0.741,0.626c0.543,0.313,1.01,0.336,1.413,0.06c0.396-0.272,0.604-0.749,0.624-1.438
		c0.02-0.682-0.16-1.382-0.541-2.08C206.877,568.018,206.424,567.517,205.898,567.214"/>
	<path fill="#FFBC00" d="M216.764,574.991c-0.74-0.427-1.323-1.058-1.748-1.893c-0.425-0.835-0.739-1.74-0.941-2.709
		c-0.208-0.973-0.332-1.943-0.377-2.916c-0.051-0.978-0.062-1.819-0.042-2.532c0.021-0.704,0.08-1.506,0.185-2.4
		c0.099-0.892,0.273-1.689,0.53-2.393c0.251-0.707,0.606-1.219,1.065-1.543c0.459-0.332,1.058-0.281,1.798,0.146
		c0.734,0.424,1.317,1.055,1.742,1.897c0.425,0.834,0.739,1.732,0.948,2.705c0.203,0.969,0.326,1.938,0.377,2.916
		c0.044,0.98,0.056,1.824,0.036,2.528c-0.021,0.713-0.081,1.514-0.179,2.404c-0.105,0.887-0.279,1.686-0.531,2.393
		c-0.257,0.703-0.612,1.223-1.071,1.547S217.499,575.415,216.764,574.991 M217.341,555.08c-0.329-0.189-0.711-0.363-1.15-0.529
		c-0.433-0.162-0.892-0.251-1.365-0.246c-0.474-0.003-0.945,0.131-1.408,0.397c-0.469,0.262-0.895,0.725-1.278,1.388
		c-0.383,0.662-0.708,1.573-0.965,2.723c-0.258,1.148-0.416,2.625-0.468,4.426c-0.053,1.809,0.016,3.409,0.2,4.812
		c0.184,1.412,0.445,2.653,0.778,3.73c0.333,1.075,0.719,2.007,1.157,2.793c0.433,0.791,0.881,1.448,1.339,1.991
		c0.458,0.535,0.907,0.969,1.334,1.304c0.434,0.338,0.814,0.604,1.143,0.794c0.323,0.187,0.706,0.36,1.145,0.526
		c0.438,0.165,0.891,0.252,1.364,0.254c0.474-0.005,0.945-0.131,1.414-0.401c0.463-0.266,0.889-0.729,1.272-1.391
		c0.384-0.663,0.707-1.566,0.965-2.724c0.258-1.148,0.416-2.617,0.468-4.426c0.052-1.802-0.017-3.409-0.201-4.812
		c-0.184-1.404-0.445-2.653-0.778-3.729c-0.333-1.076-0.719-2.008-1.151-2.791c-0.438-0.787-0.887-1.451-1.345-1.986
		c-0.458-0.542-0.901-0.974-1.334-1.312C218.044,555.533,217.664,555.267,217.341,555.08"/>
	<polyline fill="#FFBC00" points="235.942,565.525 232.843,571.506 226.377,569.021 230.862,577.653 229.52,585.421 
		235.385,584.779 241.025,592.063 240.17,583.027 244.994,579.77 238.599,574.829 235.942,565.525 	"/>
</g>
<path fill="#FFBC00" d="M113.127,496.819c-0.639-0.369-1.257-0.631-1.854-0.775c-0.597-0.146-1.142-0.167-1.644-0.05
	c-0.507,0.113-0.946,0.377-1.322,0.797c-0.382,0.409-0.678,0.979-0.899,1.702l3.085,2.896c0.238-0.667,0.596-1.089,1.075-1.259
	c0.478-0.177,1.016-0.089,1.601,0.249c0.741,0.427,1.33,1.054,1.773,1.875c0.438,0.825,0.649,1.68,0.624,2.558
	c-0.02,0.688-0.137,1.179-0.34,1.476c-0.209,0.293-0.48,0.455-0.803,0.483c-0.329,0.033-0.691-0.041-1.093-0.202
	c-0.402-0.168-0.821-0.377-1.244-0.622l-0.759-0.438l-0.101,3.477l0.71,0.41c0.442,0.255,0.888,0.56,1.346,0.911
	c0.457,0.353,0.864,0.754,1.228,1.211c0.363,0.464,0.651,0.989,0.876,1.588c0.226,0.601,0.328,1.265,0.307,1.993
	c-0.016,0.54-0.107,0.98-0.275,1.337c-0.168,0.349-0.394,0.602-0.671,0.759c-0.278,0.15-0.601,0.21-0.958,0.18
	c-0.357-0.031-0.73-0.159-1.124-0.387c-0.783-0.451-1.402-1.071-1.841-1.851c-0.445-0.774-0.746-1.696-0.898-2.739l-3.172-0.725
	c0.164,1.058,0.426,2.037,0.789,2.931c0.356,0.891,0.782,1.702,1.289,2.433c0.501,0.728,1.071,1.374,1.704,1.947
	c0.633,0.572,1.311,1.067,2.027,1.48c0.77,0.444,1.515,0.731,2.24,0.855c0.719,0.12,1.358,0.052,1.912-0.21
	c0.56-0.25,1.01-0.706,1.351-1.361c0.347-0.652,0.53-1.533,0.562-2.621c0.041-1.417-0.21-2.812-0.753-4.169
	c-0.543-1.364-1.367-2.477-2.471-3.329l0.001-0.063c0.94,0.233,1.687,0.026,2.24-0.625c0.553-0.651,0.847-1.588,0.882-2.81
	c0.029-1.011-0.1-1.993-0.382-2.929c-0.276-0.932-0.664-1.8-1.157-2.602c-0.493-0.795-1.073-1.519-1.734-2.164
	C114.586,497.797,113.88,497.254,113.127,496.819"/>
<g>
	<g enable-background="new    ">
		<defs>
			<polygon id="SVGID_16_" enable-background="new    " points="417.196,692.741 387.679,674.54 647.918,524.291 677.436,542.492 
							"/>
		</defs>
		<clipPath id="SVGID_17_">
			<use xlink:href="#SVGID_16_"  overflow="visible"/>
		</clipPath>
		<g clip-path="url(#SVGID_17_)">
			<path fill="#98EFE8" d="M410.045,684.34l-14.222-8.77l3.051-1.762c1.027-0.593,2.104-1.056,3.23-1.387
				c1.12-0.329,2.28-0.505,3.474-0.518c1.187-0.017,2.417,0.157,3.682,0.51c1.259,0.355,2.524,0.922,3.791,1.703
				c1.281,0.79,2.171,1.581,2.677,2.363c0.501,0.787,0.684,1.549,0.558,2.298c-0.126,0.742-0.525,1.466-1.183,2.164
				c-0.665,0.702-1.517,1.353-2.562,1.956L410.045,684.34 M396.502,671.142l-7.403,4.274l20.983,12.938l7.009-4.047
				c1.128-0.651,2.067-1.448,2.823-2.394c0.756-0.938,1.179-1.954,1.286-3.035c0.107-1.089-0.191-2.215-0.896-3.376
				c-0.704-1.161-1.96-2.3-3.754-3.405c-1.78-1.098-3.589-1.899-5.435-2.403c-1.845-0.503-3.649-0.767-5.399-0.791
				c-1.75-0.024-3.412,0.162-4.991,0.564C399.152,669.866,397.744,670.425,396.502,671.142"/>
			<path fill="#98EFE8" d="M432.183,672.832c-0.263,0.152-0.565,0.287-0.894,0.397c-0.343,0.109-0.694,0.178-1.057,0.204
				c-0.375,0.025-0.742,0.006-1.1-0.058c-0.358-0.064-0.704-0.199-1.043-0.409c-0.514-0.316-0.747-0.659-0.699-1.029
				c0.047-0.37,0.246-0.739,0.589-1.112c0.33-0.374,0.756-0.731,1.266-1.073c0.509-0.342,0.984-0.641,1.426-0.896l0.663-0.383
				l0.8,0.494c1.014,0.625,1.544,1.266,1.605,1.923C433.801,671.557,433.281,672.198,432.183,672.832 M420.739,664.792
				c-1.009,0.583-1.809,1.259-2.398,2.021c-0.589,0.771-0.834,1.604-0.73,2.516l3.539,0.186c-0.037-0.528,0.111-1.043,0.424-1.542
				c0.318-0.503,0.812-0.947,1.487-1.336c0.848-0.49,1.772-0.754,2.763-0.799c0.996-0.042,1.938,0.211,2.823,0.757l0.387,0.239
				l-0.794,0.458c-0.531,0.307-1.085,0.643-1.654,1.012c-0.577,0.364-1.101,0.755-1.585,1.161c-0.484,0.407-0.891,0.841-1.221,1.286
				c-0.33,0.453-0.52,0.913-0.578,1.376c-0.045,0.465,0.074,0.938,0.375,1.415c0.29,0.479,0.824,0.958,1.591,1.431
				c0.713,0.439,1.471,0.742,2.268,0.92c0.796,0.178,1.595,0.249,2.384,0.216c0.79-0.026,1.552-0.148,2.281-0.361
				c0.741-0.213,1.396-0.487,1.98-0.825c0.848-0.489,1.45-1.052,1.788-1.685c0.344-0.637,0.342-1.337-0.005-2.1l0.078-0.045
				l1.954,1.205l2.866-1.654l-8.181-5.045c-0.333-0.206-0.739-0.441-1.197-0.702c-0.458-0.269-0.978-0.518-1.547-0.755
				c-0.575-0.233-1.197-0.432-1.884-0.592c-0.693-0.156-1.41-0.229-2.17-0.212c-0.766,0.012-1.566,0.132-2.42,0.347
				C422.511,663.903,421.64,664.271,420.739,664.792"/>
			<path fill="#98EFE8" d="M433.195,658.029l-3.183,1.838l14.222,8.77l3.183-1.837L433.195,658.029 M424.609,654.668
				c-0.579,0.334-0.849,0.745-0.805,1.229c0.045,0.483,0.353,0.895,0.927,1.249c0.573,0.353,1.259,0.555,2.067,0.597
				c0.802,0.039,1.5-0.109,2.079-0.443c0.585-0.338,0.875-0.744,0.868-1.226c-0.007-0.481-0.316-0.908-0.93-1.286
				s-1.318-0.577-2.124-0.597C425.891,654.174,425.194,654.33,424.609,654.668"/>
			<polyline fill="#98EFE8" points="431.916,649 428.733,650.837 451.137,664.652 454.319,662.814 431.916,649 			"/>
			<path fill="#98EFE8" d="M455.645,645.068l-3.314,1.913l6.686,7.923l-0.054,0.03l-13.427-4.03l-3.505,2.023l19.782,5.703
				l1.078,1.393c0.236,0.31,0.425,0.59,0.572,0.823c0.142,0.237,0.199,0.458,0.182,0.668c-0.013,0.214-0.119,0.418-0.302,0.619
				c-0.188,0.205-0.477,0.419-0.865,0.644c-0.28,0.162-0.601,0.299-0.943,0.416c-0.341,0.118-0.691,0.216-1.036,0.296l2.801,2.204
				c1.04-0.313,1.972-0.709,2.802-1.188c0.711-0.41,1.228-0.812,1.568-1.208c0.335-0.392,0.511-0.805,0.54-1.235
				c0.024-0.428-0.074-0.873-0.306-1.344c-0.225-0.467-0.567-0.978-1.002-1.523L455.645,645.068"/>
			<path fill="#98EFE8" d="M481.859,644.152c-0.269,0.154-0.564,0.286-0.894,0.396c-0.342,0.109-0.694,0.178-1.056,0.204
				c-0.375,0.025-0.742,0.006-1.1-0.058c-0.358-0.064-0.704-0.199-1.043-0.408c-0.514-0.317-0.747-0.66-0.699-1.03
				c0.047-0.37,0.246-0.739,0.589-1.112c0.33-0.374,0.756-0.731,1.266-1.073c0.509-0.342,0.978-0.637,1.426-0.896l0.663-0.383
				l0.8,0.493c1.014,0.625,1.544,1.267,1.605,1.924C483.477,642.876,482.958,643.518,481.859,644.152 M470.415,636.111
				c-1.009,0.582-1.809,1.259-2.398,2.021c-0.589,0.771-0.84,1.606-0.73,2.516l3.539,0.186c-0.036-0.528,0.111-1.043,0.424-1.542
				c0.318-0.503,0.812-0.947,1.487-1.337c0.848-0.489,1.773-0.753,2.762-0.798c0.996-0.042,1.938,0.211,2.824,0.757l0.387,0.239
				l-0.8,0.462c-0.525,0.303-1.08,0.639-1.648,1.008c-0.577,0.364-1.101,0.754-1.585,1.161c-0.484,0.407-0.891,0.841-1.227,1.29
				c-0.33,0.452-0.513,0.909-0.572,1.372c-0.051,0.468,0.074,0.938,0.37,1.419c0.296,0.475,0.83,0.953,1.597,1.427
				c0.713,0.439,1.465,0.746,2.268,0.92c0.796,0.178,1.595,0.249,2.378,0.219c0.796-0.029,1.558-0.151,2.287-0.364
				c0.741-0.213,1.395-0.487,1.98-0.825c0.848-0.489,1.449-1.052,1.787-1.685c0.344-0.637,0.336-1.333-0.011-2.096l0.084-0.049
				l1.953,1.205l2.866-1.654l-8.181-5.045c-0.333-0.206-0.738-0.441-1.196-0.702c-0.464-0.266-0.979-0.519-1.548-0.755
				c-0.575-0.233-1.203-0.428-1.89-0.588s-1.404-0.232-2.165-0.216c-0.766,0.013-1.566,0.132-2.42,0.347
				C472.188,635.223,471.316,635.591,470.415,636.111"/>
			<polyline fill="#98EFE8" points="491.522,624.354 488.263,626.236 494.791,634.354 494.737,634.385 481.384,630.207 
				477.909,632.214 497.332,637.98 500.729,636.02 491.522,624.354 			"/>
			<path fill="#98EFE8" d="M501.641,625.304c-0.902-0.706-1.382-1.408-1.434-2.11c-0.059-0.699,0.393-1.326,1.349-1.877
				c1.003-0.58,2.098-0.846,3.265-0.803c1.168,0.042,2.287,0.384,3.352,1.019L501.641,625.304 M499.337,619.413
				c-0.956,0.552-1.677,1.183-2.171,1.891c-0.494,0.715-0.728,1.447-0.69,2.205c0.032,0.762,0.33,1.529,0.879,2.303
				c0.556,0.777,1.397,1.51,2.524,2.205c1.126,0.694,2.333,1.225,3.61,1.577c1.285,0.357,2.561,0.56,3.835,0.604
				c1.262,0.043,2.503-0.068,3.71-0.343c1.208-0.268,2.283-0.682,3.239-1.232c1.009-0.583,1.757-1.27,2.249-2.071
				c0.479-0.803,0.583-1.729,0.295-2.79l-4.208,0.129c0.148,0.575,0.136,1.131-0.048,1.667c-0.17,0.536-0.652,1.037-1.446,1.496
				c-0.902,0.521-1.972,0.78-3.205,0.783c-1.232,0.003-2.429-0.293-3.603-0.889l9.714-5.608l-0.98-0.604
				c-1.24-0.765-2.483-1.361-3.736-1.784c-1.252-0.423-2.465-0.686-3.638-0.781c-1.172-0.104-2.299-0.049-3.381,0.16
				C501.206,618.541,500.221,618.903,499.337,619.413"/>
			<path fill="#98EFE8" d="M515.285,610.206c-0.848,0.489-1.374,1.062-1.57,1.726c-0.197,0.656-0.065,1.344,0.41,2.057l-0.054,0.031
				l-2.247-1.386l-3.183,1.837l14.222,8.77l3.183-1.837l-7.615-4.695c-0.2-0.123-0.452-0.328-0.774-0.62
				c-0.31-0.29-0.548-0.623-0.703-1.003c-0.161-0.385-0.162-0.799-0.015-1.25c0.142-0.447,0.585-0.887,1.325-1.314
				c0.251-0.145,0.529-0.272,0.832-0.392c0.31-0.116,0.632-0.23,0.976-0.333l-3.441-2.122c-0.244,0.078-0.488,0.155-0.713,0.238
				C515.692,609.994,515.482,610.092,515.285,610.206"/>
			<path fill="#98EFE8" d="M535.434,613.22c-0.263,0.152-0.564,0.287-0.894,0.397c-0.342,0.109-0.694,0.178-1.056,0.204
				c-0.375,0.025-0.742,0.006-1.1-0.059c-0.358-0.063-0.704-0.198-1.044-0.407c-0.514-0.317-0.746-0.66-0.698-1.03
				c0.047-0.37,0.246-0.739,0.589-1.112c0.33-0.374,0.756-0.731,1.266-1.073c0.508-0.342,0.984-0.641,1.426-0.896l0.663-0.383
				l0.8,0.493c1.014,0.625,1.544,1.267,1.605,1.924C537.052,611.943,536.533,612.586,535.434,613.22 M523.99,605.18
				c-1.009,0.582-1.809,1.259-2.398,2.021c-0.589,0.771-0.833,1.604-0.73,2.516l3.539,0.186c-0.036-0.528,0.112-1.043,0.43-1.546
				c0.312-0.499,0.812-0.946,1.481-1.333c0.848-0.489,1.773-0.753,2.763-0.798c0.996-0.042,1.938,0.211,2.824,0.757l0.387,0.239
				l-0.794,0.458c-0.531,0.307-1.085,0.643-1.654,1.012c-0.577,0.364-1.101,0.754-1.585,1.161c-0.484,0.407-0.891,0.841-1.22,1.286
				c-0.33,0.453-0.52,0.913-0.578,1.376c-0.045,0.464,0.074,0.937,0.375,1.415c0.29,0.479,0.83,0.954,1.597,1.427
				c0.713,0.44,1.465,0.746,2.262,0.924c0.802,0.174,1.594,0.249,2.384,0.216c0.791-0.026,1.552-0.148,2.287-0.365
				c0.735-0.21,1.39-0.483,1.975-0.821c0.848-0.489,1.45-1.052,1.788-1.685c0.343-0.637,0.342-1.337-0.005-2.1l0.078-0.045
				l1.953,1.205l2.866-1.655l-8.181-5.044c-0.333-0.206-0.739-0.441-1.191-0.706c-0.464-0.265-0.984-0.515-1.553-0.751
				c-0.575-0.233-1.197-0.432-1.884-0.592s-1.411-0.229-2.17-0.212c-0.767,0.013-1.566,0.132-2.42,0.347
				C525.763,604.291,524.892,604.659,523.99,605.18"/>
			<path fill="#98EFE8" d="M550.705,603.56c-0.531,0.307-1.14,0.523-1.812,0.657c-0.681,0.129-1.374,0.18-2.088,0.139
				c-0.714-0.034-1.404-0.153-2.083-0.351c-0.678-0.197-1.307-0.472-1.88-0.824c-0.634-0.392-1.119-0.804-1.454-1.231
				c-0.341-0.432-0.525-0.852-0.569-1.264c-0.039-0.416,0.069-0.82,0.321-1.213c0.254-0.393,0.661-0.755,1.228-1.083
				c1.17-0.676,2.477-0.968,3.919-0.877c1.441,0.084,2.782,0.512,4.029,1.28c0.593,0.366,1.058,0.759,1.397,1.175
				c0.334,0.421,0.523,0.837,0.562,1.252c0.038,0.416-0.07,0.82-0.321,1.229C551.703,602.849,551.284,603.226,550.705,603.56
				 M538.505,596.8c-0.991,0.572-1.675,1.197-2.059,1.881c-0.384,0.683-0.52,1.391-0.39,2.12c0.117,0.728,0.493,1.458,1.119,2.18
				c0.627,0.729,1.464,1.408,2.511,2.054c1.006,0.62,2.109,1.122,3.294,1.497c1.191,0.37,2.39,0.604,3.604,0.682
				c1.202,0.078,2.392,0.014,3.554-0.196c1.169-0.213,2.229-0.594,3.184-1.146c0.794-0.459,1.402-1.018,1.814-1.669
				c0.411-0.651,0.506-1.327,0.279-2.016l0.048-0.028l1.033,0.638c0.714,0.439,1.294,0.877,1.743,1.31
				c0.456,0.438,0.729,0.87,0.838,1.309c0.103,0.434,0.018,0.873-0.275,1.32c-0.278,0.448-0.804,0.895-1.562,1.332
				c-0.902,0.521-1.876,0.868-2.922,1.051c-1.053,0.178-2.216,0.252-3.501,0.214l0.996,2.896c1.787,0.026,3.38-0.16,4.776-0.568
				s2.691-0.949,3.874-1.633c1.242-0.717,2.11-1.457,2.619-2.22c0.508-0.764,0.694-1.54,0.571-2.328
				c-0.136-0.79-0.573-1.58-1.326-2.387c-0.753-0.799-1.777-1.602-3.057-2.391l-12.949-7.984l-3.027,1.748l2.134,1.315l-0.054,0.03
				c-1.333-0.272-2.587-0.305-3.757-0.099C540.448,595.916,539.407,596.279,538.505,596.8"/>
			<path fill="#98EFE8" d="M558.166,592.669c-0.901-0.706-1.381-1.408-1.439-2.106c-0.058-0.699,0.394-1.326,1.349-1.878
				c1.009-0.582,2.104-0.849,3.271-0.806c1.162,0.046,2.281,0.387,3.347,1.022L558.166,592.669 M555.862,586.778
				c-0.955,0.552-1.684,1.187-2.178,1.894c-0.487,0.712-0.722,1.444-0.689,2.206c0.038,0.758,0.33,1.529,0.885,2.299
				c0.556,0.777,1.397,1.51,2.524,2.205c1.126,0.694,2.332,1.225,3.609,1.577c1.279,0.361,2.561,0.56,3.829,0.607
				c1.268,0.041,2.51-0.07,3.71-0.343c1.209-0.268,2.29-0.685,3.245-1.235c1.003-0.579,1.757-1.27,2.243-2.067
				c0.479-0.803,0.582-1.729,0.302-2.794l-4.208,0.129c0.142,0.579,0.13,1.135-0.048,1.667c-0.177,0.54-0.652,1.038-1.453,1.5
				c-0.901,0.52-1.971,0.78-3.197,0.779c-1.232,0.003-2.429-0.293-3.604-0.889l9.714-5.608l-0.979-0.604
				c-1.24-0.765-2.49-1.357-3.743-1.78c-1.252-0.424-2.465-0.687-3.631-0.785c-1.179-0.1-2.306-0.046-3.388,0.164
				C557.724,585.909,556.746,586.269,555.862,586.778"/>
			<path fill="#98EFE8" d="M579.661,573.038c-0.848,0.489-1.373,1.063-1.57,1.727c-0.196,0.655-0.064,1.343,0.41,2.056l-0.054,0.031
				l-2.247-1.386l-3.183,1.837l14.223,8.771l3.182-1.838l-7.614-4.695c-0.199-0.123-0.452-0.328-0.774-0.62
				c-0.315-0.287-0.547-0.622-0.702-1.003c-0.161-0.385-0.161-0.799-0.021-1.246c0.147-0.451,0.591-0.891,1.331-1.318
				c0.251-0.145,0.528-0.272,0.832-0.392c0.31-0.115,0.633-0.23,0.976-0.332l-3.441-2.122c-0.244,0.077-0.487,0.154-0.713,0.237
				C580.069,572.826,579.858,572.924,579.661,573.038"/>
			<path fill="#98EFE8" d="M599.81,576.053c-0.262,0.151-0.564,0.286-0.894,0.396c-0.342,0.109-0.694,0.178-1.057,0.204
				c-0.375,0.025-0.741,0.006-1.1-0.058c-0.357-0.064-0.703-0.199-1.043-0.408c-0.514-0.317-0.747-0.66-0.699-1.03
				c0.047-0.37,0.246-0.739,0.59-1.112c0.33-0.373,0.756-0.731,1.266-1.073c0.509-0.342,0.983-0.64,1.426-0.896l0.662-0.382
				l0.801,0.493c1.014,0.625,1.545,1.266,1.605,1.924C601.428,574.776,600.909,575.418,599.81,576.053 M588.367,568.012
				c-1.009,0.582-1.81,1.259-2.398,2.021c-0.589,0.771-0.834,1.604-0.73,2.516l3.539,0.186c-0.037-0.528,0.111-1.043,0.429-1.545
				c0.312-0.5,0.812-0.947,1.481-1.333c0.848-0.489,1.772-0.753,2.763-0.799c0.995-0.042,1.938,0.211,2.823,0.757l0.388,0.239
				l-0.795,0.458c-0.531,0.308-1.085,0.643-1.654,1.012c-0.577,0.364-1.101,0.755-1.585,1.161c-0.483,0.407-0.891,0.841-1.221,1.286
				c-0.329,0.453-0.519,0.913-0.577,1.376c-0.045,0.465,0.074,0.938,0.375,1.415c0.29,0.479,0.83,0.954,1.598,1.427
				c0.713,0.44,1.464,0.747,2.261,0.924c0.802,0.174,1.595,0.249,2.385,0.216c0.789-0.025,1.552-0.147,2.287-0.365
				c0.735-0.209,1.389-0.483,1.974-0.82c0.848-0.49,1.45-1.053,1.788-1.686c0.343-0.637,0.342-1.336-0.005-2.099l0.077-0.045
				l1.954,1.204l2.865-1.654l-8.181-5.045c-0.334-0.206-0.733-0.445-1.19-0.706c-0.465-0.265-0.984-0.514-1.554-0.751
				c-0.575-0.233-1.197-0.432-1.885-0.592s-1.41-0.229-2.17-0.212c-0.767,0.013-1.566,0.132-2.42,0.347
				C590.139,567.123,589.268,567.491,588.367,568.012"/>
			<path fill="#98EFE8" d="M597.795,558.078l-3.188,1.841l4.12,2.54l-2.627,1.518l3.021,1.862l2.627-1.517l6.521,4.021
				c0.827,0.51,1.62,0.928,2.367,1.253s1.488,0.525,2.219,0.605c0.737,0.084,1.481,0.037,2.226-0.146
				c0.75-0.187,1.543-0.524,2.392-1.015c0.369-0.213,0.766-0.482,1.188-0.807c0.411-0.324,0.702-0.636,0.856-0.94l-2.993-1.846
				c-0.031,0.209-0.187,0.435-0.454,0.668c-0.261,0.239-0.538,0.438-0.825,0.604c-0.704,0.406-1.383,0.551-2.035,0.435
				c-0.659-0.121-1.338-0.397-2.052-0.838l-6.221-3.836l3.499-2.021l-3.021-1.862l-3.499,2.021L597.795,558.078"/>
			<path fill="#98EFE8" d="M611.176,555.272l-3.188,1.841l14.222,8.77l3.188-1.841L611.176,555.272 M602.591,551.91
				c-0.586,0.338-0.855,0.749-0.812,1.232c0.051,0.479,0.353,0.895,0.927,1.248c0.573,0.354,1.265,0.552,2.066,0.598
				c0.803,0.039,1.499-0.109,2.085-0.447c0.579-0.334,0.875-0.744,0.861-1.222c-0.006-0.481-0.315-0.908-0.93-1.286
				c-0.613-0.378-1.317-0.577-2.124-0.598C603.872,551.417,603.17,551.576,602.591,551.91"/>
			<path fill="#98EFE8" d="M621.457,548.907c-1.062,0.614-1.639,1.265-1.733,1.939c-0.095,0.684,0.06,1.327,0.475,1.939
				l-0.055,0.031l-2.28-1.406l-3.026,1.748l14.222,8.77l3.183-1.837l-7.761-4.786c-0.48-0.296-0.88-0.606-1.206-0.937
				c-0.326-0.328-0.539-0.667-0.635-1.011c-0.101-0.348-0.068-0.685,0.103-1.014c0.164-0.333,0.505-0.65,1.036-0.957
				c0.55-0.317,1.133-0.479,1.735-0.484c0.604-0.006,1.196,0.074,1.772,0.251c0.568,0.173,1.124,0.401,1.641,0.677
				c0.517,0.283,0.975,0.544,1.368,0.786l7.2,4.44l3.188-1.841l-8.981-5.538c-0.727-0.448-1.51-0.831-2.339-1.157
				c-0.835-0.322-1.69-0.536-2.58-0.636c-0.884-0.103-1.781-0.079-2.692,0.065C623.186,548.1,622.304,548.418,621.457,548.907"/>
			<path fill="#98EFE8" d="M647.556,547.643c-0.525,0.304-1.134,0.52-1.808,0.654c-0.686,0.132-1.373,0.179-2.087,0.138
				c-0.714-0.033-1.411-0.149-2.089-0.347s-1.302-0.475-1.874-0.828c-0.634-0.391-1.125-0.8-1.46-1.228
				c-0.342-0.432-0.524-0.852-0.562-1.268c-0.039-0.415,0.068-0.819,0.321-1.212c0.254-0.394,0.66-0.756,1.228-1.083
				c1.164-0.672,2.471-0.965,3.919-0.877c1.441,0.083,2.781,0.511,4.029,1.28c0.593,0.365,1.057,0.758,1.391,1.178
				c0.341,0.417,0.529,0.833,0.568,1.249c0.038,0.415-0.075,0.823-0.32,1.229C648.553,546.932,648.141,547.305,647.556,547.643
				 M635.362,540.879c-0.991,0.572-1.682,1.201-2.065,1.885c-0.377,0.68-0.513,1.387-0.389,2.119
				c0.122,0.725,0.498,1.456,1.124,2.177c0.628,0.729,1.458,1.412,2.505,2.058c1.006,0.621,2.115,1.119,3.301,1.493
				c1.185,0.374,2.389,0.604,3.604,0.683c1.202,0.078,2.391,0.013,3.554-0.197c1.163-0.209,2.229-0.594,3.183-1.146
				c0.795-0.458,1.397-1.014,1.815-1.669c0.411-0.65,0.5-1.323,0.273-2.012l0.054-0.031l1.033,0.637
				c0.713,0.44,1.294,0.877,1.742,1.311c0.456,0.438,0.729,0.869,0.838,1.309c0.103,0.434,0.013,0.876-0.274,1.32
				c-0.279,0.447-0.804,0.894-1.562,1.332c-0.902,0.521-1.883,0.871-2.922,1.05c-1.054,0.178-2.216,0.252-3.508,0.218l0.996,2.896
				c1.794,0.022,3.387-0.164,4.783-0.572c1.396-0.407,2.691-0.949,3.874-1.632c1.242-0.717,2.11-1.457,2.619-2.221
				c0.507-0.763,0.693-1.539,0.571-2.328c-0.137-0.789-0.573-1.579-1.326-2.386c-0.754-0.8-1.777-1.602-3.058-2.392l-12.948-7.984
				l-3.027,1.748l2.134,1.315l-0.055,0.031c-1.332-0.273-2.587-0.305-3.756-0.1C637.305,539.996,636.264,540.358,635.362,540.879"/>
			<path fill="#98EFE8" d="M650.802,531.965c-0.633,0.365-1.167,0.785-1.614,1.25c-0.441,0.47-0.711,0.959-0.814,1.465
				c-0.104,0.506-0.006,1.023,0.281,1.55c0.295,0.53,0.838,1.036,1.624,1.521c0.914,0.563,1.788,0.903,2.636,1.026
				s1.671,0.126,2.472,0.006c0.8-0.119,1.562-0.312,2.287-0.571c0.717-0.264,1.412-0.498,2.072-0.704
				c0.66-0.205,1.278-0.331,1.846-0.381c0.581-0.048,1.114,0.081,1.607,0.386c0.273,0.169,0.454,0.358,0.524,0.565
				c0.075,0.203,0.075,0.41,0.006,0.617c-0.081,0.206-0.209,0.398-0.399,0.581c-0.185,0.178-0.396,0.332-0.63,0.467
				c-0.668,0.386-1.401,0.618-2.193,0.686c-0.799,0.071-1.654,0.063-2.574-0.019l0.095,2.597c1.49,0.134,2.804,0.061,3.947-0.226
				c1.156-0.285,2.218-0.715,3.209-1.287c0.656-0.379,1.227-0.804,1.73-1.277c0.496-0.478,0.829-0.973,0.987-1.494
				c0.172-0.521,0.129-1.054-0.129-1.605c-0.251-0.547-0.811-1.084-1.657-1.606c-0.927-0.571-1.828-0.927-2.695-1.062
				c-0.874-0.133-1.718-0.147-2.538-0.04s-1.596,0.285-2.334,0.536c-0.743,0.254-1.439,0.48-2.093,0.69
				c-0.647,0.214-1.238,0.356-1.777,0.43c-0.535,0.069-1.016-0.027-1.449-0.294c-0.533-0.329-0.717-0.685-0.551-1.067
				c0.172-0.378,0.471-0.693,0.895-0.938c1.045-0.604,2.361-0.782,3.949-0.544l-0.014-2.54c-1.302-0.196-2.53-0.148-3.687,0.13
				C652.659,531.092,651.657,531.472,650.802,531.965"/>
		</g>
	</g>
</g>
<path fill="none" stroke="#000000" stroke-miterlimit="10" d="M788.042,424.878"/>
<path fill="none" stroke="#000000" stroke-miterlimit="10" d="M264.976,725.898"/>
<g>
	<g enable-background="new    ">
		<defs>
			<polygon id="SVGID_18_" enable-background="new    " points="457.406,274.405 425.868,254.958 465.95,231.817 497.487,251.264 
							"/>
		</defs>
		<clipPath id="SVGID_19_">
			<use xlink:href="#SVGID_18_"  overflow="visible"/>
		</clipPath>
	</g>
</g>
<g>
	<polyline fill="#98EFE8" points="448.79,244.112 427.868,256.191 432.629,259.127 440.731,254.449 465.508,269.728 
		470.219,267.007 445.442,251.729 453.551,247.048 448.79,244.112 	"/>
	<path fill="#98EFE8" d="M454.074,238.673l-4.484,2.589l31.538,19.447l4.484-2.589l-10.928-6.739
		c-0.667-0.411-1.236-0.847-1.699-1.312c-0.465-0.464-0.76-0.939-0.899-1.424c-0.139-0.485-0.089-0.96,0.145-1.429
		c0.234-0.461,0.728-0.913,1.474-1.344c0.771-0.445,1.58-0.673,2.434-0.688c0.854-0.007,1.683,0.111,2.492,0.361
		c0.808,0.242,1.58,0.561,2.308,0.953c0.734,0.396,1.378,0.764,1.932,1.105l10.135,6.25l4.484-2.589l-12.642-7.795
		c-1.027-0.633-2.127-1.176-3.295-1.632c-1.167-0.449-2.377-0.753-3.623-0.894c-1.247-0.148-2.507-0.113-3.79,0.094
		c-1.276,0.204-2.512,0.654-3.712,1.347c-1.391,0.803-2.191,1.671-2.395,2.601s-0.064,1.757,0.423,2.471l-0.071,0.042
		L454.074,238.673"/>
</g>
<g>
	<g>
		
			<rect x="329.421" y="74.32" transform="matrix(0.7071 0.7071 -0.7071 0.7071 155.886 -214.0063)" fill="#98EFE8" width="13.682" height="13.682"/>
		<g>
			<path fill="#98EFE8" d="M339.762,81c0,14.912-12.088,27-27,27h-286c-14.912,0-27-12.088-27-27l0,0c0-14.912,12.088-27,27-27h286
				C327.674,54,339.762,66.088,339.762,81L339.762,81z"/>
		</g>
		<g>
			<text transform="matrix(1 0 0 1 26.7764 86.2998)" fill="#36299C" font-family="'Nunito'" font-size="17">“I’m such a fan of your latest items.”</text>
			<text transform="matrix(1 0 0 1 26.7764 86.2998)" fill="#36299C" font-family="'Nunito'" font-size="17">“I’m such a fan of your latest items.”</text>
		</g>
	</g>
</g>
<g>
	<g>
		
			<rect x="376.421" y="20.32" transform="matrix(0.7071 0.7071 -0.7071 0.7071 131.4753 -263.0647)" fill="#98EFE8" width="13.682" height="13.682"/>
		<g>
			<path fill="#98EFE8" d="M737.762,27c0,14.912-12.088,27-27,27h-305c-14.912,0-27-12.088-27-27l0,0c0-14.912,12.088-27,27-27h305
				C725.674,0,737.762,12.088,737.762,27L737.762,27z"/>
		</g>
		<g>
			<text transform="matrix(1 0 0 1 395.7729 32.2998)" fill="#36299C" font-family="'Nunito'" font-size="17">The new decor you’re selling is beautiful!”</text>
			<text transform="matrix(1 0 0 1 395.7729 32.2998)" fill="#36299C" font-family="'Nunito'" font-size="17">The new decor you’re selling is beautiful!”</text>
		</g>
	</g>
</g>
<path fill="none" stroke="#FFBC00" stroke-miterlimit="10" d="M163.762,598.5"/>
<g>
	<g>
		<g enable-background="new    ">
			<defs>
				<rect id="SVGID_22_" x="330.64" y="206.514" enable-background="new    " width="55.242" height="25.628"/>
			</defs>
			<clipPath id="SVGID_20_">
				<use xlink:href="#SVGID_22_"  overflow="visible"/>
			</clipPath>
			<g clip-path="url(#SVGID_20_)">
				<g>
					<g>
						<g>
							<path fill="#98EFE8" d="M385.882,206.514h-7.209l-7.83,18.46h-0.108l-8.784-18.46h-6.984l-8.955,18.46h-0.108l-7.497-18.46
								h-7.767l11.772,25.628h6.525l9.243-19.507l9.342,19.507h6.759L385.882,206.514"/>
						</g>
					</g>
				</g>
			</g>
		</g>
	</g>
</g>
<path fill="none" stroke="#FFBC00" stroke-miterlimit="10" d="M576.762,598.5"/>
</svg>
