<?xml version="1.0" encoding="UTF-8" standalone="no"?>
<svg width="2596px" height="1710px" viewBox="0 0 2596 1710" version="1.1" xmlns="http://www.w3.org/2000/svg" xmlns:xlink="http://www.w3.org/1999/xlink">
    <!-- Generator: Sketch 43.1 (39012) - http://www.bohemiancoding.com/sketch -->
    <title>Group 2</title>
    <desc>Created with Sketch.</desc>
    <defs></defs>
    <g id="Page-1" stroke="none" stroke-width="1" fill="none" fill-rule="evenodd">
        <g id="space" transform="translate(-8868.000000, -3408.000000)">
            <g id="Group" transform="translate(370.000000, 0.000000)">
                <g transform="translate(5825.000000, 3310.000000)" id="Group-2">
                    <g transform="translate(3970.500000, 955.500000) rotate(-180.000000) translate(-3970.500000, -955.500000) translate(2675.000000, 103.000000)">
                        <polygon id="Shape" fill="#F9F8FF" fill-rule="nonzero" points="1112 211.181 1477.773 422.361 1843.551 211.181 1477.775 -4.54747351e-13"></polygon>
                        <path d="M185,1598 L370.027,1704.825" id="Shape" stroke="#F9F8FF" stroke-width="10"></path>
                        <path d="M0,1491 L185.028,1597.826" id="Shape" stroke="#F9F8FF" stroke-width="10"></path>
                        <path d="M185,1384 L370.027,1490.826" id="Shape" stroke="#F9F8FF" stroke-width="10"></path>
                        <path d="M0,1277 L185.027,1383.825" id="Shape" stroke="#F9F8FF" stroke-width="10"></path>
                        <path d="M370,1491 L555.028,1597.826" id="Shape" stroke="#F9F8FF" stroke-width="10"></path>
                        <path d="M555,1384 L740.027,1490.827" id="Shape" stroke="#F9F8FF" stroke-width="10"></path>
                        <path d="M370,1277 L555.028,1383.825" id="Shape" stroke="#F9F8FF" stroke-width="10"></path>
                        <path d="M185,1170 L370.027,1276.825" id="Shape" stroke="#F9F8FF" stroke-width="10"></path>
                        <path d="M0,1064 L185.028,1170.826" id="Shape" stroke="#F9F8FF" stroke-width="10"></path>
                        <path d="M0,850 L185.027,956.825" id="Shape" stroke="#F9F8FF" stroke-width="10"></path>
                        <path d="M925.028,1383.825 L740,1277" id="Shape" stroke="#F9F8FF" stroke-width="10"></path>
                        <path d="M185,957 L370.027,1063.826" id="Shape" stroke="#F9F8FF" stroke-width="10"></path>
                        <path d="M370,1064 L555.028,1170.826" id="Shape" stroke="#F9F8FF" stroke-width="10"></path>
                        <path d="M555,1170 L740.027,1276.825" id="Shape" stroke="#F9F8FF" stroke-width="10"></path>
                        <path d="M370,850 L555.029,956.825" id="Shape" stroke="#F9F8FF" stroke-width="10"></path>
                        <path d="M185,743 L370.027,849.826" id="Shape" stroke="#F9F8FF" stroke-width="10"></path>
                        <path d="M1110.028,1276.826 L925,1170" id="Shape" stroke="#F9F8FF" stroke-width="10"></path>
                        <path d="M555,957 L740.027,1063.826" id="Shape" stroke="#F9F8FF" stroke-width="10"></path>
                        <path d="M0,636 L185.027,742.826" id="Shape" stroke="#F9F8FF" stroke-width="10"></path>
                        <path d="M925.027,1170.825 L740,1064" id="Shape" stroke="#F9F8FF" stroke-width="10"></path>
                        <path d="M1110.028,1063.826 L925,957" id="Shape" stroke="#F9F8FF" stroke-width="10"></path>
                        <path d="M1295.027,1170.826 L1110,1064" id="Shape" stroke="#F9F8FF" stroke-width="10"></path>
                        <path d="M925.027,956.825 L740,850" id="Shape" stroke="#F9F8FF" stroke-width="10"></path>
                        <path d="M370.027,636.826 L185,530" id="Shape" stroke="#F9F8FF" stroke-width="10"></path>
                        <path d="M370,636 L555.028,742.826" id="Shape" stroke="#F9F8FF" stroke-width="10"></path>
                        <path d="M0,423 L185.027,529.825" id="Shape" stroke="#F9F8FF" stroke-width="10"></path>
                        <path d="M740.028,849.826 L555,743" id="Shape" stroke="#F9F8FF" stroke-width="10"></path>
                        <path d="M1480.028,1063.826 L1295,957" id="Shape" stroke="#F9F8FF" stroke-width="10"></path>
                        <path d="M1295.027,956.825 L1110,850" id="Shape" stroke="#F9F8FF" stroke-width="10"></path>
                        <path d="M740,636 L925.027,742.826" id="Shape" stroke="#F9F8FF" stroke-width="10"></path>
                        <path d="M1110.028,849.826 L925,743" id="Shape" stroke="#F9F8FF" stroke-width="10"></path>
                        <path d="M370.027,422.825 L185,316" id="Shape" stroke="#F9F8FF" stroke-width="10"></path>
                        <path d="M740.027,636.825 L555,530" id="Shape" stroke="#F9F8FF" stroke-width="10"></path>
                        <path d="M370,423 L555.029,529.826" id="Shape" stroke="#F9F8FF" stroke-width="10"></path>
                        <path d="M740.027,422.826 L555,316" id="Shape" stroke="#F9F8FF" stroke-width="10"></path>
                        <path d="M1110,636 L1295.027,742.825" id="Shape" stroke="#F9F8FF" stroke-width="10"></path>
                        <path d="M1665.029,956.825 L1480,850" id="Shape" stroke="#F9F8FF" stroke-width="10"></path>
                        <path d="M1110.029,636.826 L925,530" id="Shape" stroke="#F9F8FF" stroke-width="10"></path>
                        <path d="M1480.027,849.826 L1295,743" id="Shape" stroke="#F9F8FF" stroke-width="10"></path>
                        <path d="M740,423 L925.027,529.825" id="Shape" stroke="#F9F8FF" stroke-width="10"></path>
                        <path d="M1110,423 L1295.028,529.826" id="Shape" stroke="#F9F8FF" stroke-width="10"></path>
                        <path d="M1850.027,849.826 L1665,743" id="Shape" stroke="#F9F8FF" stroke-width="10"></path>
                        <path d="M1480.027,636.825 L1295,530" id="Shape" stroke="#F9F8FF" stroke-width="10"></path>
                        <path d="M1110.028,422.825 L925,316" id="Shape" stroke="#F9F8FF" stroke-width="10"></path>
                        <path d="M1665.028,742.826 L1480,636" id="Shape" stroke="#F9F8FF" stroke-width="10"></path>
                        <path d="M2035.027,742.825 L1850,636" id="Shape" stroke="#F9F8FF" stroke-width="10"></path>
                        <path d="M1480,423 L1665.028,529.825" id="Shape" stroke="#F9F8FF" stroke-width="10"></path>
                        <path d="M1850.027,636.826 L1665,530" id="Shape" stroke="#F9F8FF" stroke-width="10"></path>
                        <path d="M1480.028,422.826 L1295,316" id="Shape" stroke="#F9F8FF" stroke-width="10"></path>
                        <path d="M1850.027,422.825 L1665,316" id="Shape" stroke="#F9F8FF" stroke-width="10"></path>
                        <path d="M2220.028,636.826 L2035,530" id="Shape" stroke="#F9F8FF" stroke-width="10"></path>
                        <path d="M1850,423 L2035.027,529.826" id="Shape" stroke="#F9F8FF" stroke-width="10"></path>
                        <path d="M2220.028,422.825 L2035,316" id="Shape" stroke="#F9F8FF" stroke-width="10"></path>
                        <path d="M2405.027,529.826 L2220,423" id="Shape" stroke="#F9F8FF" stroke-width="10"></path>
                        <path d="M2590.028,422.825 L2405,316" id="Shape" stroke="#F9F8FF" stroke-width="10"></path>
                        <path d="M925,1170.825 L1110.028,1064" id="Shape" stroke="#F9F8FF" stroke-width="10"></path>
                        <path d="M1110,1063.826 L1295.027,957" id="Shape" stroke="#F9F8FF" stroke-width="10"></path>
                        <path d="M1665,742.825 L1850.027,636" id="Shape" stroke="#F9F8FF" stroke-width="10"></path>
                        <path d="M740,1276.826 L925.028,1170" id="Shape" stroke="#F9F8FF" stroke-width="10"></path>
                        <path d="M2405.027,316 L2220,422.825" id="Shape" stroke="#F9F8FF" stroke-width="10"></path>
                        <path d="M555,1383.825 L740.027,1277" id="Shape" stroke="#F9F8FF" stroke-width="10"></path>
                        <path d="M1850,636.826 L2035.027,530" id="Shape" stroke="#F9F8FF" stroke-width="10"></path>
                        <path d="M370,1490.826 L555.028,1384" id="Shape" stroke="#F9F8FF" stroke-width="10"></path>
                        <path d="M1480,849.826 L1665.029,743" id="Shape" stroke="#F9F8FF" stroke-width="10"></path>
                        <path d="M1295,956.825 L1480.027,850" id="Shape" stroke="#F9F8FF" stroke-width="10"></path>
                        <path d="M2035,529.826 L2220.028,423" id="Shape" stroke="#F9F8FF" stroke-width="10"></path>
                        <path d="M185,1597.826 L370.027,1491" id="Shape" stroke="#F9F8FF" stroke-width="10"></path>
                        <path d="M555,1170.826 L740.028,1064" id="Shape" stroke="#F9F8FF" stroke-width="10"></path>
                        <path d="M925,956.825 L1110.028,850" id="Shape" stroke="#F9F8FF" stroke-width="10"></path>
                        <path d="M740,1063.826 L925.027,957" id="Shape" stroke="#F9F8FF" stroke-width="10"></path>
                        <path d="M370,1276.825 L555.028,1170" id="Shape" stroke="#F9F8FF" stroke-width="10"></path>
                        <path d="M185,1383.825 L370.027,1277" id="Shape" stroke="#F9F8FF" stroke-width="10"></path>
                        <path d="M1295,742.826 L1480.028,636" id="Shape" stroke="#F9F8FF" stroke-width="10"></path>
                        <path d="M1110,849.826 L1295.027,743" id="Shape" stroke="#F9F8FF" stroke-width="10"></path>
                        <path d="M1850.027,423 L1665,529.826" id="Shape" stroke="#F9F8FF" stroke-width="10"></path>
                        <path d="M1665.028,530 L1480,636.825" id="Shape" stroke="#F9F8FF" stroke-width="10"></path>
                        <path d="M2035.027,316 L1850,422.825" id="Shape" stroke="#F9F8FF" stroke-width="10"></path>
                        <path d="M0,1490.826 L185.028,1384" id="Shape" stroke="#F9F8FF" stroke-width="10"></path>
                        <path d="M1665.028,316 L1480,422.826" id="Shape" stroke="#F9F8FF" stroke-width="10"></path>
                        <path d="M1480.027,423 L1295,529.825" id="Shape" stroke="#F9F8FF" stroke-width="10"></path>
                        <path d="M185.027,1170 L0,1276.825" id="Shape" stroke="#F9F8FF" stroke-width="10"></path>
                        <path d="M1110.028,636 L925,742.825" id="Shape" stroke="#F9F8FF" stroke-width="10"></path>
                        <path d="M555,956.825 L740.027,850" id="Shape" stroke="#F9F8FF" stroke-width="10"></path>
                        <path d="M370.027,1064 L185,1170.826" id="Shape" stroke="#F9F8FF" stroke-width="10"></path>
                        <path d="M925.027,743 L740,849.826" id="Shape" stroke="#F9F8FF" stroke-width="10"></path>
                        <path d="M370,1063.826 L555.029,957" id="Shape" stroke="#F9F8FF" stroke-width="10"></path>
                        <path d="M1295.028,530 L1110,636.826" id="Shape" stroke="#F9F8FF" stroke-width="10"></path>
                        <path d="M1110.029,423 L925,529.826" id="Shape" stroke="#F9F8FF" stroke-width="10"></path>
                        <path d="M925.026,530 L740,636.825" id="Shape" stroke="#F9F8FF" stroke-width="10"></path>
                        <path d="M185,956.825 L370.027,850" id="Shape" stroke="#F9F8FF" stroke-width="10"></path>
                        <path d="M740.028,636 L555,742.826" id="Shape" stroke="#F9F8FF" stroke-width="10"></path>
                        <path d="M0,1063.826 L185.028,957" id="Shape" stroke="#F9F8FF" stroke-width="10"></path>
                        <path d="M1295.027,316 L1110,422.825" id="Shape" stroke="#F9F8FF" stroke-width="10"></path>
                        <path d="M555.028,743 L370,849.826" id="Shape" stroke="#F9F8FF" stroke-width="10"></path>
                        <path d="M0,849.826 L185.027,743" id="Shape" stroke="#F9F8FF" stroke-width="10"></path>
                        <path d="M370.027,636 L185,742.826" id="Shape" stroke="#F9F8FF" stroke-width="10"></path>
                        <path d="M925.028,316 L740,422.826" id="Shape" stroke="#F9F8FF" stroke-width="10"></path>
                        <path d="M740.026,423 L555,529.825" id="Shape" stroke="#F9F8FF" stroke-width="10"></path>
                        <path d="M555.029,530 L370,636.825" id="Shape" stroke="#F9F8FF" stroke-width="10"></path>
                        <path d="M185.027,530 L0,636.826" id="Shape" stroke="#F9F8FF" stroke-width="10"></path>
                        <path d="M370.027,423 L185,529.825" id="Shape" stroke="#F9F8FF" stroke-width="10"></path>
                        <path d="M555.028,316 L370,422.825" id="Shape" stroke="#F9F8FF" stroke-width="10"></path>
                        <path d="M185.027,316 L0,422.825" id="Shape" stroke="#F9F8FF" stroke-width="10"></path>
                    </g>
                </g>
            </g>
        </g>
    </g>
</svg>