<?xml version="1.0" encoding="UTF-8" standalone="no"?>
<svg width="82px" height="46px" viewBox="0 0 82 46" version="1.1" xmlns="http://www.w3.org/2000/svg" xmlns:xlink="http://www.w3.org/1999/xlink">
    <!-- Generator: Sketch 3.8.1 (29687) - http://www.bohemiancoding.com/sketch -->
    <title>Group 2</title>
    <desc>Created with Sketch.</desc>
    <defs></defs>
    <g id="Welcome" stroke="none" stroke-width="1" fill="none" fill-rule="evenodd">
        <g id="Desktop" transform="translate(-1113.000000, -1926.000000)">
            <g id="Group-2" transform="translate(1154.000000, 1949.000000) rotate(-180.000000) translate(-1154.000000, -1949.000000) translate(1113.000000, 1926.000000)">
                <polygon id="Fill-38" fill="#F862A1" points="27.2283225 27.2054335 0 27.2054335 1.50265282 18.2539683 28.7315033 18.2539683"></polygon>
                <polygon id="Fill-40" fill="#7EB8FA" points="63.1038504 27.2054335 35.875 27.2054335 37.3776528 18.2539683 64.6065033 18.2539683"></polygon>
                <polygon id="Fill-42" fill="#7EB8FA" points="48.4604653 45.8666056 21.2321429 45.8666056 22.7347957 37.968254 49.9636461 37.968254"></polygon>
                <polygon id="Fill-44" fill="#BB7BE9" points="67.8657709 37.968254 59.3419385 37.968254 57.8392857 45.8666056 66.3625901 45.8666056"></polygon>
                <polygon id="Fill-42" fill="#7EB8FA" points="48.4604653 7.89835165 21.2321429 7.89835165 22.7347957 0 49.9636461 0"></polygon>
                <polygon id="Fill-44" fill="#BB7BE9" points="67.8657709 0 59.3419385 0 57.8392857 7.89835165 66.3625901 7.89835165"></polygon>
                <polygon id="Fill-48" fill="#BB7BE9" points="81.7764852 18.2539683 73.2521248 18.2539683 71.75 27.2054335 80.2733044 27.2054335"></polygon>
            </g>
        </g>
    </g>
</svg>