<?xml version="1.0" encoding="UTF-8" standalone="no"?>
<svg width="665px" height="191px" viewBox="0 0 665 191" version="1.1" xmlns="http://www.w3.org/2000/svg" xmlns:xlink="http://www.w3.org/1999/xlink">
    <!-- Generator: Sketch 43.1 (39012) - http://www.bohemiancoding.com/sketch -->
    <title>logo</title>
    <desc>Created with Sketch.</desc>
    <defs>
        <path d="M432.82,137.644 C432.82,141.601353 431.230016,144.957986 428.05,147.714 C424.869984,150.470014 421.230687,151.848 417.132,151.848 C414.446653,151.848 411.902679,151.106007 409.5,149.622 C407.097321,148.137993 405.260006,145.912015 403.988,142.944 L392.752,117.928 L320.884,117.928 L309.648,142.944 C308.375994,145.912015 306.574012,148.137993 304.242,149.622 C301.909988,151.106007 299.330681,151.848 296.504,151.848 C292.405313,151.848 288.730683,150.470014 285.48,147.714 C282.229317,144.957986 280.604,141.601353 280.604,137.644 C280.604,135.665323 281.169328,133.404013 282.3,130.86 L339.54,10.656 C341.094674,7.26398304 343.426651,4.6846755 346.536,2.918 C349.645349,1.1513245 352.966649,0.268 356.5,0.268 C360.174685,0.268 363.566651,1.18665748 366.676,3.024 C369.785349,4.86134252 372.187992,7.40531708 373.884,10.656 L431.124,130.86 C432.254672,133.404013 432.82,135.665323 432.82,137.644 Z M332.12,92.912 L381.516,92.912 L356.924,37.792 L332.12,92.912 Z M468.281817,150.576 C461.921785,149.16266 456.339174,146.901349 451.533817,143.792 C449.413806,142.519994 447.788489,140.824011 446.657817,138.704 C445.527145,136.583989 444.961817,134.181347 444.961817,131.496 C444.961817,128.245317 445.880474,125.524678 447.717817,123.334 C449.555159,121.143322 451.81647,120.048 454.501817,120.048 C456.339159,120.048 458.176474,120.365997 460.013817,121.002 C461.851159,121.638003 463.75914,122.379996 465.737817,123.228 C469.69517,125.065343 473.581798,126.513995 477.397817,127.574 C481.213836,128.634005 485.948455,129.164 491.601817,129.164 C496.548508,129.164 500.399803,128.386674 503.155817,126.832 C505.911831,125.277326 507.289817,123.157347 507.289817,120.472 C507.289817,118.493323 506.689156,116.903339 505.487817,115.702 C504.286478,114.500661 502.0605,113.405338 498.809817,112.416 C495.559134,111.426662 490.400519,110.22534 483.333817,108.812 C470.755087,106.409321 461.709844,102.805357 456.197817,98 C450.685789,93.1946426 447.929817,86.4813764 447.929817,77.86 C447.929817,71.4999682 449.873131,65.7760254 453.759817,60.688 C457.646503,55.5999746 462.981783,51.6073478 469.765817,48.71 C476.549851,45.8126522 484.181775,44.364 492.661817,44.364 C498.739181,44.364 504.675121,45.1413256 510.469817,46.696 C516.264513,48.2506744 521.423128,50.4413192 525.945817,53.268 C530.327172,55.9533468 532.517817,59.9106405 532.517817,65.14 C532.517817,68.532017 531.599159,71.3586554 529.761817,73.62 C527.924474,75.8813446 525.663164,77.012 522.977817,77.012 C519.727134,77.012 515.840506,75.7400127 511.317817,73.196 C507.784466,71.3586575 504.569165,69.9806713 501.671817,69.062 C498.774469,68.1433287 495.34717,67.684 491.389817,67.684 C487.008462,67.684 483.54583,68.4966585 481.001817,70.122 C478.457804,71.7473415 477.185817,73.9733192 477.185817,76.8 C477.185817,79.7680148 478.669802,82.0293256 481.637817,83.584 C484.605832,85.1386744 490.329775,86.6933256 498.809817,88.248 C508.279198,90.0853425 515.699123,92.3113203 521.069817,94.926 C526.44051,97.5406797 530.327138,100.826647 532.729817,104.784 C535.132496,108.741353 536.333817,113.758636 536.333817,119.836 C536.333817,129.870717 532.199858,137.85597 523.931817,143.792 C515.663776,149.72803 504.604553,152.696 490.753817,152.696 C482.13244,152.696 474.641849,151.98934 468.281817,150.576 Z M660.517634,48.922 C663.414982,51.6780138 664.863634,55.3173107 664.863634,59.84 L664.863634,175.592 C664.863634,179.973355 663.344316,183.506653 660.305634,186.192 C657.266952,188.877347 653.274325,190.22 648.327634,190.22 C643.66361,190.22 639.918315,188.948013 637.091634,186.404 C634.264953,183.859987 632.851634,180.468021 632.851634,176.228 L632.851634,135.948 C629.742285,141.177359 625.325662,145.275985 619.601634,148.244 C613.877605,151.212015 607.482336,152.696 600.415634,152.696 C591.370255,152.696 583.385002,150.505355 576.459634,146.124 C569.534266,141.742645 564.12832,135.488707 560.241634,127.362 C556.354948,119.235293 554.411634,109.801387 554.411634,99.06 C554.411634,88.318613 556.354948,78.8140413 560.241634,70.546 C564.12832,62.2779587 569.569599,55.8473563 576.565634,51.254 C583.561669,46.6606437 591.511589,44.364 600.415634,44.364 C607.62367,44.364 614.089605,45.8833181 619.813634,48.922 C625.537662,51.9606819 629.954285,56.1653065 633.063634,61.536 L633.063634,59.84 C633.063634,55.3173107 634.512286,51.6780138 637.409634,48.922 C640.306982,46.1659862 644.158276,44.788 648.963634,44.788 C653.768991,44.788 657.620286,46.1659862 660.517634,48.922 Z M627.021634,120.684 C631.049654,115.595975 633.063634,108.246715 633.063634,98.636 C633.063634,89.0252853 631.049654,81.6406925 627.021634,76.482 C622.993614,71.3233075 617.234338,68.744 609.743634,68.744 C602.25293,68.744 596.458321,71.3939735 592.359634,76.694 C588.260947,81.9940265 586.211634,89.4492853 586.211634,99.06 C586.211634,108.529381 588.260947,115.772642 592.359634,120.79 C596.458321,125.807358 602.25293,128.316 609.743634,128.316 C617.234338,128.316 622.993614,125.772025 627.021634,120.684 Z" id="path-1"></path>
    </defs>
    <g id="Page-1" stroke="none" stroke-width="1" fill="none" fill-rule="evenodd">
        <g id="A4" transform="translate(-9.000000, -128.000000)">
            <g id="logo" transform="translate(9.000000, 128.000000)">
                <path d="M170.022989,76.5754539 C170.022989,68.61521 176.474316,62.1621573 184.427498,62.1621573 L243.595491,62.1621573 C251.550882,62.1621573 258,68.6134598 258,76.5754539 C258,84.5356977 251.548673,90.9887504 243.595491,90.9887504 L184.427498,90.9887504 C176.472107,90.9887504 170.022989,84.537448 170.022989,76.5754539 Z M57.4141641,76.6973688 C57.4141641,68.737125 63.8654913,62.2840723 71.8186733,62.2840723 L130.986666,62.2840723 C138.942057,62.2840723 145.391176,68.7353747 145.391176,76.6973688 C145.391176,84.6576127 138.939848,91.1106653 130.986666,91.1106653 L71.8186733,91.1106653 C63.8632825,91.1106653 57.4141641,84.6593629 57.4141641,76.6973688 Z M106.732538,15.4132965 C106.732538,7.45305266 113.183865,1 121.137047,1 L180.30504,1 C188.260431,1 194.709549,7.45130242 194.709549,15.4132965 C194.709549,23.3735404 188.258222,29.826593 180.30504,29.826593 L121.137047,29.826593 C113.181656,29.826593 106.732538,23.3752906 106.732538,15.4132965 Z M107.720802,136.586703 C107.720802,128.62646 114.172129,122.173407 122.125311,122.173407 L181.293304,122.173407 C189.248695,122.173407 195.697813,128.624709 195.697813,136.586703 C195.697813,144.546947 189.246486,151 181.293304,151 L122.125311,151 C114.16992,151 107.720802,144.548698 107.720802,136.586703 Z M51.3897403,135.99568 C51.3897403,128.36185 57.5750363,122.173407 65.2087336,122.173407 C72.8407529,122.173407 79.0277269,128.357434 79.0277269,135.99568 L79.0277269,137.177727 C79.0277269,144.811557 72.842431,151 65.2087336,151 C57.5767144,151 51.3897403,144.815973 51.3897403,137.177727 L51.3897403,135.99568 Z M0,75.408977 C0,67.7751461 6.18529597,61.5867035 13.8189933,61.5867035 C21.4510126,61.5867035 27.6379866,67.7707309 27.6379866,75.408977 L27.6379866,76.591023 C27.6379866,84.2248539 21.4526906,90.4132965 13.8189933,90.4132965 C6.18697405,90.4132965 0,84.2292691 0,76.591023 L0,75.408977 Z M51.3897403,14.8222735 C51.3897403,7.18844263 57.5750363,1 65.2087336,1 C72.8407529,1 79.0277269,7.18402743 79.0277269,14.8222735 L79.0277269,16.0043195 C79.0277269,23.6381504 72.842431,29.826593 65.2087336,29.826593 C57.5767144,29.826593 51.3897403,23.6425656 51.3897403,16.0043195 L51.3897403,14.8222735 Z" id="Shape" fill="#FFFFFF" fill-rule="nonzero"></path>
                <g id="Asq">
                    <use fill="#FFFFFF" fill-rule="evenodd" xlink:href="#path-1"></use>
                    <use fill="black" fill-opacity="1" xlink:href="#path-1"></use>
                </g>
            </g>
        </g>
    </g>
</svg>