<?xml version="1.0" encoding="UTF-8" standalone="no"?>
<svg width="3641px" height="1745px" viewBox="0 0 3641 1745" version="1.1" xmlns="http://www.w3.org/2000/svg" xmlns:xlink="http://www.w3.org/1999/xlink">
    <!-- Generator: Sketch 3.8.1 (29687) - http://www.bohemiancoding.com/sketch -->
    <title>oval</title>
    <desc>Created with Sketch.</desc>
    <defs>
        <linearGradient x1="50%" y1="3.4775695%" x2="50%" y2="100%" id="linearGradient-1">
            <stop stop-color="#EFF9FF" offset="0%"></stop>
            <stop stop-color="#EEF9FF" stop-opacity="0.553640172" offset="56.3636001%"></stop>
            <stop stop-color="#FFFFFF" stop-opacity="0" offset="100%"></stop>
        </linearGradient>
    </defs>
    <g id="Welcome" stroke="none" stroke-width="1" fill="none" fill-rule="evenodd">
        <g id="oval" transform="translate(0.000000, -70.000000)">
            <g id="Group-4">
                <g id="Page-1">
                    <g id="Group-3">
                        <g id="Group-4">
                            <path d="M3.86824982e-15,1793.22329 C3.86824982e-15,1793.22329 3083.05158,1815 3641,1815 C3640.99999,1815 3641,618.369748 3641,618.369748 C3641,414.513027 2825.93439,129.482593 1820.5,129.482593 C815.065613,129.482593 0,414.513027 0,618.369748 L3.86824982e-15,1793.22329 L3.86824982e-15,1793.22329 Z" id="Oval-1" fill="url(#linearGradient-1)"></path>
                            <g id="Group-2" transform="translate(1244.682660, 146.094107) rotate(349.000000) translate(-1244.682660, -146.094107) translate(841.682660, 76.594107)">
                                <polygon id="Path-78" fill="#EEF9FF" points="5.68434189e-12 69.4218707 213.355624 -1.42108547e-12 299.366703 43.9028799 380.715582 17.3350893 420.069226 40.7253737 511.393382 13.5854932 805.182839 138.843742"></polygon>
                                <polygon id="Path-79" fill="#FFFFFF" points="65.6740557 59.4883882 213.692059 11.047817 234.320749 21.1289258"></polygon>
                                <polygon id="Path-79" fill="#FFFFFF" points="310.970478 45.9669916 380.282877 24.448702 393.672137 31.8950476"></polygon>
                                <polygon id="Path-79" fill="#FFFFFF" points="440.794549 40.1456492 511.18765 20.5517389 530.302086 28.1604579"></polygon>
                            </g>
                        </g>
                    </g>
                </g>
            </g>
        </g>
    </g>
</svg>