<?xml version="1.0" encoding="UTF-8" standalone="no"?>
<svg width="3014px" height="270px" viewBox="0 0 3014 270" version="1.1" xmlns="http://www.w3.org/2000/svg" xmlns:xlink="http://www.w3.org/1999/xlink">
    <!-- Generator: Sketch 43.1 (39012) - http://www.bohemiancoding.com/sketch -->
    <title>moon-top</title>
    <desc>Created with Sketch.</desc>
    <defs></defs>
    <g id="Page-1" stroke="none" stroke-width="1" fill="none" fill-rule="evenodd">
        <g id="moon-top" transform="translate(0.000000, -3.000000)" fill-rule="nonzero">
            <g transform="translate(0.000000, 55.000000)" id="Welcome" fill="#6157D9">
                <g>
                    <g id="Desktop-HD">
                        <g id="Group">
                            <path d="M3014,218 C3014,218 2339.29312,0.914062 1507,0.914062 C674.706882,0.914062 -2.72848411e-12,218 -2.72848411e-12,218 L3014,218 L3014,218 Z" id="Oval-5"></path>
                        </g>
                    </g>
                </g>
            </g>
            <g id="Group-2" transform="translate(2044.816268, 70.447643) rotate(1.000000) translate(-2044.816268, -70.447643) translate(1674.816268, 6.447643)">
                <polygon id="Path-78" fill="#6157D9" points="1.13686838e-12 63.7579033 195.951993 -1.70530257e-13 274.947063 40.320947 349.660232 15.9207601 385.80376 37.4026861 469.678514 12.4770847 739.503272 127.515807"></polygon>
                <polygon id="Path-79" fill="#E4F5FD" points="60.3169575 54.6348703 196.260985 10.1464516 215.206972 19.4050664"></polygon>
                <polygon id="Path-79" fill="#E4F5FD" points="285.604306 42.2166527 349.262824 22.4539898 361.559908 29.2928056"></polygon>
                <polygon id="Path-79" fill="#E4F5FD" points="404.838498 36.87026 469.489564 18.8749708 487.044816 25.8629123"></polygon>
            </g>
        </g>
    </g>
</svg>