<?xml version="1.0" encoding="utf-8"?>
<!-- Generator: Adobe Illustrator 16.0.0, SVG Export Plug-In . SVG Version: 6.00 Build 0)  -->
<!DOCTYPE svg PUBLIC "-//W3C//DTD SVG 1.1//EN" "http://www.w3.org/Graphics/SVG/1.1/DTD/svg11.dtd">
<svg version="1.1" id="Layer_1" xmlns="http://www.w3.org/2000/svg" xmlns:xlink="http://www.w3.org/1999/xlink" x="0px" y="0px"
	 width="796px" height="1127.195px" viewBox="0 0 796 1127.195" enable-background="new 0 0 796 1127.195" xml:space="preserve">
<polygon fill="#D2F7F6" points="629.201,0 0,369.35 0,1030.971 166.645,1127.195 796,765.008 796,96.225 "/>
<polygon fill="#A1F7F0" points="166,454.809 166,1127.195 796,765.008 796,96.225 "/>
<g>
	<g>
		<g enable-background="new    ">
			<defs>
				<polygon id="SVGID_1_" enable-background="new    " points="471.649,866.369 469.184,828.092 527.567,813.535 530.033,851.812 
									"/>
			</defs>
			<clipPath id="SVGID_2_">
				<use xlink:href="#SVGID_1_"  overflow="visible"/>
			</clipPath>
			<g clip-path="url(#SVGID_2_)">
				<g>
					<g>
						<g>
							<path fill="#5F4D37" d="M498.376,820.813c-16.124,4.021-28.642,15.841-27.96,26.409
								c0.681,10.576,14.302,15.888,30.426,11.868c16.124-4.021,28.64-15.849,27.958-26.426
								C528.119,822.097,514.5,816.794,498.376,820.813"/>
						</g>
					</g>
				</g>
			</g>
		</g>
	</g>
</g>
<g>
	<g>
		<g enable-background="new    ">
			<defs>
				<polygon id="SVGID_3_" enable-background="new    " points="408.304,866.109 394.843,657.157 590.913,608.271 604.374,817.224 
									"/>
			</defs>
			<clipPath id="SVGID_4_">
				<use xlink:href="#SVGID_3_"  overflow="visible"/>
			</clipPath>
			<g clip-path="url(#SVGID_4_)">
				<g>
					<g>
						<g>
							<path fill="#B87FD9" d="M513.033,627.689l-40.128,10.005c-7.064,14.146-16.833,28.803-30.203,40.495
								c-26.414,23.792-42.752,58.25-40.558,92.306c3.401,52.809,50.053,84.671,104.194,71.172
								c54.149-13.501,95.277-67.249,91.876-120.059c-2.194-34.064-22.384-59.405-50.98-69.482l-0.174-0.061
								C532.879,647.338,521.654,637.934,513.033,627.689"/>
						</g>
					</g>
				</g>
			</g>
		</g>
	</g>
</g>
<g>
	<g>
		<g enable-background="new    ">
			<defs>
				<polygon id="SVGID_5_" enable-background="new    " points="421.643,644.723 406.035,402.455 482.103,383.489 497.709,625.758 
									"/>
			</defs>
			<clipPath id="SVGID_6_">
				<use xlink:href="#SVGID_5_"  overflow="visible"/>
			</clipPath>
			<g clip-path="url(#SVGID_6_)">
				<g>
					<g>
						<g>
							<path fill="#5EAC24" d="M440.337,393.902c-3.307,0.825-6.453,3.047-8.757,6.307c-7.141,10.104-15.758,22.102-18.099,25.117
								c-1.081,1.124-2.041,2.436-2.839,3.898c-3.07,5.656-3.079,12.43-0.015,17.07c27.441,41.524,59.949,172.563,60.273,173.886
								c1.67,6.78,7.46,10.401,13.66,8.855c0.483-0.12,0.97-0.272,1.457-0.456l0.211-0.079c6.803-2.699,11.375-10.812,10.461-18.551
								c-14.467-121.992-41.844-204.873-43.005-208.34c-1.57-4.698-5.287-7.755-9.809-8.04
								C442.697,393.494,441.507,393.611,440.337,393.902"/>
						</g>
					</g>
				</g>
			</g>
		</g>
	</g>
</g>
<g>
	<g>
		<g enable-background="new    ">
			<defs>
				<polygon id="SVGID_7_" enable-background="new    " points="450.033,641.491 434.426,399.225 484.565,386.723 500.173,628.99 
									"/>
			</defs>
			<clipPath id="SVGID_8_">
				<use xlink:href="#SVGID_7_"  overflow="visible"/>
			</clipPath>
			<g clip-path="url(#SVGID_8_)">
				<g>
					<g>
						<g>
							<path fill="#4E901E" d="M442.81,397.134c-2.119,0.528-4.17,1.631-5.977,3.206c-0.333,37.292,2.234,79.057,5.654,117.234
								c17.03,50.012,30.661,104.985,30.87,105.84c1.677,6.778,7.468,10.399,13.667,8.854c0.484-0.12,0.971-0.272,1.458-0.457
								l0.211-0.079c6.803-2.698,11.375-10.812,10.461-18.55c-14.468-121.992-41.845-204.873-43.005-208.34
								c-1.571-4.699-5.287-7.755-9.809-8.04C445.163,396.727,443.976,396.844,442.81,397.134"/>
						</g>
					</g>
				</g>
			</g>
		</g>
	</g>
</g>
<g>
	<g>
		<g enable-background="new    ">
			<defs>
				<polygon id="SVGID_9_" enable-background="new    " points="474.094,653.108 454.494,348.858 507.694,335.594 527.294,639.844 
									"/>
			</defs>
			<clipPath id="SVGID_10_">
				<use xlink:href="#SVGID_9_"  overflow="visible"/>
			</clipPath>
			<g clip-path="url(#SVGID_10_)">
				<g>
					<g>
						<g>
							<path fill="#6DC82A" d="M472.939,344.26c-1.643,0.409-3.264,1.208-4.752,2.376c-3.395,2.66-5.688,6.9-6.146,11.364
								c-9.995,97.141,16.917,273.827,18.067,281.306c1.04,6.746,6.49,10.685,12.548,9.174c0.168-0.042,0.337-0.088,0.506-0.138
								l0.067-0.025c6.218-1.899,10.774-8.928,10.394-16.042c-7.756-144.113,5.98-263.698,6.118-264.891
								c0.696-5.892-1.905-11.1-6.459-12.946L479.1,344.63C477.163,343.848,475.033,343.737,472.939,344.26"/>
						</g>
					</g>
				</g>
			</g>
		</g>
	</g>
</g>
<g>
	<g>
		<g enable-background="new    ">
			<defs>
				<polygon id="SVGID_11_" enable-background="new    " points="474.496,653.396 455.924,365.091 508.288,352.035 526.86,640.34 
									"/>
			</defs>
			<clipPath id="SVGID_12_">
				<use xlink:href="#SVGID_11_"  overflow="visible"/>
			</clipPath>
			<g clip-path="url(#SVGID_12_)">
				<g>
					<g>
						<g>
							<path fill="#5EAC24" d="M500.498,353.977c-9.141,23.913-16.51,50.399-21.977,79.087
								c-5.729,30.105-9.416,62.812-10.943,97.203c-0.153,3.333-0.28,6.625-0.379,9.857c5.479,53.798,11.924,96.103,12.477,99.678
								c1.04,6.746,6.49,10.685,12.548,9.174c0.168-0.042,0.337-0.088,0.505-0.138l0.068-0.025
								c6.217-1.899,10.773-8.928,10.394-16.041c-7.756-144.114,5.979-263.699,6.118-264.892c0.688-5.89-1.906-11.1-6.459-12.946
								L500.498,353.977"/>
						</g>
					</g>
				</g>
			</g>
		</g>
	</g>
</g>
<g>
	<g>
		<g enable-background="new    ">
			<defs>
				<polygon id="SVGID_13_" enable-background="new    " points="496.121,649.651 477.119,354.675 576.161,329.981 595.163,624.957 
									"/>
			</defs>
			<clipPath id="SVGID_14_">
				<use xlink:href="#SVGID_13_"  overflow="visible"/>
			</clipPath>
			<g clip-path="url(#SVGID_14_)">
				<g>
					<g>
						<g>
							<path fill="#A4E276" d="M543.821,338.044l-0.045,0.011c-3.933,0.998-7.466,4.11-9.46,8.347
								c-13.086,27.79-23.262,60.45-30.231,97.07c-5.505,28.933-9.047,60.436-10.526,93.638
								c-2.516,56.375,1.732,97.764,1.914,99.497c0.727,6.87,5.919,11.25,12.059,10.173c0.258-0.048,0.517-0.103,0.773-0.167
								c5.785-1.442,10.494-7.419,11.079-14.215c7.933-92.53,23.062-154.43,34.354-190.053
								c11.935-37.674,22.205-54.661,22.741-55.527c3.692-5.67,3.649-12.895,0.016-17.409l-22.459-28.001
								C551.555,338.322,547.739,337.068,543.821,338.044"/>
						</g>
					</g>
				</g>
			</g>
		</g>
	</g>
</g>
<g>
	<g>
		<g enable-background="new    ">
			<defs>
				<polygon id="SVGID_15_" enable-background="new    " points="400.657,856.078 387.196,647.126 502.8,618.303 516.261,827.255 
									"/>
			</defs>
			<clipPath id="SVGID_16_">
				<use xlink:href="#SVGID_15_"  overflow="visible"/>
			</clipPath>
			<g clip-path="url(#SVGID_16_)">
				<g>
					<g>
						<g>
							<path fill="#933EC5" d="M500.395,618.902l-35.136,8.761c-7.064,14.146-16.833,28.794-30.203,40.495
								c-26.406,23.79-42.752,58.24-40.558,92.305c3.402,52.81,50.053,84.671,104.195,71.172c5.998-1.495,11.839-3.492,17.47-5.916
								c-46.282,3.338-83.503-27.059-86.528-74.016c-2.194-34.065,14.151-68.516,40.559-92.306
								C483.562,647.696,493.33,633.05,500.395,618.902"/>
						</g>
					</g>
				</g>
			</g>
		</g>
	</g>
</g>
<g>
	<g>
		<g enable-background="new    ">
			<defs>
				<polygon id="SVGID_17_" enable-background="new    " points="451.034,824.366 437.981,621.754 553.452,592.963 566.505,795.576 
									"/>
			</defs>
			<clipPath id="SVGID_18_">
				<use xlink:href="#SVGID_17_"  overflow="visible"/>
			</clipPath>
			<g clip-path="url(#SVGID_18_)">
				<g>
					<g>
						<g>
							<path fill="#D5B4E8" d="M533.816,681.43c-1.27,0.317-2.529,1.043-3.616,2.175c-2.967,3.102-3.537,8.072-1.261,11.096
								c5.952,7.938,16.524,24.626,20.473,47.271c0.667,3.791,3.764,5.93,7.136,5.089c0.272-0.067,0.544-0.161,0.807-0.261
								c3.681-1.424,6.074-5.899,5.364-9.993c-4.252-24.382-14.868-42.454-23.021-53.32
								C538.258,681.561,536.021,680.88,533.816,681.43"/>
							<path fill="#D5B4E8" d="M456.471,722.911c-2.696,0.672-5.122,3.149-5.977,6.427c-3.693,14.23-4.521,28.802-2.465,43.307
								c0.552,3.923,3.704,6.206,7.175,5.341c0.196-0.049,0.385-0.105,0.58-0.171c3.69-1.286,6.212-5.681,5.622-9.822
								c-1.722-12.183-1.046-24.354,2.027-36.181c1.115-4.278-0.881-8.304-4.452-8.982
								C458.144,722.668,457.294,722.705,456.471,722.911"/>
							<path fill="#D5B4E8" d="M498.721,688.899c-3.729,0.93-6.533,5.114-6.26,9.353l6.847,106.286
								c0.273,4.237,3.52,6.914,7.248,5.984c3.736-0.931,6.54-5.116,6.267-9.354l-6.847-106.285
								C505.702,690.645,502.457,687.968,498.721,688.899"/>
							<path fill="#D5B4E8" d="M493.27,607.969c-6.422,1.601-9.973,9.817-10.326,10.768c-0.21,0.559-0.42,1.116-0.63,1.674
								c-5.464,14.298-13.691,30.809-25.815,45.137l13.536,23.209l25.811-17.661l27.405,3.513l12.89-29.406
								c-13.632-8.229-23.769-20.658-30.856-32.043C505.283,613.158,500.816,606.087,493.27,607.969"/>
						</g>
					</g>
				</g>
			</g>
		</g>
	</g>
</g>
<g>
	<g>
		<g enable-background="new    ">
			<defs>
				<polygon id="SVGID_19_" enable-background="new    " points="459.564,678.274 455.245,611.225 512.986,596.828 517.306,663.878 
									"/>
			</defs>
			<clipPath id="SVGID_20_">
				<use xlink:href="#SVGID_19_"  overflow="visible"/>
			</clipPath>
			<g clip-path="url(#SVGID_20_)">
				<g>
					<g>
						<g>
							<path fill="#B87FD9" d="M495.086,601.292c-6.422,1.601-9.974,9.809-10.326,10.768c-0.21,0.558-0.42,1.116-0.63,1.674
								c-5.464,14.298-13.691,30.809-25.815,45.136l10.045,17.212c4.118-5.019,8.624-9.751,13.468-14.114
								c14.848-12.984,25.248-29.61,32.446-45.15c-2.706-3.482-5.115-7.014-7.243-10.449
								C506.438,605.504,502.089,599.546,495.086,601.292"/>
						</g>
					</g>
				</g>
			</g>
		</g>
	</g>
</g>
</svg>
