<?xml version="1.0" encoding="utf-8"?>
<!-- Generator: Adobe Illustrator 16.0.0, SVG Export Plug-In . SVG Version: 6.00 Build 0)  -->
<!DOCTYPE svg PUBLIC "-//W3C//DTD SVG 1.1//EN" "http://www.w3.org/Graphics/SVG/1.1/DTD/svg11.dtd">
<svg version="1.1" id="Layer_1" xmlns="http://www.w3.org/2000/svg" xmlns:xlink="http://www.w3.org/1999/xlink" x="0px" y="0px"
	 width="796px" height="1127.195px" viewBox="0 0 796 1127.195" enable-background="new 0 0 796 1127.195" xml:space="preserve">
<polygon fill="#D2F7F6" points="629.201,0 0,369.35 0,879.857 0,1012.827 0,1030.971 166.645,1127.195 287.733,1056.162 
	796,765.008 796,757.846 796,114.367 796,96.225 "/>
<polygon fill="#A1F7F0" points="166,454.809 166,1127.195 796,765.008 796,96.225 "/>
<g>
	<g>
		<g enable-background="new    ">
			<defs>
				<polygon id="SVGID_1_" enable-background="new    " points="329.511,841.623 303.149,432.399 627.884,351.434 654.246,760.657 
									"/>
			</defs>
			<clipPath id="SVGID_2_">
				<use xlink:href="#SVGID_1_"  overflow="visible"/>
			</clipPath>
			<g clip-path="url(#SVGID_2_)">
				<g>
					<g>
						<g>
							<path fill="#FF9477" d="M493.071,800.838c-0.055,0.014-0.11,0.028-0.167,0.043
								C492.96,800.867,493.018,800.852,493.071,800.838 M494.203,800.543c-0.096,0.024-0.191,0.05-0.286,0.075
								C494.01,800.594,494.11,800.566,494.203,800.543 M495.265,800.258c-0.113,0.03-0.229,0.062-0.342,0.093
								C495.037,800.319,495.15,800.288,495.265,800.258 M496.33,799.965c-0.137,0.038-0.274,0.076-0.412,0.114
								C496.059,800.04,496.189,800.004,496.33,799.965 M497.358,799.675c-0.152,0.043-0.305,0.087-0.457,0.13
								C497.053,799.763,497.207,799.718,497.358,799.675 M498.4,799.374c-0.175,0.052-0.35,0.102-0.524,0.151
								C498.05,799.476,498.228,799.425,498.4,799.374 M499.43,799.069c-0.206,0.062-0.411,0.122-0.618,0.184
								C499.017,799.192,499.225,799.131,499.43,799.069 M500.456,798.76c-0.246,0.074-0.492,0.148-0.739,0.224
								C499.965,798.908,500.209,798.834,500.456,798.76 M506.891,777.298c-2.783,0.694-5.327-1.095-5.844-4.226
								c-0.547-3.358,1.448-6.994,4.456-8.128c21.212-7.938,41.433-21.242,58.465-38.468c0.873-0.882,1.872-1.448,2.879-1.699
								c1.832-0.457,3.692,0.13,4.863,1.756c1.813,2.521,1.292,6.582-1.176,9.079c-18.374,18.579-40.18,32.933-63.049,41.502
								C507.29,777.182,507.087,777.249,506.891,777.298 M586.654,714.832c-1.489,0.372-3.023,0.065-4.198-1.001
								c-2.229-2.033-2.341-6.032-0.245-8.935c4.373-6.075,8.417-12.471,12.015-19.016c0.991-1.805,2.536-3,4.146-3.401
								c1.22-0.304,2.478-0.154,3.561,0.53c2.515,1.577,3.14,5.432,1.392,8.604c-3.899,7.1-8.286,14.042-13.04,20.632
								C589.298,713.624,587.993,714.499,586.654,714.832 M523.071,468.898c-0.001,0.001-0.001,0.003-0.002,0.004
								c4.749-0.464,9.438-0.618,14.048-0.475c19.589,14.474,31.318,32.172,38.342,48.281c0,0,2.82,6.095-1.349,9.959
								c-1.078,0.996-2.109,1.539-3.063,1.777c-3.494,0.871-5.963-2.342-5.963-2.342c-19.258-24.337-41.991-34.467-60.221-38.461
								c-0.333,0.224-0.668,0.445-1.006,0.663c-7.104,4.583-14.057,7.063-19.438,8.405c-1.158,0.289-2.243,0.525-3.242,0.717
								c0,0.001,0,0.001,0,0.001c-3.688,0.711-6.2,0.84-6.799,0.858c-1.965,0.066-3.771-0.479-5.28-1.502
								c-0.499,0.005-0.998-0.029-1.49-0.104c-0.016-0.002-0.032-0.005-0.048-0.008c-0.039-0.006-0.077-0.012-0.116-0.019
								c-0.014-0.002-0.027-0.005-0.041-0.007c-0.095-0.017-0.19-0.035-0.286-0.055c-0.025-0.005-0.051-0.012-0.077-0.017
								c-0.028-0.006-0.057-0.012-0.086-0.019c-0.042-0.01-0.085-0.02-0.126-0.03c-0.012-0.003-0.023-0.006-0.036-0.009
								c-0.036-0.009-0.072-0.019-0.108-0.028c-0.019-0.004-0.036-0.009-0.054-0.014c-0.017-0.004-0.031-0.009-0.048-0.013
								c-0.093-0.025-0.184-0.052-0.275-0.08c-0.054-0.017-0.107-0.034-0.161-0.051c-0.395-0.131-4.375-1.486-9.486-4.715
								c-35.578,22.765-62.749,61.785-73.468,105.683c-6.627,27.146-4.687,57.144-4.687,57.144
								c5.699,84.18,67.121,140.024,143.227,136.25c-6.88,3.127-13.954,5.823-21.188,8.042
								c85.327-26.152,148.52-118.542,142.571-210.877c-0.04-0.505-1.875-28.993-11.34-51.37
								C612.563,491.07,570.954,464.202,523.071,468.898 M445.056,487.402c1.648-0.283,3.29-0.528,4.926-0.738l-0.002-0.001
								C448.345,486.873,446.703,487.119,445.056,487.402 M444.103,487.571c0.308-0.056,0.614-0.11,0.921-0.163
								C444.717,487.461,444.41,487.515,444.103,487.571 M443.124,487.751c0.306-0.058,0.612-0.114,0.918-0.169
								C443.736,487.637,443.431,487.693,443.124,487.751 M442.266,487.917c0.283-0.056,0.568-0.111,0.852-0.165
								C442.834,487.806,442.55,487.861,442.266,487.917 M441.307,488.11c0.263-0.054,0.526-0.107,0.789-0.16
								C441.833,488.002,441.569,488.056,441.307,488.11 M440.289,488.323c0.259-0.056,0.518-0.11,0.776-0.163
								C440.807,488.213,440.547,488.268,440.289,488.323 M439.426,488.512c0.226-0.05,0.45-0.1,0.676-0.148
								C439.876,488.413,439.651,488.462,439.426,488.512 M438.441,488.735c0.256-0.059,0.512-0.117,0.768-0.175
								C438.953,488.618,438.697,488.676,438.441,488.735 M437.41,488.978c0.262-0.063,0.524-0.125,0.787-0.186
								C437.935,488.853,437.673,488.915,437.41,488.978 M436.393,489.226c0.278-0.069,0.557-0.137,0.835-0.205
								C436.949,489.089,436.671,489.157,436.393,489.226 M436.357,489.235c-54.489,13.586-98.805,63.901-113.245,123.049
								c-6.635,27.141-4.695,57.137-4.694,57.146c6.439,95.074,83.974,154.021,173.457,131.711
								c-89.467,22.307-167.002-36.641-173.434-131.717c0-0.009-1.94-30.005,4.687-57.144
								c14.446-59.146,58.753-109.458,113.238-123.047C436.363,489.233,436.36,489.234,436.357,489.235"/>
							<path fill="#FF6243" d="M523.069,468.902c-4.808,7.557-10.909,13.838-18.206,18.739
								c18.229,3.994,40.963,14.124,60.221,38.461c0,0,2.469,3.213,5.963,2.342c0.954-0.238,1.985-0.781,3.063-1.777
								c4.169-3.864,1.349-9.959,1.349-9.959c-7.023-16.108-18.753-33.807-38.342-48.281
								C532.507,468.284,527.818,468.438,523.069,468.902"/>
							<path fill="#FF6243" d="M436.373,489.231c-0.004,0-0.004,0-0.007,0.001c-54.485,13.589-98.792,63.901-113.238,123.047
								c-6.627,27.139-4.688,57.135-4.687,57.144c6.432,95.076,83.967,154.023,173.449,131.714c0.339-0.085,0.677-0.17,1.015-0.257
								c0.057-0.015,0.112-0.029,0.167-0.043c0.282-0.073,0.564-0.146,0.846-0.22c0.095-0.025,0.19-0.051,0.286-0.075
								c0.24-0.063,0.48-0.128,0.72-0.192c0.113-0.031,0.229-0.062,0.342-0.093c0.219-0.06,0.436-0.119,0.653-0.179
								c0.138-0.038,0.275-0.076,0.412-0.114c0.19-0.053,0.381-0.106,0.571-0.16c0.152-0.043,0.305-0.087,0.457-0.13
								c0.174-0.049,0.345-0.099,0.518-0.149c0.175-0.05,0.35-0.1,0.524-0.151c0.137-0.041,0.274-0.081,0.411-0.121
								c0.207-0.062,0.412-0.122,0.618-0.184c0.096-0.028,0.191-0.058,0.287-0.086c0.247-0.075,0.493-0.149,0.739-0.224
								c0.029-0.01,0.059-0.019,0.087-0.027c7.233-2.219,14.308-4.915,21.188-8.042c-76.106,3.774-137.528-52.07-143.227-136.25
								c0,0-1.94-29.997,4.687-57.144c10.719-43.898,37.89-82.917,73.468-105.683c-2.092-1.321-4.373-2.956-6.677-4.95
								c-1.636,0.209-3.277,0.455-4.926,0.738c-0.011,0.002-0.021,0.004-0.032,0.006c-0.307,0.053-0.613,0.107-0.921,0.163
								c-0.021,0.003-0.04,0.007-0.061,0.011c-0.306,0.055-0.612,0.112-0.918,0.169c-0.002,0.001-0.004,0.001-0.007,0.001
								c-0.283,0.054-0.568,0.109-0.852,0.165c-0.057,0.011-0.113,0.022-0.17,0.033c-0.263,0.052-0.526,0.106-0.789,0.16
								c-0.082,0.017-0.16,0.033-0.241,0.05c-0.259,0.053-0.518,0.107-0.776,0.163c-0.062,0.014-0.125,0.027-0.188,0.041
								c-0.226,0.049-0.45,0.098-0.676,0.148c-0.072,0.016-0.145,0.032-0.217,0.048c-0.256,0.058-0.512,0.116-0.768,0.175
								c-0.082,0.019-0.163,0.038-0.244,0.057c-0.263,0.061-0.525,0.123-0.787,0.186c-0.062,0.015-0.121,0.029-0.183,0.044
								c-0.278,0.067-0.557,0.135-0.835,0.205C436.386,489.228,436.379,489.229,436.373,489.231"/>
							<path fill="#FF6243" d="M598.372,682.479c-1.61,0.401-3.155,1.597-4.146,3.401c-3.598,6.545-7.642,12.94-12.015,19.016
								c-2.096,2.902-1.983,6.901,0.245,8.935c1.175,1.066,2.709,1.373,4.198,1.001c1.339-0.333,2.644-1.208,3.63-2.587
								c4.754-6.59,9.141-13.532,13.04-20.632c1.748-3.172,1.123-7.026-1.392-8.604C600.85,682.325,599.592,682.176,598.372,682.479
								"/>
							<path fill="#FF6243" d="M566.847,724.777c-1.007,0.251-2.006,0.817-2.879,1.699c-17.032,17.226-37.253,30.53-58.465,38.468
								c-3.008,1.134-5.003,4.77-4.456,8.128c0.517,3.131,3.061,4.92,5.844,4.226c0.196-0.049,0.399-0.116,0.595-0.184
								c22.869-8.569,44.675-22.923,63.049-41.502c2.468-2.497,2.989-6.559,1.176-9.079
								C570.539,724.907,568.679,724.32,566.847,724.777"/>
							<path fill="#6DC82A" d="M467.607,496.679c0.492,0.075,0.991,0.109,1.49,0.104c-0.001,0-0.001,0-0.001,0
								C468.599,496.788,468.1,496.754,467.607,496.679 M467.443,496.652c0.039,0.007,0.077,0.013,0.116,0.019
								C467.521,496.665,467.482,496.659,467.443,496.652 M467.116,496.59c0.096,0.02,0.191,0.038,0.286,0.055
								C467.308,496.628,467.212,496.61,467.116,496.59 M466.953,496.554c0.029,0.007,0.058,0.013,0.086,0.019
								C467.011,496.567,466.982,496.561,466.953,496.554 M466.791,496.516c0.013,0.003,0.024,0.005,0.036,0.009
								C466.815,496.521,466.804,496.519,466.791,496.516 M466.629,496.474c0.018,0.005,0.035,0.009,0.054,0.014
								C466.664,496.483,466.646,496.479,466.629,496.474 M466.306,496.38c0.092,0.028,0.183,0.055,0.275,0.08
								C466.488,496.435,466.397,496.409,466.306,496.38 M480.264,412.648c2.713,3.289,5.245,7.106,7.302,11.495
								c0.001,0,0.002-0.001,0.003-0.002C485.511,419.752,482.978,415.937,480.264,412.648 M479.965,412.289
								c0.098,0.117,0.195,0.233,0.292,0.352C480.16,412.523,480.062,412.405,479.965,412.289 M479.655,411.923
								c0.089,0.103,0.177,0.208,0.265,0.312C479.832,412.131,479.744,412.026,479.655,411.923 M479.348,411.565
								c0.077,0.089,0.154,0.179,0.231,0.268C479.502,411.744,479.425,411.654,479.348,411.565 M479.095,411.276
								c0.042,0.047,0.082,0.094,0.124,0.142C479.178,411.37,479.136,411.323,479.095,411.276 M478.823,410.969
								c0.012,0.014,0.024,0.028,0.037,0.042C478.848,410.996,478.836,410.983,478.823,410.969 M478.502,410.611L478.502,410.611
								L478.502,410.611 M452.074,395.269c-3.52,0.877-6.848,3.612-8.799,7.625c-10.922,22.395-13.945,42.369-8.994,59.368
								c3.271,11.239,9.562,19.092,15.698,24.402l0.002,0.001c2.304,1.994,4.585,3.628,6.677,4.95
								c5.111,3.229,9.092,4.583,9.486,4.715c-0.745-0.25-14.267-4.863-24.071-18.211c0.589-17.806,5.034-34.106,13.304-48.632
								c4.97-8.734,11.301-16.615,18.652-23.32c-7.928-7.112-15.516-10.292-16.1-10.534
								C456.055,394.867,454.034,394.78,452.074,395.269"/>
							<path fill="#5EAC24" d="M474.03,406.165C474.03,406.165,474.029,406.165,474.03,406.165
								c-7.353,6.706-13.684,14.586-18.653,23.321c-8.27,14.526-12.715,30.826-13.304,48.632
								c9.805,13.349,23.326,17.961,24.071,18.211c0.054,0.018,0.107,0.035,0.161,0.051c0.092,0.028,0.183,0.055,0.275,0.08
								c0.017,0.004,0.031,0.009,0.048,0.013c0.018,0.005,0.035,0.009,0.054,0.014c0.036,0.01,0.072,0.02,0.108,0.028
								c0.013,0.003,0.024,0.005,0.036,0.009c0.041,0.01,0.084,0.02,0.126,0.03c0.029,0.007,0.058,0.013,0.086,0.019
								c0.026,0.005,0.052,0.012,0.077,0.017c0.096,0.02,0.191,0.038,0.286,0.055c0.014,0.002,0.027,0.005,0.041,0.007
								c0.039,0.007,0.077,0.013,0.116,0.019c0.016,0.002,0.032,0.006,0.048,0.008c0.492,0.075,0.991,0.109,1.489,0.104
								c-2.431-1.647-4.099-4.531-4.443-8.101c-0.109-1.13-0.2-2.245-0.273-3.344c-2.134-32.208,11.321-51.016,23.186-61.194
								c-2.057-4.389-4.589-8.207-7.302-11.495c-0.001-0.002-0.004-0.006-0.007-0.008c-0.097-0.119-0.194-0.235-0.292-0.352
								c-0.016-0.018-0.029-0.036-0.045-0.053c-0.088-0.104-0.176-0.209-0.265-0.312c-0.025-0.03-0.052-0.06-0.076-0.09
								c-0.077-0.089-0.154-0.179-0.231-0.268c-0.043-0.049-0.086-0.099-0.129-0.148c-0.042-0.047-0.082-0.095-0.124-0.142
								c-0.078-0.088-0.156-0.177-0.234-0.266c-0.013-0.014-0.025-0.027-0.037-0.042c-0.107-0.12-0.214-0.238-0.32-0.357l-0.001,0
								C477.029,408.985,475.523,407.505,474.03,406.165"/>
							<path fill="#91DC5A" d="M535.443,421.145c-0.003,1.244-0.023,2.478-0.059,3.698c-0.382,0.088-0.777,0.183-1.185,0.285
								c-5.793,1.444-14.059,4.263-22.427,9.655c-12.187,7.859-31.609,26.177-30.597,62.645c0.999-0.194,2.084-0.43,3.242-0.719
								c5.382-1.342,12.334-3.821,19.438-8.405c0.338-0.218,0.673-0.439,1.006-0.663c7.297-4.9,13.398-11.182,18.206-18.739
								c0.001-0.001,0.001-0.002,0.002-0.004c1.142-1.794,2.21-3.659,3.203-5.594C532.342,451.477,535.427,437.305,535.443,421.145
								 M527.601,407.754c4.292,0.792,7.454,4.676,7.789,9.912C535.059,412.432,531.895,408.546,527.601,407.754"/>
							<path fill="#6DC82A" d="M517.246,409.088c-5.793,1.444-14.076,4.262-22.457,9.665c-2.223,1.433-4.686,3.214-7.221,5.389
								c-0.001,0-0.002,0.001-0.003,0.002c-11.864,10.179-25.319,28.986-23.186,61.194c0.073,1.099,0.164,2.214,0.273,3.344
								c0.558,5.788,4.596,9.776,9.725,9.604c0.599-0.018,3.11-0.147,6.799-0.858c-1.013-36.468,18.41-54.786,30.597-62.645
								c8.368-5.392,16.634-8.21,22.427-9.655c0.407-0.102,0.803-0.196,1.185-0.285c0.035-1.22,0.056-2.454,0.059-3.698
								c0.002-0.949-0.006-1.904-0.027-2.865c-0.004-0.207-0.014-0.412-0.026-0.614c-0.335-5.236-3.497-9.12-7.789-9.912
								c-0.825-0.152-1.693-0.19-2.59-0.102C524.349,407.715,521.454,408.039,517.246,409.088"/>
						</g>
					</g>
				</g>
			</g>
		</g>
	</g>
</g>
</svg>
