<?xml version="1.0" encoding="UTF-8" standalone="no"?>
<svg width="484px" height="678px" viewBox="0 0 484 678" version="1.1" xmlns="http://www.w3.org/2000/svg" xmlns:xlink="http://www.w3.org/1999/xlink">
    <!-- Generator: Sketch 43.1 (39012) - http://www.bohemiancoding.com/sketch -->
    <title>receipt_2_</title>
    <desc>Created with Sketch.</desc>
    <defs>
        <polygon id="path-1" points="0.942 624.843 2.678 0.491 485.604 262.698 483.869 887.05"></polygon>
        <path d="M65.951,35.571 L72.031,44.504 L77.052,41.621 L82.022,49.944 L87.043,47.061 L92.021,55.388 L98.143,53.103 L97.872,127.013 L97.421,247.958 L91.335,239.021 L86.314,241.913 L81.343,233.581 L76.322,236.472 L71.345,228.138 L65.222,230.423 L65.673,109.485 L65.951,35.571 M33.615,54.995 L33.748,18.039 L27.625,20.323 L22.648,11.996 L17.627,14.881 L12.656,6.557 L7.635,9.44 L1.55,0.502 L1.278,74.412 L0.826,195.358 L6.949,193.073 L11.927,201.409 L16.941,198.513 L21.919,206.848 L26.94,203.956 L33.025,212.894 L33.248,152.419 L33.025,212.894 L39.148,210.609 L44.126,218.937 L49.146,216.052 L54.117,224.376 L59.138,221.493 L65.224,230.423 L65.675,109.485 L65.953,35.571 L59.824,37.86 L54.847,29.525 L49.832,32.42 L44.855,24.085 L39.834,26.976 L33.748,18.039 L33.615,54.995" id="path-3"></path>
        <polyline id="path-5" points="0.383 182.445 133.054 313.945 190.545 132.057 57.873 0.557 0.383 182.445"></polyline>
        <polyline id="path-7" points="0.383 182.445 133.054 313.945 190.545 132.057 57.873 0.557 0.383 182.445"></polyline>
        <polyline id="path-9" points="0.383 182.445 133.054 313.945 190.545 132.057 57.873 0.557 0.383 182.445"></polyline>
        <polyline id="path-11" points="0.383 182.445 133.054 313.945 190.545 132.057 57.873 0.557 0.383 182.445"></polyline>
        <polyline id="path-13" points="0.383 182.445 133.054 313.945 190.545 132.057 57.873 0.557 0.383 182.445"></polyline>
        <polyline id="path-15" points="0.383 182.445 133.054 313.945 190.545 132.057 57.873 0.557 0.383 182.445"></polyline>
        <polyline id="path-17" points="0.383 182.445 133.054 313.945 190.545 132.057 57.873 0.557 0.383 182.445"></polyline>
        <polyline id="path-19" points="0.927 10.059 9.92 18.974 13.066 9.023 4.074 0.109 0.927 10.059"></polyline>
        <polyline id="path-21" points="0.303 0.647 7.688 4.666 7.655 14.211 0.27 10.186 0.303 0.647"></polyline>
        <polyline id="path-23" points="0.703 10.842 10.15 20.2 13.449 9.754 4.003 0.388 0.703 10.842"></polyline>
        <polyline id="path-25" points="0.383 182.445 133.054 313.945 190.545 132.057 57.873 0.557 0.383 182.445"></polyline>
        <polyline id="path-27" points="0.754 32.559 66.642 97.861 76.706 66.007 10.818 0.704 0.754 32.559"></polyline>
        <polyline id="path-29" points="0.214 0.131 71.206 38.794 71.167 48.336 0.175 9.673 0.214 0.131"></polyline>
        <polyline id="path-31" points="0.45 32.582 66.786 98.332 76.936 66.233 10.595 0.488 0.45 32.582"></polyline>
        <polyline id="path-33" points="0.383 182.445 133.054 313.945 190.545 132.057 57.873 0.557 0.383 182.445"></polyline>
        <polyline id="path-35" points="0.83 10.327 9.822 19.234 12.969 9.285 3.978 0.371 0.83 10.327"></polyline>
        <polyline id="path-37" points="0.248 0.041 7.627 4.056 7.595 13.603 0.209 9.583 0.248 0.041"></polyline>
        <polyline id="path-39" points="0.527 10.351 9.967 19.713 13.193 9.508 3.753 0.146 0.527 10.351"></polyline>
        <polyline id="path-41" points="0.383 182.445 133.054 313.945 190.545 132.057 57.873 0.557 0.383 182.445"></polyline>
        <polyline id="path-43" points="0.788 7.05 8.885 15.07 11.009 8.355 2.912 0.335 0.788 7.05"></polyline>
        <polyline id="path-45" points="0.129 0.055 7.508 4.069 7.493 9.311 0.107 5.285 0.129 0.055"></polyline>
        <polyline id="path-47" points="0.261 7.851 8.806 16.326 11.083 9.105 2.544 0.641 0.261 7.851"></polyline>
        <polyline id="path-49" points="0.383 182.445 133.054 313.945 190.545 132.057 57.873 0.557 0.383 182.445"></polyline>
        <polyline id="path-51" points="0.657 31.819 66.545 97.122 76.529 65.522 10.642 0.219 0.657 31.819"></polyline>
        <polyline id="path-53" points="0.159 0.525 71.146 39.185 71.112 48.723 0.121 10.067 0.159 0.525"></polyline>
        <polyline id="path-55" points="0.434 32.596 66.545 98.122 76.609 66.268 10.498 0.74 0.434 32.596"></polyline>
        <polyline id="path-57" points="0.383 182.445 133.054 313.945 190.545 132.057 57.873 0.557 0.383 182.445"></polyline>
        <polyline id="path-59" points="0.16 0.815 83.063 45.962 83.052 48.112 0.154 2.97 0.16 0.815"></polyline>
        <polyline id="path-61" points="0.147 30.643 75.252 105.084 84.851 74.727 9.741 0.282 0.147 30.643"></polyline>
    </defs>
    <g id="Page-1" stroke="none" stroke-width="1" fill="none" fill-rule="evenodd">
        <g id="space" transform="translate(-8652.000000, -1542.000000)">
            <g id="receipt_2_" transform="translate(8651.000000, 1437.000000)">
                <g id="Clipped">
                    <mask id="mask-2" fill="white">
                        <use xlink:href="#path-1"></use>
                    </mask>
                    <g id="SVGID_56_"></g>
                    <g id="Group" mask="url(#mask-2)">
                        <g transform="translate(1.000000, 105.000000)">
                            <path d="M241.618,573.27 C193.172,546.965 147.688,497.84 113.555,434.951 C79.415,372.059 60.711,302.925 60.885,240.281 C61.059,177.646 80.09,129 114.476,103.306 C148.857,77.617 194.475,77.955 242.922,104.26 C291.375,130.569 336.859,179.694 370.992,242.583 C405.132,305.482 423.836,374.617 423.662,437.252 C423.488,499.896 404.457,548.542 370.071,574.228 C335.69,599.917 290.072,599.578 241.618,573.27 M243.138,26.593 C109.787,-45.81 1.289,35.252 0.811,207.662 C0.332,380.072 108.052,578.541 241.403,650.944 C374.76,723.351 483.258,642.28 483.737,469.87 C484.216,297.46 376.495,99 243.138,26.593" id="Shape" fill="#FF60A2" fill-rule="nonzero" opacity="0.702"></path>
                            <path d="M241.887,476.623 C183.098,444.703 135.435,356.886 135.646,280.872 C135.857,204.858 183.865,168.995 242.654,200.915 C301.45,232.839 349.113,320.646 348.902,396.66 C348.69,472.675 300.684,508.547 241.887,476.623 M242.873,121.666 C198.026,97.315 155.793,97.002 123.961,120.787 C92.134,144.568 74.515,189.603 74.354,247.593 C74.193,305.583 91.509,369.587 123.108,427.814 C154.712,486.034 196.82,531.514 241.668,555.865 C286.522,580.219 328.755,580.532 360.588,556.755 C392.42,532.969 410.033,487.93 410.194,429.941 C410.355,371.951 393.045,307.951 361.44,249.73 C329.835,191.5 287.729,146.02 242.873,121.666" id="Shape" fill="#FF60A2" fill-rule="nonzero" opacity="0.9098"></path>
                            <path d="M241.667,555.864 C196.819,531.513 154.712,486.033 123.107,427.813 C91.508,369.586 74.192,305.583 74.353,247.592 C74.514,189.603 92.133,144.568 123.96,120.786 C155.792,97.001 198.025,97.314 242.872,121.665 C287.727,146.019 329.834,191.499 361.438,249.727 C393.042,307.948 410.353,371.948 410.192,429.938 C410.031,487.927 392.418,532.966 360.586,556.752 C328.754,580.531 286.521,580.218 241.667,555.864 M242.922,104.26 C194.475,77.955 148.857,77.616 114.476,103.306 C80.09,128.999 61.059,177.646 60.885,240.281 C60.711,302.925 79.415,372.059 113.555,434.951 C147.689,497.841 193.172,546.966 241.618,573.27 C290.072,599.579 335.69,599.917 370.071,574.228 C404.457,548.542 423.488,499.896 423.662,437.252 C423.836,374.617 405.132,305.482 370.992,242.583 C336.858,179.693 291.375,130.568 242.922,104.26" id="Shape" fill="#FF60A2" fill-rule="nonzero"></path>
                            <path d="M196.637,221.439 L201.658,218.556 L206.629,226.88 L211.65,223.995 L216.627,232.322 L222.75,230.038 L228.836,238.975 L233.857,236.084 L238.834,244.419 L243.849,241.524 L248.826,249.859 L254.955,247.57 L261.035,256.503 L266.056,253.62 L271.026,261.943 L276.047,259.06 L281.025,267.387 L287.147,265.102 L286.876,339.012 L286.425,459.957 L280.339,451.02 L275.318,453.912 L270.347,445.58 L265.326,448.471 L260.349,440.137 L254.226,442.422 L248.14,433.492 L243.119,436.375 L238.148,428.051 L233.128,430.936 L228.15,422.608 L222.027,424.893 L215.942,415.955 L210.921,418.847 L205.943,410.512 L200.929,413.408 L195.951,405.072 L190.529,407.095 L191.251,213.528 L196.637,221.439 M242.604,218.32 C191.237,190.429 149.292,221.771 149.108,288.181 C148.923,354.6 190.568,431.327 241.935,459.216 C293.309,487.111 335.253,455.769 335.438,389.35 C335.623,322.94 293.979,246.214 242.604,218.32" id="Shape" fill="#FF60A2" fill-rule="nonzero" opacity="0.9725"></path>
                            <path d="M241.936,459.217 C190.569,431.327 148.924,354.601 149.109,288.182 C149.294,221.772 191.238,190.43 242.605,218.321 C293.979,246.215 335.624,322.941 335.439,389.351 C335.254,455.77 293.31,487.111 241.936,459.217 M242.653,200.915 C183.864,168.995 135.856,204.858 135.645,280.872 C135.434,356.886 183.097,444.703 241.886,476.623 C300.683,508.547 348.69,472.675 348.901,396.66 C349.112,320.646 301.449,232.839 242.653,200.915" id="Shape" fill="#FF60A2" fill-rule="nonzero"></path>
                            <g id="Clipped" stroke-width="1" fill="none" fill-rule="evenodd" transform="translate(189.000000, 212.000000)">
                                <mask id="mask-4" fill="white">
                                    <use xlink:href="#path-3"></use>
                                </mask>
                                <g id="SVGID_58_"></g>
                                <g mask="url(#mask-4)">
                                    <g transform="translate(-46.000000, -33.000000)">
                                        <mask id="mask-6" fill="white">
                                            <use xlink:href="#path-5"></use>
                                        </mask>
                                        <g id="SVGID_60_" stroke="none" fill="none"></g>
                                        <path d="M97.182,232.288 C96.134,231.719 95.301,232.326 95.286,233.675 C95.27,235.027 96.115,236.597 97.164,237.166 C97.168,237.168 97.172,237.17 97.175,237.172 C98.205,237.724 99.044,237.089 99.048,235.741 C99.051,234.386 98.224,232.854 97.182,232.288 M86.379,195.592 L86.288,195.629 L86.36,195.778 L86.458,195.728 L86.379,195.592 M66.948,176.607 C65.912,176.045 65.066,176.676 65.056,178.012 C65.052,179.352 65.891,180.906 66.927,181.468 L66.939,181.474 C67.982,182.04 68.821,181.433 68.836,180.104 C68.847,178.729 68.015,177.187 66.948,176.607 M127.609,209.544 C126.555,208.98 125.722,209.595 125.718,210.949 C125.708,212.294 126.523,213.811 127.576,214.398 C127.588,214.405 127.598,214.412 127.609,214.417 C128.642,214.979 129.495,214.344 129.492,212.992 C129.49,211.656 128.646,210.107 127.609,209.544 M95.075,187.923 C94.95,187.856 94.812,187.87 94.653,188.019 C91.976,190.465 89.287,192.904 86.598,195.334 C86.67,195.491 86.743,195.648 86.816,195.806 C89.092,195.457 91.386,195.165 93.627,194.726 C93.986,194.656 94.286,194.666 94.566,194.818 C94.906,195.003 95.216,195.395 95.571,196.103 C96.602,198.178 97.787,200.17 98.855,202.233 C99.09,202.686 99.275,202.946 99.456,203.045 C99.65,203.15 99.84,203.07 100.085,202.847 C102.573,200.526 105.11,198.287 107.616,195.999 C107.756,195.863 108.054,195.829 107.855,195.187 C105.579,195.537 103.302,195.798 101.104,196.26 C100.678,196.354 100.324,196.349 99.995,196.17 C99.601,195.956 99.243,195.495 98.84,194.662 C97.857,192.629 96.715,190.683 95.634,188.7 C95.454,188.369 95.281,188.035 95.075,187.923 M97.4,153.862 C96.351,153.293 95.5,153.933 95.503,155.295 C95.505,156.653 96.332,158.178 97.374,158.743 C98.422,159.312 99.255,158.697 99.265,157.346 C99.281,156.005 98.449,154.447 97.412,153.868 C97.408,153.866 97.404,153.864 97.4,153.862 M121.111,154.701 L120.985,156.264 C121.404,156.398 121.617,156.215 121.618,155.706 C121.619,155.526 121.57,155.343 121.48,155.184 C121.39,155.025 121.263,154.862 121.111,154.701 M131.395,159.979 C131.249,159.901 131.127,159.866 131.031,159.86 C130.933,159.863 130.855,159.891 130.795,159.944 C130.74,160.008 130.697,160.087 130.666,160.204 C130.642,160.316 130.63,160.45 130.629,160.607 C130.629,160.749 130.64,160.887 130.67,161.03 C130.7,161.163 130.748,161.3 130.809,161.426 C130.87,161.545 130.948,161.658 131.045,161.765 C131.141,161.873 131.256,161.959 131.39,162.032 C131.523,162.104 131.632,162.14 131.729,162.137 C131.826,162.143 131.906,162.108 131.972,162.058 C132.034,161.996 132.082,161.921 132.106,161.809 C132.137,161.7 132.156,161.577 132.156,161.436 C132.157,161.288 132.145,161.139 132.115,160.99 C132.092,160.852 132.049,160.719 131.995,160.594 C131.934,160.476 131.855,160.363 131.76,160.255 C131.66,160.155 131.539,160.058 131.395,159.979 M120.647,151.272 C120.532,151.233 120.435,151.212 120.35,151.213 C120.271,151.209 120.21,151.231 120.156,151.264 L120.046,151.416 C120.027,151.484 120.016,151.556 120.016,151.643 C120.015,151.838 120.064,152.021 120.154,152.189 C120.251,152.367 120.378,152.53 120.529,152.698 L120.647,151.272 M135.819,159.479 C135.716,159.423 135.613,159.399 135.509,159.414 C135.412,159.432 135.321,159.5 135.241,159.638 C135.162,159.783 135.1,159.992 135.051,160.287 C135.002,160.573 134.977,160.969 134.976,161.471 C134.974,161.963 134.997,162.384 135.044,162.724 C135.092,163.072 135.152,163.347 135.231,163.578 C135.302,163.798 135.394,163.973 135.496,164.099 C135.594,164.215 135.697,164.31 135.8,164.366 C135.903,164.423 136.006,164.439 136.109,164.432 C136.213,164.417 136.303,164.341 136.383,164.203 C136.462,164.066 136.529,163.851 136.578,163.564 C136.628,163.278 136.653,162.882 136.654,162.381 C136.655,161.88 136.633,161.468 136.585,161.12 C136.543,160.783 136.478,160.496 136.399,160.273 C136.321,160.049 136.23,159.876 136.128,159.749 C136.025,159.622 135.922,159.534 135.819,159.479 M125.338,153.748 C125.216,153.683 125.113,153.658 125.016,153.66 C124.925,153.666 124.846,153.693 124.78,153.751 C124.719,153.82 124.671,153.903 124.634,154.01 C124.597,154.122 124.578,154.254 124.578,154.403 C124.576,155.124 124.829,155.615 125.345,155.902 C125.599,156.04 125.793,156.044 125.927,155.921 C126.068,155.801 126.134,155.577 126.135,155.257 C126.136,155.077 126.118,154.918 126.076,154.762 C126.04,154.609 125.985,154.47 125.913,154.336 C125.847,154.214 125.763,154.097 125.659,153.994 C125.562,153.901 125.452,153.818 125.338,153.748 M131.408,156.967 C131.287,156.901 131.184,156.868 131.105,156.872 C131.02,156.873 130.954,156.907 130.904,156.959 C130.849,157.008 130.813,157.083 130.789,157.179 C130.765,157.268 130.752,157.371 130.752,157.481 C130.752,157.606 130.763,157.731 130.781,157.866 C130.799,157.993 130.829,158.112 130.877,158.232 C130.926,158.352 130.991,158.459 131.076,158.559 C131.161,158.661 131.269,158.75 131.397,158.82 C131.531,158.892 131.639,158.921 131.724,158.912 C131.809,158.903 131.87,158.865 131.919,158.799 C131.967,158.731 132.004,158.649 132.023,158.54 C132.042,158.433 132.047,158.311 132.048,158.186 C132.048,158.077 132.036,157.96 132.018,157.848 C131.995,157.726 131.958,157.619 131.904,157.503 C131.856,157.399 131.784,157.297 131.705,157.199 C131.621,157.105 131.523,157.029 131.408,156.967 M116.387,241.132 C116.205,241.026 116.012,240.778 115.898,240.426 C115.778,240.078 115.79,239.787 115.943,239.612 C116.022,239.521 116.119,239.465 116.222,239.419 C118.178,238.621 119.948,237.464 121.553,235.975 C121.755,235.788 121.968,235.757 122.167,235.865 C122.315,235.946 122.456,236.105 122.578,236.336 C122.843,236.825 122.842,237.248 122.55,237.521 C121.674,238.333 120.756,239.074 119.777,239.695 C118.884,240.269 117.948,240.742 116.976,241.147 C116.817,241.208 116.666,241.283 116.387,241.132 M111.51,227.579 L111.491,227.537 L111.515,227.526 L111.539,227.563 L111.51,227.579 M126.497,231.561 C126.375,231.495 126.246,231.37 126.13,231.203 C125.894,230.862 125.743,230.467 125.871,230.168 C126.244,229.279 126.629,228.406 127.038,227.554 C127.134,227.358 127.306,227.306 127.514,227.418 C127.582,227.455 127.655,227.51 127.73,227.584 C128.02,227.867 128.159,228.209 128.188,228.734 C127.815,229.662 127.46,230.74 126.864,231.522 C126.773,231.634 126.641,231.639 126.497,231.561 M122.985,230.936 C122.924,230.904 122.861,230.857 122.793,230.794 C122.509,230.53 122.357,230.157 122.353,229.764 C122.348,229.501 122.464,229.353 122.561,229.194 C123.275,228.044 123.92,226.81 124.477,225.456 C125.192,223.703 125.749,221.802 126.162,219.758 C126.186,219.607 126.211,219.455 126.261,219.333 C126.378,219.048 126.564,218.942 126.839,219.092 C126.879,219.113 126.921,219.141 126.965,219.174 C127.286,219.419 127.479,219.868 127.465,220.419 C127.391,220.794 127.305,221.266 127.2,221.719 C126.414,225.174 125.211,228.177 123.583,230.722 C123.434,230.959 123.245,231.077 122.985,230.936 M122.031,225.909 C121.941,225.86 121.849,225.781 121.757,225.674 C121.419,225.278 121.323,224.787 121.494,224.339 L121.524,224.261 C122.598,222.035 123.376,219.508 123.864,216.698 C123.943,216.202 124.195,216.023 124.498,216.188 C124.525,216.203 124.553,216.22 124.581,216.241 C124.914,216.476 125.155,216.984 125.148,217.458 C124.981,218.435 124.778,219.424 124.539,220.384 C124.06,222.297 123.418,224.051 122.638,225.658 C122.491,225.959 122.27,226.039 122.031,225.909 M129.681,220.602 C129.339,220.416 129.062,219.911 129.057,219.462 C129.058,219.031 129.331,218.812 129.664,218.984 C129.668,218.986 129.672,218.987 129.676,218.99 C130.023,219.178 130.312,219.701 130.311,220.142 C130.31,220.565 130.042,220.781 129.704,220.613 C129.695,220.609 129.688,220.605 129.681,220.602 M127.622,216.08 C127.589,216.062 127.557,216.045 127.525,216.025 C125.797,215.025 124.385,212.36 124.439,210.223 C124.499,208.009 125.906,206.968 127.576,207.875 C127.615,207.896 127.654,207.919 127.693,207.941 C129.431,208.971 130.807,211.586 130.753,213.76 C130.693,215.961 129.299,216.991 127.622,216.08 M126.281,200.641 C125.947,200.46 125.67,199.956 125.665,199.522 C125.66,199.07 125.94,198.833 126.275,199.014 C126.279,199.016 126.282,199.018 126.285,199.02 C126.619,199.201 126.896,199.712 126.907,200.142 C126.912,200.599 126.626,200.828 126.281,200.641 M124.567,204.645 C124.287,204.493 124.032,204.081 123.961,203.602 C123.74,202.157 123.532,200.717 123.202,199.245 C123.028,198.444 122.837,197.635 122.657,196.83 C122.507,196.168 122.636,195.791 123,195.816 C123.076,195.818 123.151,195.839 123.224,195.878 C123.485,196.02 123.71,196.39 123.846,196.918 C124.435,199.238 124.859,201.524 125.18,203.802 C125.192,203.902 125.192,204.003 125.198,204.046 C125.197,204.57 124.977,204.797 124.644,204.679 C124.618,204.669 124.592,204.658 124.567,204.645 M129.713,207.326 C129.435,207.176 129.194,206.805 129.123,206.343 C128.927,205.106 128.778,203.88 128.575,202.64 C128.247,200.594 127.798,198.538 127.257,196.472 C127.203,196.27 127.15,196.076 127.108,195.881 C126.964,195.237 127.105,194.86 127.475,194.888 C127.541,194.893 127.608,194.914 127.672,194.95 C127.928,195.088 128.161,195.442 128.291,195.919 C129.095,199 129.742,202.057 130.135,205.063 C130.211,205.647 130.289,206.23 130.355,206.72 C130.353,207.261 130.122,207.489 129.788,207.363 C129.763,207.352 129.737,207.34 129.713,207.326 M124.396,193.438 C124.386,193.432 124.375,193.426 124.365,193.419 C124.02,193.216 123.742,192.665 123.761,192.229 C123.785,191.839 124.073,191.636 124.382,191.804 C124.392,191.809 124.402,191.815 124.412,191.821 C124.757,192.025 125.022,192.552 125.003,193.006 C124.985,193.412 124.717,193.61 124.396,193.438 M120.912,190.31 C120.748,190.221 120.596,190.049 120.486,189.791 C119.967,188.553 119.455,187.309 118.961,186.053 C118.78,185.593 118.897,185.201 119.17,185.122 C119.28,185.089 119.403,185.105 119.524,185.171 C119.697,185.265 119.866,185.457 119.994,185.742 C120.542,186.95 121.042,188.185 121.494,189.428 C121.548,189.568 121.56,189.715 121.578,189.819 C121.553,190.19 121.431,190.39 121.182,190.381 C121.092,190.381 121.001,190.357 120.912,190.31 M123.929,185.823 C123.926,185.821 123.922,185.819 123.919,185.817 C123.568,185.627 123.296,185.103 123.304,184.651 C123.312,184.209 123.573,184.021 123.924,184.212 C124.276,184.403 124.559,184.926 124.546,185.374 C124.532,185.777 124.246,185.995 123.929,185.823 M116.065,180.008 C115.725,179.816 115.454,179.323 115.449,178.882 C115.444,178.429 115.73,178.203 116.065,178.385 C116.068,178.386 116.072,178.388 116.076,178.39 C116.421,178.585 116.705,179.124 116.691,179.564 C116.684,179.991 116.398,180.189 116.065,180.008 M121.694,186.301 C121.495,186.194 121.325,185.955 121.189,185.669 C120.766,184.758 120.356,183.829 119.922,182.918 C119.301,181.616 118.624,180.338 117.936,179.078 C117.744,178.723 117.641,178.369 117.739,178.069 C117.837,177.8 118.025,177.707 118.292,177.828 C118.312,177.836 118.331,177.846 118.351,177.856 C118.571,177.975 118.742,178.23 118.898,178.517 C119.851,180.283 120.775,182.062 121.607,183.911 C121.788,184.307 121.969,184.704 122.144,185.104 C122.252,185.351 122.348,185.6 122.331,185.793 C122.323,186.213 122.171,186.389 121.904,186.361 C121.83,186.358 121.761,186.337 121.694,186.301 M116.71,172.48 C116.56,172.398 116.395,172.239 116.227,172.007 C115.556,171.062 114.885,170.117 114.22,169.168 C113.954,168.795 113.859,168.406 113.956,168.066 C114.042,167.76 114.248,167.692 114.625,167.88 C114.628,167.881 114.632,167.884 114.636,167.886 C114.715,167.929 114.843,168.074 114.969,168.256 C115.628,169.186 116.293,170.111 116.947,171.047 C117.327,171.598 117.411,172.138 117.179,172.412 C117.061,172.563 116.896,172.582 116.71,172.48 M128.271,161.477 C128.173,161.424 128.088,161.362 128.003,161.269 C127.925,161.187 127.853,161.084 127.792,160.981 C127.731,160.871 127.689,160.753 127.653,160.632 C127.618,160.51 127.605,160.394 127.605,160.277 C127.606,160.16 127.619,160.056 127.655,159.974 C127.691,159.892 127.741,159.824 127.796,159.783 C127.857,159.738 127.93,159.715 128.008,159.718 C128.093,159.718 128.178,159.74 128.275,159.793 C128.372,159.846 128.463,159.918 128.542,160.008 C128.621,160.098 128.693,160.193 128.754,160.303 C128.814,160.415 128.862,160.528 128.899,160.65 C128.928,160.768 128.947,160.887 128.947,161.004 C128.946,161.122 128.927,161.222 128.891,161.304 C128.861,161.397 128.811,161.456 128.75,161.502 C128.689,161.539 128.616,161.563 128.537,161.559 C128.452,161.559 128.368,161.528 128.271,161.477 M135.796,165.586 C135.5,165.425 135.227,165.206 134.979,164.922 C134.731,164.638 134.513,164.292 134.333,163.889 C134.152,163.493 134.008,163.03 133.906,162.519 C133.804,162.001 133.758,161.427 133.759,160.8 C133.761,160.173 133.818,159.662 133.922,159.256 C134.026,158.85 134.173,158.553 134.355,158.346 C134.539,158.148 134.756,158.038 135.005,158.024 C135.26,158.021 135.532,158.099 135.823,158.256 C136.12,158.418 136.392,158.637 136.647,158.923 C136.895,159.199 137.112,159.545 137.299,159.952 C137.48,160.348 137.624,160.811 137.726,161.33 C137.828,161.848 137.88,162.418 137.879,163.045 C137.871,163.668 137.82,164.183 137.716,164.588 C137.607,164.991 137.459,165.289 137.278,165.495 C137.089,165.698 136.87,165.799 136.622,165.814 C136.365,165.824 136.093,165.747 135.796,165.586 M131.385,163.183 C131.088,163.022 130.817,162.827 130.574,162.593 C130.331,162.36 130.126,162.099 129.951,161.823 C129.776,161.54 129.643,161.24 129.547,160.922 C129.457,160.614 129.409,160.297 129.41,159.968 C129.41,159.78 129.43,159.603 129.46,159.447 C129.496,159.295 129.552,159.167 129.625,159.066 C129.704,158.967 129.801,158.895 129.916,158.84 C130.038,158.796 130.178,158.778 130.348,158.799 C130.094,158.512 129.907,158.198 129.786,157.874 C129.665,157.542 129.599,157.192 129.6,156.824 C129.607,156.545 129.651,156.31 129.742,156.125 C129.828,155.936 129.955,155.793 130.113,155.707 C130.277,155.623 130.466,155.584 130.689,155.611 C130.908,155.627 131.151,155.713 131.411,155.853 C131.672,155.995 131.914,156.173 132.133,156.394 C132.351,156.614 132.544,156.853 132.7,157.119 C132.857,157.377 132.984,157.649 133.068,157.938 C133.159,158.222 133.2,158.503 133.199,158.786 C133.198,159.154 133.137,159.434 133.009,159.632 C132.888,159.824 132.699,159.926 132.444,159.937 C132.608,160.104 132.753,160.278 132.868,160.45 C132.989,160.626 133.086,160.804 133.158,160.992 C133.23,161.172 133.291,161.362 133.32,161.552 C133.356,161.743 133.374,161.941 133.374,162.129 C133.373,162.449 133.323,162.722 133.226,162.927 C133.134,163.144 132.995,163.287 132.818,163.38 C132.648,163.477 132.435,163.502 132.193,163.473 C131.949,163.441 131.676,163.34 131.385,163.183 M124.916,156.783 C124.734,156.684 124.553,156.539 124.371,156.361 C124.195,156.179 124.033,155.966 123.882,155.712 C123.736,155.46 123.622,155.179 123.532,154.871 C123.441,154.562 123.394,154.23 123.395,153.87 C123.396,153.55 123.445,153.269 123.537,153.03 C123.635,152.793 123.768,152.614 123.939,152.487 C124.109,152.359 124.315,152.299 124.558,152.305 C124.794,152.308 125.062,152.39 125.358,152.551 C125.656,152.712 125.921,152.919 126.158,153.166 C126.393,153.411 126.594,153.692 126.756,153.993 C126.92,154.292 127.046,154.621 127.137,154.959 C127.221,155.304 127.262,155.647 127.261,155.999 C127.26,156.242 127.247,156.455 127.217,156.643 C127.186,156.838 127.143,157.011 127.094,157.172 C127.039,157.33 126.978,157.478 126.899,157.608 C126.826,157.741 126.74,157.867 126.649,157.982 L125.449,159.536 C125.394,159.599 125.315,159.635 125.207,159.639 C125.098,159.651 124.97,159.613 124.837,159.54 L123.746,158.948 L125.517,157.187 L125.621,157.078 L125.713,156.978 C125.597,156.995 125.476,156.984 125.337,156.947 C125.201,156.914 125.062,156.862 124.916,156.783 M121.544,149.586 L121.463,150.516 C121.735,150.726 121.972,150.964 122.171,151.214 C122.364,151.468 122.533,151.716 122.673,151.956 L122.38,152.347 C122.338,152.41 122.289,152.439 122.246,152.455 C122.203,152.471 122.149,152.457 122.089,152.424 L121.949,152.317 C121.9,152.268 121.846,152.207 121.786,152.142 C121.726,152.077 121.659,152.002 121.586,151.924 C121.52,151.849 121.441,151.767 121.368,151.703 L121.223,153.374 C121.345,153.488 121.466,153.601 121.592,153.724 C121.714,153.845 121.828,153.97 121.944,154.103 C122.053,154.233 122.162,154.371 122.258,154.517 C122.355,154.664 122.44,154.82 122.511,154.984 C122.584,155.149 122.638,155.32 122.68,155.507 C122.722,155.694 122.74,155.885 122.739,156.096 C122.738,156.409 122.695,156.676 122.616,156.908 C122.53,157.136 122.409,157.313 122.25,157.439 C122.093,157.565 121.898,157.625 121.674,157.636 C121.444,157.644 121.182,157.588 120.886,157.45 L120.835,158.043 C120.829,158.134 120.799,158.195 120.744,158.244 C120.682,158.281 120.61,158.281 120.525,158.235 L120.088,157.998 L120.169,157.022 C119.879,156.802 119.601,156.542 119.334,156.239 C119.068,155.938 118.845,155.629 118.663,155.31 L119.028,154.826 L119.156,154.755 L119.32,154.78 C119.381,154.813 119.447,154.873 119.508,154.945 C119.568,155.025 119.641,155.112 119.714,155.214 C119.792,155.312 119.87,155.417 119.962,155.529 C120.046,155.63 120.149,155.74 120.264,155.842 L120.415,154.056 C120.227,153.892 120.052,153.718 119.869,153.526 C119.688,153.34 119.525,153.134 119.38,152.899 C119.234,152.671 119.12,152.413 119.03,152.128 C118.94,151.843 118.898,151.53 118.899,151.179 C118.899,150.919 118.943,150.684 119.022,150.485 C119.108,150.281 119.223,150.124 119.381,150.005 C119.539,149.896 119.734,149.844 119.964,149.836 C120.189,149.832 120.449,149.91 120.746,150.071 L120.79,149.539 C120.797,149.448 120.833,149.39 120.888,149.341 C120.943,149.292 121.016,149.301 121.107,149.35 L121.544,149.586 M111.951,68.571 L111.839,98.434 L138.206,112.793 L138.167,122.335 L111.803,107.977 L111.782,113.826 L138.146,128.184 L138.113,137.722 L111.746,123.365 L111.696,136.602 L138.064,150.961 L138.052,153.111 L111.688,138.755 L111.673,142.484 L111.563,172.157 C111.673,172.076 111.826,172.071 111.994,172.163 C112.002,172.167 112.009,172.171 112.015,172.176 C112.343,172.368 112.62,172.896 112.619,173.32 C112.617,173.769 112.332,173.965 111.98,173.773 C111.976,173.771 111.972,173.769 111.968,173.766 C111.805,173.67 111.661,173.508 111.558,173.318 L111.496,189.592 C113.869,195.027 115.176,200.972 114.874,206.458 C114.625,211.034 113.354,214.53 111.395,216.861 L111.32,236.894 C111.436,236.875 111.553,236.86 111.677,236.871 C111.757,236.877 111.834,236.901 111.907,236.94 C112.111,237.051 112.283,237.286 112.403,237.61 C112.577,238.074 112.551,238.468 112.266,238.555 C111.957,238.649 111.638,238.711 111.312,238.753 L111.22,263.422 L117.343,261.137 L122.32,269.471 L127.341,266.58 L132.312,274.912 L137.333,272.02 L143.419,280.957 L143.87,160.012 L144.141,86.102 L138.019,88.387 L133.041,80.06 L128.02,82.943 L123.05,74.62 L118.029,77.503 L111.951,68.571 M79.748,51.039 L79.641,80.898 L111.839,98.434 L111.951,68.571 L105.822,70.86 L100.845,62.525 L95.83,65.42 L90.853,57.085 L85.832,59.976 L79.748,51.039 M104.714,238.355 C104.708,238.352 104.702,238.348 104.695,238.344 C104.343,238.146 104.078,237.624 104.091,237.169 C104.111,236.737 104.378,236.548 104.706,236.727 C104.709,236.728 104.713,236.731 104.717,236.733 C105.069,236.931 105.353,237.486 105.333,237.914 C105.314,238.312 105.022,238.522 104.714,238.355 M89.408,233.372 C89.344,233.337 89.275,233.289 89.205,233.229 C88.612,232.71 88.014,232.181 87.432,231.63 C85.58,229.879 83.789,227.982 82.06,225.912 C81.588,225.342 81.438,224.735 81.706,224.433 C81.844,224.272 82.007,224.252 82.19,224.352 C82.305,224.414 82.429,224.525 82.56,224.677 C83.492,225.763 84.423,226.842 85.391,227.855 C86.692,229.228 88.017,230.489 89.373,231.665 C89.724,231.973 90.032,232.328 90.061,232.847 C90.066,233.378 89.784,233.576 89.408,233.372 M89.444,230.002 C89.379,229.967 89.31,229.917 89.239,229.851 C88.41,229.087 87.593,228.314 86.782,227.522 C86.455,227.203 86.293,226.776 86.367,226.354 C86.434,225.983 86.653,225.898 86.986,226.04 C87.058,226.095 87.143,226.165 87.228,226.242 C88.003,226.969 88.771,227.691 89.54,228.43 C89.976,228.856 90.162,229.411 89.997,229.792 C89.878,230.06 89.684,230.132 89.444,230.002 M97.153,238.792 C95.424,237.854 94,235.224 94.006,232.996 C94.012,230.785 95.466,229.709 97.16,230.629 C97.171,230.635 97.181,230.641 97.192,230.647 C98.913,231.605 100.313,234.186 100.326,236.42 C100.332,238.65 98.896,239.732 97.163,238.798 C97.16,238.796 97.156,238.794 97.153,238.792 M102.134,234.303 C102.125,234.298 102.117,234.294 102.11,234.289 C101.765,234.086 101.499,233.589 101.501,233.158 C101.502,232.723 101.806,232.508 102.142,232.689 C102.145,232.691 102.148,232.693 102.152,232.695 C102.497,232.898 102.763,233.426 102.743,233.886 C102.729,234.309 102.467,234.483 102.134,234.303 M82.304,222.352 C82.297,222.348 82.289,222.344 82.283,222.339 C81.931,222.141 81.66,221.609 81.679,221.164 C81.699,220.745 81.972,220.554 82.296,220.729 C82.304,220.733 82.311,220.737 82.317,220.742 C82.669,220.948 82.934,221.477 82.921,221.925 C82.901,222.337 82.628,222.527 82.304,222.352 M77.835,220.119 C77.73,220.061 77.621,219.964 77.52,219.824 C76.752,218.756 76.028,217.609 75.357,216.429 C75.116,216.007 75.123,215.509 75.348,215.341 C75.486,215.233 75.646,215.21 75.811,215.3 C75.922,215.36 76.037,215.472 76.148,215.643 C76.861,216.736 77.555,217.842 78.256,218.953 C78.389,219.158 78.449,219.403 78.448,219.622 C78.456,220.1 78.158,220.294 77.835,220.119 M107.056,235.21 C106.808,235.075 106.6,234.766 106.496,234.389 C106.371,233.912 106.487,233.552 106.827,233.532 C107.621,233.494 108.416,233.463 109.223,233.477 C109.296,233.478 109.37,233.5 109.444,233.54 C109.769,233.717 110.053,234.231 110.057,234.69 C110.05,235.062 109.898,235.23 109.649,235.244 C108.873,235.27 108.101,235.291 107.319,235.282 C107.229,235.28 107.14,235.255 107.056,235.21 M78.059,216.308 C77.955,216.251 77.849,216.155 77.755,216.014 C76.993,214.903 76.305,213.704 75.664,212.479 C75.435,212.041 75.461,211.662 75.685,211.447 C75.805,211.331 75.967,211.32 76.134,211.411 C76.263,211.48 76.393,211.61 76.509,211.8 C77.186,212.913 77.838,214.036 78.496,215.154 C78.623,215.372 78.677,215.606 78.688,215.784 C78.688,216.278 78.375,216.48 78.059,216.308 M72.189,210.259 C72,210.155 71.807,209.918 71.637,209.554 C71.13,208.471 70.642,207.374 70.147,206.283 C69.972,205.905 69.918,205.554 70.042,205.292 C70.151,205.061 70.346,205.009 70.612,205.139 C70.831,205.273 71.006,205.509 71.15,205.824 C71.632,206.901 72.128,207.978 72.609,209.049 C72.893,209.681 72.874,210.11 72.576,210.27 C72.455,210.336 72.323,210.331 72.189,210.259 M73.503,202.087 C73.499,202.084 73.495,202.082 73.491,202.08 C73.158,201.883 72.886,201.374 72.893,200.948 C72.9,200.525 73.187,200.305 73.514,200.483 C73.524,200.488 73.534,200.495 73.543,200.501 C73.87,200.693 74.154,201.232 74.153,201.647 C74.146,202.086 73.861,202.281 73.503,202.087 M67.888,199.599 C67.694,199.494 67.532,199.274 67.438,198.997 C66.968,197.683 66.578,196.357 66.266,195.034 C66.163,194.594 66.311,194.337 66.602,194.306 C66.708,194.3 66.816,194.327 66.915,194.38 C67.1,194.481 67.26,194.678 67.346,194.954 C67.773,196.291 68.152,197.634 68.542,198.975 L68.554,199.139 C68.541,199.516 68.383,199.689 68.104,199.663 C68.028,199.659 67.956,199.636 67.888,199.599 M71.347,202.669 C71.134,202.554 70.926,202.281 70.785,201.898 C70.448,200.985 70.117,200.076 69.822,199.163 C68.961,196.507 68.234,193.853 67.683,191.2 C67.517,190.408 67.762,189.972 68.282,190.254 C68.286,190.257 68.289,190.258 68.293,190.261 C68.603,190.468 68.777,190.853 68.885,191.319 C69.167,192.571 69.448,193.83 69.784,195.088 C70.319,197.089 70.944,199.075 71.655,201.054 C71.733,201.269 71.811,201.484 71.878,201.7 C72.059,202.268 71.954,202.675 71.633,202.727 C71.54,202.742 71.443,202.722 71.347,202.669 M65.277,188.78 C65.027,188.644 64.788,188.307 64.714,187.908 C64.475,186.64 64.308,185.396 64.195,184.175 C64.155,183.714 64.385,183.493 64.701,183.586 C64.745,183.599 64.789,183.616 64.833,183.64 C65.098,183.784 65.348,184.138 65.409,184.536 C65.593,185.765 65.748,186.994 65.92,188.241 C65.938,188.682 65.754,188.912 65.428,188.837 C65.377,188.827 65.327,188.808 65.277,188.78 M70.492,191.348 C70.232,191.207 69.973,190.838 69.894,190.408 C69.721,189.474 69.584,188.56 69.435,187.64 C69.386,187.339 69.339,187.039 69.316,186.744 C69.281,186.302 69.488,186.03 69.809,186.117 C69.865,186.133 69.919,186.156 69.97,186.183 C70.228,186.324 70.43,186.611 70.504,186.996 C70.761,188.281 70.873,189.534 71.118,190.672 C71.123,191.255 70.91,191.485 70.595,191.393 C70.562,191.382 70.527,191.366 70.492,191.348 M66.927,183.124 C65.221,182.197 63.809,179.596 63.796,177.353 C63.79,175.122 65.226,174.034 66.952,174.963 C66.959,174.967 66.967,174.971 66.973,174.975 C68.684,175.904 70.121,178.561 70.11,180.766 C70.097,182.979 68.674,184.049 66.96,183.142 C66.949,183.136 66.938,183.13 66.927,183.124 M66.109,166.15 C65.757,165.959 65.473,165.428 65.481,164.977 C65.494,164.569 65.786,164.358 66.107,164.532 C66.111,164.535 66.114,164.537 66.118,164.539 C66.465,164.727 66.736,165.248 66.722,165.698 C66.722,166.137 66.448,166.335 66.109,166.15 M69.271,166.282 C68.93,166.097 68.641,165.567 68.648,165.129 C68.649,164.713 68.941,164.487 69.262,164.654 C69.265,164.656 69.269,164.657 69.273,164.659 C69.607,164.841 69.891,165.368 69.89,165.818 C69.888,166.249 69.615,166.468 69.282,166.288 C69.278,166.286 69.275,166.284 69.271,166.282 M70.717,171.761 C70.649,171.724 70.575,171.668 70.499,171.593 C70.197,171.304 70.052,170.935 70.065,170.441 C70.151,170.119 70.255,169.736 70.372,169.36 C70.801,167.906 71.333,166.563 71.948,165.304 C72.121,164.949 72.343,164.838 72.592,164.973 C72.678,165.02 72.768,165.096 72.86,165.202 C73.229,165.622 73.324,166.169 73.087,166.643 C72.391,168.045 71.822,169.581 71.362,171.238 C71.32,171.387 71.271,171.533 71.197,171.642 C71.075,171.826 70.911,171.866 70.717,171.761 M68.113,161.089 C68.103,161.084 68.093,161.077 68.083,161.071 C67.75,160.867 67.484,160.346 67.491,159.919 C67.499,159.484 67.79,159.28 68.127,159.463 C68.134,159.467 68.142,159.471 68.148,159.476 C68.468,159.673 68.741,160.205 68.733,160.625 C68.727,161.055 68.44,161.267 68.113,161.089 M71.629,161.633 C71.292,161.449 71.014,160.946 71.009,160.503 C71.004,160.068 71.267,159.842 71.606,160.011 C71.617,160.016 71.627,160.022 71.637,160.028 C71.969,160.208 72.253,160.721 72.264,161.162 C72.269,161.58 71.99,161.805 71.662,161.65 C71.65,161.645 71.64,161.639 71.629,161.633 M78.864,159.543 C78.525,159.358 78.228,158.798 78.236,158.362 C78.244,157.943 78.529,157.737 78.856,157.906 C78.86,157.908 78.864,157.91 78.867,157.912 C79.214,158.1 79.485,158.622 79.478,159.076 C79.472,159.512 79.191,159.721 78.864,159.543 M72.419,155.122 C72.273,155.043 72.135,154.893 72.015,154.679 C71.755,154.216 71.756,153.722 72.055,153.461 C72.59,152.99 73.137,152.534 73.685,152.078 C73.833,151.95 74.01,151.919 74.208,152.026 C74.284,152.067 74.365,152.13 74.449,152.218 C74.697,152.478 74.817,152.81 74.841,153.168 C74.834,153.431 74.737,153.59 74.597,153.702 C74.068,154.152 73.533,154.606 72.991,155.05 C72.809,155.206 72.607,155.225 72.419,155.122 M78.485,155.455 C78.482,155.453 78.478,155.45 78.475,155.448 C78.122,155.249 77.845,154.715 77.859,154.274 C77.873,153.841 78.146,153.646 78.485,153.83 C78.837,154.029 79.114,154.556 79.101,155.004 C79.088,155.431 78.809,155.63 78.485,155.455 M107.396,168.327 C107.076,168.144 106.779,167.607 106.775,167.189 C106.77,166.778 107.068,166.54 107.383,166.687 C107.393,166.692 107.404,166.698 107.413,166.703 C107.739,166.88 108.023,167.402 108.034,167.849 C108.039,168.299 107.747,168.518 107.396,168.327 M85.235,157.438 C84.985,157.302 84.792,157.038 84.685,156.669 C84.535,156.142 84.706,155.802 85.136,155.77 C85.991,155.701 86.866,155.705 87.757,155.765 C89.274,155.89 90.82,156.197 92.403,156.687 C92.454,156.703 92.503,156.724 92.55,156.75 C92.915,156.948 93.191,157.428 93.199,157.904 C93.204,158.339 92.985,158.517 92.567,158.408 C91.724,158.186 90.881,157.948 90.056,157.798 C88.577,157.528 87.157,157.464 85.767,157.533 L85.663,157.539 C85.51,157.545 85.364,157.509 85.235,157.438 M107.487,164.894 C107.48,164.89 107.472,164.886 107.466,164.882 C107.12,164.686 106.842,164.144 106.856,163.695 C106.876,163.287 107.168,163.088 107.484,163.259 C107.488,163.261 107.491,163.263 107.495,163.265 C107.847,163.471 108.118,164.003 108.099,164.456 C108.086,164.872 107.806,165.066 107.487,164.894 M102.506,160.508 C102.484,160.495 102.46,160.481 102.436,160.464 C102.109,160.232 101.85,159.683 101.881,159.291 C101.916,158.889 102.185,158.721 102.504,158.894 C102.528,158.908 102.554,158.924 102.58,158.942 C102.919,159.173 103.166,159.7 103.135,160.098 C103.101,160.502 102.813,160.675 102.506,160.508 M82.731,154.061 C82.546,153.96 82.394,153.769 82.273,153.487 C82.013,152.898 82.148,152.446 82.61,152.375 C84.09,152.136 85.627,152.091 87.215,152.232 C88.865,152.382 90.558,152.768 92.278,153.302 C92.327,153.321 92.382,153.342 92.442,153.367 C92.763,153.565 92.999,153.882 93.07,154.351 C93.148,154.872 92.966,155.15 92.577,155.048 C91.813,154.86 91.043,154.607 90.279,154.436 C87.817,153.875 85.469,153.778 83.229,154.13 C83.042,154.162 82.877,154.139 82.731,154.061 M82.572,150.417 C82.269,150.212 82.052,149.915 81.974,149.495 C81.89,149.057 81.982,148.763 82.267,148.722 C82.65,148.662 83.038,148.63 83.433,148.609 C83.845,148.589 84.252,148.576 84.671,148.591 C84.755,148.593 84.84,148.618 84.921,148.662 C85.161,148.792 85.374,149.086 85.482,149.431 C85.621,149.899 85.516,150.313 85.194,150.333 C84.387,150.397 83.568,150.424 82.755,150.46 L82.572,150.417 M105.076,159.227 C105.043,159.209 105.01,159.187 104.975,159.16 C104.11,158.487 103.25,157.801 102.39,157.083 C102.027,156.775 101.852,156.28 101.92,155.886 C102,155.498 102.231,155.427 102.564,155.57 C103.473,156.274 104.4,156.95 105.289,157.786 C105.616,158.098 105.725,158.517 105.662,158.907 C105.613,159.235 105.355,159.378 105.076,159.227 M97.423,160.419 C97.396,160.404 97.367,160.388 97.339,160.372 C95.582,159.354 94.182,156.735 94.224,154.538 C94.267,152.335 95.684,151.305 97.37,152.221 C97.396,152.236 97.421,152.248 97.447,152.264 C99.203,153.281 100.597,155.905 100.537,158.1 C100.483,160.269 99.065,161.311 97.423,160.419 M62.493,124.311 L55.107,120.286 L55.128,115.056 L62.507,119.071 L62.493,124.311 M62.595,96.603 L55.209,92.583 L55.248,83.041 L62.627,87.056 L62.595,96.603 M62.655,81.211 L55.269,77.186 L55.302,67.648 L62.687,71.667 L62.688,71.667 L62.655,81.211 M58.657,39.557 L53.636,42.44 L48.249,34.53 L47.527,228.097 L52.949,226.074 L57.927,234.41 L62.941,231.514 L67.919,239.849 L72.94,236.957 L79.025,245.895 L79.143,214.02 C78.785,213.443 78.433,212.858 78.087,212.263 C77.833,211.827 77.658,211.403 77.787,211.01 C77.885,210.718 78.115,210.695 78.37,210.809 C78.673,210.997 78.848,211.343 79.041,211.667 C79.077,211.729 79.114,211.792 79.15,211.854 L79.247,185.42 L79.15,211.854 C80.478,214.123 81.916,216.266 83.458,218.279 C84.583,219.754 85.756,221.128 86.967,222.436 C87.057,222.532 87.154,222.631 87.245,222.744 C87.589,223.182 87.709,223.679 87.557,224.004 C87.439,224.242 87.245,224.299 87.009,224.171 C86.914,224.12 86.814,224.038 86.707,223.928 C85.836,223.006 84.989,222.045 84.154,221.034 C82.361,218.863 80.693,216.52 79.142,214.02 L79.024,245.895 L85.147,243.61 L90.125,251.938 L95.145,249.053 L100.116,257.377 L105.137,254.494 L111.223,263.424 L111.315,238.755 C110.789,238.823 110.246,238.84 109.702,238.851 L109.575,238.805 C109.29,238.619 109.066,238.325 108.982,237.903 C108.886,237.435 108.997,237.141 109.3,237.103 C109.888,237.03 110.495,236.991 111.09,236.929 C111.168,236.921 111.244,236.908 111.321,236.896 L111.396,216.863 C108.111,220.767 102.888,221.399 97.285,218.356 C96.88,218.136 96.473,217.898 96.064,217.639 C85.876,211.198 79.206,196.318 79.656,184.897 C80.129,172.784 88.111,167.704 97.204,172.639 C97.54,172.821 97.876,173.016 98.215,173.227 C103.636,176.465 108.448,182.608 111.498,189.593 L111.56,173.319 C111.447,173.112 111.378,172.871 111.378,172.638 C111.379,172.409 111.449,172.242 111.564,172.159 L111.674,142.486 L111.689,138.757 L55.156,107.971 L55.162,105.817 L111.697,136.604 L111.747,123.367 L67.123,99.069 L67.161,89.527 L111.783,113.828 L111.804,107.979 L67.176,83.674 L67.215,74.132 L79.642,80.9 L79.749,51.041 L73.626,53.325 L68.649,44.998 L63.628,47.883 L58.657,39.557" id="Shape" stroke="none" fill="#268DFF" fill-rule="nonzero" mask="url(#mask-6)"></path>
                                    </g>
                                </g>
                            </g>
                            <g id="Group" stroke-width="1" fill="none" fill-rule="evenodd" transform="translate(143.000000, 179.000000)">
                                <g id="Clipped">
                                    <mask id="mask-8" fill="white">
                                        <use xlink:href="#path-7"></use>
                                    </mask>
                                    <g id="SVGID_62_"></g>
                                    <path d="M120.985,156.265 L121.111,154.702 C121.262,154.863 121.389,155.026 121.48,155.185 C121.57,155.344 121.619,155.528 121.618,155.707 C121.617,156.216 121.404,156.398 120.985,156.265 M120.528,152.698 C120.377,152.53 120.25,152.367 120.153,152.189 C120.063,152.021 120.014,151.838 120.015,151.643 C120.015,151.556 120.027,151.485 120.045,151.416 L120.155,151.264 C120.21,151.231 120.27,151.209 120.349,151.213 C120.434,151.212 120.531,151.233 120.646,151.272 L120.528,152.698 M121.544,149.586 L121.108,149.35 C121.017,149.301 120.944,149.292 120.889,149.341 C120.834,149.39 120.798,149.448 120.791,149.539 L120.747,150.071 C120.45,149.91 120.189,149.832 119.965,149.836 C119.735,149.844 119.54,149.896 119.382,150.005 C119.224,150.124 119.109,150.281 119.023,150.485 C118.944,150.684 118.9,150.92 118.9,151.179 C118.899,151.531 118.941,151.843 119.031,152.128 C119.121,152.412 119.235,152.671 119.381,152.899 C119.527,153.134 119.69,153.34 119.87,153.526 C120.053,153.718 120.227,153.892 120.416,154.056 L120.265,155.842 C120.15,155.739 120.047,155.629 119.963,155.529 C119.871,155.417 119.793,155.311 119.715,155.214 C119.642,155.112 119.569,155.026 119.509,154.945 C119.448,154.873 119.382,154.813 119.321,154.78 L119.157,154.755 L119.029,154.826 L118.664,155.31 C118.846,155.628 119.069,155.938 119.335,156.239 C119.602,156.542 119.88,156.802 120.17,157.022 L120.089,157.998 L120.526,158.235 C120.611,158.281 120.683,158.281 120.745,158.244 C120.8,158.195 120.83,158.134 120.836,158.043 L120.887,157.45 C121.183,157.588 121.445,157.643 121.675,157.636 C121.9,157.624 122.094,157.565 122.251,157.439 C122.41,157.313 122.531,157.135 122.617,156.908 C122.696,156.677 122.739,156.41 122.74,156.096 C122.741,155.885 122.723,155.695 122.681,155.507 C122.639,155.319 122.585,155.149 122.512,154.984 C122.441,154.82 122.356,154.665 122.259,154.517 C122.162,154.371 122.054,154.233 121.945,154.103 C121.83,153.97 121.716,153.845 121.593,153.724 C121.467,153.601 121.346,153.489 121.224,153.374 L121.369,151.703 C121.442,151.766 121.52,151.849 121.587,151.924 C121.66,152.002 121.727,152.077 121.787,152.142 C121.847,152.207 121.901,152.268 121.95,152.317 L122.09,152.424 C122.151,152.457 122.204,152.471 122.247,152.455 C122.29,152.438 122.339,152.41 122.381,152.347 L122.674,151.956 C122.534,151.716 122.365,151.468 122.172,151.214 C121.973,150.964 121.736,150.726 121.464,150.516 L121.544,149.586" id="Shape" fill="#56A7FF" fill-rule="nonzero" mask="url(#mask-8)"></path>
                                </g>
                                <g id="Clipped">
                                    <mask id="mask-10" fill="white">
                                        <use xlink:href="#path-9"></use>
                                    </mask>
                                    <g id="SVGID_62_"></g>
                                    <path d="M125.344,155.901 C124.828,155.614 124.575,155.123 124.577,154.402 C124.577,154.254 124.596,154.122 124.633,154.009 C124.67,153.903 124.719,153.82 124.779,153.75 C124.845,153.692 124.925,153.665 125.015,153.659 C125.113,153.657 125.215,153.681 125.337,153.747 C125.451,153.817 125.561,153.9 125.657,153.992 C125.761,154.095 125.845,154.212 125.911,154.334 C125.983,154.468 126.038,154.606 126.074,154.76 C126.116,154.916 126.134,155.075 126.133,155.255 C126.132,155.575 126.066,155.799 125.925,155.919 C125.792,156.043 125.598,156.039 125.344,155.901 M125.358,152.552 C125.062,152.391 124.795,152.309 124.558,152.306 C124.315,152.299 124.109,152.36 123.939,152.488 C123.768,152.615 123.634,152.794 123.537,153.031 C123.445,153.27 123.396,153.551 123.395,153.871 C123.394,154.231 123.441,154.563 123.532,154.872 C123.622,155.18 123.736,155.461 123.882,155.713 C124.033,155.968 124.195,156.181 124.371,156.362 C124.553,156.54 124.734,156.685 124.916,156.784 C125.062,156.863 125.201,156.915 125.335,156.948 C125.474,156.985 125.595,156.996 125.711,156.979 L125.619,157.079 L125.515,157.188 L123.744,158.949 L124.835,159.541 C124.968,159.613 125.096,159.651 125.205,159.64 C125.313,159.636 125.393,159.601 125.447,159.537 L126.647,157.983 C126.738,157.868 126.824,157.742 126.897,157.609 C126.976,157.479 127.038,157.332 127.092,157.173 C127.141,157.012 127.184,156.839 127.215,156.644 C127.245,156.456 127.258,156.244 127.259,156 C127.26,155.648 127.219,155.305 127.135,154.96 C127.044,154.622 126.918,154.293 126.754,153.994 C126.592,153.693 126.392,153.412 126.156,153.167 C125.922,152.92 125.656,152.713 125.358,152.552" id="Shape" fill="#56A7FF" fill-rule="nonzero" mask="url(#mask-10)"></path>
                                </g>
                                <g id="Clipped">
                                    <mask id="mask-12" fill="white">
                                        <use xlink:href="#path-11"></use>
                                    </mask>
                                    <g id="SVGID_62_"></g>
                                    <path d="M128.275,159.792 C128.178,159.739 128.093,159.717 128.008,159.717 C127.93,159.714 127.857,159.738 127.796,159.782 C127.741,159.823 127.692,159.891 127.655,159.973 C127.618,160.055 127.606,160.159 127.605,160.276 C127.605,160.393 127.618,160.509 127.653,160.631 C127.689,160.752 127.731,160.869 127.792,160.98 C127.853,161.084 127.925,161.186 128.003,161.268 C128.088,161.361 128.173,161.423 128.271,161.476 C128.368,161.528 128.452,161.558 128.537,161.557 C128.616,161.561 128.689,161.537 128.75,161.5 C128.811,161.454 128.86,161.395 128.891,161.302 C128.927,161.22 128.946,161.12 128.947,161.002 C128.947,160.885 128.928,160.766 128.899,160.648 C128.863,160.526 128.814,160.414 128.754,160.301 C128.693,160.191 128.62,160.096 128.542,160.006 C128.464,159.916 128.372,159.845 128.275,159.792" id="Shape" fill="#56A7FF" fill-rule="nonzero" mask="url(#mask-12)"></path>
                                </g>
                                <g id="Clipped">
                                    <mask id="mask-14" fill="white">
                                        <use xlink:href="#path-13"></use>
                                    </mask>
                                    <g id="SVGID_62_"></g>
                                    <path d="M131.389,162.031 C131.255,161.959 131.14,161.873 131.044,161.764 C130.946,161.658 130.868,161.544 130.808,161.425 C130.747,161.298 130.7,161.161 130.669,161.029 C130.639,160.886 130.628,160.748 130.628,160.606 C130.629,160.449 130.641,160.315 130.665,160.203 C130.696,160.086 130.739,160.008 130.794,159.943 C130.855,159.89 130.933,159.862 131.03,159.859 C131.127,159.865 131.249,159.9 131.394,159.978 C131.539,160.057 131.66,160.155 131.757,160.254 C131.853,160.361 131.932,160.475 131.992,160.593 C132.046,160.717 132.089,160.851 132.112,160.989 C132.142,161.138 132.154,161.287 132.153,161.435 C132.153,161.576 132.134,161.699 132.103,161.808 C132.08,161.92 132.031,161.996 131.969,162.057 C131.903,162.107 131.823,162.142 131.726,162.136 C131.631,162.14 131.521,162.104 131.389,162.031 M131.397,158.819 C131.269,158.75 131.161,158.66 131.076,158.558 C130.991,158.457 130.926,158.351 130.877,158.231 C130.829,158.111 130.799,157.992 130.781,157.865 C130.762,157.73 130.752,157.605 130.752,157.48 C130.752,157.371 130.765,157.267 130.789,157.178 C130.813,157.082 130.85,157.007 130.904,156.958 C130.954,156.906 131.02,156.872 131.105,156.871 C131.184,156.867 131.287,156.899 131.408,156.966 C131.523,157.028 131.621,157.105 131.705,157.197 C131.784,157.295 131.856,157.396 131.904,157.501 C131.959,157.617 131.995,157.724 132.018,157.846 C132.037,157.958 132.048,158.075 132.048,158.184 C132.047,158.309 132.041,158.431 132.023,158.538 C132.004,158.646 131.967,158.728 131.919,158.797 C131.87,158.863 131.809,158.901 131.724,158.91 C131.639,158.919 131.531,158.892 131.397,158.819 M131.411,155.854 C131.151,155.713 130.908,155.627 130.689,155.612 C130.465,155.585 130.277,155.624 130.113,155.708 C129.955,155.794 129.828,155.937 129.742,156.126 C129.651,156.312 129.607,156.546 129.6,156.825 C129.599,157.193 129.664,157.543 129.786,157.875 C129.906,158.199 130.094,158.513 130.348,158.8 C130.178,158.779 130.038,158.797 129.916,158.841 C129.801,158.896 129.704,158.968 129.625,159.067 C129.552,159.168 129.496,159.296 129.46,159.448 C129.43,159.604 129.41,159.782 129.41,159.969 C129.409,160.298 129.457,160.615 129.547,160.923 C129.644,161.241 129.776,161.541 129.951,161.824 C130.126,162.099 130.331,162.36 130.574,162.594 C130.816,162.827 131.088,163.023 131.385,163.184 C131.676,163.341 131.949,163.443 132.192,163.473 C132.434,163.502 132.647,163.477 132.817,163.38 C132.994,163.287 133.133,163.144 133.225,162.927 C133.323,162.722 133.372,162.449 133.373,162.129 C133.373,161.941 133.355,161.743 133.319,161.552 C133.29,161.363 133.229,161.172 133.157,160.992 C133.085,160.804 132.988,160.626 132.867,160.45 C132.752,160.278 132.607,160.104 132.443,159.937 C132.699,159.926 132.887,159.825 133.008,159.632 C133.137,159.435 133.197,159.154 133.198,158.786 C133.199,158.504 133.158,158.223 133.067,157.938 C132.983,157.649 132.856,157.376 132.699,157.119 C132.543,156.853 132.349,156.614 132.132,156.394 C131.914,156.174 131.672,155.995 131.411,155.854" id="Shape" fill="#56A7FF" fill-rule="nonzero" mask="url(#mask-14)"></path>
                                </g>
                                <g id="Clipped">
                                    <mask id="mask-16" fill="white">
                                        <use xlink:href="#path-15"></use>
                                    </mask>
                                    <g id="SVGID_62_"></g>
                                    <path d="M135.8,164.363 C135.697,164.307 135.594,164.213 135.496,164.096 C135.394,163.97 135.303,163.795 135.231,163.575 C135.153,163.345 135.092,163.069 135.044,162.721 C134.997,162.381 134.974,161.96 134.976,161.468 C134.977,160.966 135.002,160.571 135.051,160.284 C135.101,159.989 135.162,159.779 135.241,159.635 C135.32,159.497 135.412,159.429 135.509,159.411 C135.613,159.396 135.716,159.421 135.819,159.476 C135.922,159.531 136.025,159.62 136.128,159.746 C136.231,159.873 136.321,160.047 136.399,160.27 C136.477,160.493 136.543,160.78 136.585,161.117 C136.633,161.465 136.655,161.877 136.654,162.378 C136.653,162.879 136.628,163.274 136.578,163.561 C136.529,163.848 136.462,164.063 136.383,164.2 C136.303,164.338 136.212,164.414 136.109,164.429 C136.006,164.437 135.902,164.42 135.8,164.363 M135.822,158.256 C135.531,158.099 135.259,158.021 135.004,158.024 C134.755,158.039 134.537,158.148 134.354,158.346 C134.172,158.553 134.025,158.85 133.921,159.256 C133.817,159.662 133.76,160.173 133.758,160.8 C133.757,161.427 133.804,162.001 133.905,162.519 C134.007,163.03 134.151,163.493 134.332,163.889 C134.513,164.292 134.73,164.638 134.978,164.922 C135.226,165.206 135.499,165.425 135.795,165.586 C136.092,165.747 136.364,165.824 136.62,165.815 C136.868,165.799 137.087,165.699 137.276,165.496 C137.458,165.29 137.605,164.992 137.714,164.589 C137.818,164.184 137.869,163.669 137.877,163.046 C137.878,162.419 137.825,161.849 137.724,161.331 C137.622,160.812 137.478,160.35 137.297,159.953 C137.109,159.546 136.893,159.2 136.645,158.924 C136.392,158.637 136.119,158.418 135.822,158.256" id="Shape" fill="#56A7FF" fill-rule="nonzero" mask="url(#mask-16)"></path>
                                </g>
                            </g>
                            <g id="Clipped" stroke-width="1" fill="none" fill-rule="evenodd" transform="translate(143.000000, 179.000000)">
                                <mask id="mask-18" fill="white">
                                    <use xlink:href="#path-17"></use>
                                </mask>
                                <g id="SVGID_64_"></g>
                                <g mask="url(#mask-18)">
                                    <g transform="translate(52.000000, 65.000000)">
                                        <mask id="mask-20" fill="white">
                                            <use xlink:href="#path-19"></use>
                                        </mask>
                                        <g id="SVGID_66_" stroke="none" fill="none"></g>
                                        <g id="Clipped" stroke="none" stroke-width="1" fill="none" fill-rule="evenodd" mask="url(#mask-20)">
                                            <g transform="translate(3.000000, 2.000000)">
                                                <mask id="mask-22" fill="white">
                                                    <use xlink:href="#path-21"></use>
                                                </mask>
                                                <g id="SVGID_68_" stroke="none" fill="none"></g>
                                                <g id="Clipped" stroke="none" stroke-width="1" fill="none" fill-rule="evenodd" mask="url(#mask-22)">
                                                    <g transform="translate(-3.000000, -3.000000)">
                                                        <mask id="mask-24" fill="white">
                                                            <use xlink:href="#path-23"></use>
                                                        </mask>
                                                        <g id="SVGID_70_" stroke="none" fill="none"></g>
                                                        <polyline id="Shape" stroke="none" fill="#56A7FF" fill-rule="nonzero" mask="url(#mask-24)" points="3.303 3.647 3.27 13.186 10.655 17.211 10.688 7.666 10.688 7.666 3.303 3.647"></polyline>
                                                    </g>
                                                </g>
                                            </g>
                                        </g>
                                    </g>
                                </g>
                            </g>
                            <g id="Clipped" stroke-width="1" fill="none" fill-rule="evenodd" transform="translate(143.000000, 179.000000)">
                                <mask id="mask-26" fill="white">
                                    <use xlink:href="#path-25"></use>
                                </mask>
                                <g id="SVGID_72_"></g>
                                <g mask="url(#mask-26)">
                                    <g transform="translate(64.000000, 49.000000)">
                                        <mask id="mask-28" fill="white">
                                            <use xlink:href="#path-27"></use>
                                        </mask>
                                        <g id="SVGID_74_" stroke="none" fill="none"></g>
                                        <g id="Clipped" stroke="none" stroke-width="1" fill="none" fill-rule="evenodd" mask="url(#mask-28)">
                                            <g transform="translate(3.000000, 25.000000)">
                                                <mask id="mask-30" fill="white">
                                                    <use xlink:href="#path-29"></use>
                                                </mask>
                                                <g id="SVGID_76_" stroke="none" fill="none"></g>
                                                <g id="Clipped" stroke="none" stroke-width="1" fill="none" fill-rule="evenodd" mask="url(#mask-30)">
                                                    <g transform="translate(-3.000000, -25.000000)">
                                                        <mask id="mask-32" fill="white">
                                                            <use xlink:href="#path-31"></use>
                                                        </mask>
                                                        <g id="SVGID_78_" stroke="none" fill="none"></g>
                                                        <path d="M47.839,49.435 L47.803,58.978 L74.167,73.336 L74.206,63.794 L47.839,49.435 M3.214,25.131 L3.175,34.673 L47.803,58.978 L47.839,49.435 L15.641,31.899 L15.616,38.996 L15.641,31.899 L3.214,25.131" id="Shape" stroke="none" fill="#56A7FF" fill-rule="nonzero" mask="url(#mask-32)"></path>
                                                    </g>
                                                </g>
                                            </g>
                                        </g>
                                    </g>
                                </g>
                            </g>
                            <g id="Clipped" stroke-width="1" fill="none" fill-rule="evenodd" transform="translate(143.000000, 179.000000)">
                                <mask id="mask-34" fill="white">
                                    <use xlink:href="#path-33"></use>
                                </mask>
                                <g id="SVGID_80_"></g>
                                <g mask="url(#mask-34)">
                                    <g transform="translate(52.000000, 80.000000)">
                                        <mask id="mask-36" fill="white">
                                            <use xlink:href="#path-35"></use>
                                        </mask>
                                        <g id="SVGID_82_" stroke="none" fill="none"></g>
                                        <g id="Clipped" stroke="none" stroke-width="1" fill="none" fill-rule="evenodd" mask="url(#mask-36)">
                                            <g transform="translate(3.000000, 3.000000)">
                                                <mask id="mask-38" fill="white">
                                                    <use xlink:href="#path-37"></use>
                                                </mask>
                                                <g id="SVGID_84_" stroke="none" fill="none"></g>
                                                <g id="Clipped" stroke="none" stroke-width="1" fill="none" fill-rule="evenodd" mask="url(#mask-38)">
                                                    <g transform="translate(-3.000000, -3.000000)">
                                                        <mask id="mask-40" fill="white">
                                                            <use xlink:href="#path-39"></use>
                                                        </mask>
                                                        <g id="SVGID_86_" stroke="none" fill="none"></g>
                                                        <polyline id="Shape" stroke="none" fill="#56A7FF" fill-rule="nonzero" mask="url(#mask-40)" points="3.248 3.041 3.209 12.583 10.595 16.603 10.627 7.056 3.248 3.041"></polyline>
                                                    </g>
                                                </g>
                                            </g>
                                        </g>
                                    </g>
                                </g>
                            </g>
                            <g id="Clipped" stroke-width="1" fill="none" fill-rule="evenodd" transform="translate(143.000000, 179.000000)">
                                <mask id="mask-42" fill="white">
                                    <use xlink:href="#path-41"></use>
                                </mask>
                                <g id="SVGID_88_"></g>
                                <g mask="url(#mask-42)">
                                    <g transform="translate(53.000000, 112.000000)">
                                        <mask id="mask-44" fill="white">
                                            <use xlink:href="#path-43"></use>
                                        </mask>
                                        <g id="SVGID_90_" stroke="none" fill="none"></g>
                                        <g id="Clipped" stroke="none" stroke-width="1" fill="none" fill-rule="evenodd" mask="url(#mask-44)">
                                            <g transform="translate(2.000000, 3.000000)">
                                                <mask id="mask-46" fill="white">
                                                    <use xlink:href="#path-45"></use>
                                                </mask>
                                                <g id="SVGID_92_" stroke="none" fill="none"></g>
                                                <g id="Clipped" stroke="none" stroke-width="1" fill="none" fill-rule="evenodd" mask="url(#mask-46)">
                                                    <g transform="translate(-2.000000, -4.000000)">
                                                        <mask id="mask-48" fill="white">
                                                            <use xlink:href="#path-47"></use>
                                                        </mask>
                                                        <g id="SVGID_94_" stroke="none" fill="none"></g>
                                                        <polyline id="Shape" stroke="none" fill="#56A7FF" fill-rule="nonzero" mask="url(#mask-48)" points="2.129 4.055 2.107 9.285 9.493 13.311 9.508 8.069 2.129 4.055"></polyline>
                                                    </g>
                                                </g>
                                            </g>
                                        </g>
                                    </g>
                                </g>
                            </g>
                            <g id="Clipped" stroke-width="1" fill="none" fill-rule="evenodd" transform="translate(143.000000, 179.000000)">
                                <mask id="mask-50" fill="white">
                                    <use xlink:href="#path-49"></use>
                                </mask>
                                <g id="SVGID_96_"></g>
                                <g mask="url(#mask-50)">
                                    <g transform="translate(64.000000, 65.000000)">
                                        <mask id="mask-52" fill="white">
                                            <use xlink:href="#path-51"></use>
                                        </mask>
                                        <g id="SVGID_98_" stroke="none" fill="none"></g>
                                        <g id="Clipped" stroke="none" stroke-width="1" fill="none" fill-rule="evenodd" mask="url(#mask-52)">
                                            <g transform="translate(3.000000, 24.000000)">
                                                <mask id="mask-54" fill="white">
                                                    <use xlink:href="#path-53"></use>
                                                </mask>
                                                <g id="SVGID_100_" stroke="none" fill="none"></g>
                                                <g id="Clipped" stroke="none" stroke-width="1" fill="none" fill-rule="evenodd" mask="url(#mask-54)">
                                                    <g transform="translate(-3.000000, -25.000000)">
                                                        <mask id="mask-56" fill="white">
                                                            <use xlink:href="#path-55"></use>
                                                        </mask>
                                                        <g id="SVGID_102_" stroke="none" fill="none"></g>
                                                        <path d="M47.781,49.826 L47.745,59.365 L74.112,73.722 L74.145,64.184 L47.781,49.826 M3.159,25.525 L3.121,35.067 L47.745,59.365 L47.781,49.826 L3.159,25.525" id="Shape" stroke="none" fill="#56A7FF" fill-rule="nonzero" mask="url(#mask-56)"></path>
                                                    </g>
                                                </g>
                                            </g>
                                        </g>
                                    </g>
                                </g>
                            </g>
                            <g id="Clipped" stroke-width="1" fill="none" fill-rule="evenodd" transform="translate(143.000000, 179.000000)">
                                <mask id="mask-58" fill="white">
                                    <use xlink:href="#path-57"></use>
                                </mask>
                                <g id="SVGID_104_"></g>
                                <g mask="url(#mask-58)">
                                    <g transform="translate(55.000000, 105.000000)">
                                        <mask id="mask-60" fill="white">
                                            <use xlink:href="#path-59"></use>
                                        </mask>
                                        <g id="SVGID_106_" stroke="none" fill="none"></g>
                                        <g id="Clipped" stroke="none" stroke-width="1" fill="none" fill-rule="evenodd" mask="url(#mask-60)">
                                            <g transform="translate(-1.000000, -28.000000)">
                                                <mask id="mask-62" fill="white">
                                                    <use xlink:href="#path-61"></use>
                                                </mask>
                                                <g id="SVGID_108_" stroke="none" fill="none"></g>
                                                <path d="M57.695,59.603 L57.687,61.756 L84.051,76.112 L84.063,73.962 L57.695,59.603 M1.16,28.815 L1.154,30.969 L57.687,61.755 L57.695,59.602 L1.16,28.815" id="Shape" stroke="none" fill="#56A7FF" fill-rule="nonzero" mask="url(#mask-62)"></path>
                                            </g>
                                        </g>
                                    </g>
                                </g>
                            </g>
                            <path d="M229.36,374.778 L229.288,374.629 L229.379,374.592 L229.458,374.729 L229.36,374.778 M229.816,374.806 C229.743,374.649 229.67,374.492 229.598,374.334 C232.286,371.903 234.976,369.465 237.653,367.019 C237.812,366.871 237.95,366.856 238.075,366.923 C238.281,367.035 238.454,367.369 238.634,367.7 C239.715,369.683 240.857,371.629 241.84,373.662 C242.243,374.495 242.602,374.956 242.995,375.17 C243.324,375.349 243.679,375.354 244.104,375.26 C246.302,374.798 248.579,374.536 250.855,374.187 C251.053,374.829 250.755,374.863 250.616,374.999 C248.11,377.287 245.573,379.525 243.085,381.847 C242.84,382.071 242.65,382.151 242.456,382.045 C242.275,381.946 242.091,381.687 241.855,381.233 C240.787,379.171 239.602,377.178 238.571,375.103 C238.217,374.395 237.906,374.002 237.566,373.818 C237.286,373.667 236.986,373.656 236.627,373.726 C234.387,374.165 232.093,374.457 229.816,374.806 M240.203,351.639 C231.11,346.703 223.128,351.784 222.655,363.897 C222.205,375.318 228.875,390.198 239.063,396.639 C239.472,396.898 239.878,397.136 240.284,397.356 C245.888,400.399 251.11,399.767 254.395,395.863 C256.355,393.532 257.625,390.036 257.874,385.46 C258.176,379.974 256.869,374.028 254.496,368.594 C251.446,361.609 246.634,355.466 241.213,352.228 C240.875,352.016 240.539,351.82 240.203,351.639" id="Shape" fill="#FFFFFF" fill-rule="nonzero"></path>
                            <path d="M270.61,393.417 C270.599,393.412 270.589,393.405 270.577,393.398 C269.523,392.811 268.709,391.294 268.719,389.949 C268.723,388.595 269.556,387.979 270.61,388.544 C271.646,389.107 272.491,390.656 272.494,391.992 C272.496,393.344 271.644,393.979 270.61,393.417 M270.576,386.876 C268.906,385.969 267.499,387.01 267.439,389.224 C267.385,391.361 268.797,394.026 270.525,395.026 C270.556,395.046 270.588,395.063 270.622,395.081 C272.299,395.992 273.693,394.962 273.753,392.763 C273.808,390.588 272.432,387.974 270.693,386.944 C270.654,386.92 270.615,386.896 270.576,386.876" id="Shape" fill="#FFFFFF" fill-rule="nonzero"></path>
                            <path d="M240.163,416.166 C239.114,415.597 238.269,414.026 238.285,412.675 C238.301,411.326 239.134,410.719 240.181,411.288 C241.223,411.853 242.05,413.386 242.046,414.741 C242.042,416.089 241.203,416.723 240.173,416.172 C240.171,416.17 240.167,416.168 240.163,416.166 M240.16,409.629 C238.466,408.709 237.012,409.785 237.006,411.996 C237,414.224 238.425,416.853 240.153,417.792 C240.156,417.794 240.16,417.796 240.163,417.798 C241.896,418.732 243.332,417.651 243.326,415.42 C243.313,413.186 241.913,410.605 240.192,409.647 C240.182,409.641 240.171,409.635 240.16,409.629" id="Shape" fill="#FFFFFF" fill-rule="nonzero"></path>
                            <path d="M240.374,337.743 C239.332,337.178 238.505,335.653 238.503,334.295 C238.5,332.934 239.352,332.293 240.4,332.862 C240.404,332.864 240.408,332.866 240.412,332.868 C241.448,333.446 242.28,335.005 242.265,336.346 C242.255,337.697 241.422,338.312 240.374,337.743 M240.37,331.221 C238.683,330.305 237.266,331.335 237.224,333.538 C237.182,335.735 238.582,338.354 240.339,339.372 C240.367,339.388 240.396,339.404 240.423,339.419 C242.066,340.311 243.484,339.269 243.537,337.1 C243.598,334.905 242.203,332.281 240.447,331.264 C240.421,331.248 240.396,331.235 240.37,331.221" id="Shape" fill="#FFFFFF" fill-rule="nonzero"></path>
                            <path d="M209.939,360.475 L209.927,360.469 C208.891,359.907 208.052,358.353 208.056,357.013 C208.066,355.677 208.911,355.045 209.948,355.608 C211.014,356.187 211.846,357.73 211.837,359.105 C211.821,360.434 210.982,361.041 209.939,360.475 M209.974,353.975 C209.967,353.971 209.959,353.967 209.953,353.963 C208.226,353.033 206.791,354.121 206.797,356.353 C206.81,358.596 208.222,361.198 209.928,362.124 C209.939,362.13 209.95,362.136 209.961,362.142 C211.676,363.049 213.099,361.979 213.111,359.766 C213.122,357.561 211.685,354.903 209.974,353.975" id="Shape" fill="#FFFFFF" fill-rule="nonzero"></path>
                            <path d="M235.443,332.367 C235.382,332.342 235.328,332.32 235.279,332.302 C233.558,331.768 231.866,331.382 230.216,331.232 C228.627,331.09 227.091,331.135 225.611,331.375 C225.149,331.446 225.014,331.898 225.274,332.487 C225.395,332.769 225.547,332.961 225.732,333.061 C225.878,333.139 226.043,333.163 226.231,333.131 C228.471,332.778 230.819,332.876 233.281,333.437 C234.045,333.608 234.815,333.862 235.579,334.049 C235.968,334.151 236.15,333.872 236.072,333.352 C236,332.882 235.765,332.565 235.443,332.367" id="Shape" fill="#FFFFFF" fill-rule="nonzero"></path>
                            <path d="M269.838,398.091 C269.563,397.942 269.377,398.047 269.26,398.332 C269.21,398.454 269.186,398.605 269.161,398.757 C268.749,400.801 268.191,402.702 267.476,404.455 C266.919,405.809 266.274,407.043 265.56,408.193 C265.463,408.352 265.347,408.501 265.352,408.763 C265.357,409.157 265.508,409.53 265.792,409.793 C265.86,409.855 265.924,409.902 265.984,409.935 C266.244,410.077 266.432,409.958 266.581,409.72 C268.209,407.175 269.412,404.172 270.198,400.717 C270.302,400.264 270.388,399.792 270.463,399.417 C270.477,398.866 270.284,398.417 269.963,398.172 C269.92,398.14 269.878,398.112 269.838,398.091" id="Shape" fill="#FFFFFF" fill-rule="nonzero"></path>
                            <path d="M221.37,389.809 C221.115,389.695 220.885,389.718 220.787,390.01 C220.658,390.403 220.833,390.827 221.087,391.263 C221.433,391.858 221.784,392.443 222.143,393.02 C223.694,395.52 225.362,397.863 227.155,400.034 C227.99,401.045 228.837,402.006 229.708,402.928 C229.814,403.038 229.915,403.12 230.01,403.171 C230.246,403.299 230.44,403.242 230.558,403.004 C230.71,402.679 230.59,402.182 230.246,401.744 C230.154,401.632 230.058,401.532 229.968,401.436 C228.757,400.127 227.584,398.753 226.459,397.279 C224.917,395.266 223.48,393.123 222.151,390.854 C222.115,390.792 222.078,390.73 222.042,390.667 C221.848,390.343 221.673,389.997 221.37,389.809" id="Shape" fill="#FFFFFF" fill-rule="nonzero"></path>
                            <path d="M270.672,373.95 C270.608,373.914 270.541,373.892 270.475,373.888 C270.105,373.86 269.964,374.238 270.108,374.881 C270.15,375.075 270.204,375.27 270.257,375.472 C270.798,377.538 271.247,379.594 271.575,381.64 C271.778,382.88 271.927,384.106 272.123,385.343 C272.194,385.806 272.435,386.176 272.713,386.326 C272.737,386.34 272.763,386.351 272.787,386.362 C273.121,386.488 273.352,386.26 273.354,385.719 C273.289,385.229 273.21,384.646 273.134,384.062 C272.741,381.056 272.094,378 271.29,374.918 C271.161,374.442 270.928,374.088 270.672,373.95" id="Shape" fill="#FFFFFF" fill-rule="nonzero"></path>
                            <path d="M267.498,395.188 C267.195,395.023 266.943,395.202 266.864,395.698 C266.376,398.509 265.598,401.036 264.524,403.261 L264.494,403.339 C264.323,403.787 264.419,404.278 264.757,404.674 C264.85,404.781 264.942,404.861 265.031,404.909 C265.269,405.039 265.491,404.959 265.637,404.657 C266.417,403.05 267.06,401.296 267.538,399.383 C267.777,398.423 267.98,397.434 268.147,396.457 C268.154,395.983 267.913,395.476 267.58,395.24 C267.553,395.22 267.525,395.202 267.498,395.188" id="Shape" fill="#FFFFFF" fill-rule="nonzero"></path>
                            <path d="M211.282,369.253 C210.762,368.972 210.517,369.407 210.683,370.199 C211.234,372.852 211.96,375.506 212.822,378.162 C213.117,379.075 213.448,379.984 213.785,380.897 C213.926,381.281 214.134,381.553 214.347,381.668 C214.444,381.721 214.54,381.741 214.633,381.725 C214.954,381.672 215.059,381.266 214.878,380.698 C214.812,380.481 214.733,380.266 214.655,380.052 C213.944,378.073 213.319,376.087 212.784,374.086 C212.448,372.828 212.167,371.569 211.885,370.317 C211.778,369.851 211.603,369.466 211.293,369.259 C211.289,369.257 211.286,369.256 211.282,369.253" id="Shape" fill="#FFFFFF" fill-rule="nonzero"></path>
                            <path d="M235.552,335.751 C235.504,335.725 235.455,335.703 235.405,335.688 C233.822,335.198 232.275,334.891 230.759,334.766 C229.868,334.705 228.993,334.702 228.138,334.771 C227.707,334.803 227.536,335.143 227.687,335.67 C227.793,336.038 227.987,336.303 228.237,336.439 C228.366,336.509 228.511,336.545 228.668,336.541 L228.772,336.535 C230.162,336.466 231.582,336.53 233.061,336.8 C233.886,336.95 234.729,337.189 235.572,337.41 C235.99,337.519 236.209,337.341 236.204,336.906 C236.192,336.429 235.917,335.949 235.552,335.751" id="Shape" fill="#FFFFFF" fill-rule="nonzero"></path>
                            <path d="M225.19,403.354 C225.006,403.254 224.843,403.274 224.706,403.435 C224.437,403.737 224.588,404.343 225.06,404.914 C226.789,406.983 228.581,408.881 230.432,410.632 C231.014,411.183 231.613,411.712 232.205,412.231 C232.275,412.291 232.344,412.338 232.408,412.374 C232.784,412.578 233.066,412.38 233.062,411.85 C233.033,411.331 232.724,410.976 232.374,410.668 C231.018,409.492 229.692,408.231 228.392,406.858 C227.424,405.845 226.493,404.766 225.561,403.68 C225.43,403.526 225.306,403.416 225.19,403.354" id="Shape" fill="#FFFFFF" fill-rule="nonzero"></path>
                            <path d="M265.167,414.863 C264.968,414.756 264.755,414.787 264.553,414.973 C262.948,416.462 261.178,417.619 259.222,418.417 C259.118,418.463 259.022,418.52 258.943,418.61 C258.79,418.786 258.778,419.077 258.898,419.424 C259.012,419.777 259.206,420.024 259.387,420.13 C259.666,420.281 259.818,420.206 259.976,420.143 C260.948,419.738 261.884,419.265 262.777,418.691 C263.756,418.07 264.674,417.329 265.55,416.517 C265.842,416.245 265.843,415.822 265.578,415.332 C265.456,415.104 265.315,414.944 265.167,414.863" id="Shape" fill="#FFFFFF" fill-rule="nonzero"></path>
                            <path d="M266.224,374.878 C266.152,374.839 266.077,374.817 266,374.816 C265.636,374.791 265.507,375.168 265.657,375.83 C265.837,376.635 266.028,377.444 266.202,378.245 C266.532,379.718 266.74,381.157 266.961,382.602 C267.032,383.081 267.287,383.493 267.567,383.645 C267.591,383.659 267.618,383.669 267.643,383.679 C267.976,383.797 268.196,383.571 268.197,383.046 C268.191,383.003 268.191,382.901 268.179,382.802 C267.858,380.525 267.434,378.239 266.845,375.918 C266.71,375.39 266.484,375.02 266.224,374.878" id="Shape" fill="#FFFFFF" fill-rule="nonzero"></path>
                            <path d="M261.351,356.856 C261.331,356.845 261.312,356.835 261.292,356.828 C261.025,356.707 260.837,356.801 260.739,357.069 C260.641,357.369 260.744,357.722 260.936,358.078 C261.624,359.338 262.301,360.616 262.922,361.918 C263.356,362.829 263.766,363.758 264.189,364.669 C264.325,364.955 264.495,365.193 264.694,365.301 C264.76,365.337 264.83,365.359 264.903,365.363 C265.17,365.39 265.322,365.215 265.33,364.795 C265.348,364.602 265.252,364.353 265.143,364.106 C264.968,363.706 264.787,363.309 264.606,362.913 C263.774,361.064 262.85,359.285 261.897,357.519 C261.741,357.23 261.57,356.976 261.351,356.856" id="Shape" fill="#FFFFFF" fill-rule="nonzero"></path>
                            <path d="M215.592,343.973 C215.343,343.838 215.121,343.949 214.948,344.304 C214.333,345.563 213.801,346.906 213.372,348.36 C213.256,348.736 213.151,349.119 213.065,349.441 C213.051,349.935 213.197,350.304 213.499,350.593 C213.575,350.668 213.648,350.724 213.717,350.761 C213.911,350.866 214.075,350.826 214.196,350.643 C214.27,350.534 214.319,350.388 214.361,350.239 C214.821,348.582 215.389,347.047 216.086,345.644 C216.323,345.169 216.229,344.623 215.859,344.203 C215.768,344.096 215.678,344.02 215.592,343.973" id="Shape" fill="#FFFFFF" fill-rule="nonzero"></path>
                            <path d="M229.986,405.039 C229.653,404.897 229.434,404.982 229.367,405.353 C229.293,405.775 229.455,406.202 229.782,406.521 C230.594,407.313 231.41,408.086 232.239,408.85 C232.31,408.916 232.379,408.966 232.444,409.001 C232.683,409.131 232.878,409.059 232.998,408.791 C233.163,408.41 232.977,407.854 232.541,407.429 C231.771,406.69 231.004,405.967 230.229,405.241 C230.144,405.164 230.059,405.094 229.986,405.039" id="Shape" fill="#FFFFFF" fill-rule="nonzero"></path>
                            <path d="M207.833,362.64 C207.789,362.617 207.745,362.599 207.701,362.586 C207.386,362.493 207.155,362.714 207.195,363.175 C207.307,364.397 207.474,365.641 207.714,366.908 C207.788,367.307 208.027,367.644 208.277,367.78 C208.327,367.807 208.377,367.827 208.427,367.837 C208.753,367.912 208.937,367.683 208.919,367.241 C208.747,365.994 208.592,364.765 208.408,363.536 C208.348,363.138 208.098,362.783 207.833,362.64" id="Shape" fill="#FFFFFF" fill-rule="nonzero"></path>
                            <path d="M212.971,365.183 C212.92,365.156 212.866,365.132 212.81,365.117 C212.489,365.03 212.282,365.302 212.317,365.744 C212.34,366.04 212.387,366.34 212.436,366.64 C212.585,367.56 212.722,368.474 212.895,369.408 C212.974,369.839 213.233,370.208 213.493,370.348 C213.528,370.367 213.562,370.382 213.597,370.393 C213.912,370.486 214.125,370.255 214.12,369.672 C213.875,368.534 213.763,367.281 213.506,365.996 C213.431,365.61 213.229,365.323 212.971,365.183" id="Shape" fill="#FFFFFF" fill-rule="nonzero"></path>
                            <path d="M245.564,334.568 C245.231,334.425 245.001,334.497 244.92,334.884 C244.852,335.279 245.026,335.774 245.39,336.081 C246.25,336.799 247.11,337.485 247.975,338.158 C248.009,338.185 248.042,338.208 248.076,338.225 C248.355,338.376 248.613,338.234 248.662,337.904 C248.724,337.514 248.616,337.094 248.289,336.783 C247.4,335.948 246.474,335.272 245.564,334.568" id="Shape" fill="#FFFFFF" fill-rule="nonzero"></path>
                            <path d="M209.915,373.381 C209.815,373.327 209.708,373.301 209.602,373.307 C209.311,373.337 209.164,373.594 209.266,374.035 C209.578,375.358 209.968,376.683 210.438,377.998 C210.532,378.274 210.694,378.494 210.888,378.6 C210.956,378.637 211.029,378.661 211.104,378.666 C211.383,378.691 211.542,378.519 211.554,378.142 L211.542,377.978 C211.151,376.636 210.772,375.293 210.346,373.957 C210.26,373.679 210.1,373.481 209.915,373.381" id="Shape" fill="#FFFFFF" fill-rule="nonzero"></path>
                            <path d="M270.514,406.417 C270.306,406.305 270.134,406.356 270.038,406.553 C269.629,407.406 269.244,408.279 268.871,409.167 C268.743,409.466 268.893,409.861 269.13,410.202 C269.246,410.369 269.375,410.494 269.497,410.56 C269.641,410.638 269.773,410.633 269.863,410.521 C270.46,409.739 270.814,408.661 271.187,407.733 C271.158,407.208 271.019,406.866 270.729,406.583 C270.654,406.509 270.582,406.454 270.514,406.417" id="Shape" fill="#FFFFFF" fill-rule="nonzero"></path>
                            <path d="M257.636,346.888 C257.632,346.886 257.628,346.883 257.625,346.882 C257.248,346.694 257.042,346.762 256.956,347.068 C256.858,347.408 256.954,347.797 257.22,348.17 C257.885,349.119 258.556,350.064 259.227,351.009 C259.395,351.24 259.56,351.4 259.71,351.482 C259.897,351.584 260.061,351.565 260.179,351.416 C260.41,351.142 260.326,350.602 259.947,350.051 C259.294,349.115 258.629,348.19 257.969,347.26 C257.843,347.076 257.715,346.931 257.636,346.888" id="Shape" fill="#FFFFFF" fill-rule="nonzero"></path>
                            <path d="M262.524,364.171 C262.403,364.106 262.28,364.089 262.17,364.122 C261.897,364.201 261.78,364.593 261.961,365.053 C262.455,366.309 262.968,367.553 263.486,368.791 C263.595,369.049 263.748,369.221 263.912,369.31 C264.001,369.358 264.092,369.381 264.182,369.381 C264.431,369.39 264.553,369.19 264.578,368.819 C264.56,368.715 264.548,368.568 264.494,368.428 C264.042,367.186 263.542,365.95 262.994,364.742 C262.866,364.457 262.697,364.265 262.524,364.171" id="Shape" fill="#FFFFFF" fill-rule="nonzero"></path>
                            <path d="M252.444,412.54 C252.371,412.5 252.297,412.478 252.223,412.477 C251.415,412.462 250.62,412.494 249.827,412.532 C249.487,412.553 249.371,412.913 249.496,413.389 C249.6,413.766 249.808,414.076 250.056,414.21 C250.14,414.255 250.229,414.28 250.32,414.282 C251.102,414.291 251.874,414.27 252.65,414.244 C252.899,414.23 253.051,414.062 253.058,413.69 C253.054,413.231 252.77,412.717 252.444,412.54" id="Shape" fill="#FFFFFF" fill-rule="nonzero"></path>
                            <path d="M218.811,394.301 C218.646,394.211 218.486,394.234 218.348,394.342 C218.122,394.51 218.116,395.008 218.357,395.43 C219.028,396.61 219.753,397.756 220.52,398.825 C220.622,398.965 220.73,399.062 220.835,399.12 C221.158,399.295 221.456,399.1 221.448,398.623 C221.449,398.404 221.388,398.159 221.256,397.954 C220.555,396.844 219.86,395.737 219.148,394.644 C219.036,394.473 218.922,394.36 218.811,394.301" id="Shape" fill="#FFFFFF" fill-rule="nonzero"></path>
                            <path d="M217.208,331.026 C217.01,330.919 216.833,330.95 216.685,331.078 C216.137,331.534 215.59,331.99 215.055,332.461 C214.756,332.722 214.755,333.216 215.015,333.679 C215.135,333.893 215.274,334.043 215.419,334.122 C215.607,334.225 215.809,334.206 215.99,334.051 C216.532,333.608 217.067,333.154 217.596,332.703 C217.736,332.591 217.833,332.432 217.84,332.169 C217.817,331.811 217.696,331.479 217.448,331.219 C217.365,331.131 217.284,331.067 217.208,331.026" id="Shape" fill="#FFFFFF" fill-rule="nonzero"></path>
                            <path d="M227.922,327.662 C227.841,327.618 227.756,327.593 227.672,327.591 C227.253,327.575 226.846,327.589 226.434,327.609 C226.039,327.63 225.651,327.663 225.268,327.722 C224.983,327.763 224.891,328.058 224.975,328.495 C225.053,328.915 225.27,329.212 225.573,329.417 L225.756,329.46 C226.569,329.424 227.389,329.398 228.195,329.333 C228.517,329.312 228.622,328.898 228.483,328.431 C228.375,328.086 228.162,327.792 227.922,327.662" id="Shape" fill="#FFFFFF" fill-rule="nonzero"></path>
                            <path d="M219.135,390.41 C218.968,390.319 218.806,390.33 218.686,390.446 C218.461,390.661 218.436,391.04 218.665,391.478 C219.306,392.704 219.994,393.902 220.756,395.013 C220.85,395.154 220.955,395.25 221.06,395.307 C221.376,395.48 221.69,395.278 221.691,394.783 C221.679,394.605 221.626,394.371 221.499,394.153 C220.841,393.035 220.188,391.912 219.512,390.799 C219.394,390.609 219.264,390.479 219.135,390.41" id="Shape" fill="#FFFFFF" fill-rule="nonzero"></path>
                            <path d="M254.908,415.941 C254.835,415.902 254.758,415.878 254.678,415.872 C254.554,415.861 254.437,415.877 254.321,415.895 C254.244,415.907 254.168,415.92 254.09,415.928 C253.495,415.99 252.888,416.029 252.3,416.102 C251.996,416.14 251.886,416.434 251.982,416.902 C252.066,417.324 252.29,417.619 252.575,417.804 L252.702,417.85 C253.246,417.839 253.789,417.823 254.315,417.754 C254.641,417.712 254.961,417.65 255.269,417.556 C255.554,417.469 255.58,417.075 255.406,416.611 C255.284,416.287 255.112,416.053 254.908,415.941" id="Shape" fill="#FFFFFF" fill-rule="nonzero"></path>
                            <path d="M213.612,384.138 C213.345,384.008 213.151,384.06 213.042,384.291 C212.919,384.554 212.973,384.904 213.147,385.282 C213.642,386.374 214.13,387.47 214.637,388.553 C214.807,388.917 214.999,389.155 215.189,389.258 C215.323,389.33 215.455,389.335 215.576,389.267 C215.874,389.107 215.893,388.678 215.609,388.046 C215.128,386.976 214.632,385.899 214.15,384.821 C214.006,384.508 213.831,384.271 213.612,384.138" id="Shape" fill="#FFFFFF" fill-rule="nonzero"></path>
                            <path d="M250.413,345.703 C250.403,345.698 250.392,345.692 250.383,345.687 C250.068,345.54 249.77,345.778 249.775,346.189 C249.779,346.607 250.076,347.144 250.396,347.327 C250.748,347.517 251.04,347.299 251.035,346.849 C251.023,346.402 250.739,345.88 250.413,345.703" id="Shape" fill="#FFFFFF" fill-rule="nonzero"></path>
                            <path d="M245.504,337.894 C245.185,337.721 244.916,337.889 244.881,338.291 C244.85,338.683 245.109,339.231 245.436,339.464 C245.46,339.481 245.484,339.495 245.506,339.508 C245.814,339.675 246.101,339.502 246.135,339.098 C246.166,338.7 245.919,338.173 245.58,337.942 C245.554,337.924 245.528,337.907 245.504,337.894" id="Shape" fill="#FFFFFF" fill-rule="nonzero"></path>
                            <path d="M247.707,415.728 C247.379,415.549 247.111,415.739 247.092,416.17 C247.078,416.625 247.344,417.147 247.696,417.345 C247.703,417.349 247.709,417.353 247.715,417.356 C248.024,417.523 248.316,417.313 248.335,416.915 C248.355,416.487 248.07,415.933 247.719,415.734 C247.714,415.731 247.71,415.729 247.707,415.728" id="Shape" fill="#FFFFFF" fill-rule="nonzero"></path>
                            <path d="M221.485,332.83 C221.146,332.646 220.873,332.842 220.859,333.274 C220.845,333.714 221.123,334.249 221.475,334.448 C221.478,334.45 221.482,334.453 221.485,334.455 C221.808,334.63 222.088,334.431 222.101,334.004 C222.114,333.556 221.837,333.029 221.485,332.83" id="Shape" fill="#FFFFFF" fill-rule="nonzero"></path>
                            <path d="M216.515,379.483 C216.188,379.305 215.901,379.525 215.894,379.948 C215.886,380.374 216.159,380.883 216.492,381.08 C216.496,381.082 216.5,381.084 216.504,381.087 C216.862,381.281 217.148,381.086 217.155,380.648 C217.156,380.233 216.872,379.694 216.545,379.502 C216.534,379.495 216.524,379.488 216.515,379.483" id="Shape" fill="#FFFFFF" fill-rule="nonzero"></path>
                            <path d="M209.118,343.539 C209.114,343.537 209.111,343.535 209.107,343.532 C208.786,343.358 208.494,343.569 208.481,343.977 C208.473,344.428 208.757,344.958 209.109,345.15 C209.448,345.335 209.721,345.136 209.722,344.698 C209.736,344.248 209.465,343.727 209.118,343.539" id="Shape" fill="#FFFFFF" fill-rule="nonzero"></path>
                            <path d="M259.065,357.385 C258.73,357.203 258.444,357.429 258.449,357.882 C258.454,358.323 258.725,358.816 259.065,359.008 C259.398,359.19 259.683,358.991 259.691,358.564 C259.705,358.125 259.42,357.585 259.076,357.39 C259.072,357.388 259.068,357.386 259.065,357.385" id="Shape" fill="#FFFFFF" fill-rule="nonzero"></path>
                            <path d="M214.637,339.027 C214.627,339.021 214.616,339.015 214.606,339.01 C214.267,338.841 214.004,339.068 214.009,339.502 C214.014,339.945 214.292,340.448 214.629,340.632 C214.64,340.638 214.65,340.644 214.662,340.649 C214.989,340.803 215.268,340.579 215.264,340.161 C215.253,339.721 214.969,339.207 214.637,339.027" id="Shape" fill="#FFFFFF" fill-rule="nonzero"></path>
                            <path d="M225.295,399.729 C224.971,399.553 224.697,399.745 224.678,400.164 C224.659,400.608 224.931,401.141 225.282,401.339 C225.289,401.344 225.297,401.348 225.303,401.352 C225.627,401.528 225.901,401.337 225.92,400.925 C225.933,400.478 225.667,399.948 225.316,399.742 C225.31,399.737 225.303,399.733 225.295,399.729" id="Shape" fill="#FFFFFF" fill-rule="nonzero"></path>
                            <path d="M245.141,411.689 C244.805,411.507 244.501,411.723 244.5,412.158 C244.498,412.589 244.765,413.086 245.109,413.289 C245.117,413.294 245.125,413.298 245.133,413.303 C245.466,413.484 245.728,413.309 245.74,412.887 C245.761,412.427 245.494,411.899 245.149,411.696 C245.146,411.693 245.144,411.691 245.141,411.689" id="Shape" fill="#FFFFFF" fill-rule="nonzero"></path>
                            <path d="M221.867,336.912 C221.864,336.91 221.86,336.908 221.856,336.906 C221.529,336.737 221.244,336.943 221.236,337.362 C221.228,337.798 221.525,338.358 221.864,338.543 C222.191,338.721 222.471,338.512 222.478,338.076 C222.485,337.622 222.214,337.101 221.867,336.912" id="Shape" fill="#FFFFFF" fill-rule="nonzero"></path>
                            <path d="M211.127,338.463 C210.79,338.28 210.499,338.484 210.491,338.919 C210.484,339.347 210.75,339.867 211.083,340.071 C211.094,340.077 211.104,340.084 211.113,340.089 C211.44,340.267 211.726,340.055 211.733,339.625 C211.741,339.205 211.468,338.673 211.148,338.476 C211.142,338.471 211.134,338.467 211.127,338.463" id="Shape" fill="#FFFFFF" fill-rule="nonzero"></path>
                            <path d="M272.676,397.99 C272.672,397.987 272.668,397.986 272.664,397.984 C272.331,397.811 272.058,398.031 272.057,398.462 C272.062,398.91 272.339,399.416 272.681,399.602 C272.688,399.606 272.696,399.61 272.703,399.614 C273.042,399.782 273.309,399.566 273.31,399.143 C273.312,398.701 273.022,398.178 272.676,397.99" id="Shape" fill="#FFFFFF" fill-rule="nonzero"></path>
                            <path d="M212.273,343.659 C212.269,343.657 212.265,343.656 212.262,343.654 C211.941,343.487 211.649,343.713 211.648,344.129 C211.641,344.567 211.93,345.098 212.271,345.282 C212.275,345.284 212.278,345.286 212.282,345.288 C212.615,345.469 212.888,345.249 212.89,344.818 C212.892,344.368 212.607,343.841 212.273,343.659" id="Shape" fill="#FFFFFF" fill-rule="nonzero"></path>
                            <path d="M269.275,378.014 C268.94,377.832 268.66,378.07 268.665,378.522 C268.67,378.957 268.947,379.46 269.281,379.641 C269.626,379.829 269.912,379.599 269.907,379.142 C269.896,378.712 269.619,378.201 269.285,378.02 C269.282,378.018 269.279,378.016 269.275,378.014" id="Shape" fill="#FFFFFF" fill-rule="nonzero"></path>
                            <path d="M250.484,342.26 C250.168,342.088 249.876,342.287 249.856,342.696 C249.842,343.144 250.121,343.686 250.466,343.883 C250.472,343.887 250.48,343.891 250.487,343.895 C250.805,344.068 251.086,343.874 251.098,343.458 C251.118,343.005 250.846,342.473 250.494,342.267 C250.491,342.264 250.488,342.262 250.484,342.26" id="Shape" fill="#FFFFFF" fill-rule="nonzero"></path>
                            <path d="M267.383,370.804 C267.073,370.636 266.786,370.839 266.762,371.229 C266.742,371.666 267.021,372.216 267.366,372.419 C267.377,372.426 267.387,372.432 267.397,372.438 C267.717,372.611 267.986,372.413 268.004,372.005 C268.024,371.552 267.758,371.025 267.413,370.82 C267.402,370.814 267.393,370.809 267.383,370.804" id="Shape" fill="#FFFFFF" fill-rule="nonzero"></path>
                            <path d="M266.924,363.212 C266.572,363.022 266.312,363.209 266.304,363.651 C266.296,364.103 266.569,364.627 266.919,364.817 C266.922,364.819 266.926,364.821 266.929,364.823 C267.246,364.995 267.533,364.777 267.546,364.374 C267.559,363.926 267.275,363.403 266.924,363.212" id="Shape" fill="#FFFFFF" fill-rule="nonzero"></path>
                            <path d="M254.993,351.164 C254.825,351.072 254.673,351.077 254.562,351.158 C254.448,351.242 254.377,351.408 254.376,351.637 C254.376,351.869 254.444,352.111 254.558,352.318 C254.662,352.508 254.805,352.671 254.968,352.766 C254.972,352.769 254.976,352.771 254.98,352.773 C255.332,352.964 255.617,352.769 255.619,352.32 C255.62,351.896 255.343,351.369 255.015,351.176 C255.008,351.172 255.001,351.168 254.993,351.164" id="Shape" fill="#FFFFFF" fill-rule="nonzero"></path>
                            <polyline id="Shape" fill="#FFFFFF" fill-rule="nonzero" points="254.516 406.526 254.491 406.537 254.51 406.579 254.54 406.563 254.516 406.526"></polyline>
                        </g>
                    </g>
                </g>
            </g>
        </g>
    </g>
</svg>