<?xml version="1.0" encoding="utf-8"?>
<!-- Generator: Adobe Illustrator 16.0.0, SVG Export Plug-In . SVG Version: 6.00 Build 0)  -->
<!DOCTYPE svg PUBLIC "-//W3C//DTD SVG 1.1//EN" "http://www.w3.org/Graphics/SVG/1.1/DTD/svg11.dtd">
<svg version="1.1" id="Layer_1" xmlns="http://www.w3.org/2000/svg" xmlns:xlink="http://www.w3.org/1999/xlink" x="0px" y="0px"
	 width="1912.136px" height="2466.948px" viewBox="0 0 1912.136 2466.948" enable-background="new 0 0 1912.136 2466.948"
	 xml:space="preserve">
<g>
	<path fill-rule="evenodd" clip-rule="evenodd" fill="#FF60A2" fill-opacity="0.4" d="M1912.136,956.056
		c0,528.021-428.051,956.075-956.069,956.075C428.052,1912.131,0,1484.077,0,956.056C0,428.035,428.052,0,956.067,0
		C1484.085,0,1912.136,428.035,1912.136,956.056z"/>
	
		<path fill-rule="evenodd" clip-rule="evenodd" fill="#FF60A2" fill-opacity="0.4" stroke="#FF60A2" stroke-width="20" stroke-miterlimit="10" d="
		M1647.609,956.062c0,381.929-309.615,691.548-691.542,691.548c-381.921,0-691.537-309.619-691.537-691.548
		c0-381.931,309.616-691.536,691.537-691.536C1337.994,264.525,1647.609,574.131,1647.609,956.062z"/>
	
		<path fill-rule="evenodd" clip-rule="evenodd" fill="#FF60A2" fill-opacity="0.4" stroke="#FF60A2" stroke-width="20" stroke-miterlimit="10" d="
		M1351.605,956.064c0,218.452-177.088,395.538-395.538,395.538c-218.447,0-395.532-177.086-395.532-395.538
		c0-218.449,177.085-395.533,395.532-395.533C1174.517,560.531,1351.605,737.615,1351.605,956.064z"/>
</g>
<g>
	<g>
		<defs>
			<path id="SVGID_1_" d="M1118.918,958.932l60.506,43.14l49.621-42.998l49.498,43.12l49.621-42.996l49.494,43.118l60.623-42.984
				l-0.691,567.355l-1.146,928.426l-60.529-43.127l-49.602,42.995l-49.504-43.132l-49.621,43.015l-49.504-43.132l-60.623,42.99
				l1.148-928.428L1118.918,958.932z M799.539,958.534l-60.63,42.992l-49.496-43.116l-49.622,42.989L590.28,958.29l-49.596,42.986
				l-60.524-43.127l-0.696,567.35l-1.155,928.434l60.629-42.984l49.498,43.125l49.607-43l49.511,43.117l49.607-43.002l60.519,43.141
				l0,0l60.629-42.988l49.511,43.118l49.608-42.996l49.501,43.126l49.615-43.008l60.518,43.141l1.857-1495.79l-60.627,42.991
				l-49.512-43.13l-49.606,43.003l-49.496-43.115l-49.63,42.993L799.539,958.534L799.539,958.534z"/>
		</defs>
		<clipPath id="SVGID_2_">
			<use xlink:href="#SVGID_1_"  overflow="visible"/>
		</clipPath>
		<g clip-path="url(#SVGID_2_)">
			<polygon fill="#268DFF" points="1467.024,2466.948 485.268,2465.735 487.139,946.315 1468.907,947.528 			"/>
		</g>
	</g>
	
		<text transform="matrix(1 0.0012 -0.0012 1 1186.5649 1602.1904)" opacity="0.2424" fill="#EDF9FF" font-family="'Lato-Black'" font-size="75.6171">$9.80</text>
	<g opacity="0.2">
		<polygon fill="#ECF8FF" points="546.048,1189.111 642.935,1189.163 642.81,1242.597 545.943,1242.533 		"/>
		<polygon fill="#ECF8FF" points="708.268,1189.185 1392.016,1189.681 1391.891,1243.111 708.159,1242.616 		"/>
		<polygon fill="#ECF8FF" points="545.908,1302.402 642.796,1302.47 642.666,1355.9 545.785,1355.825 		"/>
		<polygon fill="#ECF8FF" points="545.603,1539.533 642.489,1539.65 642.405,1603.451 545.524,1603.324 		"/>
		<polygon fill="#ECF8FF" points="708.135,1302.479 1391.879,1302.977 1391.762,1356.402 708.016,1355.908 		"/>
		<polygon fill="#ECF8FF" points="545.688,1468.642 1391.651,1469.678 1391.602,1509.856 545.644,1508.81 		"/>
	</g>
	<g>
		<path fill-rule="evenodd" clip-rule="evenodd" fill="#FFFFFF" d="M982.412,2003.266c58.75,2.477,105.903,53.067,101.94,113.831
			c-4.03,62.008-56.777,104.646-114.258,100.663c-62.109-4.271-102.924-57.25-100.396-112.173
			C872.496,2045.259,924.485,1999.849,982.412,2003.266z M912.126,2136.983c0.442,0.554,0.898,1.104,1.327,1.671
			c13.844-7.479,27.796-14.695,41.424-22.493c4.827-2.758,7.903-2.912,11.833,1.506c6.334,7.144,13.559,13.493,20.12,20.472
			c2.968,3.16,4.609,2.973,7.479-0.271c15.101-17.286,30.483-34.31,45.681-51.479c0.85-0.969,2.66-1.894,1.47-4.397
			c-13.864,7.455-27.706,14.505-41.054,22.3c-5.709,3.349-9.274,3.569-13.826-1.746c-6.006-7.066-13.005-13.283-19.578-19.853
			c-1.797-1.794-3.441-3.622-5.977-0.732C944.757,2100.316,928.439,2118.655,912.126,2136.983z M910.688,2139.66
			c0.232-0.184,0.417-0.316,0.589-0.466c-0.168-0.142-0.327-0.435-0.492-0.435c-0.172,0-0.349,0.244-0.522,0.387
			C910.405,2139.318,910.563,2139.488,910.688,2139.66z"/>
		<path fill-rule="evenodd" clip-rule="evenodd" fill="#FFFFFF" d="M1181.053,2110.863c-0.319,10.725-9.117,19.234-19.575,18.921
			c-10.518-0.314-19.159-9.221-18.867-19.436c0.315-10.813,9.259-19.432,19.736-19.032
			C1172.958,2091.733,1181.354,2100.499,1181.053,2110.863z M1150.378,2110.496c-0.028,6.369,4.971,11.436,11.368,11.51
			c6.404,0.09,11.664-5.117,11.641-11.52c-0.027-6.305-5.207-11.429-11.532-11.408
			C1155.462,2099.1,1150.398,2104.141,1150.378,2110.496z"/>
		<path fill-rule="evenodd" clip-rule="evenodd" fill="#FFFFFF" d="M977.124,2314.525c-10.526,0.032-19.308-8.713-19.286-19.231
			c0.007-10.486,8.911-19.337,19.334-19.214c10.488,0.125,19.071,8.693,19.158,19.146
			C996.424,2305.72,987.691,2314.49,977.124,2314.525z M977.13,2283.838c-6.379-0.012-11.434,4.979-11.51,11.38
			c-0.081,6.419,5.131,11.669,11.54,11.629c6.303-0.034,11.389-5.182,11.389-11.542
			C988.56,2288.943,983.486,2283.85,977.13,2283.838z"/>
		<path fill-rule="evenodd" clip-rule="evenodd" fill="#FFFFFF" d="M977.393,1906.579c10.711,0.29,19.237,9.099,18.918,19.562
			c-0.313,10.542-9.191,19.176-19.421,18.877c-10.709-0.302-19.267-9.055-19.046-19.498
			C958.067,1914.876,966.928,1906.311,977.393,1906.579z M977.075,1937.26c6.362,0,11.418-5.03,11.475-11.417
			c0.068-6.331-5.03-11.536-11.341-11.6c-6.41-0.063-11.638,5.161-11.588,11.576C965.667,1932.221,970.707,1937.258,977.075,1937.26
			z"/>
		<path fill-rule="evenodd" clip-rule="evenodd" fill="#FFFFFF" d="M773.113,2110.639c-0.098-10.503,8.624-19.303,19.158-19.337
			c10.461-0.046,19.329,8.815,19.289,19.267c-0.041,10.43-8.661,19.106-19.101,19.228
			C781.962,2129.912,773.201,2121.234,773.113,2110.639z M803.796,2110.699c0.053-6.492-5.03-11.621-11.521-11.621
			c-6.337,0-11.476,5.125-11.495,11.441c-0.011,6.307,5.112,11.455,11.445,11.486
			C798.597,2122.048,803.744,2117.017,803.796,2110.699z"/>
		<path fill-rule="evenodd" clip-rule="evenodd" fill="#FFFFFF" d="M946.97,1924.554c1.954,0.104,3.388,1.015,3.828,3.053
			c0.493,2.22-0.608,3.995-2.976,4.529c-4.643,1.066-9.354,1.832-13.98,2.97c-15.006,3.668-29.301,9.22-42.886,16.601
			c-2.631,1.425-4.506,1.2-5.869-0.602c-1.578-2.095-0.756-4.583,2.043-6.101c9.013-4.89,18.346-9.041,28.024-12.427
			c10.043-3.507,20.35-6.031,30.824-7.902C946.283,1924.63,946.591,1924.599,946.97,1924.554z"/>
		<path fill-rule="evenodd" clip-rule="evenodd" fill="#FFFFFF" d="M1161.178,2150.589c-0.453,1.96-0.966,4.409-1.596,6.821
			c-4.718,18.271-11.995,35.471-21.842,51.578c-1.127,1.846-2.595,3.01-4.818,2.362c-1.743-0.513-2.67-1.869-2.708-3.708
			c-0.033-1.227,0.668-2.219,1.266-3.217c4.342-7.239,8.246-14.707,11.589-22.473c4.324-10.074,7.697-20.448,10.15-31.133
			c0.172-0.755,0.313-1.539,0.612-2.256c0.784-1.865,2.183-2.867,4.255-2.522
			C1160.067,2146.374,1161.226,2147.963,1161.178,2150.589z"/>
		<path fill-rule="evenodd" clip-rule="evenodd" fill="#FFFFFF" d="M862.325,2230.824c1.833,0.127,2.936,1.301,4.089,2.336
			c8.324,7.532,17.321,14.137,26.99,19.83c6.881,4.046,14.036,7.524,21.411,10.571c0.572,0.245,1.165,0.458,1.709,0.757
			c2.112,1.155,2.844,3.189,1.899,5.107c-0.99,1.991-2.9,2.711-5.156,1.814c-5.295-2.107-10.499-4.454-15.574-7.071
			c-13.482-6.963-25.799-15.601-37.056-25.771c-1.567-1.417-2.645-2.952-1.855-5.119
			C859.383,2231.647,860.757,2230.951,862.325,2230.824z"/>
		<path fill-rule="evenodd" clip-rule="evenodd" fill="#FFFFFF" d="M1178.523,2078.777c0,2.517-1.414,4.191-3.442,4.443
			c-1.885,0.232-3.588-0.908-4.068-3.091c-1.196-5.326-2.126-10.722-3.365-16.038c-2.052-8.76-4.828-17.281-8.152-25.641
			c-0.316-0.797-0.637-1.592-0.907-2.414c-0.887-2.652-0.023-4.787,2.223-5.583c1.981-0.711,3.994,0.346,4.959,2.771
			c4.95,12.426,8.939,25.147,11.392,38.313C1177.638,2074.074,1178.114,2076.605,1178.523,2078.777z"/>
		<path fill-rule="evenodd" clip-rule="evenodd" fill="#FFFFFF" d="M1147.013,2142.59c-0.996,5.016-2.184,10.193-3.628,15.314
			c-2.894,10.253-6.771,20.124-11.488,29.672c-1.228,2.491-3.329,3.337-5.341,2.353c-2.074-1.019-2.675-3.071-1.646-5.609
			c0.065-0.142,0.11-0.291,0.181-0.437c6.497-13.25,11.187-27.11,14.095-41.588c0.551-2.763,2.32-4.269,4.38-3.988
			C1145.6,2138.579,1147.074,2140.328,1147.013,2142.59z"/>
		<path fill-rule="evenodd" clip-rule="evenodd" fill="#FFFFFF" d="M800.663,2159.866c1.888,0.175,2.96,1.543,3.618,3.474
			c1.759,5.173,3.47,10.365,5.54,15.432c3.286,8.044,7.142,15.789,11.505,23.298c0.472,0.812,0.965,1.61,1.369,2.452
			c1.077,2.229,0.473,4.405-1.477,5.463c-1.84,1.006-3.914,0.404-5.192-1.722c-2.046-3.421-4.069-6.858-5.896-10.396
			c-5.3-10.297-9.738-20.949-13.137-32.021C795.966,2162.521,797.467,2159.843,800.663,2159.866z"/>
		<path fill-rule="evenodd" clip-rule="evenodd" fill="#FFFFFF" d="M951.647,1943.973c0.04,2.055-1.271,3.454-3.836,4.007
			c-5.108,1.104-10.24,2.115-15.284,3.534c-8.972,2.511-17.622,5.847-26.073,9.715c-0.211,0.098-0.42,0.213-0.64,0.308
			c-2.779,1.209-4.995,0.616-5.989-1.616c-0.921-2.09,0.112-4.126,2.728-5.386c5.2-2.521,10.532-4.737,15.974-6.7
			c9.207-3.314,18.621-5.812,28.252-7.533C949.452,1939.828,951.61,1941.459,951.647,1943.973z"/>
		<path fill-rule="evenodd" clip-rule="evenodd" fill="#FFFFFF" d="M933.822,2304.668c0.063,2.896-2.332,4.682-5.191,3.955
			c-3.629-0.917-7.261-1.874-10.833-2.977c-11.277-3.497-22.219-7.847-32.759-13.183c-2.9-1.473-3.818-3.931-2.203-6.033
			c1.391-1.812,3.164-2.044,5.21-1.058c5.684,2.76,11.397,5.44,17.294,7.747c7.938,3.104,16.035,5.667,24.294,7.75
			C931.783,2301.41,933.646,2302.281,933.822,2304.668z"/>
		<path fill-rule="evenodd" clip-rule="evenodd" fill="#FFFFFF" d="M1094.123,2276.37c-1.086-0.045-2.287-0.679-3.005-2.042
			c-0.701-1.354-0.645-2.746,0.281-3.979c0.459-0.617,1.085-1.139,1.706-1.597c11.878-8.761,22.616-18.745,32.361-29.838
			c2.137-2.44,4.492-2.736,6.257-0.938c1.602,1.626,1.616,3.639-0.156,5.656c-5.307,6.072-10.888,11.884-16.833,17.328
			c-5.424,4.964-11.134,9.596-17.04,13.979C1096.746,2275.643,1095.818,2276.37,1094.123,2276.37z"/>
		<path fill-rule="evenodd" clip-rule="evenodd" fill="#FFFFFF" d="M1147.098,2079.366c0.012,2.469-1.325,4.099-3.36,4.374
			c-1.864,0.249-3.675-1.068-4.166-3.3c-1.38-6.242-2.672-12.511-4.681-18.59c-1.096-3.327-2.253-6.638-3.362-9.964
			c-0.92-2.732-0.146-4.818,2.05-5.662c2.154-0.83,4.127,0.318,5.172,3.039c3.625,9.41,6.249,19.107,8.228,28.982
			C1147.07,2078.697,1147.077,2079.175,1147.098,2079.366z"/>
		<path fill-rule="evenodd" clip-rule="evenodd" fill="#FFFFFF" d="M1129.344,2000.81c-0.046,1.997-0.957,3.181-2.583,3.767
			c-1.786,0.642-3.233-0.113-4.339-1.471c-2.616-3.199-5.122-6.503-7.768-9.682c-3.8-4.562-7.923-8.832-12.153-13.007
			c-1.193-1.177-1.817-2.578-1.196-4.249c0.556-1.512,1.725-2.416,3.34-2.555c1.518-0.14,2.667,0.669,3.686,1.697
			c5.836,5.887,11.5,11.915,16.596,18.463c1.101,1.419,2.203,2.829,3.285,4.264
			C1128.876,1998.92,1129.458,1999.849,1129.344,2000.81z"/>
		<path fill-rule="evenodd" clip-rule="evenodd" fill="#FFFFFF" d="M811.124,2062.088c0.537-1.729,1.161-3.812,1.838-5.886
			c2.591-7.941,5.808-15.625,9.532-23.104c1.419-2.854,3.362-3.839,5.522-2.823c2.265,1.066,2.844,3.38,1.417,6.226
			c-4.215,8.375-7.655,17.053-10.406,26.007c-0.245,0.815-0.548,1.642-1.006,2.355c-0.989,1.558-2.468,2.138-4.238,1.546
			C811.932,2065.795,811.056,2064.445,811.124,2062.088z"/>
		<path fill-rule="evenodd" clip-rule="evenodd" fill="#FFFFFF" d="M915.011,2280.477c0.424,0.081,0.965,0.169,1.487,0.322
			c4.698,1.449,9.409,2.889,14.079,4.405c2.676,0.866,3.802,3.024,2.813,5.224c-0.902,1.998-2.584,2.824-4.623,2.226
			c-5.027-1.46-10.022-3.027-14.986-4.685c-1.997-0.668-2.977-2.234-2.522-4.416C911.654,2281.614,912.96,2280.67,915.011,2280.477z
			"/>
		<path fill-rule="evenodd" clip-rule="evenodd" fill="#FFFFFF" d="M786.211,2156.444c0.116,2.007-1.005,3.563-2.989,4.065
			c-1.834,0.454-3.796-0.527-4.362-2.567c-1.485-5.326-2.524-10.763-3.217-16.252c-0.26-2.063,1.134-3.672,3.065-4.061
			c1.894-0.38,3.888,0.677,4.321,2.681C784.18,2145.637,785.149,2151.002,786.211,2156.444z"/>
		<path fill-rule="evenodd" clip-rule="evenodd" fill="#FFFFFF" d="M817.868,2154.574c0.043,2.733-1.253,4.382-3.176,4.748
			c-1.75,0.327-3.7-0.793-4.262-2.865c-1.07-3.919-1.927-7.889-2.845-11.842c-0.3-1.285-0.601-2.592-0.744-3.909
			c-0.213-1.985,1.053-3.78,2.972-4.19c2.046-0.432,3.718,0.39,4.278,2.341C815.657,2144.256,816.383,2149.851,817.868,2154.574z"/>
		<path fill-rule="evenodd" clip-rule="evenodd" fill="#FFFFFF" d="M1008.583,1909.056c5.548,1.006,11.193,1.818,16.631,3.481
			c1.977,0.602,2.66,2.322,2.285,4.327c-0.35,1.869-2.251,3.311-4.166,2.949c-5.28-0.969-10.548-2.02-15.783-3.202
			c-2.222-0.501-3.292-2.368-2.855-4.411C1005.147,1910.176,1006.542,1909.235,1008.583,1909.056z"/>
		<path fill-rule="evenodd" clip-rule="evenodd" fill="#FFFFFF" d="M802.402,2201.005c-0.064,1.793-1.009,3.013-2.731,3.622
			c-1.73,0.612-3.261-0.029-4.069-1.448c-2.876-4.99-5.276-10.245-7.196-15.673c-0.628-1.787,0.282-3.376,2.06-4.25
			c1.82-0.882,3.702-0.518,4.522,1.125c2.633,5.206,4.944,10.567,7.358,15.874C802.435,2200.459,802.387,2200.717,802.402,2201.005z
			"/>
		<path fill-rule="evenodd" clip-rule="evenodd" fill="#FFFFFF" d="M1165.689,2187.874c-2.228,5.343-4.368,11.295-8,16.502
			c-0.996,1.436-2.9,1.472-4.458,0.401c-1.458-1.014-2.355-2.487-1.583-4.241c2.254-5.133,4.579-10.228,7.055-15.258
			c0.773-1.562,2.352-2.255,4.197-1.639C1164.654,2184.233,1165.52,2185.5,1165.689,2187.874z"/>
		<path fill-rule="evenodd" clip-rule="evenodd" fill="#FFFFFF" d="M1082.158,1936.199c0.468-0.049,1.302,0.337,2.102,0.868
			c4.026,2.696,8.088,5.348,12.073,8.095c2.332,1.608,2.839,3.948,1.464,5.838c-1.323,1.799-3.526,2.003-5.807,0.498
			c-4.1-2.719-8.197-5.45-12.28-8.207c-1.593-1.084-2.19-2.652-1.61-4.5C1078.616,1937.134,1079.878,1936.281,1082.158,1936.199z"/>
		<path fill-rule="evenodd" clip-rule="evenodd" fill="#FFFFFF" d="M1124.85,2021.649c-0.157,1.798-0.901,3.063-2.393,3.67
			c-1.574,0.66-3.233,0.428-4.241-0.991c-3.208-4.512-6.348-9.063-9.368-13.717c-1.108-1.707-0.386-3.827,1.258-4.913
			c1.642-1.076,3.704-0.899,5.026,0.803c3.357,4.314,6.428,8.838,9.214,13.541
			C1124.655,2020.556,1124.722,2021.215,1124.85,2021.649z"/>
		<path fill-rule="evenodd" clip-rule="evenodd" fill="#FFFFFF" d="M1055.515,2262.223c-0.02,1.775-0.969,2.986-2.483,3.665
			c-4.703,2.102-9.41,4.184-14.172,6.137c-2.172,0.891-4.178-0.092-5.012-2.116c-0.784-1.902-0.084-3.92,2.002-4.877
			c4.815-2.207,9.662-4.377,14.574-6.367C1052.892,2257.66,1055.487,2259.622,1055.515,2262.223z"/>
		<path fill-rule="evenodd" clip-rule="evenodd" fill="#FFFFFF" d="M862.969,2272.11c0.039,2.924-3.161,4.946-5.648,3.318
			c-4.715-3.083-9.113-6.617-13.238-10.453c-1.476-1.379-1.423-3.721-0.068-5.091c1.409-1.446,3.179-1.927,4.862-0.64
			c4.35,3.312,8.613,6.759,12.887,10.177C862.583,2270.082,862.94,2271.051,862.969,2272.11z"/>
		<path fill-rule="evenodd" clip-rule="evenodd" fill="#FFFFFF" d="M839.875,1968.616c-0.041,1.239-0.628,2.234-1.45,3.112
			c-3.25,3.485-6.488,6.983-9.755,10.46c-1.973,2.109-4.246,2.367-5.955,0.753c-1.607-1.534-1.588-3.852,0.219-5.854
			c3.261-3.586,6.581-7.118,9.882-10.658c1.277-1.385,2.855-1.981,4.655-1.28C838.986,1965.738,839.74,1966.994,839.875,1968.616z"
			/>
		<path fill-rule="evenodd" clip-rule="evenodd" fill="#FFFFFF" d="M886.886,1935.879c-1.842-0.18-3.188-1.014-3.677-2.789
			c-0.5-1.843,0.052-3.472,1.775-4.397c2.324-1.259,4.715-2.392,7.113-3.497c2.476-1.146,4.961-2.261,7.504-3.245
			c2.059-0.813,4.076,0.051,4.939,1.887c0.861,1.84,0.26,4.034-1.711,4.98c-4.902,2.364-9.883,4.565-14.841,6.819
			C887.641,1935.789,887.236,1935.807,886.886,1935.879z"/>
		<path fill-rule="evenodd" clip-rule="evenodd" fill="#FFFFFF" d="M864.344,2253.435c0.011,3.076-3.328,5.149-5.678,3.47
			c-4.633-3.323-8.863-7.162-12.777-11.317c-1.394-1.473-1.231-3.323,0.116-4.895c1.305-1.53,3.42-1.826,5.035-0.439
			c4.11,3.478,8.103,7.099,12.125,10.688C863.954,2251.643,864.303,2252.592,864.344,2253.435z"/>
		<path fill-rule="evenodd" clip-rule="evenodd" fill="#FFFFFF" d="M1052.634,2282.857c-1.729-0.169-3.119-0.973-3.633-2.744
			c-0.564-1.958,0.085-3.623,1.923-4.568c3.605-1.86,7.266-3.612,10.904-5.413c1.188-0.593,2.317-1.315,3.565-1.767
			c1.858-0.68,3.447-0.022,4.445,1.612c1.074,1.756,0.922,3.685-0.81,4.804c-4.91,3.206-10.266,5.616-15.637,7.945
			C1053.184,2282.82,1052.936,2282.806,1052.634,2282.857z"/>
		<path fill-rule="evenodd" clip-rule="evenodd" fill="#FFFFFF" d="M815.027,2223.965c1.34,0.052,2.422,0.741,3.278,1.846
			c2.984,3.82,6.003,7.615,8.964,11.438c1.731,2.239,1.614,4.307-0.2,5.822c-1.783,1.509-3.966,1.219-5.716-0.942
			c-3.104-3.826-6.105-7.719-9.137-11.599c-1.05-1.338-1.381-2.831-0.649-4.387C812.225,2224.783,813.393,2224.037,815.027,2223.965
			z"/>
		<path fill-rule="evenodd" clip-rule="evenodd" fill="#FFFFFF" d="M1042.055,1952.866c0.05,2.115-1.731,3.901-3.845,3.885
			c-1.963-0.019-3.761-1.799-3.802-3.756c-0.036-1.92,1.747-3.81,3.674-3.901C1040.154,1948.978,1042.02,1950.756,1042.055,1952.866
			z"/>
		<path fill-rule="evenodd" clip-rule="evenodd" fill="#FFFFFF" d="M1012.125,1928.93c-0.218,2.121-2.209,3.771-4.23,3.513
			c-2.018-0.262-3.588-2.175-3.398-4.106c0.207-2.16,2.093-3.683,4.233-3.438C1010.794,1925.13,1012.331,1926.944,1012.125,1928.93z
			"/>
		<path fill-rule="evenodd" clip-rule="evenodd" fill="#FFFFFF" d="M1022.957,2293.151c-2.143-0.048-3.774-1.818-3.685-4.012
			c0.078-2.09,1.747-3.68,3.795-3.63c2.122,0.033,3.881,1.898,3.775,3.981C1026.735,2291.453,1024.887,2293.2,1022.957,2293.151z"/>
		<path fill-rule="evenodd" clip-rule="evenodd" fill="#FFFFFF" d="M862.02,1970.042c-2.115-0.02-3.825-1.826-3.766-3.958
			c0.068-2.058,1.752-3.677,3.802-3.665c2.15,0.023,3.844,1.799,3.765,3.945C865.746,1968.409,864.033,1970.063,862.02,1970.042z"/>
		<path fill-rule="evenodd" clip-rule="evenodd" fill="#FFFFFF" d="M836.511,2198.481c-0.023,2.101-1.815,3.775-4.002,3.717
			c-2.046-0.05-3.7-1.759-3.673-3.775c0.033-2.093,1.896-3.873,3.973-3.788C834.801,2194.711,836.524,2196.511,836.511,2198.481z"/>
		<path fill-rule="evenodd" clip-rule="evenodd" fill="#FFFFFF" d="M786.985,2052.002c-2.14,0-3.891-1.789-3.839-3.899
			c0.06-1.97,1.84-3.714,3.813-3.726c2.119-0.008,3.815,1.764,3.767,3.938C790.69,2050.387,789.043,2052.006,786.985,2052.002z"/>
		<path fill-rule="evenodd" clip-rule="evenodd" fill="#FFFFFF" d="M1091.13,1989.558c-2.059-0.019-3.704-1.654-3.745-3.718
			c-0.045-2.152,1.704-3.94,3.8-3.903c2.108,0.016,3.839,1.85,3.771,3.961C1094.883,1987.929,1093.167,1989.562,1091.13,1989.558z"
			/>
		<path fill-rule="evenodd" clip-rule="evenodd" fill="#FFFFFF" d="M824.338,2012.783c0.06,1.968-1.644,3.746-3.662,3.841
			c-2.138,0.108-3.954-1.59-3.993-3.72c-0.029-2.039,1.586-3.755,3.633-3.846C822.435,2008.971,824.286,2010.685,824.338,2012.783z"
			/>
		<path fill-rule="evenodd" clip-rule="evenodd" fill="#FFFFFF" d="M886.314,2275.098c-2.127-0.044-3.777-1.854-3.669-4.011
			c0.099-2.045,1.831-3.672,3.862-3.607c2.131,0.067,3.784,1.878,3.685,4.041C890.103,2273.545,888.366,2275.149,886.314,2275.098z"
			/>
		<path fill-rule="evenodd" clip-rule="evenodd" fill="#FFFFFF" d="M1007.362,2273.072c2.127,0.062,3.742,1.868,3.64,4.064
			c-0.094,2.092-1.735,3.581-3.863,3.513c-2.083-0.056-3.722-1.716-3.722-3.749
			C1003.417,2274.828,1005.3,2273.006,1007.362,2273.072z"/>
		<path fill-rule="evenodd" clip-rule="evenodd" fill="#FFFFFF" d="M864.476,1988.301c-2.068,0-3.895-1.865-3.85-3.93
			c0.044-1.986,1.782-3.711,3.787-3.745c2.11-0.022,3.835,1.759,3.784,3.919C868.153,1986.605,866.47,1988.301,864.476,1988.301z"/>
		<path fill-rule="evenodd" clip-rule="evenodd" fill="#FFFFFF" d="M802.867,2019.285c-0.037,2.11-1.904,3.872-3.981,3.766
			c-2.015-0.108-3.641-1.863-3.606-3.895c0.041-2.105,1.896-3.865,3.974-3.769C801.233,2015.488,802.913,2017.288,802.867,2019.285z
			"/>
		<path fill-rule="evenodd" clip-rule="evenodd" fill="#FFFFFF" d="M1178.485,2142.028c0.006,2.019-1.646,3.71-3.704,3.778
			c-2.145,0.063-3.919-1.627-3.926-3.778c-0.004-2.019,1.663-3.747,3.686-3.795
			C1176.656,2138.183,1178.473,2139.935,1178.485,2142.028z"/>
		<path fill-rule="evenodd" clip-rule="evenodd" fill="#FFFFFF" d="M809.985,2040.779c-0.012,2.043-1.655,3.744-3.682,3.777
			c-2.103,0.04-3.928-1.758-3.91-3.848c0.019-1.96,1.78-3.753,3.734-3.796C808.215,2036.855,809.994,2038.637,809.985,2040.779z"/>
		<path fill-rule="evenodd" clip-rule="evenodd" fill="#FFFFFF" d="M1157.429,2056.632c0.052,2.133-1.695,3.939-3.799,3.936
			c-2.021-0.005-3.725-1.685-3.77-3.702c-0.043-2.139,1.704-3.967,3.782-3.951
			C1155.649,2052.917,1157.38,2054.623,1157.429,2056.632z"/>
		<path fill-rule="evenodd" clip-rule="evenodd" fill="#FFFFFF" d="M1038.728,1932.701c2.127,0.062,3.786,1.871,3.681,4.043
			c-0.088,2.025-1.852,3.688-3.85,3.629c-2.099-0.061-3.802-1.902-3.705-4.03
			C1034.941,1934.347,1036.744,1932.649,1038.728,1932.701z"/>
		<path fill-rule="evenodd" clip-rule="evenodd" fill="#FFFFFF" d="M1142.115,2023.82c2.119,0.072,3.741,1.896,3.626,4.072
			c-0.106,2.04-1.866,3.678-3.867,3.59c-2.103-0.085-3.817-1.972-3.686-4.069C1138.313,2025.44,1140.157,2023.738,1142.115,2023.82z
			"/>
		<path fill-rule="evenodd" clip-rule="evenodd" fill="#FFFFFF" d="M1135.241,1992.917c0.044-2.105,1.637-3.649,3.76-3.633
			c2.171,0,3.903,1.74,3.831,3.864c-0.067,1.978-1.859,3.721-3.81,3.713C1136.882,1996.861,1135.196,1995.092,1135.241,1992.917z"/>
		<path fill-rule="evenodd" clip-rule="evenodd" fill="#FFFFFF" d="M1070.056,1966.902c-0.013,2.139-1.774,3.818-3.958,3.762
			c-2.066-0.057-3.612-1.683-3.608-3.802c0.004-2.175,1.734-3.856,3.888-3.783
			C1068.376,1963.148,1070.071,1964.92,1070.056,1966.902z"/>
		<path fill-rule="evenodd" clip-rule="evenodd" fill="#FFFFFF" d="M1064.236,2225.046c-0.04-0.048-0.09-0.097-0.129-0.143
			c0.048-0.037,0.104-0.112,0.152-0.112c0.045,0,0.094,0.084,0.139,0.124C1064.353,2224.957,1064.296,2224.996,1064.236,2225.046z"
			/>
	</g>
</g>
<text transform="matrix(1 0 0 1 575.3809 1749.9053)"><tspan x="0" y="0" fill="#FFFFFF" font-family="'Nunito'" font-size="60">Scan this to let us know how </tspan><tspan x="17.819" y="72" fill="#FFFFFF" font-family="'Nunito'" font-size="60">we’re doing on Messenger:</tspan></text>
</svg>
