<?xml version="1.0" encoding="UTF-8" standalone="no"?>
<svg width="359px" height="496px" viewBox="0 0 359 496" version="1.1" xmlns="http://www.w3.org/2000/svg" xmlns:xlink="http://www.w3.org/1999/xlink">
    <!-- Generator: Sketch 43.1 (39012) - http://www.bohemiancoding.com/sketch -->
    <title>server</title>
    <desc>Created with Sketch.</desc>
    <defs></defs>
    <g id="Page-1" stroke="none" stroke-width="1" fill="none" fill-rule="evenodd">
        <g id="space" transform="translate(-6800.000000, -1627.000000)" fill-rule="nonzero">
            <g id="server" transform="translate(6800.000000, 1627.000000)">
                <g id="cup" transform="translate(289.000000, 374.000000)">
                    <path d="M60.247,9.543 C60.247,4.689 46.827,1 30.272,1 L30.267,1 L30.262,1 C27.164,1 24.179,0.895 21.374,1.15 C9.164,2.26 0.296,5.477 0.296,9.422 C0.296,9.643 0.444,62.218 0.444,63.009 C0.444,67.861 13.689,71.768 30.244,71.768 C46.799,71.768 60.044,67.914 60.044,63.062 C60.045,62.334 60.247,9.884 60.247,9.543 Z" id="Shape" fill="#A1F7F0"></path>
                    <ellipse id="Oval" fill="#EBF7F7" cx="30.271" cy="12.024" rx="22.213" ry="6.511"></ellipse>
                </g>
                <path d="M290,399.811 C288,403.243 311.009,419.253 297.909,419.253 C284.808,419.253 273.513,394.243 273.513,394.243 C273.513,394.243 283,387.198 290,382.631 L290,399.811 L290,399.811 Z" id="Shape" fill="#FFDEDE"></path>
                <path d="M349.247,396.172 C349.304,396.139 343.306,399.603 340.329,399.57 C337.352,399.537 343.441,417.312 343.009,422.581 C342.576,427.85 352.567,422.581 355.668,420.791 C358.769,419.001 357.301,419.848 358.097,396.624 C358.097,396.624 352.658,385.323 349.234,386.353 L349.247,396.172 Z" id="Shape" fill="#FFDEDE"></path>
                <g id="head">
                    <path d="M95.462,215.696 L132.423,211.888 L169.577,192.876 C157.514,178.319 164.006,178.062 164.006,168.011 C175.176,170.173 175.381,166.15 182.343,160.514 C196.812,138.66 202.795,86.888 202.795,70.001 C202.795,44.991 133.695,-8.129 80.696,32.066 C27.697,72.261 71.023,154.221 84.96,166.468 C98.897,178.718 99.885,202.923 95.462,215.696" id="Shape" fill="#FFDEDE"></path>
                    <path d="M106.083,87.647 C106.083,87.647 127.029,74.203 150.927,67.948 C153.345,67.126 143.606,54.215 135.551,48.785 C149.218,52.119 157.051,67.193 159.657,66.514 C175.685,62.346 192.993,60.067 208.06,63.057 C208.06,63.057 179.841,-6.817 117.465,0.924 C88.578,4.509 62.735,17.289 48.81,38.381 C31.384,-61.216 -45.909,86.777 42.253,51.222 C33.42,74.705 37.392,105.856 62.278,143.866 L81.386,132.809 C81.387,132.81 65.1,76.432 106.083,87.647 Z" id="Shape" fill="#9188FB"></path>
                </g>
                <path d="M145.971,479.961 L163.675,472.285 C163.675,472.285 177.003,481.457 182.903,484.522 C190.638,486.264 191.538,474.915 185.078,472.449 C178.619,469.983 160.073,460.407 158.329,465.983 C156.586,471.562 145.971,479.961 145.971,479.961 Z" id="Shape" fill="#FFDEDE"></path>
                <path d="M225.736,418.895 C235.311,424.423 103.771,481.351 54.203,454.321 C52.719,449.849 52.31,382.018 57.19,356.232 C66.903,304.893 86.968,302.988 86.968,302.988 C86.968,302.988 102.347,386.584 105.753,412.507 C121.786,427.63 150.755,444.187 166.444,457.305 C158.86,465.879 156.451,483.08 135.939,495.34 C131.46,495.34 76.423,442.127 62.56,424.862 C54.561,411.007 30.468,291.831 44.724,244.946 C48.231,233.409 72.379,211.165 80.61,213.51 C84.67,214.665 93.028,215.22 103.015,214.417 C129.306,212.305 157.37,202.649 172.727,176.051 C174.711,169.588 195.808,163.397 216.102,175.113 C222.704,180.344 249.141,288.215 255.738,335.506 C265.451,346.216 281.696,359.396 307.451,376.017 C296.007,376.377 273.414,398.923 273.414,398.923 C258.547,393.901 233.52,363.463 225.22,356.677 C218.932,348.69 208.635,261.221 208.635,261.221 C208.635,261.221 226.327,401.43 225.736,418.895 Z" id="server_shirt" fill="#EBE8FF"></path>
            </g>
        </g>
    </g>
</svg>