<?xml version="1.0" encoding="utf-8"?>
<!-- Generator: Adobe Illustrator 16.0.0, SVG Export Plug-In . SVG Version: 6.00 Build 0)  -->
<!DOCTYPE svg PUBLIC "-//W3C//DTD SVG 1.1//EN" "http://www.w3.org/Graphics/SVG/1.1/DTD/svg11.dtd">
<svg version="1.1" id="Layer_1" xmlns="http://www.w3.org/2000/svg" xmlns:xlink="http://www.w3.org/1999/xlink" x="0px" y="0px"
	 width="796px" height="1127.195px" viewBox="0 0 796 1127.195" enable-background="new 0 0 796 1127.195" xml:space="preserve">
<polygon fill="#D2F7F6" points="629.201,0 0,369.35 0,1030.971 166.645,1127.195 796,765.008 796,757.846 796,96.225 "/>
<polygon fill="#A1F7F0" points="166,454.809 166,1127.195 796,765.008 796,96.225 "/>
<g>
	<g>
		<g enable-background="new    ">
			<defs>
				<polygon id="SVGID_1_" enable-background="new    " points="332.487,871.763 303.197,417.096 592.985,344.844 622.274,799.511 
									"/>
			</defs>
			<clipPath id="SVGID_2_">
				<use xlink:href="#SVGID_1_"  overflow="visible"/>
			</clipPath>
			<g clip-path="url(#SVGID_2_)">
				<g>
					<g>
						<g>
							<path fill="#6DC82A" d="M514.784,364.341c-1.146,0.286-2.296,0.743-3.428,1.383c-30.618,17.289-49.337,37.702-60.521,57.872
								l0.001,0.001c4.35-7.845,9.839-15.725,16.726-23.446c18.467,18.764,26.013,42.142,29.062,59.179
								c0.394,2.199,0.73,4.386,1.018,6.555c11.716,0.464,22.896,2.373,33.333,5.591c17.522-49.455-2.143-98.143-3.012-100.243
								C525.634,365.586,520.283,362.97,514.784,364.341"/>
							<path fill="#5EAC24" d="M467.562,400.151c-6.887,7.721-12.376,15.601-16.726,23.446
								c12.359,12.965,18.472,28.881,21.324,43.501c8.708-1.152,17.229-1.541,25.481-1.214c-0.287-2.169-0.624-4.355-1.018-6.555
								C493.574,442.292,486.028,418.915,467.562,400.151"/>
							<path fill="#91DC5A" d="M390.353,397.646c1.173,0.105,2.33,0.224,3.471,0.355c-2.751,19.603-5.351,61.123,9.859,93.678
								c15.438-9.393,32.336-16.636,50.183-21.086c0.305-0.076,0.608-0.151,0.913-0.225c0.128-0.031,0.251-0.061,0.378-0.091
								c0.174-0.042,0.348-0.085,0.522-0.126c0.165-0.039,0.338-0.079,0.504-0.118c0.132-0.031,0.266-0.063,0.398-0.094
								c0.204-0.047,0.409-0.094,0.613-0.141c0.089-0.021,0.178-0.041,0.267-0.061c0.233-0.053,0.464-0.104,0.697-0.156
								c0.062-0.014,0.124-0.028,0.187-0.042c0.257-0.057,0.523-0.115,0.781-0.17c0.028-0.006,0.058-0.012,0.086-0.019
								c4.357-0.938,8.675-1.687,12.948-2.252c-2.853-14.62-8.965-30.536-21.324-43.501l-0.001-0.001
								C438.229,410.372,419.123,400.218,390.353,397.646 M381.399,397.598c-5.5,1.371-10.351,6.531-11.897,13.143
								c-0.575,2.46-13.438,59.259,9.802,98.55c-23.24-39.292-10.377-96.09-9.794-98.552
								C371.049,404.129,375.898,398.969,381.399,397.598"/>
							<path fill="#6DC82A" d="M381.399,397.598c-5.5,1.371-10.35,6.531-11.889,13.141c-0.583,2.462-13.446,59.261,9.794,98.552
								c7.609-6.462,15.769-12.375,24.378-17.613c-15.21-32.556-12.61-74.076-9.859-93.678c-1.141-0.131-2.297-0.25-3.471-0.355
								c-1.781-0.161-3.601-0.292-5.46-0.391C383.716,397.191,382.543,397.312,381.399,397.598"/>
							<path fill="#FF728B" d="M478.04,835.468c-0.07,0.019-0.139,0.036-0.209,0.055
								C477.899,835.505,477.971,835.485,478.04,835.468 M478.5,835.346c-0.069,0.02-0.139,0.038-0.208,0.057
								C478.365,835.383,478.428,835.366,478.5,835.346 M478.964,835.22c-0.071,0.021-0.146,0.041-0.219,0.061
								C478.818,835.26,478.892,835.24,478.964,835.22 M479.427,835.091c-0.076,0.021-0.151,0.043-0.228,0.064
								C479.277,835.134,479.35,835.112,479.427,835.091 M479.884,834.96c-0.076,0.022-0.153,0.044-0.229,0.066
								C479.728,835.005,479.811,834.98,479.884,834.96 M480.35,834.822c-0.082,0.024-0.164,0.049-0.246,0.073
								C480.186,834.871,480.268,834.847,480.35,834.822 M480.809,834.684c-0.085,0.026-0.17,0.052-0.256,0.078
								C480.641,834.735,480.722,834.71,480.809,834.684 M481.28,834.537c-0.095,0.03-0.191,0.06-0.287,0.089
								C481.09,834.597,481.184,834.567,481.28,834.537 M481.732,834.393c-0.1,0.032-0.198,0.064-0.298,0.097
								C481.535,834.456,481.631,834.426,481.732,834.393 M482.194,834.243c-0.107,0.035-0.214,0.07-0.32,0.104
								C481.985,834.312,482.083,834.28,482.194,834.243 M482.65,834.091c-0.115,0.038-0.231,0.078-0.346,0.116
								C482.419,834.169,482.534,834.13,482.65,834.091 M483.117,833.932c-0.13,0.044-0.26,0.089-0.391,0.133
								C482.857,834.021,482.987,833.976,483.117,833.932 M507.739,794.815c-2.034,0.507-4.09-0.14-5.396-1.932
								c-2.024-2.791-1.454-7.299,1.271-10.079c15.621-15.88,30.859-40.912,44.055-72.381c1.766-4.197,3.487-8.505,5.123-12.8
								c0.979-2.567,2.982-4.37,5.133-4.906c1.014-0.253,2.059-0.225,3.044,0.139c3.077,1.133,4.417,5.113,2.977,8.88
								c-1.709,4.48-3.51,8.973-5.341,13.352c-14.056,33.506-30.533,60.424-47.653,77.828
								C509.979,793.908,508.858,794.536,507.739,794.815 M471.76,748.368c-8.788,2.191-16.434-4.112-17.075-14.081
								c-0.643-9.968,5.962-19.825,14.749-22.017c8.788-2.191,16.433,4.114,17.074,14.082
								C487.15,736.32,480.547,746.178,471.76,748.368 M571.965,666.363c-0.779,0.194-1.577,0.219-2.363,0.058
								c-3.226-0.687-4.984-4.379-3.92-8.253c2.654-9.718,4.94-19.439,6.784-28.877c0.62-3.189,2.921-5.707,5.543-6.362
								c0.601-0.149,1.219-0.201,1.837-0.141c3.311,0.334,5.369,3.777,4.607,7.697c-1.931,9.869-4.313,20.008-7.087,30.147
								C576.564,663.57,574.385,665.76,571.965,666.363 M435.307,684.337c-8.78,2.189-16.425-4.114-17.066-14.074
								c-0.642-9.968,5.961-19.824,14.742-22.014c8.787-2.191,16.432,4.113,17.074,14.081
								C450.698,672.29,444.095,682.146,435.307,684.337 M498.932,668.474c-8.78,2.189-16.425-4.115-17.066-14.074
								c-0.642-9.969,5.961-19.825,14.741-22.014c8.788-2.191,16.434,4.112,17.075,14.081
								C514.323,656.426,507.72,666.283,498.932,668.474 M398.828,619.895c-8.788,2.191-16.432-4.113-17.074-14.072
								c-0.642-9.969,5.961-19.826,14.749-22.017c8.78-2.189,16.425,4.116,17.067,14.084
								C414.212,607.85,407.608,617.706,398.828,619.895 M462.461,604.029c-8.788,2.191-16.433-4.113-17.074-14.072
								c-0.643-9.969,5.962-19.826,14.749-22.018c8.788-2.19,16.433,4.114,17.074,14.083
								C477.852,591.981,471.249,601.838,462.461,604.029 M526.101,588.162c-8.795,2.193-16.432-4.113-17.073-14.073
								c-0.643-9.968,5.953-19.823,14.748-22.016c8.781-2.189,16.426,4.116,17.068,14.083
								C541.485,576.116,534.881,585.973,526.101,588.162 M459.212,469.351c7.656-1.647,15.19-2.707,22.574-3.218
								c-65.97,28.616-112.868,95.5-108.668,160.704c4.201,65.204,62.958,182.402,131.624,195.642
								c-6.957,4.99-14.171,8.878-21.615,11.449c76.883-26.541,128.913-193.297,124.262-265.501
								c-3.11-48.284-33.46-83.708-76.414-96.951c-10.438-3.218-21.617-5.126-33.333-5.591c-8.252-0.327-16.773,0.062-25.481,1.214
								C467.887,467.664,463.569,468.413,459.212,469.351 M458.345,469.54c0.261-0.057,0.521-0.114,0.781-0.17
								C458.868,469.425,458.602,469.483,458.345,469.54 M457.461,469.738c0.232-0.053,0.465-0.104,0.697-0.156
								C457.925,469.634,457.694,469.685,457.461,469.738 M456.581,469.939c0.204-0.047,0.408-0.094,0.613-0.141
								C456.99,469.845,456.785,469.893,456.581,469.939 M455.679,470.151c0.168-0.04,0.336-0.079,0.504-0.118
								C456.017,470.072,455.844,470.112,455.679,470.151 M454.778,470.368c0.126-0.031,0.252-0.061,0.378-0.091
								C455.029,470.308,454.906,470.337,454.778,470.368"/>
							<path fill="#FF3F62" d="M453.865,470.593c-17.847,4.45-34.745,11.693-50.183,21.086c-8.609,5.238-16.77,11.15-24.378,17.613
								c-39.917,33.905-64.814,83.104-61.704,131.387c4.767,73.988,79.759,214.909,159.78,194.958
								c0.149-0.037,0.301-0.076,0.45-0.114c0.07-0.019,0.139-0.036,0.209-0.055c0.084-0.022,0.168-0.043,0.252-0.065
								c0.069-0.019,0.139-0.037,0.208-0.057c0.082-0.021,0.163-0.043,0.245-0.065c0.072-0.02,0.147-0.04,0.219-0.061
								c0.079-0.021,0.157-0.042,0.235-0.064c0.076-0.021,0.151-0.043,0.228-0.064s0.152-0.043,0.228-0.064
								c0.076-0.022,0.153-0.044,0.229-0.066c0.073-0.021,0.146-0.043,0.22-0.064c0.082-0.024,0.164-0.049,0.246-0.073
								c0.067-0.021,0.136-0.04,0.203-0.061c0.086-0.026,0.171-0.052,0.256-0.078c0.062-0.02,0.123-0.038,0.185-0.058
								c0.096-0.029,0.192-0.059,0.287-0.089c0.051-0.016,0.102-0.032,0.154-0.048c0.1-0.032,0.198-0.064,0.298-0.097
								c0.048-0.015,0.094-0.03,0.142-0.045c0.106-0.034,0.213-0.069,0.32-0.104c0.036-0.013,0.072-0.024,0.11-0.036
								c0.114-0.038,0.23-0.078,0.346-0.116c0.025-0.009,0.052-0.018,0.076-0.026c0.131-0.044,0.261-0.089,0.391-0.133
								c0.003-0.001,0.006-0.002,0.01-0.004c7.444-2.571,14.658-6.459,21.615-11.449
								c-68.666-13.239-127.423-130.438-131.624-195.642c-4.2-65.204,42.698-132.088,108.668-160.704
								c-7.384,0.511-14.918,1.571-22.574,3.218c-0.028,0.006-0.058,0.012-0.086,0.019c-0.26,0.056-0.521,0.113-0.781,0.17
								c-0.062,0.014-0.124,0.028-0.187,0.042c-0.232,0.052-0.465,0.104-0.697,0.156c-0.089,0.02-0.178,0.041-0.267,0.061
								c-0.205,0.047-0.409,0.093-0.613,0.141c-0.133,0.031-0.267,0.062-0.398,0.094c-0.168,0.039-0.336,0.078-0.504,0.118
								c-0.175,0.041-0.349,0.084-0.522,0.126c-0.126,0.03-0.252,0.06-0.378,0.091C454.474,470.442,454.17,470.517,453.865,470.593"
								/>
							<path fill="#FF3F62" d="M578.009,622.929c-2.622,0.655-4.923,3.173-5.543,6.362c-1.844,9.438-4.13,19.159-6.784,28.877
								c-1.064,3.874,0.694,7.566,3.92,8.253c0.786,0.161,1.584,0.137,2.363-0.058c2.42-0.604,4.6-2.793,5.401-5.73
								c2.773-10.14,5.156-20.278,7.087-30.147c0.762-3.92-1.297-7.363-4.607-7.697
								C579.228,622.728,578.609,622.779,578.009,622.929"/>
							<path fill="#FF3F62" d="M557.926,692.718c-2.15,0.536-4.154,2.339-5.133,4.906c-1.636,4.295-3.357,8.603-5.123,12.8
								c-13.195,31.469-28.434,56.501-44.055,72.381c-2.726,2.78-3.296,7.288-1.271,10.079c1.306,1.792,3.361,2.438,5.396,1.932
								c1.119-0.279,2.239-0.907,3.213-1.899c17.12-17.404,33.598-44.322,47.653-77.828c1.831-4.379,3.632-8.871,5.341-13.352
								c1.44-3.767,0.101-7.747-2.977-8.88C559.984,692.493,558.939,692.465,557.926,692.718"/>
							<path fill="#FF3F62" d="M469.434,712.271c-8.787,2.191-15.392,12.049-14.749,22.017c0.642,9.969,8.287,16.272,17.075,14.081
								c8.787-2.19,15.391-12.048,14.748-22.016C485.866,716.385,478.222,710.079,469.434,712.271"/>
							<path fill="#FF3F62" d="M396.503,583.806c-8.788,2.19-15.391,12.048-14.749,22.017c0.642,9.959,8.286,16.264,17.074,14.072
								c8.78-2.188,15.384-12.045,14.742-22.005C412.928,587.922,405.283,581.616,396.503,583.806"/>
							<path fill="#FF3F62" d="M460.136,567.939c-8.787,2.191-15.392,12.049-14.749,22.018c0.642,9.959,8.286,16.264,17.074,14.072
								s15.391-12.048,14.749-22.007C476.568,572.054,468.924,565.749,460.136,567.939"/>
							<path fill="#FF3F62" d="M523.775,552.073c-8.795,2.193-15.391,12.048-14.748,22.016c0.642,9.96,8.278,16.267,17.073,14.073
								c8.78-2.189,15.385-12.046,14.743-22.006C540.201,556.188,532.557,549.884,523.775,552.073"/>
							<path fill="#FF3F62" d="M432.982,648.249c-8.781,2.189-15.384,12.046-14.742,22.014c0.642,9.96,8.286,16.264,17.066,14.074
								c8.788-2.19,15.392-12.047,14.75-22.007C449.414,652.362,441.77,646.058,432.982,648.249"/>
							<path fill="#FF3F62" d="M496.606,632.386c-8.78,2.188-15.383,12.045-14.741,22.014c0.642,9.959,8.286,16.264,17.066,14.074
								c8.788-2.19,15.392-12.048,14.75-22.007C513.04,636.498,505.395,630.194,496.606,632.386"/>
						</g>
					</g>
				</g>
			</g>
		</g>
	</g>
</g>
</svg>
