<?xml version="1.0" encoding="UTF-8" standalone="no"?>
<svg width="1206px" height="651px" viewBox="0 0 1206 651" version="1.1" xmlns="http://www.w3.org/2000/svg" xmlns:xlink="http://www.w3.org/1999/xlink">
    <!-- Generator: Sketch 43.1 (39012) - http://www.bohemiancoding.com/sketch -->
    <title>top_shelf</title>
    <desc>Created with Sketch.</desc>
    <defs></defs>
    <g id="Page-1" stroke="none" stroke-width="1" fill="none" fill-rule="evenodd">
        <g id="space" transform="translate(-6245.000000, -1176.000000)" fill-rule="nonzero">
            <g id="top_shelf" transform="translate(6245.000000, 1176.000000)">
                <path d="M757.372,56.801 L753.547,43.16 L756.203,36.366 L750.323,31.663 L744.281,10.118 L746.942,5.74 L740.424,-2.27373675e-13 L722.454,-2.27373675e-13 L715.938,5.74 L718.599,10.164 L712.555,31.689 L706.675,36.38 L709.331,43.166 L705.507,56.8 C705.507,56.8 689.067,58.88 686.515,63.299 C683.964,67.717 686.515,240.999 686.515,240.999 L687.627,240.999 C689.78,249.999 708.661,250.949 731.638,250.949 C754.617,250.949 773.497,249.999 775.65,240.999 L776.365,240.999 C776.365,240.999 779.104,68.044 776.365,63.299 C773.624,58.555 757.372,56.801 757.372,56.801 Z" id="Shape" fill="#D5CFFF"></path>
                <path d="M1199.616,500 L1205.793,496 L1200.893,492 L1186.418,492 L1181.169,496 L1187.694,500 L1199.616,500 Z" id="Shape" fill="#CCC4FF"></path>
                <path d="M695.78,122.244 C693.755,125.752 695.78,234 695.78,234 L696.663,234 C698.371,242 713.362,241.9 731.605,241.9 C749.849,241.9 764.839,242 766.548,234 L767.115,234 C767.115,234 769.29,126.014 767.115,122.246 C766.03,120.364 749.194,116.751 731.914,116.779 C714.575,116.809 696.794,120.487 695.78,122.244 Z" id="Shape" fill="#9188FB"></path>
                <path d="M11.971,651 L15.825,648 L12.767,645 L3.737,645 L0.462,648 L4.533,651 L11.971,651 Z" id="Shape" fill="#CCC4FF"></path>
                <path d="M737.616,10 L743.793,6 L738.892,2 L724.418,2 L719.168,6 L725.693,10 L737.616,10 Z" id="Shape" fill="#CCC4FF"></path>
                <path d="M340.706,283.801 L338.268,281.16 L339.96,274.366 L336.214,269.663 L332.364,267.118 L334.06,262.74 L329.907,257 L318.458,257 L314.307,262.74 L316.002,267.164 L312.152,269.689 L308.405,274.38 L310.097,281.166 L307.66,283.8 C307.66,283.8 297.185,285.88 295.56,290.299 C293.935,294.717 295.56,489.999 295.56,489.999 L296.268,489.999 C297.64,498.999 309.669,499.949 324.308,499.949 C338.949,499.949 350.977,498.999 352.349,489.999 L352.805,489.999 C352.805,489.999 354.55,295.044 352.805,290.299 C351.06,285.555 340.706,283.801 340.706,283.801 Z" id="Shape" fill="#D5CFFF"></path>
                <path d="M301.464,395.244 C300.173,398.752 301.464,485 301.464,485 L302.026,485 C303.114,493 312.665,492.9 324.288,492.9 C335.912,492.9 345.462,493 346.551,485 L346.912,485 C346.912,485 348.298,399.014 346.912,395.246 C346.221,393.364 335.494,389.751 324.485,389.779 C313.439,389.809 302.11,393.487 301.464,395.244 Z" id="Shape" fill="#9188FB"></path>
                <path d="M328.118,267 L332.054,263 L328.931,259 L319.71,259 L316.365,263 L320.523,267 L328.118,267 Z" id="Shape" fill="#CCC4FF"></path>
                <path d="M253.372,403.801 L249.547,401.16 L252.203,394.366 L246.323,389.663 L240.281,387.118 L242.942,382.74 L236.424,377 L218.454,377 L211.938,382.74 L214.599,387.164 L208.555,389.689 L202.675,394.38 L205.331,401.166 L201.507,403.8 C201.507,403.8 185.067,405.882 182.515,410.3 C179.964,414.718 182.515,543.999 182.515,543.999 L183.627,543.999 C185.78,552.999 204.661,553.949 227.638,553.949 C250.617,553.949 269.497,552.999 271.65,543.999 L272.365,543.999 C272.365,543.999 275.104,415.043 272.365,410.298 C269.624,405.554 253.372,403.801 253.372,403.801 Z" id="Shape" fill="#D5CFFF"></path>
                <path d="M191.78,491.244 C189.755,494.752 191.78,537 191.78,537 L192.663,537 C194.371,545 209.362,544.9 227.605,544.9 C245.849,544.9 260.839,545 262.548,537 L263.115,537 C263.115,537 265.29,495.014 263.115,491.246 C262.03,489.364 245.194,485.751 227.914,485.779 C210.575,485.809 192.794,489.487 191.78,491.244 Z" id="Shape" fill="#9188FB"></path>
                <path d="M233.616,387 L239.793,383 L234.892,379 L220.418,379 L215.168,383 L221.693,387 L233.616,387 Z" id="Shape" fill="#CCC4FF"></path>
            </g>
        </g>
    </g>
</svg>