<?xml version="1.0" encoding="UTF-8" standalone="no"?>
<svg width="430px" height="339px" viewBox="0 0 430 339" version="1.1" xmlns="http://www.w3.org/2000/svg" xmlns:xlink="http://www.w3.org/1999/xlink">
    <!-- Generator: Sketch 43.1 (39012) - http://www.bohemiancoding.com/sketch -->
    <title>Group 3</title>
    <desc>Created with Sketch.</desc>
    <defs></defs>
    <g id="Page-1" stroke="none" stroke-width="1" fill="none" fill-rule="evenodd">
        <g id="postmates">
            <g id="Group-3">
                <polygon id="Shape" fill="#EEEDF5" fill-rule="nonzero" points="0 36 430 36 430 339 0 339"></polygon>
                <rect id="Rectangle-path" fill="#EBEEF3" fill-rule="nonzero" x="24" y="48" width="88" height="125" rx="3"></rect>
                <rect id="Rectangle-path" fill="#FFFFFF" fill-rule="nonzero" x="25" y="49" width="86" height="122" rx="2"></rect>
                <rect id="Rectangle-path" fill="#EBEEF3" fill-rule="nonzero" x="119" y="48" width="88" height="125" rx="3"></rect>
                <rect id="Rectangle-path" fill="#FFFFFF" fill-rule="nonzero" x="120" y="49" width="86" height="122" rx="2"></rect>
                <rect id="Rectangle-path" fill="#EBEEF3" fill-rule="nonzero" x="309" y="47" width="88" height="125" rx="3"></rect>
                <rect id="Rectangle-path" fill="#FFFFFF" fill-rule="nonzero" x="310" y="48" width="86" height="122" rx="2"></rect>
                <rect id="Rectangle-path" fill="#FFFFFF" fill-rule="nonzero" x="215" y="48" width="86" height="122" rx="2"></rect>
                <rect id="Rectangle-path" fill="#F4FBFF" fill-rule="nonzero" x="25" y="187" width="86" height="26" rx="2"></rect>
                <rect id="Rectangle-path" fill="#FCFFF3" fill-rule="nonzero" x="120" y="187" width="86" height="26" rx="2"></rect>
                <polygon id="Shape" fill="#E78A2E" fill-rule="nonzero" opacity="0.07" points="25 49 111 49 111 126 25 126"></polygon>
                <g id="Group" transform="translate(51.000000, 73.000000)" fill-rule="nonzero">
                    <path d="M3.18,27.06 C3.38,26.78 3.85,26.56 4.2,26.56 L29.8,26.56 C30.15,26.56 30.6,26.78 30.82,27.06 L31.02,27.34 C31.24,27.62 31.12,27.84 30.75,27.84 L3.25,27.84 C2.88,27.84 2.75,27.62 2.97,27.34 L3.17,27.06 L3.18,27.06 Z" id="Shape" fill="#EFF1F5"></path>
                    <path d="M33.03,22 L33.03,23.07 C33.03,25.27 31.29,27.04 29.13,27.04 L4.54,27.04 C2.4,27.04 0.66,25.26 0.66,23.07 L0.66,22 C5.52,20.35 11.02,19.43 16.86,19.43 C22.68,19.43 28.18,20.35 33.04,21.99 L33.03,22 Z M32.98,12.02 C33.01,11.74 33.03,11.46 33.03,11.17 C33.03,5 25.78,0 16.83,0 C7.9,0 0.66,5 0.66,11.17 C0.66,11.47 0.66,11.74 0.7,12.02 C4.5,14.57 10.3,16.19 16.84,16.19 C23.36,16.19 29.18,14.56 32.98,12.01 L32.98,12.02 Z" id="Shape" fill="#FF9934"></path>
                    <rect id="Rectangle-path" fill="#E8023A" x="1.3" y="11.66" width="31.73" height="1.94" rx="0.97"></rect>
                    <rect id="Rectangle-path" fill="#7C4409" x="0" y="14.57" width="34" height="6.15" rx="3.075"></rect>
                    <rect id="Rectangle-path" fill="#884D0B" x="1.94" y="15.54" width="30.11" height="1.3" rx="0.65"></rect>
                    <path d="M13.28,22.02 L31.72,22.02 C32.09,22.02 32.38,21.72 32.38,21.37 C32.38,21.01 32.08,20.72 31.72,20.72 L1.62,20.72 C1.26,20.72 0.97,21.02 0.97,21.37 C0.97,21.73 1.27,22.02 1.63,22.02 L6,22.02 L10.04,24.45 L13.28,22.02 Z" id="Shape" fill="#FFEE49"></path>
                    <path d="M1.3,13.92 C1.3,13.74 1.44,13.6 1.62,13.6 L32.7,13.6 C32.88,13.6 33.03,13.74 33.03,13.92 L33.03,14.25 C33.03,14.43 32.88,14.57 32.7,14.57 L1.62,14.57 C1.44,14.57 1.3,14.43 1.3,14.25 L1.3,13.92 Z M15.87,14.57 C15.87,16.17 17.1,17.49 18.62,17.49 C19.16,17.49 19.67,17.31 20.09,17.02 C20.86,18.07 22.23,18.77 23.79,18.77 C26.19,18.77 28.16,17.1 28.16,15.05 C28.16,14.88 28.16,14.72 28.12,14.55 L15.87,14.55 L15.87,14.57 Z" id="Shape" fill="#73D974"></path>
                    <ellipse id="Oval" fill="#C86419" transform="translate(7.451247, 6.479075) rotate(-20.000000) translate(-7.451247, -6.479075) " cx="7.45124747" cy="6.47907473" rx="1.62" ry="1"></ellipse>
                    <ellipse id="Oval" fill="#C86419" transform="translate(12.299423, 8.741299) rotate(-14.000000) translate(-12.299423, -8.741299) " cx="12.2994228" cy="8.74129872" rx="1.62" ry="1"></ellipse>
                    <ellipse id="Oval" fill="#C86419" cx="17.16" cy="3.24" rx="1.62" ry="1"></ellipse>
                    <ellipse id="Oval" fill="#C86419" transform="translate(21.700450, 9.710639) rotate(7.000000) translate(-21.700450, -9.710639) " cx="21.7004502" cy="9.71063916" rx="1.62" ry="1"></ellipse>
                    <ellipse id="Oval" fill="#C86419" transform="translate(25.709603, 3.821954) rotate(23.000000) translate(-25.709603, -3.821954) " cx="25.7096025" cy="3.82195366" rx="1.62" ry="1"></ellipse>
                    <ellipse id="Oval" fill="#C86419" transform="translate(27.319101, 8.678828) rotate(15.000000) translate(-27.319101, -8.678828) " cx="27.319101" cy="8.67882843" rx="1.62" ry="1"></ellipse>
                    <path d="M31.3,25.58 C30.57,26.38 29.5,26.88 28.33,26.88 L5.33,26.88 C4.17,26.88 3.13,26.38 2.38,25.58 L31.3,25.58 Z" id="Shape" fill="#E98329"></path>
                </g>
                <rect id="Rectangle-path" fill="#EEEDF5" fill-rule="nonzero" x="46" y="144" width="44" height="3" rx="1"></rect>
                <rect id="Rectangle-path" fill="#F6418B" fill-rule="nonzero" x="58" y="150" width="20" height="3" rx="1"></rect>
                <polygon id="Shape" fill="#FCD305" fill-rule="nonzero" opacity="0.07" points="310 48 396 48 396 125 310 125"></polygon>
                <rect id="Rectangle-path" fill="#EEEDF5" fill-rule="nonzero" x="331" y="143" width="44" height="3" rx="1"></rect>
                <rect id="Rectangle-path" fill="#F6418B" fill-rule="nonzero" x="343" y="149" width="20" height="3" rx="1"></rect>
                <polygon id="Shape" fill="#FF2814" fill-rule="nonzero" opacity="0.05" points="120 49 206 49 206 126 120 126"></polygon>
                <rect id="Rectangle-path" fill="#EEEDF5" fill-rule="nonzero" x="141" y="144" width="44" height="3" rx="1"></rect>
                <rect id="Rectangle-path" fill="#F6418B" fill-rule="nonzero" x="153" y="150" width="20" height="3" rx="1"></rect>
                <polygon id="Shape" fill="#FF9934" fill-rule="nonzero" opacity="0.05" points="215 48 301 48 301 125 215 125"></polygon>
                <rect id="Rectangle-path" fill="#EEEDF5" fill-rule="nonzero" x="236" y="143" width="44" height="3" rx="1"></rect>
                <rect id="Rectangle-path" fill="#F6418B" fill-rule="nonzero" x="248" y="149" width="20" height="3" rx="1"></rect>
                <g id="Group" transform="translate(152.000000, 68.000000)" fill-rule="nonzero">
                    <ellipse id="Oval" fill="#EFF1F5" cx="10.5" cy="34.52" rx="6.44" ry="1"></ellipse>
                    <polyline id="Shape" fill="#C3CDDC" points="8.23 8.65 7.47 2.8 3.2 0.06 2.27 1.71 5.6 3.87 6.17 8.74"></polyline>
                    <path d="M1.3,12.96 L19.7,12.96 L16.93,32 C16.8,32.9 15.96,33.64 15.03,33.64 L5.96,33.64 C5.03,33.64 4.18,32.91 4.06,32 L1.3,12.96 Z" id="Shape" fill="#FF4F3F"></path>
                    <path d="M16.96,12.96 L19.69,12.96 L16.93,32 C16.8,32.9 15.96,33.64 15.03,33.64 L5.96,33.64 C5.03,33.64 4.18,32.91 4.06,32 L3.94,31.27 L13.12,31.27 C13.77,31.27 14.38,30.74 14.48,30.09 L16.94,12.95 L16.96,12.96 Z" id="Shape" fill="#E11A12"></path>
                    <path d="M1.06,10 C0.81,10 0.56,10.2 0.5,10.46 L0.1,12.5 C0.04,12.75 0.2,12.96 0.48,12.96 L20.52,12.96 C20.79,12.96 20.96,12.76 20.92,12.5 L20.5,10.46 C20.45,10.21 20.2,10 19.94,10 L18.7,10 L18.15,8.44 C18.07,8.2 17.79,8 17.53,8 L3.43,8 C3.17,8 2.9,8.2 2.83,8.44 L2.3,10 L1.06,10 Z" id="Shape" fill="#FF715D"></path>
                    <rect id="Rectangle-path" fill="#FFFFFF" x="13" y="9.32" width="4.3" height="1.68" rx="0.84"></rect>
                </g>
                <path d="M344.498884,101.26 C344.578884,101.12 344.778884,101 344.938884,101 L359.888884,101 C360.058884,101 360.258884,101.13 360.338884,101.26 L360.798884,102.08 C360.878884,102.22 360.818884,102.34 360.648884,102.34 L344.178884,102.34 C344.018884,102.34 343.958884,102.22 344.028884,102.08 L344.508884,101.26 L344.498884,101.26 Z" id="Shape" fill="#EFF1F5" fill-rule="nonzero"></path>
                <path d="M342,72 C342.75,72.96 347.28,78.53 346.98,85.06" id="Shape" stroke="#FDD405" stroke-width="1.78"></path>
                <path d="M362.3,72 C360.65,74.68 357.63,77.06 355,90.5" id="Shape" stroke="#F6AC0F" stroke-width="1.78"></path>
                <path d="M344.8,85.28 C344.8,81.86 344.87,79.64 342,76" id="Shape" stroke="#FFDE17" stroke-width="1.78"></path>
                <path d="M353.36,70 C353.36,72.9 352.38,89.82 352,90.7" id="Shape" stroke="#FFBF09" stroke-width="1.78"></path>
                <path d="M351,68 C351.38,69.56 352.74,81.14 351.76,87.08" id="Shape" stroke="#FDD405" stroke-width="1.78"></path>
                <path d="M356,72 C356.9,74.45 357.5,84.62 357.05,87.3" id="Shape" stroke="#FFDE17" stroke-width="1.78"></path>
                <path d="M359,71 C359.6,72.56 361.72,82.73 359.76,89.04" id="Shape" stroke="#FFBF09" stroke-width="1.78"></path>
                <path d="M365.719019,76 C363.619019,77.85 358.019019,85.2 359.149019,90.25" id="Shape" stroke="#FDD405" stroke-width="1.78"></path>
                <path d="M348.023124,72 C347.193124,73.93 346.283124,81.13 347.873124,87.07" id="Shape" stroke="#FFDE17" stroke-width="1.78"></path>
                <path d="M348.16,69 C349.14,71.36 350.04,82.5 348,86.88" id="Shape" stroke="#FFBF09" stroke-width="1.78"></path>
                <path d="M351,81 C352.14,82.78 354.63,86.64 352.82,90.58" id="Shape" stroke="#F3AE3D" stroke-width="0.5"></path>
                <path d="M355.5,70 C355.2,72.15 353,90.5 353,90.5" id="Shape" stroke="#FDD405" stroke-width="1.78"></path>
                <path d="M358.37,72.9 C357.77,74.16 353.84,89.9 354.07,92.72 M346,70 C346.98,71.12 349.47,84.1 349.47,88.78" id="Shape" stroke="#F6AC0F" stroke-width="1.78"></path>
                <path d="M345.38,71 C344.85,72.64 343.48,79.62 343.48,84.8 M341,74.79 C342.2,76.49 343.57,81.62 345.75,85.19 M362.13,75.46 C360.77,76.66 359.73,78.06 358.21,83.4" id="Shape" stroke="#FFBF09" stroke-width="1.78"></path>
                <path d="M351.4,73 C352.23,74.04 351.58,87.33 349,91.56" id="Shape" stroke="#F6AC0F" stroke-width="1.78"></path>
                <path d="M363.041518,84.2461148 L363.441518,80.3761148 C363.461518,80.1261148 363.281518,79.9761148 363.041518,80.0061148 L358.241518,80.7861148 C358.241518,80.7861148 357.221518,83.6461148 353.221518,83.6461148 C349.221518,83.6461148 348.201518,80.7861148 348.201518,80.7861148 L343.401518,80.0061148 C343.161518,79.9661148 342.981518,80.1261148 343.001518,80.3761148 L343.401518,84.2361148 L363.041518,84.2361148 L363.041518,84.2461148 Z" id="Shape" fill-opacity="0.3" fill="#ED5900" fill-rule="nonzero"></path>
                <path d="M342.003124,80.3861148 C341.973124,80.1361148 342.163124,79.9861148 342.403124,80.0161148 L347.403124,80.8361148 C347.403124,80.8361148 348.453124,83.8061148 352.603124,83.8061148 C356.753124,83.8061148 357.803124,80.8261148 357.803124,80.8261148 L362.803124,80.0061148 C363.043124,79.9661148 363.223124,80.1261148 363.203124,80.3761148 L361.073124,100.876115 C361.013124,101.376115 360.573124,101.756115 360.073124,101.756115 L345.123124,101.756115 C344.623124,101.756115 344.183124,101.356115 344.123124,100.876115 L342.003124,80.3761148 L342.003124,80.3861148 Z" id="Shape" fill="#FF4230" fill-rule="nonzero"></path>
                <path d="M346.84,80.7361148 L347.37,80.8361148 C347.37,80.8361148 347.42,80.9961148 347.57,81.2361148 C347.29,81.0861148 347.04,80.9161148 346.83,80.7361148 L346.84,80.7361148 Z M361.19,80.2661148 L362.79,80.0061148 C363.03,79.9661148 363.21,80.1261148 363.19,80.3761148 L361.06,100.876115 C361,101.376115 360.56,101.756115 360.06,101.756115 L345.1,101.756115 C344.6,101.756115 344.16,101.356115 344.1,100.876115 L344,99.9761148 L358.24,99.9761148 C358.74,99.9761148 359.18,99.5761148 359.24,99.0961148 L361.18,80.2561148 L361.19,80.2661148 Z" id="Shape" fill="#E11A12" fill-rule="nonzero"></path>
                <path d="M357.71,84 C357.64,85.56 355.27,86.8 352.36,86.8 C349.44,86.8 347.06,85.56 347,84 C348.34,84.92 350.24,85.5 352.36,85.5 C354.46,85.5 356.38,84.92 357.71,84 Z" id="Shape" fill="#FF6B59" fill-rule="nonzero"></path>
                <g id="Group" transform="translate(239.000000, 80.000000)">
                    <polygon id="Shape" fill="#EFF1F5" fill-rule="nonzero" points="4.82 13.4 33.2 13.4 33.2 15 4.8 15"></polygon>
                    <rect id="Rectangle-path" stroke="#E98329" stroke-width="1.07" fill="#FF9934" fill-rule="nonzero" x="3.75" y="0" width="30.51" height="8.57" rx="4.28"></rect>
                    <rect id="Rectangle-path" fill="#C0472A" fill-rule="nonzero" x="0" y="2.14" width="38" height="5.89" rx="2.94"></rect>
                    <rect id="Rectangle-path" stroke="#E98329" stroke-width="1.07" fill="#FF9934" fill-rule="nonzero" x="3.75" y="5.36" width="30.51" height="8.57" rx="4.28"></rect>
                    <path d="M3.8,8.97 C3.76,9.19 3.75,9.41 3.75,9.64 C3.75,12 5.65,13.94 8.02,13.94 L29.98,13.94 C32.35,13.94 34.25,12.01 34.25,9.64 C34.25,9.42 34.25,9.19 34.2,8.97 C33.88,11.02 32.12,12.59 29.98,12.59 L8.02,12.59 C5.9,12.6 4.12,11 3.8,8.96 L3.8,8.97 Z" id="Shape" fill="#E98329" fill-rule="nonzero"></path>
                    <path d="M4.98,4.56 L5.64,3.96 L6.64,3.03 C7.02,2.69 7.61,2.69 7.98,3.03 L8.98,3.95 C9.36,4.29 9.95,4.29 10.32,3.95 L11.32,3.03 C11.7,2.69 12.29,2.69 12.66,3.03 L13.66,3.95 C14.04,4.29 14.63,4.29 15,3.95 L16,3.03 C16.37,2.69 16.97,2.69 17.34,3.03 L18.34,3.95 C18.71,4.29 19.3,4.3 19.67,3.95 L20.7,3 C21.07,2.67 21.66,2.67 22.03,3 L23.03,3.94 C23.41,4.27 24,4.28 24.36,3.94 L25.36,3.02 C25.73,2.69 26.32,2.69 26.69,3.02 L27.69,3.95 C28.06,4.29 28.64,4.3 29.02,3.95 L30.02,3.02 C30.4,2.68 30.99,2.69 31.34,3.02 L32.84,4.47" id="Shape" stroke="#FBC809" stroke-width="1.07" stroke-linecap="round"></path>
                    <rect id="Rectangle-path" fill="#FFB159" fill-rule="nonzero" x="19.27" y="6.96" width="12.31" height="1.61" rx="0.8"></rect>
                </g>
                <g id="Group-2">
                    <polygon id="Shape" fill="#F6418B" fill-rule="nonzero" points="0 0 430 0 430 36 0 36"></polygon>
                    <rect id="Rectangle-path" fill="#FF92BF" fill-rule="nonzero" x="48" y="13" width="229" height="11" rx="1"></rect>
                    <rect id="Rectangle-path" fill="#FF92BF" fill-rule="nonzero" x="29" y="13" width="12" height="11" rx="1"></rect>
                    <rect id="Rectangle-path" fill="#FF92BF" fill-rule="nonzero" x="12" y="13" width="12" height="11" rx="1"></rect>
                    <polygon id="Triangle" fill="#FFFFFF" points="15 18.5 20 16 20 21"></polygon>
                    <polygon id="Triangle" fill="#FFFFFF" transform="translate(35.500000, 18.500000) rotate(-180.000000) translate(-35.500000, -18.500000) " points="33 18.5 38 16 38 21"></polygon>
                </g>
            </g>
        </g>
    </g>
</svg>