<svg id="e85a29c2-fbec-41e4-a529-d9848bd92c11" data-name="Layer 1" xmlns="http://www.w3.org/2000/svg" xmlns:xlink="http://www.w3.org/1999/xlink" viewBox="0 0 3191.36 2070.28"><defs><clipPath id="1798dcd3-7e60-49de-9231-8c9adba9cab5" transform="translate(-19.44 -1.05)"><path d="M3004.86,1060.52c1.64,301.25-226.91,529.08-457.2,609.6-34.36,12-343,114.38-583.2-74.4-24.1-18.94-224.23-180.51-199.72-370.17,23.11-178.84,228.06-234.43,213.08-392-10.64-112-115.14-132.55-104.27-203.75,20.94-137.26,468-300.07,799.78-115.41C2850.69,613.06,3003.52,815.74,3004.86,1060.52Z" style="fill:none"/></clipPath><radialGradient id="812d8ec4-e917-454c-ace3-ff88213fe154" cx="1746.53" cy="333.47" r="811.12" gradientTransform="matrix(-0.01, 1, 1.86, 0.01, 1379.96, -810.26)" gradientUnits="userSpaceOnUse"><stop offset="0" stop-color="#00d9ff" stop-opacity="0.8"/><stop offset="1" stop-color="#1f2042" stop-opacity="0.98"/></radialGradient><radialGradient id="46372086-6703-4dec-8fd7-0f722d6687cd" cx="1962.87" cy="427.81" r="645.55" gradientTransform="matrix(-0.01, 1, 1.86, 0.01, 1258.12, -1145.13)" gradientUnits="userSpaceOnUse"><stop offset="0" stop-color="#ff9d00" stop-opacity="0.8"/><stop offset="1" stop-color="#ff00a6" stop-opacity="0.98"/></radialGradient><linearGradient id="37f02f33-bb51-44f2-b9a1-ec055db6dd53" x1="1923.23" y1="367.93" x2="2529.7" y2="367.93" gradientTransform="matrix(1, 0, 0, -1, 0, 1320.16)" gradientUnits="userSpaceOnUse"><stop offset="0" stop-color="#fff" stop-opacity="0.7"/><stop offset="1" stop-color="#fff" stop-opacity="0"/></linearGradient><linearGradient id="38aa09b5-29de-4f53-9073-5c6c6ae1cfd7" x1="1608.73" y1="1517.36" x2="3077.69" y2="1517.36" gradientUnits="userSpaceOnUse"><stop offset="0" stop-color="#1f2042" stop-opacity="0.4"/><stop offset="1" stop-color="#1f2042" stop-opacity="0.6"/></linearGradient><linearGradient id="d3aaf0d6-6b8e-4f1a-84df-060edbe9b9e6" x1="1015.77" y1="529.2" x2="1960.83" y2="529.2" gradientTransform="translate(3793.71 1320.16) rotate(180)" gradientUnits="userSpaceOnUse"><stop offset="0" stop-color="#fff" stop-opacity="0.2"/><stop offset="1" stop-color="#fff" stop-opacity="0"/></linearGradient><linearGradient id="ccd617a2-fd05-41a5-bdbf-07a9318e0376" x1="2024.83" y1="400.93" x2="2974.53" y2="400.93" gradientTransform="matrix(1, 0, 0, -1, 0, 1320.16)" gradientUnits="userSpaceOnUse"><stop offset="0" stop-color="#fff" stop-opacity="0.15"/><stop offset="1" stop-color="#fff" stop-opacity="0"/></linearGradient><linearGradient id="403055df-0cf3-4016-ae4d-07f1d7a24c39" x1="2084.25" y1="-709.71" x2="2333.95" y2="26.74" gradientTransform="matrix(1, 0, 0, -1, 0, 1320.16)" gradientUnits="userSpaceOnUse"><stop offset="0" stop-color="#dbdfef" stop-opacity="0.2"/><stop offset="1" stop-color="#00178a" stop-opacity="0.1"/></linearGradient><radialGradient id="d1e70ee9-8be4-4e97-8ab4-b6b2026e882e" cx="2332.64" cy="590.62" r="825.72" gradientTransform="matrix(1, 0, 0, -0.32, 0, 1298.56)" gradientUnits="userSpaceOnUse"><stop offset="0" stop-color="#2ea8ff" stop-opacity="0.3"/><stop offset="1" stop-color="#0095ff" stop-opacity="0.2"/></radialGradient><linearGradient id="a8598db6-bb8e-4b52-bd4b-ef21a8f24fb9" x1="3911.51" y1="275.59" x2="4423.02" y2="275.59" gradientTransform="translate(6417 1320.16) rotate(180)" gradientUnits="userSpaceOnUse"><stop offset="0" stop-color="#0095ff" stop-opacity="0"/><stop offset="1" stop-color="#0095ff" stop-opacity="0.2"/></linearGradient><radialGradient id="e63f5dab-c4e5-4942-a8ab-f6e93d14de9c" cx="2311.06" cy="336.51" r="108.04" gradientTransform="matrix(1, 0, 0, -1, -19.44, 1319.11)" gradientUnits="userSpaceOnUse"><stop offset="0" stop-color="#2ea8ff" stop-opacity="0.3"/><stop offset="1" stop-color="#0095ff" stop-opacity="0.3"/></radialGradient><radialGradient id="3994e468-1339-4032-afee-2ce34d1cdc99" cx="2256.33" cy="588.15" r="513.65" gradientTransform="matrix(1, 0, 0, -0.32, 0, 1310.05)" gradientUnits="userSpaceOnUse"><stop offset="0" stop-color="#2ea8ff" stop-opacity="0.8"/><stop offset="1" stop-color="#0095ff" stop-opacity="0.6"/></radialGradient><linearGradient id="4986d64b-7f01-42dc-8db1-0f505972060c" x1="3523.9" y1="360.33" x2="3812.18" y2="360.33" gradientTransform="translate(6417 1320.16) rotate(180)" gradientUnits="userSpaceOnUse"><stop offset="0" stop-color="#6bc1ff" stop-opacity="0.7"/><stop offset="1" stop-color="#59baff" stop-opacity="0.5"/></linearGradient><linearGradient id="7c9fe010-f515-4cf9-a9d2-568f4989fad3" x1="3457.08" y1="360.27" x2="3781.63" y2="360.27" gradientTransform="translate(6417 1320.16) rotate(180)" gradientUnits="userSpaceOnUse"><stop offset="0" stop-color="#57b9ff" stop-opacity="0.6"/><stop offset="1" stop-color="#6bc1ff" stop-opacity="0.3"/></linearGradient><linearGradient id="1ff641d7-a6a1-4586-842a-d1b0c6efbc16" x1="2676.18" y1="346.14" x2="3075.95" y2="346.14" gradientTransform="matrix(1, 0, 0, -1, -19.44, 1319.11)" gradientUnits="userSpaceOnUse"><stop offset="0" stop-color="#6bc1ff" stop-opacity="0.7"/><stop offset="1" stop-color="#59baff" stop-opacity="0.4"/></linearGradient><linearGradient id="5b9cc396-0881-4e29-bcfe-5242bd23d0e5" x1="2754.19" y1="424.58" x2="2894.7" y2="424.58" gradientTransform="matrix(1, 0, 0, -1, -19.44, 1319.11)" gradientUnits="userSpaceOnUse"><stop offset="0" stop-color="#73c5ff" stop-opacity="0.6"/><stop offset="1" stop-color="#4ab4ff" stop-opacity="0.3"/></linearGradient><linearGradient id="73a6f2da-a0b6-441a-9b7a-ced08a08e8c7" x1="2610.9" y1="378.55" x2="2755.15" y2="378.55" gradientTransform="matrix(1, 0, 0, -1, -19.44, 1319.11)" gradientUnits="userSpaceOnUse"><stop offset="0" stop-color="#87cdff" stop-opacity="0.9"/><stop offset="1" stop-color="#6bc1ff" stop-opacity="0.6"/></linearGradient><radialGradient id="a677cfd6-8a63-4aa3-8e42-fbb68fc32b8e" cx="2649.52" cy="304.46" r="185.3" gradientTransform="matrix(0.6, 0.8, 0.65, -0.49, 860.47, -1111.81)" gradientUnits="userSpaceOnUse"><stop offset="0" stop-color="#01f" stop-opacity="0.3"/><stop offset="1" stop-color="#01f" stop-opacity="0"/></radialGradient><linearGradient id="e8615a0c-5460-4cfc-8d1a-4b9fe02a061e" x1="2457.59" y1="349.9" x2="2685.75" y2="349.9" gradientTransform="matrix(1, 0, 0, -1, -19.44, 1319.11)" gradientUnits="userSpaceOnUse"><stop offset="0" stop-color="#abdcff"/><stop offset="1" stop-color="#6bc1ff" stop-opacity="0.65"/></linearGradient><linearGradient id="f41c083c-32a7-45c0-bbc9-4586a311574a" x1="2435.67" y1="145.93" x2="2696.75" y2="598.12" gradientTransform="matrix(1, 0, 0, -1, -19.44, 1319.11)" gradientUnits="userSpaceOnUse"><stop offset="0" stop-color="#bde3ff" stop-opacity="0.9"/><stop offset="1" stop-color="#6bc1ff" stop-opacity="0.7"/></linearGradient><radialGradient id="c3badb4f-ef5a-4bea-b5fe-193a9496f3f4" cx="2273.75" cy="368.01" r="631.45" gradientTransform="matrix(1, 0, 0, -0.46, 0, 1381.54)" gradientUnits="userSpaceOnUse"><stop offset="0" stop-color="#0095ff" stop-opacity="0.3"/><stop offset="1" stop-color="#0095ff" stop-opacity="0"/></radialGradient><radialGradient id="8d698e0d-aa6e-4070-976c-ed1e5aa9e66b" cx="2432.16" cy="-293.84" r="188.14" gradientTransform="matrix(1, 0, 0, -1, 0, 1320.16)" gradientUnits="userSpaceOnUse"><stop offset="0" stop-color="#1f2042" stop-opacity="0.3"/><stop offset="1" stop-color="#1f2042" stop-opacity="0"/></radialGradient><radialGradient id="7a697682-4587-4a28-96be-9641a821f4e9" cx="2309.36" cy="-327.5" r="191.84" gradientTransform="matrix(1, 0, 0, -1, 0, 1320.16)" gradientUnits="userSpaceOnUse"><stop offset="0" stop-color="#1f2042" stop-opacity="0.7"/><stop offset="1" stop-color="#1f2042" stop-opacity="0.02"/></radialGradient><radialGradient id="6ebcffdb-3c26-4715-8427-71b1578b1fb8" cx="2303.54" cy="-299.08" r="339.15" gradientTransform="matrix(1, 0, 0, -1, 0, 1320.16)" gradientUnits="userSpaceOnUse"><stop offset="0" stop-color="#fff"/><stop offset="0.19" stop-color="#f5fbff"/><stop offset="1" stop-color="#0095ff" stop-opacity="0.5"/></radialGradient><linearGradient id="e72dbcb8-3e45-4386-ba4f-81933908ac8f" x1="2225.51" y1="-265.09" x2="2529.68" y2="-265.09" gradientTransform="matrix(1, 0, 0, -1, 0, 1320.16)" xlink:href="#d3aaf0d6-6b8e-4f1a-84df-060edbe9b9e6"/><radialGradient id="b5500a9a-c029-4db0-b472-d54187972dfd" cx="2538.79" cy="37.09" r="59.3" gradientTransform="matrix(0.98, -0.17, -0.17, -0.98, 1.01, 1764.84)" xlink:href="#8d698e0d-aa6e-4070-976c-ed1e5aa9e66b"/><radialGradient id="2020d796-7786-404c-ad3d-cd236a71cceb" cx="2502.46" cy="25.51" r="57.15" gradientTransform="matrix(0.98, -0.17, -0.17, -0.98, 1.01, 1764.84)" xlink:href="#7a697682-4587-4a28-96be-9641a821f4e9"/><radialGradient id="3401f3b4-e136-452e-8d56-53c1179d550a" cx="2451.49" cy="27.5" r="101.72" gradientTransform="matrix(1, 0, 0, -1, 0, 1320.16)" gradientUnits="userSpaceOnUse"><stop offset="0.19" stop-color="#e3f3ff"/><stop offset="1" stop-color="#57b9ff" stop-opacity="0.5"/></radialGradient><linearGradient id="7b0a405f-dc8e-4c3e-87fb-d297ff3bafcc" x1="2432.44" y1="36.33" x2="2523.69" y2="36.33" gradientTransform="matrix(1, 0, 0, -1, 0, 1320.16)" xlink:href="#d3aaf0d6-6b8e-4f1a-84df-060edbe9b9e6"/><radialGradient id="4b569e24-b0c6-45df-9240-1160239e3932" cx="1729.51" cy="-17.95" r="140.97" xlink:href="#8d698e0d-aa6e-4070-976c-ed1e5aa9e66b"/><radialGradient id="96368675-9a76-4a32-bdd4-030905835547" cx="1628.9" cy="-38.81" r="155.83" xlink:href="#7a697682-4587-4a28-96be-9641a821f4e9"/><radialGradient id="2c0ab379-d063-4c1d-af3c-7bb9edff922d" cx="1635.27" cy="-22.76" r="280.5" gradientTransform="matrix(0.99, -0.14, -0.14, -0.99, -9.69, 1554.53)" xlink:href="#3401f3b4-e136-452e-8d56-53c1179d550a"/><linearGradient id="3c59a233-ac68-43bd-9bfc-f5853cdee7e3" x1="1582.31" y1="-6.18" x2="1835.95" y2="-6.18" gradientTransform="matrix(0.99, -0.14, -0.14, -0.99, -9.69, 1554.53)" xlink:href="#d3aaf0d6-6b8e-4f1a-84df-060edbe9b9e6"/><radialGradient id="99710056-6f23-40aa-97bb-7b160a5aedf8" cx="2103.4" cy="62.11" r="33.82" xlink:href="#8d698e0d-aa6e-4070-976c-ed1e5aa9e66b"/><radialGradient id="94926ff1-8c9c-4728-b40a-325c55dca833" cx="2084.94" cy="54.75" r="29.47" xlink:href="#7a697682-4587-4a28-96be-9641a821f4e9"/><radialGradient id="298c032c-7df4-46b4-a68a-dce4bd9298cb" cx="2142.63" cy="-83.93" r="50.45" gradientTransform="matrix(0.97, -0.26, -0.26, -0.97, -7.33, 1738.88)" xlink:href="#3401f3b4-e136-452e-8d56-53c1179d550a"/><linearGradient id="89afcd3a-e2d6-4d77-ba49-344a1795f388" x1="2133.23" y1="-78.84" x2="2178.26" y2="-78.84" gradientTransform="matrix(0.97, -0.26, -0.26, -0.97, -7.33, 1738.88)" xlink:href="#d3aaf0d6-6b8e-4f1a-84df-060edbe9b9e6"/><radialGradient id="620db85c-6de5-4fe1-aa80-33b337ec3066" cx="1861.62" cy="-347.51" r="92.39" xlink:href="#8d698e0d-aa6e-4070-976c-ed1e5aa9e66b"/><radialGradient id="035c907a-2710-4c59-94bb-102c8b4acd6a" cx="1801.48" cy="-364.12" r="93.96" xlink:href="#7a697682-4587-4a28-96be-9641a821f4e9"/><linearGradient id="45ff9d1e-9c97-48c1-92eb-d26f56a5540c" x1="1747.32" y1="-379.59" x2="1864.8" y2="-411.07" gradientTransform="matrix(0.97, -0.26, -0.26, -0.97, -7.33, 1738.88)" gradientUnits="userSpaceOnUse"><stop offset="0" stop-color="#def1ff"/><stop offset="1" stop-color="#d1d4ff"/></linearGradient><radialGradient id="e08f8a09-48f7-4c6f-9b3e-28c2d36ce982" cx="1791.98" cy="-350.81" r="170.2" xlink:href="#3401f3b4-e136-452e-8d56-53c1179d550a"/><linearGradient id="b0a4b1c3-c473-47cb-b73d-f967934ae430" x1="1760.31" y1="-333.12" x2="1911.96" y2="-333.12" gradientTransform="matrix(1, 0, 0, -1, 0, 1320.16)" xlink:href="#d3aaf0d6-6b8e-4f1a-84df-060edbe9b9e6"/><radialGradient id="e13d325a-9728-4118-9455-abc80abb305a" cx="2299.37" cy="374.1" r="562.82" gradientTransform="matrix(1, 0, 0, -0.46, 0, 1360.86)" gradientUnits="userSpaceOnUse"><stop offset="0" stop-color="#d1ecff" stop-opacity="0.8"/><stop offset="1" stop-color="#0095ff" stop-opacity="0.6"/></radialGradient><radialGradient id="58c09bad-4f87-42a1-919f-18cbd405fedd" cx="2333.66" cy="455.83" r="515.61" gradientTransform="matrix(1, 0, 0, -0.46, 0, 1252.96)" gradientUnits="userSpaceOnUse"><stop offset="0" stop-color="#e5f4ff" stop-opacity="0.2"/><stop offset="1" stop-color="#fff" stop-opacity="0"/></radialGradient><radialGradient id="0cd83dae-a91c-49ca-bdb5-b6efed6bd453" cx="1993.54" cy="459.11" r="0" gradientTransform="matrix(1, 0, 0, -0.46, 0, 1243.97)" gradientUnits="userSpaceOnUse"><stop offset="0" stop-color="#69c0ff" stop-opacity="0.8"/><stop offset="1" stop-color="#0095ff" stop-opacity="0.6"/></radialGradient><radialGradient id="292567dd-555e-46ea-9571-e4f53855be1e" cx="2193.83" cy="676.82" r="84.55" gradientTransform="matrix(1, 0, 0, -0.32, 0, 1368.33)" gradientUnits="userSpaceOnUse"><stop offset="0" stop-color="#00178a" stop-opacity="0.3"/><stop offset="1" stop-color="#00178a" stop-opacity="0"/></radialGradient><linearGradient id="e70540ad-c0b3-42c4-a1d9-3180bff85411" x1="2140.32" y1="209.46" x2="2241.79" y2="209.46" gradientTransform="matrix(1, 0, 0, -1, 0, 1320.16)" gradientUnits="userSpaceOnUse"><stop offset="0" stop-color="#01f" stop-opacity="0"/><stop offset="0.82" stop-color="#01f" stop-opacity="0.1"/></linearGradient><linearGradient id="4f286ac4-5003-4c76-95ed-0c3f6f87818c" x1="2148.75" y1="209.46" x2="2250.22" y2="209.46" gradientTransform="matrix(1, 0, 0, -1, 0, 1320.16)" gradientUnits="userSpaceOnUse"><stop offset="0" stop-color="#fff"/><stop offset="0.65" stop-color="#fff"/><stop offset="1" stop-color="#d9efff"/></linearGradient><linearGradient id="08594816-f176-428b-8d37-ac3ca595976d" x1="2153.56" y1="248.7" x2="2214.88" y2="195.4" gradientTransform="matrix(1, 0, 0, -1, 0, 1320.16)" gradientUnits="userSpaceOnUse"><stop offset="0" stop-color="#fff" stop-opacity="0.2"/><stop offset="1" stop-color="#0095ff" stop-opacity="0.2"/></linearGradient><linearGradient id="02cc039a-8451-43af-b962-f4bf851a04be" x1="2218.75" y1="207.16" x2="2212.6" y2="206.1" gradientTransform="matrix(1, 0, 0, -1, 0, 1320.16)" gradientUnits="userSpaceOnUse"><stop offset="0" stop-color="#0095ff" stop-opacity="0.5"/><stop offset="1" stop-color="#0095ff" stop-opacity="0"/></linearGradient><linearGradient id="652d387c-863d-4bd7-bd65-1dfb9654e89b" x1="2185.38" y1="236.73" x2="2188.53" y2="233.99" xlink:href="#08594816-f176-428b-8d37-ac3ca595976d"/><linearGradient id="9ff589f8-3179-4e66-911d-95db00d3ebec" x1="2216.48" y1="224.2" x2="2224.34" y2="216.76" gradientTransform="matrix(1, 0, 0, -1, 0, 1320.16)" gradientUnits="userSpaceOnUse"><stop offset="0" stop-color="#0095ff" stop-opacity="0"/><stop offset="1" stop-color="#0095ff" stop-opacity="0.5"/></linearGradient><linearGradient id="daa494ae-0df0-47ef-8377-d0acb2289cfb" x1="2212.71" y1="194.83" x2="2204.02" y2="193.35" xlink:href="#9ff589f8-3179-4e66-911d-95db00d3ebec"/><linearGradient id="6e6241f6-5d94-409e-a363-95b3c4bdd5f6" x1="1893.2" y1="857.58" x2="2838.43" y2="857.58" gradientTransform="matrix(1, 0, 0, -1, 0, 1320.16)" gradientUnits="userSpaceOnUse"><stop offset="0" stop-color="#fff" stop-opacity="0.5"/><stop offset="1" stop-color="#fff" stop-opacity="0"/></linearGradient><linearGradient id="e6eaad17-a276-4057-901d-6b2bc9b94743" x1="1690.95" y1="623.59" x2="3108.81" y2="623.59" xlink:href="#37f02f33-bb51-44f2-b9a1-ec055db6dd53"/></defs><title>bear</title><path d="M2157.11,147.08c107.4,7,413.47,32.27,656.95,273.84,260.53,258.5,272,588.9,273.05,643.16,1.68,88.14,3.38,366.58-201,598-226.54,256.52-547.48,275.65-603,278-366.92,15.5-451.12-224.33-840-230-333-4.86-397.76,169.14-606,142-602.17-78.49-1013-1657.65-722-1836,173.1-106.07,413.64,383.72,984,394C1542.36,418.07,1654.13,114.27,2157.11,147.08Z" transform="translate(-19.44 -1.05)" style="fill:#ddf3fe"/><path d="M2317.26,315.32c77.95,6.58,301.5,28.79,488.4,206.4,201,191,320.72,526.6,192,841.2-113,276.2-400.16,493.82-716.4,464.4-379.79-35.33-670.87-414.81-618-632.4,36.92-152,236.51-183.52,234-322.8-2.71-150-234.67-191.86-228-308.4C1677.17,425.45,2014.84,289.8,2317.26,315.32Z" transform="translate(-19.44 -1.05)" style="fill:#c6ebfe"/><g style="clip-path:url(#1798dcd3-7e60-49de-9231-8c9adba9cab5)"><path d="M2147.68,1358.1V1518s40,24.71,113.36,24.71S2341,1531,2341,1531l-35.61-172.93" transform="translate(-19.44 -1.05)" style="fill:#fff;stroke:#000;stroke-miterlimit:10"/><path d="M2114.62,473.43c-181.81,33.86-208.61,71.27-219.44,88.65-86.34,138.46,195.25,354.13,120.54,517.53C1948.8,1226.05,1677,1153.67,1618.58,1291c-63.08,148.23,192.76,385.73,296,481.59,97,90.1,394.66,366.37,536.3,283.39,135-79-56.63-375.15,113.4-675.8,149.09-263.72,412.44-242.51,446.92-453.46,27.61-168.69-109.6-335.47-216.13-413C2612.28,380.75,2398.86,420.49,2114.62,473.43Z" transform="translate(-19.44 -1.05)" style="fill:#00d9ff"/><path d="M2114.62,473.43c-181.81,33.86-208.61,71.27-219.44,88.65-86.34,138.46,195.25,354.13,120.54,517.53C1948.8,1226.05,1677,1153.67,1618.58,1291c-63.08,148.23,192.76,385.73,296,481.59,97,90.1,394.66,366.37,536.3,283.39,135-79-56.63-375.15,113.4-675.8,149.09-263.72,412.44-242.51,446.92-453.46,27.61-168.69-109.6-335.47-216.13-413C2612.28,380.75,2398.86,420.49,2114.62,473.43Z" transform="translate(-19.44 -1.05)" style="fill:url(#812d8ec4-e917-454c-ace3-ff88213fe154)"/><path d="M3050.5,866.36c47.89,169.52,4.11,320.44-21.19,407.68-9.93,34.25-47.74,157.26-144.49,294.28-46.82,66.3-149.45,211.16-326,300.77-184.19,93.49-516.59,161.13-730-15.95-156.44-129.8-182-335.59-210.24-562.14-19.68-158.07-29.51-237.11,7-327.42,59.71-147.56,261-389.13,269.61-401.5l5.66-8.16c11.95-8,30.81-20.71,53.78-36.53,132.81-91.61,170.57-127.31,206.39-150.3,197.07-126.43,513.76,18.53,606.64,61,30,13.73,57.08,29,84.09,52.87,54,47.68,74.44,100.21,110.29,184.76C3042.2,854.81,3038.93,825.41,3050.5,866.36Z" transform="translate(-19.44 -1.05)" style="fill:#1f2042"/><path d="M3050.5,866.36c47.89,169.52,4.11,320.44-21.19,407.68-9.93,34.25-47.74,157.26-144.49,294.28-72.84,103.18-165,233.66-326,300.77C2307,1974,2048.45,1841,1914.61,1772.59c-138.67-70.84-377.07-192.64-412.54-412.82-15.71-97.49,29.18-193.82,119-386.48,112.51-241.42,253.47-399.24,333.61-455.9,7.85-5.55,50.24-34.16,108.7-77.63,50.36-37.46,74.43-57.75,97.69-72.67,197.07-126.43,513.76,18.53,606.64,61,30,13.73,57.08,29,84.09,52.87,54,47.68,74.44,100.21,110.29,184.76C3042.2,854.81,3038.93,825.41,3050.5,866.36Z" transform="translate(-19.44 -1.05)" style="fill:url(#46372086-6703-4dec-8fd7-0f722d6687cd)"/><path d="M2079,878.89c-122.65-10.8-166.31-105.57-217.24-79.93-52,26.18-70.77,153.93-19.85,226,121,171.2,650.55,49.84,664-68.61,5.42-47.67-71.52-105.91-139.69-123.52C2255.82,804.29,2209.73,890.4,2079,878.89Z" transform="translate(-19.44 -1.05)" style="fill:url(#37f02f33-bb51-44f2-b9a1-ec055db6dd53)"/><path d="M2483.75,976.25c-169.18,3.1-288.33,45-468,103.36-251.18,81.48-371.47,140.32-397.16,211.39-54.25,150,127.37,336.06,258.45,470.32,107.64,110.25,319.32,327,573.89,294.69,56.3-7.16,94.06-28.85,170.11-68.65,119.56-62.58,317.06-165.94,404.67-377.55,15.31-37,118.17-296.85-16.42-477.7C2890.14,972,2659.76,973,2483.75,976.25Z" transform="translate(-19.44 -1.05)" style="fill:#00178a"/><path d="M2483.75,976.25c-169.18,3.1-288.33,45-468,103.36-251.18,81.48-371.47,140.32-397.16,211.39-54.25,150,127.37,336.06,258.45,470.32,107.64,110.25,319.32,327,573.89,294.69,56.3-7.16,94.06-28.85,170.11-68.65,119.56-62.58,317.06-165.94,404.67-377.55,15.31-37,118.17-296.85-16.42-477.7C2890.14,972,2659.76,973,2483.75,976.25Z" transform="translate(-19.44 -1.05)" style="fill:url(#38aa09b5-29de-4f53-9073-5c6c6ae1cfd7)"/><path d="M2956.11,527.74c-92-25.44-133.26,64.48-289.2,59.58-120.75-3.79-145.2-59.24-247-42.14-101.57,17-103.91,76.64-193.29,94.46-141,28.11-202.37-106.89-338.6-100.28-151.14,7.33-312.21,185-287.75,300.83,32.63,154.47,393.18,188.66,579.85,206.36,264.4,25.07,873.4,33.21,947.52-200.55C3164.68,729,3065.64,558,2956.11,527.74Z" transform="translate(-19.44 -1.05)" style="fill:url(#d3aaf0d6-6b8e-4f1a-84df-060edbe9b9e6)"/><path d="M1849.82,731.19c92-25.43,133.25,64.48,289.19,59.58,120.75-3.79,145.21-59.24,247.06-42.14,101.56,17,103.9,76.65,193.28,94.46C2720.4,871.21,2781.72,736.21,2918,742.82c159.73,7.74,324.12,208.14,287.74,300.82-32.44,82.66-210.28,43-740.82,50.22-550.16,7.46-735.54,55.2-786.55-44.41C1628.62,952.38,1731.25,764,1849.82,731.19Z" transform="translate(-19.44 -1.05)" style="fill:url(#ccd617a2-fd05-41a5-bdbf-07a9318e0376)"/><path d="M1606,1208.46c110.69,47.46,203.55,63.29,269,68.79,81.6,6.86,129.45-2,330.14-4.53,167.13-2.11,187.54,3.26,190.65,14.09C2405,1318.93,2263,1400.22,2135,1436.93c-96.93,27.79-297,61.88-578.35-58.85Q1581.3,1293.26,1606,1208.46Zm71.85,553c35.83,31.11,194.65,168.95,415.87,165.47,329.58-5.18,499-319.33,685.06-237.09,87.19,38.51,115.47,136.43,147.92,122.87,37.13-15.53,36.26-159-27.61-264.5-66.13-109.22-197.84-185.76-334.8-193.8-242.19-14.24-287.52,179.82-555,204.18-275.71,25.11-460.68-161-507.36-101-38.6,49.62,64.79,207.46,175.89,303.87Z" transform="translate(-19.44 -1.05)" style="fill:url(#403055df-0cf3-4016-ae4d-07f1d7a24c39)"/><path d="M2489.67,949.39c-18.33-17.11-24.88-28.9-43.21-46-16.24,23.88-44.27,42.44-60.5,66.32l-17.1-9.87L2353,973.46l-39.31-31.4-29.55,17.53-41.89-28.53-53.36,23.42-41-23.68L2125.71,965l-34.49-13-61.88,60.92-22-22-55,14.14-20.44-14.93L1752,1150.35H2842.27c-39.12-91.15-234.91-182.3-274-273.44Z" transform="translate(-19.44 -1.05)" style="fill:#1f2042"/><path d="M2489.67,949.39c-18.33-17.11-24.88-28.9-43.21-46-16.24,23.88-44.27,42.44-60.5,66.32l-17.1-9.87L2353,973.46l-39.31-31.4-29.55,17.53-41.89-28.53-53.36,23.42-41-23.68L2125.71,965l-34.49-13-61.88,60.92-22-22-55,14.14-20.44-14.93L1752,1150.35H2842.27c-39.12-91.15-234.91-182.3-274-273.44Z" transform="translate(-19.44 -1.05)" style="opacity:0.699999988079071;isolation:isolate;fill:url(#d1e70ee9-8be4-4e97-8ab4-b6b2026e882e)"/><path d="M1902.85,1112.45c-6.57-32.7,11.69-82.25,41-93.33,31.42-11.87,59.27,26.77,96.19,12.84,32.82-12.36,46.6-56.4,52.86-53.34,4.81,2.36-5.25,27.42.47,30.48,7.57,4,25.54-39.67,59.05-43.81,19-2.36,23.93,10.33,43.6,6.28,24.58-5.08,35.61-28.71,43.05-24.85s-4.78,25.94,4.77,36.18c11.5,12.35,37.27-10.64,81.43-7.61,32.34,2.21,36.56,15.79,58.7,11.62,31.91-6,30.36-35.6,58.37-45.54,46.51-16.47,88.71,51.47,142,36.81,19.46-5.36,32.6-19.58,40.5-30.37,20.66,19,44.6,37.93,69,56.91,7.26,50.42-48.35,104.75-109.32,145.64h-661.1C1912.54,1138.23,1905.48,1125.5,1902.85,1112.45Z" transform="translate(-19.44 -1.05)" style="opacity:0.4000000059604645;isolation:isolate;fill:url(#a8598db6-bb8e-4b52-bd4b-ef21a8f24fb9)"/><polygon points="2144.67 1012.5 2249.45 1001.93 2308.55 1024.45 2438.57 1001.93 2429.64 977.36 2421.79 952.6 2417.5 964.98 2411.49 940.75 2406.31 977.36 2403.22 952.6 2398.4 989.79 2394.28 968.42 2389.29 994.84 2382.62 947.21 2375.24 991.51 2371.43 976.98 2365.24 998.66 2359.52 968.96 2353.81 998.42 2351.2 982.6 2346.43 1001.93 2343.81 979.89 2340.12 997.94 2336.53 991.99 2332.07 1001.93 2329.89 969.74 2325.71 1001.93 2321.53 984.76 2316.82 1009.13 2312.15 974.35 2307.92 1001.93 2304.05 988.32 2299.05 1007.23 2294.29 969.74 2290 998.89 2285.48 984.76 2280.47 1001.93 2277.62 972.31 2272.92 997.94 2268.24 984.76 2264.53 997.47 2260.48 988.32 2255.62 996.73 2249.76 967.06 2244.29 990.8 2240.47 974.35 2235.36 988.32 2230.24 956.03 2223.81 988.32 2218.33 973.99 2215.15 988.32 2210.71 956.27 2205.24 979.89 2198.93 968.96 2193.01 979.21 2189.04 955.08 2183.09 978.91 2177.48 957.13 2144.67 1012.5" style="fill:#1f2042"/><polygon points="2144.67 1012.5 2249.45 1001.93 2308.55 1024.45 2438.57 1001.93 2429.64 977.36 2421.79 952.6 2417.5 964.98 2411.49 940.75 2406.31 977.36 2403.22 952.6 2398.4 989.79 2394.28 968.42 2389.29 994.84 2382.62 947.21 2375.24 991.51 2371.43 976.98 2365.24 998.66 2359.52 968.96 2353.81 998.42 2351.2 982.6 2346.43 1001.93 2343.81 979.89 2340.12 997.94 2336.53 991.99 2332.07 1001.93 2329.89 969.74 2325.71 1001.93 2321.53 984.76 2316.82 1009.13 2312.15 974.35 2307.92 1001.93 2304.05 988.32 2299.05 1007.23 2294.29 969.74 2290 998.89 2285.48 984.76 2280.47 1001.93 2277.62 972.31 2272.92 997.94 2268.24 984.76 2264.53 997.47 2260.48 988.32 2255.62 996.73 2249.76 967.06 2244.29 990.8 2240.47 974.35 2235.36 988.32 2230.24 956.03 2223.81 988.32 2218.33 973.99 2215.15 988.32 2210.71 956.27 2205.24 979.89 2198.93 968.96 2193.01 979.21 2189.04 955.08 2183.09 978.91 2177.48 957.13 2144.67 1012.5" style="fill:url(#e63f5dab-c4e5-4942-a8ab-f6e93d14de9c)"/><path d="M2592.89,910.05c-41,6.9-124.92,67.05-208.22,98.46-17.87,6.73-43.49,15.32-73.13,9.16-24.41-5.09-25.62-14.76-49.92-19.33-33.07-6.22-42.38,9.55-82.33,8.43-37.27-1-37.32-15-62-12.43-44.42,4.61-49.41,56.09-91.55,61.67-47.76,6.32-72.22-31.2-112.86-39-46.32-9-119.41,8.46-231.32,139.88H2922.06C2767.68,938.4,2663,898.26,2592.89,910.05Z" transform="translate(-19.44 -1.05)" style="fill:#1f2042"/><path d="M2592.89,910.05c-41,6.9-124.92,67.05-208.22,98.46-17.87,6.73-43.49,15.32-73.13,9.16-24.41-5.09-25.62-14.76-49.92-19.33-33.07-6.22-42.38,9.55-82.33,8.43-37.27-1-37.32-15-62-12.43-44.42,4.61-49.41,56.09-91.55,61.67-47.76,6.32-72.22-31.2-112.86-39-46.32-9-119.41,8.46-231.32,139.88H2922.06C2767.68,938.4,2663,898.26,2592.89,910.05Z" transform="translate(-19.44 -1.05)" style="opacity:0.6700000166893005;isolation:isolate;fill:url(#3994e468-1339-4032-afee-2ce34d1cdc99)"/><polygon points="2843.37 857.58 2799.98 844.19 2835.08 891.64 2843.37 857.58" style="fill:#00178a"/><polygon points="2843.37 857.58 2799.98 844.19 2835.08 891.64 2843.37 857.58" style="fill:#d9efff;opacity:0.8999999761581421;isolation:isolate"/><g id="9636a2ee-bc53-492b-875f-c44384662d13" data-name="9c03ac86-97be-43ab-adf9-77aae0cfcfc7"><path d="M2697.51,821.06l20.79,20.35,43.35-48.69,23.52,8.72,14.53,19.11h0l22.78,30h0l32.05,42.14,15.82-10.78h0s129.9,198.67,172.49,245.06h-69l-266.76-64.8L2592.36,942.83l-1-.45L2574,934Z" transform="translate(-19.44 -1.05)" style="fill:#00178a"/><path d="M2697.51,821.06l20.79,20.35,43.35-48.69,23.52,8.72,14.53,19.11h0l22.78,30h0l32.05,42.14,15.82-10.78h0s129.9,198.67,172.49,245.06h-69l-266.76-64.8L2592.36,942.83l-1-.45L2574,934Z" transform="translate(-19.44 -1.05)" style="opacity:0.8999999761581421;isolation:isolate;fill:url(#4986d64b-7f01-42dc-8db1-0f505972060c)"/><path d="M2718.3,841.44,2973.82,1127h69c-37.27-40.59-180-268.34-180-268.34l-8.3,34.06-32.05-42.14-22.78-30h0l-14.53-19.11-23.52-8.72Z" transform="translate(-19.44 -1.05)" style="fill:#00178a"/><path d="M2718.3,841.44,2973.82,1127h69c-37.27-40.59-180-268.34-180-268.34l-8.3,34.06-32.05-42.14-22.78-30h0l-14.53-19.11-23.52-8.72Z" transform="translate(-19.44 -1.05)" style="fill:url(#7c9fe010-f515-4cf9-a9d2-568f4989fad3)"/><polygon points="2554.6 932.96 2571.98 941.35 2572.93 941.8 2747.96 1026.28 2802.59 1052.65 2802.59 1052.65 2954.38 1125.92 2698.85 840.38 2678.07 820.01 2554.6 932.96" style="fill:#00178a"/><polygon points="2554.6 932.96 2571.98 941.35 2572.93 941.8 2747.96 1026.28 2802.59 1052.65 2802.59 1052.65 2954.38 1125.92 2698.85 840.38 2678.07 820.01 2554.6 932.96" style="fill:url(#1ff641d7-a6a1-4586-842a-d1b0c6efbc16)"/><polyline points="2765.72 800.39 2839.36 997.39 2698.85 840.38 2742.2 791.68" style="fill:#00178a"/><polyline points="2765.72 800.39 2839.36 997.39 2698.85 840.38 2742.2 791.68" style="fill:url(#5b9cc396-0881-4e29-bcfe-5242bd23d0e5)"/><polygon points="2698.85 840.38 2671.08 883.55 2698.85 955.29 2687.62 1061.12 2579.84 945.13 2554.6 932.96 2678.07 820.01 2698.85 840.38" style="fill:#00178a"/><polygon points="2698.85 840.38 2671.08 883.55 2698.85 955.29 2687.62 1061.12 2579.84 945.13 2554.6 932.96 2678.07 820.01 2698.85 840.38" style="fill:url(#73a6f2da-a0b6-441a-9b7a-ced08a08e8c7)"/></g><polygon points="2321.86 1117.22 2754.36 1117.22 2671.77 979.24 2634.73 847.99 2605.59 821.19 2538.11 842.16 2530.68 836.26 2481.05 891.91 2445.96 956.48 2367.64 1038.98 2321.86 1117.22" style="fill:#00178a"/><polygon points="2321.86 1117.22 2754.36 1117.22 2671.77 979.24 2634.73 847.99 2605.59 821.19 2538.11 842.16 2530.68 836.26 2481.05 891.91 2445.96 956.48 2367.64 1038.98 2321.86 1117.22" style="fill:url(#a677cfd6-8a63-4aa3-8e42-fbb68fc32b8e)"/><polygon points="2321.86 1117.22 2754.36 1117.22 2671.77 979.24 2634.73 847.99 2605.59 821.19 2538.11 842.16 2530.68 836.26 2481.05 891.91 2445.96 956.48 2367.64 1038.98 2321.86 1117.22" style="fill:url(#e8615a0c-5460-4cfc-8d1a-4b9fe02a061e)"/><polyline points="2634.73 846.79 2605.59 820.01 2588.66 825.26 2530.68 835.07 2481.05 890.72 2445.96 955.29 2367.64 1037.79 2321.86 1116.03 2510.27 1116.03 2599 1077.2" style="fill:#00178a"/><polyline points="2634.73 846.79 2605.59 820.01 2588.66 825.26 2530.68 835.07 2481.05 890.72 2445.96 955.29 2367.64 1037.79 2321.86 1116.03 2510.27 1116.03 2599 1077.2" style="fill:url(#f41c083c-32a7-45c0-bbc9-4586a311574a)"/><path d="M2984.76,1155.37C2891.55,1243,2809.3,1269,2753,1277.08c-160,23-229.51-81.22-435.25-57.77-63.81,7.27-71.21,18.89-178.75,32.43-81.89,10.3-152.75,18.8-241,9.18-53.14-5.81-131.34-20.19-221.94-59.78" transform="translate(-19.44 -1.05)" style="fill:url(#c3badb4f-ef5a-4bea-b5fe-193a9496f3f4)"/><path d="M2225.62,1585.23c7-18.44,50.14-8.42,152.8-12.18,97.78-3.59,138.36-15.61,150.81,5.87,12.06,20.8-12.44,55.45-17.09,62-25.44,36-65.62,44.81-81.5,48.31-80.08,17.66-144.35-31.81-157.13-41.65C2259.93,1637.16,2218.14,1605,2225.62,1585.23Z" transform="translate(-19.44 -1.05)" style="fill:url(#8d698e0d-aa6e-4070-976c-ed1e5aa9e66b)"/><path d="M2225.62,1585.23c7-18.44,50.14-8.42,152.8-12.18,97.78-3.59,138.36-15.61,150.81,5.87,12.06,20.8-12.44,55.45-17.09,62-25.44,36-65.62,44.81-81.5,48.31-80.08,17.66-144.35-31.81-157.13-41.65C2259.93,1637.16,2218.14,1605,2225.62,1585.23Z" transform="translate(-19.44 -1.05)" style="fill:url(#7a697682-4587-4a28-96be-9641a821f4e9)"/><path d="M2225.62,1585.23c-3.19-22.73,64.62-66.54,142-71.16,68.21-4.07,154.72,21.66,161.58,64.85,3.56,22.36-15.17,43-19.61,47.73-22.14,23.48-51.65,26.16-92.29,28.82-39,2.53-97.9,5.54-153.4-30.19C2242.85,1611.73,2227.78,1600.64,2225.62,1585.23Z" transform="translate(-19.44 -1.05)" style="fill:#00178a"/><path d="M2225.62,1585.23c-3.19-22.73,64.62-66.54,142-71.16,68.21-4.07,154.72,21.66,161.58,64.85,3.56,22.36-15.17,43-19.61,47.73-22.14,23.48-51.65,26.16-92.29,28.82-39,2.53-97.9,5.54-153.4-30.19C2242.85,1611.73,2227.78,1600.64,2225.62,1585.23Z" transform="translate(-19.44 -1.05)" style="fill:url(#6ebcffdb-3c26-4715-8427-71b1578b1fb8)"/><path d="M2225.62,1585.23c-3.19-22.73,64.62-66.54,142-71.16,68.21-4.07,154.72,21.66,161.58,64.85,3.56,22.36-15.17,43-19.61,47.73-22.14,23.48-51.65,26.16-92.29,28.82-39,2.53-97.9,5.54-153.4-30.19C2242.85,1611.73,2227.78,1600.64,2225.62,1585.23Z" transform="translate(-19.44 -1.05)" style="fill:url(#e72dbcb8-3e45-4386-ba4f-81933908ac8f)"/><path d="M2432.48,1284c2.09-5.53,15.05-2.52,45.83-3.64,29.34-1.07,41.51-4.67,45.25,1.77,3.63,6.23-3.74,16.63-5.13,18.61-7.62,10.78-19.68,13.44-24.45,14.53-24,5.29-43.3-9.55-47.14-12.5C2442.77,1299.54,2430.23,1289.91,2432.48,1284Z" transform="translate(-19.44 -1.05)" style="fill:url(#b5500a9a-c029-4db0-b472-d54187972dfd)"/><path d="M2432.48,1284c2.09-5.53,15.05-2.52,45.83-3.64,29.34-1.07,41.51-4.67,45.25,1.77,3.63,6.23-3.74,16.63-5.13,18.61-7.62,10.78-19.68,13.44-24.45,14.53-24,5.29-43.3-9.55-47.14-12.5C2442.77,1299.54,2430.23,1289.91,2432.48,1284Z" transform="translate(-19.44 -1.05)" style="fill:url(#2020d796-7786-404c-ad3d-cd236a71cceb)"/><path d="M2432.48,1284c-1-6.83,19.38-20,42.61-21.35,20.46-1.22,46.41,6.5,48.47,19.46,1.07,6.7-4.55,12.9-5.89,14.31-6.94,7.36-16.4,7.95-27.69,8.65-11.57.73-20-1.34-36.82-5.46a34.47,34.47,0,0,1-9.2-3.63C2440.07,1293.75,2433,1287.58,2432.48,1284Z" transform="translate(-19.44 -1.05)" style="fill:#00178a"/><path d="M2432.48,1284c-1-6.83,19.38-20,42.61-21.35,20.46-1.22,46.41,6.5,48.47,19.46,1.07,6.7-4.55,12.9-5.89,14.31-6.94,7.36-16.4,7.95-27.69,8.65-11.57.73-20-1.34-36.82-5.46a34.47,34.47,0,0,1-9.2-3.63C2440.07,1293.75,2433,1287.58,2432.48,1284Z" transform="translate(-19.44 -1.05)" style="fill:url(#3401f3b4-e136-452e-8d56-53c1179d550a)"/><path d="M2432.48,1284c-1-6.83,19.38-20,42.61-21.35,20.46-1.22,46.41,6.5,48.47,19.46,1.07,6.7-4.55,12.9-5.89,14.31-6.94,7.36-16.4,7.95-27.69,8.65-11.57.73-20-1.34-36.82-5.46a34.47,34.47,0,0,1-9.2-3.63C2440.07,1293.75,2433,1287.58,2432.48,1284Z" transform="translate(-19.44 -1.05)" style="fill:url(#7b0a405f-dc8e-4c3e-87fb-d297ff3bafcc)"/><path d="M2432.48,1284c-1-6.83,19.38-20,42.61-21.35,20.46-1.22,46.41,6.5,48.47,19.46,1.07,6.7-4.55,12.9-5.89,14.31-6.94,7.36-16.4,7.95-27.69,8.65-11.57.73-20-1.34-36.82-5.46a34.47,34.47,0,0,1-9.2-3.63C2440.07,1293.75,2433,1287.58,2432.48,1284Z" transform="translate(-19.44 -1.05)" style="fill:#00178a"/><path d="M2432.48,1284c-1-6.83,19.38-20,42.61-21.35,20.46-1.22,46.41,6.5,48.47,19.46,1.07,6.7-4.55,12.9-5.89,14.31-6.94,7.36-16.4,7.95-27.69,8.65-11.57.73-20-1.34-36.82-5.46a34.47,34.47,0,0,1-9.2-3.63C2440.07,1293.75,2433,1287.58,2432.48,1284Z" transform="translate(-19.44 -1.05)" style="fill:url(#3401f3b4-e136-452e-8d56-53c1179d550a)"/><path d="M2432.48,1284c-1-6.83,19.38-20,42.61-21.35,20.46-1.22,46.41,6.5,48.47,19.46,1.07,6.7-4.55,12.9-5.89,14.31-6.94,7.36-16.4,7.95-27.69,8.65-11.57.73-20-1.34-36.82-5.46a34.47,34.47,0,0,1-9.2-3.63C2440.07,1293.75,2433,1287.58,2432.48,1284Z" transform="translate(-19.44 -1.05)" style="fill:url(#7b0a405f-dc8e-4c3e-87fb-d297ff3bafcc)"/><path d="M1576.64,1341.29a131.16,131.16,0,0,0,33.7,23.71c3.91,2,78.48,38.07,144.37,13.71a117.18,117.18,0,0,0,14.64-6.59s3.19-1.71,6.11-3.51c9.36-5.77,38.41-35.43,36.16-46.5-2.83-13.92-59.78-20.52-252-2.68C1559.31,1324.34,1565.08,1330,1576.64,1341.29Z" transform="translate(-19.44 -1.05)" style="fill:url(#4b569e24-b0c6-45df-9240-1160239e3932)"/><path d="M1576.64,1341.29a131.16,131.16,0,0,0,33.7,23.71c3.91,2,78.48,38.07,144.37,13.71a117.18,117.18,0,0,0,14.64-6.59s3.19-1.71,6.11-3.51c9.36-5.77,38.41-35.43,36.16-46.5-2.83-13.92-59.78-20.52-252-2.68C1559.31,1324.34,1565.08,1330,1576.64,1341.29Z" transform="translate(-19.44 -1.05)" style="fill:url(#96368675-9a76-4a32-bdd4-030905835547)"/><path d="M1717.88,1358.46c-72.33,10-158.83-6-161.48-30-.05-.52-.06-.91-.06-1.13.21-21.36,70.69-41.06,123.77-42.94,61.42-2.18,131.46,18.36,131.43,37.63C1811.54,1340.12,1749.45,1354.08,1717.88,1358.46Z" transform="translate(-19.44 -1.05)" style="fill:#00178a"/><path d="M1717.88,1358.46c-72.33,10-158.83-6-161.48-30-.05-.52-.06-.91-.06-1.13.21-21.36,70.69-41.06,123.77-42.94,61.42-2.18,131.46,18.36,131.43,37.63C1811.54,1340.12,1749.45,1354.08,1717.88,1358.46Z" transform="translate(-19.44 -1.05)" style="fill:url(#2c0ab379-d063-4c1d-af3c-7bb9edff922d)"/><path d="M1717.88,1358.46c-72.33,10-158.83-6-161.48-30-.05-.52-.06-.91-.06-1.13.21-21.36,70.69-41.06,123.77-42.94,61.42-2.18,131.46,18.36,131.43,37.63C1811.54,1340.12,1749.45,1354.08,1717.88,1358.46Z" transform="translate(-19.44 -1.05)" style="fill:url(#3c59a233-ac68-43bd-9bfc-f5853cdee7e3)"/><path d="M2072.35,1258.24c-1.3,5.37,6.65,11.38,10.25,13.52,9.53,5.64,23.66,4.87,31-3.93.43-.5,7.2-8.84,4.15-14.38C2112,1243.09,2074.9,1247.76,2072.35,1258.24Z" transform="translate(-19.44 -1.05)" style="fill:url(#99710056-6f23-40aa-97bb-7b160a5aedf8)"/><path d="M2072.35,1258.24c-1.3,5.37,6.65,11.38,10.25,13.52,9.53,5.64,23.66,4.87,31-3.93.43-.5,7.2-8.84,4.15-14.38C2112,1243.09,2074.9,1247.76,2072.35,1258.24Z" transform="translate(-19.44 -1.05)" style="fill:url(#94926ff1-8c9c-4728-b40a-325c55dca833)"/><path d="M2072.4,1258.32c-.86-3.47,9.18-11.71,21.32-13.16,9.7-1.15,22.47,1.83,24,8.25.72,3.2-1.46,6.23-2.31,7.38-7.09,9.7-25.27,8.72-36.73,3C2075.57,1262.3,2073,1260.73,2072.4,1258.32Z" transform="translate(-19.44 -1.05)" style="fill:#00178a"/><path d="M2072.4,1258.32c-.86-3.47,9.18-11.71,21.32-13.16,9.7-1.15,22.47,1.83,24,8.25.72,3.2-1.46,6.23-2.31,7.38-7.09,9.7-25.27,8.72-36.73,3C2075.57,1262.3,2073,1260.73,2072.4,1258.32Z" transform="translate(-19.44 -1.05)" style="fill:url(#298c032c-7df4-46b4-a68a-dce4bd9298cb)"/><path d="M2072.4,1258.32c-.86-3.47,9.18-11.71,21.32-13.16,9.7-1.15,22.47,1.83,24,8.25.72,3.2-1.46,6.23-2.31,7.38-7.09,9.7-25.27,8.72-36.73,3C2075.57,1262.3,2073,1260.73,2072.4,1258.32Z" transform="translate(-19.44 -1.05)" style="fill:url(#89afcd3a-e2d6-4d77-ba49-344a1795f388)"/><path d="M1761.27,1658.31c-3.78,8.64,2.3,18.7,3.18,20.17,9.63,16.17,35.79,16,43.59,19.11,12.5,4.94,67.91,14.31,88.72,5.31,2.42-1.05,8.55-3.7,11.84-9.92a21.65,21.65,0,0,0,2.18-9.78c-.59-16.13-57.45-43.15-115.84-38.47C1771.3,1646.68,1763.86,1652.4,1761.27,1658.31Z" transform="translate(-19.44 -1.05)" style="fill:url(#620db85c-6de5-4fe1-aa80-33b337ec3066)"/><path d="M1761.27,1658.31c-3.78,8.64,2.3,18.7,3.18,20.17,9.63,16.17,35.79,16,43.59,19.11,12.5,4.94,67.91,14.31,88.72,5.31,2.42-1.05,8.55-3.7,11.84-9.92a21.65,21.65,0,0,0,2.18-9.78c-.59-16.13-57.45-43.15-115.84-38.47C1771.3,1646.68,1763.86,1652.4,1761.27,1658.31Z" transform="translate(-19.44 -1.05)" style="fill:url(#035c907a-2710-4c59-94bb-102c8b4acd6a)"/><path d="M1760.52,1660.16c-3.73-18,41.41-55.76,85.25-48.84,48.29,7.63,67.11,65,66.17,73.82a13.33,13.33,0,0,1-3.36,7.85c-3.12,3-7.32,3-8,3-8.49.86-103.6-17.09-116-20.49C1762.69,1669.53,1761.22,1663.55,1760.52,1660.16Z" transform="translate(-19.44 -1.05)" style="fill:url(#45ff9d1e-9c97-48c1-92eb-d26f56a5540c)"/><path d="M1760.52,1660.16c-3.07-14.76,29.53-46.5,68.3-49.41a69,69,0,0,1,16.92.59c47.56,7.67,67.37,62.63,66.17,73.82a13.3,13.3,0,0,1-3.36,7.84c-3.12,3-7.32,3-8,3-8.49.87-103.6-17.09-116-20.49C1762.69,1669.53,1761.22,1663.55,1760.52,1660.16Z" transform="translate(-19.44 -1.05)" style="fill:#00178a"/><path d="M1760.52,1660.16c-3.07-14.76,29.53-46.5,68.3-49.41a69,69,0,0,1,16.92.59c47.56,7.67,67.37,62.63,66.17,73.82a13.3,13.3,0,0,1-3.36,7.84c-3.12,3-7.32,3-8,3-8.49.87-103.6-17.09-116-20.49C1762.69,1669.53,1761.22,1663.55,1760.52,1660.16Z" transform="translate(-19.44 -1.05)" style="fill:url(#e08f8a09-48f7-4c6f-9b3e-28c2d36ce982)"/><path d="M1760.52,1660.16c-3.07-14.76,29.53-46.5,68.3-49.41a69,69,0,0,1,16.92.59c47.56,7.67,67.37,62.63,66.17,73.82a13.3,13.3,0,0,1-3.36,7.84c-3.12,3-7.32,3-8,3-8.49.87-103.6-17.09-116-20.49C1762.69,1669.53,1761.22,1663.55,1760.52,1660.16Z" transform="translate(-19.44 -1.05)" style="fill:url(#b0a4b1c3-c473-47cb-b73d-f967934ae430)"/><path d="M1669.17,1194.87c83.31-2.57,141,3.85,179.14,10.63,22,3.91,32.29,7,53.77,8,50.23,2.34,88.83,3.94,109,2.9,99.1-5.08,230.08-25,307.36-30.06,135.65-9,160.13,23.53,291,30.06,98.37,4.91,241-6.14,419.82-84.29-13.69-6.67-34.2-16.46-59.39-27.68-79.86-35.6-120.77-53.44-168.45-56.51-31.37-2-53.58,3.49-86.38,9.2-126.86,22.08-139.31,45.09-204.49,41.22-30.29-1.8-71.85-4.27-114.89-27.49-19-10.28-39.4-23.2-75.3-36-12.88-4.59-28.27-8.19-48.14-9.81a278.73,278.73,0,0,0-75.77,4.54c-46.1,9.13-50.92,22.34-82.18,29.35-76.58,17.17-112.46-47.55-161.55-23.55-32.42,15.84-30.43,50.74-75.25,67.14-20.16,7.37-36.74,4.24-45.93,6.1-21.4,4.36-44.08,13.44-65.53,24.2C1719.26,1156.32,1678.3,1187.7,1669.17,1194.87Z" transform="translate(-19.44 -1.05)" style="fill:#00178a"/><path d="M1669.17,1194.87c83.31-2.57,141,3.85,179.14,10.63,22,3.91,32.29,7,53.77,8,50.23,2.34,88.83,3.94,109,2.9,99.1-5.08,230.08-25,307.36-30.06,135.65-9,160.13,23.53,291,30.06,98.37,4.91,241-6.14,419.82-84.29-13.69-6.67-34.2-16.46-59.39-27.68-79.86-35.6-120.77-53.44-168.45-56.51-31.37-2-53.58,3.49-86.38,9.2-126.86,22.08-139.31,45.09-204.49,41.22-30.29-1.8-71.85-4.27-114.89-27.49-19-10.28-39.4-23.2-75.3-36-12.88-4.59-28.27-8.19-48.14-9.81a278.73,278.73,0,0,0-75.77,4.54c-46.1,9.13-50.92,22.34-82.18,29.35-76.58,17.17-112.46-47.55-161.55-23.55-32.42,15.84-30.43,50.74-75.25,67.14-20.16,7.37-36.74,4.24-45.93,6.1-21.4,4.36-44.08,13.44-65.53,24.2C1719.26,1156.32,1678.3,1187.7,1669.17,1194.87Z" transform="translate(-19.44 -1.05)" style="fill:url(#e13d325a-9728-4118-9455-abc80abb305a)"/><path d="M2645.05,1216.72c-12.48.16-24.35,0-35.57-.32-139.27-4.18-152.54-39.23-291-30.06-70.67,4.67-186.17,21.66-281.2,28.44-105.59-45.83-124.86-65.56-122.33-75.06,3.67-13.81,54.18-10.1,102.3-8.24,42.68,1.65,83.47,1.87,88-12.79,6.15-19.8-56.8-57.12-111.74-85.91,32.6,9.33,66.44,38.35,120.75,26.16,31.24-7,36.08-20.22,82.18-29.35a279.13,279.13,0,0,1,75.77-4.54c19.87,1.62,35.26,5.23,48.14,9.82,52,33.78,61.86,50.86,58.74,60.17-4.47,13.36-35.71,11.13-37.79,22s27.22,26.28,58.13,39.38C2453.64,1177,2534.94,1202.18,2645.05,1216.72Z" transform="translate(-19.44 -1.05)" style="fill:url(#58c09bad-4f87-42a1-919f-18cbd405fedd)"/><path d="M1993.54,1032.78Z" transform="translate(-19.44 -1.05)" style="fill:url(#0cd83dae-a91c-49ca-bdb5-b6efed6bd453)"/><path d="M2135.11,1124.78c.81,5.7,7.49,9.2,12.59,11.87,11.13,5.81,16.62,3.15,26.53,8.89,6.18,3.58,6.86,6.25,11,9.4,18,13.59,57.53,3.07,60-10.54,1.45-7.72-9.19-15.53-18.34-22.25-22.32-16.4-58.86-28.52-80.72-13.59C2144.72,1109.6,2134,1116.91,2135.11,1124.78Z" transform="translate(-19.44 -1.05)" style="opacity:0.699999988079071;isolation:isolate;fill:url(#292567dd-555e-46ea-9571-e4f53855be1e)"/><path d="M2241.74,1093.9c-.22-2.08-1.1-3.59-4.76-8.05a4.12,4.12,0,0,1-.94.41c-1.29.37-3,0-3.18-.73s.95-1.72,2.1-2.09c-2.24-2.7-3.45-4.12-4.12-4.78a65.11,65.11,0,0,0-4.88-4.52,7.61,7.61,0,0,0,2.7-4.2c.61-2.82-.48-6.67-2.9-7.27-2-.49-4.12,1.4-5.09,2.91a7,7,0,0,0-1,4.69,18.26,18.26,0,0,0-3.39-1.06,19.75,19.75,0,0,0-8.95.28,6,6,0,0,0-.66-.58c-1.46-1.09-4.07-2.14-5.78-1-1.38.93-1.71,3-1.31,5a29,29,0,0,0-6.54,5.72,26.1,26.1,0,0,0-3,4.42,29.21,29.21,0,0,0-11.53-3.7c-13.74-1.3-26.37,7.92-32.69,18.17-9.45,15.35-4.08,31.75-3.26,34.15a7.2,7.2,0,0,0,2.53,4.36c2.79,2.18,6.48,1.27,8.49.06.41-.25,2.65-1.59,2.41-3-.2-1.15-2.11-2.1-3.64-2.18h0a16.42,16.42,0,0,1,3.64-8.72,16.15,16.15,0,0,1,8.75-5.26,33.25,33.25,0,0,1,10.14,11.8c5.41,10.84,2.43,21.29,9.16,26.83a15.3,15.3,0,0,0,6.1,3,13.5,13.5,0,0,0,7.12-.61,4.36,4.36,0,0,0,2.33-3.75c-.16-2.1-2.67-4.13-5.82-3.64a20.41,20.41,0,0,1,2.91-21.8,18.44,18.44,0,0,1,6.54-4.74c2.46,7.69,6.21,15.06,12.41,20.74a14.74,14.74,0,0,0,7.85,3.3,16.31,16.31,0,0,0,8-1.06c.73-.46,2.37-1.69,2.39-3.28,0-2.18-3-4.77-7.89-4.92-4.89-13.28-8.41-17.74-8.32-29.53a16.71,16.71,0,0,1,9.49-5.21c.45.32,4,2.76,8,1.45s5.28-5.08,5.81-6.54A11.09,11.09,0,0,0,2241.74,1093.9Zm-19.51-4c-1.28.37-3,0-3.18-.73s1-1.8,2.24-2.13,3,0,3.18.72-1,1.81-2.24,2.14Zm13,13.46c-3.27,0-6.43-5.09-5.08-8,1.5-3.21,8.48-3.45,10.17-.72S2238.8,1103.37,2235.2,1103.35Z" transform="translate(-19.44 -1.05)" style="fill:url(#e70540ad-c0b3-42c4-a1d9-3180bff85411)"/><path d="M2241.74,1093.9c-.22-2.08-1.1-3.59-4.76-8.05a4.12,4.12,0,0,1-.94.41c-1.29.37-3,0-3.18-.73s.95-1.72,2.1-2.09c-2.24-2.7-3.45-4.12-4.12-4.78a65.11,65.11,0,0,0-4.88-4.52,7.61,7.61,0,0,0,2.7-4.2c.61-2.82-.48-6.67-2.9-7.27-2-.49-4.12,1.4-5.09,2.91a7,7,0,0,0-1,4.69,18.26,18.26,0,0,0-3.39-1.06,19.75,19.75,0,0,0-8.95.28,6,6,0,0,0-.66-.58c-1.46-1.09-4.07-2.14-5.78-1-1.38.93-1.71,3-1.31,5a29,29,0,0,0-6.54,5.72,26.1,26.1,0,0,0-3,4.42,29.21,29.21,0,0,0-11.53-3.7c-13.74-1.3-26.37,7.92-32.69,18.17-9.45,15.35-4.08,31.75-3.26,34.15a7.2,7.2,0,0,0,2.53,4.36c2.79,2.18,6.48,1.27,8.49.06.41-.25,2.65-1.59,2.41-3-.2-1.15-2.11-2.1-3.64-2.18h0a16.42,16.42,0,0,1,3.64-8.72,16.15,16.15,0,0,1,8.75-5.26,33.25,33.25,0,0,1,10.14,11.8c5.41,10.84,2.43,21.29,9.16,26.83a15.3,15.3,0,0,0,6.1,3,13.5,13.5,0,0,0,7.12-.61,4.36,4.36,0,0,0,2.33-3.75c-.16-2.1-2.67-4.13-5.82-3.64a20.41,20.41,0,0,1,2.91-21.8,18.44,18.44,0,0,1,6.54-4.74c2.46,7.69,6.21,15.06,12.41,20.74a14.74,14.74,0,0,0,7.85,3.3,16.31,16.31,0,0,0,8-1.06c.73-.46,2.37-1.69,2.39-3.28,0-2.18-3-4.77-7.89-4.92-4.89-13.28-8.41-17.74-8.32-29.53a16.71,16.71,0,0,1,9.49-5.21c.45.32,4,2.76,8,1.45s5.28-5.08,5.81-6.54A11.09,11.09,0,0,0,2241.74,1093.9Zm-19.51-4c-1.28.37-3,0-3.18-.73s1-1.8,2.24-2.13,3,0,3.18.72-1,1.81-2.24,2.14Zm13,13.46c-3.27,0-6.43-5.09-5.08-8,1.5-3.21,8.48-3.45,10.17-.72S2238.8,1103.37,2235.2,1103.35Z" transform="translate(-19.44 -1.05)" style="fill:url(#4f286ac4-5003-4c76-95ed-0c3f6f87818c)"/><path d="M2241.74,1093.9c-.22-2.08-1.1-3.59-4.76-8.05a4.12,4.12,0,0,1-.94.41c-1.29.37-3,0-3.18-.73s.95-1.72,2.1-2.09c-2.24-2.7-3.45-4.12-4.12-4.78a65.11,65.11,0,0,0-4.88-4.52,7.61,7.61,0,0,0,2.7-4.2c.61-2.82-.48-6.67-2.9-7.27-2-.49-4.12,1.4-5.09,2.91a7,7,0,0,0-1,4.69,18.26,18.26,0,0,0-3.39-1.06,19.75,19.75,0,0,0-8.95.28,6,6,0,0,0-.66-.58c-1.46-1.09-4.07-2.14-5.78-1-1.38.93-1.71,3-1.31,5a29,29,0,0,0-6.54,5.72,26.1,26.1,0,0,0-3,4.42,29.21,29.21,0,0,0-11.53-3.7c-13.74-1.3-26.37,7.92-32.69,18.17-9.45,15.35-4.08,31.75-3.26,34.15a7.2,7.2,0,0,0,2.53,4.36c2.79,2.18,6.48,1.27,8.49.06.41-.25,2.65-1.59,2.41-3-.2-1.15-2.11-2.1-3.64-2.18h0a16.42,16.42,0,0,1,3.64-8.72,16.15,16.15,0,0,1,8.75-5.26,33.25,33.25,0,0,1,10.14,11.8c5.41,10.84,2.43,21.29,9.16,26.83a15.3,15.3,0,0,0,6.1,3,13.5,13.5,0,0,0,7.12-.61,4.36,4.36,0,0,0,2.33-3.75c-.16-2.1-2.67-4.13-5.82-3.64a20.41,20.41,0,0,1,2.91-21.8,18.44,18.44,0,0,1,6.54-4.74c2.46,7.69,6.21,15.06,12.41,20.74a14.74,14.74,0,0,0,7.85,3.3,16.31,16.31,0,0,0,8-1.06c.73-.46,2.37-1.69,2.39-3.28,0-2.18-3-4.77-7.89-4.92-4.89-13.28-8.41-17.74-8.32-29.53a16.71,16.71,0,0,1,9.49-5.21c.45.32,4,2.76,8,1.45s5.28-5.08,5.81-6.54A11.09,11.09,0,0,0,2241.74,1093.9Zm-19.51-4c-1.28.37-3,0-3.18-.73s1-1.8,2.24-2.13,3,0,3.18.72-1,1.81-2.24,2.14Zm13,13.46c-3.27,0-6.43-5.09-5.08-8,1.5-3.21,8.48-3.45,10.17-.72S2238.8,1103.37,2235.2,1103.35Z" transform="translate(-19.44 -1.05)" style="fill:url(#08594816-f176-428b-8d37-ac3ca595976d)"/><path d="M2217.76,1111.73a12.74,12.74,0,0,0-1.45,1.19,13,13,0,0,0-3.27,5,18.1,18.1,0,0,1,4.68-8.6C2217.71,1110.13,2217.73,1111,2217.76,1111.73Z" transform="translate(-19.44 -1.05)" style="fill:url(#02cc039a-8451-43af-b962-f4bf851a04be)"/><path d="M2190.06,1083.07a14.27,14.27,0,0,0-3.72,5.62c-.09-.46-.93-5,.67-7.13A29.79,29.79,0,0,1,2190.06,1083.07Z" transform="translate(-19.44 -1.05)" style="fill:url(#652d387c-863d-4bd7-bd65-1dfb9654e89b)"/><path d="M2227.21,1104.07a16,16,0,0,0-2.36.6,30.86,30.86,0,0,1-3.42-2.23,29.51,29.51,0,0,1-5.08-4.91c2.18,1.46,4.45,2.91,6.92,4.36C2224.62,1102.66,2225.93,1103.38,2227.21,1104.07Z" transform="translate(-19.44 -1.05)" style="fill:url(#9ff589f8-3179-4e66-911d-95db00d3ebec)"/><path d="M2205.42,1129.88c-.82-1.91-1.54-3.87-2.18-5.82a12.24,12.24,0,0,1,8.57-.61,10,10,0,0,0-5.52,4.31A9.1,9.1,0,0,0,2205.42,1129.88Z" transform="translate(-19.44 -1.05)" style="fill:url(#daa494ae-0df0-47ef-8377-d0acb2289cfb)"/><path d="M2222.23,1089.89c-1.28.37-3,0-3.18-.73s1-1.8,2.24-2.13,3,0,3.18.72S2223.42,1089.56,2222.23,1089.89Z" transform="translate(-19.44 -1.05)" style="stroke:#000;stroke-miterlimit:10"/><path d="M2237,1085.85a4.12,4.12,0,0,1-.94.41c-1.29.37-3,0-3.18-.73s.95-1.72,2.1-2.09l.13,0c1.29-.37,3,0,3.19.73C2238.39,1084.67,2237.79,1085.38,2237,1085.85Z" transform="translate(-19.44 -1.05)" style="stroke:#000;stroke-miterlimit:10"/><path d="M2235.2,1103.35c-3.27,0-6.43-5.09-5.08-8,1.5-3.21,8.48-3.45,10.17-.72S2238.8,1103.37,2235.2,1103.35Z" transform="translate(-19.44 -1.05)" style="stroke:#000;stroke-miterlimit:10"/><path d="M2230.8,358.37c-38.61-11.52-84.53-36.49-104.63-17.43-11.07,10.48-3.76,24.27-13.2,41.9-21.88,40.85-95.92,39.48-109.54,39.31-68.36-.88-109.44-33-114.06-25.74-5.5,8.69,51.06,57.15,117.48,102.2,98.53,66.85,147.79,100.28,204.18,91,54-8.84,49.89-44,129.2-76.79,18.54-7.67,90.15-36.33,175.53-23.66,74.56,11.07,93.55,43.86,161.51,39.19,8.68-.6,83.61-6.29,89.55-34.06,9.45-44.1-151.2-162.5-315.42-154C2360.51,344.92,2317.07,384.19,2230.8,358.37Z" transform="translate(-19.44 -1.05)" style="fill:url(#6e6241f6-5d94-409e-a363-95b3c4bdd5f6)"/><path d="M2430,597c81-17.24,113.45,21.94,212.17,37.79,151.48,24.32,190-49.41,291.95-10.83,106,40.15,161.1,156,146.65,174.33-19.92,25.17-206.76-170.46-349.47-112.09-51.05,20.88-67.69,62.3-121.1,60.49-55.16-1.87-66.56-47-139.95-71.58-83.69-28-151.86,9.45-157.17-5.76C2308.14,655.16,2362.24,611.38,2430,597Z" transform="translate(-19.44 -1.05)" style="fill:url(#e6eaad17-a276-4057-901d-6b2bc9b94743)"/></g></svg>