<svg id="8b365169-b12a-4329-a9e7-eef7fbcdc1a4" data-name="Layer 1" 
    xmlns="http://www.w3.org/2000/svg" viewBox="0 0 3310 736.27">
    <title>blob-advisors</title>
    <path d="M0,736.27c29.77-5.24,73.21-16.45,118.24-43.49,85.44-51.3,91.79-108.63,152.45-133.7,80.77-33.37,117.22,48.57,211.53,37.68,0,0,188.14-21.73,376.94-485a200.4,200.4,0,0,1,16-31.82c6.83-11.06,14.26-20.24,24.6-33s23.63-26.65,43.72-37.29C962-.17,981.22-4.26,1001.11,5.89c12.51,6.38,20.2,17.58,27.18,29.14,10.92,18.09,19.17,37.65,30.39,55.59,14.5,23.18,32.21,43.2,56.93,55.83a130.54,130.54,0,0,0,45.87,14.06c26.07,2.81,50.88-2,75.41-9.73,27.3-8.55,53.43-20.28,80.28-30.06,24.34-8.87,48.87-16.9,74.91-19.59,42.14-4.34,80.56,4.78,114.51,30.56,15.27,11.6,26.78,26.64,37,42.71,15,23.59,26.43,49.21,42.16,72.33,13.78,20.26,31,36.93,53.11,47.82a140.68,140.68,0,0,0,58.38,14.88c26.1.82,50.18-6.38,73.83-16.16,20.26-8.38,39.9-18.27,60.71-25.33,17.2-5.85,34.72-9.6,53.07-9.8a156.14,156.14,0,0,1,74.75,18,163.46,163.46,0,0,1,33,23c17.31,15.33,31,33.61,44.23,52.31,12.37,17.46,24.27,35.27,37.86,51.84,23.4,28.52,52.11,48.68,88.94,55.63,27.41,5.16,54.17,2.13,80.23-7.58,24.28-9,46.34-22.44,68.94-34.82,12.1-6.64,34.2-15.09,44.84-17.79,62.27-15.86,102.88,103.1,198,140.71,106.39,42.09,189.31-66.19,282.08-12.35,34.76,20.17,45.38,47.6,63.19,73.17,46.57,66.89,151.64,134.54,409.18,136Z" style="fill:#c6ebfe"/>
</svg>