<svg id="1547133c-8ba4-443f-8364-2afd72cb3778" data-name="Layer 1" xmlns="http://www.w3.org/2000/svg" viewBox="0 0 5167.97 1680.98"><title>blob_news</title><path d="M1737.53,174.54c260.11,93.5,439.06,339.12,726.1,274.61C2670.42,402.67,2761.78,229,3009,250c130.34,11.06,196.82,65.44,296.11,25.16C3451.38,215.8,3428,45.21,3529.94,6.54c165.74-62.9,335.73,344.66,711.77,513.25,454.1,203.59,856.13-99.38,918.9,11.53C5277.14,737.21,3978.91,1931,3433.85,1633.68c-227.43-124.07-152.6-412.19-408.33-528.75C2692.28,953,2472.76,1269.61,1886.16,1259.11c-555.86-10-660.73-319.61-1230.51-280.33-419.74,28.94-623.45,215-652.55,167.93C-64.85,1036.91,1000.56-90.38,1737.53,174.54Z" style="fill:#345060"/></svg>